0, 0, Header, 0, 1, 384
1, 0, Start_track
1, 0, Time_signature, 4, 2, 24, 8
1, 0, Tempo, 370370
1, 0, Title_t, "Elec. Piano (Classic)"
1, 0, Program_c, 0, 4
1, 0, Note_on_c, 0, 48, 33
1, 0, Note_on_c, 0, 60, 37
1, 0, Note_on_c, 0, 60, 26
1, 0, Note_on_c, 0, 63, 26
1, 0, Note_on_c, 0, 67, 26
1, 864, Note_off_c, 0, 60, 0
1, 864, Note_off_c, 0, 48, 0
1, 864, Note_on_c, 0, 62, 37
1, 864, Note_on_c, 0, 50, 33
1, 1248, Note_off_c, 0, 50, 0
1, 1248, Note_off_c, 0, 62, 0
1, 1248, Note_on_c, 0, 63, 37
1, 1248, Note_on_c, 0, 51, 33
1, 1632, Note_off_c, 0, 51, 0
1, 1632, Note_off_c, 0, 63, 0
1, 1632, Note_off_c, 0, 67, 0
1, 1632, Note_off_c, 0, 63, 0
1, 1632, Note_off_c, 0, 60, 0
1, 1632, Note_on_c, 0, 65, 37
1, 1632, Note_on_c, 0, 53, 33
1, 1632, Note_on_c, 0, 68, 26
1, 1632, Note_on_c, 0, 60, 26
1, 1632, Note_on_c, 0, 65, 26
1, 2400, Note_off_c, 0, 53, 0
1, 2400, Note_off_c, 0, 65, 0
1, 2400, Note_on_c, 0, 60, 37
1, 2400, Note_on_c, 0, 48, 33
1, 2784, Note_off_c, 0, 48, 0
1, 2784, Note_off_c, 0, 60, 0
1, 2784, Note_on_c, 0, 65, 37
1, 2784, Note_on_c, 0, 53, 33
1, 3168, Note_off_c, 0, 53, 0
1, 3168, Note_off_c, 0, 65, 0
1, 3168, Note_off_c, 0, 65, 0
1, 3168, Note_off_c, 0, 60, 0
1, 3168, Note_off_c, 0, 68, 0
1, 3168, Note_on_c, 0, 64, 37
1, 3168, Note_on_c, 0, 52, 33
1, 3168, Note_on_c, 0, 69, 26
1, 3168, Note_on_c, 0, 60, 26
1, 3168, Note_on_c, 0, 64, 26
1, 3936, Note_off_c, 0, 52, 0
1, 3936, Note_off_c, 0, 64, 0
1, 3936, Note_on_c, 0, 60, 37
1, 3936, Note_on_c, 0, 48, 33
1, 4320, Note_off_c, 0, 48, 0
1, 4320, Note_off_c, 0, 60, 0
1, 4320, Note_on_c, 0, 57, 37
1, 4320, Note_on_c, 0, 45, 33
1, 4704, Note_off_c, 0, 45, 0
1, 4704, Note_off_c, 0, 57, 0
1, 4704, Note_off_c, 0, 64, 0
1, 4704, Note_off_c, 0, 60, 0
1, 4704, Note_off_c, 0, 69, 0
1, 4704, Note_on_c, 0, 56, 37
1, 4704, Note_on_c, 0, 44, 33
1, 4704, Note_on_c, 0, 60, 26
1, 4704, Note_on_c, 0, 65, 26
1, 4704, Note_on_c, 0, 68, 26
1, 5472, Note_off_c, 0, 44, 0
1, 5472, Note_off_c, 0, 56, 0
1, 5472, Note_on_c, 0, 53, 37
1, 5472, Note_on_c, 0, 41, 33
1, 6144, Note_off_c, 0, 41, 0
1, 6144, Note_off_c, 0, 53, 0
1, 6144, Note_off_c, 0, 68, 0
1, 6144, Note_off_c, 0, 65, 0
1, 6144, Note_off_c, 0, 60, 0
1, 6144, Note_on_c, 0, 55, 35
1, 6144, Note_on_c, 0, 48, 28
1, 6144, Note_on_c, 0, 36, 34
1, 6144, Note_on_c, 0, 67, 26
1, 6144, Note_on_c, 0, 63, 26
1, 6144, Note_on_c, 0, 60, 26
1, 6240, Note_off_c, 0, 55, 0
1, 6240, Note_on_c, 0, 60, 35
1, 6336, Note_off_c, 0, 60, 0
1, 6336, Note_on_c, 0, 63, 35
1, 6432, Note_off_c, 0, 63, 0
1, 6432, Note_on_c, 0, 60, 35
1, 6528, Note_off_c, 0, 60, 0
1, 6528, Note_on_c, 0, 51, 36
1, 6624, Note_off_c, 0, 51, 0
1, 6624, Note_on_c, 0, 48, 36
1, 6720, Note_off_c, 0, 48, 0
1, 6720, Note_on_c, 0, 51, 37
1, 6816, Note_off_c, 0, 51, 0
1, 6816, Note_on_c, 0, 55, 37
1, 6912, Note_off_c, 0, 55, 0
1, 6912, Note_on_c, 0, 63, 37
1, 7008, Note_off_c, 0, 63, 0
1, 7008, Note_on_c, 0, 60, 38
1, 7104, Note_off_c, 0, 60, 0
1, 7104, Note_on_c, 0, 67, 37
1, 7200, Note_off_c, 0, 67, 0
1, 7200, Note_on_c, 0, 63, 38
1, 7296, Note_off_c, 0, 63, 0
1, 7296, Note_on_c, 0, 72, 38
1, 7392, Note_off_c, 0, 72, 0
1, 7392, Note_on_c, 0, 67, 38
1, 7488, Note_off_c, 0, 67, 0
1, 7488, Note_on_c, 0, 63, 37
1, 7584, Note_off_c, 0, 63, 0
1, 7584, Note_on_c, 0, 60, 37
1, 7680, Note_off_c, 0, 60, 0
1, 7680, Note_off_c, 0, 60, 0
1, 7680, Note_off_c, 0, 63, 0
1, 7680, Note_off_c, 0, 67, 0
1, 7680, Note_off_c, 0, 36, 0
1, 7680, Note_off_c, 0, 48, 0
1, 7680, Note_on_c, 0, 65, 32
1, 7680, Note_on_c, 0, 53, 28
1, 7680, Note_on_c, 0, 41, 34
1, 7680, Note_on_c, 0, 68, 26
1, 7680, Note_on_c, 0, 60, 26
1, 7680, Note_on_c, 0, 65, 26
1, 7776, Note_off_c, 0, 65, 0
1, 7776, Note_on_c, 0, 60, 33
1, 7872, Note_off_c, 0, 60, 0
1, 7872, Note_on_c, 0, 53, 34
1, 7968, Note_off_c, 0, 53, 0
1, 7968, Note_on_c, 0, 56, 35
1, 8064, Note_off_c, 0, 56, 0
1, 8064, Note_on_c, 0, 53, 36
1, 8160, Note_off_c, 0, 53, 0
1, 8160, Note_on_c, 0, 56, 36
1, 8256, Note_off_c, 0, 56, 0
1, 8256, Note_on_c, 0, 65, 36
1, 8352, Note_off_c, 0, 65, 0
1, 8352, Note_on_c, 0, 72, 36
1, 8448, Note_off_c, 0, 72, 0
1, 8448, Note_on_c, 0, 68, 36
1, 8544, Note_off_c, 0, 68, 0
1, 8544, Note_on_c, 0, 65, 36
1, 8640, Note_off_c, 0, 65, 0
1, 8640, Note_on_c, 0, 72, 36
1, 8736, Note_off_c, 0, 72, 0
1, 8736, Note_on_c, 0, 68, 36
1, 8832, Note_off_c, 0, 68, 0
1, 8832, Note_on_c, 0, 77, 36
1, 8928, Note_off_c, 0, 77, 0
1, 8928, Note_on_c, 0, 72, 36
1, 9024, Note_off_c, 0, 72, 0
1, 9024, Note_on_c, 0, 68, 36
1, 9120, Note_off_c, 0, 68, 0
1, 9120, Note_on_c, 0, 65, 36
1, 9216, Note_off_c, 0, 65, 0
1, 9216, Note_off_c, 0, 65, 0
1, 9216, Note_off_c, 0, 60, 0
1, 9216, Note_off_c, 0, 68, 0
1, 9216, Note_off_c, 0, 41, 0
1, 9216, Note_off_c, 0, 53, 0
1, 9216, Note_on_c, 0, 64, 31
1, 9216, Note_on_c, 0, 33, 34
1, 9216, Note_on_c, 0, 45, 28
1, 9216, Note_on_c, 0, 69, 26
1, 9216, Note_on_c, 0, 60, 26
1, 9216, Note_on_c, 0, 64, 26
1, 9312, Note_off_c, 0, 64, 0
1, 9312, Note_on_c, 0, 60, 32
1, 9408, Note_off_c, 0, 60, 0
1, 9408, Note_on_c, 0, 64, 33
1, 9504, Note_off_c, 0, 64, 0
1, 9504, Note_on_c, 0, 69, 33
1, 9600, Note_off_c, 0, 69, 0
1, 9600, Note_on_c, 0, 64, 33
1, 9600, Note_on_c, 0, 76, 33
1, 9696, Note_off_c, 0, 76, 0
1, 9696, Note_off_c, 0, 64, 0
1, 9696, Note_on_c, 0, 60, 35
1, 9696, Note_on_c, 0, 72, 35
1, 9792, Note_off_c, 0, 72, 0
1, 9792, Note_off_c, 0, 60, 0
1, 9792, Note_on_c, 0, 69, 30
1, 9792, Note_on_c, 0, 81, 36
1, 9888, Note_off_c, 0, 81, 0
1, 9888, Note_off_c, 0, 69, 0
1, 9888, Note_on_c, 0, 72, 36
1, 9888, Note_on_c, 0, 60, 30
1, 9984, Note_off_c, 0, 60, 0
1, 9984, Note_off_c, 0, 72, 0
1, 9984, Note_on_c, 0, 76, 30
1, 9984, Note_on_c, 0, 84, 36
1, 10080, Note_off_c, 0, 84, 0
1, 10080, Note_off_c, 0, 76, 0
1, 10080, Note_on_c, 0, 72, 30
1, 10080, Note_on_c, 0, 81, 36
1, 10176, Note_off_c, 0, 81, 0
1, 10176, Note_off_c, 0, 72, 0
1, 10176, Note_on_c, 0, 88, 36
1, 10176, Note_on_c, 0, 76, 30
1, 10272, Note_off_c, 0, 76, 0
1, 10272, Note_off_c, 0, 88, 0
1, 10272, Note_on_c, 0, 81, 30
1, 10272, Note_on_c, 0, 84, 36
1, 10368, Note_off_c, 0, 84, 0
1, 10368, Note_off_c, 0, 81, 0
1, 10368, Note_on_c, 0, 93, 36
1, 10368, Note_on_c, 0, 76, 30
1, 10464, Note_off_c, 0, 76, 0
1, 10464, Note_off_c, 0, 93, 0
1, 10464, Note_on_c, 0, 88, 36
1, 10464, Note_on_c, 0, 72, 30
1, 10560, Note_off_c, 0, 72, 0
1, 10560, Note_off_c, 0, 88, 0
1, 10560, Note_on_c, 0, 72, 24
1, 10560, Note_on_c, 0, 84, 36
1, 10656, Note_off_c, 0, 84, 0
1, 10656, Note_off_c, 0, 72, 0
1, 10656, Note_on_c, 0, 81, 36
1, 10752, Note_off_c, 0, 81, 0
1, 10752, Note_off_c, 0, 64, 0
1, 10752, Note_off_c, 0, 60, 0
1, 10752, Note_off_c, 0, 69, 0
1, 10752, Note_off_c, 0, 45, 0
1, 10752, Note_off_c, 0, 33, 0
1, 10752, Note_on_c, 0, 77, 31
1, 10752, Note_on_c, 0, 41, 34
1, 10752, Note_on_c, 0, 53, 28
1, 10752, Note_on_c, 0, 60, 26
1, 10752, Note_on_c, 0, 65, 26
1, 10752, Note_on_c, 0, 68, 26
1, 10752, Note_on_c, 0, 36, 37
1, 10808, Note_on_c, 0, 37, 37
1, 10848, Note_off_c, 0, 36, 0
1, 10848, Note_off_c, 0, 77, 0
1, 10848, Note_on_c, 0, 72, 32
1, 10860, Note_on_c, 0, 39, 37
1, 10903, Note_off_c, 0, 37, 0
1, 10915, Note_on_c, 0, 41, 37
1, 10943, Note_off_c, 0, 72, 0
1, 10943, Note_on_c, 0, 65, 34
1, 10955, Note_off_c, 0, 39, 0
1, 10970, Note_on_c, 0, 43, 37
1, 11010, Note_off_c, 0, 41, 0
1, 11026, Note_on_c, 0, 44, 37
1, 11038, Note_off_c, 0, 65, 0
1, 11038, Note_on_c, 0, 68, 35
1, 11066, Note_off_c, 0, 43, 0
1, 11078, Note_on_c, 0, 46, 37
1, 11122, Note_off_c, 0, 44, 0
1, 11134, Note_off_c, 0, 68, 0
1, 11134, Note_on_c, 0, 65, 35
1, 11134, Note_on_c, 0, 48, 36
1, 11174, Note_off_c, 0, 46, 0
1, 11189, Note_on_c, 0, 49, 35
1, 11229, Note_off_c, 0, 48, 0
1, 11229, Note_off_c, 0, 65, 0
1, 11229, Note_on_c, 0, 68, 38
1, 11245, Note_on_c, 0, 51, 34
1, 11284, Note_off_c, 0, 49, 0
1, 11296, Note_on_c, 0, 53, 33
1, 11324, Note_off_c, 0, 68, 0
1, 11324, Note_on_c, 0, 77, 38
1, 11340, Note_off_c, 0, 51, 0
1, 11352, Note_on_c, 0, 55, 33
1, 11392, Note_off_c, 0, 53, 0
1, 11408, Note_on_c, 0, 56, 33
1, 11420, Note_off_c, 0, 77, 0
1, 11420, Note_on_c, 0, 84, 38
1, 11448, Note_off_c, 0, 55, 0
1, 11464, Note_on_c, 0, 58, 33
1, 11504, Note_off_c, 0, 56, 0
1, 11516, Note_off_c, 0, 84, 0
1, 11516, Note_on_c, 0, 80, 38
1, 11516, Note_on_c, 0, 60, 33
1, 11560, Note_off_c, 0, 58, 0
1, 11572, Note_on_c, 0, 61, 33
1, 11612, Note_off_c, 0, 60, 0
1, 11612, Note_off_c, 0, 80, 0
1, 11612, Note_on_c, 0, 77, 38
1, 11628, Note_on_c, 0, 63, 33
1, 11667, Note_off_c, 0, 61, 0
1, 11683, Note_on_c, 0, 65, 34
1, 11707, Note_off_c, 0, 77, 0
1, 11707, Note_on_c, 0, 84, 38
1, 11723, Note_off_c, 0, 63, 0
1, 11735, Note_on_c, 0, 67, 34
1, 11779, Note_off_c, 0, 65, 0
1, 11791, Note_on_c, 0, 68, 35
1, 11803, Note_off_c, 0, 84, 0
1, 11803, Note_on_c, 0, 80, 38
1, 11831, Note_off_c, 0, 67, 0
1, 11847, Note_on_c, 0, 70, 35
1, 11887, Note_off_c, 0, 68, 0
1, 11899, Note_off_c, 0, 80, 0
1, 11899, Note_on_c, 0, 89, 38
1, 11903, Note_on_c, 0, 72, 36
1, 11943, Note_off_c, 0, 70, 0
1, 11955, Note_on_c, 0, 73, 36
1, 11995, Note_off_c, 0, 89, 0
1, 11995, Note_on_c, 0, 84, 38
1, 11999, Note_off_c, 0, 72, 0
1, 12011, Note_on_c, 0, 75, 36
1, 12050, Note_off_c, 0, 73, 0
1, 12066, Note_on_c, 0, 77, 37
1, 12090, Note_off_c, 0, 84, 0
1, 12090, Note_on_c, 0, 80, 38
1, 12106, Note_off_c, 0, 75, 0
1, 12121, Note_on_c, 0, 79, 37
1, 12161, Note_off_c, 0, 77, 0
1, 12173, Note_on_c, 0, 80, 38
1, 12185, Note_off_c, 0, 80, 0
1, 12185, Note_on_c, 0, 77, 39
1, 12217, Note_off_c, 0, 79, 0
1, 12229, Note_on_c, 0, 82, 40
1, 12269, Note_off_c, 0, 80, 0
1, 12281, Note_off_c, 0, 77, 0
1, 12281, Note_off_c, 0, 68, 0
1, 12281, Note_off_c, 0, 65, 0
1, 12281, Note_off_c, 0, 60, 0
1, 12281, Note_off_c, 0, 53, 0
1, 12281, Note_off_c, 0, 41, 0
1, 12281, Note_on_c, 0, 63, 36
1, 12281, Note_on_c, 0, 48, 33
1, 12281, Note_on_c, 0, 60, 25
1, 12281, Note_on_c, 0, 72, 35
1, 12285, Note_on_c, 0, 84, 41
1, 12325, Note_off_c, 0, 82, 0
1, 12377, Note_off_c, 0, 48, 0
1, 12377, Note_off_c, 0, 63, 0
1, 12377, Note_on_c, 0, 60, 36
1, 12377, Note_on_c, 0, 48, 28
1, 12381, Note_off_c, 0, 84, 0
1, 12473, Note_off_c, 0, 48, 0
1, 12473, Note_off_c, 0, 60, 0
1, 12473, Note_off_c, 0, 72, 0
1, 12473, Note_off_c, 0, 60, 0
1, 12473, Note_on_c, 0, 63, 36
1, 12473, Note_on_c, 0, 48, 28
1, 12473, Note_on_c, 0, 60, 25
1, 12473, Note_on_c, 0, 72, 35
1, 12569, Note_off_c, 0, 72, 0
1, 12569, Note_off_c, 0, 60, 0
1, 12569, Note_off_c, 0, 48, 0
1, 12569, Note_off_c, 0, 63, 0
1, 12569, Note_on_c, 0, 67, 36
1, 12569, Note_on_c, 0, 48, 28
1, 12569, Note_on_c, 0, 63, 25
1, 12569, Note_on_c, 0, 75, 35
1, 12665, Note_off_c, 0, 75, 0
1, 12665, Note_off_c, 0, 63, 0
1, 12665, Note_off_c, 0, 48, 0
1, 12665, Note_off_c, 0, 67, 0
1, 12665, Note_on_c, 0, 50, 33
1, 12665, Note_on_c, 0, 62, 25
1, 12665, Note_on_c, 0, 74, 35
1, 12761, Note_off_c, 0, 50, 0
1, 12761, Note_on_c, 0, 60, 36
1, 12761, Note_on_c, 0, 50, 28
1, 12857, Note_off_c, 0, 50, 0
1, 12857, Note_off_c, 0, 60, 0
1, 12857, Note_off_c, 0, 74, 0
1, 12857, Note_off_c, 0, 62, 0
1, 12857, Note_on_c, 0, 65, 36
1, 12857, Note_on_c, 0, 50, 28
1, 12857, Note_on_c, 0, 62, 25
1, 12857, Note_on_c, 0, 74, 35
1, 12953, Note_off_c, 0, 74, 0
1, 12953, Note_off_c, 0, 62, 0
1, 12953, Note_off_c, 0, 50, 0
1, 12953, Note_off_c, 0, 65, 0
1, 12953, Note_on_c, 0, 68, 36
1, 12953, Note_on_c, 0, 50, 28
1, 12953, Note_on_c, 0, 65, 25
1, 12953, Note_on_c, 0, 77, 35
1, 13049, Note_off_c, 0, 77, 0
1, 13049, Note_off_c, 0, 65, 0
1, 13049, Note_off_c, 0, 50, 0
1, 13049, Note_off_c, 0, 68, 0
1, 13049, Note_on_c, 0, 67, 36
1, 13049, Note_on_c, 0, 51, 33
1, 13049, Note_on_c, 0, 75, 35
1, 13049, Note_on_c, 0, 63, 25
1, 13145, Note_off_c, 0, 51, 0
1, 13145, Note_off_c, 0, 67, 0
1, 13145, Note_on_c, 0, 63, 36
1, 13145, Note_on_c, 0, 51, 28
1, 13241, Note_off_c, 0, 51, 0
1, 13241, Note_off_c, 0, 63, 0
1, 13241, Note_off_c, 0, 63, 0
1, 13241, Note_off_c, 0, 75, 0
1, 13241, Note_on_c, 0, 67, 36
1, 13241, Note_on_c, 0, 51, 28
1, 13241, Note_on_c, 0, 63, 25
1, 13241, Note_on_c, 0, 75, 35
1, 13337, Note_off_c, 0, 75, 0
1, 13337, Note_off_c, 0, 63, 0
1, 13337, Note_off_c, 0, 51, 0
1, 13337, Note_off_c, 0, 67, 0
1, 13337, Note_on_c, 0, 70, 36
1, 13337, Note_on_c, 0, 51, 28
1, 13337, Note_on_c, 0, 79, 35
1, 13337, Note_on_c, 0, 67, 25
1, 13433, Note_off_c, 0, 67, 0
1, 13433, Note_off_c, 0, 79, 0
1, 13433, Note_off_c, 0, 51, 0
1, 13433, Note_off_c, 0, 70, 0
1, 13433, Note_on_c, 0, 68, 36
1, 13433, Note_on_c, 0, 53, 33
1, 13433, Note_on_c, 0, 77, 33
1, 13529, Note_off_c, 0, 77, 0
1, 13529, Note_off_c, 0, 53, 0
1, 13529, Note_off_c, 0, 68, 0
1, 13529, Note_on_c, 0, 65, 36
1, 13529, Note_on_c, 0, 53, 28
1, 13529, Note_on_c, 0, 74, 32
1, 13625, Note_off_c, 0, 74, 0
1, 13625, Note_off_c, 0, 53, 0
1, 13625, Note_off_c, 0, 65, 0
1, 13625, Note_on_c, 0, 68, 36
1, 13625, Note_on_c, 0, 53, 28
1, 13625, Note_on_c, 0, 75, 31
1, 13721, Note_off_c, 0, 75, 0
1, 13721, Note_off_c, 0, 68, 0
1, 13721, Note_on_c, 0, 72, 36
1, 13721, Note_on_c, 0, 77, 30
1, 13817, Note_off_c, 0, 77, 0
1, 13817, Note_off_c, 0, 72, 0
1, 13817, Note_off_c, 0, 53, 0
1, 13817, Note_on_c, 0, 71, 36
1, 13817, Note_on_c, 0, 55, 33
1, 13817, Note_on_c, 0, 79, 29
1, 13913, Note_off_c, 0, 79, 0
1, 13913, Note_off_c, 0, 55, 0
1, 13913, Note_off_c, 0, 71, 0
1, 13913, Note_on_c, 0, 67, 36
1, 13913, Note_on_c, 0, 74, 29
1, 14009, Note_off_c, 0, 74, 0
1, 14009, Note_off_c, 0, 67, 0
1, 14009, Note_on_c, 0, 71, 36
1, 14009, Note_on_c, 0, 79, 27
1, 14105, Note_off_c, 0, 79, 0
1, 14105, Note_off_c, 0, 71, 0
1, 14105, Note_on_c, 0, 74, 36
1, 14105, Note_on_c, 0, 83, 25
1, 14201, Note_off_c, 0, 83, 0
1, 14201, Note_off_c, 0, 74, 0
1, 14201, Note_on_c, 0, 77, 36
1, 14201, Note_on_c, 0, 86, 24
1, 14297, Note_off_c, 0, 86, 0
1, 14297, Note_off_c, 0, 77, 0
1, 14297, Note_on_c, 0, 74, 36
1, 14393, Note_off_c, 0, 74, 0
1, 14393, Note_on_c, 0, 77, 36
1, 14489, Note_off_c, 0, 77, 0
1, 14489, Note_on_c, 0, 79, 36
1, 14585, Note_off_c, 0, 79, 0
1, 14585, Note_on_c, 0, 83, 39
1, 14777, Note_off_c, 0, 83, 0
1, 14969, Note_on_c, 0, 55, 36
1, 15065, Note_off_c, 0, 55, 0
1, 15065, Note_on_c, 0, 60, 36
1, 15161, Note_off_c, 0, 60, 0
1, 15161, Note_on_c, 0, 63, 36
1, 15257, Note_off_c, 0, 63, 0
1, 15257, Note_on_c, 0, 65, 36
1, 15353, Note_off_c, 0, 65, 0
1, 15353, Note_on_c, 0, 55, 28
1, 15353, Note_on_c, 0, 67, 39
1, 15353, Note_on_c, 0, 72, 30
1, 15449, Note_off_c, 0, 72, 0
1, 15449, Note_on_c, 0, 67, 30
1, 15545, Note_off_c, 0, 67, 0
1, 15545, Note_on_c, 0, 36, 33
1, 15545, Note_on_c, 0, 63, 30
1, 15641, Note_off_c, 0, 63, 0
1, 15641, Note_on_c, 0, 60, 30
1, 15737, Note_off_c, 0, 60, 0
1, 15737, Note_off_c, 0, 36, 0
1, 15737, Note_on_c, 0, 67, 30
1, 15833, Note_off_c, 0, 67, 0
1, 15833, Note_on_c, 0, 63, 30
1, 15929, Note_off_c, 0, 63, 0
1, 15929, Note_on_c, 0, 36, 33
1, 15929, Note_on_c, 0, 60, 30
1, 16025, Note_off_c, 0, 60, 0
1, 16025, Note_on_c, 0, 55, 30
1, 16121, Note_off_c, 0, 55, 0
1, 16121, Note_off_c, 0, 36, 0
1, 16121, Note_on_c, 0, 63, 30
1, 16217, Note_off_c, 0, 63, 0
1, 16313, Note_on_c, 0, 36, 33
1, 16313, Note_on_c, 0, 60, 30
1, 16409, Note_off_c, 0, 60, 0
1, 16409, Note_on_c, 0, 63, 30
1, 16505, Note_off_c, 0, 63, 0
1, 16505, Note_off_c, 0, 36, 0
1, 16505, Note_on_c, 0, 55, 30
1, 16601, Note_off_c, 0, 55, 0
1, 16601, Note_on_c, 0, 60, 30
1, 16697, Note_off_c, 0, 60, 0
1, 16697, Note_on_c, 0, 36, 33
1, 16697, Note_on_c, 0, 63, 30
1, 16793, Note_off_c, 0, 63, 0
1, 16889, Note_off_c, 0, 36, 0
1, 16889, Note_off_c, 0, 67, 0
1, 16889, Note_off_c, 0, 55, 0
1, 16889, Note_on_c, 0, 53, 28
1, 16889, Note_on_c, 0, 65, 39
1, 16889, Note_on_c, 0, 70, 30
1, 16985, Note_off_c, 0, 70, 0
1, 16985, Note_on_c, 0, 67, 30
1, 17081, Note_off_c, 0, 67, 0
1, 17081, Note_on_c, 0, 41, 33
1, 17081, Note_on_c, 0, 63, 30
1, 17177, Note_off_c, 0, 63, 0
1, 17177, Note_on_c, 0, 58, 30
1, 17273, Note_off_c, 0, 58, 0
1, 17273, Note_off_c, 0, 41, 0
1, 17273, Note_on_c, 0, 67, 30
1, 17369, Note_off_c, 0, 67, 0
1, 17369, Note_on_c, 0, 63, 30
1, 17465, Note_off_c, 0, 63, 0
1, 17465, Note_on_c, 0, 41, 33
1, 17465, Note_on_c, 0, 58, 30
1, 17561, Note_off_c, 0, 58, 0
1, 17657, Note_off_c, 0, 41, 0
1, 17657, Note_off_c, 0, 65, 0
1, 17657, Note_off_c, 0, 53, 0
1, 17657, Note_on_c, 0, 56, 28
1, 17657, Note_on_c, 0, 68, 39
1, 17657, Note_on_c, 0, 51, 30
1, 17753, Note_off_c, 0, 51, 0
1, 17753, Note_on_c, 0, 53, 30
1, 17849, Note_off_c, 0, 53, 0
1, 17849, Note_on_c, 0, 41, 33
1, 17849, Note_on_c, 0, 56, 30
1, 17945, Note_off_c, 0, 56, 0
1, 17945, Note_on_c, 0, 60, 30
1, 18041, Note_off_c, 0, 60, 0
1, 18041, Note_off_c, 0, 41, 0
1, 18041, Note_on_c, 0, 53, 30
1, 18137, Note_off_c, 0, 53, 0
1, 18137, Note_on_c, 0, 56, 30
1, 18233, Note_off_c, 0, 56, 0
1, 18233, Note_on_c, 0, 41, 33
1, 18233, Note_on_c, 0, 60, 30
1, 18329, Note_off_c, 0, 60, 0
1, 18329, Note_on_c, 0, 65, 30
1, 18425, Note_off_c, 0, 65, 0
1, 18425, Note_off_c, 0, 41, 0
1, 18425, Note_off_c, 0, 68, 0
1, 18425, Note_off_c, 0, 56, 0
1, 18425, Note_on_c, 0, 67, 41
1, 18425, Note_on_c, 0, 55, 33
1, 18617, Note_off_c, 0, 67, 0
1, 18617, Note_on_c, 0, 36, 33
1, 18617, Note_on_c, 0, 60, 36
1, 18713, Note_off_c, 0, 60, 0
1, 18713, Note_on_c, 0, 63, 36
1, 18809, Note_off_c, 0, 63, 0
1, 18809, Note_off_c, 0, 36, 0
1, 18809, Note_on_c, 0, 55, 36
1, 18905, Note_off_c, 0, 55, 0
1, 18905, Note_on_c, 0, 60, 36
1, 19001, Note_off_c, 0, 60, 0
1, 19001, Note_on_c, 0, 36, 33
1, 19001, Note_on_c, 0, 65, 36
1, 19097, Note_off_c, 0, 65, 0
1, 19097, Note_on_c, 0, 55, 28
1, 19193, Note_off_c, 0, 55, 0
1, 19193, Note_off_c, 0, 36, 0
1, 19193, Note_on_c, 0, 60, 36
1, 19289, Note_off_c, 0, 60, 0
1, 19289, Note_on_c, 0, 62, 36
1, 19385, Note_off_c, 0, 62, 0
1, 19385, Note_on_c, 0, 36, 33
1, 19385, Note_on_c, 0, 55, 36
1, 19481, Note_off_c, 0, 55, 0
1, 19481, Note_on_c, 0, 60, 36
1, 19577, Note_off_c, 0, 60, 0
1, 19577, Note_off_c, 0, 36, 0
1, 19577, Note_on_c, 0, 63, 36
1, 19673, Note_off_c, 0, 63, 0
1, 19673, Note_on_c, 0, 62, 36
1, 19769, Note_off_c, 0, 62, 0
1, 19769, Note_on_c, 0, 36, 33
1, 19769, Note_on_c, 0, 60, 36
1, 19865, Note_off_c, 0, 60, 0
1, 19865, Note_on_c, 0, 55, 36
1, 19961, Note_off_c, 0, 55, 0
1, 19961, Note_off_c, 0, 36, 0
1, 19961, Note_on_c, 0, 67, 36
1, 20057, Note_off_c, 0, 67, 0
1, 20153, Note_on_c, 0, 36, 33
1, 20153, Note_on_c, 0, 60, 36
1, 20249, Note_off_c, 0, 60, 0
1, 20249, Note_on_c, 0, 63, 36
1, 20345, Note_off_c, 0, 63, 0
1, 20345, Note_off_c, 0, 36, 0
1, 20345, Note_on_c, 0, 55, 36
1, 20441, Note_off_c, 0, 55, 0
1, 20441, Note_on_c, 0, 60, 36
1, 20537, Note_off_c, 0, 60, 0
1, 20537, Note_on_c, 0, 36, 33
1, 20537, Note_on_c, 0, 65, 36
1, 20633, Note_off_c, 0, 65, 0
1, 20633, Note_on_c, 0, 55, 36
1, 20729, Note_off_c, 0, 55, 0
1, 20729, Note_off_c, 0, 36, 0
1, 20729, Note_on_c, 0, 60, 36
1, 20825, Note_off_c, 0, 60, 0
1, 20825, Note_on_c, 0, 62, 36
1, 20921, Note_off_c, 0, 62, 0
1, 20921, Note_on_c, 0, 36, 33
1, 20921, Note_on_c, 0, 55, 36
1, 21017, Note_off_c, 0, 55, 0
1, 21017, Note_on_c, 0, 62, 36
1, 21113, Note_off_c, 0, 62, 0
1, 21113, Note_off_c, 0, 36, 0
1, 21113, Note_on_c, 0, 63, 36
1, 21209, Note_off_c, 0, 63, 0
1, 21209, Note_on_c, 0, 62, 36
1, 21305, Note_off_c, 0, 62, 0
1, 21305, Note_on_c, 0, 36, 33
1, 21305, Note_on_c, 0, 63, 36
1, 21401, Note_off_c, 0, 63, 0
1, 21401, Note_on_c, 0, 65, 36
1, 21497, Note_off_c, 0, 65, 0
1, 21497, Note_off_c, 0, 36, 0
1, 21497, Note_off_c, 0, 55, 0
1, 21497, Note_on_c, 0, 56, 25
1, 21497, Note_on_c, 0, 68, 39
1, 21497, Note_on_c, 0, 75, 30
1, 21593, Note_off_c, 0, 75, 0
1, 21593, Note_on_c, 0, 72, 30
1, 21689, Note_off_c, 0, 72, 0
1, 21689, Note_on_c, 0, 44, 33
1, 21689, Note_on_c, 0, 68, 30
1, 21785, Note_off_c, 0, 68, 0
1, 21785, Note_on_c, 0, 63, 30
1, 21881, Note_off_c, 0, 63, 0
1, 21881, Note_off_c, 0, 44, 0
1, 21881, Note_on_c, 0, 72, 30
1, 21977, Note_off_c, 0, 72, 0
1, 21977, Note_on_c, 0, 68, 30
1, 22073, Note_off_c, 0, 68, 0
1, 22073, Note_on_c, 0, 44, 33
1, 22073, Note_on_c, 0, 63, 30
1, 22169, Note_off_c, 0, 63, 0
1, 22169, Note_on_c, 0, 60, 30
1, 22265, Note_off_c, 0, 60, 0
1, 22265, Note_off_c, 0, 44, 0
1, 22265, Note_off_c, 0, 68, 0
1, 22265, Note_off_c, 0, 56, 0
1, 22265, Note_on_c, 0, 63, 27
1, 22265, Note_on_c, 0, 75, 39
1, 22265, Note_on_c, 0, 56, 30
1, 22361, Note_off_c, 0, 56, 0
1, 22361, Note_on_c, 0, 60, 30
1, 22457, Note_off_c, 0, 60, 0
1, 22457, Note_on_c, 0, 44, 33
1, 22457, Note_on_c, 0, 63, 30
1, 22553, Note_off_c, 0, 63, 0
1, 22553, Note_on_c, 0, 68, 30
1, 22649, Note_off_c, 0, 68, 0
1, 22649, Note_off_c, 0, 44, 0
1, 22649, Note_on_c, 0, 63, 30
1, 22745, Note_off_c, 0, 63, 0
1, 22745, Note_on_c, 0, 68, 30
1, 22841, Note_off_c, 0, 68, 0
1, 22841, Note_on_c, 0, 44, 33
1, 22841, Note_on_c, 0, 75, 30
1, 22937, Note_off_c, 0, 75, 0
1, 22937, Note_on_c, 0, 77, 30
1, 23033, Note_off_c, 0, 77, 0
1, 23033, Note_off_c, 0, 44, 0
1, 23033, Note_off_c, 0, 75, 0
1, 23033, Note_off_c, 0, 63, 0
1, 23033, Note_on_c, 0, 62, 27
1, 23033, Note_on_c, 0, 74, 39
1, 23033, Note_on_c, 0, 80, 30
1, 23129, Note_off_c, 0, 80, 0
1, 23129, Note_on_c, 0, 77, 30
1, 23225, Note_off_c, 0, 77, 0
1, 23225, Note_on_c, 0, 41, 33
1, 23225, Note_on_c, 0, 72, 30
1, 23321, Note_off_c, 0, 72, 0
1, 23321, Note_on_c, 0, 68, 30
1, 23417, Note_off_c, 0, 68, 0
1, 23417, Note_off_c, 0, 41, 0
1, 23417, Note_on_c, 0, 77, 30
1, 23513, Note_off_c, 0, 77, 0
1, 23513, Note_on_c, 0, 72, 30
1, 23609, Note_off_c, 0, 72, 0
1, 23609, Note_on_c, 0, 41, 33
1, 23609, Note_on_c, 0, 68, 30
1, 23705, Note_off_c, 0, 68, 0
1, 23705, Note_on_c, 0, 65, 30
1, 23801, Note_off_c, 0, 65, 0
1, 23801, Note_off_c, 0, 41, 0
1, 23801, Note_off_c, 0, 74, 0
1, 23801, Note_off_c, 0, 62, 0
1, 23801, Note_on_c, 0, 56, 27
1, 23801, Note_on_c, 0, 68, 39
1, 23801, Note_on_c, 0, 60, 30
1, 23897, Note_off_c, 0, 60, 0
1, 23897, Note_on_c, 0, 65, 30
1, 23993, Note_off_c, 0, 65, 0
1, 23993, Note_on_c, 0, 41, 33
1, 23993, Note_on_c, 0, 68, 30
1, 24089, Note_off_c, 0, 68, 0
1, 24089, Note_on_c, 0, 72, 30
1, 24185, Note_off_c, 0, 72, 0
1, 24185, Note_off_c, 0, 41, 0
1, 24185, Note_off_c, 0, 68, 0
1, 24185, Note_off_c, 0, 56, 0
1, 24185, Note_on_c, 0, 58, 27
1, 24185, Note_on_c, 0, 70, 39
1, 24185, Note_on_c, 0, 65, 30
1, 24281, Note_off_c, 0, 65, 0
1, 24281, Note_on_c, 0, 68, 30
1, 24377, Note_off_c, 0, 68, 0
1, 24377, Note_on_c, 0, 41, 33
1, 24377, Note_on_c, 0, 72, 30
1, 24473, Note_off_c, 0, 72, 0
1, 24473, Note_on_c, 0, 77, 30
1, 24569, Note_off_c, 0, 77, 0
1, 24569, Note_off_c, 0, 41, 0
1, 24569, Note_off_c, 0, 70, 0
1, 24569, Note_off_c, 0, 58, 0
1, 24569, Note_on_c, 0, 72, 38
1, 24665, Note_off_c, 0, 72, 0
1, 24665, Note_on_c, 0, 55, 38
1, 24761, Note_off_c, 0, 55, 0
1, 24761, Note_on_c, 0, 67, 38
1, 24761, Note_on_c, 0, 36, 33
1, 24857, Note_off_c, 0, 67, 0
1, 24857, Note_on_c, 0, 74, 38
1, 24953, Note_off_c, 0, 74, 0
1, 24953, Note_off_c, 0, 36, 0
1, 24953, Note_on_c, 0, 60, 38
1, 25049, Note_off_c, 0, 60, 0
1, 25049, Note_on_c, 0, 67, 38
1, 25145, Note_off_c, 0, 67, 0
1, 25145, Note_on_c, 0, 72, 38
1, 25145, Note_on_c, 0, 36, 33
1, 25241, Note_off_c, 0, 72, 0
1, 25241, Note_on_c, 0, 60, 38
1, 25337, Note_off_c, 0, 60, 0
1, 25337, Note_off_c, 0, 36, 0
1, 25337, Note_on_c, 0, 67, 38
1, 25433, Note_off_c, 0, 67, 0
1, 25433, Note_on_c, 0, 75, 38
1, 25529, Note_off_c, 0, 75, 0
1, 25529, Note_on_c, 0, 60, 38
1, 25529, Note_on_c, 0, 36, 33
1, 25625, Note_off_c, 0, 60, 0
1, 25625, Note_on_c, 0, 67, 38
1, 25721, Note_off_c, 0, 67, 0
1, 25721, Note_off_c, 0, 36, 0
1, 25721, Note_on_c, 0, 74, 38
1, 25817, Note_off_c, 0, 74, 0
1, 25817, Note_on_c, 0, 75, 38
1, 25913, Note_off_c, 0, 75, 0
1, 25913, Note_on_c, 0, 74, 38
1, 25913, Note_on_c, 0, 36, 33
1, 26009, Note_off_c, 0, 74, 0
1, 26009, Note_on_c, 0, 70, 38
1, 26105, Note_off_c, 0, 70, 0
1, 26105, Note_off_c, 0, 36, 0
1, 26105, Note_on_c, 0, 72, 38
1, 26201, Note_off_c, 0, 72, 0
1, 26201, Note_on_c, 0, 60, 38
1, 26297, Note_off_c, 0, 60, 0
1, 26297, Note_on_c, 0, 70, 38
1, 26297, Note_on_c, 0, 36, 33
1, 26393, Note_off_c, 0, 70, 0
1, 26393, Note_on_c, 0, 72, 38
1, 26489, Note_off_c, 0, 72, 0
1, 26489, Note_off_c, 0, 36, 0
1, 26489, Note_on_c, 0, 60, 38
1, 26585, Note_off_c, 0, 60, 0
1, 26585, Note_on_c, 0, 63, 38
1, 26681, Note_off_c, 0, 63, 0
1, 26681, Note_on_c, 0, 67, 38
1, 26681, Note_on_c, 0, 36, 33
1, 26777, Note_off_c, 0, 67, 0
1, 26777, Note_on_c, 0, 63, 38
1, 26873, Note_off_c, 0, 63, 0
1, 26873, Note_off_c, 0, 36, 0
1, 26873, Note_on_c, 0, 65, 36
1, 26873, Note_on_c, 0, 60, 28
1, 26969, Note_off_c, 0, 60, 0
1, 26969, Note_off_c, 0, 65, 0
1, 26969, Note_on_c, 0, 58, 28
1, 26969, Note_on_c, 0, 63, 36
1, 27065, Note_off_c, 0, 63, 0
1, 27065, Note_off_c, 0, 58, 0
1, 27065, Note_on_c, 0, 65, 36
1, 27065, Note_on_c, 0, 60, 28
1, 27065, Note_on_c, 0, 36, 33
1, 27161, Note_off_c, 0, 60, 0
1, 27161, Note_off_c, 0, 65, 0
1, 27161, Note_on_c, 0, 67, 36
1, 27161, Note_on_c, 0, 62, 28
1, 27257, Note_off_c, 0, 62, 0
1, 27257, Note_off_c, 0, 67, 0
1, 27257, Note_off_c, 0, 36, 0
1, 27257, Note_on_c, 0, 63, 28
1, 27257, Note_on_c, 0, 68, 36
1, 27353, Note_off_c, 0, 68, 0
1, 27353, Note_off_c, 0, 63, 0
1, 27353, Note_on_c, 0, 67, 36
1, 27353, Note_on_c, 0, 62, 28
1, 27449, Note_off_c, 0, 62, 0
1, 27449, Note_off_c, 0, 67, 0
1, 27449, Note_on_c, 0, 63, 28
1, 27449, Note_on_c, 0, 68, 36
1, 27449, Note_on_c, 0, 36, 33
1, 27545, Note_off_c, 0, 68, 0
1, 27545, Note_off_c, 0, 63, 0
1, 27545, Note_on_c, 0, 65, 28
1, 27545, Note_on_c, 0, 70, 36
1, 27641, Note_off_c, 0, 70, 0
1, 27641, Note_off_c, 0, 65, 0
1, 27641, Note_off_c, 0, 36, 0
1, 27641, Note_on_c, 0, 55, 28
1, 27641, Note_on_c, 0, 67, 39
1, 27641, Note_on_c, 0, 72, 30
1, 27737, Note_off_c, 0, 72, 0
1, 27737, Note_on_c, 0, 67, 30
1, 27833, Note_off_c, 0, 67, 0
1, 27833, Note_on_c, 0, 36, 33
1, 27833, Note_on_c, 0, 63, 30
1, 27929, Note_off_c, 0, 63, 0
1, 27929, Note_on_c, 0, 60, 30
1, 28025, Note_off_c, 0, 60, 0
1, 28025, Note_off_c, 0, 36, 0
1, 28025, Note_on_c, 0, 67, 30
1, 28121, Note_off_c, 0, 67, 0
1, 28121, Note_on_c, 0, 63, 30
1, 28217, Note_off_c, 0, 63, 0
1, 28217, Note_on_c, 0, 36, 33
1, 28217, Note_on_c, 0, 60, 30
1, 28313, Note_off_c, 0, 60, 0
1, 28313, Note_on_c, 0, 55, 30
1, 28409, Note_off_c, 0, 55, 0
1, 28409, Note_off_c, 0, 36, 0
1, 28409, Note_on_c, 0, 63, 30
1, 28505, Note_off_c, 0, 63, 0
1, 28601, Note_on_c, 0, 36, 33
1, 28601, Note_on_c, 0, 60, 30
1, 28697, Note_off_c, 0, 60, 0
1, 28697, Note_on_c, 0, 63, 30
1, 28793, Note_off_c, 0, 63, 0
1, 28793, Note_off_c, 0, 36, 0
1, 28793, Note_on_c, 0, 55, 30
1, 28889, Note_off_c, 0, 55, 0
1, 28889, Note_on_c, 0, 60, 30
1, 28985, Note_off_c, 0, 60, 0
1, 28985, Note_on_c, 0, 36, 33
1, 28985, Note_on_c, 0, 63, 30
1, 29081, Note_off_c, 0, 63, 0
1, 29177, Note_off_c, 0, 36, 0
1, 29177, Note_off_c, 0, 67, 0
1, 29177, Note_off_c, 0, 55, 0
1, 29177, Note_on_c, 0, 53, 28
1, 29177, Note_on_c, 0, 65, 39
1, 29177, Note_on_c, 0, 70, 30
1, 29273, Note_off_c, 0, 70, 0
1, 29273, Note_on_c, 0, 67, 30
1, 29369, Note_off_c, 0, 67, 0
1, 29369, Note_on_c, 0, 41, 33
1, 29369, Note_on_c, 0, 63, 30
1, 29465, Note_off_c, 0, 63, 0
1, 29465, Note_on_c, 0, 58, 30
1, 29561, Note_off_c, 0, 58, 0
1, 29561, Note_off_c, 0, 41, 0
1, 29561, Note_on_c, 0, 67, 30
1, 29657, Note_off_c, 0, 67, 0
1, 29657, Note_on_c, 0, 63, 30
1, 29753, Note_off_c, 0, 63, 0
1, 29753, Note_on_c, 0, 41, 33
1, 29753, Note_on_c, 0, 58, 30
1, 29849, Note_off_c, 0, 58, 0
1, 29945, Note_off_c, 0, 41, 0
1, 29945, Note_off_c, 0, 65, 0
1, 29945, Note_off_c, 0, 53, 0
1, 29945, Note_on_c, 0, 56, 28
1, 29945, Note_on_c, 0, 68, 39
1, 29945, Note_on_c, 0, 51, 30
1, 30041, Note_off_c, 0, 51, 0
1, 30041, Note_on_c, 0, 53, 30
1, 30137, Note_off_c, 0, 53, 0
1, 30137, Note_on_c, 0, 41, 33
1, 30137, Note_on_c, 0, 56, 30
1, 30233, Note_off_c, 0, 56, 0
1, 30233, Note_on_c, 0, 60, 30
1, 30329, Note_off_c, 0, 60, 0
1, 30329, Note_off_c, 0, 41, 0
1, 30329, Note_on_c, 0, 53, 30
1, 30425, Note_off_c, 0, 53, 0
1, 30425, Note_on_c, 0, 56, 30
1, 30521, Note_off_c, 0, 56, 0
1, 30521, Note_on_c, 0, 41, 33
1, 30521, Note_on_c, 0, 60, 30
1, 30617, Note_off_c, 0, 60, 0
1, 30617, Note_on_c, 0, 65, 30
1, 30713, Note_off_c, 0, 65, 0
1, 30713, Note_off_c, 0, 41, 0
1, 30713, Note_off_c, 0, 68, 0
1, 30713, Note_off_c, 0, 56, 0
1, 30713, Note_on_c, 0, 67, 36
1, 30713, Note_on_c, 0, 55, 33
1, 30905, Note_off_c, 0, 67, 0
1, 30905, Note_on_c, 0, 36, 33
1, 30905, Note_on_c, 0, 60, 36
1, 31001, Note_off_c, 0, 60, 0
1, 31001, Note_on_c, 0, 63, 36
1, 31097, Note_off_c, 0, 63, 0
1, 31097, Note_off_c, 0, 36, 0
1, 31097, Note_on_c, 0, 55, 36
1, 31193, Note_off_c, 0, 55, 0
1, 31193, Note_on_c, 0, 60, 36
1, 31289, Note_off_c, 0, 60, 0
1, 31289, Note_on_c, 0, 36, 33
1, 31289, Note_on_c, 0, 65, 36
1, 31385, Note_off_c, 0, 65, 0
1, 31385, Note_on_c, 0, 55, 28
1, 31481, Note_off_c, 0, 55, 0
1, 31481, Note_off_c, 0, 36, 0
1, 31481, Note_on_c, 0, 60, 36
1, 31577, Note_off_c, 0, 60, 0
1, 31577, Note_on_c, 0, 62, 36
1, 31673, Note_off_c, 0, 62, 0
1, 31673, Note_on_c, 0, 36, 33
1, 31673, Note_on_c, 0, 55, 36
1, 31769, Note_off_c, 0, 55, 0
1, 31769, Note_on_c, 0, 60, 36
1, 31865, Note_off_c, 0, 60, 0
1, 31865, Note_off_c, 0, 36, 0
1, 31865, Note_on_c, 0, 63, 36
1, 31961, Note_off_c, 0, 63, 0
1, 31961, Note_on_c, 0, 65, 36
1, 32057, Note_off_c, 0, 65, 0
1, 32057, Note_on_c, 0, 36, 33
1, 32057, Note_on_c, 0, 67, 36
1, 32153, Note_off_c, 0, 67, 0
1, 32153, Note_on_c, 0, 68, 36
1, 32249, Note_off_c, 0, 68, 0
1, 32249, Note_off_c, 0, 36, 0
1, 32249, Note_on_c, 0, 82, 36
1, 32249, Note_on_c, 0, 75, 36
1, 32345, Note_off_c, 0, 75, 0
1, 32345, Note_off_c, 0, 82, 0
1, 32345, Note_on_c, 0, 67, 36
1, 32441, Note_off_c, 0, 67, 0
1, 32441, Note_on_c, 0, 36, 33
1, 32441, Note_on_c, 0, 60, 36
1, 32537, Note_off_c, 0, 60, 0
1, 32537, Note_on_c, 0, 79, 36
1, 32537, Note_on_c, 0, 67, 36
1, 32633, Note_off_c, 0, 67, 0
1, 32633, Note_off_c, 0, 79, 0
1, 32633, Note_off_c, 0, 36, 0
1, 32633, Note_on_c, 0, 79, 36
1, 32729, Note_off_c, 0, 79, 0
1, 32729, Note_on_c, 0, 72, 36
1, 32825, Note_off_c, 0, 72, 0
1, 32825, Note_on_c, 0, 36, 33
1, 32825, Note_on_c, 0, 80, 36
1, 32921, Note_off_c, 0, 80, 0
1, 32921, Note_on_c, 0, 79, 36
1, 33017, Note_off_c, 0, 79, 0
1, 33017, Note_off_c, 0, 36, 0
1, 33017, Note_on_c, 0, 72, 36
1, 33113, Note_off_c, 0, 72, 0
1, 33113, Note_on_c, 0, 77, 36
1, 33209, Note_off_c, 0, 77, 0
1, 33209, Note_on_c, 0, 36, 33
1, 33209, Note_on_c, 0, 79, 36
1, 33305, Note_off_c, 0, 79, 0
1, 33305, Note_on_c, 0, 72, 36
1, 33401, Note_off_c, 0, 72, 0
1, 33401, Note_off_c, 0, 36, 0
1, 33401, Note_on_c, 0, 79, 36
1, 33497, Note_off_c, 0, 79, 0
1, 33497, Note_on_c, 0, 77, 36
1, 33593, Note_off_c, 0, 77, 0
1, 33593, Note_on_c, 0, 36, 33
1, 33593, Note_on_c, 0, 75, 36
1, 33689, Note_off_c, 0, 75, 0
1, 33689, Note_on_c, 0, 74, 36
1, 33785, Note_off_c, 0, 74, 0
1, 33785, Note_off_c, 0, 36, 0
1, 33785, Note_off_c, 0, 55, 0
1, 33785, Note_on_c, 0, 56, 25
1, 33785, Note_on_c, 0, 68, 39
1, 33785, Note_on_c, 0, 75, 30
1, 33881, Note_off_c, 0, 75, 0
1, 33881, Note_on_c, 0, 72, 30
1, 33977, Note_off_c, 0, 72, 0
1, 33977, Note_on_c, 0, 44, 33
1, 33977, Note_on_c, 0, 68, 30
1, 34073, Note_off_c, 0, 68, 0
1, 34073, Note_on_c, 0, 63, 30
1, 34169, Note_off_c, 0, 63, 0
1, 34169, Note_off_c, 0, 44, 0
1, 34169, Note_on_c, 0, 72, 30
1, 34265, Note_off_c, 0, 72, 0
1, 34265, Note_on_c, 0, 68, 30
1, 34361, Note_off_c, 0, 68, 0
1, 34361, Note_on_c, 0, 44, 33
1, 34361, Note_on_c, 0, 63, 30
1, 34457, Note_off_c, 0, 63, 0
1, 34457, Note_on_c, 0, 60, 30
1, 34553, Note_off_c, 0, 60, 0
1, 34553, Note_off_c, 0, 44, 0
1, 34553, Note_off_c, 0, 68, 0
1, 34553, Note_off_c, 0, 56, 0
1, 34553, Note_on_c, 0, 63, 27
1, 34553, Note_on_c, 0, 75, 39
1, 34553, Note_on_c, 0, 56, 30
1, 34649, Note_off_c, 0, 56, 0
1, 34649, Note_on_c, 0, 60, 30
1, 34745, Note_off_c, 0, 60, 0
1, 34745, Note_on_c, 0, 44, 33
1, 34745, Note_on_c, 0, 63, 30
1, 34841, Note_off_c, 0, 63, 0
1, 34841, Note_on_c, 0, 68, 30
1, 34937, Note_off_c, 0, 68, 0
1, 34937, Note_off_c, 0, 44, 0
1, 34937, Note_on_c, 0, 63, 30
1, 35033, Note_off_c, 0, 63, 0
1, 35033, Note_on_c, 0, 68, 30
1, 35129, Note_off_c, 0, 68, 0
1, 35129, Note_on_c, 0, 44, 33
1, 35129, Note_on_c, 0, 75, 30
1, 35225, Note_off_c, 0, 75, 0
1, 35225, Note_on_c, 0, 77, 30
1, 35321, Note_off_c, 0, 77, 0
1, 35321, Note_off_c, 0, 44, 0
1, 35321, Note_off_c, 0, 75, 0
1, 35321, Note_off_c, 0, 63, 0
1, 35321, Note_on_c, 0, 74, 39
1, 35321, Note_on_c, 0, 62, 27
1, 35321, Note_on_c, 0, 80, 30
1, 35417, Note_off_c, 0, 80, 0
1, 35417, Note_on_c, 0, 77, 30
1, 35513, Note_off_c, 0, 77, 0
1, 35513, Note_on_c, 0, 41, 33
1, 35513, Note_on_c, 0, 72, 30
1, 35609, Note_off_c, 0, 72, 0
1, 35609, Note_on_c, 0, 68, 30
1, 35705, Note_off_c, 0, 68, 0
1, 35705, Note_off_c, 0, 41, 0
1, 35705, Note_on_c, 0, 77, 30
1, 35801, Note_off_c, 0, 77, 0
1, 35801, Note_on_c, 0, 72, 30
1, 35897, Note_off_c, 0, 72, 0
1, 35897, Note_on_c, 0, 41, 33
1, 35897, Note_on_c, 0, 68, 30
1, 35993, Note_off_c, 0, 68, 0
1, 35993, Note_on_c, 0, 65, 30
1, 36089, Note_off_c, 0, 65, 0
1, 36089, Note_off_c, 0, 41, 0
1, 36089, Note_off_c, 0, 62, 0
1, 36089, Note_off_c, 0, 74, 0
1, 36089, Note_on_c, 0, 65, 27
1, 36089, Note_on_c, 0, 77, 39
1, 36089, Note_on_c, 0, 60, 30
1, 36185, Note_off_c, 0, 60, 0
1, 36185, Note_on_c, 0, 65, 30
1, 36281, Note_off_c, 0, 65, 0
1, 36281, Note_on_c, 0, 41, 33
1, 36281, Note_on_c, 0, 68, 30
1, 36377, Note_off_c, 0, 68, 0
1, 36377, Note_on_c, 0, 72, 30
1, 36473, Note_off_c, 0, 72, 0
1, 36473, Note_off_c, 0, 41, 0
1, 36473, Note_on_c, 0, 65, 30
1, 36569, Note_off_c, 0, 65, 0
1, 36569, Note_on_c, 0, 68, 30
1, 36665, Note_off_c, 0, 68, 0
1, 36665, Note_on_c, 0, 41, 33
1, 36665, Note_on_c, 0, 41, 33
1, 36665, Note_on_c, 0, 72, 30
1, 36761, Note_off_c, 0, 72, 0
1, 36761, Note_on_c, 0, 77, 30
1, 36857, Note_off_c, 0, 77, 0
1, 36857, Note_off_c, 0, 41, 0
1, 36857, Note_off_c, 0, 41, 0
1, 36857, Note_off_c, 0, 77, 0
1, 36857, Note_off_c, 0, 65, 0
1, 36857, Note_on_c, 0, 79, 38
1, 36857, Note_on_c, 0, 39, 36
1, 36857, Note_on_c, 0, 51, 34
1, 36857, Note_on_c, 0, 63, 33
1, 36953, Note_off_c, 0, 79, 0
1, 36953, Note_on_c, 0, 80, 38
1, 37049, Note_off_c, 0, 80, 0
1, 37049, Note_on_c, 0, 79, 38
1, 37145, Note_off_c, 0, 79, 0
1, 37145, Note_on_c, 0, 77, 38
1, 37241, Note_off_c, 0, 77, 0
1, 37241, Note_on_c, 0, 75, 38
1, 37337, Note_off_c, 0, 75, 0
1, 37337, Note_on_c, 0, 77, 38
1, 37433, Note_off_c, 0, 77, 0
1, 37433, Note_on_c, 0, 75, 38
1, 37529, Note_off_c, 0, 75, 0
1, 37529, Note_on_c, 0, 74, 38
1, 37625, Note_off_c, 0, 74, 0
1, 37625, Note_on_c, 0, 70, 38
1, 37721, Note_off_c, 0, 70, 0
1, 37721, Note_on_c, 0, 75, 38
1, 37817, Note_off_c, 0, 75, 0
1, 37817, Note_on_c, 0, 79, 38
1, 37913, Note_off_c, 0, 79, 0
1, 37913, Note_on_c, 0, 82, 38
1, 38009, Note_off_c, 0, 82, 0
1, 38009, Note_on_c, 0, 79, 38
1, 38105, Note_off_c, 0, 79, 0
1, 38105, Note_on_c, 0, 75, 38
1, 38201, Note_off_c, 0, 75, 0
1, 38201, Note_on_c, 0, 74, 38
1, 38297, Note_off_c, 0, 74, 0
1, 38297, Note_on_c, 0, 75, 38
1, 38393, Note_off_c, 0, 75, 0
1, 38393, Note_off_c, 0, 63, 0
1, 38393, Note_off_c, 0, 51, 0
1, 38393, Note_off_c, 0, 39, 0
1, 38393, Note_on_c, 0, 74, 38
1, 38393, Note_on_c, 0, 43, 36
1, 38393, Note_on_c, 0, 55, 34
1, 38393, Note_on_c, 0, 65, 33
1, 38489, Note_off_c, 0, 74, 0
1, 38489, Note_on_c, 0, 77, 38
1, 38585, Note_off_c, 0, 77, 0
1, 38585, Note_on_c, 0, 74, 38
1, 38681, Note_off_c, 0, 74, 0
1, 38681, Note_on_c, 0, 71, 38
1, 38777, Note_off_c, 0, 71, 0
1, 38777, Note_on_c, 0, 67, 38
1, 38873, Note_off_c, 0, 67, 0
1, 38873, Note_on_c, 0, 71, 38
1, 38969, Note_off_c, 0, 71, 0
1, 38969, Note_on_c, 0, 67, 38
1, 39065, Note_off_c, 0, 67, 0
1, 39065, Note_on_c, 0, 62, 38
1, 39161, Note_off_c, 0, 62, 0
1, 39161, Note_on_c, 0, 59, 38
1, 39257, Note_off_c, 0, 59, 0
1, 39257, Note_on_c, 0, 62, 38
1, 39353, Note_off_c, 0, 62, 0
1, 39353, Note_on_c, 0, 67, 38
1, 39449, Note_off_c, 0, 67, 0
1, 39449, Note_on_c, 0, 71, 38
1, 39545, Note_off_c, 0, 71, 0
1, 39545, Note_on_c, 0, 67, 38
1, 39641, Note_off_c, 0, 67, 0
1, 39641, Note_on_c, 0, 74, 38
1, 39737, Note_off_c, 0, 74, 0
1, 39737, Note_on_c, 0, 79, 38
1, 39833, Note_off_c, 0, 79, 0
1, 39833, Note_on_c, 0, 83, 38
1, 39929, Note_off_c, 0, 83, 0
1, 39929, Note_off_c, 0, 65, 0
1, 39929, Note_off_c, 0, 55, 0
1, 39929, Note_off_c, 0, 43, 0
1, 39929, Note_on_c, 0, 84, 38
1, 39929, Note_on_c, 0, 72, 34
1, 39929, Note_on_c, 0, 67, 33
1, 39929, Note_on_c, 0, 60, 33
1, 39929, Note_on_c, 0, 63, 33
1, 40505, Note_on_c, 0, 50, 32
1, 40697, Note_on_c, 0, 51, 32
1, 40889, Note_on_c, 0, 55, 32
1, 41081, Note_off_c, 0, 84, 0
1, 41081, Note_on_c, 0, 75, 31
1, 41081, Note_on_c, 0, 60, 32
1, 41177, Note_off_c, 0, 50, 0
1, 41369, Note_off_c, 0, 51, 0
1, 41561, Note_off_c, 0, 55, 0
1, 41657, Note_on_c, 0, 56, 32
1, 41657, Note_on_c, 0, 62, 32
1, 41849, Note_off_c, 0, 72, 0
1, 42041, Note_off_c, 0, 75, 0
1, 42137, Note_off_c, 0, 60, 0
1, 42233, Note_off_c, 0, 63, 0
1, 42233, Note_off_c, 0, 60, 0
1, 42233, Note_off_c, 0, 67, 0
1, 42233, Note_on_c, 0, 58, 32
1, 42233, Note_on_c, 0, 51, 32
1, 42425, Note_on_c, 0, 79, 31
1, 42425, Note_on_c, 0, 79, 31
1, 42617, Note_off_c, 0, 79, 0
1, 42617, Note_on_c, 0, 84, 32
1, 42617, Note_on_c, 0, 84, 32
1, 42713, Note_off_c, 0, 62, 0
1, 42713, Note_off_c, 0, 56, 0
1, 42809, Note_off_c, 0, 84, 0
1, 43001, Note_off_c, 0, 79, 0
1, 43001, Note_on_c, 0, 87, 32
1, 43001, Note_on_c, 0, 32, 32
1, 43193, Note_off_c, 0, 84, 0
1, 43193, Note_on_c, 0, 86, 32
1, 43193, Note_on_c, 0, 86, 32
1, 43193, Note_on_c, 0, 39, 32
1, 43385, Note_off_c, 0, 86, 0
1, 43385, Note_on_c, 0, 82, 33
1, 43385, Note_on_c, 0, 44, 32
1, 43481, Note_off_c, 0, 51, 0
1, 43481, Note_off_c, 0, 58, 0
1, 43577, Note_off_c, 0, 87, 0
1, 43577, Note_on_c, 0, 77, 35
1, 43577, Note_on_c, 0, 48, 32
1, 43673, Note_off_c, 0, 32, 0
1, 43769, Note_off_c, 0, 86, 0
1, 43769, Note_on_c, 0, 75, 34
1, 43769, Note_on_c, 0, 51, 32
1, 43865, Note_off_c, 0, 39, 0
1, 43961, Note_off_c, 0, 82, 0
1, 43961, Note_on_c, 0, 74, 34
1, 43961, Note_on_c, 0, 55, 32
1, 44057, Note_off_c, 0, 44, 0
1, 44153, Note_off_c, 0, 77, 0
1, 44153, Note_on_c, 0, 56, 32
1, 44249, Note_off_c, 0, 48, 0
1, 44345, Note_off_c, 0, 75, 0
1, 44345, Note_on_c, 0, 65, 34
1, 44441, Note_off_c, 0, 51, 0
1, 44537, Note_off_c, 0, 74, 0
1, 44633, Note_off_c, 0, 55, 0
1, 44729, Note_off_c, 0, 70, 0
1, 44729, Note_on_c, 0, 70, 35
1, 44729, Note_on_c, 0, 70, 35
1, 44729, Note_on_c, 0, 41, 29
1, 44921, Note_on_c, 0, 79, 35
1, 44921, Note_on_c, 0, 46, 32
1, 44921, Note_on_c, 0, 46, 32
1, 45017, Note_off_c, 0, 56, 0
1, 45113, Note_off_c, 0, 65, 0
1, 45209, Note_off_c, 0, 46, 0
1, 45305, Note_off_c, 0, 70, 0
1, 45305, Note_on_c, 0, 74, 35
1, 45305, Note_on_c, 0, 50, 30
1, 45401, Note_off_c, 0, 41, 0
1, 45497, Note_off_c, 0, 79, 0
1, 45497, Note_on_c, 0, 75, 35
1, 45689, Note_off_c, 0, 75, 0
1, 45689, Note_on_c, 0, 58, 35
1, 45785, Note_off_c, 0, 46, 0
1, 45785, Note_on_c, 0, 84, 35
1, 45881, Note_off_c, 0, 74, 0
1, 45881, Note_on_c, 0, 82, 34
1, 45881, Note_on_c, 0, 82, 34
1, 46073, Note_off_c, 0, 75, 0
1, 46073, Note_on_c, 0, 75, 33
1, 46073, Note_on_c, 0, 75, 33
1, 46073, Note_on_c, 0, 51, 32
1, 46073, Note_on_c, 0, 87, 30
1, 46073, Note_on_c, 0, 75, 36
1, 46169, Note_off_c, 0, 82, 0
1, 46169, Note_off_c, 0, 50, 0
1, 46265, Note_off_c, 0, 84, 0
1, 46361, Note_off_c, 0, 82, 0
1, 46553, Note_off_c, 0, 58, 0
1, 46649, Note_off_c, 0, 75, 0
1, 46649, Note_off_c, 0, 87, 0
1, 46649, Note_off_c, 0, 75, 0
1, 46649, Note_on_c, 0, 74, 33
1, 46649, Note_on_c, 0, 50, 32
1, 46649, Note_on_c, 0, 86, 30
1, 46649, Note_on_c, 0, 74, 36
1, 46841, Note_off_c, 0, 67, 0
1, 46841, Note_on_c, 0, 67, 34
1, 47033, Note_off_c, 0, 72, 0
1, 47033, Note_on_c, 0, 72, 32
1, 47129, Note_off_c, 0, 51, 0
1, 47225, Note_off_c, 0, 74, 0
1, 47225, Note_off_c, 0, 86, 0
1, 47225, Note_off_c, 0, 74, 0
1, 47225, Note_on_c, 0, 75, 32
1, 47225, Note_on_c, 0, 46, 32
1, 47225, Note_on_c, 0, 82, 30
1, 47225, Note_on_c, 0, 70, 36
1, 47417, Note_off_c, 0, 67, 0
1, 47417, Note_on_c, 0, 67, 33
1, 47417, Note_on_c, 0, 67, 33
1, 47609, Note_off_c, 0, 72, 0
1, 47609, Note_on_c, 0, 72, 30
1, 47705, Note_off_c, 0, 50, 0
1, 47801, Note_off_c, 0, 70, 0
1, 47801, Note_off_c, 0, 82, 0
1, 47801, Note_off_c, 0, 75, 0
1, 47801, Note_on_c, 0, 79, 30
1, 47801, Note_on_c, 0, 51, 32
1, 47801, Note_on_c, 0, 87, 30
1, 47801, Note_on_c, 0, 75, 36
1, 47993, Note_off_c, 0, 67, 0
1, 47993, Note_on_c, 0, 72, 29
1, 47993, Note_on_c, 0, 72, 29
1, 48185, Note_off_c, 0, 72, 0
1, 48281, Note_off_c, 0, 46, 0
1, 48377, Note_off_c, 0, 75, 0
1, 48377, Note_off_c, 0, 87, 0
1, 48377, Note_off_c, 0, 79, 0
1, 48377, Note_on_c, 0, 50, 32
1, 48377, Note_on_c, 0, 74, 36
1, 48377, Note_on_c, 0, 86, 30
1, 48569, Note_off_c, 0, 72, 0
1, 48569, Note_on_c, 0, 75, 33
1, 48569, Note_on_c, 0, 75, 33
1, 48761, Note_off_c, 0, 75, 0
1, 48761, Note_off_c, 0, 86, 0
1, 48761, Note_off_c, 0, 74, 0
1, 48761, Note_on_c, 0, 84, 33
1, 48761, Note_on_c, 0, 84, 33
1, 48761, Note_on_c, 0, 46, 32
1, 48761, Note_on_c, 0, 70, 36
1, 48761, Note_on_c, 0, 82, 30
1, 48857, Note_off_c, 0, 51, 0
1, 48953, Note_off_c, 0, 84, 0
1, 48953, Note_on_c, 0, 86, 31
1, 49145, Note_off_c, 0, 75, 0
1, 49145, Note_on_c, 0, 87, 35
1, 49145, Note_on_c, 0, 32, 19
1, 49241, Note_off_c, 0, 50, 0
1, 49337, Note_off_c, 0, 82, 0
1, 49337, Note_off_c, 0, 70, 0
1, 49337, Note_off_c, 0, 84, 0
1, 49337, Note_on_c, 0, 75, 37
1, 49337, Note_on_c, 0, 34, 22
1, 49337, Note_on_c, 0, 75, 28
1, 49337, Note_on_c, 0, 63, 35
1, 49529, Note_off_c, 0, 86, 0
1, 49529, Note_on_c, 0, 72, 37
1, 49529, Note_on_c, 0, 84, 37
1, 49529, Note_on_c, 0, 39, 27
1, 49625, Note_off_c, 0, 46, 0
1, 49721, Note_off_c, 0, 87, 0
1, 49721, Note_on_c, 0, 91, 38
1, 49721, Note_on_c, 0, 79, 38
1, 49721, Note_on_c, 0, 44, 30
1, 49817, Note_off_c, 0, 32, 0
1, 49913, Note_off_c, 0, 75, 0
1, 49913, Note_on_c, 0, 46, 31
1, 50009, Note_off_c, 0, 34, 0
1, 50105, Note_off_c, 0, 84, 0
1, 50105, Note_off_c, 0, 72, 0
1, 50105, Note_on_c, 0, 89, 37
1, 50105, Note_on_c, 0, 48, 34
1, 50201, Note_off_c, 0, 39, 0
1, 50393, Note_off_c, 0, 44, 0
1, 50489, Note_off_c, 0, 79, 0
1, 50489, Note_off_c, 0, 91, 0
1, 50489, Note_on_c, 0, 74, 36
1, 50585, Note_off_c, 0, 46, 0
1, 50681, Note_off_c, 0, 63, 0
1, 50681, Note_off_c, 0, 75, 0
1, 50681, Note_on_c, 0, 65, 35
1, 50777, Note_off_c, 0, 48, 0
1, 50873, Note_off_c, 0, 77, 0
1, 50873, Note_off_c, 0, 89, 0
1, 50873, Note_on_c, 0, 77, 36
1, 50873, Note_on_c, 0, 77, 36
1, 50873, Note_on_c, 0, 55, 33
1, 50873, Note_on_c, 0, 55, 33
1, 50969, Note_off_c, 0, 55, 0
1, 51065, Note_on_c, 0, 84, 36
1, 51065, Note_on_c, 0, 56, 33
1, 51065, Note_on_c, 0, 56, 33
1, 51257, Note_off_c, 0, 86, 0
1, 51257, Note_on_c, 0, 86, 35
1, 51257, Note_on_c, 0, 58, 33
1, 51353, Note_off_c, 0, 56, 0
1, 51449, Note_off_c, 0, 77, 0
1, 51449, Note_off_c, 0, 65, 0
1, 51449, Note_off_c, 0, 74, 0
1, 51449, Note_on_c, 0, 87, 32
1, 51449, Note_on_c, 0, 75, 32
1, 51449, Note_on_c, 0, 70, 33
1, 51545, Note_off_c, 0, 55, 0
1, 51641, Note_off_c, 0, 84, 0
1, 51737, Note_off_c, 0, 56, 0
1, 51833, Note_off_c, 0, 86, 0
1, 51833, Note_on_c, 0, 86, 32
1, 51833, Note_on_c, 0, 74, 32
1, 51833, Note_on_c, 0, 86, 32
1, 51833, Note_on_c, 0, 68, 33
1, 51929, Note_off_c, 0, 58, 0
1, 52025, Note_on_c, 0, 67, 30
1, 52217, Note_off_c, 0, 75, 0
1, 52217, Note_off_c, 0, 87, 0
1, 52217, Note_on_c, 0, 48, 24
1, 52217, Note_on_c, 0, 60, 31
1, 52217, Note_on_c, 0, 36, 30
1, 52217, Note_on_c, 0, 79, 24
1, 52217, Note_on_c, 0, 72, 24
1, 52217, Note_on_c, 0, 75, 24
1, 52313, Note_off_c, 0, 70, 0
1, 52505, Note_off_c, 0, 75, 0
1, 52505, Note_off_c, 0, 72, 0
1, 52505, Note_off_c, 0, 79, 0
1, 52505, Note_off_c, 0, 60, 0
1, 52505, Note_off_c, 0, 48, 0
1, 52505, Note_off_c, 0, 68, 0
1, 52601, Note_off_c, 0, 86, 0
1, 52601, Note_off_c, 0, 74, 0
1, 52601, Note_on_c, 0, 79, 30
1, 52601, Note_on_c, 0, 72, 30
1, 52601, Note_on_c, 0, 75, 30
1, 52697, Note_off_c, 0, 36, 0
1, 52697, Note_off_c, 0, 67, 0
1, 52793, Note_on_c, 0, 48, 28
1, 52793, Note_on_c, 0, 60, 39
1, 52793, Note_on_c, 0, 36, 30
1, 53273, Note_off_c, 0, 36, 0
1, 53369, Note_off_c, 0, 60, 0
1, 53369, Note_off_c, 0, 48, 0
1, 53369, Note_on_c, 0, 63, 39
1, 53369, Note_on_c, 0, 51, 28
1, 53369, Note_on_c, 0, 48, 22
1, 53369, Note_on_c, 0, 36, 30
1, 53849, Note_off_c, 0, 36, 0
1, 53849, Note_off_c, 0, 48, 0
1, 53945, Note_off_c, 0, 51, 0
1, 53945, Note_off_c, 0, 63, 0
1, 53945, Note_on_c, 0, 67, 38
1, 53945, Note_on_c, 0, 55, 27
1, 53945, Note_on_c, 0, 48, 22
1, 53945, Note_on_c, 0, 36, 30
1, 54425, Note_off_c, 0, 36, 0
1, 54425, Note_off_c, 0, 48, 0
1, 54521, Note_off_c, 0, 55, 0
1, 54521, Note_off_c, 0, 67, 0
1, 54521, Note_on_c, 0, 60, 27
1, 54521, Note_on_c, 0, 72, 38
1, 54905, Note_off_c, 0, 36, 0
1, 54905, Note_off_c, 0, 48, 0
1, 54905, Note_off_c, 0, 72, 0
1, 54905, Note_off_c, 0, 60, 0
1, 54905, Note_on_c, 0, 74, 38
1, 54905, Note_on_c, 0, 62, 27
1, 54905, Note_on_c, 0, 48, 22
1, 54905, Note_on_c, 0, 36, 30
1, 54905, Note_on_c, 0, 48, 22
1, 54905, Note_on_c, 0, 36, 30
1, 55289, Note_off_c, 0, 36, 0
1, 55289, Note_off_c, 0, 48, 0
1, 55289, Note_off_c, 0, 62, 0
1, 55289, Note_off_c, 0, 74, 0
1, 55289, Note_off_c, 0, 75, 0
1, 55289, Note_off_c, 0, 72, 0
1, 55289, Note_off_c, 0, 79, 0
1, 55289, Note_on_c, 0, 63, 27
1, 55289, Note_on_c, 0, 75, 38
1, 55289, Note_on_c, 0, 44, 22
1, 55289, Note_on_c, 0, 32, 30
1, 55289, Note_on_c, 0, 75, 33
1, 55289, Note_on_c, 0, 68, 33
1, 55289, Note_on_c, 0, 72, 33
1, 55769, Note_off_c, 0, 32, 0
1, 55769, Note_off_c, 0, 44, 0
1, 55865, Note_off_c, 0, 75, 0
1, 55865, Note_off_c, 0, 63, 0
1, 55865, Note_on_c, 0, 74, 38
1, 55865, Note_on_c, 0, 62, 27
1, 55865, Note_on_c, 0, 44, 22
1, 55865, Note_on_c, 0, 32, 30
1, 56345, Note_off_c, 0, 32, 0
1, 56345, Note_off_c, 0, 44, 0
1, 56441, Note_off_c, 0, 62, 0
1, 56441, Note_off_c, 0, 74, 0
1, 56441, Note_on_c, 0, 70, 38
1, 56441, Note_on_c, 0, 58, 27
1, 56441, Note_on_c, 0, 46, 22
1, 56441, Note_on_c, 0, 34, 30
1, 56825, Note_off_c, 0, 72, 0
1, 56825, Note_off_c, 0, 68, 0
1, 56825, Note_off_c, 0, 75, 0
1, 56825, Note_on_c, 0, 65, 33
1, 56825, Note_on_c, 0, 70, 33
1, 56825, Note_on_c, 0, 74, 33
1, 56921, Note_off_c, 0, 34, 0
1, 56921, Note_off_c, 0, 46, 0
1, 57017, Note_off_c, 0, 58, 0
1, 57017, Note_off_c, 0, 70, 0
1, 57017, Note_on_c, 0, 65, 38
1, 57017, Note_on_c, 0, 53, 27
1, 57017, Note_on_c, 0, 46, 22
1, 57017, Note_on_c, 0, 34, 30
1, 57497, Note_off_c, 0, 34, 0
1, 57497, Note_off_c, 0, 46, 0
1, 57593, Note_off_c, 0, 53, 0
1, 57593, Note_off_c, 0, 65, 0
1, 57593, Note_on_c, 0, 51, 27
1, 57593, Note_on_c, 0, 63, 38
1, 57977, Note_off_c, 0, 34, 0
1, 57977, Note_off_c, 0, 46, 0
1, 57977, Note_off_c, 0, 63, 0
1, 57977, Note_off_c, 0, 51, 0
1, 57977, Note_on_c, 0, 62, 38
1, 57977, Note_on_c, 0, 50, 27
1, 57977, Note_on_c, 0, 46, 22
1, 57977, Note_on_c, 0, 34, 30
1, 57977, Note_on_c, 0, 46, 22
1, 57977, Note_on_c, 0, 34, 30
1, 58361, Note_off_c, 0, 34, 0
1, 58361, Note_off_c, 0, 46, 0
1, 58361, Note_off_c, 0, 50, 0
1, 58361, Note_off_c, 0, 62, 0
1, 58361, Note_off_c, 0, 74, 0
1, 58361, Note_off_c, 0, 70, 0
1, 58361, Note_off_c, 0, 65, 0
1, 58361, Note_on_c, 0, 51, 27
1, 58361, Note_on_c, 0, 63, 30
1, 58361, Note_on_c, 0, 48, 22
1, 58361, Note_on_c, 0, 36, 30
1, 58361, Note_on_c, 0, 63, 33
1, 58361, Note_on_c, 0, 72, 33
1, 58361, Note_on_c, 0, 67, 33
1, 58841, Note_off_c, 0, 36, 0
1, 58841, Note_off_c, 0, 48, 0
1, 58937, Note_off_c, 0, 63, 0
1, 58937, Note_off_c, 0, 51, 0
1, 58937, Note_on_c, 0, 60, 38
1, 58937, Note_on_c, 0, 48, 27
1, 58937, Note_on_c, 0, 48, 22
1, 58937, Note_on_c, 0, 36, 30
1, 59417, Note_off_c, 0, 36, 0
1, 59417, Note_off_c, 0, 48, 0
1, 59513, Note_off_c, 0, 48, 0
1, 59513, Note_off_c, 0, 60, 0
1, 59513, Note_on_c, 0, 63, 38
1, 59513, Note_on_c, 0, 51, 27
1, 59513, Note_on_c, 0, 48, 22
1, 59513, Note_on_c, 0, 36, 30
1, 59993, Note_off_c, 0, 36, 0
1, 59993, Note_off_c, 0, 48, 0
1, 60089, Note_off_c, 0, 51, 0
1, 60089, Note_off_c, 0, 63, 0
1, 60089, Note_on_c, 0, 67, 38
1, 60089, Note_on_c, 0, 55, 27
1, 60089, Note_on_c, 0, 48, 22
1, 60089, Note_on_c, 0, 36, 30
1, 60569, Note_off_c, 0, 36, 0
1, 60569, Note_off_c, 0, 48, 0
1, 60665, Note_off_c, 0, 55, 0
1, 60665, Note_off_c, 0, 67, 0
1, 60665, Note_on_c, 0, 60, 27
1, 60665, Note_on_c, 0, 72, 38
1, 60953, Note_on_c, 0, 48, 27
1, 61049, Note_off_c, 0, 48, 0
1, 61049, Note_off_c, 0, 72, 0
1, 61049, Note_off_c, 0, 60, 0
1, 61049, Note_on_c, 0, 62, 27
1, 61049, Note_on_c, 0, 74, 38
1, 61049, Note_on_c, 0, 48, 27
1, 61145, Note_off_c, 0, 48, 0
1, 61145, Note_on_c, 0, 48, 27
1, 61241, Note_off_c, 0, 48, 0
1, 61241, Note_on_c, 0, 48, 27
1, 61337, Note_off_c, 0, 48, 0
1, 61337, Note_on_c, 0, 48, 27
1, 61337, Note_on_c, 0, 48, 27
1, 61433, Note_off_c, 0, 48, 0
1, 61433, Note_off_c, 0, 74, 0
1, 61433, Note_off_c, 0, 62, 0
1, 61433, Note_off_c, 0, 67, 0
1, 61433, Note_off_c, 0, 72, 0
1, 61433, Note_off_c, 0, 63, 0
1, 61433, Note_on_c, 0, 75, 38
1, 61433, Note_on_c, 0, 63, 20
1, 61433, Note_on_c, 0, 44, 22
1, 61433, Note_on_c, 0, 32, 30
1, 61433, Note_on_c, 0, 60, 33
1, 61433, Note_on_c, 0, 63, 33
1, 61433, Note_on_c, 0, 68, 33
1, 61529, Note_off_c, 0, 48, 0
1, 61913, Note_off_c, 0, 32, 0
1, 61913, Note_off_c, 0, 44, 0
1, 62009, Note_off_c, 0, 63, 0
1, 62009, Note_off_c, 0, 75, 0
1, 62009, Note_on_c, 0, 79, 38
1, 62009, Note_on_c, 0, 67, 27
1, 62009, Note_on_c, 0, 44, 22
1, 62009, Note_on_c, 0, 32, 30
1, 62489, Note_off_c, 0, 32, 0
1, 62489, Note_off_c, 0, 44, 0
1, 62585, Note_off_c, 0, 67, 0
1, 62585, Note_off_c, 0, 79, 0
1, 62585, Note_on_c, 0, 77, 38
1, 62585, Note_on_c, 0, 65, 27
1, 62585, Note_on_c, 0, 46, 22
1, 62585, Note_on_c, 0, 34, 30
1, 62969, Note_off_c, 0, 68, 0
1, 62969, Note_off_c, 0, 63, 0
1, 62969, Note_off_c, 0, 60, 0
1, 62969, Note_on_c, 0, 65, 33
1, 62969, Note_on_c, 0, 62, 33
1, 62969, Note_on_c, 0, 70, 33
1, 63065, Note_off_c, 0, 34, 0
1, 63065, Note_off_c, 0, 46, 0
1, 63161, Note_off_c, 0, 65, 0
1, 63161, Note_off_c, 0, 77, 0
1, 63161, Note_on_c, 0, 74, 38
1, 63161, Note_on_c, 0, 62, 27
1, 63161, Note_on_c, 0, 46, 22
1, 63161, Note_on_c, 0, 34, 30
1, 63641, Note_off_c, 0, 34, 0
1, 63641, Note_off_c, 0, 46, 0
1, 63737, Note_off_c, 0, 62, 0
1, 63737, Note_off_c, 0, 74, 0
1, 63737, Note_on_c, 0, 68, 27
1, 63737, Note_on_c, 0, 80, 38
1, 64121, Note_off_c, 0, 34, 0
1, 64121, Note_off_c, 0, 46, 0
1, 64121, Note_off_c, 0, 80, 0
1, 64121, Note_off_c, 0, 68, 0
1, 64121, Note_on_c, 0, 79, 38
1, 64121, Note_on_c, 0, 67, 27
1, 64121, Note_on_c, 0, 46, 22
1, 64121, Note_on_c, 0, 34, 30
1, 64121, Note_on_c, 0, 46, 22
1, 64121, Note_on_c, 0, 34, 30
1, 64505, Note_off_c, 0, 34, 0
1, 64505, Note_off_c, 0, 46, 0
1, 64505, Note_off_c, 0, 67, 0
1, 64505, Note_off_c, 0, 79, 0
1, 64505, Note_on_c, 0, 68, 36
1, 64601, Note_off_c, 0, 68, 0
1, 64601, Note_on_c, 0, 67, 36
1, 64697, Note_off_c, 0, 67, 0
1, 64697, Note_on_c, 0, 60, 36
1, 64697, Note_on_c, 0, 36, 32
1, 64697, Note_on_c, 0, 48, 29
1, 64793, Note_off_c, 0, 60, 0
1, 64793, Note_on_c, 0, 70, 36
1, 64889, Note_off_c, 0, 70, 0
1, 64889, Note_off_c, 0, 48, 0
1, 64889, Note_off_c, 0, 36, 0
1, 64889, Note_off_c, 0, 70, 0
1, 64889, Note_off_c, 0, 62, 0
1, 64889, Note_off_c, 0, 65, 0
1, 64889, Note_on_c, 0, 67, 36
1, 64985, Note_off_c, 0, 67, 0
1, 64985, Note_on_c, 0, 60, 36
1, 65081, Note_off_c, 0, 60, 0
1, 65081, Note_on_c, 0, 68, 36
1, 65081, Note_on_c, 0, 36, 32
1, 65081, Note_on_c, 0, 48, 29
1, 65177, Note_off_c, 0, 68, 0
1, 65177, Note_on_c, 0, 67, 36
1, 65273, Note_off_c, 0, 67, 0
1, 65273, Note_off_c, 0, 48, 0
1, 65273, Note_off_c, 0, 36, 0
1, 65273, Note_on_c, 0, 60, 36
1, 65369, Note_off_c, 0, 60, 0
1, 65369, Note_on_c, 0, 72, 36
1, 65465, Note_off_c, 0, 72, 0
1, 65465, Note_on_c, 0, 67, 36
1, 65465, Note_on_c, 0, 36, 32
1, 65465, Note_on_c, 0, 48, 29
1, 65561, Note_off_c, 0, 67, 0
1, 65561, Note_on_c, 0, 60, 36
1, 65657, Note_off_c, 0, 60, 0
1, 65657, Note_off_c, 0, 48, 0
1, 65657, Note_off_c, 0, 36, 0
1, 65657, Note_on_c, 0, 72, 36
1, 65753, Note_off_c, 0, 72, 0
1, 65753, Note_on_c, 0, 60, 36
1, 65849, Note_off_c, 0, 60, 0
1, 65849, Note_on_c, 0, 75, 36
1, 65849, Note_on_c, 0, 36, 32
1, 65849, Note_on_c, 0, 48, 29
1, 65945, Note_off_c, 0, 75, 0
1, 65945, Note_on_c, 0, 60, 36
1, 66041, Note_off_c, 0, 60, 0
1, 66041, Note_off_c, 0, 48, 0
1, 66041, Note_off_c, 0, 36, 0
1, 66041, Note_on_c, 0, 74, 36
1, 66137, Note_off_c, 0, 74, 0
1, 66137, Note_on_c, 0, 75, 36
1, 66233, Note_off_c, 0, 75, 0
1, 66233, Note_on_c, 0, 74, 36
1, 66233, Note_on_c, 0, 36, 32
1, 66233, Note_on_c, 0, 48, 29
1, 66329, Note_off_c, 0, 74, 0
1, 66329, Note_on_c, 0, 70, 36
1, 66425, Note_off_c, 0, 70, 0
1, 66425, Note_off_c, 0, 48, 0
1, 66425, Note_off_c, 0, 36, 0
1, 66425, Note_on_c, 0, 65, 36
1, 66521, Note_off_c, 0, 65, 0
1, 66521, Note_on_c, 0, 70, 36
1, 66617, Note_off_c, 0, 70, 0
1, 66617, Note_on_c, 0, 68, 36
1, 66617, Note_on_c, 0, 36, 32
1, 66617, Note_on_c, 0, 48, 29
1, 66713, Note_off_c, 0, 68, 0
1, 66713, Note_on_c, 0, 67, 36
1, 66809, Note_off_c, 0, 67, 0
1, 66809, Note_off_c, 0, 48, 0
1, 66809, Note_off_c, 0, 36, 0
1, 66809, Note_on_c, 0, 65, 36
1, 66905, Note_off_c, 0, 65, 0
1, 66905, Note_on_c, 0, 67, 36
1, 67001, Note_off_c, 0, 67, 0
1, 67001, Note_on_c, 0, 65, 36
1, 67001, Note_on_c, 0, 36, 32
1, 67001, Note_on_c, 0, 48, 29
1, 67097, Note_off_c, 0, 65, 0
1, 67097, Note_on_c, 0, 63, 36
1, 67193, Note_off_c, 0, 63, 0
1, 67193, Note_off_c, 0, 48, 0
1, 67193, Note_off_c, 0, 36, 0
1, 67193, Note_on_c, 0, 62, 36
1, 67289, Note_off_c, 0, 62, 0
1, 67289, Note_on_c, 0, 63, 36
1, 67385, Note_off_c, 0, 63, 0
1, 67385, Note_on_c, 0, 62, 36
1, 67385, Note_on_c, 0, 36, 32
1, 67385, Note_on_c, 0, 48, 29
1, 67481, Note_off_c, 0, 62, 0
1, 67481, Note_on_c, 0, 58, 36
1, 67577, Note_off_c, 0, 58, 0
1, 67577, Note_off_c, 0, 48, 0
1, 67577, Note_off_c, 0, 36, 0
1, 67577, Note_on_c, 0, 63, 36
1, 67673, Note_off_c, 0, 63, 0
1, 67673, Note_on_c, 0, 62, 36
1, 67769, Note_off_c, 0, 62, 0
1, 67769, Note_on_c, 0, 58, 36
1, 67769, Note_on_c, 0, 32, 32
1, 67769, Note_on_c, 0, 44, 29
1, 67865, Note_off_c, 0, 58, 0
1, 67865, Note_on_c, 0, 63, 36
1, 67961, Note_off_c, 0, 63, 0
1, 67961, Note_off_c, 0, 44, 0
1, 67961, Note_off_c, 0, 32, 0
1, 67961, Note_on_c, 0, 67, 38
1, 67961, Note_on_c, 0, 63, 33
1, 68057, Note_off_c, 0, 63, 0
1, 68057, Note_off_c, 0, 67, 0
1, 68057, Note_on_c, 0, 63, 38
1, 68057, Note_on_c, 0, 58, 33
1, 68153, Note_off_c, 0, 58, 0
1, 68153, Note_off_c, 0, 63, 0
1, 68153, Note_on_c, 0, 75, 38
1, 68153, Note_on_c, 0, 32, 32
1, 68153, Note_on_c, 0, 44, 29
1, 68153, Note_on_c, 0, 67, 33
1, 68249, Note_off_c, 0, 67, 0
1, 68249, Note_off_c, 0, 75, 0
1, 68249, Note_on_c, 0, 79, 38
1, 68249, Note_on_c, 0, 70, 33
1, 68345, Note_off_c, 0, 70, 0
1, 68345, Note_off_c, 0, 79, 0
1, 68345, Note_off_c, 0, 44, 0
1, 68345, Note_off_c, 0, 32, 0
1, 68345, Note_on_c, 0, 63, 38
1, 68345, Note_on_c, 0, 67, 33
1, 68441, Note_off_c, 0, 67, 0
1, 68441, Note_off_c, 0, 63, 0
1, 68441, Note_on_c, 0, 70, 38
1, 68441, Note_on_c, 0, 63, 33
1, 68537, Note_off_c, 0, 63, 0
1, 68537, Note_off_c, 0, 70, 0
1, 68537, Note_on_c, 0, 75, 38
1, 68537, Note_on_c, 0, 32, 32
1, 68537, Note_on_c, 0, 44, 29
1, 68537, Note_on_c, 0, 67, 33
1, 68633, Note_off_c, 0, 67, 0
1, 68633, Note_off_c, 0, 75, 0
1, 68633, Note_on_c, 0, 79, 38
1, 68633, Note_on_c, 0, 70, 33
1, 68729, Note_off_c, 0, 70, 0
1, 68729, Note_off_c, 0, 79, 0
1, 68729, Note_off_c, 0, 44, 0
1, 68729, Note_off_c, 0, 32, 0
1, 68729, Note_on_c, 0, 34, 35
1, 68729, Note_on_c, 0, 72, 33
1, 68825, Note_off_c, 0, 72, 0
1, 68825, Note_on_c, 0, 74, 33
1, 68921, Note_off_c, 0, 74, 0
1, 68921, Note_off_c, 0, 34, 0
1, 68921, Note_on_c, 0, 77, 38
1, 68921, Note_on_c, 0, 70, 33
1, 69017, Note_off_c, 0, 70, 0
1, 69017, Note_off_c, 0, 77, 0
1, 69017, Note_on_c, 0, 82, 38
1, 69017, Note_on_c, 0, 74, 33
1, 69113, Note_off_c, 0, 34, 0
1, 69113, Note_off_c, 0, 74, 0
1, 69113, Note_off_c, 0, 82, 0
1, 69113, Note_on_c, 0, 74, 38
1, 69113, Note_on_c, 0, 34, 24
1, 69113, Note_on_c, 0, 65, 33
1, 69157, Note_off_c, 0, 34, 0
1, 69157, Note_on_c, 0, 34, 27
1, 69209, Note_off_c, 0, 34, 0
1, 69209, Note_off_c, 0, 65, 0
1, 69209, Note_off_c, 0, 74, 0
1, 69209, Note_on_c, 0, 77, 38
1, 69209, Note_on_c, 0, 34, 30
1, 69209, Note_on_c, 0, 70, 33
1, 69257, Note_off_c, 0, 34, 0
1, 69257, Note_on_c, 0, 34, 42
1, 69305, Note_off_c, 0, 70, 0
1, 69305, Note_off_c, 0, 77, 0
1, 69305, Note_on_c, 0, 82, 38
1, 69305, Note_on_c, 0, 34, 35
1, 69305, Note_on_c, 0, 74, 33
1, 69401, Note_off_c, 0, 74, 0
1, 69401, Note_off_c, 0, 82, 0
1, 69401, Note_on_c, 0, 84, 38
1, 69497, Note_off_c, 0, 84, 0
1, 69497, Note_on_c, 0, 72, 33
1, 69593, Note_off_c, 0, 72, 0
1, 69593, Note_on_c, 0, 82, 38
1, 69593, Note_on_c, 0, 74, 33
1, 69689, Note_off_c, 0, 74, 0
1, 69689, Note_off_c, 0, 82, 0
1, 69689, Note_on_c, 0, 84, 38
1, 69689, Note_on_c, 0, 77, 33
1, 69785, Note_off_c, 0, 77, 0
1, 69785, Note_off_c, 0, 84, 0
1, 69785, Note_on_c, 0, 86, 38
1, 69785, Note_on_c, 0, 82, 33
1, 69881, Note_off_c, 0, 50, 0
1, 69881, Note_off_c, 0, 82, 0
1, 69881, Note_off_c, 0, 86, 0
1, 69881, Note_off_c, 0, 34, 0
1, 69881, Note_on_c, 0, 89, 38
1, 69881, Note_on_c, 0, 50, 35
1, 69881, Note_on_c, 0, 75, 33
1, 69977, Note_off_c, 0, 48, 0
1, 69977, Note_off_c, 0, 75, 0
1, 69977, Note_off_c, 0, 89, 0
1, 69977, Note_on_c, 0, 87, 38
1, 69977, Note_on_c, 0, 48, 35
1, 69977, Note_on_c, 0, 74, 33
1, 70073, Note_off_c, 0, 46, 0
1, 70073, Note_off_c, 0, 74, 0
1, 70073, Note_off_c, 0, 87, 0
1, 70073, Note_on_c, 0, 86, 38
1, 70073, Note_on_c, 0, 46, 35
1, 70073, Note_on_c, 0, 72, 33
1, 70169, Note_off_c, 0, 44, 0
1, 70169, Note_off_c, 0, 72, 0
1, 70169, Note_off_c, 0, 86, 0
1, 70169, Note_on_c, 0, 84, 38
1, 70169, Note_on_c, 0, 44, 35
1, 70169, Note_on_c, 0, 70, 33
1, 70265, Note_off_c, 0, 44, 0
1, 70265, Note_off_c, 0, 70, 0
1, 70265, Note_off_c, 0, 84, 0
1, 70265, Note_on_c, 0, 82, 38
1, 70265, Note_on_c, 0, 44, 35
1, 70265, Note_on_c, 0, 79, 33
1, 70361, Note_off_c, 0, 46, 0
1, 70361, Note_off_c, 0, 79, 0
1, 70361, Note_off_c, 0, 82, 0
1, 70361, Note_on_c, 0, 84, 38
1, 70361, Note_on_c, 0, 46, 35
1, 70361, Note_on_c, 0, 80, 33
1, 70457, Note_off_c, 0, 48, 0
1, 70457, Note_off_c, 0, 80, 0
1, 70457, Note_off_c, 0, 84, 0
1, 70457, Note_on_c, 0, 86, 38
1, 70457, Note_on_c, 0, 48, 35
1, 70457, Note_on_c, 0, 82, 33
1, 70553, Note_off_c, 0, 50, 0
1, 70553, Note_off_c, 0, 82, 0
1, 70553, Note_off_c, 0, 86, 0
1, 70553, Note_on_c, 0, 89, 38
1, 70553, Note_on_c, 0, 50, 35
1, 70649, Note_off_c, 0, 89, 0
1, 70649, Note_on_c, 0, 87, 38
1, 70649, Note_on_c, 0, 48, 32
1, 70649, Note_on_c, 0, 36, 38
1, 70649, Note_on_c, 0, 75, 30
1, 70745, Note_off_c, 0, 75, 0
1, 70745, Note_off_c, 0, 87, 0
1, 70745, Note_on_c, 0, 89, 38
1, 70745, Note_on_c, 0, 77, 30
1, 70841, Note_off_c, 0, 77, 0
1, 70841, Note_off_c, 0, 89, 0
1, 70841, Note_on_c, 0, 87, 38
1, 70841, Note_on_c, 0, 75, 30
1, 70937, Note_off_c, 0, 75, 0
1, 70937, Note_off_c, 0, 87, 0
1, 70937, Note_on_c, 0, 84, 38
1, 70937, Note_on_c, 0, 72, 30
1, 71033, Note_off_c, 0, 72, 0
1, 71033, Note_off_c, 0, 84, 0
1, 71033, Note_on_c, 0, 79, 38
1, 71033, Note_on_c, 0, 67, 30
1, 71129, Note_off_c, 0, 67, 0
1, 71129, Note_off_c, 0, 79, 0
1, 71129, Note_off_c, 0, 36, 0
1, 71129, Note_off_c, 0, 48, 0
1, 71129, Note_on_c, 0, 84, 38
1, 71129, Note_on_c, 0, 72, 30
1, 71225, Note_off_c, 0, 72, 0
1, 71225, Note_off_c, 0, 84, 0
1, 71225, Note_on_c, 0, 86, 38
1, 71225, Note_on_c, 0, 48, 32
1, 71225, Note_on_c, 0, 36, 38
1, 71225, Note_on_c, 0, 74, 30
1, 71321, Note_off_c, 0, 74, 0
1, 71321, Note_off_c, 0, 86, 0
1, 71321, Note_on_c, 0, 87, 38
1, 71321, Note_on_c, 0, 75, 30
1, 71417, Note_off_c, 0, 75, 0
1, 71417, Note_off_c, 0, 87, 0
1, 71417, Note_on_c, 0, 86, 38
1, 71417, Note_on_c, 0, 74, 30
1, 71513, Note_off_c, 0, 74, 0
1, 71513, Note_off_c, 0, 86, 0
1, 71513, Note_on_c, 0, 82, 38
1, 71513, Note_on_c, 0, 70, 30
1, 71609, Note_off_c, 0, 70, 0
1, 71609, Note_off_c, 0, 82, 0
1, 71609, Note_on_c, 0, 77, 38
1, 71609, Note_on_c, 0, 65, 30
1, 71705, Note_off_c, 0, 65, 0
1, 71705, Note_off_c, 0, 77, 0
1, 71705, Note_off_c, 0, 36, 0
1, 71705, Note_off_c, 0, 48, 0
1, 71705, Note_on_c, 0, 82, 38
1, 71705, Note_on_c, 0, 70, 30
1, 71801, Note_off_c, 0, 70, 0
1, 71801, Note_off_c, 0, 82, 0
1, 71801, Note_on_c, 0, 84, 38
1, 71801, Note_on_c, 0, 36, 38
1, 71801, Note_on_c, 0, 48, 32
1, 71801, Note_on_c, 0, 72, 30
1, 71897, Note_off_c, 0, 72, 0
1, 71897, Note_off_c, 0, 84, 0
1, 71897, Note_on_c, 0, 86, 38
1, 71897, Note_on_c, 0, 74, 30
1, 71993, Note_off_c, 0, 74, 0
1, 71993, Note_off_c, 0, 86, 0
1, 71993, Note_on_c, 0, 84, 38
1, 71993, Note_on_c, 0, 72, 30
1, 72089, Note_off_c, 0, 72, 0
1, 72089, Note_off_c, 0, 84, 0
1, 72089, Note_on_c, 0, 80, 38
1, 72089, Note_on_c, 0, 68, 30
1, 72185, Note_off_c, 0, 68, 0
1, 72185, Note_off_c, 0, 80, 0
1, 72185, Note_on_c, 0, 75, 38
1, 72185, Note_on_c, 0, 63, 30
1, 72281, Note_off_c, 0, 63, 0
1, 72281, Note_off_c, 0, 75, 0
1, 72281, Note_off_c, 0, 48, 0
1, 72281, Note_off_c, 0, 36, 0
1, 72281, Note_on_c, 0, 80, 38
1, 72281, Note_on_c, 0, 68, 30
1, 72377, Note_off_c, 0, 68, 0
1, 72377, Note_off_c, 0, 80, 0
1, 72377, Note_on_c, 0, 82, 38
1, 72377, Note_on_c, 0, 48, 32
1, 72377, Note_on_c, 0, 36, 38
1, 72377, Note_on_c, 0, 70, 30
1, 72473, Note_off_c, 0, 70, 0
1, 72473, Note_off_c, 0, 82, 0
1, 72473, Note_on_c, 0, 84, 38
1, 72473, Note_on_c, 0, 72, 30
1, 72569, Note_off_c, 0, 72, 0
1, 72569, Note_off_c, 0, 84, 0
1, 72569, Note_on_c, 0, 82, 38
1, 72569, Note_on_c, 0, 70, 30
1, 72665, Note_off_c, 0, 70, 0
1, 72665, Note_off_c, 0, 82, 0
1, 72665, Note_on_c, 0, 79, 38
1, 72665, Note_on_c, 0, 67, 30
1, 72761, Note_off_c, 0, 67, 0
1, 72761, Note_off_c, 0, 79, 0
1, 72761, Note_on_c, 0, 74, 38
1, 72761, Note_on_c, 0, 62, 30
1, 72857, Note_off_c, 0, 62, 0
1, 72857, Note_off_c, 0, 74, 0
1, 72857, Note_off_c, 0, 36, 0
1, 72857, Note_off_c, 0, 48, 0
1, 72857, Note_on_c, 0, 79, 38
1, 72857, Note_on_c, 0, 67, 30
1, 72953, Note_off_c, 0, 48, 0
1, 72953, Note_off_c, 0, 67, 0
1, 72953, Note_off_c, 0, 79, 0
1, 72953, Note_on_c, 0, 80, 38
1, 72953, Note_on_c, 0, 48, 33
1, 72953, Note_on_c, 0, 68, 30
1, 73049, Note_off_c, 0, 48, 0
1, 73049, Note_off_c, 0, 68, 0
1, 73049, Note_off_c, 0, 80, 0
1, 73049, Note_on_c, 0, 79, 38
1, 73049, Note_on_c, 0, 48, 33
1, 73049, Note_on_c, 0, 67, 30
1, 73145, Note_off_c, 0, 48, 0
1, 73145, Note_off_c, 0, 67, 0
1, 73145, Note_off_c, 0, 79, 0
1, 73145, Note_on_c, 0, 77, 38
1, 73145, Note_on_c, 0, 48, 33
1, 73145, Note_on_c, 0, 65, 30
1, 73241, Note_off_c, 0, 48, 0
1, 73241, Note_off_c, 0, 65, 0
1, 73241, Note_off_c, 0, 77, 0
1, 73241, Note_on_c, 0, 75, 38
1, 73241, Note_on_c, 0, 48, 33
1, 73241, Note_on_c, 0, 63, 30
1, 73337, Note_off_c, 0, 48, 0
1, 73337, Note_off_c, 0, 63, 0
1, 73337, Note_off_c, 0, 75, 0
1, 73337, Note_on_c, 0, 79, 38
1, 73337, Note_on_c, 0, 48, 33
1, 73337, Note_on_c, 0, 67, 30
1, 73433, Note_off_c, 0, 48, 0
1, 73433, Note_off_c, 0, 67, 0
1, 73433, Note_off_c, 0, 79, 0
1, 73433, Note_on_c, 0, 77, 38
1, 73433, Note_on_c, 0, 48, 33
1, 73433, Note_on_c, 0, 65, 30
1, 73529, Note_off_c, 0, 48, 0
1, 73529, Note_off_c, 0, 65, 0
1, 73529, Note_off_c, 0, 77, 0
1, 73529, Note_on_c, 0, 75, 38
1, 73529, Note_on_c, 0, 48, 33
1, 73529, Note_on_c, 0, 63, 30
1, 73625, Note_off_c, 0, 48, 0
1, 73625, Note_off_c, 0, 63, 0
1, 73625, Note_off_c, 0, 75, 0
1, 73625, Note_on_c, 0, 74, 38
1, 73625, Note_on_c, 0, 48, 33
1, 73625, Note_on_c, 0, 62, 30
1, 73721, Note_off_c, 0, 62, 0
1, 73721, Note_off_c, 0, 74, 0
1, 73721, Note_on_c, 0, 74, 38
1, 73721, Note_on_c, 0, 79, 38
1, 73721, Note_on_c, 0, 32, 38
1, 73817, Note_off_c, 0, 79, 0
1, 73817, Note_off_c, 0, 74, 0
1, 73817, Note_on_c, 0, 68, 35
1, 73913, Note_off_c, 0, 68, 0
1, 73913, Note_on_c, 0, 63, 35
1, 74009, Note_off_c, 0, 63, 0
1, 74009, Note_on_c, 0, 80, 38
1, 74009, Note_on_c, 0, 84, 38
1, 74105, Note_off_c, 0, 84, 0
1, 74105, Note_off_c, 0, 80, 0
1, 74105, Note_off_c, 0, 32, 0
1, 74105, Note_on_c, 0, 32, 38
1, 74105, Note_on_c, 0, 67, 35
1, 74201, Note_off_c, 0, 67, 0
1, 74201, Note_off_c, 0, 32, 0
1, 74201, Note_on_c, 0, 63, 35
1, 74297, Note_off_c, 0, 63, 0
1, 74297, Note_on_c, 0, 75, 38
1, 74297, Note_on_c, 0, 79, 38
1, 74297, Note_on_c, 0, 32, 38
1, 74393, Note_off_c, 0, 79, 0
1, 74393, Note_off_c, 0, 75, 0
1, 74393, Note_on_c, 0, 68, 35
1, 74489, Note_off_c, 0, 68, 0
1, 74489, Note_on_c, 0, 63, 35
1, 74585, Note_off_c, 0, 63, 0
1, 74585, Note_on_c, 0, 84, 38
1, 74585, Note_on_c, 0, 80, 38
1, 74681, Note_off_c, 0, 80, 0
1, 74681, Note_off_c, 0, 84, 0
1, 74681, Note_on_c, 0, 68, 35
1, 74777, Note_off_c, 0, 68, 0
1, 74777, Note_on_c, 0, 67, 35
1, 74873, Note_off_c, 0, 67, 0
1, 74873, Note_off_c, 0, 32, 0
1, 74873, Note_on_c, 0, 74, 38
1, 74873, Note_on_c, 0, 77, 38
1, 74873, Note_on_c, 0, 34, 38
1, 74969, Note_off_c, 0, 77, 0
1, 74969, Note_off_c, 0, 74, 0
1, 74969, Note_on_c, 0, 74, 35
1, 75065, Note_off_c, 0, 74, 0
1, 75065, Note_on_c, 0, 70, 35
1, 75161, Note_off_c, 0, 70, 0
1, 75161, Note_on_c, 0, 86, 38
1, 75161, Note_on_c, 0, 82, 38
1, 75257, Note_off_c, 0, 82, 0
1, 75257, Note_off_c, 0, 86, 0
1, 75257, Note_off_c, 0, 34, 0
1, 75257, Note_on_c, 0, 34, 38
1, 75257, Note_on_c, 0, 70, 35
1, 75353, Note_off_c, 0, 70, 0
1, 75353, Note_off_c, 0, 34, 0
1, 75353, Note_on_c, 0, 65, 35
1, 75449, Note_off_c, 0, 65, 0
1, 75449, Note_on_c, 0, 84, 38
1, 75449, Note_on_c, 0, 87, 38
1, 75449, Note_on_c, 0, 34, 38
1, 75545, Note_off_c, 0, 87, 0
1, 75545, Note_off_c, 0, 84, 0
1, 75545, Note_on_c, 0, 70, 35
1, 75641, Note_off_c, 0, 70, 0
1, 75641, Note_on_c, 0, 65, 35
1, 75737, Note_off_c, 0, 65, 0
1, 75737, Note_on_c, 0, 89, 38
1, 75737, Note_on_c, 0, 86, 38
1, 75833, Note_off_c, 0, 86, 0
1, 75833, Note_off_c, 0, 89, 0
1, 75833, Note_off_c, 0, 34, 0
1, 75833, Note_on_c, 0, 34, 38
1, 75833, Note_on_c, 0, 70, 35
1, 75929, Note_off_c, 0, 70, 0
1, 75929, Note_on_c, 0, 68, 35
1, 76025, Note_off_c, 0, 68, 0
1, 76025, Note_on_c, 0, 65, 35
1, 76121, Note_off_c, 0, 65, 0
1, 76121, Note_on_c, 0, 70, 35
1, 76217, Note_off_c, 0, 70, 0
1, 76217, Note_on_c, 0, 74, 35
1, 76313, Note_off_c, 0, 74, 0
1, 76313, Note_on_c, 0, 77, 35
1, 76409, Note_off_c, 0, 77, 0
1, 76409, Note_on_c, 0, 82, 35
1, 76505, Note_off_c, 0, 82, 0
1, 76505, Note_on_c, 0, 86, 35
1, 76505, Note_on_c, 0, 86, 22
1, 76601, Note_off_c, 0, 86, 0
1, 76601, Note_off_c, 0, 86, 0
1, 76601, Note_on_c, 0, 89, 35
1, 76601, Note_on_c, 0, 89, 22
1, 76697, Note_off_c, 0, 89, 0
1, 76697, Note_off_c, 0, 89, 0
1, 76697, Note_on_c, 0, 94, 22
1, 76697, Note_on_c, 0, 94, 35
1, 76793, Note_off_c, 0, 94, 0
1, 76793, Note_off_c, 0, 94, 0
1, 76793, Note_off_c, 0, 34, 0
1, 76793, Note_on_c, 0, 79, 35
1, 76793, Note_on_c, 0, 36, 38
1, 76793, Note_on_c, 0, 60, 27
1, 76793, Note_on_c, 0, 63, 27
1, 76793, Note_on_c, 0, 67, 27
1, 76793, Note_on_c, 0, 72, 27
1, 76889, Note_off_c, 0, 79, 0
1, 76889, Note_on_c, 0, 75, 35
1, 76985, Note_off_c, 0, 75, 0
1, 76985, Note_on_c, 0, 72, 35
1, 76985, Note_on_c, 0, 48, 29
1, 77081, Note_off_c, 0, 72, 0
1, 77081, Note_on_c, 0, 75, 35
1, 77177, Note_off_c, 0, 75, 0
1, 77177, Note_off_c, 0, 48, 0
1, 77177, Note_on_c, 0, 67, 35
1, 77273, Note_off_c, 0, 67, 0
1, 77273, Note_on_c, 0, 72, 35
1, 77369, Note_off_c, 0, 72, 0
1, 77369, Note_on_c, 0, 63, 35
1, 77369, Note_on_c, 0, 48, 29
1, 77465, Note_off_c, 0, 63, 0
1, 77465, Note_on_c, 0, 67, 35
1, 77561, Note_off_c, 0, 67, 0
1, 77561, Note_off_c, 0, 48, 0
1, 77561, Note_on_c, 0, 60, 35
1, 77657, Note_off_c, 0, 60, 0
1, 77657, Note_on_c, 0, 67, 35
1, 77753, Note_off_c, 0, 67, 0
1, 77753, Note_on_c, 0, 63, 35
1, 77753, Note_on_c, 0, 48, 29
1, 77849, Note_off_c, 0, 63, 0
1, 77849, Note_on_c, 0, 67, 35
1, 77945, Note_off_c, 0, 67, 0
1, 77945, Note_off_c, 0, 48, 0
1, 77945, Note_on_c, 0, 72, 35
1, 78041, Note_off_c, 0, 72, 0
1, 78041, Note_on_c, 0, 79, 35
1, 78137, Note_off_c, 0, 79, 0
1, 78137, Note_on_c, 0, 77, 35
1, 78137, Note_on_c, 0, 48, 29
1, 78233, Note_off_c, 0, 77, 0
1, 78233, Note_on_c, 0, 75, 35
1, 78329, Note_off_c, 0, 75, 0
1, 78329, Note_off_c, 0, 48, 0
1, 78329, Note_off_c, 0, 72, 0
1, 78329, Note_off_c, 0, 67, 0
1, 78329, Note_off_c, 0, 63, 0
1, 78329, Note_off_c, 0, 60, 0
1, 78329, Note_off_c, 0, 36, 0
1, 78329, Note_on_c, 0, 79, 35
1, 78329, Note_on_c, 0, 36, 38
1, 78329, Note_on_c, 0, 72, 27
1, 78329, Note_on_c, 0, 60, 27
1, 78329, Note_on_c, 0, 63, 27
1, 78329, Note_on_c, 0, 67, 27
1, 78425, Note_off_c, 0, 79, 0
1, 78425, Note_on_c, 0, 75, 35
1, 78521, Note_off_c, 0, 75, 0
1, 78521, Note_on_c, 0, 72, 35
1, 78521, Note_on_c, 0, 48, 29
1, 78617, Note_off_c, 0, 72, 0
1, 78617, Note_on_c, 0, 75, 35
1, 78713, Note_off_c, 0, 75, 0
1, 78713, Note_off_c, 0, 48, 0
1, 78713, Note_on_c, 0, 67, 35
1, 78809, Note_off_c, 0, 67, 0
1, 78809, Note_on_c, 0, 72, 35
1, 78905, Note_off_c, 0, 72, 0
1, 78905, Note_on_c, 0, 63, 35
1, 78905, Note_on_c, 0, 48, 29
1, 79001, Note_off_c, 0, 63, 0
1, 79001, Note_on_c, 0, 67, 35
1, 79097, Note_off_c, 0, 67, 0
1, 79097, Note_off_c, 0, 48, 0
1, 79097, Note_on_c, 0, 60, 35
1, 79193, Note_off_c, 0, 60, 0
1, 79193, Note_on_c, 0, 67, 35
1, 79289, Note_off_c, 0, 67, 0
1, 79289, Note_on_c, 0, 63, 35
1, 79289, Note_on_c, 0, 48, 29
1, 79385, Note_off_c, 0, 63, 0
1, 79385, Note_on_c, 0, 67, 35
1, 79481, Note_off_c, 0, 67, 0
1, 79481, Note_off_c, 0, 48, 0
1, 79481, Note_off_c, 0, 36, 0
1, 79481, Note_on_c, 0, 72, 35
1, 79481, Note_on_c, 0, 43, 33
1, 79577, Note_off_c, 0, 72, 0
1, 79577, Note_on_c, 0, 79, 35
1, 79673, Note_off_c, 0, 79, 0
1, 79673, Note_on_c, 0, 77, 35
1, 79769, Note_off_c, 0, 77, 0
1, 79769, Note_on_c, 0, 75, 35
1, 79865, Note_off_c, 0, 75, 0
1, 79865, Note_off_c, 0, 43, 0
1, 79865, Note_off_c, 0, 67, 0
1, 79865, Note_off_c, 0, 63, 0
1, 79865, Note_off_c, 0, 60, 0
1, 79865, Note_off_c, 0, 72, 0
1, 79865, Note_on_c, 0, 78, 35
1, 79865, Note_on_c, 0, 61, 27
1, 79865, Note_on_c, 0, 66, 27
1, 79865, Note_on_c, 0, 70, 27
1, 79865, Note_on_c, 0, 73, 27
1, 79961, Note_off_c, 0, 78, 0
1, 79961, Note_on_c, 0, 73, 35
1, 80057, Note_off_c, 0, 73, 0
1, 80057, Note_on_c, 0, 72, 35
1, 80057, Note_on_c, 0, 42, 29
1, 80153, Note_off_c, 0, 72, 0
1, 80153, Note_on_c, 0, 73, 35
1, 80249, Note_off_c, 0, 73, 0
1, 80249, Note_off_c, 0, 42, 0
1, 80249, Note_on_c, 0, 70, 35
1, 80345, Note_off_c, 0, 70, 0
1, 80345, Note_on_c, 0, 73, 35
1, 80441, Note_off_c, 0, 73, 0
1, 80441, Note_on_c, 0, 66, 35
1, 80441, Note_on_c, 0, 42, 29
1, 80537, Note_off_c, 0, 66, 0
1, 80537, Note_on_c, 0, 73, 35
1, 80633, Note_off_c, 0, 73, 0
1, 80633, Note_off_c, 0, 42, 0
1, 80633, Note_on_c, 0, 61, 35
1, 80729, Note_off_c, 0, 61, 0
1, 80729, Note_on_c, 0, 73, 35
1, 80825, Note_off_c, 0, 73, 0
1, 80825, Note_on_c, 0, 72, 35
1, 80825, Note_on_c, 0, 42, 29
1, 80921, Note_off_c, 0, 72, 0
1, 80921, Note_on_c, 0, 70, 35
1, 81017, Note_off_c, 0, 70, 0
1, 81017, Note_off_c, 0, 42, 0
1, 81017, Note_on_c, 0, 66, 35
1, 81113, Note_off_c, 0, 66, 0
1, 81113, Note_on_c, 0, 70, 35
1, 81209, Note_off_c, 0, 70, 0
1, 81209, Note_on_c, 0, 73, 35
1, 81209, Note_on_c, 0, 42, 29
1, 81305, Note_off_c, 0, 73, 0
1, 81305, Note_on_c, 0, 77, 35
1, 81401, Note_off_c, 0, 77, 0
1, 81401, Note_off_c, 0, 42, 0
1, 81401, Note_off_c, 0, 73, 0
1, 81401, Note_off_c, 0, 70, 0
1, 81401, Note_off_c, 0, 66, 0
1, 81401, Note_off_c, 0, 61, 0
1, 81401, Note_on_c, 0, 78, 35
1, 81401, Note_on_c, 0, 61, 27
1, 81401, Note_on_c, 0, 66, 27
1, 81401, Note_on_c, 0, 70, 27
1, 81401, Note_on_c, 0, 73, 27
1, 81497, Note_off_c, 0, 78, 0
1, 81497, Note_on_c, 0, 73, 35
1, 81593, Note_off_c, 0, 73, 0
1, 81593, Note_on_c, 0, 72, 35
1, 81593, Note_on_c, 0, 42, 29
1, 81689, Note_off_c, 0, 72, 0
1, 81689, Note_on_c, 0, 73, 35
1, 81785, Note_off_c, 0, 73, 0
1, 81785, Note_off_c, 0, 42, 0
1, 81785, Note_on_c, 0, 70, 35
1, 81881, Note_off_c, 0, 70, 0
1, 81881, Note_on_c, 0, 73, 35
1, 81977, Note_off_c, 0, 73, 0
1, 81977, Note_on_c, 0, 66, 35
1, 81977, Note_on_c, 0, 42, 29
1, 82073, Note_off_c, 0, 66, 0
1, 82073, Note_on_c, 0, 73, 35
1, 82169, Note_off_c, 0, 73, 0
1, 82169, Note_off_c, 0, 42, 0
1, 82169, Note_on_c, 0, 61, 35
1, 82265, Note_off_c, 0, 61, 0
1, 82265, Note_on_c, 0, 73, 35
1, 82361, Note_off_c, 0, 73, 0
1, 82361, Note_on_c, 0, 72, 35
1, 82361, Note_on_c, 0, 42, 29
1, 82457, Note_off_c, 0, 72, 0
1, 82457, Note_on_c, 0, 73, 35
1, 82553, Note_off_c, 0, 73, 0
1, 82553, Note_off_c, 0, 42, 0
1, 82553, Note_on_c, 0, 78, 35
1, 82649, Note_off_c, 0, 78, 0
1, 82649, Note_on_c, 0, 82, 35
1, 82745, Note_off_c, 0, 82, 0
1, 82745, Note_on_c, 0, 84, 35
1, 82745, Note_on_c, 0, 42, 29
1, 82841, Note_off_c, 0, 84, 0
1, 82841, Note_on_c, 0, 85, 35
1, 82937, Note_off_c, 0, 85, 0
1, 82937, Note_off_c, 0, 42, 0
1, 82937, Note_off_c, 0, 73, 0
1, 82937, Note_off_c, 0, 70, 0
1, 82937, Note_off_c, 0, 66, 0
1, 82937, Note_off_c, 0, 61, 0
1, 82937, Note_on_c, 0, 79, 35
1, 82937, Note_on_c, 0, 60, 27
1, 82937, Note_on_c, 0, 63, 27
1, 82937, Note_on_c, 0, 67, 27
1, 82937, Note_on_c, 0, 72, 27
1, 83033, Note_off_c, 0, 79, 0
1, 83033, Note_on_c, 0, 75, 34
1, 83129, Note_off_c, 0, 75, 0
1, 83129, Note_on_c, 0, 72, 33
1, 83129, Note_on_c, 0, 36, 29
1, 83225, Note_off_c, 0, 72, 0
1, 83225, Note_on_c, 0, 75, 32
1, 83321, Note_off_c, 0, 75, 0
1, 83321, Note_off_c, 0, 36, 0
1, 83321, Note_on_c, 0, 67, 31
1, 83417, Note_off_c, 0, 67, 0
1, 83417, Note_on_c, 0, 72, 31
1, 83513, Note_off_c, 0, 72, 0
1, 83513, Note_on_c, 0, 63, 30
1, 83513, Note_on_c, 0, 36, 29
1, 83609, Note_off_c, 0, 63, 0
1, 83609, Note_on_c, 0, 67, 30
1, 83705, Note_off_c, 0, 67, 0
1, 83705, Note_off_c, 0, 36, 0
1, 83705, Note_on_c, 0, 60, 30
1, 83801, Note_off_c, 0, 60, 0
1, 83801, Note_on_c, 0, 67, 29
1, 83897, Note_off_c, 0, 67, 0
1, 83897, Note_on_c, 0, 63, 29
1, 83897, Note_on_c, 0, 36, 29
1, 83993, Note_off_c, 0, 63, 0
1, 83993, Note_on_c, 0, 67, 29
1, 84089, Note_off_c, 0, 67, 0
1, 84089, Note_off_c, 0, 36, 0
1, 84089, Note_on_c, 0, 72, 29
1, 84185, Note_off_c, 0, 72, 0
1, 84185, Note_on_c, 0, 79, 29
1, 84281, Note_off_c, 0, 79, 0
1, 84281, Note_on_c, 0, 77, 29
1, 84281, Note_on_c, 0, 36, 29
1, 84377, Note_off_c, 0, 77, 0
1, 84377, Note_on_c, 0, 75, 29
1, 84473, Note_off_c, 0, 75, 0
1, 84473, Note_off_c, 0, 36, 0
1, 84473, Note_off_c, 0, 72, 0
1, 84473, Note_off_c, 0, 67, 0
1, 84473, Note_off_c, 0, 63, 0
1, 84473, Note_off_c, 0, 60, 0
1, 84473, Note_on_c, 0, 79, 28
1, 84473, Note_on_c, 0, 72, 27
1, 84473, Note_on_c, 0, 60, 27
1, 84473, Note_on_c, 0, 63, 27
1, 84473, Note_on_c, 0, 67, 27
1, 84569, Note_off_c, 0, 79, 0
1, 84569, Note_on_c, 0, 75, 27
1, 84665, Note_off_c, 0, 75, 0
1, 84665, Note_on_c, 0, 72, 27
1, 84665, Note_on_c, 0, 36, 29
1, 84761, Note_off_c, 0, 72, 0
1, 84761, Note_on_c, 0, 75, 26
1, 84857, Note_off_c, 0, 75, 0
1, 84857, Note_off_c, 0, 36, 0
1, 84857, Note_on_c, 0, 67, 25
1, 84953, Note_off_c, 0, 67, 0
1, 84953, Note_on_c, 0, 72, 25
1, 85049, Note_off_c, 0, 72, 0
1, 85049, Note_on_c, 0, 63, 24
1, 85049, Note_on_c, 0, 36, 29
1, 85145, Note_off_c, 0, 63, 0
1, 85145, Note_on_c, 0, 67, 24
1, 85241, Note_off_c, 0, 43, 0
1, 85241, Note_off_c, 0, 67, 0
1, 85241, Note_off_c, 0, 36, 0
1, 85241, Note_on_c, 0, 60, 23
1, 85241, Note_on_c, 0, 43, 32
1, 85337, Note_off_c, 0, 43, 0
1, 85337, Note_off_c, 0, 60, 0
1, 85337, Note_on_c, 0, 67, 22
1, 85337, Note_on_c, 0, 43, 32
1, 85433, Note_off_c, 0, 43, 0
1, 85433, Note_off_c, 0, 67, 0
1, 85433, Note_on_c, 0, 63, 22
1, 85433, Note_on_c, 0, 43, 32
1, 85433, Note_on_c, 0, 69, 35
1, 85529, Note_off_c, 0, 43, 0
1, 85529, Note_off_c, 0, 63, 0
1, 85529, Note_on_c, 0, 67, 20
1, 85529, Note_on_c, 0, 43, 32
1, 85625, Note_off_c, 0, 43, 0
1, 85625, Note_off_c, 0, 67, 0
1, 85625, Note_on_c, 0, 72, 20
1, 85625, Note_on_c, 0, 43, 32
1, 85721, Note_off_c, 0, 43, 0
1, 85721, Note_off_c, 0, 72, 0
1, 85721, Note_on_c, 0, 79, 19
1, 85721, Note_on_c, 0, 43, 32
1, 85817, Note_off_c, 0, 43, 0
1, 85817, Note_off_c, 0, 79, 0
1, 85817, Note_off_c, 0, 69, 0
1, 85817, Note_on_c, 0, 77, 18
1, 85817, Note_on_c, 0, 43, 32
1, 85817, Note_on_c, 0, 70, 35
1, 85913, Note_off_c, 0, 43, 0
1, 85913, Note_off_c, 0, 77, 0
1, 85913, Note_on_c, 0, 75, 13
1, 85913, Note_on_c, 0, 43, 32
1, 86009, Note_off_c, 0, 75, 0
1, 86009, Note_off_c, 0, 70, 0
1, 86009, Note_off_c, 0, 67, 0
1, 86009, Note_off_c, 0, 63, 0
1, 86009, Note_off_c, 0, 60, 0
1, 86009, Note_off_c, 0, 72, 0
1, 86009, Note_on_c, 0, 78, 9
1, 86009, Note_on_c, 0, 30, 33
1, 86009, Note_on_c, 0, 42, 40
1, 86009, Note_on_c, 0, 72, 36
1, 86009, Note_on_c, 0, 68, 36
1, 86009, Note_on_c, 0, 60, 31
1, 86009, Note_on_c, 0, 66, 31
1, 86105, Note_off_c, 0, 78, 0
1, 86489, Note_off_c, 0, 42, 0
1, 86489, Note_off_c, 0, 30, 0
1, 86585, Note_on_c, 0, 30, 33
1, 86585, Note_on_c, 0, 42, 40
1, 87065, Note_off_c, 0, 42, 0
1, 87065, Note_off_c, 0, 30, 0
1, 87161, Note_on_c, 0, 30, 32
1, 87161, Note_on_c, 0, 42, 40
1, 87449, Note_off_c, 0, 42, 0
1, 87449, Note_off_c, 0, 30, 0
1, 87545, Note_off_c, 0, 66, 0
1, 87545, Note_off_c, 0, 60, 0
1, 87545, Note_off_c, 0, 68, 0
1, 87545, Note_off_c, 0, 72, 0
1, 87545, Note_on_c, 0, 30, 33
1, 87545, Note_on_c, 0, 42, 40
1, 87545, Note_on_c, 0, 70, 38
1, 87545, Note_on_c, 0, 61, 38
1, 87545, Note_on_c, 0, 66, 38
1, 88025, Note_off_c, 0, 42, 0
1, 88025, Note_off_c, 0, 30, 0
1, 88121, Note_on_c, 0, 30, 33
1, 88121, Note_on_c, 0, 42, 40
1, 88601, Note_off_c, 0, 42, 0
1, 88601, Note_off_c, 0, 30, 0
1, 88697, Note_on_c, 0, 42, 40
1, 88697, Note_on_c, 0, 30, 32
1, 88985, Note_off_c, 0, 30, 0
1, 88985, Note_off_c, 0, 42, 0
1, 89081, Note_off_c, 0, 66, 0
1, 89081, Note_off_c, 0, 61, 0
1, 89081, Note_off_c, 0, 70, 0
1, 89081, Note_on_c, 0, 84, 25
1, 89081, Note_on_c, 0, 84, 35
1, 89081, Note_on_c, 0, 29, 29
1, 89177, Note_off_c, 0, 29, 0
1, 89177, Note_off_c, 0, 84, 0
1, 89177, Note_off_c, 0, 84, 0
1, 89177, Note_on_c, 0, 80, 35
1, 89273, Note_off_c, 0, 80, 0
1, 89273, Note_on_c, 0, 77, 35
1, 89273, Note_on_c, 0, 41, 35
1, 89369, Note_off_c, 0, 77, 0
1, 89369, Note_on_c, 0, 72, 35
1, 89465, Note_off_c, 0, 72, 0
1, 89465, Note_off_c, 0, 41, 0
1, 89465, Note_on_c, 0, 65, 35
1, 89465, Note_on_c, 0, 29, 29
1, 89561, Note_off_c, 0, 29, 0
1, 89561, Note_off_c, 0, 65, 0
1, 89561, Note_on_c, 0, 67, 35
1, 89657, Note_off_c, 0, 67, 0
1, 89657, Note_on_c, 0, 68, 35
1, 89657, Note_on_c, 0, 41, 35
1, 89753, Note_off_c, 0, 68, 0
1, 89753, Note_on_c, 0, 72, 35
1, 89849, Note_off_c, 0, 72, 0
1, 89849, Note_off_c, 0, 41, 0
1, 89849, Note_on_c, 0, 84, 28
1, 89849, Note_on_c, 0, 84, 28
1, 89849, Note_on_c, 0, 84, 25
1, 89849, Note_on_c, 0, 29, 29
1, 89945, Note_off_c, 0, 29, 0
1, 89945, Note_off_c, 0, 84, 0
1, 89945, Note_off_c, 0, 84, 0
1, 89945, Note_off_c, 0, 84, 0
1, 89945, Note_on_c, 0, 80, 35
1, 90041, Note_off_c, 0, 80, 0
1, 90041, Note_on_c, 0, 77, 35
1, 90041, Note_on_c, 0, 41, 35
1, 90137, Note_off_c, 0, 77, 0
1, 90137, Note_on_c, 0, 72, 35
1, 90233, Note_off_c, 0, 72, 0
1, 90233, Note_off_c, 0, 41, 0
1, 90233, Note_on_c, 0, 65, 35
1, 90233, Note_on_c, 0, 29, 29
1, 90329, Note_off_c, 0, 29, 0
1, 90329, Note_off_c, 0, 65, 0
1, 90329, Note_on_c, 0, 67, 35
1, 90425, Note_off_c, 0, 67, 0
1, 90425, Note_on_c, 0, 68, 35
1, 90425, Note_on_c, 0, 41, 35
1, 90521, Note_off_c, 0, 68, 0
1, 90521, Note_on_c, 0, 72, 35
1, 90617, Note_off_c, 0, 72, 0
1, 90617, Note_off_c, 0, 41, 0
1, 90617, Note_on_c, 0, 65, 35
1, 90617, Note_on_c, 0, 29, 29
1, 90713, Note_off_c, 0, 29, 0
1, 90713, Note_off_c, 0, 65, 0
1, 90713, Note_on_c, 0, 67, 35
1, 90809, Note_off_c, 0, 67, 0
1, 90809, Note_on_c, 0, 68, 35
1, 90809, Note_on_c, 0, 41, 35
1, 90905, Note_off_c, 0, 68, 0
1, 90905, Note_on_c, 0, 72, 35
1, 91001, Note_off_c, 0, 72, 0
1, 91001, Note_off_c, 0, 41, 0
1, 91001, Note_on_c, 0, 67, 35
1, 91001, Note_on_c, 0, 29, 29
1, 91097, Note_off_c, 0, 29, 0
1, 91097, Note_off_c, 0, 67, 0
1, 91097, Note_on_c, 0, 68, 35
1, 91193, Note_off_c, 0, 68, 0
1, 91193, Note_on_c, 0, 72, 35
1, 91193, Note_on_c, 0, 41, 35
1, 91289, Note_off_c, 0, 72, 0
1, 91289, Note_on_c, 0, 77, 35
1, 91385, Note_off_c, 0, 41, 0
1, 91385, Note_off_c, 0, 77, 0
1, 91385, Note_off_c, 0, 41, 0
1, 91385, Note_on_c, 0, 68, 35
1, 91385, Note_on_c, 0, 41, 33
1, 91481, Note_off_c, 0, 41, 0
1, 91481, Note_off_c, 0, 68, 0
1, 91481, Note_on_c, 0, 72, 35
1, 91481, Note_on_c, 0, 41, 33
1, 91577, Note_off_c, 0, 41, 0
1, 91577, Note_off_c, 0, 72, 0
1, 91577, Note_on_c, 0, 77, 35
1, 91577, Note_on_c, 0, 41, 33
1, 91673, Note_off_c, 0, 41, 0
1, 91673, Note_off_c, 0, 77, 0
1, 91673, Note_on_c, 0, 80, 35
1, 91673, Note_on_c, 0, 41, 33
1, 91769, Note_off_c, 0, 41, 0
1, 91769, Note_off_c, 0, 80, 0
1, 91769, Note_on_c, 0, 72, 35
1, 91769, Note_on_c, 0, 41, 33
1, 91865, Note_off_c, 0, 41, 0
1, 91865, Note_off_c, 0, 72, 0
1, 91865, Note_on_c, 0, 77, 35
1, 91865, Note_on_c, 0, 41, 33
1, 91961, Note_off_c, 0, 41, 0
1, 91961, Note_off_c, 0, 77, 0
1, 91961, Note_on_c, 0, 80, 35
1, 91961, Note_on_c, 0, 41, 33
1, 92057, Note_off_c, 0, 41, 0
1, 92057, Note_off_c, 0, 80, 0
1, 92057, Note_on_c, 0, 82, 35
1, 92057, Note_on_c, 0, 41, 33
1, 92153, Note_off_c, 0, 82, 0
1, 92153, Note_on_c, 0, 84, 35
1, 92153, Note_on_c, 0, 25, 30
1, 92249, Note_off_c, 0, 84, 0
1, 92249, Note_on_c, 0, 80, 35
1, 92345, Note_off_c, 0, 80, 0
1, 92345, Note_on_c, 0, 77, 35
1, 92345, Note_on_c, 0, 37, 33
1, 92441, Note_off_c, 0, 77, 0
1, 92441, Note_on_c, 0, 80, 35
1, 92537, Note_off_c, 0, 80, 0
1, 92537, Note_off_c, 0, 37, 0
1, 92537, Note_on_c, 0, 73, 35
1, 92633, Note_off_c, 0, 73, 0
1, 92633, Note_on_c, 0, 77, 35
1, 92729, Note_off_c, 0, 77, 0
1, 92729, Note_on_c, 0, 68, 35
1, 92729, Note_on_c, 0, 37, 33
1, 92825, Note_off_c, 0, 68, 0
1, 92825, Note_on_c, 0, 73, 35
1, 92921, Note_off_c, 0, 73, 0
1, 92921, Note_off_c, 0, 37, 0
1, 92921, Note_on_c, 0, 65, 34
1, 93017, Note_off_c, 0, 65, 0
1, 93017, Note_on_c, 0, 56, 34
1, 93113, Note_off_c, 0, 56, 0
1, 93113, Note_on_c, 0, 61, 35
1, 93113, Note_on_c, 0, 37, 33
1, 93209, Note_off_c, 0, 61, 0
1, 93209, Note_on_c, 0, 65, 35
1, 93305, Note_off_c, 0, 65, 0
1, 93305, Note_off_c, 0, 37, 0
1, 93305, Note_on_c, 0, 56, 35
1, 93401, Note_off_c, 0, 56, 0
1, 93401, Note_on_c, 0, 61, 35
1, 93497, Note_off_c, 0, 61, 0
1, 93497, Note_on_c, 0, 65, 35
1, 93497, Note_on_c, 0, 37, 33
1, 93593, Note_off_c, 0, 65, 0
1, 93593, Note_on_c, 0, 67, 35
1, 93689, Note_off_c, 0, 67, 0
1, 93689, Note_off_c, 0, 37, 0
1, 93689, Note_off_c, 0, 25, 0
1, 93689, Note_on_c, 0, 80, 35
1, 93689, Note_on_c, 0, 25, 29
1, 93785, Note_off_c, 0, 25, 0
1, 93785, Note_off_c, 0, 80, 0
1, 93785, Note_on_c, 0, 79, 35
1, 93881, Note_off_c, 0, 79, 0
1, 93881, Note_on_c, 0, 77, 35
1, 93881, Note_on_c, 0, 37, 33
1, 93977, Note_off_c, 0, 77, 0
1, 93977, Note_on_c, 0, 73, 35
1, 94073, Note_off_c, 0, 73, 0
1, 94073, Note_off_c, 0, 37, 0
1, 94073, Note_on_c, 0, 77, 35
1, 94073, Note_on_c, 0, 25, 29
1, 94169, Note_off_c, 0, 77, 0
1, 94169, Note_on_c, 0, 79, 35
1, 94265, Note_off_c, 0, 79, 0
1, 94265, Note_on_c, 0, 80, 35
1, 94361, Note_off_c, 0, 80, 0
1, 94361, Note_on_c, 0, 85, 35
1, 94457, Note_off_c, 0, 37, 0
1, 94457, Note_off_c, 0, 85, 0
1, 94457, Note_off_c, 0, 25, 0
1, 94457, Note_on_c, 0, 89, 35
1, 94457, Note_on_c, 0, 37, 35
1, 94553, Note_off_c, 0, 37, 0
1, 94553, Note_off_c, 0, 89, 0
1, 94553, Note_on_c, 0, 87, 35
1, 94553, Note_on_c, 0, 37, 35
1, 94649, Note_off_c, 0, 37, 0
1, 94649, Note_off_c, 0, 87, 0
1, 94649, Note_on_c, 0, 85, 35
1, 94649, Note_on_c, 0, 37, 35
1, 94745, Note_off_c, 0, 37, 0
1, 94745, Note_off_c, 0, 85, 0
1, 94745, Note_on_c, 0, 80, 35
1, 94745, Note_on_c, 0, 37, 35
1, 94841, Note_off_c, 0, 37, 0
1, 94841, Note_off_c, 0, 80, 0
1, 94841, Note_on_c, 0, 73, 25
1, 94841, Note_on_c, 0, 85, 35
1, 94841, Note_on_c, 0, 37, 35
1, 94937, Note_off_c, 0, 37, 0
1, 94937, Note_off_c, 0, 85, 0
1, 94937, Note_off_c, 0, 73, 0
1, 94937, Note_on_c, 0, 75, 25
1, 94937, Note_on_c, 0, 87, 35
1, 94937, Note_on_c, 0, 37, 35
1, 95033, Note_off_c, 0, 37, 0
1, 95033, Note_off_c, 0, 87, 0
1, 95033, Note_off_c, 0, 75, 0
1, 95033, Note_on_c, 0, 77, 25
1, 95033, Note_on_c, 0, 89, 35
1, 95033, Note_on_c, 0, 37, 35
1, 95129, Note_off_c, 0, 37, 0
1, 95129, Note_off_c, 0, 89, 0
1, 95129, Note_off_c, 0, 77, 0
1, 95129, Note_on_c, 0, 80, 25
1, 95129, Note_on_c, 0, 92, 35
1, 95129, Note_on_c, 0, 37, 35
1, 95225, Note_off_c, 0, 92, 0
1, 95225, Note_off_c, 0, 80, 0
1, 95225, Note_on_c, 0, 84, 25
1, 95225, Note_on_c, 0, 84, 35
1, 95225, Note_on_c, 0, 29, 29
1, 95321, Note_off_c, 0, 29, 0
1, 95321, Note_off_c, 0, 84, 0
1, 95321, Note_off_c, 0, 84, 0
1, 95321, Note_on_c, 0, 80, 35
1, 95417, Note_off_c, 0, 80, 0
1, 95417, Note_on_c, 0, 77, 35
1, 95417, Note_on_c, 0, 41, 35
1, 95513, Note_off_c, 0, 77, 0
1, 95513, Note_on_c, 0, 72, 35
1, 95609, Note_off_c, 0, 72, 0
1, 95609, Note_off_c, 0, 41, 0
1, 95609, Note_on_c, 0, 65, 35
1, 95609, Note_on_c, 0, 29, 29
1, 95705, Note_off_c, 0, 29, 0
1, 95705, Note_off_c, 0, 65, 0
1, 95705, Note_on_c, 0, 67, 35
1, 95801, Note_off_c, 0, 67, 0
1, 95801, Note_on_c, 0, 68, 35
1, 95801, Note_on_c, 0, 41, 35
1, 95897, Note_off_c, 0, 68, 0
1, 95897, Note_on_c, 0, 72, 35
1, 95993, Note_off_c, 0, 72, 0
1, 95993, Note_off_c, 0, 41, 0
1, 95993, Note_on_c, 0, 84, 28
1, 95993, Note_on_c, 0, 84, 28
1, 95993, Note_on_c, 0, 84, 25
1, 95993, Note_on_c, 0, 29, 29
1, 96089, Note_off_c, 0, 29, 0
1, 96089, Note_off_c, 0, 84, 0
1, 96089, Note_off_c, 0, 84, 0
1, 96089, Note_off_c, 0, 84, 0
1, 96089, Note_on_c, 0, 80, 35
1, 96185, Note_off_c, 0, 80, 0
1, 96185, Note_on_c, 0, 77, 35
1, 96185, Note_on_c, 0, 41, 35
1, 96281, Note_off_c, 0, 77, 0
1, 96281, Note_on_c, 0, 72, 35
1, 96377, Note_off_c, 0, 72, 0
1, 96377, Note_off_c, 0, 41, 0
1, 96377, Note_on_c, 0, 65, 35
1, 96377, Note_on_c, 0, 29, 29
1, 96473, Note_off_c, 0, 29, 0
1, 96473, Note_off_c, 0, 65, 0
1, 96473, Note_on_c, 0, 67, 35
1, 96569, Note_off_c, 0, 67, 0
1, 96569, Note_on_c, 0, 68, 35
1, 96569, Note_on_c, 0, 41, 35
1, 96665, Note_off_c, 0, 68, 0
1, 96665, Note_on_c, 0, 72, 35
1, 96761, Note_off_c, 0, 72, 0
1, 96761, Note_off_c, 0, 41, 0
1, 96761, Note_on_c, 0, 65, 35
1, 96761, Note_on_c, 0, 29, 29
1, 96857, Note_off_c, 0, 29, 0
1, 96857, Note_off_c, 0, 65, 0
1, 96857, Note_on_c, 0, 67, 35
1, 96953, Note_off_c, 0, 67, 0
1, 96953, Note_on_c, 0, 68, 35
1, 96953, Note_on_c, 0, 41, 35
1, 97049, Note_off_c, 0, 68, 0
1, 97049, Note_on_c, 0, 72, 35
1, 97145, Note_off_c, 0, 72, 0
1, 97145, Note_off_c, 0, 41, 0
1, 97145, Note_on_c, 0, 67, 35
1, 97145, Note_on_c, 0, 29, 29
1, 97241, Note_off_c, 0, 29, 0
1, 97241, Note_off_c, 0, 67, 0
1, 97241, Note_on_c, 0, 68, 35
1, 97337, Note_off_c, 0, 68, 0
1, 97337, Note_on_c, 0, 72, 35
1, 97337, Note_on_c, 0, 41, 35
1, 97433, Note_off_c, 0, 72, 0
1, 97433, Note_on_c, 0, 77, 35
1, 97529, Note_off_c, 0, 41, 0
1, 97529, Note_off_c, 0, 77, 0
1, 97529, Note_off_c, 0, 41, 0
1, 97529, Note_on_c, 0, 68, 35
1, 97529, Note_on_c, 0, 41, 33
1, 97625, Note_off_c, 0, 41, 0
1, 97625, Note_off_c, 0, 68, 0
1, 97625, Note_on_c, 0, 72, 35
1, 97625, Note_on_c, 0, 41, 33
1, 97721, Note_off_c, 0, 41, 0
1, 97721, Note_off_c, 0, 72, 0
1, 97721, Note_on_c, 0, 77, 35
1, 97721, Note_on_c, 0, 41, 33
1, 97817, Note_off_c, 0, 41, 0
1, 97817, Note_off_c, 0, 77, 0
1, 97817, Note_on_c, 0, 80, 35
1, 97817, Note_on_c, 0, 41, 33
1, 97913, Note_off_c, 0, 41, 0
1, 97913, Note_off_c, 0, 80, 0
1, 97913, Note_on_c, 0, 72, 35
1, 97913, Note_on_c, 0, 41, 33
1, 98009, Note_off_c, 0, 41, 0
1, 98009, Note_off_c, 0, 72, 0
1, 98009, Note_on_c, 0, 77, 35
1, 98009, Note_on_c, 0, 41, 33
1, 98105, Note_off_c, 0, 41, 0
1, 98105, Note_off_c, 0, 77, 0
1, 98105, Note_on_c, 0, 80, 35
1, 98105, Note_on_c, 0, 41, 33
1, 98201, Note_off_c, 0, 41, 0
1, 98201, Note_off_c, 0, 80, 0
1, 98201, Note_on_c, 0, 82, 35
1, 98201, Note_on_c, 0, 41, 33
1, 98297, Note_off_c, 0, 82, 0
1, 98297, Note_on_c, 0, 84, 35
1, 98297, Note_on_c, 0, 25, 30
1, 98393, Note_off_c, 0, 84, 0
1, 98393, Note_on_c, 0, 80, 35
1, 98489, Note_off_c, 0, 80, 0
1, 98489, Note_on_c, 0, 77, 35
1, 98489, Note_on_c, 0, 37, 33
1, 98585, Note_off_c, 0, 77, 0
1, 98585, Note_on_c, 0, 80, 35
1, 98681, Note_off_c, 0, 80, 0
1, 98681, Note_off_c, 0, 37, 0
1, 98681, Note_on_c, 0, 73, 35
1, 98777, Note_off_c, 0, 73, 0
1, 98777, Note_on_c, 0, 77, 35
1, 98873, Note_off_c, 0, 77, 0
1, 98873, Note_on_c, 0, 68, 35
1, 98873, Note_on_c, 0, 37, 33
1, 98969, Note_off_c, 0, 68, 0
1, 98969, Note_on_c, 0, 73, 35
1, 99065, Note_off_c, 0, 73, 0
1, 99065, Note_off_c, 0, 37, 0
1, 99065, Note_on_c, 0, 65, 35
1, 99161, Note_off_c, 0, 65, 0
1, 99161, Note_on_c, 0, 56, 33
1, 99257, Note_off_c, 0, 56, 0
1, 99257, Note_on_c, 0, 61, 35
1, 99257, Note_on_c, 0, 37, 33
1, 99353, Note_off_c, 0, 61, 0
1, 99353, Note_on_c, 0, 65, 35
1, 99449, Note_off_c, 0, 65, 0
1, 99449, Note_off_c, 0, 37, 0
1, 99449, Note_on_c, 0, 56, 35
1, 99545, Note_off_c, 0, 56, 0
1, 99545, Note_on_c, 0, 61, 35
1, 99641, Note_off_c, 0, 61, 0
1, 99641, Note_on_c, 0, 65, 35
1, 99641, Note_on_c, 0, 37, 33
1, 99737, Note_off_c, 0, 65, 0
1, 99737, Note_on_c, 0, 67, 35
1, 99833, Note_off_c, 0, 67, 0
1, 99833, Note_off_c, 0, 37, 0
1, 99833, Note_off_c, 0, 25, 0
1, 99833, Note_on_c, 0, 80, 35
1, 99833, Note_on_c, 0, 25, 29
1, 99929, Note_off_c, 0, 25, 0
1, 99929, Note_off_c, 0, 80, 0
1, 99929, Note_on_c, 0, 79, 35
1, 100025, Note_off_c, 0, 79, 0
1, 100025, Note_on_c, 0, 77, 35
1, 100025, Note_on_c, 0, 37, 33
1, 100121, Note_off_c, 0, 77, 0
1, 100121, Note_on_c, 0, 73, 35
1, 100217, Note_off_c, 0, 73, 0
1, 100217, Note_off_c, 0, 37, 0
1, 100217, Note_on_c, 0, 77, 35
1, 100217, Note_on_c, 0, 25, 29
1, 100313, Note_off_c, 0, 77, 0
1, 100313, Note_on_c, 0, 79, 35
1, 100409, Note_off_c, 0, 79, 0
1, 100409, Note_on_c, 0, 80, 35
1, 100505, Note_off_c, 0, 80, 0
1, 100505, Note_on_c, 0, 85, 35
1, 100601, Note_off_c, 0, 37, 0
1, 100601, Note_off_c, 0, 85, 0
1, 100601, Note_off_c, 0, 25, 0
1, 100601, Note_on_c, 0, 89, 35
1, 100601, Note_on_c, 0, 37, 35
1, 100697, Note_off_c, 0, 37, 0
1, 100697, Note_off_c, 0, 89, 0
1, 100697, Note_on_c, 0, 87, 35
1, 100697, Note_on_c, 0, 37, 35
1, 100793, Note_off_c, 0, 37, 0
1, 100793, Note_off_c, 0, 87, 0
1, 100793, Note_on_c, 0, 85, 35
1, 100793, Note_on_c, 0, 37, 35
1, 100889, Note_off_c, 0, 37, 0
1, 100889, Note_off_c, 0, 85, 0
1, 100889, Note_on_c, 0, 80, 35
1, 100889, Note_on_c, 0, 37, 35
1, 100985, Note_off_c, 0, 37, 0
1, 100985, Note_off_c, 0, 80, 0
1, 100985, Note_on_c, 0, 73, 25
1, 100985, Note_on_c, 0, 85, 35
1, 100985, Note_on_c, 0, 37, 35
1, 101081, Note_off_c, 0, 37, 0
1, 101081, Note_off_c, 0, 85, 0
1, 101081, Note_off_c, 0, 73, 0
1, 101081, Note_on_c, 0, 75, 25
1, 101081, Note_on_c, 0, 87, 35
1, 101081, Note_on_c, 0, 37, 35
1, 101177, Note_off_c, 0, 37, 0
1, 101177, Note_off_c, 0, 87, 0
1, 101177, Note_off_c, 0, 75, 0
1, 101177, Note_on_c, 0, 77, 25
1, 101177, Note_on_c, 0, 89, 35
1, 101177, Note_on_c, 0, 37, 35
1, 101273, Note_off_c, 0, 37, 0
1, 101273, Note_off_c, 0, 89, 0
1, 101273, Note_off_c, 0, 77, 0
1, 101273, Note_on_c, 0, 80, 25
1, 101273, Note_on_c, 0, 92, 35
1, 101273, Note_on_c, 0, 37, 35
1, 101369, Note_off_c, 0, 92, 0
1, 101369, Note_off_c, 0, 80, 0
1, 101369, Note_on_c, 0, 79, 39
1, 101369, Note_on_c, 0, 24, 30
1, 101465, Note_off_c, 0, 79, 0
1, 101465, Note_on_c, 0, 72, 36
1, 101561, Note_off_c, 0, 72, 0
1, 101561, Note_on_c, 0, 36, 33
1, 101561, Note_on_c, 0, 74, 36
1, 101657, Note_off_c, 0, 74, 0
1, 101657, Note_on_c, 0, 75, 36
1, 101753, Note_off_c, 0, 75, 0
1, 101753, Note_off_c, 0, 36, 0
1, 101753, Note_on_c, 0, 74, 36
1, 101849, Note_off_c, 0, 74, 0
1, 101849, Note_on_c, 0, 72, 36
1, 101945, Note_off_c, 0, 72, 0
1, 101945, Note_on_c, 0, 80, 39
1, 101945, Note_on_c, 0, 36, 33
1, 102041, Note_off_c, 0, 80, 0
1, 102041, Note_on_c, 0, 72, 36
1, 102137, Note_off_c, 0, 72, 0
1, 102137, Note_off_c, 0, 36, 0
1, 102137, Note_on_c, 0, 74, 36
1, 102233, Note_off_c, 0, 74, 0
1, 102233, Note_on_c, 0, 75, 36
1, 102329, Note_off_c, 0, 75, 0
1, 102329, Note_on_c, 0, 36, 33
1, 102329, Note_on_c, 0, 74, 36
1, 102425, Note_off_c, 0, 74, 0
1, 102425, Note_on_c, 0, 72, 36
1, 102521, Note_off_c, 0, 72, 0
1, 102521, Note_off_c, 0, 36, 0
1, 102521, Note_on_c, 0, 79, 39
1, 102617, Note_off_c, 0, 79, 0
1, 102617, Note_on_c, 0, 72, 36
1, 102713, Note_off_c, 0, 72, 0
1, 102713, Note_on_c, 0, 36, 33
1, 102713, Note_on_c, 0, 74, 36
1, 102809, Note_off_c, 0, 74, 0
1, 102809, Note_on_c, 0, 75, 36
1, 102905, Note_off_c, 0, 75, 0
1, 102905, Note_off_c, 0, 36, 0
1, 102905, Note_off_c, 0, 24, 0
1, 102905, Note_on_c, 0, 24, 29
1, 102905, Note_on_c, 0, 74, 36
1, 103001, Note_off_c, 0, 74, 0
1, 103001, Note_off_c, 0, 24, 0
1, 103001, Note_on_c, 0, 72, 36
1, 103097, Note_off_c, 0, 72, 0
1, 103097, Note_on_c, 0, 82, 39
1, 103097, Note_on_c, 0, 36, 33
1, 103193, Note_off_c, 0, 82, 0
1, 103193, Note_on_c, 0, 72, 36
1, 103289, Note_off_c, 0, 72, 0
1, 103289, Note_off_c, 0, 36, 0
1, 103289, Note_on_c, 0, 24, 29
1, 103289, Note_on_c, 0, 74, 36
1, 103385, Note_off_c, 0, 74, 0
1, 103385, Note_on_c, 0, 75, 36
1, 103481, Note_off_c, 0, 75, 0
1, 103481, Note_on_c, 0, 74, 36
1, 103577, Note_off_c, 0, 74, 0
1, 103577, Note_on_c, 0, 72, 36
1, 103673, Note_off_c, 0, 36, 0
1, 103673, Note_off_c, 0, 72, 0
1, 103673, Note_off_c, 0, 24, 0
1, 103673, Note_on_c, 0, 80, 39
1, 103673, Note_on_c, 0, 36, 35
1, 103769, Note_off_c, 0, 36, 0
1, 103769, Note_off_c, 0, 80, 0
1, 103769, Note_on_c, 0, 36, 35
1, 103769, Note_on_c, 0, 72, 36
1, 103865, Note_off_c, 0, 36, 0
1, 103865, Note_off_c, 0, 72, 0
1, 103865, Note_on_c, 0, 36, 35
1, 103865, Note_on_c, 0, 74, 36
1, 103961, Note_off_c, 0, 36, 0
1, 103961, Note_off_c, 0, 74, 0
1, 103961, Note_on_c, 0, 36, 35
1, 103961, Note_on_c, 0, 75, 36
1, 104057, Note_off_c, 0, 36, 0
1, 104057, Note_off_c, 0, 75, 0
1, 104057, Note_on_c, 0, 79, 39
1, 104057, Note_on_c, 0, 36, 35
1, 104153, Note_off_c, 0, 36, 0
1, 104153, Note_off_c, 0, 79, 0
1, 104153, Note_on_c, 0, 36, 35
1, 104153, Note_on_c, 0, 75, 36
1, 104249, Note_off_c, 0, 36, 0
1, 104249, Note_off_c, 0, 75, 0
1, 104249, Note_on_c, 0, 36, 35
1, 104249, Note_on_c, 0, 74, 36
1, 104345, Note_off_c, 0, 36, 0
1, 104345, Note_off_c, 0, 74, 0
1, 104345, Note_on_c, 0, 36, 35
1, 104345, Note_on_c, 0, 72, 36
1, 104441, Note_off_c, 0, 72, 0
1, 104441, Note_on_c, 0, 80, 39
1, 104441, Note_on_c, 0, 32, 30
1, 104537, Note_off_c, 0, 80, 0
1, 104537, Note_on_c, 0, 68, 36
1, 104633, Note_off_c, 0, 68, 0
1, 104633, Note_on_c, 0, 44, 33
1, 104633, Note_on_c, 0, 72, 36
1, 104729, Note_off_c, 0, 72, 0
1, 104729, Note_on_c, 0, 75, 36
1, 104825, Note_off_c, 0, 75, 0
1, 104825, Note_off_c, 0, 44, 0
1, 104825, Note_on_c, 0, 72, 36
1, 104921, Note_off_c, 0, 72, 0
1, 104921, Note_on_c, 0, 68, 36
1, 105017, Note_off_c, 0, 68, 0
1, 105017, Note_on_c, 0, 87, 39
1, 105017, Note_on_c, 0, 44, 33
1, 105113, Note_off_c, 0, 87, 0
1, 105113, Note_on_c, 0, 68, 36
1, 105209, Note_off_c, 0, 68, 0
1, 105209, Note_off_c, 0, 44, 0
1, 105209, Note_on_c, 0, 72, 36
1, 105305, Note_off_c, 0, 72, 0
1, 105305, Note_on_c, 0, 75, 36
1, 105401, Note_off_c, 0, 75, 0
1, 105401, Note_on_c, 0, 44, 33
1, 105401, Note_on_c, 0, 72, 36
1, 105497, Note_off_c, 0, 72, 0
1, 105497, Note_on_c, 0, 68, 36
1, 105593, Note_off_c, 0, 68, 0
1, 105593, Note_off_c, 0, 44, 0
1, 105593, Note_on_c, 0, 86, 39
1, 105689, Note_off_c, 0, 86, 0
1, 105689, Note_on_c, 0, 68, 36
1, 105785, Note_off_c, 0, 68, 0
1, 105785, Note_on_c, 0, 44, 33
1, 105785, Note_on_c, 0, 72, 36
1, 105881, Note_off_c, 0, 72, 0
1, 105881, Note_on_c, 0, 75, 36
1, 105977, Note_off_c, 0, 75, 0
1, 105977, Note_off_c, 0, 44, 0
1, 105977, Note_off_c, 0, 32, 0
1, 105977, Note_on_c, 0, 32, 29
1, 105977, Note_on_c, 0, 72, 36
1, 106073, Note_off_c, 0, 72, 0
1, 106073, Note_off_c, 0, 32, 0
1, 106073, Note_on_c, 0, 68, 36
1, 106169, Note_off_c, 0, 68, 0
1, 106169, Note_on_c, 0, 82, 39
1, 106169, Note_on_c, 0, 44, 33
1, 106265, Note_off_c, 0, 82, 0
1, 106265, Note_on_c, 0, 68, 36
1, 106361, Note_off_c, 0, 68, 0
1, 106361, Note_off_c, 0, 44, 0
1, 106361, Note_on_c, 0, 32, 29
1, 106361, Note_on_c, 0, 72, 36
1, 106457, Note_off_c, 0, 72, 0
1, 106457, Note_on_c, 0, 75, 36
1, 106553, Note_off_c, 0, 75, 0
1, 106553, Note_on_c, 0, 72, 36
1, 106649, Note_off_c, 0, 72, 0
1, 106649, Note_on_c, 0, 68, 36
1, 106745, Note_off_c, 0, 44, 0
1, 106745, Note_off_c, 0, 68, 0
1, 106745, Note_off_c, 0, 32, 0
1, 106745, Note_on_c, 0, 86, 39
1, 106745, Note_on_c, 0, 44, 35
1, 106841, Note_off_c, 0, 44, 0
1, 106841, Note_off_c, 0, 86, 0
1, 106841, Note_on_c, 0, 44, 35
1, 106841, Note_on_c, 0, 68, 36
1, 106937, Note_off_c, 0, 44, 0
1, 106937, Note_off_c, 0, 68, 0
1, 106937, Note_on_c, 0, 44, 35
1, 106937, Note_on_c, 0, 72, 36
1, 107033, Note_off_c, 0, 44, 0
1, 107033, Note_off_c, 0, 72, 0
1, 107033, Note_on_c, 0, 44, 35
1, 107033, Note_on_c, 0, 75, 36
1, 107129, Note_off_c, 0, 44, 0
1, 107129, Note_off_c, 0, 75, 0
1, 107129, Note_on_c, 0, 87, 39
1, 107129, Note_on_c, 0, 44, 35
1, 107225, Note_off_c, 0, 44, 0
1, 107225, Note_off_c, 0, 87, 0
1, 107225, Note_on_c, 0, 44, 35
1, 107225, Note_on_c, 0, 75, 36
1, 107321, Note_off_c, 0, 44, 0
1, 107321, Note_off_c, 0, 75, 0
1, 107321, Note_on_c, 0, 44, 35
1, 107321, Note_on_c, 0, 72, 36
1, 107417, Note_off_c, 0, 44, 0
1, 107417, Note_off_c, 0, 72, 0
1, 107417, Note_on_c, 0, 44, 35
1, 107417, Note_on_c, 0, 68, 36
1, 107513, Note_off_c, 0, 68, 0
1, 107513, Note_on_c, 0, 82, 39
1, 107513, Note_on_c, 0, 27, 30
1, 107609, Note_off_c, 0, 82, 0
1, 107609, Note_on_c, 0, 67, 38
1, 107705, Note_off_c, 0, 67, 0
1, 107705, Note_on_c, 0, 39, 33
1, 107705, Note_on_c, 0, 70, 38
1, 107801, Note_off_c, 0, 70, 0
1, 107801, Note_on_c, 0, 75, 38
1, 107897, Note_off_c, 0, 75, 0
1, 107897, Note_off_c, 0, 39, 0
1, 107897, Note_on_c, 0, 70, 37
1, 107993, Note_off_c, 0, 70, 0
1, 107993, Note_on_c, 0, 67, 37
1, 108089, Note_off_c, 0, 67, 0
1, 108089, Note_on_c, 0, 80, 39
1, 108089, Note_on_c, 0, 39, 33
1, 108185, Note_off_c, 0, 80, 0
1, 108185, Note_on_c, 0, 67, 38
1, 108281, Note_off_c, 0, 67, 0
1, 108281, Note_off_c, 0, 39, 0
1, 108281, Note_on_c, 0, 70, 38
1, 108377, Note_off_c, 0, 70, 0
1, 108377, Note_on_c, 0, 75, 38
1, 108473, Note_off_c, 0, 75, 0
1, 108473, Note_on_c, 0, 39, 33
1, 108473, Note_on_c, 0, 70, 36
1, 108569, Note_off_c, 0, 70, 0
1, 108569, Note_on_c, 0, 67, 37
1, 108665, Note_off_c, 0, 67, 0
1, 108665, Note_off_c, 0, 39, 0
1, 108665, Note_on_c, 0, 79, 39
1, 108761, Note_off_c, 0, 79, 0
1, 108761, Note_on_c, 0, 67, 38
1, 108857, Note_off_c, 0, 67, 0
1, 108857, Note_on_c, 0, 39, 33
1, 108857, Note_on_c, 0, 70, 38
1, 108953, Note_off_c, 0, 70, 0
1, 108953, Note_on_c, 0, 75, 38
1, 109049, Note_off_c, 0, 75, 0
1, 109049, Note_off_c, 0, 39, 0
1, 109049, Note_off_c, 0, 27, 0
1, 109049, Note_on_c, 0, 27, 29
1, 109049, Note_on_c, 0, 70, 36
1, 109145, Note_off_c, 0, 70, 0
1, 109145, Note_off_c, 0, 27, 0
1, 109145, Note_on_c, 0, 67, 35
1, 109241, Note_off_c, 0, 67, 0
1, 109241, Note_on_c, 0, 80, 39
1, 109241, Note_on_c, 0, 39, 33
1, 109337, Note_off_c, 0, 80, 0
1, 109337, Note_on_c, 0, 67, 38
1, 109433, Note_off_c, 0, 67, 0
1, 109433, Note_off_c, 0, 39, 0
1, 109433, Note_on_c, 0, 27, 29
1, 109433, Note_on_c, 0, 70, 38
1, 109529, Note_off_c, 0, 70, 0
1, 109529, Note_on_c, 0, 75, 38
1, 109625, Note_off_c, 0, 75, 0
1, 109625, Note_on_c, 0, 70, 33
1, 109721, Note_off_c, 0, 70, 0
1, 109721, Note_on_c, 0, 67, 35
1, 109817, Note_off_c, 0, 39, 0
1, 109817, Note_off_c, 0, 67, 0
1, 109817, Note_off_c, 0, 27, 0
1, 109817, Note_on_c, 0, 79, 39
1, 109817, Note_on_c, 0, 39, 35
1, 109817, Note_on_c, 0, 75, 38
1, 109913, Note_off_c, 0, 39, 0
1, 109913, Note_off_c, 0, 75, 0
1, 109913, Note_off_c, 0, 79, 0
1, 109913, Note_on_c, 0, 39, 35
1, 109913, Note_on_c, 0, 67, 38
1, 110009, Note_off_c, 0, 39, 0
1, 110009, Note_off_c, 0, 67, 0
1, 110009, Note_on_c, 0, 39, 35
1, 110009, Note_on_c, 0, 70, 38
1, 110105, Note_off_c, 0, 39, 0
1, 110105, Note_off_c, 0, 70, 0
1, 110105, Note_on_c, 0, 39, 35
1, 110105, Note_on_c, 0, 67, 38
1, 110201, Note_off_c, 0, 39, 0
1, 110201, Note_off_c, 0, 67, 0
1, 110201, Note_on_c, 0, 75, 39
1, 110201, Note_on_c, 0, 39, 35
1, 110297, Note_off_c, 0, 39, 0
1, 110297, Note_off_c, 0, 75, 0
1, 110297, Note_on_c, 0, 39, 35
1, 110297, Note_on_c, 0, 67, 38
1, 110393, Note_off_c, 0, 39, 0
1, 110393, Note_off_c, 0, 67, 0
1, 110393, Note_on_c, 0, 39, 35
1, 110393, Note_on_c, 0, 70, 38
1, 110489, Note_off_c, 0, 39, 0
1, 110489, Note_off_c, 0, 70, 0
1, 110489, Note_on_c, 0, 39, 35
1, 110489, Note_on_c, 0, 67, 38
1, 110585, Note_off_c, 0, 67, 0
1, 110585, Note_on_c, 0, 71, 36
1, 110585, Note_on_c, 0, 67, 24
1, 110681, Note_off_c, 0, 67, 0
1, 110681, Note_off_c, 0, 71, 0
1, 110681, Note_on_c, 0, 63, 36
1, 110681, Note_on_c, 0, 59, 27
1, 110777, Note_off_c, 0, 59, 0
1, 110777, Note_off_c, 0, 63, 0
1, 110777, Note_on_c, 0, 67, 36
1, 110777, Note_on_c, 0, 43, 35
1, 110777, Note_on_c, 0, 63, 25
1, 110873, Note_off_c, 0, 63, 0
1, 110873, Note_off_c, 0, 67, 0
1, 110873, Note_on_c, 0, 71, 35
1, 110873, Note_on_c, 0, 59, 25
1, 110969, Note_off_c, 0, 59, 0
1, 110969, Note_off_c, 0, 71, 0
1, 110969, Note_off_c, 0, 43, 0
1, 110969, Note_on_c, 0, 74, 36
1, 110969, Note_on_c, 0, 71, 31
1, 111065, Note_off_c, 0, 71, 0
1, 111065, Note_off_c, 0, 74, 0
1, 111065, Note_on_c, 0, 67, 36
1, 111065, Note_on_c, 0, 71, 31
1, 111161, Note_off_c, 0, 71, 0
1, 111161, Note_off_c, 0, 67, 0
1, 111161, Note_on_c, 0, 77, 36
1, 111161, Note_on_c, 0, 43, 35
1, 111161, Note_on_c, 0, 74, 31
1, 111257, Note_off_c, 0, 74, 0
1, 111257, Note_off_c, 0, 77, 0
1, 111257, Note_on_c, 0, 74, 36
1, 111257, Note_on_c, 0, 71, 31
1, 111353, Note_off_c, 0, 71, 0
1, 111353, Note_off_c, 0, 74, 0
1, 111353, Note_off_c, 0, 43, 0
1, 111353, Note_on_c, 0, 77, 36
1, 111353, Note_on_c, 0, 74, 31
1, 111449, Note_off_c, 0, 74, 0
1, 111449, Note_off_c, 0, 77, 0
1, 111449, Note_on_c, 0, 74, 36
1, 111449, Note_on_c, 0, 71, 31
1, 111545, Note_off_c, 0, 71, 0
1, 111545, Note_off_c, 0, 74, 0
1, 111545, Note_on_c, 0, 79, 36
1, 111545, Note_on_c, 0, 43, 35
1, 111545, Note_on_c, 0, 77, 31
1, 111641, Note_off_c, 0, 77, 0
1, 111641, Note_off_c, 0, 79, 0
1, 111641, Note_on_c, 0, 77, 36
1, 111737, Note_off_c, 0, 77, 0
1, 111737, Note_off_c, 0, 43, 0
1, 111737, Note_on_c, 0, 77, 36
1, 111737, Note_on_c, 0, 79, 33
1, 111833, Note_off_c, 0, 79, 0
1, 111833, Note_off_c, 0, 77, 0
1, 111833, Note_on_c, 0, 74, 38
1, 111833, Note_on_c, 0, 77, 33
1, 111929, Note_off_c, 0, 77, 0
1, 111929, Note_off_c, 0, 74, 0
1, 111929, Note_on_c, 0, 83, 38
1, 111929, Note_on_c, 0, 43, 35
1, 111929, Note_on_c, 0, 91, 25
1, 112025, Note_off_c, 0, 91, 0
1, 112025, Note_off_c, 0, 83, 0
1, 112025, Note_on_c, 0, 79, 38
1, 112025, Note_on_c, 0, 83, 33
1, 112121, Note_off_c, 0, 83, 0
1, 112121, Note_off_c, 0, 79, 0
1, 112121, Note_off_c, 0, 43, 0
1, 112121, Note_on_c, 0, 83, 36
1, 112121, Note_on_c, 0, 95, 25
1, 112217, Note_off_c, 0, 95, 0
1, 112217, Note_off_c, 0, 83, 0
1, 112217, Note_on_c, 0, 91, 36
1, 112217, Note_on_c, 0, 83, 33
1, 112313, Note_off_c, 0, 83, 0
1, 112313, Note_off_c, 0, 91, 0
1, 112313, Note_on_c, 0, 86, 36
1, 112313, Note_on_c, 0, 43, 35
1, 112313, Note_on_c, 0, 91, 20
1, 112409, Note_off_c, 0, 91, 0
1, 112409, Note_off_c, 0, 86, 0
1, 112409, Note_on_c, 0, 95, 36
1, 112409, Note_on_c, 0, 83, 28
1, 112505, Note_off_c, 0, 83, 0
1, 112505, Note_off_c, 0, 95, 0
1, 112505, Note_off_c, 0, 43, 0
1, 112505, Note_on_c, 0, 83, 36
1, 112505, Note_on_c, 0, 50, 36
1, 112505, Note_on_c, 0, 86, 28
1, 112601, Note_off_c, 0, 86, 0
1, 112601, Note_off_c, 0, 50, 0
1, 112601, Note_off_c, 0, 83, 0
1, 112601, Note_on_c, 0, 79, 36
1, 112601, Note_on_c, 0, 47, 36
1, 112601, Note_on_c, 0, 83, 28
1, 112697, Note_off_c, 0, 83, 0
1, 112697, Note_off_c, 0, 47, 0
1, 112697, Note_off_c, 0, 79, 0
1, 112697, Note_on_c, 0, 86, 36
1, 112697, Note_on_c, 0, 53, 36
1, 112697, Note_on_c, 0, 91, 25
1, 112793, Note_off_c, 0, 91, 0
1, 112793, Note_off_c, 0, 53, 0
1, 112793, Note_off_c, 0, 86, 0
1, 112793, Note_on_c, 0, 83, 36
1, 112793, Note_on_c, 0, 50, 36
1, 112793, Note_on_c, 0, 86, 28
1, 112889, Note_off_c, 0, 86, 0
1, 112889, Note_off_c, 0, 50, 0
1, 112889, Note_off_c, 0, 83, 0
1, 112889, Note_on_c, 0, 91, 36
1, 112889, Note_on_c, 0, 55, 36
1, 112985, Note_off_c, 0, 55, 0
1, 112985, Note_off_c, 0, 91, 0
1, 112985, Note_on_c, 0, 89, 36
1, 112985, Note_on_c, 0, 53, 36
1, 113081, Note_off_c, 0, 53, 0
1, 113081, Note_off_c, 0, 89, 0
1, 113081, Note_on_c, 0, 87, 36
1, 113081, Note_on_c, 0, 51, 36
1, 113177, Note_off_c, 0, 51, 0
1, 113177, Note_off_c, 0, 87, 0
1, 113177, Note_on_c, 0, 86, 36
1, 113177, Note_on_c, 0, 50, 36
1, 113273, Note_off_c, 0, 50, 0
1, 113273, Note_off_c, 0, 86, 0
1, 113273, Note_on_c, 0, 89, 36
1, 113273, Note_on_c, 0, 53, 36
1, 113369, Note_off_c, 0, 53, 0
1, 113369, Note_off_c, 0, 89, 0
1, 113369, Note_on_c, 0, 87, 36
1, 113369, Note_on_c, 0, 51, 36
1, 113465, Note_off_c, 0, 51, 0
1, 113465, Note_off_c, 0, 87, 0
1, 113465, Note_on_c, 0, 86, 36
1, 113465, Note_on_c, 0, 50, 36
1, 113561, Note_off_c, 0, 50, 0
1, 113561, Note_off_c, 0, 86, 0
1, 113561, Note_on_c, 0, 87, 38
1, 113561, Note_on_c, 0, 51, 36
1, 113657, Note_off_c, 0, 51, 0
1, 113657, Note_off_c, 0, 87, 0
1, 113657, Note_on_c, 0, 75, 35
1, 113657, Note_on_c, 0, 84, 36
1, 113657, Note_on_c, 0, 48, 31
1, 113849, Note_off_c, 0, 75, 0
1, 113849, Note_on_c, 0, 67, 36
1, 114041, Note_off_c, 0, 67, 0
1, 114041, Note_on_c, 0, 72, 36
1, 114041, Note_on_c, 0, 55, 31
1, 114233, Note_off_c, 0, 72, 0
1, 114233, Note_off_c, 0, 48, 0
1, 114233, Note_on_c, 0, 74, 36
1, 114233, Note_on_c, 0, 60, 31
1, 114425, Note_off_c, 0, 74, 0
1, 114425, Note_off_c, 0, 55, 0
1, 114425, Note_on_c, 0, 75, 36
1, 114617, Note_on_c, 0, 67, 36
1, 114809, Note_off_c, 0, 67, 0
1, 114809, Note_off_c, 0, 75, 0
1, 114809, Note_on_c, 0, 72, 36
1, 114809, Note_on_c, 0, 63, 31
1, 115001, Note_off_c, 0, 72, 0
1, 115001, Note_off_c, 0, 60, 0
1, 115001, Note_on_c, 0, 75, 36
1, 115193, Note_off_c, 0, 75, 0
1, 115193, Note_off_c, 0, 84, 0
1, 115193, Note_on_c, 0, 74, 36
1, 115193, Note_on_c, 0, 62, 31
1, 115385, Note_off_c, 0, 63, 0
1, 115385, Note_on_c, 0, 65, 36
1, 115577, Note_off_c, 0, 65, 0
1, 115577, Note_off_c, 0, 74, 0
1, 115577, Note_on_c, 0, 70, 36
1, 115769, Note_off_c, 0, 70, 0
1, 115769, Note_on_c, 0, 72, 36
1, 115769, Note_on_c, 0, 60, 31
1, 115961, Note_off_c, 0, 62, 0
1, 116153, Note_off_c, 0, 72, 0
1, 116153, Note_on_c, 0, 63, 36
1, 116345, Note_off_c, 0, 63, 0
1, 116345, Note_on_c, 0, 70, 36
1, 116345, Note_on_c, 0, 58, 31
1, 116537, Note_off_c, 0, 70, 0
1, 116537, Note_off_c, 0, 60, 0
1, 116537, Note_on_c, 0, 68, 36
1, 116537, Note_on_c, 0, 56, 31
1, 116729, Note_off_c, 0, 68, 0
1, 116729, Note_off_c, 0, 58, 0
1, 116729, Note_on_c, 0, 70, 36
1, 116921, Note_off_c, 0, 56, 0
1, 116921, Note_on_c, 0, 58, 36
1, 117113, Note_off_c, 0, 58, 0
1, 117113, Note_off_c, 0, 70, 0
1, 117113, Note_on_c, 0, 63, 36
1, 117305, Note_on_c, 0, 58, 36
1, 117497, Note_off_c, 0, 58, 0
1, 117497, Note_off_c, 0, 63, 0
1, 117497, Note_on_c, 0, 63, 36
1, 117497, Note_on_c, 0, 51, 31
1, 117497, Note_on_c, 0, 51, 31
1, 117689, Note_off_c, 0, 51, 0
1, 117689, Note_off_c, 0, 63, 0
1, 117689, Note_on_c, 0, 65, 36
1, 117689, Note_on_c, 0, 53, 31
1, 117881, Note_off_c, 0, 65, 0
1, 117881, Note_off_c, 0, 51, 0
1, 117881, Note_on_c, 0, 67, 36
1, 117881, Note_on_c, 0, 55, 31
1, 118073, Note_off_c, 0, 53, 0
1, 118073, Note_on_c, 0, 58, 36
1, 118265, Note_off_c, 0, 58, 0
1, 118265, Note_off_c, 0, 67, 0
1, 118265, Note_on_c, 0, 68, 36
1, 118457, Note_off_c, 0, 55, 0
1, 118457, Note_on_c, 0, 60, 36
1, 118649, Note_off_c, 0, 60, 0
1, 118649, Note_off_c, 0, 68, 0
1, 118649, Note_on_c, 0, 65, 36
1, 118841, Note_off_c, 0, 65, 0
1, 118841, Note_on_c, 0, 67, 36
1, 119225, Note_on_c, 0, 60, 36
1, 119417, Note_off_c, 0, 60, 0
1, 119417, Note_off_c, 0, 67, 0
1, 119417, Note_on_c, 0, 62, 36
1, 119417, Note_on_c, 0, 53, 31
1, 119609, Note_off_c, 0, 62, 0
1, 119609, Note_on_c, 0, 63, 36
1, 119609, Note_on_c, 0, 51, 31
1, 119801, Note_off_c, 0, 63, 0
1, 119801, Note_off_c, 0, 53, 0
1, 119801, Note_on_c, 0, 75, 36
1, 119801, Note_on_c, 0, 48, 31
1, 119801, Note_on_c, 0, 84, 28
1, 119993, Note_off_c, 0, 84, 0
1, 119993, Note_off_c, 0, 75, 0
1, 119993, Note_off_c, 0, 51, 0
1, 119993, Note_on_c, 0, 67, 36
1, 119993, Note_on_c, 0, 84, 28
1, 120089, Note_off_c, 0, 84, 0
1, 120185, Note_off_c, 0, 67, 0
1, 120185, Note_on_c, 0, 72, 36
1, 120185, Note_on_c, 0, 84, 28
1, 120377, Note_off_c, 0, 84, 0
1, 120377, Note_off_c, 0, 72, 0
1, 120377, Note_on_c, 0, 74, 36
1, 120377, Note_on_c, 0, 55, 31
1, 120377, Note_on_c, 0, 84, 28
1, 120569, Note_off_c, 0, 84, 0
1, 120569, Note_off_c, 0, 74, 0
1, 120569, Note_off_c, 0, 48, 0
1, 120569, Note_on_c, 0, 75, 36
1, 120569, Note_on_c, 0, 48, 31
1, 120569, Note_on_c, 0, 84, 28
1, 120761, Note_off_c, 0, 84, 0
1, 120761, Note_off_c, 0, 55, 0
1, 120761, Note_on_c, 0, 67, 36
1, 120761, Note_on_c, 0, 84, 28
1, 120857, Note_off_c, 0, 84, 0
1, 120953, Note_off_c, 0, 67, 0
1, 120953, Note_off_c, 0, 75, 0
1, 120953, Note_on_c, 0, 72, 36
1, 120953, Note_on_c, 0, 84, 28
1, 121145, Note_off_c, 0, 84, 0
1, 121145, Note_off_c, 0, 72, 0
1, 121145, Note_on_c, 0, 75, 36
1, 121145, Note_on_c, 0, 84, 28
1, 121337, Note_off_c, 0, 84, 0
1, 121337, Note_off_c, 0, 75, 0
1, 121337, Note_off_c, 0, 48, 0
1, 121337, Note_on_c, 0, 74, 36
1, 121337, Note_on_c, 0, 43, 31
1, 121337, Note_on_c, 0, 86, 28
1, 121529, Note_off_c, 0, 86, 0
1, 121529, Note_off_c, 0, 74, 0
1, 121529, Note_on_c, 0, 67, 36
1, 121529, Note_on_c, 0, 86, 28
1, 121625, Note_off_c, 0, 86, 0
1, 121721, Note_off_c, 0, 67, 0
1, 121721, Note_on_c, 0, 79, 36
1, 121721, Note_on_c, 0, 86, 28
1, 121913, Note_off_c, 0, 86, 0
1, 121913, Note_off_c, 0, 79, 0
1, 121913, Note_off_c, 0, 43, 0
1, 121913, Note_on_c, 0, 72, 36
1, 121913, Note_on_c, 0, 44, 31
1, 121913, Note_on_c, 0, 87, 28
1, 122297, Note_off_c, 0, 87, 0
1, 122297, Note_off_c, 0, 72, 0
1, 122297, Note_on_c, 0, 63, 36
1, 122297, Note_on_c, 0, 87, 28
1, 122393, Note_off_c, 0, 87, 0
1, 122489, Note_off_c, 0, 63, 0
1, 122489, Note_on_c, 0, 70, 36
1, 122489, Note_on_c, 0, 87, 28
1, 122681, Note_off_c, 0, 87, 0
1, 122681, Note_off_c, 0, 70, 0
1, 122681, Note_on_c, 0, 68, 36
1, 122681, Note_on_c, 0, 87, 28
1, 122777, Note_off_c, 0, 87, 0
1, 122873, Note_off_c, 0, 68, 0
1, 122873, Note_off_c, 0, 44, 0
1, 122873, Note_on_c, 0, 70, 36
1, 122873, Note_on_c, 0, 39, 31
1, 123065, Note_on_c, 0, 58, 36
1, 123065, Note_on_c, 0, 79, 28
1, 123161, Note_off_c, 0, 79, 0
1, 123161, Note_on_c, 0, 79, 28
1, 123257, Note_off_c, 0, 79, 0
1, 123257, Note_off_c, 0, 58, 0
1, 123257, Note_off_c, 0, 70, 0
1, 123257, Note_on_c, 0, 63, 36
1, 123449, Note_on_c, 0, 58, 36
1, 123449, Note_on_c, 0, 79, 28
1, 123545, Note_off_c, 0, 79, 0
1, 123641, Note_off_c, 0, 58, 0
1, 123641, Note_off_c, 0, 63, 0
1, 123641, Note_on_c, 0, 63, 36
1, 123833, Note_off_c, 0, 63, 0
1, 123833, Note_on_c, 0, 65, 36
1, 123833, Note_on_c, 0, 79, 28
1, 123929, Note_off_c, 0, 79, 0
1, 124025, Note_off_c, 0, 65, 0
1, 124025, Note_on_c, 0, 67, 36
1, 124217, Note_on_c, 0, 58, 36
1, 124409, Note_off_c, 0, 58, 0
1, 124409, Note_off_c, 0, 67, 0
1, 124409, Note_off_c, 0, 39, 0
1, 124409, Note_on_c, 0, 68, 36
1, 124409, Note_on_c, 0, 56, 31
1, 124409, Note_on_c, 0, 80, 28
1, 124505, Note_off_c, 0, 80, 0
1, 124601, Note_on_c, 0, 60, 36
1, 124793, Note_off_c, 0, 60, 0
1, 124793, Note_off_c, 0, 56, 0
1, 124793, Note_off_c, 0, 68, 0
1, 124793, Note_on_c, 0, 65, 36
1, 124793, Note_on_c, 0, 53, 31
1, 124793, Note_on_c, 0, 77, 28
1, 124889, Note_off_c, 0, 77, 0
1, 124985, Note_off_c, 0, 53, 0
1, 124985, Note_off_c, 0, 65, 0
1, 124985, Note_on_c, 0, 72, 36
1, 124985, Note_on_c, 0, 51, 31
1, 124985, Note_on_c, 0, 75, 28
1, 125369, Note_off_c, 0, 75, 0
1, 125369, Note_off_c, 0, 51, 0
1, 125369, Note_off_c, 0, 72, 0
1, 125369, Note_on_c, 0, 75, 36
1, 125369, Note_on_c, 0, 55, 31
1, 125369, Note_on_c, 0, 75, 28
1, 125465, Note_off_c, 0, 75, 0
1, 125561, Note_off_c, 0, 55, 0
1, 125561, Note_off_c, 0, 75, 0
1, 125561, Note_on_c, 0, 74, 36
1, 125561, Note_on_c, 0, 53, 31
1, 125561, Note_on_c, 0, 75, 28
1, 125657, Note_off_c, 0, 75, 0
1, 125753, Note_off_c, 0, 53, 0
1, 125753, Note_off_c, 0, 74, 0
1, 125753, Note_on_c, 0, 72, 36
1, 125753, Note_on_c, 0, 51, 31
1, 125753, Note_on_c, 0, 75, 28
1, 125849, Note_off_c, 0, 75, 0
1, 125945, Note_off_c, 0, 51, 0
1, 125945, Note_off_c, 0, 72, 0
1, 125945, Note_on_c, 0, 75, 36
1, 125945, Note_on_c, 0, 36, 28
1, 125945, Note_on_c, 0, 84, 28
1, 126041, Note_off_c, 0, 36, 0
1, 126137, Note_off_c, 0, 84, 0
1, 126137, Note_off_c, 0, 75, 0
1, 126137, Note_on_c, 0, 67, 36
1, 126137, Note_on_c, 0, 48, 33
1, 126137, Note_on_c, 0, 84, 28
1, 126233, Note_off_c, 0, 84, 0
1, 126329, Note_off_c, 0, 48, 0
1, 126329, Note_off_c, 0, 67, 0
1, 126329, Note_on_c, 0, 72, 36
1, 126329, Note_on_c, 0, 36, 28
1, 126329, Note_on_c, 0, 84, 28
1, 126425, Note_off_c, 0, 36, 0
1, 126521, Note_off_c, 0, 84, 0
1, 126521, Note_off_c, 0, 72, 0
1, 126521, Note_on_c, 0, 74, 36
1, 126521, Note_on_c, 0, 48, 33
1, 126521, Note_on_c, 0, 84, 28
1, 126617, Note_off_c, 0, 84, 0
1, 126713, Note_off_c, 0, 48, 0
1, 126713, Note_off_c, 0, 74, 0
1, 126713, Note_on_c, 0, 75, 36
1, 126713, Note_on_c, 0, 36, 28
1, 126713, Note_on_c, 0, 84, 28
1, 126809, Note_off_c, 0, 36, 0
1, 126905, Note_off_c, 0, 84, 0
1, 126905, Note_on_c, 0, 67, 36
1, 126905, Note_on_c, 0, 48, 33
1, 126905, Note_on_c, 0, 84, 28
1, 127001, Note_off_c, 0, 84, 0
1, 127097, Note_off_c, 0, 48, 0
1, 127097, Note_off_c, 0, 67, 0
1, 127097, Note_off_c, 0, 75, 0
1, 127097, Note_on_c, 0, 72, 36
1, 127097, Note_on_c, 0, 36, 28
1, 127097, Note_on_c, 0, 84, 28
1, 127193, Note_off_c, 0, 36, 0
1, 127289, Note_off_c, 0, 84, 0
1, 127289, Note_off_c, 0, 72, 0
1, 127289, Note_on_c, 0, 75, 36
1, 127289, Note_on_c, 0, 48, 33
1, 127289, Note_on_c, 0, 84, 28
1, 127385, Note_off_c, 0, 84, 0
1, 127481, Note_off_c, 0, 48, 0
1, 127481, Note_off_c, 0, 75, 0
1, 127481, Note_on_c, 0, 74, 36
1, 127481, Note_on_c, 0, 34, 28
1, 127481, Note_on_c, 0, 86, 28
1, 127577, Note_off_c, 0, 34, 0
1, 127673, Note_off_c, 0, 86, 0
1, 127673, Note_on_c, 0, 65, 36
1, 127673, Note_on_c, 0, 46, 33
1, 127673, Note_on_c, 0, 86, 28
1, 127769, Note_off_c, 0, 86, 0
1, 127865, Note_off_c, 0, 46, 0
1, 127865, Note_off_c, 0, 65, 0
1, 127865, Note_off_c, 0, 74, 0
1, 127865, Note_on_c, 0, 70, 36
1, 127865, Note_on_c, 0, 34, 28
1, 127865, Note_on_c, 0, 86, 28
1, 127961, Note_off_c, 0, 34, 0
1, 128057, Note_off_c, 0, 86, 0
1, 128057, Note_off_c, 0, 70, 0
1, 128057, Note_on_c, 0, 72, 36
1, 128057, Note_on_c, 0, 46, 33
1, 128057, Note_on_c, 0, 87, 28
1, 128249, Note_off_c, 0, 46, 0
1, 128249, Note_on_c, 0, 32, 28
1, 128345, Note_off_c, 0, 32, 0
1, 128441, Note_off_c, 0, 87, 0
1, 128441, Note_off_c, 0, 72, 0
1, 128441, Note_on_c, 0, 63, 36
1, 128441, Note_on_c, 0, 44, 33
1, 128441, Note_on_c, 0, 87, 28
1, 128537, Note_off_c, 0, 87, 0
1, 128633, Note_off_c, 0, 44, 0
1, 128633, Note_off_c, 0, 63, 0
1, 128633, Note_on_c, 0, 70, 36
1, 128633, Note_on_c, 0, 32, 28
1, 128633, Note_on_c, 0, 87, 28
1, 128729, Note_off_c, 0, 32, 0
1, 128825, Note_off_c, 0, 87, 0
1, 128825, Note_off_c, 0, 70, 0
1, 128825, Note_on_c, 0, 68, 36
1, 128825, Note_on_c, 0, 44, 33
1, 128825, Note_on_c, 0, 87, 28
1, 128921, Note_off_c, 0, 87, 0
1, 129017, Note_off_c, 0, 44, 0
1, 129017, Note_off_c, 0, 68, 0
1, 129017, Note_on_c, 0, 70, 36
1, 129017, Note_on_c, 0, 39, 28
1, 129017, Note_on_c, 0, 82, 28
1, 129113, Note_off_c, 0, 39, 0
1, 129209, Note_on_c, 0, 58, 36
1, 129209, Note_on_c, 0, 51, 33
1, 129401, Note_off_c, 0, 51, 0
1, 129401, Note_off_c, 0, 58, 0
1, 129401, Note_off_c, 0, 70, 0
1, 129401, Note_on_c, 0, 63, 36
1, 129401, Note_on_c, 0, 39, 28
1, 129497, Note_off_c, 0, 39, 0
1, 129593, Note_on_c, 0, 58, 36
1, 129593, Note_on_c, 0, 51, 33
1, 129785, Note_off_c, 0, 51, 0
1, 129785, Note_off_c, 0, 58, 0
1, 129785, Note_off_c, 0, 63, 0
1, 129785, Note_off_c, 0, 82, 0
1, 129785, Note_on_c, 0, 63, 36
1, 129785, Note_on_c, 0, 39, 28
1, 129785, Note_on_c, 0, 82, 28
1, 129881, Note_off_c, 0, 39, 0
1, 129977, Note_off_c, 0, 82, 0
1, 129977, Note_off_c, 0, 63, 0
1, 129977, Note_on_c, 0, 65, 36
1, 129977, Note_on_c, 0, 51, 33
1, 129977, Note_on_c, 0, 82, 28
1, 130073, Note_off_c, 0, 82, 0
1, 130169, Note_off_c, 0, 51, 0
1, 130169, Note_off_c, 0, 65, 0
1, 130169, Note_on_c, 0, 67, 36
1, 130169, Note_on_c, 0, 39, 28
1, 130169, Note_on_c, 0, 82, 28
1, 130265, Note_off_c, 0, 82, 0
1, 130265, Note_off_c, 0, 39, 0
1, 130361, Note_on_c, 0, 58, 36
1, 130361, Note_on_c, 0, 51, 33
1, 130361, Note_on_c, 0, 82, 28
1, 130457, Note_off_c, 0, 82, 0
1, 130553, Note_off_c, 0, 51, 0
1, 130553, Note_off_c, 0, 58, 0
1, 130553, Note_off_c, 0, 67, 0
1, 130553, Note_on_c, 0, 68, 36
1, 130553, Note_on_c, 0, 41, 28
1, 130553, Note_on_c, 0, 80, 28
1, 130649, Note_off_c, 0, 41, 0
1, 130745, Note_off_c, 0, 80, 0
1, 130745, Note_on_c, 0, 60, 36
1, 130745, Note_on_c, 0, 53, 33
1, 130745, Note_on_c, 0, 80, 28
1, 130841, Note_off_c, 0, 80, 0
1, 130937, Note_off_c, 0, 53, 0
1, 130937, Note_off_c, 0, 60, 0
1, 130937, Note_off_c, 0, 68, 0
1, 130937, Note_on_c, 0, 65, 36
1, 130937, Note_on_c, 0, 41, 28
1, 130937, Note_on_c, 0, 80, 28
1, 131033, Note_off_c, 0, 41, 0
1, 131129, Note_off_c, 0, 80, 0
1, 131129, Note_off_c, 0, 65, 0
1, 131129, Note_on_c, 0, 67, 36
1, 131129, Note_on_c, 0, 53, 33
1, 131129, Note_on_c, 0, 79, 28
1, 131321, Note_off_c, 0, 53, 0
1, 131321, Note_on_c, 0, 36, 28
1, 131417, Note_off_c, 0, 36, 0
1, 131513, Note_off_c, 0, 79, 0
1, 131513, Note_on_c, 0, 60, 36
1, 131513, Note_on_c, 0, 48, 33
1, 131513, Note_on_c, 0, 79, 28
1, 131609, Note_off_c, 0, 79, 0
1, 131705, Note_off_c, 0, 48, 0
1, 131705, Note_off_c, 0, 60, 0
1, 131705, Note_off_c, 0, 67, 0
1, 131705, Note_on_c, 0, 62, 36
1, 131705, Note_on_c, 0, 36, 28
1, 131705, Note_on_c, 0, 79, 28
1, 131801, Note_off_c, 0, 79, 0
1, 131801, Note_off_c, 0, 36, 0
1, 131897, Note_off_c, 0, 62, 0
1, 131897, Note_on_c, 0, 63, 36
1, 131897, Note_on_c, 0, 48, 33
1, 131897, Note_on_c, 0, 79, 28
1, 131993, Note_off_c, 0, 79, 0
1, 132089, Note_off_c, 0, 48, 0
1, 132089, Note_off_c, 0, 63, 0
1, 132089, Note_on_c, 0, 75, 36
1, 132089, Note_on_c, 0, 36, 28
1, 132089, Note_on_c, 0, 72, 35
1, 132089, Note_on_c, 0, 60, 35
1, 132185, Note_off_c, 0, 36, 0
1, 132281, Note_off_c, 0, 75, 0
1, 132281, Note_on_c, 0, 67, 36
1, 132281, Note_on_c, 0, 48, 33
1, 132473, Note_off_c, 0, 48, 0
1, 132473, Note_off_c, 0, 67, 0
1, 132473, Note_on_c, 0, 72, 36
1, 132473, Note_on_c, 0, 36, 28
1, 132569, Note_off_c, 0, 36, 0
1, 132665, Note_off_c, 0, 72, 0
1, 132665, Note_on_c, 0, 74, 36
1, 132665, Note_on_c, 0, 48, 33
1, 132857, Note_off_c, 0, 48, 0
1, 132857, Note_off_c, 0, 74, 0
1, 132857, Note_on_c, 0, 75, 36
1, 132857, Note_on_c, 0, 36, 28
1, 132953, Note_off_c, 0, 36, 0
1, 133049, Note_on_c, 0, 67, 36
1, 133049, Note_on_c, 0, 48, 33
1, 133241, Note_off_c, 0, 48, 0
1, 133241, Note_off_c, 0, 67, 0
1, 133241, Note_off_c, 0, 75, 0
1, 133241, Note_on_c, 0, 72, 36
1, 133241, Note_on_c, 0, 36, 28
1, 133337, Note_off_c, 0, 36, 0
1, 133433, Note_off_c, 0, 72, 0
1, 133433, Note_on_c, 0, 75, 36
1, 133433, Note_on_c, 0, 48, 33
1, 133625, Note_off_c, 0, 48, 0
1, 133625, Note_off_c, 0, 75, 0
1, 133625, Note_off_c, 0, 60, 0
1, 133625, Note_off_c, 0, 72, 0
1, 133625, Note_on_c, 0, 74, 36
1, 133625, Note_on_c, 0, 34, 28
1, 133625, Note_on_c, 0, 74, 35
1, 133625, Note_on_c, 0, 62, 35
1, 133721, Note_off_c, 0, 34, 0
1, 133817, Note_off_c, 0, 74, 0
1, 133817, Note_on_c, 0, 67, 36
1, 133817, Note_on_c, 0, 46, 33
1, 134009, Note_off_c, 0, 46, 0
1, 134009, Note_off_c, 0, 67, 0
1, 134009, Note_on_c, 0, 79, 36
1, 134009, Note_on_c, 0, 34, 28
1, 134105, Note_off_c, 0, 34, 0
1, 134201, Note_off_c, 0, 79, 0
1, 134201, Note_off_c, 0, 62, 0
1, 134201, Note_off_c, 0, 74, 0
1, 134201, Note_on_c, 0, 72, 36
1, 134201, Note_on_c, 0, 46, 33
1, 134201, Note_on_c, 0, 63, 35
1, 134201, Note_on_c, 0, 75, 35
1, 134393, Note_off_c, 0, 46, 0
1, 134393, Note_on_c, 0, 32, 28
1, 134489, Note_off_c, 0, 32, 0
1, 134585, Note_off_c, 0, 72, 0
1, 134585, Note_on_c, 0, 63, 36
1, 134585, Note_on_c, 0, 44, 33
1, 134777, Note_off_c, 0, 44, 0
1, 134777, Note_off_c, 0, 63, 0
1, 134777, Note_on_c, 0, 70, 36
1, 134777, Note_on_c, 0, 32, 28
1, 134873, Note_off_c, 0, 32, 0
1, 134969, Note_off_c, 0, 70, 0
1, 134969, Note_on_c, 0, 68, 36
1, 134969, Note_on_c, 0, 44, 33
1, 135161, Note_off_c, 0, 44, 0
1, 135161, Note_off_c, 0, 68, 0
1, 135161, Note_off_c, 0, 75, 0
1, 135161, Note_off_c, 0, 63, 0
1, 135161, Note_on_c, 0, 70, 36
1, 135161, Note_on_c, 0, 39, 28
1, 135161, Note_on_c, 0, 55, 33
1, 135161, Note_on_c, 0, 67, 33
1, 135161, Note_on_c, 0, 58, 33
1, 135257, Note_off_c, 0, 39, 0
1, 135353, Note_on_c, 0, 58, 36
1, 135353, Note_on_c, 0, 51, 33
1, 135545, Note_off_c, 0, 51, 0
1, 135545, Note_off_c, 0, 58, 0
1, 135545, Note_off_c, 0, 70, 0
1, 135545, Note_on_c, 0, 63, 36
1, 135545, Note_on_c, 0, 39, 28
1, 135641, Note_off_c, 0, 39, 0
1, 135737, Note_on_c, 0, 58, 36
1, 135737, Note_on_c, 0, 51, 33
1, 135929, Note_off_c, 0, 51, 0
1, 135929, Note_off_c, 0, 58, 0
1, 135929, Note_off_c, 0, 63, 0
1, 135929, Note_on_c, 0, 63, 36
1, 135929, Note_on_c, 0, 39, 28
1, 136025, Note_off_c, 0, 39, 0
1, 136121, Note_off_c, 0, 63, 0
1, 136121, Note_on_c, 0, 65, 36
1, 136121, Note_on_c, 0, 51, 33
1, 136313, Note_off_c, 0, 51, 0
1, 136313, Note_off_c, 0, 65, 0
1, 136313, Note_on_c, 0, 67, 36
1, 136313, Note_on_c, 0, 39, 28
1, 136409, Note_off_c, 0, 39, 0
1, 136505, Note_on_c, 0, 58, 36
1, 136505, Note_on_c, 0, 51, 33
1, 136697, Note_off_c, 0, 51, 0
1, 136697, Note_off_c, 0, 58, 0
1, 136697, Note_off_c, 0, 67, 0
1, 136697, Note_off_c, 0, 58, 0
1, 136697, Note_off_c, 0, 67, 0
1, 136697, Note_off_c, 0, 55, 0
1, 136697, Note_on_c, 0, 68, 36
1, 136697, Note_on_c, 0, 41, 28
1, 136697, Note_on_c, 0, 56, 36
1, 136793, Note_off_c, 0, 41, 0
1, 136889, Note_on_c, 0, 60, 36
1, 136889, Note_on_c, 0, 53, 33
1, 137081, Note_off_c, 0, 53, 0
1, 137081, Note_off_c, 0, 60, 0
1, 137081, Note_off_c, 0, 68, 0
1, 137081, Note_on_c, 0, 65, 36
1, 137081, Note_on_c, 0, 41, 28
1, 137177, Note_off_c, 0, 41, 0
1, 137273, Note_off_c, 0, 65, 0
1, 137273, Note_off_c, 0, 56, 0
1, 137273, Note_on_c, 0, 72, 36
1, 137273, Note_on_c, 0, 53, 33
1, 137273, Note_on_c, 0, 60, 36
1, 137465, Note_off_c, 0, 53, 0
1, 137465, Note_on_c, 0, 36, 28
1, 137561, Note_off_c, 0, 36, 0
1, 137657, Note_off_c, 0, 72, 0
1, 137657, Note_on_c, 0, 75, 36
1, 137657, Note_on_c, 0, 48, 33
1, 137849, Note_off_c, 0, 48, 0
1, 137849, Note_off_c, 0, 75, 0
1, 137849, Note_on_c, 0, 74, 36
1, 137849, Note_on_c, 0, 36, 28
1, 137945, Note_off_c, 0, 36, 0
1, 138041, Note_off_c, 0, 74, 0
1, 138041, Note_on_c, 0, 72, 36
1, 138041, Note_on_c, 0, 48, 33
1, 138233, Note_off_c, 0, 48, 0
1, 138233, Note_off_c, 0, 72, 0
1, 138233, Note_off_c, 0, 60, 0
1, 138233, Note_on_c, 0, 77, 36
1, 138233, Note_on_c, 0, 38, 30
1, 138233, Note_on_c, 0, 86, 28
1, 138329, Note_off_c, 0, 38, 0
1, 138425, Note_off_c, 0, 86, 0
1, 138425, Note_off_c, 0, 77, 0
1, 138425, Note_on_c, 0, 69, 36
1, 138425, Note_on_c, 0, 50, 35
1, 138425, Note_on_c, 0, 86, 28
1, 138521, Note_off_c, 0, 86, 0
1, 138617, Note_off_c, 0, 50, 0
1, 138617, Note_off_c, 0, 69, 0
1, 138617, Note_on_c, 0, 74, 36
1, 138617, Note_on_c, 0, 38, 30
1, 138617, Note_on_c, 0, 86, 28
1, 138713, Note_off_c, 0, 38, 0
1, 138809, Note_off_c, 0, 86, 0
1, 138809, Note_off_c, 0, 74, 0
1, 138809, Note_on_c, 0, 76, 36
1, 138809, Note_on_c, 0, 50, 35
1, 138809, Note_on_c, 0, 86, 28
1, 139001, Note_off_c, 0, 86, 0
1, 139001, Note_off_c, 0, 50, 0
1, 139001, Note_off_c, 0, 76, 0
1, 139001, Note_on_c, 0, 77, 36
1, 139001, Note_on_c, 0, 38, 30
1, 139001, Note_on_c, 0, 86, 28
1, 139097, Note_off_c, 0, 38, 0
1, 139193, Note_off_c, 0, 86, 0
1, 139193, Note_on_c, 0, 69, 36
1, 139193, Note_on_c, 0, 50, 35
1, 139193, Note_on_c, 0, 86, 28
1, 139289, Note_off_c, 0, 86, 0
1, 139385, Note_off_c, 0, 50, 0
1, 139385, Note_off_c, 0, 69, 0
1, 139385, Note_off_c, 0, 77, 0
1, 139385, Note_on_c, 0, 74, 36
1, 139385, Note_on_c, 0, 38, 30
1, 139385, Note_on_c, 0, 86, 28
1, 139481, Note_off_c, 0, 38, 0
1, 139577, Note_off_c, 0, 86, 0
1, 139577, Note_off_c, 0, 74, 0
1, 139577, Note_on_c, 0, 77, 36
1, 139577, Note_on_c, 0, 50, 35
1, 139577, Note_on_c, 0, 86, 28
1, 139769, Note_off_c, 0, 86, 0
1, 139769, Note_off_c, 0, 50, 0
1, 139769, Note_off_c, 0, 77, 0
1, 139769, Note_on_c, 0, 76, 36
1, 139769, Note_on_c, 0, 36, 30
1, 139769, Note_on_c, 0, 88, 28
1, 139865, Note_off_c, 0, 36, 0
1, 139961, Note_off_c, 0, 88, 0
1, 139961, Note_on_c, 0, 67, 36
1, 139961, Note_on_c, 0, 48, 35
1, 139961, Note_on_c, 0, 88, 28
1, 140057, Note_off_c, 0, 88, 0
1, 140153, Note_off_c, 0, 48, 0
1, 140153, Note_off_c, 0, 67, 0
1, 140153, Note_off_c, 0, 76, 0
1, 140153, Note_on_c, 0, 72, 36
1, 140153, Note_on_c, 0, 36, 30
1, 140153, Note_on_c, 0, 88, 28
1, 140249, Note_off_c, 0, 36, 0
1, 140345, Note_off_c, 0, 88, 0
1, 140345, Note_off_c, 0, 72, 0
1, 140345, Note_on_c, 0, 74, 36
1, 140345, Note_on_c, 0, 48, 35
1, 140345, Note_on_c, 0, 89, 28
1, 140537, Note_off_c, 0, 48, 0
1, 140537, Note_on_c, 0, 34, 30
1, 140633, Note_off_c, 0, 34, 0
1, 140729, Note_off_c, 0, 89, 0
1, 140729, Note_off_c, 0, 74, 0
1, 140729, Note_on_c, 0, 65, 36
1, 140729, Note_on_c, 0, 46, 35
1, 140729, Note_on_c, 0, 89, 28
1, 140825, Note_off_c, 0, 89, 0
1, 140921, Note_off_c, 0, 46, 0
1, 140921, Note_off_c, 0, 65, 0
1, 140921, Note_on_c, 0, 72, 36
1, 140921, Note_on_c, 0, 34, 30
1, 140921, Note_on_c, 0, 89, 28
1, 141017, Note_off_c, 0, 34, 0
1, 141113, Note_off_c, 0, 89, 0
1, 141113, Note_off_c, 0, 72, 0
1, 141113, Note_on_c, 0, 70, 36
1, 141113, Note_on_c, 0, 46, 35
1, 141113, Note_on_c, 0, 89, 28
1, 141209, Note_off_c, 0, 89, 0
1, 141305, Note_off_c, 0, 46, 0
1, 141305, Note_off_c, 0, 70, 0
1, 141305, Note_on_c, 0, 72, 36
1, 141305, Note_on_c, 0, 41, 30
1, 141305, Note_on_c, 0, 84, 28
1, 141401, Note_off_c, 0, 84, 0
1, 141401, Note_off_c, 0, 41, 0
1, 141401, Note_on_c, 0, 84, 28
1, 141497, Note_off_c, 0, 84, 0
1, 141497, Note_on_c, 0, 60, 36
1, 141497, Note_on_c, 0, 53, 35
1, 141497, Note_on_c, 0, 84, 28
1, 141593, Note_off_c, 0, 84, 0
1, 141593, Note_on_c, 0, 84, 28
1, 141689, Note_off_c, 0, 84, 0
1, 141689, Note_off_c, 0, 53, 0
1, 141689, Note_off_c, 0, 60, 0
1, 141689, Note_off_c, 0, 72, 0
1, 141689, Note_on_c, 0, 65, 36
1, 141689, Note_on_c, 0, 41, 30
1, 141689, Note_on_c, 0, 84, 25
1, 141785, Note_off_c, 0, 41, 0
1, 141881, Note_off_c, 0, 84, 0
1, 141881, Note_on_c, 0, 60, 36
1, 141881, Note_on_c, 0, 53, 35
1, 141881, Note_on_c, 0, 84, 25
1, 141977, Note_off_c, 0, 84, 0
1, 142073, Note_off_c, 0, 53, 0
1, 142073, Note_off_c, 0, 60, 0
1, 142073, Note_off_c, 0, 65, 0
1, 142073, Note_on_c, 0, 65, 36
1, 142073, Note_on_c, 0, 41, 30
1, 142073, Note_on_c, 0, 84, 27
1, 142169, Note_off_c, 0, 41, 0
1, 142265, Note_off_c, 0, 84, 0
1, 142265, Note_off_c, 0, 65, 0
1, 142265, Note_on_c, 0, 67, 36
1, 142265, Note_on_c, 0, 53, 35
1, 142265, Note_on_c, 0, 84, 27
1, 142361, Note_off_c, 0, 84, 0
1, 142457, Note_off_c, 0, 53, 0
1, 142457, Note_off_c, 0, 67, 0
1, 142457, Note_on_c, 0, 69, 36
1, 142457, Note_on_c, 0, 41, 30
1, 142457, Note_on_c, 0, 84, 27
1, 142553, Note_off_c, 0, 41, 0
1, 142649, Note_off_c, 0, 84, 0
1, 142649, Note_on_c, 0, 60, 36
1, 142649, Note_on_c, 0, 53, 35
1, 142649, Note_on_c, 0, 84, 27
1, 142745, Note_off_c, 0, 84, 0
1, 142841, Note_off_c, 0, 53, 0
1, 142841, Note_off_c, 0, 60, 0
1, 142841, Note_off_c, 0, 69, 0
1, 142841, Note_on_c, 0, 70, 36
1, 142841, Note_on_c, 0, 43, 30
1, 142841, Note_on_c, 0, 82, 27
1, 142937, Note_off_c, 0, 43, 0
1, 143033, Note_off_c, 0, 82, 0
1, 143033, Note_on_c, 0, 62, 36
1, 143033, Note_on_c, 0, 55, 35
1, 143033, Note_on_c, 0, 82, 27
1, 143129, Note_off_c, 0, 82, 0
1, 143225, Note_off_c, 0, 55, 0
1, 143225, Note_off_c, 0, 62, 0
1, 143225, Note_off_c, 0, 70, 0
1, 143225, Note_on_c, 0, 67, 36
1, 143225, Note_on_c, 0, 43, 30
1, 143225, Note_on_c, 0, 82, 27
1, 143321, Note_off_c, 0, 43, 0
1, 143417, Note_off_c, 0, 82, 0
1, 143417, Note_off_c, 0, 67, 0
1, 143417, Note_on_c, 0, 69, 36
1, 143417, Note_on_c, 0, 55, 35
1, 143417, Note_on_c, 0, 81, 27
1, 143609, Note_off_c, 0, 81, 0
1, 143609, Note_off_c, 0, 55, 0
1, 143609, Note_on_c, 0, 38, 30
1, 143705, Note_off_c, 0, 38, 0
1, 143801, Note_on_c, 0, 62, 36
1, 143801, Note_on_c, 0, 50, 35
1, 143801, Note_on_c, 0, 81, 28
1, 143897, Note_off_c, 0, 81, 0
1, 143993, Note_off_c, 0, 50, 0
1, 143993, Note_off_c, 0, 62, 0
1, 143993, Note_off_c, 0, 69, 0
1, 143993, Note_on_c, 0, 64, 36
1, 143993, Note_on_c, 0, 38, 30
1, 143993, Note_on_c, 0, 81, 28
1, 144089, Note_off_c, 0, 81, 0
1, 144089, Note_off_c, 0, 38, 0
1, 144185, Note_off_c, 0, 64, 0
1, 144185, Note_on_c, 0, 65, 36
1, 144185, Note_on_c, 0, 50, 35
1, 144185, Note_on_c, 0, 81, 28
1, 144281, Note_off_c, 0, 81, 0
1, 144377, Note_off_c, 0, 50, 0
1, 144377, Note_off_c, 0, 65, 0
1, 144377, Note_on_c, 0, 77, 36
1, 144377, Note_on_c, 0, 38, 30
1, 144377, Note_on_c, 0, 86, 28
1, 144473, Note_off_c, 0, 38, 0
1, 144569, Note_off_c, 0, 86, 0
1, 144569, Note_off_c, 0, 77, 0
1, 144569, Note_on_c, 0, 69, 36
1, 144569, Note_on_c, 0, 50, 35
1, 144569, Note_on_c, 0, 86, 28
1, 144665, Note_off_c, 0, 86, 0
1, 144761, Note_off_c, 0, 50, 0
1, 144761, Note_off_c, 0, 69, 0
1, 144761, Note_on_c, 0, 74, 36
1, 144761, Note_on_c, 0, 38, 30
1, 144761, Note_on_c, 0, 86, 28
1, 144857, Note_off_c, 0, 38, 0
1, 144953, Note_off_c, 0, 86, 0
1, 144953, Note_off_c, 0, 74, 0
1, 144953, Note_on_c, 0, 76, 36
1, 144953, Note_on_c, 0, 50, 35
1, 144953, Note_on_c, 0, 86, 28
1, 145049, Note_off_c, 0, 86, 0
1, 145145, Note_off_c, 0, 50, 0
1, 145145, Note_off_c, 0, 76, 0
1, 145145, Note_on_c, 0, 77, 36
1, 145145, Note_on_c, 0, 38, 30
1, 145145, Note_on_c, 0, 86, 28
1, 145241, Note_off_c, 0, 38, 0
1, 145337, Note_off_c, 0, 86, 0
1, 145337, Note_on_c, 0, 69, 36
1, 145337, Note_on_c, 0, 50, 35
1, 145337, Note_on_c, 0, 86, 28
1, 145433, Note_off_c, 0, 86, 0
1, 145529, Note_off_c, 0, 50, 0
1, 145529, Note_off_c, 0, 69, 0
1, 145529, Note_off_c, 0, 77, 0
1, 145529, Note_on_c, 0, 74, 36
1, 145529, Note_on_c, 0, 38, 30
1, 145529, Note_on_c, 0, 86, 28
1, 145625, Note_off_c, 0, 38, 0
1, 145721, Note_off_c, 0, 86, 0
1, 145721, Note_off_c, 0, 74, 0
1, 145721, Note_on_c, 0, 77, 36
1, 145721, Note_on_c, 0, 50, 35
1, 145721, Note_on_c, 0, 86, 28
1, 145913, Note_off_c, 0, 86, 0
1, 145913, Note_off_c, 0, 50, 0
1, 145913, Note_off_c, 0, 77, 0
1, 145913, Note_on_c, 0, 76, 36
1, 145913, Note_on_c, 0, 33, 30
1, 145913, Note_on_c, 0, 88, 28
1, 146009, Note_off_c, 0, 33, 0
1, 146105, Note_off_c, 0, 88, 0
1, 146105, Note_off_c, 0, 76, 0
1, 146105, Note_on_c, 0, 69, 36
1, 146105, Note_on_c, 0, 45, 35
1, 146105, Note_on_c, 0, 88, 28
1, 146201, Note_off_c, 0, 88, 0
1, 146297, Note_off_c, 0, 45, 0
1, 146297, Note_off_c, 0, 69, 0
1, 146297, Note_on_c, 0, 81, 36
1, 146297, Note_on_c, 0, 33, 30
1, 146297, Note_on_c, 0, 88, 28
1, 146393, Note_off_c, 0, 33, 0
1, 146489, Note_off_c, 0, 88, 0
1, 146489, Note_off_c, 0, 81, 0
1, 146489, Note_on_c, 0, 74, 36
1, 146489, Note_on_c, 0, 45, 35
1, 146489, Note_on_c, 0, 89, 28
1, 146681, Note_off_c, 0, 45, 0
1, 146681, Note_on_c, 0, 34, 30
1, 146777, Note_off_c, 0, 34, 0
1, 146873, Note_off_c, 0, 89, 0
1, 146873, Note_off_c, 0, 74, 0
1, 146873, Note_on_c, 0, 65, 36
1, 146873, Note_on_c, 0, 46, 35
1, 146873, Note_on_c, 0, 89, 28
1, 146969, Note_off_c, 0, 89, 0
1, 147065, Note_off_c, 0, 46, 0
1, 147065, Note_off_c, 0, 65, 0
1, 147065, Note_on_c, 0, 72, 36
1, 147065, Note_on_c, 0, 34, 30
1, 147065, Note_on_c, 0, 89, 28
1, 147161, Note_off_c, 0, 34, 0
1, 147257, Note_off_c, 0, 89, 0
1, 147257, Note_off_c, 0, 72, 0
1, 147257, Note_on_c, 0, 70, 36
1, 147257, Note_on_c, 0, 46, 35
1, 147257, Note_on_c, 0, 89, 28
1, 147353, Note_off_c, 0, 89, 0
1, 147449, Note_off_c, 0, 46, 0
1, 147449, Note_off_c, 0, 70, 0
1, 147449, Note_on_c, 0, 72, 36
1, 147449, Note_on_c, 0, 41, 30
1, 147449, Note_on_c, 0, 81, 28
1, 147545, Note_off_c, 0, 81, 0
1, 147545, Note_off_c, 0, 41, 0
1, 147641, Note_on_c, 0, 60, 36
1, 147641, Note_on_c, 0, 53, 35
1, 147833, Note_off_c, 0, 53, 0
1, 147833, Note_off_c, 0, 60, 0
1, 147833, Note_off_c, 0, 72, 0
1, 147833, Note_on_c, 0, 65, 36
1, 147833, Note_on_c, 0, 41, 30
1, 147833, Note_on_c, 0, 81, 27
1, 147929, Note_off_c, 0, 41, 0
1, 148025, Note_off_c, 0, 81, 0
1, 148025, Note_on_c, 0, 60, 36
1, 148025, Note_on_c, 0, 53, 35
1, 148025, Note_on_c, 0, 81, 27
1, 148121, Note_off_c, 0, 81, 0
1, 148217, Note_off_c, 0, 53, 0
1, 148217, Note_off_c, 0, 60, 0
1, 148217, Note_off_c, 0, 65, 0
1, 148217, Note_on_c, 0, 65, 36
1, 148217, Note_on_c, 0, 41, 30
1, 148217, Note_on_c, 0, 81, 28
1, 148313, Note_off_c, 0, 41, 0
1, 148409, Note_off_c, 0, 81, 0
1, 148409, Note_off_c, 0, 65, 0
1, 148409, Note_on_c, 0, 67, 36
1, 148409, Note_on_c, 0, 53, 35
1, 148409, Note_on_c, 0, 81, 28
1, 148505, Note_off_c, 0, 81, 0
1, 148601, Note_off_c, 0, 53, 0
1, 148601, Note_off_c, 0, 67, 0
1, 148601, Note_on_c, 0, 69, 36
1, 148601, Note_on_c, 0, 41, 30
1, 148601, Note_on_c, 0, 81, 28
1, 148697, Note_off_c, 0, 41, 0
1, 148793, Note_off_c, 0, 81, 0
1, 148793, Note_on_c, 0, 60, 36
1, 148793, Note_on_c, 0, 53, 35
1, 148793, Note_on_c, 0, 81, 28
1, 148889, Note_off_c, 0, 81, 0
1, 148985, Note_off_c, 0, 53, 0
1, 148985, Note_off_c, 0, 60, 0
1, 148985, Note_off_c, 0, 69, 0
1, 148985, Note_on_c, 0, 70, 36
1, 148985, Note_on_c, 0, 43, 30
1, 148985, Note_on_c, 0, 82, 28
1, 149081, Note_off_c, 0, 43, 0
1, 149177, Note_off_c, 0, 82, 0
1, 149177, Note_on_c, 0, 62, 36
1, 149177, Note_on_c, 0, 55, 35
1, 149177, Note_on_c, 0, 79, 28
1, 149273, Note_off_c, 0, 79, 0
1, 149369, Note_off_c, 0, 55, 0
1, 149369, Note_off_c, 0, 62, 0
1, 149369, Note_off_c, 0, 70, 0
1, 149369, Note_on_c, 0, 67, 36
1, 149369, Note_on_c, 0, 43, 30
1, 149369, Note_on_c, 0, 79, 28
1, 149465, Note_off_c, 0, 43, 0
1, 149561, Note_off_c, 0, 79, 0
1, 149561, Note_off_c, 0, 67, 0
1, 149561, Note_on_c, 0, 74, 36
1, 149561, Note_on_c, 0, 55, 35
1, 149561, Note_on_c, 0, 86, 28
1, 149753, Note_off_c, 0, 86, 0
1, 149753, Note_off_c, 0, 55, 0
1, 149753, Note_on_c, 0, 38, 30
1, 149849, Note_off_c, 0, 38, 0
1, 149945, Note_off_c, 0, 74, 0
1, 149945, Note_on_c, 0, 77, 36
1, 149945, Note_on_c, 0, 50, 35
1, 149945, Note_on_c, 0, 86, 30
1, 150041, Note_off_c, 0, 86, 0
1, 150137, Note_off_c, 0, 50, 0
1, 150137, Note_off_c, 0, 77, 0
1, 150137, Note_on_c, 0, 76, 36
1, 150137, Note_on_c, 0, 38, 30
1, 150137, Note_on_c, 0, 86, 30
1, 150233, Note_off_c, 0, 86, 0
1, 150233, Note_off_c, 0, 38, 0
1, 150329, Note_off_c, 0, 76, 0
1, 150329, Note_on_c, 0, 74, 36
1, 150329, Note_on_c, 0, 50, 35
1, 150329, Note_on_c, 0, 86, 30
1, 150425, Note_off_c, 0, 86, 0
1, 150521, Note_off_c, 0, 50, 0
1, 150521, Note_off_c, 0, 74, 0
1, 150521, Note_on_c, 0, 77, 36
1, 150521, Note_on_c, 0, 38, 28
1, 150521, Note_on_c, 0, 86, 31
1, 150617, Note_off_c, 0, 38, 0
1, 150713, Note_off_c, 0, 86, 0
1, 150713, Note_off_c, 0, 77, 0
1, 150713, Note_on_c, 0, 69, 36
1, 150713, Note_on_c, 0, 50, 33
1, 150713, Note_on_c, 0, 86, 31
1, 150809, Note_off_c, 0, 86, 0
1, 150905, Note_off_c, 0, 50, 0
1, 150905, Note_off_c, 0, 69, 0
1, 150905, Note_on_c, 0, 74, 36
1, 150905, Note_on_c, 0, 38, 28
1, 150905, Note_on_c, 0, 86, 31
1, 151001, Note_off_c, 0, 38, 0
1, 151097, Note_off_c, 0, 86, 0
1, 151097, Note_off_c, 0, 74, 0
1, 151097, Note_on_c, 0, 76, 36
1, 151097, Note_on_c, 0, 50, 33
1, 151097, Note_on_c, 0, 86, 31
1, 151289, Note_off_c, 0, 86, 0
1, 151289, Note_off_c, 0, 50, 0
1, 151289, Note_off_c, 0, 76, 0
1, 151289, Note_on_c, 0, 77, 36
1, 151289, Note_on_c, 0, 38, 28
1, 151289, Note_on_c, 0, 86, 31
1, 151385, Note_off_c, 0, 38, 0
1, 151481, Note_off_c, 0, 86, 0
1, 151481, Note_on_c, 0, 69, 36
1, 151481, Note_on_c, 0, 50, 33
1, 151481, Note_on_c, 0, 86, 31
1, 151577, Note_off_c, 0, 86, 0
1, 151673, Note_off_c, 0, 50, 0
1, 151673, Note_off_c, 0, 69, 0
1, 151673, Note_off_c, 0, 77, 0
1, 151673, Note_on_c, 0, 74, 36
1, 151673, Note_on_c, 0, 38, 28
1, 151673, Note_on_c, 0, 86, 31
1, 151769, Note_off_c, 0, 38, 0
1, 151865, Note_off_c, 0, 86, 0
1, 151865, Note_off_c, 0, 74, 0
1, 151865, Note_on_c, 0, 77, 36
1, 151865, Note_on_c, 0, 50, 33
1, 151865, Note_on_c, 0, 86, 31
1, 152057, Note_off_c, 0, 86, 0
1, 152057, Note_off_c, 0, 50, 0
1, 152057, Note_off_c, 0, 77, 0
1, 152057, Note_on_c, 0, 76, 36
1, 152057, Note_on_c, 0, 36, 28
1, 152057, Note_on_c, 0, 88, 31
1, 152153, Note_off_c, 0, 36, 0
1, 152249, Note_off_c, 0, 88, 0
1, 152249, Note_on_c, 0, 67, 36
1, 152249, Note_on_c, 0, 48, 33
1, 152249, Note_on_c, 0, 88, 31
1, 152345, Note_off_c, 0, 88, 0
1, 152441, Note_off_c, 0, 48, 0
1, 152441, Note_off_c, 0, 67, 0
1, 152441, Note_off_c, 0, 76, 0
1, 152441, Note_on_c, 0, 72, 36
1, 152441, Note_on_c, 0, 36, 28
1, 152441, Note_on_c, 0, 88, 31
1, 152537, Note_off_c, 0, 36, 0
1, 152633, Note_off_c, 0, 88, 0
1, 152633, Note_off_c, 0, 72, 0
1, 152633, Note_on_c, 0, 74, 36
1, 152633, Note_on_c, 0, 48, 33
1, 152633, Note_on_c, 0, 89, 31
1, 152825, Note_off_c, 0, 48, 0
1, 152825, Note_on_c, 0, 34, 28
1, 152921, Note_off_c, 0, 34, 0
1, 153017, Note_off_c, 0, 89, 0
1, 153017, Note_off_c, 0, 74, 0
1, 153017, Note_on_c, 0, 65, 36
1, 153017, Note_on_c, 0, 46, 33
1, 153017, Note_on_c, 0, 89, 31
1, 153113, Note_off_c, 0, 89, 0
1, 153209, Note_off_c, 0, 46, 0
1, 153209, Note_off_c, 0, 65, 0
1, 153209, Note_on_c, 0, 72, 36
1, 153209, Note_on_c, 0, 34, 28
1, 153209, Note_on_c, 0, 89, 31
1, 153305, Note_off_c, 0, 34, 0
1, 153401, Note_off_c, 0, 89, 0
1, 153401, Note_off_c, 0, 72, 0
1, 153401, Note_on_c, 0, 70, 36
1, 153401, Note_on_c, 0, 46, 33
1, 153401, Note_on_c, 0, 89, 31
1, 153497, Note_off_c, 0, 89, 0
1, 153593, Note_off_c, 0, 46, 0
1, 153593, Note_off_c, 0, 70, 0
1, 153593, Note_on_c, 0, 72, 36
1, 153593, Note_on_c, 0, 41, 28
1, 153593, Note_on_c, 0, 84, 31
1, 153689, Note_off_c, 0, 84, 0
1, 153689, Note_off_c, 0, 41, 0
1, 153689, Note_on_c, 0, 84, 31
1, 153785, Note_off_c, 0, 84, 0
1, 153785, Note_on_c, 0, 60, 36
1, 153785, Note_on_c, 0, 53, 33
1, 153785, Note_on_c, 0, 84, 31
1, 153881, Note_off_c, 0, 84, 0
1, 153881, Note_on_c, 0, 84, 31
1, 153977, Note_off_c, 0, 84, 0
1, 153977, Note_off_c, 0, 53, 0
1, 153977, Note_off_c, 0, 60, 0
1, 153977, Note_off_c, 0, 72, 0
1, 153977, Note_on_c, 0, 65, 36
1, 153977, Note_on_c, 0, 41, 28
1, 153977, Note_on_c, 0, 84, 28
1, 154073, Note_off_c, 0, 41, 0
1, 154169, Note_off_c, 0, 84, 0
1, 154169, Note_on_c, 0, 60, 36
1, 154169, Note_on_c, 0, 53, 33
1, 154169, Note_on_c, 0, 84, 28
1, 154265, Note_off_c, 0, 84, 0
1, 154361, Note_off_c, 0, 53, 0
1, 154361, Note_off_c, 0, 60, 0
1, 154361, Note_off_c, 0, 65, 0
1, 154361, Note_on_c, 0, 65, 36
1, 154361, Note_on_c, 0, 41, 28
1, 154361, Note_on_c, 0, 84, 30
1, 154457, Note_off_c, 0, 41, 0
1, 154553, Note_off_c, 0, 84, 0
1, 154553, Note_off_c, 0, 65, 0
1, 154553, Note_on_c, 0, 67, 36
1, 154553, Note_on_c, 0, 53, 33
1, 154553, Note_on_c, 0, 84, 30
1, 154649, Note_off_c, 0, 84, 0
1, 154745, Note_off_c, 0, 53, 0
1, 154745, Note_off_c, 0, 67, 0
1, 154745, Note_on_c, 0, 69, 36
1, 154745, Note_on_c, 0, 41, 28
1, 154745, Note_on_c, 0, 84, 30
1, 154841, Note_off_c, 0, 41, 0
1, 154937, Note_off_c, 0, 84, 0
1, 154937, Note_on_c, 0, 60, 36
1, 154937, Note_on_c, 0, 53, 33
1, 154937, Note_on_c, 0, 84, 30
1, 155033, Note_off_c, 0, 84, 0
1, 155129, Note_off_c, 0, 53, 0
1, 155129, Note_off_c, 0, 60, 0
1, 155129, Note_off_c, 0, 69, 0
1, 155129, Note_on_c, 0, 70, 36
1, 155129, Note_on_c, 0, 43, 28
1, 155129, Note_on_c, 0, 82, 30
1, 155225, Note_off_c, 0, 43, 0
1, 155321, Note_off_c, 0, 82, 0
1, 155321, Note_on_c, 0, 62, 36
1, 155321, Note_on_c, 0, 55, 33
1, 155321, Note_on_c, 0, 82, 30
1, 155417, Note_off_c, 0, 82, 0
1, 155513, Note_off_c, 0, 55, 0
1, 155513, Note_off_c, 0, 62, 0
1, 155513, Note_off_c, 0, 70, 0
1, 155513, Note_on_c, 0, 67, 36
1, 155513, Note_on_c, 0, 43, 28
1, 155513, Note_on_c, 0, 82, 30
1, 155609, Note_off_c, 0, 43, 0
1, 155705, Note_off_c, 0, 82, 0
1, 155705, Note_off_c, 0, 67, 0
1, 155705, Note_on_c, 0, 69, 36
1, 155705, Note_on_c, 0, 55, 33
1, 155705, Note_on_c, 0, 81, 30
1, 155897, Note_off_c, 0, 81, 0
1, 155897, Note_off_c, 0, 55, 0
1, 155897, Note_on_c, 0, 38, 28
1, 155993, Note_off_c, 0, 38, 0
1, 156089, Note_on_c, 0, 62, 36
1, 156089, Note_on_c, 0, 50, 33
1, 156089, Note_on_c, 0, 81, 31
1, 156185, Note_off_c, 0, 81, 0
1, 156281, Note_off_c, 0, 50, 0
1, 156281, Note_off_c, 0, 62, 0
1, 156281, Note_off_c, 0, 69, 0
1, 156281, Note_on_c, 0, 64, 36
1, 156281, Note_on_c, 0, 38, 28
1, 156281, Note_on_c, 0, 81, 31
1, 156377, Note_off_c, 0, 81, 0
1, 156377, Note_off_c, 0, 38, 0
1, 156473, Note_off_c, 0, 64, 0
1, 156473, Note_on_c, 0, 65, 36
1, 156473, Note_on_c, 0, 50, 33
1, 156473, Note_on_c, 0, 81, 31
1, 156569, Note_off_c, 0, 81, 0
1, 156665, Note_off_c, 0, 50, 0
1, 156665, Note_off_c, 0, 65, 0
1, 156665, Note_on_c, 0, 77, 36
1, 156665, Note_on_c, 0, 38, 28
1, 156665, Note_on_c, 0, 86, 31
1, 156761, Note_off_c, 0, 38, 0
1, 156857, Note_off_c, 0, 86, 0
1, 156857, Note_off_c, 0, 77, 0
1, 156857, Note_on_c, 0, 69, 36
1, 156857, Note_on_c, 0, 50, 33
1, 156857, Note_on_c, 0, 86, 31
1, 156953, Note_off_c, 0, 86, 0
1, 157049, Note_off_c, 0, 50, 0
1, 157049, Note_off_c, 0, 69, 0
1, 157049, Note_on_c, 0, 74, 36
1, 157049, Note_on_c, 0, 38, 28
1, 157049, Note_on_c, 0, 86, 31
1, 157145, Note_off_c, 0, 38, 0
1, 157241, Note_off_c, 0, 86, 0
1, 157241, Note_off_c, 0, 74, 0
1, 157241, Note_on_c, 0, 76, 36
1, 157241, Note_on_c, 0, 50, 33
1, 157241, Note_on_c, 0, 86, 31
1, 157337, Note_off_c, 0, 86, 0
1, 157433, Note_off_c, 0, 50, 0
1, 157433, Note_off_c, 0, 76, 0
1, 157433, Note_on_c, 0, 77, 36
1, 157433, Note_on_c, 0, 38, 28
1, 157433, Note_on_c, 0, 86, 31
1, 157529, Note_off_c, 0, 38, 0
1, 157625, Note_off_c, 0, 86, 0
1, 157625, Note_on_c, 0, 69, 36
1, 157625, Note_on_c, 0, 50, 33
1, 157625, Note_on_c, 0, 86, 31
1, 157721, Note_off_c, 0, 86, 0
1, 157817, Note_off_c, 0, 50, 0
1, 157817, Note_off_c, 0, 69, 0
1, 157817, Note_off_c, 0, 77, 0
1, 157817, Note_on_c, 0, 74, 36
1, 157817, Note_on_c, 0, 38, 28
1, 157817, Note_on_c, 0, 86, 31
1, 157913, Note_off_c, 0, 38, 0
1, 158009, Note_off_c, 0, 86, 0
1, 158009, Note_off_c, 0, 74, 0
1, 158009, Note_on_c, 0, 77, 36
1, 158009, Note_on_c, 0, 50, 33
1, 158009, Note_on_c, 0, 86, 31
1, 158201, Note_off_c, 0, 86, 0
1, 158201, Note_off_c, 0, 50, 0
1, 158201, Note_off_c, 0, 77, 0
1, 158201, Note_on_c, 0, 76, 36
1, 158201, Note_on_c, 0, 33, 28
1, 158201, Note_on_c, 0, 88, 31
1, 158297, Note_off_c, 0, 33, 0
1, 158393, Note_off_c, 0, 88, 0
1, 158393, Note_off_c, 0, 76, 0
1, 158393, Note_on_c, 0, 69, 36
1, 158393, Note_on_c, 0, 45, 33
1, 158393, Note_on_c, 0, 88, 31
1, 158489, Note_off_c, 0, 88, 0
1, 158585, Note_off_c, 0, 45, 0
1, 158585, Note_off_c, 0, 69, 0
1, 158585, Note_on_c, 0, 81, 36
1, 158585, Note_on_c, 0, 33, 28
1, 158585, Note_on_c, 0, 88, 31
1, 158681, Note_off_c, 0, 33, 0
1, 158777, Note_off_c, 0, 88, 0
1, 158777, Note_off_c, 0, 81, 0
1, 158777, Note_on_c, 0, 74, 36
1, 158777, Note_on_c, 0, 45, 33
1, 158777, Note_on_c, 0, 89, 31
1, 158969, Note_off_c, 0, 45, 0
1, 158969, Note_on_c, 0, 34, 28
1, 159065, Note_off_c, 0, 34, 0
1, 159161, Note_off_c, 0, 89, 0
1, 159161, Note_off_c, 0, 74, 0
1, 159161, Note_on_c, 0, 65, 36
1, 159161, Note_on_c, 0, 46, 33
1, 159161, Note_on_c, 0, 89, 31
1, 159257, Note_off_c, 0, 89, 0
1, 159353, Note_off_c, 0, 46, 0
1, 159353, Note_off_c, 0, 65, 0
1, 159353, Note_on_c, 0, 72, 36
1, 159353, Note_on_c, 0, 34, 28
1, 159353, Note_on_c, 0, 89, 31
1, 159449, Note_off_c, 0, 34, 0
1, 159545, Note_off_c, 0, 89, 0
1, 159545, Note_off_c, 0, 72, 0
1, 159545, Note_on_c, 0, 70, 36
1, 159545, Note_on_c, 0, 46, 33
1, 159545, Note_on_c, 0, 89, 31
1, 159641, Note_off_c, 0, 89, 0
1, 159737, Note_off_c, 0, 46, 0
1, 159737, Note_off_c, 0, 70, 0
1, 159737, Note_on_c, 0, 72, 36
1, 159737, Note_on_c, 0, 41, 28
1, 159737, Note_on_c, 0, 81, 31
1, 159833, Note_off_c, 0, 81, 0
1, 159833, Note_off_c, 0, 41, 0
1, 159929, Note_on_c, 0, 60, 36
1, 159929, Note_on_c, 0, 53, 33
1, 160121, Note_off_c, 0, 53, 0
1, 160121, Note_off_c, 0, 60, 0
1, 160121, Note_off_c, 0, 72, 0
1, 160121, Note_on_c, 0, 65, 36
1, 160121, Note_on_c, 0, 41, 28
1, 160121, Note_on_c, 0, 81, 30
1, 160217, Note_off_c, 0, 41, 0
1, 160313, Note_off_c, 0, 81, 0
1, 160313, Note_on_c, 0, 60, 36
1, 160313, Note_on_c, 0, 53, 33
1, 160313, Note_on_c, 0, 81, 30
1, 160409, Note_off_c, 0, 81, 0
1, 160505, Note_off_c, 0, 53, 0
1, 160505, Note_off_c, 0, 60, 0
1, 160505, Note_off_c, 0, 65, 0
1, 160505, Note_on_c, 0, 65, 36
1, 160505, Note_on_c, 0, 41, 28
1, 160505, Note_on_c, 0, 81, 31
1, 160601, Note_off_c, 0, 41, 0
1, 160697, Note_off_c, 0, 81, 0
1, 160697, Note_off_c, 0, 65, 0
1, 160697, Note_on_c, 0, 67, 36
1, 160697, Note_on_c, 0, 53, 33
1, 160697, Note_on_c, 0, 81, 31
1, 160793, Note_off_c, 0, 81, 0
1, 160889, Note_off_c, 0, 53, 0
1, 160889, Note_off_c, 0, 67, 0
1, 160889, Note_on_c, 0, 69, 27
1, 160889, Note_on_c, 0, 41, 28
1, 160889, Note_on_c, 0, 81, 31
1, 160985, Note_off_c, 0, 41, 0
1, 161081, Note_off_c, 0, 81, 0
1, 161081, Note_on_c, 0, 60, 36
1, 161081, Note_on_c, 0, 53, 33
1, 161081, Note_on_c, 0, 81, 31
1, 161177, Note_off_c, 0, 81, 0
1, 161273, Note_off_c, 0, 53, 0
1, 161273, Note_off_c, 0, 60, 0
1, 161273, Note_off_c, 0, 69, 0
1, 161273, Note_on_c, 0, 70, 33
1, 161273, Note_on_c, 0, 43, 28
1, 161273, Note_on_c, 0, 70, 38
1, 161369, Note_off_c, 0, 43, 0
1, 161465, Note_off_c, 0, 70, 0
1, 161465, Note_on_c, 0, 55, 33
1, 161465, Note_on_c, 0, 67, 38
1, 161561, Note_off_c, 0, 67, 0
1, 161657, Note_off_c, 0, 55, 0
1, 161657, Note_off_c, 0, 70, 0
1, 161657, Note_on_c, 0, 67, 35
1, 161657, Note_on_c, 0, 43, 28
1, 161753, Note_off_c, 0, 43, 0
1, 161849, Note_off_c, 0, 67, 0
1, 161849, Note_on_c, 0, 74, 38
1, 161849, Note_on_c, 0, 55, 33
1, 162041, Note_off_c, 0, 55, 0
1, 162041, Note_off_c, 0, 74, 0
1, 162041, Note_on_c, 0, 72, 36
1, 162041, Note_on_c, 0, 38, 28
1, 162137, Note_off_c, 0, 38, 0
1, 162137, Note_off_c, 0, 72, 0
1, 162137, Note_on_c, 0, 70, 36
1, 162233, Note_off_c, 0, 70, 0
1, 162233, Note_on_c, 0, 72, 36
1, 162233, Note_on_c, 0, 50, 33
1, 162329, Note_off_c, 0, 72, 0
1, 162329, Note_on_c, 0, 74, 36
1, 162425, Note_off_c, 0, 74, 0
1, 162425, Note_off_c, 0, 50, 0
1, 162425, Note_on_c, 0, 75, 36
1, 162425, Note_on_c, 0, 38, 28
1, 162521, Note_off_c, 0, 38, 0
1, 162521, Note_off_c, 0, 75, 0
1, 162521, Note_on_c, 0, 74, 36
1, 162617, Note_off_c, 0, 74, 0
1, 162617, Note_on_c, 0, 72, 36
1, 162617, Note_on_c, 0, 50, 33
1, 162713, Note_off_c, 0, 72, 0
1, 162713, Note_on_c, 0, 74, 36
1, 162809, Note_off_c, 0, 74, 0
1, 162809, Note_off_c, 0, 50, 0
1, 162809, Note_on_c, 0, 77, 36
1, 162809, Note_on_c, 0, 50, 35
1, 162905, Note_off_c, 0, 77, 0
1, 162905, Note_on_c, 0, 74, 36
1, 163001, Note_off_c, 0, 74, 0
1, 163001, Note_off_c, 0, 50, 0
1, 163001, Note_on_c, 0, 71, 36
1, 163097, Note_off_c, 0, 71, 0
1, 163097, Note_on_c, 0, 68, 36
1, 163097, Note_on_c, 0, 47, 35
1, 163193, Note_off_c, 0, 68, 0
1, 163193, Note_on_c, 0, 65, 36
1, 163193, Note_on_c, 0, 71, 23
1, 163289, Note_off_c, 0, 71, 0
1, 163289, Note_off_c, 0, 65, 0
1, 163289, Note_off_c, 0, 47, 0
1, 163289, Note_on_c, 0, 62, 36
1, 163289, Note_on_c, 0, 68, 24
1, 163385, Note_off_c, 0, 68, 0
1, 163385, Note_off_c, 0, 62, 0
1, 163385, Note_on_c, 0, 65, 36
1, 163385, Note_on_c, 0, 44, 31
1, 163385, Note_on_c, 0, 71, 26
1, 163481, Note_off_c, 0, 71, 0
1, 163481, Note_off_c, 0, 65, 0
1, 163481, Note_on_c, 0, 62, 36
1, 163481, Note_on_c, 0, 68, 27
1, 163577, Note_off_c, 0, 68, 0
1, 163577, Note_off_c, 0, 62, 0
1, 163577, Note_off_c, 0, 44, 0
1, 163577, Note_on_c, 0, 59, 36
1, 163577, Note_on_c, 0, 65, 30
1, 163673, Note_off_c, 0, 65, 0
1, 163673, Note_off_c, 0, 59, 0
1, 163673, Note_on_c, 0, 62, 36
1, 163673, Note_on_c, 0, 41, 28
1, 163673, Note_on_c, 0, 68, 32
1, 163769, Note_off_c, 0, 68, 0
1, 163769, Note_off_c, 0, 62, 0
1, 163769, Note_on_c, 0, 59, 36
1, 163769, Note_on_c, 0, 65, 33
1, 163865, Note_off_c, 0, 65, 0
1, 163865, Note_off_c, 0, 59, 0
1, 163865, Note_off_c, 0, 41, 0
1, 163865, Note_on_c, 0, 56, 36
1, 163865, Note_on_c, 0, 62, 35
1, 163961, Note_off_c, 0, 62, 0
1, 163961, Note_off_c, 0, 56, 0
1, 163961, Note_on_c, 0, 65, 36
1, 163961, Note_on_c, 0, 59, 35
1, 164057, Note_off_c, 0, 59, 0
1, 164057, Note_off_c, 0, 65, 0
1, 164057, Note_on_c, 0, 62, 36
1, 164057, Note_on_c, 0, 56, 35
1, 164153, Note_off_c, 0, 56, 0
1, 164153, Note_off_c, 0, 62, 0
1, 164153, Note_on_c, 0, 59, 36
1, 164153, Note_on_c, 0, 53, 35
1, 164249, Note_off_c, 0, 53, 0
1, 164249, Note_off_c, 0, 59, 0
1, 164249, Note_on_c, 0, 68, 36
1, 164249, Note_on_c, 0, 56, 35
1, 164345, Note_off_c, 0, 56, 0
1, 164345, Note_off_c, 0, 68, 0
1, 164345, Note_on_c, 0, 67, 36
1, 164345, Note_on_c, 0, 55, 35
1, 164441, Note_off_c, 0, 55, 0
1, 164441, Note_off_c, 0, 67, 0
1, 164441, Note_on_c, 0, 69, 36
1, 164441, Note_on_c, 0, 57, 35
1, 164537, Note_off_c, 0, 57, 0
1, 164537, Note_off_c, 0, 69, 0
1, 164537, Note_on_c, 0, 71, 36
1, 164537, Note_on_c, 0, 59, 35
1, 164633, Note_off_c, 0, 59, 0
1, 164633, Note_off_c, 0, 71, 0
1, 164633, Note_on_c, 0, 74, 36
1, 164633, Note_on_c, 0, 62, 35
1, 164729, Note_off_c, 0, 62, 0
1, 164729, Note_off_c, 0, 74, 0
1, 164729, Note_on_c, 0, 71, 36
1, 164729, Note_on_c, 0, 59, 35
1, 164825, Note_off_c, 0, 59, 0
1, 164825, Note_off_c, 0, 71, 0
1, 164825, Note_on_c, 0, 74, 36
1, 164825, Note_on_c, 0, 62, 35
1, 164921, Note_off_c, 0, 62, 0
1, 164921, Note_off_c, 0, 74, 0
1, 164921, Note_on_c, 0, 77, 36
1, 164921, Note_on_c, 0, 65, 35
1, 165017, Note_off_c, 0, 65, 0
1, 165017, Note_off_c, 0, 77, 0
1, 165017, Note_on_c, 0, 80, 36
1, 165017, Note_on_c, 0, 68, 35
1, 165113, Note_off_c, 0, 68, 0
1, 165113, Note_off_c, 0, 80, 0
1, 165113, Note_on_c, 0, 79, 38
1, 165113, Note_on_c, 0, 67, 35
1, 165305, Note_off_c, 0, 65, 0
1, 165305, Note_off_c, 0, 67, 0
1, 165305, Note_on_c, 0, 65, 34
1, 165337, Note_off_c, 0, 63, 0
1, 165337, Note_on_c, 0, 63, 33
1, 165370, Note_off_c, 0, 62, 0
1, 165370, Note_on_c, 0, 62, 32
1, 165402, Note_off_c, 0, 60, 0
1, 165402, Note_on_c, 0, 60, 31
1, 165434, Note_off_c, 0, 58, 0
1, 165434, Note_on_c, 0, 58, 30
1, 165467, Note_off_c, 0, 56, 0
1, 165467, Note_on_c, 0, 56, 29
1, 165499, Note_off_c, 0, 55, 0
1, 165499, Note_off_c, 0, 79, 0
1, 165499, Note_on_c, 0, 55, 28
1, 165519, Note_off_c, 0, 53, 0
1, 165519, Note_on_c, 0, 53, 27
1, 165539, Note_off_c, 0, 51, 0
1, 165539, Note_on_c, 0, 51, 25
1, 165559, Note_off_c, 0, 50, 0
1, 165559, Note_on_c, 0, 50, 24
1, 165578, Note_off_c, 0, 48, 0
1, 165578, Note_on_c, 0, 48, 24
1, 165882, Note_on_c, 0, 55, 28
1, 165882, Note_on_c, 0, 67, 39
1, 165882, Note_on_c, 0, 72, 30
1, 165978, Note_off_c, 0, 72, 0
1, 165978, Note_on_c, 0, 67, 30
1, 166074, Note_off_c, 0, 67, 0
1, 166074, Note_on_c, 0, 36, 33
1, 166074, Note_on_c, 0, 63, 30
1, 166170, Note_off_c, 0, 63, 0
1, 166170, Note_on_c, 0, 60, 30
1, 166266, Note_off_c, 0, 60, 0
1, 166266, Note_off_c, 0, 36, 0
1, 166266, Note_on_c, 0, 67, 30
1, 166362, Note_off_c, 0, 67, 0
1, 166362, Note_on_c, 0, 63, 30
1, 166458, Note_off_c, 0, 63, 0
1, 166458, Note_on_c, 0, 36, 33
1, 166458, Note_on_c, 0, 60, 30
1, 166554, Note_off_c, 0, 60, 0
1, 166554, Note_on_c, 0, 55, 30
1, 166650, Note_off_c, 0, 55, 0
1, 166650, Note_off_c, 0, 36, 0
1, 166650, Note_on_c, 0, 63, 30
1, 166746, Note_off_c, 0, 63, 0
1, 166842, Note_on_c, 0, 36, 33
1, 166842, Note_on_c, 0, 60, 30
1, 166938, Note_off_c, 0, 60, 0
1, 166938, Note_on_c, 0, 63, 30
1, 167034, Note_off_c, 0, 63, 0
1, 167034, Note_off_c, 0, 36, 0
1, 167034, Note_on_c, 0, 55, 30
1, 167130, Note_off_c, 0, 55, 0
1, 167130, Note_on_c, 0, 60, 30
1, 167226, Note_off_c, 0, 60, 0
1, 167226, Note_on_c, 0, 36, 33
1, 167226, Note_on_c, 0, 63, 30
1, 167322, Note_off_c, 0, 63, 0
1, 167418, Note_off_c, 0, 36, 0
1, 167418, Note_off_c, 0, 67, 0
1, 167418, Note_off_c, 0, 55, 0
1, 167418, Note_on_c, 0, 65, 39
1, 167418, Note_on_c, 0, 53, 28
1, 167418, Note_on_c, 0, 70, 30
1, 167514, Note_off_c, 0, 70, 0
1, 167514, Note_on_c, 0, 67, 30
1, 167610, Note_off_c, 0, 67, 0
1, 167610, Note_on_c, 0, 41, 33
1, 167610, Note_on_c, 0, 63, 30
1, 167706, Note_off_c, 0, 63, 0
1, 167706, Note_on_c, 0, 58, 30
1, 167802, Note_off_c, 0, 58, 0
1, 167802, Note_off_c, 0, 41, 0
1, 167802, Note_on_c, 0, 67, 30
1, 167898, Note_off_c, 0, 67, 0
1, 167898, Note_on_c, 0, 63, 30
1, 167994, Note_off_c, 0, 63, 0
1, 167994, Note_on_c, 0, 41, 33
1, 167994, Note_on_c, 0, 58, 30
1, 168090, Note_off_c, 0, 58, 0
1, 168186, Note_off_c, 0, 41, 0
1, 168186, Note_off_c, 0, 53, 0
1, 168186, Note_off_c, 0, 65, 0
1, 168186, Note_on_c, 0, 68, 39
1, 168186, Note_on_c, 0, 56, 28
1, 168186, Note_on_c, 0, 51, 30
1, 168282, Note_off_c, 0, 51, 0
1, 168282, Note_on_c, 0, 53, 30
1, 168378, Note_off_c, 0, 53, 0
1, 168378, Note_on_c, 0, 41, 33
1, 168378, Note_on_c, 0, 56, 30
1, 168474, Note_off_c, 0, 56, 0
1, 168474, Note_on_c, 0, 60, 30
1, 168570, Note_off_c, 0, 60, 0
1, 168570, Note_off_c, 0, 41, 0
1, 168570, Note_on_c, 0, 53, 30
1, 168666, Note_off_c, 0, 53, 0
1, 168666, Note_on_c, 0, 56, 30
1, 168762, Note_off_c, 0, 56, 0
1, 168762, Note_on_c, 0, 41, 33
1, 168762, Note_on_c, 0, 60, 30
1, 168858, Note_off_c, 0, 60, 0
1, 168858, Note_on_c, 0, 65, 30
1, 168954, Note_off_c, 0, 65, 0
1, 168954, Note_off_c, 0, 41, 0
1, 168954, Note_off_c, 0, 56, 0
1, 168954, Note_off_c, 0, 68, 0
1, 168954, Note_on_c, 0, 67, 41
1, 168954, Note_on_c, 0, 55, 33
1, 169146, Note_off_c, 0, 67, 0
1, 169146, Note_on_c, 0, 36, 33
1, 169146, Note_on_c, 0, 60, 36
1, 169242, Note_off_c, 0, 60, 0
1, 169242, Note_on_c, 0, 63, 36
1, 169338, Note_off_c, 0, 63, 0
1, 169338, Note_off_c, 0, 36, 0
1, 169338, Note_on_c, 0, 55, 36
1, 169434, Note_off_c, 0, 55, 0
1, 169434, Note_on_c, 0, 60, 36
1, 169530, Note_off_c, 0, 60, 0
1, 169530, Note_on_c, 0, 36, 33
1, 169530, Note_on_c, 0, 65, 36
1, 169626, Note_off_c, 0, 65, 0
1, 169626, Note_on_c, 0, 55, 28
1, 169722, Note_off_c, 0, 55, 0
1, 169722, Note_off_c, 0, 36, 0
1, 169722, Note_on_c, 0, 60, 36
1, 169818, Note_off_c, 0, 60, 0
1, 169818, Note_on_c, 0, 62, 36
1, 169914, Note_off_c, 0, 62, 0
1, 169914, Note_on_c, 0, 36, 33
1, 169914, Note_on_c, 0, 55, 36
1, 170010, Note_off_c, 0, 55, 0
1, 170010, Note_on_c, 0, 60, 36
1, 170106, Note_off_c, 0, 60, 0
1, 170106, Note_off_c, 0, 36, 0
1, 170106, Note_on_c, 0, 63, 36
1, 170202, Note_off_c, 0, 63, 0
1, 170202, Note_on_c, 0, 62, 36
1, 170298, Note_off_c, 0, 62, 0
1, 170298, Note_on_c, 0, 36, 33
1, 170298, Note_on_c, 0, 60, 36
1, 170394, Note_off_c, 0, 60, 0
1, 170394, Note_on_c, 0, 55, 36
1, 170490, Note_off_c, 0, 55, 0
1, 170490, Note_off_c, 0, 36, 0
1, 170490, Note_on_c, 0, 67, 36
1, 170586, Note_off_c, 0, 67, 0
1, 170682, Note_on_c, 0, 36, 33
1, 170682, Note_on_c, 0, 60, 36
1, 170778, Note_off_c, 0, 60, 0
1, 170778, Note_on_c, 0, 63, 36
1, 170874, Note_off_c, 0, 63, 0
1, 170874, Note_off_c, 0, 36, 0
1, 170874, Note_on_c, 0, 55, 36
1, 170970, Note_off_c, 0, 55, 0
1, 170970, Note_on_c, 0, 60, 36
1, 171066, Note_off_c, 0, 60, 0
1, 171066, Note_on_c, 0, 36, 33
1, 171066, Note_on_c, 0, 65, 36
1, 171162, Note_off_c, 0, 65, 0
1, 171162, Note_on_c, 0, 55, 36
1, 171258, Note_off_c, 0, 55, 0
1, 171258, Note_off_c, 0, 36, 0
1, 171258, Note_on_c, 0, 60, 36
1, 171354, Note_off_c, 0, 60, 0
1, 171354, Note_on_c, 0, 62, 36
1, 171450, Note_off_c, 0, 62, 0
1, 171450, Note_on_c, 0, 36, 33
1, 171450, Note_on_c, 0, 55, 36
1, 171546, Note_off_c, 0, 55, 0
1, 171546, Note_on_c, 0, 62, 36
1, 171642, Note_off_c, 0, 62, 0
1, 171642, Note_off_c, 0, 36, 0
1, 171642, Note_on_c, 0, 63, 36
1, 171738, Note_off_c, 0, 63, 0
1, 171738, Note_on_c, 0, 62, 36
1, 171834, Note_off_c, 0, 62, 0
1, 171834, Note_on_c, 0, 36, 33
1, 171834, Note_on_c, 0, 63, 36
1, 171930, Note_off_c, 0, 63, 0
1, 171930, Note_on_c, 0, 65, 36
1, 172026, Note_off_c, 0, 65, 0
1, 172026, Note_off_c, 0, 36, 0
1, 172026, Note_off_c, 0, 55, 0
1, 172026, Note_on_c, 0, 68, 39
1, 172026, Note_on_c, 0, 56, 25
1, 172026, Note_on_c, 0, 75, 30
1, 172122, Note_off_c, 0, 75, 0
1, 172122, Note_on_c, 0, 72, 30
1, 172218, Note_off_c, 0, 72, 0
1, 172218, Note_on_c, 0, 44, 33
1, 172218, Note_on_c, 0, 68, 30
1, 172314, Note_off_c, 0, 68, 0
1, 172314, Note_on_c, 0, 63, 30
1, 172410, Note_off_c, 0, 63, 0
1, 172410, Note_off_c, 0, 44, 0
1, 172410, Note_on_c, 0, 72, 30
1, 172506, Note_off_c, 0, 72, 0
1, 172506, Note_on_c, 0, 68, 30
1, 172602, Note_off_c, 0, 68, 0
1, 172602, Note_on_c, 0, 44, 33
1, 172602, Note_on_c, 0, 63, 30
1, 172698, Note_off_c, 0, 63, 0
1, 172698, Note_on_c, 0, 60, 30
1, 172794, Note_off_c, 0, 60, 0
1, 172794, Note_off_c, 0, 44, 0
1, 172794, Note_off_c, 0, 56, 0
1, 172794, Note_off_c, 0, 68, 0
1, 172794, Note_on_c, 0, 75, 39
1, 172794, Note_on_c, 0, 63, 27
1, 172794, Note_on_c, 0, 56, 30
1, 172890, Note_off_c, 0, 56, 0
1, 172890, Note_on_c, 0, 60, 30
1, 172986, Note_off_c, 0, 60, 0
1, 172986, Note_on_c, 0, 44, 33
1, 172986, Note_on_c, 0, 63, 30
1, 173082, Note_off_c, 0, 63, 0
1, 173082, Note_on_c, 0, 68, 30
1, 173178, Note_off_c, 0, 68, 0
1, 173178, Note_off_c, 0, 44, 0
1, 173178, Note_on_c, 0, 63, 30
1, 173274, Note_off_c, 0, 63, 0
1, 173274, Note_on_c, 0, 68, 30
1, 173370, Note_off_c, 0, 68, 0
1, 173370, Note_on_c, 0, 44, 33
1, 173370, Note_on_c, 0, 75, 30
1, 173466, Note_off_c, 0, 75, 0
1, 173466, Note_on_c, 0, 77, 30
1, 173562, Note_off_c, 0, 77, 0
1, 173562, Note_off_c, 0, 44, 0
1, 173562, Note_off_c, 0, 63, 0
1, 173562, Note_off_c, 0, 75, 0
1, 173562, Note_on_c, 0, 74, 39
1, 173562, Note_on_c, 0, 62, 27
1, 173562, Note_on_c, 0, 80, 30
1, 173658, Note_off_c, 0, 80, 0
1, 173658, Note_on_c, 0, 77, 30
1, 173754, Note_off_c, 0, 77, 0
1, 173754, Note_on_c, 0, 41, 33
1, 173754, Note_on_c, 0, 72, 30
1, 173850, Note_off_c, 0, 72, 0
1, 173850, Note_on_c, 0, 68, 30
1, 173946, Note_off_c, 0, 68, 0
1, 173946, Note_off_c, 0, 41, 0
1, 173946, Note_on_c, 0, 77, 30
1, 174042, Note_off_c, 0, 77, 0
1, 174042, Note_on_c, 0, 72, 30
1, 174138, Note_off_c, 0, 72, 0
1, 174138, Note_on_c, 0, 41, 33
1, 174138, Note_on_c, 0, 68, 30
1, 174234, Note_off_c, 0, 68, 0
1, 174234, Note_on_c, 0, 65, 30
1, 174330, Note_off_c, 0, 65, 0
1, 174330, Note_off_c, 0, 41, 0
1, 174330, Note_off_c, 0, 62, 0
1, 174330, Note_off_c, 0, 74, 0
1, 174330, Note_on_c, 0, 68, 39
1, 174330, Note_on_c, 0, 56, 27
1, 174330, Note_on_c, 0, 60, 30
1, 174426, Note_off_c, 0, 60, 0
1, 174426, Note_on_c, 0, 65, 30
1, 174522, Note_off_c, 0, 65, 0
1, 174522, Note_on_c, 0, 41, 33
1, 174522, Note_on_c, 0, 68, 30
1, 174618, Note_off_c, 0, 68, 0
1, 174618, Note_on_c, 0, 72, 30
1, 174714, Note_off_c, 0, 72, 0
1, 174714, Note_off_c, 0, 41, 0
1, 174714, Note_off_c, 0, 56, 0
1, 174714, Note_off_c, 0, 68, 0
1, 174714, Note_on_c, 0, 70, 39
1, 174714, Note_on_c, 0, 58, 27
1, 174714, Note_on_c, 0, 65, 30
1, 174810, Note_off_c, 0, 65, 0
1, 174810, Note_on_c, 0, 68, 30
1, 174906, Note_off_c, 0, 68, 0
1, 174906, Note_on_c, 0, 41, 33
1, 174906, Note_on_c, 0, 72, 30
1, 175002, Note_off_c, 0, 72, 0
1, 175002, Note_on_c, 0, 77, 30
1, 175098, Note_off_c, 0, 77, 0
1, 175098, Note_off_c, 0, 41, 0
1, 175098, Note_off_c, 0, 58, 0
1, 175098, Note_off_c, 0, 70, 0
1, 175098, Note_on_c, 0, 72, 38
1, 175194, Note_off_c, 0, 72, 0
1, 175194, Note_on_c, 0, 55, 38
1, 175290, Note_off_c, 0, 55, 0
1, 175290, Note_on_c, 0, 67, 38
1, 175290, Note_on_c, 0, 36, 33
1, 175386, Note_off_c, 0, 67, 0
1, 175386, Note_on_c, 0, 74, 38
1, 175482, Note_off_c, 0, 74, 0
1, 175482, Note_off_c, 0, 36, 0
1, 175482, Note_on_c, 0, 60, 38
1, 175578, Note_off_c, 0, 60, 0
1, 175578, Note_on_c, 0, 67, 38
1, 175674, Note_off_c, 0, 67, 0
1, 175674, Note_on_c, 0, 72, 38
1, 175674, Note_on_c, 0, 36, 33
1, 175770, Note_off_c, 0, 72, 0
1, 175770, Note_on_c, 0, 60, 38
1, 175866, Note_off_c, 0, 60, 0
1, 175866, Note_off_c, 0, 36, 0
1, 175866, Note_on_c, 0, 67, 38
1, 175962, Note_off_c, 0, 67, 0
1, 175962, Note_on_c, 0, 75, 38
1, 176058, Note_off_c, 0, 75, 0
1, 176058, Note_on_c, 0, 60, 38
1, 176058, Note_on_c, 0, 36, 33
1, 176154, Note_off_c, 0, 60, 0
1, 176154, Note_on_c, 0, 67, 38
1, 176250, Note_off_c, 0, 67, 0
1, 176250, Note_off_c, 0, 36, 0
1, 176250, Note_on_c, 0, 74, 38
1, 176346, Note_off_c, 0, 74, 0
1, 176346, Note_on_c, 0, 75, 38
1, 176442, Note_off_c, 0, 75, 0
1, 176442, Note_on_c, 0, 74, 38
1, 176442, Note_on_c, 0, 36, 33
1, 176538, Note_off_c, 0, 74, 0
1, 176538, Note_on_c, 0, 70, 38
1, 176634, Note_off_c, 0, 70, 0
1, 176634, Note_off_c, 0, 36, 0
1, 176634, Note_on_c, 0, 72, 38
1, 176730, Note_off_c, 0, 72, 0
1, 176730, Note_on_c, 0, 60, 38
1, 176826, Note_off_c, 0, 60, 0
1, 176826, Note_on_c, 0, 70, 38
1, 176826, Note_on_c, 0, 36, 33
1, 176922, Note_off_c, 0, 70, 0
1, 176922, Note_on_c, 0, 72, 38
1, 177018, Note_off_c, 0, 72, 0
1, 177018, Note_off_c, 0, 36, 0
1, 177018, Note_on_c, 0, 60, 38
1, 177114, Note_off_c, 0, 60, 0
1, 177114, Note_on_c, 0, 63, 38
1, 177210, Note_off_c, 0, 63, 0
1, 177210, Note_on_c, 0, 67, 38
1, 177210, Note_on_c, 0, 36, 33
1, 177306, Note_off_c, 0, 67, 0
1, 177306, Note_on_c, 0, 63, 38
1, 177402, Note_off_c, 0, 63, 0
1, 177402, Note_off_c, 0, 36, 0
1, 177402, Note_on_c, 0, 65, 36
1, 177402, Note_on_c, 0, 60, 28
1, 177498, Note_off_c, 0, 60, 0
1, 177498, Note_off_c, 0, 65, 0
1, 177498, Note_on_c, 0, 58, 28
1, 177498, Note_on_c, 0, 63, 36
1, 177594, Note_off_c, 0, 63, 0
1, 177594, Note_off_c, 0, 58, 0
1, 177594, Note_on_c, 0, 65, 36
1, 177594, Note_on_c, 0, 60, 28
1, 177594, Note_on_c, 0, 36, 33
1, 177690, Note_off_c, 0, 60, 0
1, 177690, Note_off_c, 0, 65, 0
1, 177690, Note_on_c, 0, 67, 36
1, 177690, Note_on_c, 0, 62, 28
1, 177786, Note_off_c, 0, 62, 0
1, 177786, Note_off_c, 0, 67, 0
1, 177786, Note_off_c, 0, 36, 0
1, 177786, Note_on_c, 0, 63, 28
1, 177786, Note_on_c, 0, 68, 36
1, 177882, Note_off_c, 0, 68, 0
1, 177882, Note_off_c, 0, 63, 0
1, 177882, Note_on_c, 0, 67, 36
1, 177882, Note_on_c, 0, 62, 28
1, 177978, Note_off_c, 0, 62, 0
1, 177978, Note_off_c, 0, 67, 0
1, 177978, Note_on_c, 0, 63, 28
1, 177978, Note_on_c, 0, 68, 36
1, 177978, Note_on_c, 0, 36, 33
1, 178074, Note_off_c, 0, 68, 0
1, 178074, Note_off_c, 0, 63, 0
1, 178074, Note_on_c, 0, 65, 28
1, 178074, Note_on_c, 0, 70, 36
1, 178170, Note_off_c, 0, 70, 0
1, 178170, Note_off_c, 0, 65, 0
1, 178170, Note_off_c, 0, 36, 0
1, 178170, Note_on_c, 0, 55, 28
1, 178170, Note_on_c, 0, 67, 39
1, 178170, Note_on_c, 0, 72, 30
1, 178266, Note_off_c, 0, 72, 0
1, 178266, Note_on_c, 0, 67, 30
1, 178362, Note_off_c, 0, 67, 0
1, 178362, Note_on_c, 0, 36, 33
1, 178362, Note_on_c, 0, 63, 30
1, 178458, Note_off_c, 0, 63, 0
1, 178458, Note_on_c, 0, 60, 30
1, 178554, Note_off_c, 0, 60, 0
1, 178554, Note_off_c, 0, 36, 0
1, 178554, Note_on_c, 0, 67, 30
1, 178650, Note_off_c, 0, 67, 0
1, 178650, Note_on_c, 0, 63, 30
1, 178746, Note_off_c, 0, 63, 0
1, 178746, Note_on_c, 0, 36, 33
1, 178746, Note_on_c, 0, 60, 30
1, 178842, Note_off_c, 0, 60, 0
1, 178842, Note_on_c, 0, 55, 30
1, 178938, Note_off_c, 0, 55, 0
1, 178938, Note_off_c, 0, 36, 0
1, 178938, Note_on_c, 0, 63, 30
1, 179034, Note_off_c, 0, 63, 0
1, 179130, Note_on_c, 0, 36, 33
1, 179130, Note_on_c, 0, 60, 30
1, 179226, Note_off_c, 0, 60, 0
1, 179226, Note_on_c, 0, 63, 30
1, 179322, Note_off_c, 0, 63, 0
1, 179322, Note_off_c, 0, 36, 0
1, 179322, Note_on_c, 0, 55, 30
1, 179418, Note_off_c, 0, 55, 0
1, 179418, Note_on_c, 0, 60, 30
1, 179514, Note_off_c, 0, 60, 0
1, 179514, Note_on_c, 0, 36, 33
1, 179514, Note_on_c, 0, 63, 30
1, 179610, Note_off_c, 0, 63, 0
1, 179706, Note_off_c, 0, 36, 0
1, 179706, Note_off_c, 0, 67, 0
1, 179706, Note_off_c, 0, 55, 0
1, 179706, Note_on_c, 0, 65, 39
1, 179706, Note_on_c, 0, 53, 28
1, 179706, Note_on_c, 0, 70, 30
1, 179802, Note_off_c, 0, 70, 0
1, 179802, Note_on_c, 0, 67, 30
1, 179898, Note_off_c, 0, 67, 0
1, 179898, Note_on_c, 0, 41, 33
1, 179898, Note_on_c, 0, 63, 30
1, 179994, Note_off_c, 0, 63, 0
1, 179994, Note_on_c, 0, 58, 30
1, 180090, Note_off_c, 0, 58, 0
1, 180090, Note_off_c, 0, 41, 0
1, 180090, Note_on_c, 0, 67, 30
1, 180186, Note_off_c, 0, 67, 0
1, 180186, Note_on_c, 0, 63, 30
1, 180282, Note_off_c, 0, 63, 0
1, 180282, Note_on_c, 0, 41, 33
1, 180282, Note_on_c, 0, 58, 30
1, 180378, Note_off_c, 0, 58, 0
1, 180474, Note_off_c, 0, 41, 0
1, 180474, Note_off_c, 0, 53, 0
1, 180474, Note_off_c, 0, 65, 0
1, 180474, Note_on_c, 0, 68, 39
1, 180474, Note_on_c, 0, 56, 28
1, 180474, Note_on_c, 0, 51, 30
1, 180570, Note_off_c, 0, 51, 0
1, 180570, Note_on_c, 0, 53, 30
1, 180666, Note_off_c, 0, 53, 0
1, 180666, Note_on_c, 0, 41, 33
1, 180666, Note_on_c, 0, 56, 30
1, 180762, Note_off_c, 0, 56, 0
1, 180762, Note_on_c, 0, 60, 30
1, 180858, Note_off_c, 0, 60, 0
1, 180858, Note_off_c, 0, 41, 0
1, 180858, Note_on_c, 0, 53, 30
1, 180954, Note_off_c, 0, 53, 0
1, 180954, Note_on_c, 0, 56, 30
1, 181050, Note_off_c, 0, 56, 0
1, 181050, Note_on_c, 0, 41, 33
1, 181050, Note_on_c, 0, 60, 30
1, 181146, Note_off_c, 0, 60, 0
1, 181146, Note_on_c, 0, 65, 30
1, 181242, Note_off_c, 0, 65, 0
1, 181242, Note_off_c, 0, 41, 0
1, 181242, Note_off_c, 0, 56, 0
1, 181242, Note_off_c, 0, 68, 0
1, 181242, Note_on_c, 0, 67, 36
1, 181242, Note_on_c, 0, 55, 33
1, 181434, Note_off_c, 0, 67, 0
1, 181434, Note_on_c, 0, 36, 33
1, 181434, Note_on_c, 0, 60, 36
1, 181530, Note_off_c, 0, 60, 0
1, 181530, Note_on_c, 0, 63, 36
1, 181626, Note_off_c, 0, 63, 0
1, 181626, Note_off_c, 0, 36, 0
1, 181626, Note_on_c, 0, 55, 36
1, 181722, Note_off_c, 0, 55, 0
1, 181722, Note_on_c, 0, 60, 36
1, 181818, Note_off_c, 0, 60, 0
1, 181818, Note_on_c, 0, 36, 33
1, 181818, Note_on_c, 0, 65, 36
1, 181914, Note_off_c, 0, 65, 0
1, 181914, Note_on_c, 0, 55, 28
1, 182010, Note_off_c, 0, 55, 0
1, 182010, Note_off_c, 0, 36, 0
1, 182010, Note_on_c, 0, 60, 36
1, 182106, Note_off_c, 0, 60, 0
1, 182106, Note_on_c, 0, 62, 36
1, 182202, Note_off_c, 0, 62, 0
1, 182202, Note_on_c, 0, 36, 33
1, 182202, Note_on_c, 0, 55, 36
1, 182298, Note_off_c, 0, 55, 0
1, 182298, Note_on_c, 0, 60, 36
1, 182394, Note_off_c, 0, 60, 0
1, 182394, Note_off_c, 0, 36, 0
1, 182394, Note_on_c, 0, 63, 36
1, 182490, Note_off_c, 0, 63, 0
1, 182490, Note_on_c, 0, 65, 36
1, 182586, Note_off_c, 0, 65, 0
1, 182586, Note_on_c, 0, 36, 33
1, 182586, Note_on_c, 0, 67, 36
1, 182682, Note_off_c, 0, 67, 0
1, 182682, Note_on_c, 0, 68, 36
1, 182778, Note_off_c, 0, 68, 0
1, 182778, Note_off_c, 0, 36, 0
1, 182778, Note_on_c, 0, 82, 36
1, 182778, Note_on_c, 0, 75, 36
1, 182874, Note_off_c, 0, 75, 0
1, 182874, Note_off_c, 0, 82, 0
1, 182874, Note_on_c, 0, 67, 36
1, 182970, Note_off_c, 0, 67, 0
1, 182970, Note_on_c, 0, 36, 33
1, 182970, Note_on_c, 0, 60, 36
1, 183066, Note_off_c, 0, 60, 0
1, 183066, Note_on_c, 0, 79, 36
1, 183066, Note_on_c, 0, 67, 36
1, 183162, Note_off_c, 0, 67, 0
1, 183162, Note_off_c, 0, 79, 0
1, 183162, Note_off_c, 0, 36, 0
1, 183162, Note_on_c, 0, 79, 36
1, 183258, Note_off_c, 0, 79, 0
1, 183258, Note_on_c, 0, 72, 36
1, 183354, Note_off_c, 0, 72, 0
1, 183354, Note_on_c, 0, 36, 33
1, 183354, Note_on_c, 0, 80, 36
1, 183450, Note_off_c, 0, 80, 0
1, 183450, Note_on_c, 0, 79, 36
1, 183546, Note_off_c, 0, 79, 0
1, 183546, Note_off_c, 0, 36, 0
1, 183546, Note_on_c, 0, 72, 36
1, 183642, Note_off_c, 0, 72, 0
1, 183642, Note_on_c, 0, 77, 36
1, 183738, Note_off_c, 0, 77, 0
1, 183738, Note_on_c, 0, 36, 33
1, 183738, Note_on_c, 0, 79, 36
1, 183834, Note_off_c, 0, 79, 0
1, 183834, Note_on_c, 0, 72, 36
1, 183930, Note_off_c, 0, 72, 0
1, 183930, Note_off_c, 0, 36, 0
1, 183930, Note_on_c, 0, 79, 36
1, 184026, Note_off_c, 0, 79, 0
1, 184026, Note_on_c, 0, 77, 36
1, 184122, Note_off_c, 0, 77, 0
1, 184122, Note_on_c, 0, 36, 33
1, 184122, Note_on_c, 0, 75, 36
1, 184218, Note_off_c, 0, 75, 0
1, 184218, Note_on_c, 0, 74, 36
1, 184314, Note_off_c, 0, 74, 0
1, 184314, Note_off_c, 0, 36, 0
1, 184314, Note_off_c, 0, 55, 0
1, 184314, Note_on_c, 0, 68, 39
1, 184314, Note_on_c, 0, 56, 25
1, 184314, Note_on_c, 0, 75, 30
1, 184410, Note_off_c, 0, 75, 0
1, 184410, Note_on_c, 0, 72, 30
1, 184506, Note_off_c, 0, 72, 0
1, 184506, Note_on_c, 0, 44, 33
1, 184506, Note_on_c, 0, 68, 30
1, 184602, Note_off_c, 0, 68, 0
1, 184602, Note_on_c, 0, 63, 30
1, 184698, Note_off_c, 0, 63, 0
1, 184698, Note_off_c, 0, 44, 0
1, 184698, Note_on_c, 0, 72, 30
1, 184794, Note_off_c, 0, 72, 0
1, 184794, Note_on_c, 0, 68, 30
1, 184890, Note_off_c, 0, 68, 0
1, 184890, Note_on_c, 0, 44, 33
1, 184890, Note_on_c, 0, 63, 30
1, 184986, Note_off_c, 0, 63, 0
1, 184986, Note_on_c, 0, 60, 30
1, 185082, Note_off_c, 0, 60, 0
1, 185082, Note_off_c, 0, 44, 0
1, 185082, Note_off_c, 0, 56, 0
1, 185082, Note_off_c, 0, 68, 0
1, 185082, Note_on_c, 0, 75, 39
1, 185082, Note_on_c, 0, 63, 27
1, 185082, Note_on_c, 0, 56, 30
1, 185178, Note_off_c, 0, 56, 0
1, 185178, Note_on_c, 0, 60, 30
1, 185274, Note_off_c, 0, 60, 0
1, 185274, Note_on_c, 0, 44, 33
1, 185274, Note_on_c, 0, 63, 30
1, 185370, Note_off_c, 0, 63, 0
1, 185370, Note_on_c, 0, 68, 30
1, 185466, Note_off_c, 0, 68, 0
1, 185466, Note_off_c, 0, 44, 0
1, 185466, Note_on_c, 0, 63, 30
1, 185562, Note_off_c, 0, 63, 0
1, 185562, Note_on_c, 0, 68, 30
1, 185658, Note_off_c, 0, 68, 0
1, 185658, Note_on_c, 0, 44, 33
1, 185658, Note_on_c, 0, 75, 30
1, 185754, Note_off_c, 0, 75, 0
1, 185754, Note_on_c, 0, 77, 30
1, 185850, Note_off_c, 0, 77, 0
1, 185850, Note_off_c, 0, 44, 0
1, 185850, Note_off_c, 0, 63, 0
1, 185850, Note_off_c, 0, 75, 0
1, 185850, Note_on_c, 0, 62, 27
1, 185850, Note_on_c, 0, 74, 39
1, 185850, Note_on_c, 0, 80, 30
1, 185946, Note_off_c, 0, 80, 0
1, 185946, Note_on_c, 0, 77, 30
1, 186042, Note_off_c, 0, 77, 0
1, 186042, Note_on_c, 0, 41, 33
1, 186042, Note_on_c, 0, 72, 30
1, 186138, Note_off_c, 0, 72, 0
1, 186138, Note_on_c, 0, 68, 30
1, 186234, Note_off_c, 0, 68, 0
1, 186234, Note_off_c, 0, 41, 0
1, 186234, Note_on_c, 0, 77, 30
1, 186330, Note_off_c, 0, 77, 0
1, 186330, Note_on_c, 0, 72, 30
1, 186426, Note_off_c, 0, 72, 0
1, 186426, Note_on_c, 0, 41, 33
1, 186426, Note_on_c, 0, 68, 30
1, 186522, Note_off_c, 0, 68, 0
1, 186522, Note_on_c, 0, 65, 30
1, 186618, Note_off_c, 0, 65, 0
1, 186618, Note_off_c, 0, 41, 0
1, 186618, Note_off_c, 0, 74, 0
1, 186618, Note_off_c, 0, 62, 0
1, 186618, Note_on_c, 0, 77, 39
1, 186618, Note_on_c, 0, 65, 27
1, 186618, Note_on_c, 0, 60, 30
1, 186714, Note_off_c, 0, 60, 0
1, 186714, Note_on_c, 0, 65, 30
1, 186810, Note_off_c, 0, 65, 0
1, 186810, Note_on_c, 0, 41, 33
1, 186810, Note_on_c, 0, 68, 30
1, 186906, Note_off_c, 0, 68, 0
1, 186906, Note_on_c, 0, 72, 30
1, 187002, Note_off_c, 0, 72, 0
1, 187002, Note_off_c, 0, 41, 0
1, 187002, Note_on_c, 0, 65, 30
1, 187098, Note_off_c, 0, 65, 0
1, 187098, Note_on_c, 0, 68, 30
1, 187194, Note_off_c, 0, 68, 0
1, 187194, Note_on_c, 0, 41, 33
1, 187194, Note_on_c, 0, 41, 33
1, 187194, Note_on_c, 0, 72, 30
1, 187290, Note_off_c, 0, 72, 0
1, 187290, Note_on_c, 0, 77, 30
1, 187386, Note_off_c, 0, 77, 0
1, 187386, Note_off_c, 0, 41, 0
1, 187386, Note_off_c, 0, 41, 0
1, 187386, Note_off_c, 0, 65, 0
1, 187386, Note_off_c, 0, 77, 0
1, 187386, Note_on_c, 0, 79, 38
1, 187386, Note_on_c, 0, 39, 36
1, 187386, Note_on_c, 0, 51, 34
1, 187386, Note_on_c, 0, 63, 33
1, 187482, Note_off_c, 0, 79, 0
1, 187482, Note_on_c, 0, 80, 38
1, 187578, Note_off_c, 0, 80, 0
1, 187578, Note_on_c, 0, 79, 38
1, 187674, Note_off_c, 0, 79, 0
1, 187674, Note_on_c, 0, 77, 38
1, 187770, Note_off_c, 0, 77, 0
1, 187770, Note_on_c, 0, 75, 38
1, 187866, Note_off_c, 0, 75, 0
1, 187866, Note_on_c, 0, 77, 38
1, 187962, Note_off_c, 0, 77, 0
1, 187962, Note_on_c, 0, 75, 38
1, 188058, Note_off_c, 0, 75, 0
1, 188058, Note_on_c, 0, 74, 38
1, 188154, Note_off_c, 0, 74, 0
1, 188154, Note_on_c, 0, 70, 38
1, 188250, Note_off_c, 0, 70, 0
1, 188250, Note_on_c, 0, 75, 38
1, 188346, Note_off_c, 0, 75, 0
1, 188346, Note_on_c, 0, 79, 38
1, 188442, Note_off_c, 0, 79, 0
1, 188442, Note_on_c, 0, 82, 38
1, 188538, Note_off_c, 0, 82, 0
1, 188538, Note_on_c, 0, 79, 38
1, 188634, Note_off_c, 0, 79, 0
1, 188634, Note_on_c, 0, 75, 38
1, 188730, Note_off_c, 0, 75, 0
1, 188730, Note_on_c, 0, 74, 38
1, 188826, Note_off_c, 0, 74, 0
1, 188826, Note_on_c, 0, 75, 38
1, 188922, Note_off_c, 0, 75, 0
1, 188922, Note_off_c, 0, 63, 0
1, 188922, Note_off_c, 0, 51, 0
1, 188922, Note_off_c, 0, 39, 0
1, 188922, Note_on_c, 0, 74, 38
1, 188922, Note_on_c, 0, 55, 34
1, 188922, Note_on_c, 0, 43, 36
1, 188922, Note_on_c, 0, 65, 33
1, 189018, Note_off_c, 0, 74, 0
1, 189018, Note_on_c, 0, 77, 38
1, 189114, Note_off_c, 0, 77, 0
1, 189114, Note_on_c, 0, 74, 38
1, 189210, Note_off_c, 0, 74, 0
1, 189210, Note_on_c, 0, 71, 38
1, 189306, Note_off_c, 0, 71, 0
1, 189306, Note_on_c, 0, 67, 38
1, 189402, Note_off_c, 0, 67, 0
1, 189402, Note_on_c, 0, 71, 38
1, 189498, Note_off_c, 0, 71, 0
1, 189498, Note_on_c, 0, 67, 38
1, 189594, Note_off_c, 0, 67, 0
1, 189594, Note_on_c, 0, 62, 38
1, 189690, Note_off_c, 0, 62, 0
1, 189690, Note_on_c, 0, 59, 38
1, 189786, Note_off_c, 0, 59, 0
1, 189786, Note_on_c, 0, 62, 38
1, 189882, Note_off_c, 0, 62, 0
1, 189882, Note_on_c, 0, 67, 38
1, 189978, Note_off_c, 0, 67, 0
1, 189978, Note_on_c, 0, 71, 38
1, 190074, Note_off_c, 0, 71, 0
1, 190074, Note_on_c, 0, 67, 38
1, 190170, Note_off_c, 0, 67, 0
1, 190170, Note_on_c, 0, 74, 38
1, 190266, Note_off_c, 0, 74, 0
1, 190266, Note_on_c, 0, 79, 38
1, 190362, Note_off_c, 0, 79, 0
1, 190362, Note_on_c, 0, 83, 38
1, 190458, Note_off_c, 0, 83, 0
1, 190458, Note_off_c, 0, 65, 0
1, 190458, Note_off_c, 0, 43, 0
1, 190458, Note_off_c, 0, 55, 0
1, 190458, Note_on_c, 0, 84, 41
1, 190458, Note_on_c, 0, 72, 37
1, 190458, Note_on_c, 0, 63, 33
1, 190458, Note_on_c, 0, 60, 33
1, 190458, Note_on_c, 0, 67, 33
1, 191034, Note_on_c, 0, 50, 32
1, 191226, Note_on_c, 0, 51, 32
1, 191418, Note_on_c, 0, 55, 32
1, 191610, Note_off_c, 0, 84, 0
1, 191610, Note_on_c, 0, 75, 34
1, 191610, Note_on_c, 0, 60, 32
1, 191706, Note_off_c, 0, 50, 0
1, 191898, Note_off_c, 0, 51, 0
1, 192090, Note_off_c, 0, 55, 0
1, 192186, Note_on_c, 0, 62, 32
1, 192186, Note_on_c, 0, 56, 32
1, 192378, Note_off_c, 0, 72, 0
1, 192570, Note_off_c, 0, 75, 0
1, 192666, Note_off_c, 0, 60, 0
1, 192762, Note_off_c, 0, 67, 0
1, 192762, Note_off_c, 0, 60, 0
1, 192762, Note_off_c, 0, 63, 0
1, 192762, Note_on_c, 0, 58, 32
1, 192762, Note_on_c, 0, 51, 32
1, 192954, Note_on_c, 0, 79, 34
1, 192954, Note_on_c, 0, 79, 34
1, 193146, Note_off_c, 0, 79, 0
1, 193146, Note_on_c, 0, 84, 35
1, 193146, Note_on_c, 0, 84, 35
1, 193242, Note_off_c, 0, 56, 0
1, 193242, Note_off_c, 0, 62, 0
1, 193338, Note_off_c, 0, 84, 0
1, 193530, Note_off_c, 0, 79, 0
1, 193530, Note_on_c, 0, 87, 35
1, 193530, Note_on_c, 0, 32, 32
1, 193722, Note_off_c, 0, 84, 0
1, 193722, Note_on_c, 0, 86, 35
1, 193722, Note_on_c, 0, 86, 35
1, 193722, Note_on_c, 0, 39, 32
1, 193914, Note_off_c, 0, 86, 0
1, 193914, Note_on_c, 0, 82, 37
1, 193914, Note_on_c, 0, 44, 32
1, 194010, Note_off_c, 0, 51, 0
1, 194010, Note_off_c, 0, 58, 0
1, 194106, Note_off_c, 0, 87, 0
1, 194106, Note_on_c, 0, 77, 38
1, 194106, Note_on_c, 0, 48, 32
1, 194202, Note_off_c, 0, 32, 0
1, 194298, Note_off_c, 0, 86, 0
1, 194298, Note_on_c, 0, 75, 37
1, 194298, Note_on_c, 0, 51, 32
1, 194394, Note_off_c, 0, 39, 0
1, 194490, Note_off_c, 0, 82, 0
1, 194490, Note_on_c, 0, 74, 37
1, 194490, Note_on_c, 0, 55, 32
1, 194586, Note_off_c, 0, 44, 0
1, 194682, Note_off_c, 0, 77, 0
1, 194682, Note_on_c, 0, 56, 32
1, 194778, Note_off_c, 0, 48, 0
1, 194874, Note_off_c, 0, 75, 0
1, 194874, Note_on_c, 0, 65, 36
1, 194970, Note_off_c, 0, 51, 0
1, 195066, Note_off_c, 0, 74, 0
1, 195162, Note_off_c, 0, 55, 0
1, 195258, Note_off_c, 0, 70, 0
1, 195258, Note_on_c, 0, 70, 38
1, 195258, Note_on_c, 0, 70, 38
1, 195258, Note_on_c, 0, 41, 29
1, 195450, Note_on_c, 0, 79, 38
1, 195450, Note_on_c, 0, 46, 32
1, 195450, Note_on_c, 0, 46, 32
1, 195546, Note_off_c, 0, 56, 0
1, 195642, Note_off_c, 0, 65, 0
1, 195738, Note_off_c, 0, 46, 0
1, 195834, Note_off_c, 0, 70, 0
1, 195834, Note_on_c, 0, 74, 38
1, 195834, Note_on_c, 0, 50, 30
1, 195930, Note_off_c, 0, 41, 0
1, 196026, Note_off_c, 0, 79, 0
1, 196026, Note_on_c, 0, 75, 38
1, 196218, Note_off_c, 0, 75, 0
1, 196218, Note_on_c, 0, 58, 35
1, 196314, Note_off_c, 0, 46, 0
1, 196314, Note_on_c, 0, 84, 38
1, 196410, Note_off_c, 0, 74, 0
1, 196410, Note_on_c, 0, 82, 37
1, 196410, Note_on_c, 0, 82, 37
1, 196602, Note_off_c, 0, 75, 0
1, 196602, Note_on_c, 0, 75, 37
1, 196602, Note_on_c, 0, 75, 37
1, 196602, Note_on_c, 0, 51, 32
1, 196602, Note_on_c, 0, 75, 36
1, 196602, Note_on_c, 0, 87, 30
1, 196698, Note_off_c, 0, 82, 0
1, 196698, Note_off_c, 0, 50, 0
1, 196794, Note_off_c, 0, 84, 0
1, 196890, Note_off_c, 0, 82, 0
1, 197082, Note_off_c, 0, 58, 0
1, 197178, Note_off_c, 0, 87, 0
1, 197178, Note_off_c, 0, 75, 0
1, 197178, Note_off_c, 0, 75, 0
1, 197178, Note_on_c, 0, 74, 36
1, 197178, Note_on_c, 0, 50, 32
1, 197178, Note_on_c, 0, 86, 30
1, 197178, Note_on_c, 0, 74, 36
1, 197370, Note_off_c, 0, 67, 0
1, 197370, Note_on_c, 0, 67, 36
1, 197562, Note_off_c, 0, 72, 0
1, 197562, Note_on_c, 0, 72, 35
1, 197658, Note_off_c, 0, 51, 0
1, 197754, Note_off_c, 0, 74, 0
1, 197754, Note_off_c, 0, 86, 0
1, 197754, Note_off_c, 0, 74, 0
1, 197754, Note_on_c, 0, 75, 35
1, 197754, Note_on_c, 0, 46, 32
1, 197754, Note_on_c, 0, 82, 30
1, 197754, Note_on_c, 0, 70, 36
1, 197946, Note_off_c, 0, 67, 0
1, 197946, Note_on_c, 0, 67, 35
1, 197946, Note_on_c, 0, 67, 35
1, 198138, Note_off_c, 0, 72, 0
1, 198138, Note_on_c, 0, 72, 33
1, 198234, Note_off_c, 0, 50, 0
1, 198330, Note_off_c, 0, 70, 0
1, 198330, Note_off_c, 0, 82, 0
1, 198330, Note_off_c, 0, 75, 0
1, 198330, Note_on_c, 0, 79, 33
1, 198330, Note_on_c, 0, 51, 32
1, 198330, Note_on_c, 0, 87, 30
1, 198330, Note_on_c, 0, 75, 36
1, 198522, Note_off_c, 0, 67, 0
1, 198522, Note_on_c, 0, 72, 32
1, 198522, Note_on_c, 0, 72, 32
1, 198714, Note_off_c, 0, 72, 0
1, 198810, Note_off_c, 0, 46, 0
1, 198906, Note_off_c, 0, 75, 0
1, 198906, Note_off_c, 0, 87, 0
1, 198906, Note_off_c, 0, 79, 0
1, 198906, Note_on_c, 0, 50, 32
1, 198906, Note_on_c, 0, 74, 36
1, 198906, Note_on_c, 0, 86, 30
1, 199098, Note_off_c, 0, 72, 0
1, 199098, Note_on_c, 0, 75, 35
1, 199098, Note_on_c, 0, 75, 35
1, 199290, Note_off_c, 0, 75, 0
1, 199290, Note_off_c, 0, 86, 0
1, 199290, Note_off_c, 0, 74, 0
1, 199290, Note_on_c, 0, 84, 35
1, 199290, Note_on_c, 0, 84, 35
1, 199290, Note_on_c, 0, 46, 32
1, 199290, Note_on_c, 0, 70, 36
1, 199290, Note_on_c, 0, 82, 30
1, 199386, Note_off_c, 0, 51, 0
1, 199482, Note_off_c, 0, 84, 0
1, 199482, Note_on_c, 0, 86, 33
1, 199674, Note_off_c, 0, 75, 0
1, 199674, Note_on_c, 0, 87, 37
1, 199674, Note_on_c, 0, 32, 19
1, 199770, Note_off_c, 0, 50, 0
1, 199866, Note_off_c, 0, 82, 0
1, 199866, Note_off_c, 0, 70, 0
1, 199866, Note_off_c, 0, 84, 0
1, 199866, Note_on_c, 0, 75, 38
1, 199866, Note_on_c, 0, 34, 22
1, 199866, Note_on_c, 0, 75, 28
1, 199866, Note_on_c, 0, 63, 35
1, 200058, Note_off_c, 0, 86, 0
1, 200058, Note_on_c, 0, 72, 38
1, 200058, Note_on_c, 0, 84, 38
1, 200058, Note_on_c, 0, 39, 27
1, 200154, Note_off_c, 0, 46, 0
1, 200250, Note_off_c, 0, 87, 0
1, 200250, Note_on_c, 0, 79, 38
1, 200250, Note_on_c, 0, 91, 38
1, 200250, Note_on_c, 0, 44, 30
1, 200346, Note_off_c, 0, 32, 0
1, 200442, Note_off_c, 0, 75, 0
1, 200442, Note_on_c, 0, 46, 31
1, 200538, Note_off_c, 0, 34, 0
1, 200634, Note_off_c, 0, 84, 0
1, 200634, Note_off_c, 0, 72, 0
1, 200634, Note_on_c, 0, 89, 37
1, 200634, Note_on_c, 0, 77, 37
1, 200634, Note_on_c, 0, 48, 34
1, 200730, Note_off_c, 0, 39, 0
1, 200826, Note_on_c, 0, 55, 34
1, 200922, Note_off_c, 0, 44, 0
1, 201018, Note_off_c, 0, 91, 0
1, 201018, Note_off_c, 0, 79, 0
1, 201018, Note_on_c, 0, 86, 37
1, 201018, Note_on_c, 0, 74, 37
1, 201018, Note_on_c, 0, 56, 34
1, 201114, Note_off_c, 0, 46, 0
1, 201210, Note_off_c, 0, 48, 0
1, 201210, Note_off_c, 0, 63, 0
1, 201210, Note_off_c, 0, 75, 0
1, 201210, Note_on_c, 0, 74, 35
1, 201210, Note_on_c, 0, 62, 35
1, 201402, Note_off_c, 0, 55, 0
1, 201402, Note_off_c, 0, 77, 0
1, 201402, Note_off_c, 0, 89, 0
1, 201786, Note_off_c, 0, 86, 0
1, 201978, Note_off_c, 0, 74, 0
1, 202362, Note_off_c, 0, 62, 0
1, 202362, Note_off_c, 0, 74, 0
1, 202362, Note_off_c, 0, 56, 0
1, 202746, Note_off_c, 0, 81, 0
1, 202746, Note_on_c, 0, 74, 36
1, 202746, Note_on_c, 0, 62, 28
1, 202746, Note_on_c, 0, 50, 37
1, 202746, Note_on_c, 0, 74, 22
1, 202746, Note_on_c, 0, 77, 31
1, 202746, Note_on_c, 0, 69, 31
1, 202746, Note_on_c, 0, 81, 39
1, 202938, Note_off_c, 0, 77, 0
1, 202938, Note_on_c, 0, 38, 35
1, 202938, Note_on_c, 0, 77, 39
1, 203130, Note_off_c, 0, 74, 0
1, 203130, Note_off_c, 0, 38, 0
1, 203130, Note_on_c, 0, 74, 39
1, 203226, Note_off_c, 0, 50, 0
1, 203322, Note_off_c, 0, 81, 0
1, 203322, Note_off_c, 0, 62, 0
1, 203322, Note_off_c, 0, 74, 0
1, 203322, Note_on_c, 0, 50, 28
1, 203322, Note_on_c, 0, 62, 39
1, 203322, Note_on_c, 0, 38, 37
1, 203322, Note_on_c, 0, 50, 24
1, 203322, Note_on_c, 0, 81, 39
1, 203514, Note_off_c, 0, 77, 0
1, 203514, Note_off_c, 0, 38, 0
1, 203514, Note_on_c, 0, 77, 39
1, 203706, Note_off_c, 0, 74, 0
1, 203706, Note_on_c, 0, 38, 37
1, 203706, Note_on_c, 0, 74, 39
1, 203802, Note_off_c, 0, 50, 0
1, 203898, Note_off_c, 0, 81, 0
1, 203898, Note_off_c, 0, 38, 0
1, 203898, Note_off_c, 0, 62, 0
1, 203898, Note_off_c, 0, 50, 0
1, 203898, Note_on_c, 0, 53, 28
1, 203898, Note_on_c, 0, 65, 39
1, 203898, Note_on_c, 0, 50, 29
1, 203898, Note_on_c, 0, 81, 39
1, 204090, Note_off_c, 0, 77, 0
1, 204090, Note_on_c, 0, 38, 37
1, 204090, Note_on_c, 0, 77, 39
1, 204282, Note_off_c, 0, 74, 0
1, 204282, Note_off_c, 0, 38, 0
1, 204282, Note_on_c, 0, 74, 39
1, 204378, Note_off_c, 0, 50, 0
1, 204474, Note_off_c, 0, 81, 0
1, 204474, Note_off_c, 0, 65, 0
1, 204474, Note_off_c, 0, 53, 0
1, 204474, Note_on_c, 0, 57, 27
1, 204474, Note_on_c, 0, 69, 38
1, 204474, Note_on_c, 0, 38, 37
1, 204474, Note_on_c, 0, 50, 29
1, 204474, Note_on_c, 0, 81, 39
1, 204666, Note_off_c, 0, 38, 0
1, 204858, Note_on_c, 0, 38, 37
1, 204954, Note_off_c, 0, 50, 0
1, 205050, Note_off_c, 0, 38, 0
1, 205050, Note_off_c, 0, 69, 0
1, 205050, Note_off_c, 0, 57, 0
1, 205050, Note_on_c, 0, 62, 27
1, 205050, Note_on_c, 0, 74, 38
1, 205050, Note_on_c, 0, 50, 29
1, 205242, Note_on_c, 0, 38, 37
1, 205434, Note_off_c, 0, 38, 0
1, 205434, Note_off_c, 0, 50, 0
1, 205434, Note_off_c, 0, 74, 0
1, 205434, Note_off_c, 0, 62, 0
1, 205434, Note_on_c, 0, 64, 27
1, 205434, Note_on_c, 0, 76, 38
1, 205434, Note_on_c, 0, 50, 29
1, 205626, Note_on_c, 0, 38, 37
1, 205818, Note_off_c, 0, 77, 0
1, 205818, Note_off_c, 0, 38, 0
1, 205818, Note_off_c, 0, 50, 0
1, 205818, Note_off_c, 0, 76, 0
1, 205818, Note_off_c, 0, 64, 0
1, 205818, Note_off_c, 0, 69, 0
1, 205818, Note_off_c, 0, 77, 0
1, 205818, Note_off_c, 0, 74, 0
1, 205818, Note_on_c, 0, 65, 27
1, 205818, Note_on_c, 0, 77, 38
1, 205818, Note_on_c, 0, 46, 29
1, 205818, Note_on_c, 0, 77, 22
1, 205818, Note_on_c, 0, 74, 31
1, 205818, Note_on_c, 0, 70, 31
1, 205818, Note_on_c, 0, 77, 39
1, 206010, Note_off_c, 0, 74, 0
1, 206010, Note_on_c, 0, 34, 37
1, 206010, Note_on_c, 0, 74, 39
1, 206202, Note_off_c, 0, 70, 0
1, 206202, Note_off_c, 0, 34, 0
1, 206202, Note_on_c, 0, 70, 39
1, 206298, Note_off_c, 0, 46, 0
1, 206394, Note_off_c, 0, 77, 0
1, 206394, Note_off_c, 0, 77, 0
1, 206394, Note_off_c, 0, 65, 0
1, 206394, Note_on_c, 0, 64, 27
1, 206394, Note_on_c, 0, 76, 38
1, 206394, Note_on_c, 0, 34, 37
1, 206394, Note_on_c, 0, 46, 29
1, 206394, Note_on_c, 0, 82, 22
1, 206394, Note_on_c, 0, 77, 39
1, 206586, Note_off_c, 0, 74, 0
1, 206586, Note_off_c, 0, 34, 0
1, 206586, Note_on_c, 0, 74, 39
1, 206778, Note_off_c, 0, 70, 0
1, 206778, Note_on_c, 0, 34, 37
1, 206778, Note_on_c, 0, 70, 39
1, 206874, Note_off_c, 0, 46, 0
1, 206970, Note_off_c, 0, 79, 0
1, 206970, Note_off_c, 0, 34, 0
1, 206970, Note_off_c, 0, 82, 0
1, 206970, Note_off_c, 0, 76, 0
1, 206970, Note_off_c, 0, 64, 0
1, 206970, Note_off_c, 0, 70, 0
1, 206970, Note_off_c, 0, 74, 0
1, 206970, Note_off_c, 0, 77, 0
1, 206970, Note_on_c, 0, 60, 27
1, 206970, Note_on_c, 0, 72, 38
1, 206970, Note_on_c, 0, 48, 29
1, 206970, Note_on_c, 0, 79, 31
1, 206970, Note_on_c, 0, 84, 22
1, 206970, Note_on_c, 0, 72, 22
1, 206970, Note_on_c, 0, 76, 31
1, 206970, Note_on_c, 0, 79, 39
1, 207162, Note_off_c, 0, 76, 0
1, 207162, Note_on_c, 0, 36, 37
1, 207162, Note_on_c, 0, 76, 39
1, 207354, Note_off_c, 0, 72, 0
1, 207354, Note_off_c, 0, 36, 0
1, 207354, Note_on_c, 0, 72, 39
1, 207450, Note_off_c, 0, 48, 0
1, 207546, Note_off_c, 0, 79, 0
1, 207546, Note_off_c, 0, 72, 0
1, 207546, Note_off_c, 0, 60, 0
1, 207546, Note_on_c, 0, 55, 27
1, 207546, Note_on_c, 0, 67, 38
1, 207546, Note_on_c, 0, 36, 37
1, 207546, Note_on_c, 0, 48, 29
1, 207546, Note_on_c, 0, 79, 39
1, 207738, Note_off_c, 0, 76, 0
1, 207738, Note_off_c, 0, 36, 0
1, 207738, Note_on_c, 0, 76, 39
1, 207930, Note_off_c, 0, 79, 0
1, 207930, Note_on_c, 0, 36, 37
1, 207930, Note_on_c, 0, 79, 39
1, 208026, Note_off_c, 0, 48, 0
1, 208122, Note_off_c, 0, 82, 0
1, 208122, Note_off_c, 0, 48, 0
1, 208122, Note_off_c, 0, 36, 0
1, 208122, Note_off_c, 0, 67, 0
1, 208122, Note_off_c, 0, 55, 0
1, 208122, Note_on_c, 0, 65, 38
1, 208122, Note_on_c, 0, 53, 27
1, 208122, Note_on_c, 0, 48, 33
1, 208122, Note_on_c, 0, 82, 39
1, 208218, Note_off_c, 0, 48, 0
1, 208218, Note_on_c, 0, 48, 33
1, 208314, Note_off_c, 0, 48, 0
1, 208314, Note_on_c, 0, 48, 33
1, 208314, Note_on_c, 0, 36, 37
1, 208410, Note_off_c, 0, 48, 0
1, 208410, Note_on_c, 0, 48, 33
1, 208506, Note_off_c, 0, 81, 0
1, 208506, Note_off_c, 0, 48, 0
1, 208506, Note_off_c, 0, 36, 0
1, 208506, Note_off_c, 0, 53, 0
1, 208506, Note_off_c, 0, 65, 0
1, 208506, Note_on_c, 0, 67, 38
1, 208506, Note_on_c, 0, 55, 27
1, 208506, Note_on_c, 0, 48, 33
1, 208506, Note_on_c, 0, 81, 39
1, 208602, Note_off_c, 0, 48, 0
1, 208602, Note_on_c, 0, 48, 33
1, 208698, Note_off_c, 0, 79, 0
1, 208698, Note_off_c, 0, 48, 0
1, 208698, Note_on_c, 0, 48, 33
1, 208698, Note_on_c, 0, 36, 37
1, 208698, Note_on_c, 0, 79, 39
1, 208794, Note_off_c, 0, 48, 0
1, 208794, Note_on_c, 0, 48, 33
1, 208890, Note_off_c, 0, 81, 0
1, 208890, Note_off_c, 0, 36, 0
1, 208890, Note_off_c, 0, 55, 0
1, 208890, Note_off_c, 0, 67, 0
1, 208890, Note_off_c, 0, 76, 0
1, 208890, Note_off_c, 0, 72, 0
1, 208890, Note_off_c, 0, 84, 0
1, 208890, Note_off_c, 0, 79, 0
1, 208890, Note_on_c, 0, 57, 27
1, 208890, Note_on_c, 0, 69, 38
1, 208890, Note_on_c, 0, 50, 29
1, 208890, Note_on_c, 0, 77, 31
1, 208890, Note_on_c, 0, 74, 22
1, 208890, Note_on_c, 0, 69, 31
1, 208890, Note_on_c, 0, 81, 39
1, 209082, Note_off_c, 0, 77, 0
1, 209082, Note_on_c, 0, 38, 37
1, 209082, Note_on_c, 0, 77, 39
1, 209274, Note_off_c, 0, 74, 0
1, 209274, Note_off_c, 0, 38, 0
1, 209274, Note_on_c, 0, 74, 39
1, 209370, Note_off_c, 0, 50, 0
1, 209466, Note_off_c, 0, 81, 0
1, 209466, Note_off_c, 0, 69, 0
1, 209466, Note_off_c, 0, 57, 0
1, 209466, Note_on_c, 0, 50, 27
1, 209466, Note_on_c, 0, 62, 38
1, 209466, Note_on_c, 0, 38, 37
1, 209466, Note_on_c, 0, 50, 29
1, 209466, Note_on_c, 0, 81, 39
1, 209658, Note_off_c, 0, 77, 0
1, 209658, Note_off_c, 0, 38, 0
1, 209658, Note_on_c, 0, 77, 39
1, 209850, Note_off_c, 0, 74, 0
1, 209850, Note_on_c, 0, 38, 37
1, 209850, Note_on_c, 0, 74, 39
1, 209946, Note_off_c, 0, 50, 0
1, 210042, Note_off_c, 0, 81, 0
1, 210042, Note_off_c, 0, 38, 0
1, 210042, Note_off_c, 0, 62, 0
1, 210042, Note_off_c, 0, 50, 0
1, 210042, Note_on_c, 0, 53, 27
1, 210042, Note_on_c, 0, 65, 38
1, 210042, Note_on_c, 0, 50, 29
1, 210042, Note_on_c, 0, 81, 39
1, 210234, Note_off_c, 0, 77, 0
1, 210234, Note_on_c, 0, 38, 37
1, 210234, Note_on_c, 0, 77, 39
1, 210426, Note_off_c, 0, 74, 0
1, 210426, Note_off_c, 0, 38, 0
1, 210426, Note_on_c, 0, 74, 39
1, 210522, Note_off_c, 0, 50, 0
1, 210618, Note_off_c, 0, 81, 0
1, 210618, Note_off_c, 0, 65, 0
1, 210618, Note_off_c, 0, 53, 0
1, 210618, Note_on_c, 0, 57, 27
1, 210618, Note_on_c, 0, 69, 38
1, 210618, Note_on_c, 0, 38, 37
1, 210618, Note_on_c, 0, 50, 29
1, 210618, Note_on_c, 0, 81, 39
1, 210810, Note_off_c, 0, 77, 0
1, 210810, Note_off_c, 0, 38, 0
1, 210810, Note_on_c, 0, 77, 39
1, 211002, Note_off_c, 0, 81, 0
1, 211002, Note_on_c, 0, 38, 37
1, 211002, Note_on_c, 0, 81, 39
1, 211194, Note_off_c, 0, 82, 0
1, 211194, Note_off_c, 0, 38, 0
1, 211194, Note_off_c, 0, 69, 0
1, 211194, Note_off_c, 0, 57, 0
1, 211194, Note_on_c, 0, 62, 27
1, 211194, Note_on_c, 0, 74, 38
1, 211194, Note_on_c, 0, 82, 39
1, 211290, Note_off_c, 0, 50, 0
1, 211386, Note_off_c, 0, 50, 0
1, 211386, Note_on_c, 0, 50, 33
1, 211386, Note_on_c, 0, 38, 37
1, 211482, Note_off_c, 0, 50, 0
1, 211482, Note_on_c, 0, 50, 33
1, 211578, Note_off_c, 0, 81, 0
1, 211578, Note_off_c, 0, 50, 0
1, 211578, Note_off_c, 0, 38, 0
1, 211578, Note_off_c, 0, 74, 0
1, 211578, Note_off_c, 0, 62, 0
1, 211578, Note_on_c, 0, 64, 27
1, 211578, Note_on_c, 0, 76, 38
1, 211578, Note_on_c, 0, 50, 33
1, 211578, Note_on_c, 0, 81, 39
1, 211674, Note_off_c, 0, 50, 0
1, 211674, Note_on_c, 0, 50, 33
1, 211770, Note_off_c, 0, 50, 0
1, 211770, Note_on_c, 0, 50, 33
1, 211770, Note_on_c, 0, 38, 37
1, 211866, Note_off_c, 0, 50, 0
1, 211866, Note_on_c, 0, 50, 33
1, 211962, Note_off_c, 0, 77, 0
1, 211962, Note_off_c, 0, 38, 0
1, 211962, Note_off_c, 0, 76, 0
1, 211962, Note_off_c, 0, 64, 0
1, 211962, Note_off_c, 0, 69, 0
1, 211962, Note_off_c, 0, 74, 0
1, 211962, Note_off_c, 0, 77, 0
1, 211962, Note_on_c, 0, 65, 27
1, 211962, Note_on_c, 0, 77, 38
1, 211962, Note_on_c, 0, 46, 29
1, 211962, Note_on_c, 0, 77, 22
1, 211962, Note_on_c, 0, 74, 31
1, 211962, Note_on_c, 0, 70, 31
1, 211962, Note_on_c, 0, 77, 39
1, 212154, Note_off_c, 0, 74, 0
1, 212154, Note_on_c, 0, 34, 37
1, 212154, Note_on_c, 0, 74, 39
1, 212346, Note_off_c, 0, 70, 0
1, 212346, Note_off_c, 0, 34, 0
1, 212346, Note_on_c, 0, 70, 39
1, 212442, Note_off_c, 0, 46, 0
1, 212538, Note_off_c, 0, 77, 0
1, 212538, Note_off_c, 0, 77, 0
1, 212538, Note_off_c, 0, 65, 0
1, 212538, Note_on_c, 0, 69, 27
1, 212538, Note_on_c, 0, 81, 38
1, 212538, Note_on_c, 0, 34, 37
1, 212538, Note_on_c, 0, 46, 29
1, 212538, Note_on_c, 0, 77, 39
1, 212730, Note_off_c, 0, 74, 0
1, 212730, Note_off_c, 0, 34, 0
1, 212730, Note_on_c, 0, 74, 39
1, 212922, Note_off_c, 0, 70, 0
1, 212922, Note_on_c, 0, 34, 37
1, 212922, Note_on_c, 0, 70, 39
1, 213018, Note_off_c, 0, 46, 0
1, 213114, Note_off_c, 0, 76, 0
1, 213114, Note_off_c, 0, 34, 0
1, 213114, Note_off_c, 0, 81, 0
1, 213114, Note_off_c, 0, 69, 0
1, 213114, Note_off_c, 0, 70, 0
1, 213114, Note_off_c, 0, 74, 0
1, 213114, Note_off_c, 0, 77, 0
1, 213114, Note_on_c, 0, 67, 27
1, 213114, Note_on_c, 0, 79, 38
1, 213114, Note_on_c, 0, 48, 29
1, 213114, Note_on_c, 0, 67, 22
1, 213114, Note_on_c, 0, 76, 31
1, 213114, Note_on_c, 0, 72, 31
1, 213114, Note_on_c, 0, 76, 39
1, 213306, Note_off_c, 0, 72, 0
1, 213306, Note_on_c, 0, 36, 37
1, 213306, Note_on_c, 0, 72, 39
1, 213498, Note_off_c, 0, 67, 0
1, 213498, Note_off_c, 0, 36, 0
1, 213498, Note_on_c, 0, 67, 39
1, 213594, Note_off_c, 0, 48, 0
1, 213690, Note_off_c, 0, 79, 0
1, 213690, Note_off_c, 0, 67, 0
1, 213690, Note_on_c, 0, 65, 27
1, 213690, Note_on_c, 0, 77, 38
1, 213690, Note_on_c, 0, 36, 37
1, 213690, Note_on_c, 0, 48, 29
1, 213882, Note_off_c, 0, 36, 0
1, 214074, Note_off_c, 0, 72, 0
1, 214074, Note_on_c, 0, 36, 37
1, 214074, Note_on_c, 0, 72, 36
1, 214170, Note_off_c, 0, 48, 0
1, 214266, Note_off_c, 0, 76, 0
1, 214266, Note_off_c, 0, 48, 0
1, 214266, Note_off_c, 0, 36, 0
1, 214266, Note_off_c, 0, 77, 0
1, 214266, Note_off_c, 0, 65, 0
1, 214266, Note_on_c, 0, 70, 27
1, 214266, Note_on_c, 0, 82, 38
1, 214266, Note_on_c, 0, 48, 32
1, 214266, Note_on_c, 0, 36, 37
1, 214266, Note_on_c, 0, 76, 35
1, 214362, Note_off_c, 0, 48, 0
1, 214362, Note_on_c, 0, 48, 32
1, 214458, Note_off_c, 0, 67, 0
1, 214458, Note_off_c, 0, 48, 0
1, 214458, Note_on_c, 0, 48, 32
1, 214458, Note_on_c, 0, 67, 38
1, 214554, Note_off_c, 0, 48, 0
1, 214554, Note_on_c, 0, 48, 32
1, 214650, Note_off_c, 0, 72, 0
1, 214650, Note_off_c, 0, 48, 0
1, 214650, Note_off_c, 0, 36, 0
1, 214650, Note_off_c, 0, 82, 0
1, 214650, Note_off_c, 0, 70, 0
1, 214650, Note_on_c, 0, 69, 27
1, 214650, Note_on_c, 0, 81, 38
1, 214650, Note_on_c, 0, 48, 32
1, 214650, Note_on_c, 0, 36, 37
1, 214650, Note_on_c, 0, 72, 33
1, 214746, Note_off_c, 0, 48, 0
1, 214746, Note_on_c, 0, 48, 32
1, 214842, Note_off_c, 0, 67, 0
1, 214842, Note_off_c, 0, 48, 0
1, 214842, Note_on_c, 0, 48, 32
1, 214842, Note_on_c, 0, 67, 35
1, 214938, Note_off_c, 0, 48, 0
1, 214938, Note_on_c, 0, 48, 32
1, 215034, Note_off_c, 0, 71, 0
1, 215034, Note_off_c, 0, 83, 0
1, 215034, Note_off_c, 0, 29, 0
1, 215034, Note_off_c, 0, 36, 0
1, 215034, Note_off_c, 0, 81, 0
1, 215034, Note_off_c, 0, 69, 0
1, 215034, Note_off_c, 0, 72, 0
1, 215034, Note_off_c, 0, 76, 0
1, 215034, Note_off_c, 0, 67, 0
1, 215034, Note_on_c, 0, 76, 35
1, 215034, Note_on_c, 0, 64, 27
1, 215034, Note_on_c, 0, 29, 29
1, 215034, Note_on_c, 0, 71, 30
1, 215034, Note_on_c, 0, 76, 22
1, 215034, Note_on_c, 0, 79, 30
1, 215034, Note_on_c, 0, 83, 30
1, 215034, Note_on_c, 0, 71, 39
1, 215226, Note_off_c, 0, 79, 0
1, 215226, Note_off_c, 0, 67, 0
1, 215226, Note_on_c, 0, 40, 35
1, 215226, Note_on_c, 0, 67, 39
1, 215226, Note_on_c, 0, 79, 30
1, 215418, Note_off_c, 0, 76, 0
1, 215418, Note_off_c, 0, 64, 0
1, 215418, Note_off_c, 0, 29, 0
1, 215418, Note_off_c, 0, 40, 0
1, 215418, Note_on_c, 0, 29, 29
1, 215418, Note_on_c, 0, 64, 39
1, 215418, Note_on_c, 0, 76, 30
1, 215610, Note_off_c, 0, 83, 0
1, 215610, Note_off_c, 0, 71, 0
1, 215610, Note_off_c, 0, 64, 0
1, 215610, Note_off_c, 0, 76, 0
1, 215610, Note_on_c, 0, 52, 27
1, 215610, Note_on_c, 0, 64, 38
1, 215610, Note_on_c, 0, 40, 35
1, 215610, Note_on_c, 0, 71, 39
1, 215610, Note_on_c, 0, 83, 30
1, 215802, Note_off_c, 0, 79, 0
1, 215802, Note_off_c, 0, 67, 0
1, 215802, Note_off_c, 0, 29, 0
1, 215802, Note_off_c, 0, 40, 0
1, 215802, Note_on_c, 0, 29, 29
1, 215802, Note_on_c, 0, 67, 39
1, 215802, Note_on_c, 0, 79, 30
1, 215994, Note_off_c, 0, 76, 0
1, 215994, Note_off_c, 0, 64, 0
1, 215994, Note_on_c, 0, 40, 35
1, 215994, Note_on_c, 0, 64, 39
1, 215994, Note_on_c, 0, 76, 30
1, 216186, Note_off_c, 0, 71, 0
1, 216186, Note_off_c, 0, 83, 0
1, 216186, Note_off_c, 0, 29, 0
1, 216186, Note_off_c, 0, 40, 0
1, 216186, Note_off_c, 0, 64, 0
1, 216186, Note_off_c, 0, 52, 0
1, 216186, Note_on_c, 0, 67, 38
1, 216186, Note_on_c, 0, 55, 27
1, 216186, Note_on_c, 0, 29, 29
1, 216186, Note_on_c, 0, 83, 30
1, 216186, Note_on_c, 0, 71, 39
1, 216378, Note_off_c, 0, 79, 0
1, 216378, Note_off_c, 0, 67, 0
1, 216378, Note_on_c, 0, 40, 35
1, 216378, Note_on_c, 0, 67, 39
1, 216378, Note_on_c, 0, 79, 30
1, 216570, Note_off_c, 0, 76, 0
1, 216570, Note_off_c, 0, 64, 0
1, 216570, Note_off_c, 0, 29, 0
1, 216570, Note_off_c, 0, 40, 0
1, 216570, Note_on_c, 0, 29, 29
1, 216570, Note_on_c, 0, 64, 39
1, 216570, Note_on_c, 0, 76, 30
1, 216762, Note_off_c, 0, 71, 0
1, 216762, Note_off_c, 0, 83, 0
1, 216762, Note_off_c, 0, 55, 0
1, 216762, Note_off_c, 0, 67, 0
1, 216762, Note_on_c, 0, 71, 35
1, 216762, Note_on_c, 0, 59, 25
1, 216762, Note_on_c, 0, 40, 35
1, 216762, Note_on_c, 0, 83, 30
1, 216762, Note_on_c, 0, 71, 39
1, 216954, Note_off_c, 0, 79, 0
1, 216954, Note_off_c, 0, 67, 0
1, 216954, Note_off_c, 0, 29, 0
1, 216954, Note_off_c, 0, 40, 0
1, 216954, Note_on_c, 0, 29, 29
1, 216954, Note_on_c, 0, 67, 39
1, 216954, Note_on_c, 0, 79, 30
1, 217146, Note_off_c, 0, 83, 0
1, 217146, Note_off_c, 0, 71, 0
1, 217146, Note_on_c, 0, 40, 35
1, 217146, Note_on_c, 0, 71, 39
1, 217146, Note_on_c, 0, 83, 30
1, 217338, Note_off_c, 0, 72, 0
1, 217338, Note_off_c, 0, 84, 0
1, 217338, Note_off_c, 0, 29, 0
1, 217338, Note_off_c, 0, 40, 0
1, 217338, Note_off_c, 0, 59, 0
1, 217338, Note_off_c, 0, 71, 0
1, 217338, Note_on_c, 0, 76, 36
1, 217338, Note_on_c, 0, 64, 25
1, 217338, Note_on_c, 0, 29, 29
1, 217338, Note_on_c, 0, 84, 30
1, 217338, Note_on_c, 0, 72, 39
1, 217530, Note_on_c, 0, 40, 35
1, 217722, Note_off_c, 0, 71, 0
1, 217722, Note_off_c, 0, 83, 0
1, 217722, Note_off_c, 0, 29, 0
1, 217722, Note_off_c, 0, 40, 0
1, 217722, Note_off_c, 0, 64, 0
1, 217722, Note_off_c, 0, 76, 0
1, 217722, Note_on_c, 0, 78, 36
1, 217722, Note_on_c, 0, 66, 25
1, 217722, Note_on_c, 0, 29, 29
1, 217722, Note_on_c, 0, 83, 30
1, 217722, Note_on_c, 0, 71, 39
1, 217914, Note_off_c, 0, 76, 0
1, 217914, Note_off_c, 0, 64, 0
1, 217914, Note_on_c, 0, 40, 35
1, 217914, Note_on_c, 0, 64, 39
1, 217914, Note_on_c, 0, 76, 30
1, 218106, Note_off_c, 0, 67, 0
1, 218106, Note_off_c, 0, 79, 0
1, 218106, Note_off_c, 0, 25, 0
1, 218106, Note_off_c, 0, 40, 0
1, 218106, Note_off_c, 0, 66, 0
1, 218106, Note_off_c, 0, 78, 0
1, 218106, Note_off_c, 0, 79, 0
1, 218106, Note_off_c, 0, 76, 0
1, 218106, Note_off_c, 0, 71, 0
1, 218106, Note_on_c, 0, 67, 25
1, 218106, Note_on_c, 0, 79, 36
1, 218106, Note_on_c, 0, 25, 29
1, 218106, Note_on_c, 0, 72, 30
1, 218106, Note_on_c, 0, 79, 22
1, 218106, Note_on_c, 0, 76, 30
1, 218106, Note_on_c, 0, 79, 30
1, 218106, Note_on_c, 0, 67, 39
1, 218298, Note_off_c, 0, 76, 0
1, 218298, Note_off_c, 0, 64, 0
1, 218298, Note_on_c, 0, 36, 35
1, 218298, Note_on_c, 0, 64, 39
1, 218298, Note_on_c, 0, 76, 30
1, 218490, Note_off_c, 0, 72, 0
1, 218490, Note_off_c, 0, 60, 0
1, 218490, Note_off_c, 0, 25, 0
1, 218490, Note_off_c, 0, 36, 0
1, 218490, Note_on_c, 0, 25, 29
1, 218490, Note_on_c, 0, 60, 39
1, 218490, Note_on_c, 0, 72, 30
1, 218682, Note_off_c, 0, 67, 0
1, 218682, Note_off_c, 0, 79, 0
1, 218682, Note_off_c, 0, 79, 0
1, 218682, Note_off_c, 0, 67, 0
1, 218682, Note_on_c, 0, 78, 36
1, 218682, Note_on_c, 0, 66, 25
1, 218682, Note_on_c, 0, 36, 35
1, 218682, Note_on_c, 0, 84, 22
1, 218682, Note_on_c, 0, 79, 30
1, 218682, Note_on_c, 0, 67, 39
1, 218874, Note_off_c, 0, 76, 0
1, 218874, Note_off_c, 0, 64, 0
1, 218874, Note_off_c, 0, 25, 0
1, 218874, Note_off_c, 0, 36, 0
1, 218874, Note_on_c, 0, 25, 29
1, 218874, Note_on_c, 0, 64, 39
1, 218874, Note_on_c, 0, 76, 30
1, 219066, Note_off_c, 0, 72, 0
1, 219066, Note_off_c, 0, 60, 0
1, 219066, Note_on_c, 0, 36, 35
1, 219066, Note_on_c, 0, 60, 39
1, 219066, Note_on_c, 0, 72, 30
1, 219258, Note_off_c, 0, 69, 0
1, 219258, Note_off_c, 0, 81, 0
1, 219258, Note_off_c, 0, 27, 0
1, 219258, Note_off_c, 0, 36, 0
1, 219258, Note_off_c, 0, 84, 0
1, 219258, Note_off_c, 0, 66, 0
1, 219258, Note_off_c, 0, 78, 0
1, 219258, Note_off_c, 0, 76, 0
1, 219258, Note_off_c, 0, 79, 0
1, 219258, Note_off_c, 0, 72, 0
1, 219258, Note_on_c, 0, 62, 25
1, 219258, Note_on_c, 0, 74, 36
1, 219258, Note_on_c, 0, 27, 29
1, 219258, Note_on_c, 0, 78, 30
1, 219258, Note_on_c, 0, 81, 30
1, 219258, Note_on_c, 0, 86, 22
1, 219258, Note_on_c, 0, 74, 22
1, 219258, Note_on_c, 0, 81, 30
1, 219258, Note_on_c, 0, 69, 39
1, 219450, Note_off_c, 0, 78, 0
1, 219450, Note_off_c, 0, 66, 0
1, 219450, Note_on_c, 0, 38, 35
1, 219450, Note_on_c, 0, 66, 39
1, 219450, Note_on_c, 0, 78, 30
1, 219642, Note_off_c, 0, 74, 0
1, 219642, Note_off_c, 0, 62, 0
1, 219642, Note_off_c, 0, 27, 0
1, 219642, Note_off_c, 0, 38, 0
1, 219642, Note_on_c, 0, 27, 29
1, 219642, Note_on_c, 0, 62, 39
1, 219642, Note_on_c, 0, 74, 30
1, 219834, Note_off_c, 0, 69, 0
1, 219834, Note_off_c, 0, 81, 0
1, 219834, Note_off_c, 0, 74, 0
1, 219834, Note_off_c, 0, 62, 0
1, 219834, Note_on_c, 0, 69, 35
1, 219834, Note_on_c, 0, 57, 25
1, 219834, Note_on_c, 0, 38, 35
1, 219834, Note_on_c, 0, 81, 30
1, 219834, Note_on_c, 0, 69, 39
1, 220026, Note_off_c, 0, 74, 0
1, 220026, Note_off_c, 0, 62, 0
1, 220026, Note_off_c, 0, 27, 0
1, 220026, Note_off_c, 0, 38, 0
1, 220026, Note_on_c, 0, 27, 29
1, 220026, Note_on_c, 0, 62, 39
1, 220026, Note_on_c, 0, 74, 30
1, 220218, Note_off_c, 0, 81, 0
1, 220218, Note_off_c, 0, 69, 0
1, 220218, Note_on_c, 0, 38, 35
1, 220218, Note_on_c, 0, 69, 39
1, 220218, Note_on_c, 0, 81, 30
1, 220410, Note_off_c, 0, 27, 0
1, 220410, Note_off_c, 0, 38, 0
1, 220410, Note_off_c, 0, 57, 0
1, 220410, Note_off_c, 0, 69, 0
1, 220410, Note_on_c, 0, 67, 36
1, 220410, Note_on_c, 0, 55, 25
1, 220410, Note_on_c, 0, 27, 29
1, 220410, Note_on_c, 0, 84, 28
1, 220410, Note_on_c, 0, 72, 44
1, 220506, Note_off_c, 0, 72, 0
1, 220506, Note_off_c, 0, 84, 0
1, 220602, Note_on_c, 0, 38, 35
1, 220794, Note_off_c, 0, 27, 0
1, 220794, Note_off_c, 0, 38, 0
1, 220794, Note_off_c, 0, 55, 0
1, 220794, Note_off_c, 0, 67, 0
1, 220794, Note_on_c, 0, 69, 36
1, 220794, Note_on_c, 0, 57, 25
1, 220794, Note_on_c, 0, 27, 29
1, 220794, Note_on_c, 0, 83, 28
1, 220794, Note_on_c, 0, 71, 44
1, 220794, Note_on_c, 0, 71, 44
1, 220890, Note_off_c, 0, 71, 0
1, 220890, Note_off_c, 0, 71, 0
1, 220890, Note_off_c, 0, 83, 0
1, 220986, Note_on_c, 0, 38, 35
1, 221178, Note_off_c, 0, 83, 0
1, 221178, Note_off_c, 0, 71, 0
1, 221178, Note_off_c, 0, 29, 0
1, 221178, Note_off_c, 0, 38, 0
1, 221178, Note_off_c, 0, 57, 0
1, 221178, Note_off_c, 0, 69, 0
1, 221178, Note_off_c, 0, 74, 0
1, 221178, Note_off_c, 0, 86, 0
1, 221178, Note_off_c, 0, 81, 0
1, 221178, Note_off_c, 0, 78, 0
1, 221178, Note_on_c, 0, 59, 25
1, 221178, Note_on_c, 0, 71, 36
1, 221178, Note_on_c, 0, 29, 29
1, 221178, Note_on_c, 0, 79, 30
1, 221178, Note_on_c, 0, 76, 22
1, 221178, Note_on_c, 0, 71, 30
1, 221178, Note_on_c, 0, 71, 39
1, 221178, Note_on_c, 0, 83, 30
1, 221370, Note_off_c, 0, 79, 0
1, 221370, Note_off_c, 0, 67, 0
1, 221370, Note_on_c, 0, 40, 35
1, 221370, Note_on_c, 0, 67, 39
1, 221370, Note_on_c, 0, 79, 30
1, 221562, Note_off_c, 0, 76, 0
1, 221562, Note_off_c, 0, 64, 0
1, 221562, Note_off_c, 0, 29, 0
1, 221562, Note_off_c, 0, 40, 0
1, 221562, Note_on_c, 0, 29, 29
1, 221562, Note_on_c, 0, 64, 39
1, 221562, Note_on_c, 0, 76, 30
1, 221754, Note_off_c, 0, 83, 0
1, 221754, Note_off_c, 0, 71, 0
1, 221754, Note_off_c, 0, 71, 0
1, 221754, Note_off_c, 0, 59, 0
1, 221754, Note_on_c, 0, 52, 25
1, 221754, Note_on_c, 0, 64, 36
1, 221754, Note_on_c, 0, 40, 35
1, 221754, Note_on_c, 0, 71, 39
1, 221754, Note_on_c, 0, 83, 30
1, 221946, Note_off_c, 0, 79, 0
1, 221946, Note_off_c, 0, 67, 0
1, 221946, Note_off_c, 0, 29, 0
1, 221946, Note_off_c, 0, 40, 0
1, 221946, Note_on_c, 0, 29, 29
1, 221946, Note_on_c, 0, 67, 39
1, 221946, Note_on_c, 0, 79, 30
1, 222138, Note_off_c, 0, 76, 0
1, 222138, Note_off_c, 0, 64, 0
1, 222138, Note_on_c, 0, 40, 35
1, 222138, Note_on_c, 0, 64, 39
1, 222138, Note_on_c, 0, 76, 30
1, 222330, Note_off_c, 0, 83, 0
1, 222330, Note_off_c, 0, 71, 0
1, 222330, Note_off_c, 0, 29, 0
1, 222330, Note_off_c, 0, 40, 0
1, 222330, Note_off_c, 0, 64, 0
1, 222330, Note_off_c, 0, 52, 0
1, 222330, Note_on_c, 0, 55, 25
1, 222330, Note_on_c, 0, 67, 36
1, 222330, Note_on_c, 0, 29, 29
1, 222330, Note_on_c, 0, 71, 39
1, 222330, Note_on_c, 0, 83, 30
1, 222522, Note_off_c, 0, 79, 0
1, 222522, Note_off_c, 0, 67, 0
1, 222522, Note_on_c, 0, 40, 35
1, 222522, Note_on_c, 0, 67, 39
1, 222522, Note_on_c, 0, 79, 30
1, 222714, Note_off_c, 0, 76, 0
1, 222714, Note_off_c, 0, 64, 0
1, 222714, Note_off_c, 0, 29, 0
1, 222714, Note_off_c, 0, 40, 0
1, 222714, Note_on_c, 0, 29, 29
1, 222714, Note_on_c, 0, 64, 39
1, 222714, Note_on_c, 0, 76, 30
1, 222906, Note_off_c, 0, 83, 0
1, 222906, Note_off_c, 0, 71, 0
1, 222906, Note_off_c, 0, 67, 0
1, 222906, Note_off_c, 0, 55, 0
1, 222906, Note_on_c, 0, 59, 25
1, 222906, Note_on_c, 0, 71, 36
1, 222906, Note_on_c, 0, 40, 35
1, 222906, Note_on_c, 0, 71, 39
1, 222906, Note_on_c, 0, 83, 30
1, 223098, Note_off_c, 0, 79, 0
1, 223098, Note_off_c, 0, 67, 0
1, 223098, Note_off_c, 0, 29, 0
1, 223098, Note_off_c, 0, 40, 0
1, 223098, Note_on_c, 0, 29, 29
1, 223098, Note_on_c, 0, 67, 39
1, 223098, Note_on_c, 0, 79, 30
1, 223290, Note_off_c, 0, 83, 0
1, 223290, Note_off_c, 0, 71, 0
1, 223290, Note_on_c, 0, 40, 35
1, 223290, Note_on_c, 0, 71, 39
1, 223290, Note_on_c, 0, 83, 30
1, 223482, Note_off_c, 0, 84, 0
1, 223482, Note_off_c, 0, 72, 0
1, 223482, Note_off_c, 0, 29, 0
1, 223482, Note_off_c, 0, 40, 0
1, 223482, Note_off_c, 0, 71, 0
1, 223482, Note_off_c, 0, 59, 0
1, 223482, Note_on_c, 0, 64, 25
1, 223482, Note_on_c, 0, 76, 36
1, 223482, Note_on_c, 0, 29, 29
1, 223482, Note_on_c, 0, 72, 39
1, 223482, Note_on_c, 0, 84, 30
1, 223674, Note_off_c, 0, 64, 0
1, 223674, Note_on_c, 0, 40, 35
1, 223674, Note_on_c, 0, 64, 39
1, 223866, Note_off_c, 0, 83, 0
1, 223866, Note_off_c, 0, 71, 0
1, 223866, Note_off_c, 0, 29, 0
1, 223866, Note_off_c, 0, 40, 0
1, 223866, Note_off_c, 0, 76, 0
1, 223866, Note_off_c, 0, 64, 0
1, 223866, Note_on_c, 0, 66, 25
1, 223866, Note_on_c, 0, 78, 36
1, 223866, Note_on_c, 0, 29, 29
1, 223866, Note_on_c, 0, 71, 39
1, 223866, Note_on_c, 0, 83, 30
1, 224058, Note_off_c, 0, 76, 0
1, 224058, Note_off_c, 0, 64, 0
1, 224058, Note_on_c, 0, 40, 35
1, 224058, Note_on_c, 0, 64, 39
1, 224058, Note_on_c, 0, 76, 30
1, 224250, Note_off_c, 0, 79, 0
1, 224250, Note_off_c, 0, 67, 0
1, 224250, Note_off_c, 0, 25, 0
1, 224250, Note_off_c, 0, 40, 0
1, 224250, Note_off_c, 0, 78, 0
1, 224250, Note_off_c, 0, 66, 0
1, 224250, Note_off_c, 0, 71, 0
1, 224250, Note_off_c, 0, 76, 0
1, 224250, Note_off_c, 0, 79, 0
1, 224250, Note_on_c, 0, 67, 25
1, 224250, Note_on_c, 0, 79, 36
1, 224250, Note_on_c, 0, 25, 29
1, 224250, Note_on_c, 0, 79, 22
1, 224250, Note_on_c, 0, 76, 30
1, 224250, Note_on_c, 0, 72, 30
1, 224250, Note_on_c, 0, 67, 39
1, 224250, Note_on_c, 0, 79, 30
1, 224442, Note_off_c, 0, 76, 0
1, 224442, Note_off_c, 0, 64, 0
1, 224442, Note_on_c, 0, 36, 35
1, 224442, Note_on_c, 0, 64, 39
1, 224442, Note_on_c, 0, 76, 30
1, 224634, Note_off_c, 0, 72, 0
1, 224634, Note_off_c, 0, 60, 0
1, 224634, Note_off_c, 0, 25, 0
1, 224634, Note_off_c, 0, 36, 0
1, 224634, Note_on_c, 0, 25, 29
1, 224634, Note_on_c, 0, 60, 39
1, 224634, Note_on_c, 0, 72, 30
1, 224826, Note_off_c, 0, 79, 0
1, 224826, Note_off_c, 0, 67, 0
1, 224826, Note_off_c, 0, 79, 0
1, 224826, Note_off_c, 0, 67, 0
1, 224826, Note_on_c, 0, 71, 25
1, 224826, Note_on_c, 0, 83, 36
1, 224826, Note_on_c, 0, 36, 35
1, 224826, Note_on_c, 0, 67, 39
1, 224826, Note_on_c, 0, 79, 30
1, 225018, Note_off_c, 0, 76, 0
1, 225018, Note_off_c, 0, 64, 0
1, 225018, Note_off_c, 0, 25, 0
1, 225018, Note_off_c, 0, 36, 0
1, 225018, Note_on_c, 0, 25, 29
1, 225018, Note_on_c, 0, 64, 39
1, 225018, Note_on_c, 0, 76, 30
1, 225210, Note_off_c, 0, 72, 0
1, 225210, Note_off_c, 0, 60, 0
1, 225210, Note_on_c, 0, 36, 35
1, 225210, Note_on_c, 0, 60, 39
1, 225210, Note_on_c, 0, 72, 30
1, 225402, Note_off_c, 0, 81, 0
1, 225402, Note_off_c, 0, 69, 0
1, 225402, Note_off_c, 0, 27, 0
1, 225402, Note_off_c, 0, 36, 0
1, 225402, Note_off_c, 0, 83, 0
1, 225402, Note_off_c, 0, 71, 0
1, 225402, Note_off_c, 0, 72, 0
1, 225402, Note_off_c, 0, 76, 0
1, 225402, Note_off_c, 0, 79, 0
1, 225402, Note_on_c, 0, 69, 25
1, 225402, Note_on_c, 0, 81, 36
1, 225402, Note_on_c, 0, 27, 29
1, 225402, Note_on_c, 0, 69, 22
1, 225402, Note_on_c, 0, 78, 30
1, 225402, Note_on_c, 0, 74, 30
1, 225402, Note_on_c, 0, 69, 39
1, 225402, Note_on_c, 0, 81, 30
1, 225594, Note_off_c, 0, 78, 0
1, 225594, Note_off_c, 0, 66, 0
1, 225594, Note_on_c, 0, 38, 35
1, 225594, Note_on_c, 0, 66, 39
1, 225594, Note_on_c, 0, 78, 30
1, 225786, Note_off_c, 0, 74, 0
1, 225786, Note_off_c, 0, 62, 0
1, 225786, Note_off_c, 0, 27, 0
1, 225786, Note_off_c, 0, 38, 0
1, 225786, Note_on_c, 0, 27, 29
1, 225786, Note_on_c, 0, 62, 39
1, 225786, Note_on_c, 0, 74, 30
1, 225978, Note_off_c, 0, 81, 0
1, 225978, Note_off_c, 0, 69, 0
1, 225978, Note_off_c, 0, 81, 0
1, 225978, Note_off_c, 0, 69, 0
1, 225978, Note_on_c, 0, 67, 25
1, 225978, Note_on_c, 0, 79, 36
1, 225978, Note_on_c, 0, 38, 35
1, 225978, Note_on_c, 0, 69, 39
1, 225978, Note_on_c, 0, 81, 30
1, 226170, Note_off_c, 0, 74, 0
1, 226170, Note_off_c, 0, 62, 0
1, 226170, Note_off_c, 0, 27, 0
1, 226170, Note_off_c, 0, 38, 0
1, 226170, Note_on_c, 0, 27, 29
1, 226170, Note_on_c, 0, 62, 39
1, 226170, Note_on_c, 0, 74, 30
1, 226362, Note_off_c, 0, 81, 0
1, 226362, Note_off_c, 0, 69, 0
1, 226362, Note_on_c, 0, 38, 35
1, 226362, Note_on_c, 0, 69, 39
1, 226362, Note_on_c, 0, 81, 30
1, 226554, Note_off_c, 0, 27, 0
1, 226554, Note_off_c, 0, 38, 0
1, 226554, Note_off_c, 0, 79, 0
1, 226554, Note_off_c, 0, 67, 0
1, 226554, Note_on_c, 0, 66, 25
1, 226554, Note_on_c, 0, 78, 36
1, 226554, Note_on_c, 0, 27, 29
1, 226554, Note_on_c, 0, 72, 44
1, 226554, Note_on_c, 0, 84, 28
1, 226650, Note_off_c, 0, 84, 0
1, 226650, Note_off_c, 0, 72, 0
1, 226746, Note_on_c, 0, 38, 35
1, 226938, Note_off_c, 0, 27, 0
1, 226938, Note_off_c, 0, 38, 0
1, 226938, Note_off_c, 0, 78, 0
1, 226938, Note_off_c, 0, 66, 0
1, 226938, Note_on_c, 0, 79, 36
1, 226938, Note_on_c, 0, 67, 25
1, 226938, Note_on_c, 0, 27, 29
1, 226938, Note_on_c, 0, 71, 44
1, 226938, Note_on_c, 0, 71, 44
1, 226938, Note_on_c, 0, 83, 28
1, 227034, Note_off_c, 0, 83, 0
1, 227034, Note_off_c, 0, 71, 0
1, 227034, Note_off_c, 0, 71, 0
1, 227130, Note_on_c, 0, 38, 35
1, 227322, Note_off_c, 0, 83, 0
1, 227322, Note_off_c, 0, 71, 0
1, 227322, Note_off_c, 0, 29, 0
1, 227322, Note_off_c, 0, 38, 0
1, 227322, Note_off_c, 0, 67, 0
1, 227322, Note_off_c, 0, 79, 0
1, 227322, Note_off_c, 0, 74, 0
1, 227322, Note_off_c, 0, 78, 0
1, 227322, Note_off_c, 0, 69, 0
1, 227322, Note_on_c, 0, 76, 35
1, 227322, Note_on_c, 0, 64, 27
1, 227322, Note_on_c, 0, 29, 29
1, 227322, Note_on_c, 0, 71, 30
1, 227322, Note_on_c, 0, 76, 22
1, 227322, Note_on_c, 0, 79, 30
1, 227322, Note_on_c, 0, 71, 39
1, 227322, Note_on_c, 0, 83, 30
1, 227514, Note_off_c, 0, 79, 0
1, 227514, Note_off_c, 0, 67, 0
1, 227514, Note_on_c, 0, 40, 35
1, 227514, Note_on_c, 0, 67, 39
1, 227514, Note_on_c, 0, 79, 30
1, 227706, Note_off_c, 0, 76, 0
1, 227706, Note_off_c, 0, 64, 0
1, 227706, Note_off_c, 0, 29, 0
1, 227706, Note_off_c, 0, 40, 0
1, 227706, Note_on_c, 0, 29, 29
1, 227706, Note_on_c, 0, 64, 39
1, 227706, Note_on_c, 0, 76, 30
1, 227898, Note_off_c, 0, 83, 0
1, 227898, Note_off_c, 0, 71, 0
1, 227898, Note_off_c, 0, 64, 0
1, 227898, Note_off_c, 0, 76, 0
1, 227898, Note_on_c, 0, 52, 20
1, 227898, Note_on_c, 0, 64, 35
1, 227898, Note_on_c, 0, 40, 35
1, 227898, Note_on_c, 0, 71, 39
1, 227898, Note_on_c, 0, 83, 30
1, 228090, Note_off_c, 0, 79, 0
1, 228090, Note_off_c, 0, 67, 0
1, 228090, Note_off_c, 0, 29, 0
1, 228090, Note_off_c, 0, 40, 0
1, 228090, Note_on_c, 0, 29, 29
1, 228090, Note_on_c, 0, 67, 39
1, 228090, Note_on_c, 0, 79, 30
1, 228282, Note_off_c, 0, 76, 0
1, 228282, Note_off_c, 0, 64, 0
1, 228282, Note_on_c, 0, 40, 35
1, 228282, Note_on_c, 0, 64, 39
1, 228282, Note_on_c, 0, 76, 30
1, 228474, Note_off_c, 0, 83, 0
1, 228474, Note_off_c, 0, 71, 0
1, 228474, Note_off_c, 0, 29, 0
1, 228474, Note_off_c, 0, 40, 0
1, 228474, Note_off_c, 0, 64, 0
1, 228474, Note_off_c, 0, 52, 0
1, 228474, Note_on_c, 0, 55, 27
1, 228474, Note_on_c, 0, 67, 38
1, 228474, Note_on_c, 0, 29, 29
1, 228474, Note_on_c, 0, 71, 39
1, 228474, Note_on_c, 0, 83, 30
1, 228666, Note_off_c, 0, 79, 0
1, 228666, Note_off_c, 0, 67, 0
1, 228666, Note_on_c, 0, 40, 35
1, 228666, Note_on_c, 0, 67, 39
1, 228666, Note_on_c, 0, 79, 30
1, 228858, Note_off_c, 0, 76, 0
1, 228858, Note_off_c, 0, 64, 0
1, 228858, Note_off_c, 0, 29, 0
1, 228858, Note_off_c, 0, 40, 0
1, 228858, Note_on_c, 0, 29, 29
1, 228858, Note_on_c, 0, 64, 39
1, 228858, Note_on_c, 0, 76, 30
1, 229050, Note_off_c, 0, 83, 0
1, 229050, Note_off_c, 0, 71, 0
1, 229050, Note_off_c, 0, 67, 0
1, 229050, Note_off_c, 0, 55, 0
1, 229050, Note_on_c, 0, 59, 25
1, 229050, Note_on_c, 0, 71, 33
1, 229050, Note_on_c, 0, 40, 35
1, 229050, Note_on_c, 0, 71, 39
1, 229050, Note_on_c, 0, 83, 30
1, 229242, Note_off_c, 0, 79, 0
1, 229242, Note_off_c, 0, 67, 0
1, 229242, Note_off_c, 0, 29, 0
1, 229242, Note_off_c, 0, 40, 0
1, 229242, Note_on_c, 0, 29, 29
1, 229242, Note_on_c, 0, 67, 39
1, 229242, Note_on_c, 0, 79, 30
1, 229434, Note_off_c, 0, 83, 0
1, 229434, Note_off_c, 0, 71, 0
1, 229434, Note_on_c, 0, 40, 35
1, 229434, Note_on_c, 0, 71, 39
1, 229434, Note_on_c, 0, 83, 30
1, 229626, Note_off_c, 0, 84, 0
1, 229626, Note_off_c, 0, 72, 0
1, 229626, Note_off_c, 0, 29, 0
1, 229626, Note_off_c, 0, 40, 0
1, 229626, Note_off_c, 0, 71, 0
1, 229626, Note_off_c, 0, 59, 0
1, 229626, Note_on_c, 0, 64, 25
1, 229626, Note_on_c, 0, 76, 36
1, 229626, Note_on_c, 0, 29, 29
1, 229626, Note_on_c, 0, 72, 39
1, 229626, Note_on_c, 0, 84, 30
1, 229818, Note_on_c, 0, 40, 35
1, 229818, Note_on_c, 0, 64, 39
1, 229914, Note_off_c, 0, 64, 0
1, 230010, Note_off_c, 0, 83, 0
1, 230010, Note_off_c, 0, 71, 0
1, 230010, Note_off_c, 0, 29, 0
1, 230010, Note_off_c, 0, 40, 0
1, 230010, Note_off_c, 0, 76, 0
1, 230010, Note_off_c, 0, 64, 0
1, 230010, Note_on_c, 0, 66, 25
1, 230010, Note_on_c, 0, 78, 36
1, 230010, Note_on_c, 0, 29, 29
1, 230010, Note_on_c, 0, 71, 39
1, 230010, Note_on_c, 0, 83, 30
1, 230202, Note_off_c, 0, 76, 0
1, 230202, Note_off_c, 0, 64, 0
1, 230202, Note_on_c, 0, 40, 35
1, 230202, Note_on_c, 0, 64, 39
1, 230202, Note_on_c, 0, 76, 30
1, 230394, Note_off_c, 0, 79, 0
1, 230394, Note_off_c, 0, 67, 0
1, 230394, Note_off_c, 0, 25, 0
1, 230394, Note_off_c, 0, 40, 0
1, 230394, Note_off_c, 0, 78, 0
1, 230394, Note_off_c, 0, 66, 0
1, 230394, Note_off_c, 0, 79, 0
1, 230394, Note_off_c, 0, 76, 0
1, 230394, Note_off_c, 0, 71, 0
1, 230394, Note_on_c, 0, 67, 25
1, 230394, Note_on_c, 0, 79, 36
1, 230394, Note_on_c, 0, 25, 29
1, 230394, Note_on_c, 0, 79, 22
1, 230394, Note_on_c, 0, 76, 30
1, 230394, Note_on_c, 0, 72, 30
1, 230394, Note_on_c, 0, 67, 39
1, 230394, Note_on_c, 0, 79, 30
1, 230586, Note_off_c, 0, 76, 0
1, 230586, Note_off_c, 0, 64, 0
1, 230586, Note_on_c, 0, 36, 35
1, 230586, Note_on_c, 0, 64, 39
1, 230586, Note_on_c, 0, 76, 30
1, 230778, Note_off_c, 0, 72, 0
1, 230778, Note_off_c, 0, 60, 0
1, 230778, Note_off_c, 0, 25, 0
1, 230778, Note_off_c, 0, 36, 0
1, 230778, Note_on_c, 0, 25, 29
1, 230778, Note_on_c, 0, 60, 39
1, 230778, Note_on_c, 0, 72, 30
1, 230970, Note_off_c, 0, 79, 0
1, 230970, Note_off_c, 0, 67, 0
1, 230970, Note_off_c, 0, 79, 0
1, 230970, Note_off_c, 0, 67, 0
1, 230970, Note_on_c, 0, 66, 25
1, 230970, Note_on_c, 0, 78, 36
1, 230970, Note_on_c, 0, 36, 35
1, 230970, Note_on_c, 0, 84, 22
1, 230970, Note_on_c, 0, 67, 39
1, 230970, Note_on_c, 0, 79, 30
1, 231162, Note_off_c, 0, 76, 0
1, 231162, Note_off_c, 0, 64, 0
1, 231162, Note_off_c, 0, 25, 0
1, 231162, Note_off_c, 0, 36, 0
1, 231162, Note_on_c, 0, 25, 29
1, 231162, Note_on_c, 0, 64, 39
1, 231162, Note_on_c, 0, 76, 30
1, 231354, Note_off_c, 0, 72, 0
1, 231354, Note_off_c, 0, 60, 0
1, 231354, Note_on_c, 0, 36, 35
1, 231354, Note_on_c, 0, 60, 39
1, 231354, Note_on_c, 0, 72, 30
1, 231546, Note_off_c, 0, 81, 0
1, 231546, Note_off_c, 0, 69, 0
1, 231546, Note_off_c, 0, 27, 0
1, 231546, Note_off_c, 0, 36, 0
1, 231546, Note_off_c, 0, 84, 0
1, 231546, Note_off_c, 0, 78, 0
1, 231546, Note_off_c, 0, 66, 0
1, 231546, Note_off_c, 0, 72, 0
1, 231546, Note_off_c, 0, 76, 0
1, 231546, Note_off_c, 0, 79, 0
1, 231546, Note_on_c, 0, 62, 25
1, 231546, Note_on_c, 0, 74, 36
1, 231546, Note_on_c, 0, 27, 29
1, 231546, Note_on_c, 0, 81, 30
1, 231546, Note_on_c, 0, 86, 22
1, 231546, Note_on_c, 0, 74, 22
1, 231546, Note_on_c, 0, 78, 30
1, 231546, Note_on_c, 0, 69, 39
1, 231546, Note_on_c, 0, 81, 30
1, 231738, Note_off_c, 0, 78, 0
1, 231738, Note_off_c, 0, 66, 0
1, 231738, Note_on_c, 0, 38, 35
1, 231738, Note_on_c, 0, 66, 39
1, 231738, Note_on_c, 0, 78, 30
1, 231930, Note_off_c, 0, 74, 0
1, 231930, Note_off_c, 0, 62, 0
1, 231930, Note_off_c, 0, 27, 0
1, 231930, Note_off_c, 0, 38, 0
1, 231930, Note_on_c, 0, 27, 29
1, 231930, Note_on_c, 0, 62, 39
1, 231930, Note_on_c, 0, 74, 30
1, 232122, Note_off_c, 0, 81, 0
1, 232122, Note_off_c, 0, 69, 0
1, 232122, Note_off_c, 0, 74, 0
1, 232122, Note_off_c, 0, 62, 0
1, 232122, Note_on_c, 0, 57, 25
1, 232122, Note_on_c, 0, 69, 31
1, 232122, Note_on_c, 0, 38, 35
1, 232122, Note_on_c, 0, 69, 39
1, 232122, Note_on_c, 0, 81, 30
1, 232314, Note_off_c, 0, 74, 0
1, 232314, Note_off_c, 0, 62, 0
1, 232314, Note_off_c, 0, 27, 0
1, 232314, Note_off_c, 0, 38, 0
1, 232314, Note_on_c, 0, 27, 29
1, 232314, Note_on_c, 0, 62, 39
1, 232314, Note_on_c, 0, 74, 30
1, 232506, Note_off_c, 0, 81, 0
1, 232506, Note_off_c, 0, 69, 0
1, 232506, Note_on_c, 0, 38, 35
1, 232506, Note_on_c, 0, 69, 39
1, 232506, Note_on_c, 0, 81, 30
1, 232698, Note_off_c, 0, 27, 0
1, 232698, Note_off_c, 0, 38, 0
1, 232698, Note_off_c, 0, 69, 0
1, 232698, Note_off_c, 0, 57, 0
1, 232698, Note_on_c, 0, 55, 25
1, 232698, Note_on_c, 0, 67, 36
1, 232698, Note_on_c, 0, 27, 29
1, 232698, Note_on_c, 0, 72, 44
1, 232698, Note_on_c, 0, 84, 28
1, 232794, Note_off_c, 0, 84, 0
1, 232794, Note_off_c, 0, 72, 0
1, 232890, Note_on_c, 0, 38, 35
1, 233082, Note_off_c, 0, 27, 0
1, 233082, Note_off_c, 0, 38, 0
1, 233082, Note_off_c, 0, 67, 0
1, 233082, Note_off_c, 0, 55, 0
1, 233082, Note_on_c, 0, 57, 25
1, 233082, Note_on_c, 0, 69, 36
1, 233082, Note_on_c, 0, 27, 29
1, 233082, Note_on_c, 0, 71, 44
1, 233082, Note_on_c, 0, 71, 44
1, 233082, Note_on_c, 0, 83, 28
1, 233178, Note_off_c, 0, 83, 0
1, 233178, Note_off_c, 0, 71, 0
1, 233178, Note_off_c, 0, 71, 0
1, 233274, Note_on_c, 0, 38, 35
1, 233466, Note_off_c, 0, 83, 0
1, 233466, Note_off_c, 0, 71, 0
1, 233466, Note_off_c, 0, 29, 0
1, 233466, Note_off_c, 0, 38, 0
1, 233466, Note_off_c, 0, 69, 0
1, 233466, Note_off_c, 0, 57, 0
1, 233466, Note_off_c, 0, 78, 0
1, 233466, Note_off_c, 0, 74, 0
1, 233466, Note_off_c, 0, 86, 0
1, 233466, Note_off_c, 0, 81, 0
1, 233466, Note_on_c, 0, 59, 22
1, 233466, Note_on_c, 0, 71, 36
1, 233466, Note_on_c, 0, 29, 29
1, 233466, Note_on_c, 0, 79, 30
1, 233466, Note_on_c, 0, 76, 22
1, 233466, Note_on_c, 0, 71, 30
1, 233466, Note_on_c, 0, 71, 39
1, 233466, Note_on_c, 0, 83, 30
1, 233658, Note_off_c, 0, 79, 0
1, 233658, Note_off_c, 0, 67, 0
1, 233658, Note_on_c, 0, 40, 35
1, 233658, Note_on_c, 0, 67, 39
1, 233658, Note_on_c, 0, 79, 30
1, 233850, Note_off_c, 0, 76, 0
1, 233850, Note_off_c, 0, 64, 0
1, 233850, Note_off_c, 0, 29, 0
1, 233850, Note_off_c, 0, 40, 0
1, 233850, Note_on_c, 0, 29, 29
1, 233850, Note_on_c, 0, 64, 39
1, 233850, Note_on_c, 0, 76, 30
1, 234042, Note_off_c, 0, 83, 0
1, 234042, Note_off_c, 0, 71, 0
1, 234042, Note_off_c, 0, 71, 0
1, 234042, Note_off_c, 0, 59, 0
1, 234042, Note_on_c, 0, 52, 24
1, 234042, Note_on_c, 0, 64, 36
1, 234042, Note_on_c, 0, 40, 35
1, 234042, Note_on_c, 0, 71, 39
1, 234042, Note_on_c, 0, 83, 30
1, 234234, Note_off_c, 0, 79, 0
1, 234234, Note_off_c, 0, 67, 0
1, 234234, Note_off_c, 0, 29, 0
1, 234234, Note_off_c, 0, 40, 0
1, 234234, Note_on_c, 0, 29, 29
1, 234234, Note_on_c, 0, 67, 39
1, 234234, Note_on_c, 0, 79, 30
1, 234426, Note_off_c, 0, 76, 0
1, 234426, Note_off_c, 0, 64, 0
1, 234426, Note_on_c, 0, 40, 35
1, 234426, Note_on_c, 0, 64, 39
1, 234426, Note_on_c, 0, 76, 30
1, 234618, Note_off_c, 0, 83, 0
1, 234618, Note_off_c, 0, 71, 0
1, 234618, Note_off_c, 0, 29, 0
1, 234618, Note_off_c, 0, 40, 0
1, 234618, Note_off_c, 0, 64, 0
1, 234618, Note_off_c, 0, 52, 0
1, 234618, Note_on_c, 0, 55, 25
1, 234618, Note_on_c, 0, 67, 36
1, 234618, Note_on_c, 0, 29, 29
1, 234618, Note_on_c, 0, 71, 39
1, 234618, Note_on_c, 0, 83, 30
1, 234810, Note_off_c, 0, 79, 0
1, 234810, Note_off_c, 0, 67, 0
1, 234810, Note_on_c, 0, 40, 35
1, 234810, Note_on_c, 0, 67, 39
1, 234810, Note_on_c, 0, 79, 30
1, 235002, Note_off_c, 0, 76, 0
1, 235002, Note_off_c, 0, 64, 0
1, 235002, Note_off_c, 0, 29, 0
1, 235002, Note_off_c, 0, 40, 0
1, 235002, Note_on_c, 0, 29, 29
1, 235002, Note_on_c, 0, 64, 39
1, 235002, Note_on_c, 0, 76, 30
1, 235194, Note_off_c, 0, 83, 0
1, 235194, Note_off_c, 0, 71, 0
1, 235194, Note_off_c, 0, 67, 0
1, 235194, Note_off_c, 0, 55, 0
1, 235194, Note_on_c, 0, 59, 25
1, 235194, Note_on_c, 0, 71, 31
1, 235194, Note_on_c, 0, 40, 35
1, 235194, Note_on_c, 0, 71, 39
1, 235194, Note_on_c, 0, 83, 30
1, 235386, Note_off_c, 0, 79, 0
1, 235386, Note_off_c, 0, 67, 0
1, 235386, Note_off_c, 0, 29, 0
1, 235386, Note_off_c, 0, 40, 0
1, 235386, Note_on_c, 0, 29, 29
1, 235386, Note_on_c, 0, 67, 39
1, 235386, Note_on_c, 0, 79, 30
1, 235578, Note_off_c, 0, 83, 0
1, 235578, Note_off_c, 0, 71, 0
1, 235578, Note_on_c, 0, 40, 35
1, 235578, Note_on_c, 0, 71, 39
1, 235578, Note_on_c, 0, 83, 30
1, 235770, Note_off_c, 0, 84, 0
1, 235770, Note_off_c, 0, 72, 0
1, 235770, Note_off_c, 0, 29, 0
1, 235770, Note_off_c, 0, 40, 0
1, 235770, Note_off_c, 0, 71, 0
1, 235770, Note_off_c, 0, 59, 0
1, 235770, Note_on_c, 0, 64, 25
1, 235770, Note_on_c, 0, 76, 36
1, 235770, Note_on_c, 0, 29, 29
1, 235770, Note_on_c, 0, 72, 39
1, 235770, Note_on_c, 0, 84, 30
1, 235962, Note_on_c, 0, 40, 35
1, 236154, Note_off_c, 0, 83, 0
1, 236154, Note_off_c, 0, 71, 0
1, 236154, Note_off_c, 0, 29, 0
1, 236154, Note_off_c, 0, 40, 0
1, 236154, Note_off_c, 0, 76, 0
1, 236154, Note_off_c, 0, 64, 0
1, 236154, Note_on_c, 0, 66, 25
1, 236154, Note_on_c, 0, 78, 36
1, 236154, Note_on_c, 0, 29, 29
1, 236154, Note_on_c, 0, 71, 39
1, 236154, Note_on_c, 0, 83, 30
1, 236346, Note_off_c, 0, 76, 0
1, 236346, Note_off_c, 0, 64, 0
1, 236346, Note_on_c, 0, 40, 35
1, 236346, Note_on_c, 0, 64, 39
1, 236346, Note_on_c, 0, 76, 30
1, 236538, Note_off_c, 0, 79, 0
1, 236538, Note_off_c, 0, 67, 0
1, 236538, Note_off_c, 0, 25, 0
1, 236538, Note_off_c, 0, 40, 0
1, 236538, Note_off_c, 0, 78, 0
1, 236538, Note_off_c, 0, 66, 0
1, 236538, Note_off_c, 0, 71, 0
1, 236538, Note_off_c, 0, 76, 0
1, 236538, Note_off_c, 0, 79, 0
1, 236538, Note_on_c, 0, 67, 25
1, 236538, Note_on_c, 0, 79, 36
1, 236538, Note_on_c, 0, 25, 29
1, 236538, Note_on_c, 0, 79, 22
1, 236538, Note_on_c, 0, 76, 30
1, 236538, Note_on_c, 0, 72, 30
1, 236538, Note_on_c, 0, 67, 39
1, 236538, Note_on_c, 0, 79, 30
1, 236730, Note_off_c, 0, 76, 0
1, 236730, Note_off_c, 0, 64, 0
1, 236730, Note_on_c, 0, 36, 35
1, 236730, Note_on_c, 0, 64, 39
1, 236730, Note_on_c, 0, 76, 30
1, 236922, Note_off_c, 0, 72, 0
1, 236922, Note_off_c, 0, 60, 0
1, 236922, Note_off_c, 0, 25, 0
1, 236922, Note_off_c, 0, 36, 0
1, 236922, Note_on_c, 0, 25, 29
1, 236922, Note_on_c, 0, 60, 39
1, 236922, Note_on_c, 0, 72, 30
1, 237114, Note_off_c, 0, 79, 0
1, 237114, Note_off_c, 0, 67, 0
1, 237114, Note_off_c, 0, 79, 0
1, 237114, Note_off_c, 0, 67, 0
1, 237114, Note_on_c, 0, 71, 25
1, 237114, Note_on_c, 0, 83, 36
1, 237114, Note_on_c, 0, 36, 35
1, 237114, Note_on_c, 0, 67, 39
1, 237114, Note_on_c, 0, 79, 30
1, 237306, Note_off_c, 0, 76, 0
1, 237306, Note_off_c, 0, 64, 0
1, 237306, Note_off_c, 0, 25, 0
1, 237306, Note_off_c, 0, 36, 0
1, 237306, Note_on_c, 0, 25, 29
1, 237306, Note_on_c, 0, 64, 39
1, 237306, Note_on_c, 0, 76, 30
1, 237498, Note_off_c, 0, 72, 0
1, 237498, Note_off_c, 0, 60, 0
1, 237498, Note_on_c, 0, 38, 35
1, 237498, Note_on_c, 0, 60, 39
1, 237498, Note_on_c, 0, 72, 30
1, 237690, Note_off_c, 0, 81, 0
1, 237690, Note_off_c, 0, 69, 0
1, 237690, Note_off_c, 0, 27, 0
1, 237690, Note_off_c, 0, 38, 0
1, 237690, Note_off_c, 0, 83, 0
1, 237690, Note_off_c, 0, 71, 0
1, 237690, Note_off_c, 0, 72, 0
1, 237690, Note_off_c, 0, 76, 0
1, 237690, Note_off_c, 0, 79, 0
1, 237690, Note_on_c, 0, 69, 25
1, 237690, Note_on_c, 0, 81, 36
1, 237690, Note_on_c, 0, 27, 29
1, 237690, Note_on_c, 0, 69, 22
1, 237690, Note_on_c, 0, 78, 30
1, 237690, Note_on_c, 0, 74, 30
1, 237690, Note_on_c, 0, 69, 39
1, 237690, Note_on_c, 0, 81, 30
1, 237882, Note_off_c, 0, 78, 0
1, 237882, Note_off_c, 0, 66, 0
1, 237882, Note_on_c, 0, 38, 35
1, 237882, Note_on_c, 0, 66, 39
1, 237882, Note_on_c, 0, 78, 30
1, 238074, Note_off_c, 0, 74, 0
1, 238074, Note_off_c, 0, 62, 0
1, 238074, Note_off_c, 0, 27, 0
1, 238074, Note_off_c, 0, 38, 0
1, 238074, Note_on_c, 0, 27, 29
1, 238074, Note_on_c, 0, 62, 39
1, 238074, Note_on_c, 0, 74, 30
1, 238266, Note_off_c, 0, 81, 0
1, 238266, Note_off_c, 0, 69, 0
1, 238266, Note_off_c, 0, 81, 0
1, 238266, Note_off_c, 0, 69, 0
1, 238266, Note_on_c, 0, 67, 25
1, 238266, Note_on_c, 0, 79, 36
1, 238266, Note_on_c, 0, 38, 35
1, 238266, Note_on_c, 0, 69, 39
1, 238266, Note_on_c, 0, 81, 30
1, 238458, Note_off_c, 0, 74, 0
1, 238458, Note_off_c, 0, 62, 0
1, 238458, Note_off_c, 0, 27, 0
1, 238458, Note_off_c, 0, 38, 0
1, 238458, Note_on_c, 0, 27, 29
1, 238458, Note_on_c, 0, 62, 39
1, 238458, Note_on_c, 0, 74, 30
1, 238650, Note_off_c, 0, 81, 0
1, 238650, Note_off_c, 0, 69, 0
1, 238650, Note_on_c, 0, 38, 35
1, 238650, Note_on_c, 0, 69, 39
1, 238650, Note_on_c, 0, 81, 30
1, 238842, Note_off_c, 0, 27, 0
1, 238842, Note_off_c, 0, 38, 0
1, 238842, Note_off_c, 0, 79, 0
1, 238842, Note_off_c, 0, 67, 0
1, 238842, Note_on_c, 0, 66, 25
1, 238842, Note_on_c, 0, 78, 36
1, 238842, Note_on_c, 0, 27, 29
1, 238842, Note_on_c, 0, 72, 44
1, 238842, Note_on_c, 0, 84, 28
1, 238938, Note_off_c, 0, 84, 0
1, 238938, Note_off_c, 0, 72, 0
1, 239034, Note_on_c, 0, 38, 35
1, 239034, Note_on_c, 0, 62, 39
1, 239130, Note_off_c, 0, 62, 0
1, 239226, Note_off_c, 0, 27, 0
1, 239226, Note_off_c, 0, 38, 0
1, 239226, Note_off_c, 0, 78, 0
1, 239226, Note_off_c, 0, 66, 0
1, 239226, Note_on_c, 0, 79, 36
1, 239226, Note_on_c, 0, 67, 25
1, 239226, Note_on_c, 0, 27, 29
1, 239226, Note_on_c, 0, 71, 41
1, 239226, Note_on_c, 0, 71, 41
1, 239226, Note_on_c, 0, 83, 25
1, 239322, Note_off_c, 0, 83, 0
1, 239322, Note_off_c, 0, 71, 0
1, 239322, Note_off_c, 0, 71, 0
1, 239418, Note_on_c, 0, 38, 35
1, 239610, Note_off_c, 0, 38, 0
1, 239610, Note_off_c, 0, 67, 0
1, 239610, Note_off_c, 0, 79, 0
1, 239610, Note_off_c, 0, 74, 0
1, 239610, Note_off_c, 0, 78, 0
1, 239610, Note_off_c, 0, 69, 0
1, 239610, Note_on_c, 0, 76, 31
1, 239802, Note_on_c, 0, 40, 27
1, 239994, Note_off_c, 0, 40, 0
1, 240186, Note_on_c, 0, 64, 32
1, 240186, Note_on_c, 0, 40, 27
1, 240186, Note_on_c, 0, 52, 34
1, 240282, Note_off_c, 0, 76, 0
1, 240378, Note_off_c, 0, 40, 0
1, 240378, Note_on_c, 0, 55, 34
1, 240570, Note_on_c, 0, 40, 27
1, 240570, Note_on_c, 0, 59, 34
1, 240762, Note_off_c, 0, 40, 0
1, 240762, Note_off_c, 0, 52, 0
1, 240762, Note_on_c, 0, 67, 32
1, 240762, Note_on_c, 0, 60, 34
1, 240858, Note_off_c, 0, 64, 0
1, 240954, Note_off_c, 0, 55, 0
1, 240954, Note_on_c, 0, 40, 27
1, 241146, Note_off_c, 0, 40, 0
1, 241146, Note_off_c, 0, 59, 0
1, 241338, Note_off_c, 0, 60, 0
1, 241338, Note_on_c, 0, 71, 32
1, 241338, Note_on_c, 0, 40, 27
1, 241338, Note_on_c, 0, 59, 34
1, 241434, Note_off_c, 0, 67, 0
1, 241530, Note_off_c, 0, 40, 0
1, 241722, Note_on_c, 0, 40, 27
1, 241914, Note_off_c, 0, 40, 0
1, 241914, Note_on_c, 0, 76, 32
1, 241914, Note_on_c, 0, 55, 34
1, 242010, Note_off_c, 0, 71, 0
1, 242106, Note_off_c, 0, 59, 0
1, 242106, Note_on_c, 0, 40, 27
1, 242298, Note_off_c, 0, 40, 0
1, 242490, Note_on_c, 0, 40, 27
1, 242586, Note_off_c, 0, 76, 0
1, 242682, Note_off_c, 0, 40, 0
1, 242682, Note_off_c, 0, 55, 0
1, 242682, Note_on_c, 0, 79, 33
1, 242682, Note_on_c, 0, 79, 33
1, 242682, Note_on_c, 0, 36, 34
1, 242874, Note_on_c, 0, 78, 33
1, 242874, Note_on_c, 0, 78, 33
1, 242874, Note_on_c, 0, 36, 27
1, 242874, Note_on_c, 0, 43, 34
1, 242970, Note_off_c, 0, 78, 0
1, 242970, Note_off_c, 0, 79, 0
1, 243066, Note_off_c, 0, 36, 0
1, 243066, Note_on_c, 0, 74, 33
1, 243066, Note_on_c, 0, 48, 34
1, 243162, Note_off_c, 0, 79, 0
1, 243258, Note_off_c, 0, 36, 0
1, 243258, Note_on_c, 0, 69, 33
1, 243258, Note_on_c, 0, 36, 27
1, 243258, Note_on_c, 0, 50, 34
1, 243354, Note_off_c, 0, 78, 0
1, 243450, Note_off_c, 0, 36, 0
1, 243450, Note_off_c, 0, 43, 0
1, 243450, Note_on_c, 0, 67, 33
1, 243546, Note_off_c, 0, 74, 0
1, 243642, Note_off_c, 0, 48, 0
1, 243642, Note_on_c, 0, 66, 33
1, 243642, Note_on_c, 0, 36, 27
1, 243642, Note_on_c, 0, 55, 34
1, 243738, Note_off_c, 0, 69, 0
1, 243834, Note_off_c, 0, 36, 0
1, 243834, Note_off_c, 0, 50, 0
1, 243834, Note_on_c, 0, 62, 33
1, 243930, Note_off_c, 0, 67, 0
1, 244026, Note_on_c, 0, 57, 33
1, 244026, Note_on_c, 0, 36, 27
1, 244026, Note_on_c, 0, 57, 34
1, 244122, Note_off_c, 0, 66, 0
1, 244218, Note_off_c, 0, 36, 0
1, 244218, Note_off_c, 0, 55, 0
1, 244314, Note_off_c, 0, 62, 0
1, 244410, Note_on_c, 0, 62, 33
1, 244410, Note_on_c, 0, 38, 27
1, 244506, Note_off_c, 0, 57, 0
1, 244602, Note_off_c, 0, 38, 0
1, 244602, Note_on_c, 0, 71, 33
1, 244794, Note_on_c, 0, 67, 33
1, 244794, Note_on_c, 0, 38, 27
1, 244890, Note_off_c, 0, 62, 0
1, 244986, Note_off_c, 0, 38, 0
1, 244986, Note_off_c, 0, 57, 0
1, 244986, Note_on_c, 0, 64, 33
1, 244986, Note_on_c, 0, 55, 34
1, 245082, Note_off_c, 0, 71, 0
1, 245178, Note_on_c, 0, 38, 27
1, 245178, Note_on_c, 0, 57, 34
1, 245274, Note_off_c, 0, 67, 0
1, 245370, Note_off_c, 0, 38, 0
1, 245370, Note_on_c, 0, 62, 33
1, 245562, Note_off_c, 0, 55, 0
1, 245562, Note_on_c, 0, 38, 27
1, 245658, Note_off_c, 0, 64, 0
1, 245754, Note_off_c, 0, 38, 0
1, 245754, Note_on_c, 0, 74, 33
1, 245754, Note_on_c, 0, 55, 35
1, 245946, Note_on_c, 0, 67, 33
1, 245946, Note_on_c, 0, 40, 25
1, 246042, Note_off_c, 0, 62, 0
1, 246138, Note_off_c, 0, 40, 0
1, 246138, Note_off_c, 0, 57, 0
1, 246138, Note_on_c, 0, 64, 33
1, 246234, Note_off_c, 0, 74, 0
1, 246330, Note_on_c, 0, 66, 33
1, 246330, Note_on_c, 0, 40, 22
1, 246330, Note_on_c, 0, 54, 35
1, 246426, Note_off_c, 0, 67, 0
1, 246522, Note_off_c, 0, 40, 0
1, 246522, Note_off_c, 0, 55, 0
1, 246522, Note_on_c, 0, 59, 33
1, 246618, Note_off_c, 0, 64, 0
1, 246714, Note_on_c, 0, 64, 33
1, 246714, Note_on_c, 0, 40, 22
1, 246810, Note_off_c, 0, 66, 0
1, 246906, Note_off_c, 0, 40, 0
1, 246906, Note_on_c, 0, 67, 33
1, 246906, Note_on_c, 0, 50, 35
1, 247002, Note_off_c, 0, 59, 0
1, 247098, Note_off_c, 0, 54, 0
1, 247098, Note_on_c, 0, 40, 22
1, 247194, Note_off_c, 0, 64, 0
1, 247290, Note_off_c, 0, 40, 0
1, 247482, Note_on_c, 0, 71, 33
1, 247482, Note_on_c, 0, 40, 20
1, 247482, Note_on_c, 0, 55, 35
1, 247578, Note_off_c, 0, 67, 0
1, 247674, Note_off_c, 0, 40, 0
1, 247674, Note_off_c, 0, 50, 0
1, 247674, Note_on_c, 0, 64, 33
1, 247674, Note_on_c, 0, 64, 33
1, 247770, Note_off_c, 0, 64, 0
1, 247866, Note_on_c, 0, 67, 33
1, 247866, Note_on_c, 0, 40, 19
1, 247962, Note_off_c, 0, 71, 0
1, 248058, Note_off_c, 0, 40, 0
1, 248058, Note_on_c, 0, 54, 35
1, 248154, Note_off_c, 0, 64, 0
1, 248250, Note_off_c, 0, 55, 0
1, 248250, Note_on_c, 0, 71, 33
1, 248250, Note_on_c, 0, 40, 17
1, 248346, Note_off_c, 0, 67, 0
1, 248442, Note_off_c, 0, 40, 0
1, 248442, Note_on_c, 0, 76, 33
1, 248442, Note_on_c, 0, 76, 33
1, 248442, Note_on_c, 0, 50, 35
1, 248538, Note_off_c, 0, 76, 0
1, 248634, Note_on_c, 0, 78, 33
1, 248634, Note_on_c, 0, 40, 16
1, 248730, Note_off_c, 0, 71, 0
1, 248826, Note_off_c, 0, 40, 0
1, 248826, Note_off_c, 0, 54, 0
1, 248826, Note_on_c, 0, 79, 33
1, 248922, Note_off_c, 0, 76, 0
1, 249018, Note_on_c, 0, 76, 33
1, 249018, Note_on_c, 0, 43, 35
1, 249114, Note_off_c, 0, 78, 0
1, 249210, Note_off_c, 0, 50, 0
1, 249210, Note_on_c, 0, 48, 35
1, 249306, Note_off_c, 0, 79, 0
1, 249402, Note_on_c, 0, 71, 33
1, 249402, Note_on_c, 0, 83, 32
1, 249402, Note_on_c, 0, 71, 33
1, 249402, Note_on_c, 0, 50, 35
1, 249498, Note_off_c, 0, 76, 0
1, 249594, Note_off_c, 0, 43, 0
1, 249594, Note_on_c, 0, 52, 35
1, 249690, Note_off_c, 0, 71, 0
1, 249786, Note_off_c, 0, 48, 0
1, 249786, Note_on_c, 0, 81, 33
1, 249786, Note_on_c, 0, 69, 33
1, 249786, Note_on_c, 0, 55, 35
1, 249882, Note_off_c, 0, 71, 0
1, 249882, Note_off_c, 0, 83, 0
1, 249978, Note_off_c, 0, 50, 0
1, 249978, Note_on_c, 0, 59, 35
1, 250170, Note_off_c, 0, 52, 0
1, 250170, Note_on_c, 0, 78, 33
1, 250170, Note_on_c, 0, 66, 33
1, 250266, Note_off_c, 0, 69, 0
1, 250266, Note_off_c, 0, 81, 0
1, 250362, Note_off_c, 0, 55, 0
1, 250362, Note_on_c, 0, 38, 35
1, 250554, Note_off_c, 0, 59, 0
1, 250554, Note_on_c, 0, 69, 33
1, 250554, Note_on_c, 0, 59, 32
1, 250650, Note_off_c, 0, 66, 0
1, 250650, Note_off_c, 0, 78, 0
1, 250746, Note_on_c, 0, 76, 33
1, 250746, Note_on_c, 0, 60, 32
1, 250938, Note_on_c, 0, 78, 33
1, 251034, Note_off_c, 0, 69, 0
1, 251130, Note_off_c, 0, 59, 0
1, 251130, Note_off_c, 0, 38, 0
1, 251130, Note_on_c, 0, 67, 30
1, 251130, Note_on_c, 0, 79, 33
1, 251130, Note_on_c, 0, 62, 32
1, 251130, Note_on_c, 0, 62, 32
1, 251226, Note_off_c, 0, 76, 0
1, 251322, Note_off_c, 0, 60, 0
1, 251418, Note_off_c, 0, 78, 0
1, 251514, Note_off_c, 0, 62, 0
1, 251602, Note_on_c, 0, 78, 33
1, 251610, Note_off_c, 0, 79, 0
1, 251610, Note_off_c, 0, 67, 0
1, 251614, Note_on_c, 0, 66, 30
1, 251706, Note_off_c, 0, 62, 0
1, 252082, Note_off_c, 0, 78, 0
1, 252094, Note_off_c, 0, 66, 0
1, 252186, Note_on_c, 0, 64, 19
1, 252230, Note_on_c, 0, 67, 20
1, 252278, Note_on_c, 0, 71, 22
1, 252310, Note_on_c, 0, 76, 34
1, 258326, Note_off_c, 0, 71, 0
1, 258330, Note_off_c, 0, 64, 0
1, 258358, Note_off_c, 0, 76, 0
1, 258374, Note_off_c, 0, 67, 0
1, 258374, End_track
0, 0, End_of_file
