0.000s | tick 0 | track 1 | Time Signature 4/4 (clocks 24, 32nds 8)
0.000s | tick 0 | track 1 | Tempo 162.00 BPM (370370 us/qn)
0.000s | tick 0 | track 1 | Track Name: "Elec. Piano (Classic)"
0.000s | tick 0 | track 1 | ch 1 | Program Change 4 (#5)
0.000s | tick 0 | track 1 | ch 1 | Note On C3 (48) vel 33
0.000s | tick 0 | track 1 | ch 1 | Note On C4 (60) vel 37
0.000s | tick 0 | track 1 | ch 1 | Note On C4 (60) vel 26
0.000s | tick 0 | track 1 | ch 1 | Note On D#4 (63) vel 26
0.000s | tick 0 | track 1 | ch 1 | Note On G4 (67) vel 26
0.833s | tick 864 | track 1 | ch 1 | Note Off C4 (60) vel 0
0.833s | tick 864 | track 1 | ch 1 | Note Off C3 (48) vel 0
0.833s | tick 864 | track 1 | ch 1 | Note On D4 (62) vel 37
0.833s | tick 864 | track 1 | ch 1 | Note On D3 (50) vel 33
1.204s | tick 1248 | track 1 | ch 1 | Note Off D3 (50) vel 0
1.204s | tick 1248 | track 1 | ch 1 | Note Off D4 (62) vel 0
1.204s | tick 1248 | track 1 | ch 1 | Note On D#4 (63) vel 37
1.204s | tick 1248 | track 1 | ch 1 | Note On D#3 (51) vel 33
1.574s | tick 1632 | track 1 | ch 1 | Note Off D#3 (51) vel 0
1.574s | tick 1632 | track 1 | ch 1 | Note Off D#4 (63) vel 0
1.574s | tick 1632 | track 1 | ch 1 | Note Off G4 (67) vel 0
1.574s | tick 1632 | track 1 | ch 1 | Note Off D#4 (63) vel 0
1.574s | tick 1632 | track 1 | ch 1 | Note Off C4 (60) vel 0
1.574s | tick 1632 | track 1 | ch 1 | Note On F4 (65) vel 37
1.574s | tick 1632 | track 1 | ch 1 | Note On F3 (53) vel 33
1.574s | tick 1632 | track 1 | ch 1 | Note On G#4 (68) vel 26
1.574s | tick 1632 | track 1 | ch 1 | Note On C4 (60) vel 26
1.574s | tick 1632 | track 1 | ch 1 | Note On F4 (65) vel 26
2.315s | tick 2400 | track 1 | ch 1 | Note Off F3 (53) vel 0
2.315s | tick 2400 | track 1 | ch 1 | Note Off F4 (65) vel 0
2.315s | tick 2400 | track 1 | ch 1 | Note On C4 (60) vel 37
2.315s | tick 2400 | track 1 | ch 1 | Note On C3 (48) vel 33
2.685s | tick 2784 | track 1 | ch 1 | Note Off C3 (48) vel 0
2.685s | tick 2784 | track 1 | ch 1 | Note Off C4 (60) vel 0
2.685s | tick 2784 | track 1 | ch 1 | Note On F4 (65) vel 37
2.685s | tick 2784 | track 1 | ch 1 | Note On F3 (53) vel 33
3.056s | tick 3168 | track 1 | ch 1 | Note Off F3 (53) vel 0
3.056s | tick 3168 | track 1 | ch 1 | Note Off F4 (65) vel 0
3.056s | tick 3168 | track 1 | ch 1 | Note Off F4 (65) vel 0
3.056s | tick 3168 | track 1 | ch 1 | Note Off C4 (60) vel 0
3.056s | tick 3168 | track 1 | ch 1 | Note Off G#4 (68) vel 0
3.056s | tick 3168 | track 1 | ch 1 | Note On E4 (64) vel 37
3.056s | tick 3168 | track 1 | ch 1 | Note On E3 (52) vel 33
3.056s | tick 3168 | track 1 | ch 1 | Note On A4 (69) vel 26
3.056s | tick 3168 | track 1 | ch 1 | Note On C4 (60) vel 26
3.056s | tick 3168 | track 1 | ch 1 | Note On E4 (64) vel 26
3.796s | tick 3936 | track 1 | ch 1 | Note Off E3 (52) vel 0
3.796s | tick 3936 | track 1 | ch 1 | Note Off E4 (64) vel 0
3.796s | tick 3936 | track 1 | ch 1 | Note On C4 (60) vel 37
3.796s | tick 3936 | track 1 | ch 1 | Note On C3 (48) vel 33
4.167s | tick 4320 | track 1 | ch 1 | Note Off C3 (48) vel 0
4.167s | tick 4320 | track 1 | ch 1 | Note Off C4 (60) vel 0
4.167s | tick 4320 | track 1 | ch 1 | Note On A3 (57) vel 37
4.167s | tick 4320 | track 1 | ch 1 | Note On A2 (45) vel 33
4.537s | tick 4704 | track 1 | ch 1 | Note Off A2 (45) vel 0
4.537s | tick 4704 | track 1 | ch 1 | Note Off A3 (57) vel 0
4.537s | tick 4704 | track 1 | ch 1 | Note Off E4 (64) vel 0
4.537s | tick 4704 | track 1 | ch 1 | Note Off C4 (60) vel 0
4.537s | tick 4704 | track 1 | ch 1 | Note Off A4 (69) vel 0
4.537s | tick 4704 | track 1 | ch 1 | Note On G#3 (56) vel 37
4.537s | tick 4704 | track 1 | ch 1 | Note On G#2 (44) vel 33
4.537s | tick 4704 | track 1 | ch 1 | Note On C4 (60) vel 26
4.537s | tick 4704 | track 1 | ch 1 | Note On F4 (65) vel 26
4.537s | tick 4704 | track 1 | ch 1 | Note On G#4 (68) vel 26
5.278s | tick 5472 | track 1 | ch 1 | Note Off G#2 (44) vel 0
5.278s | tick 5472 | track 1 | ch 1 | Note Off G#3 (56) vel 0
5.278s | tick 5472 | track 1 | ch 1 | Note On F3 (53) vel 37
5.278s | tick 5472 | track 1 | ch 1 | Note On F2 (41) vel 33
5.926s | tick 6144 | track 1 | ch 1 | Note Off F2 (41) vel 0
5.926s | tick 6144 | track 1 | ch 1 | Note Off F3 (53) vel 0
5.926s | tick 6144 | track 1 | ch 1 | Note Off G#4 (68) vel 0
5.926s | tick 6144 | track 1 | ch 1 | Note Off F4 (65) vel 0
5.926s | tick 6144 | track 1 | ch 1 | Note Off C4 (60) vel 0
5.926s | tick 6144 | track 1 | ch 1 | Note On G3 (55) vel 35
5.926s | tick 6144 | track 1 | ch 1 | Note On C3 (48) vel 28
5.926s | tick 6144 | track 1 | ch 1 | Note On C2 (36) vel 34
5.926s | tick 6144 | track 1 | ch 1 | Note On G4 (67) vel 26
5.926s | tick 6144 | track 1 | ch 1 | Note On D#4 (63) vel 26
5.926s | tick 6144 | track 1 | ch 1 | Note On C4 (60) vel 26
6.019s | tick 6240 | track 1 | ch 1 | Note Off G3 (55) vel 0
6.019s | tick 6240 | track 1 | ch 1 | Note On C4 (60) vel 35
6.111s | tick 6336 | track 1 | ch 1 | Note Off C4 (60) vel 0
6.111s | tick 6336 | track 1 | ch 1 | Note On D#4 (63) vel 35
6.204s | tick 6432 | track 1 | ch 1 | Note Off D#4 (63) vel 0
6.204s | tick 6432 | track 1 | ch 1 | Note On C4 (60) vel 35
6.296s | tick 6528 | track 1 | ch 1 | Note Off C4 (60) vel 0
6.296s | tick 6528 | track 1 | ch 1 | Note On D#3 (51) vel 36
6.389s | tick 6624 | track 1 | ch 1 | Note Off D#3 (51) vel 0
6.389s | tick 6624 | track 1 | ch 1 | Note On C3 (48) vel 36
6.481s | tick 6720 | track 1 | ch 1 | Note Off C3 (48) vel 0
6.481s | tick 6720 | track 1 | ch 1 | Note On D#3 (51) vel 37
6.574s | tick 6816 | track 1 | ch 1 | Note Off D#3 (51) vel 0
6.574s | tick 6816 | track 1 | ch 1 | Note On G3 (55) vel 37
6.667s | tick 6912 | track 1 | ch 1 | Note Off G3 (55) vel 0
6.667s | tick 6912 | track 1 | ch 1 | Note On D#4 (63) vel 37
6.759s | tick 7008 | track 1 | ch 1 | Note Off D#4 (63) vel 0
6.759s | tick 7008 | track 1 | ch 1 | Note On C4 (60) vel 38
6.852s | tick 7104 | track 1 | ch 1 | Note Off C4 (60) vel 0
6.852s | tick 7104 | track 1 | ch 1 | Note On G4 (67) vel 37
6.944s | tick 7200 | track 1 | ch 1 | Note Off G4 (67) vel 0
6.944s | tick 7200 | track 1 | ch 1 | Note On D#4 (63) vel 38
7.037s | tick 7296 | track 1 | ch 1 | Note Off D#4 (63) vel 0
7.037s | tick 7296 | track 1 | ch 1 | Note On C5 (72) vel 38
7.130s | tick 7392 | track 1 | ch 1 | Note Off C5 (72) vel 0
7.130s | tick 7392 | track 1 | ch 1 | Note On G4 (67) vel 38
7.222s | tick 7488 | track 1 | ch 1 | Note Off G4 (67) vel 0
7.222s | tick 7488 | track 1 | ch 1 | Note On D#4 (63) vel 37
7.315s | tick 7584 | track 1 | ch 1 | Note Off D#4 (63) vel 0
7.315s | tick 7584 | track 1 | ch 1 | Note On C4 (60) vel 37
7.407s | tick 7680 | track 1 | ch 1 | Note Off C4 (60) vel 0
7.407s | tick 7680 | track 1 | ch 1 | Note Off C4 (60) vel 0
7.407s | tick 7680 | track 1 | ch 1 | Note Off D#4 (63) vel 0
7.407s | tick 7680 | track 1 | ch 1 | Note Off G4 (67) vel 0
7.407s | tick 7680 | track 1 | ch 1 | Note Off C2 (36) vel 0
7.407s | tick 7680 | track 1 | ch 1 | Note Off C3 (48) vel 0
7.407s | tick 7680 | track 1 | ch 1 | Note On F4 (65) vel 32
7.407s | tick 7680 | track 1 | ch 1 | Note On F3 (53) vel 28
7.407s | tick 7680 | track 1 | ch 1 | Note On F2 (41) vel 34
7.407s | tick 7680 | track 1 | ch 1 | Note On G#4 (68) vel 26
7.407s | tick 7680 | track 1 | ch 1 | Note On C4 (60) vel 26
7.407s | tick 7680 | track 1 | ch 1 | Note On F4 (65) vel 26
7.500s | tick 7776 | track 1 | ch 1 | Note Off F4 (65) vel 0
7.500s | tick 7776 | track 1 | ch 1 | Note On C4 (60) vel 33
7.593s | tick 7872 | track 1 | ch 1 | Note Off C4 (60) vel 0
7.593s | tick 7872 | track 1 | ch 1 | Note On F3 (53) vel 34
7.685s | tick 7968 | track 1 | ch 1 | Note Off F3 (53) vel 0
7.685s | tick 7968 | track 1 | ch 1 | Note On G#3 (56) vel 35
7.778s | tick 8064 | track 1 | ch 1 | Note Off G#3 (56) vel 0
7.778s | tick 8064 | track 1 | ch 1 | Note On F3 (53) vel 36
7.870s | tick 8160 | track 1 | ch 1 | Note Off F3 (53) vel 0
7.870s | tick 8160 | track 1 | ch 1 | Note On G#3 (56) vel 36
7.963s | tick 8256 | track 1 | ch 1 | Note Off G#3 (56) vel 0
7.963s | tick 8256 | track 1 | ch 1 | Note On F4 (65) vel 36
8.056s | tick 8352 | track 1 | ch 1 | Note Off F4 (65) vel 0
8.056s | tick 8352 | track 1 | ch 1 | Note On C5 (72) vel 36
8.148s | tick 8448 | track 1 | ch 1 | Note Off C5 (72) vel 0
8.148s | tick 8448 | track 1 | ch 1 | Note On G#4 (68) vel 36
8.241s | tick 8544 | track 1 | ch 1 | Note Off G#4 (68) vel 0
8.241s | tick 8544 | track 1 | ch 1 | Note On F4 (65) vel 36
8.333s | tick 8640 | track 1 | ch 1 | Note Off F4 (65) vel 0
8.333s | tick 8640 | track 1 | ch 1 | Note On C5 (72) vel 36
8.426s | tick 8736 | track 1 | ch 1 | Note Off C5 (72) vel 0
8.426s | tick 8736 | track 1 | ch 1 | Note On G#4 (68) vel 36
8.519s | tick 8832 | track 1 | ch 1 | Note Off G#4 (68) vel 0
8.519s | tick 8832 | track 1 | ch 1 | Note On F5 (77) vel 36
8.611s | tick 8928 | track 1 | ch 1 | Note Off F5 (77) vel 0
8.611s | tick 8928 | track 1 | ch 1 | Note On C5 (72) vel 36
8.704s | tick 9024 | track 1 | ch 1 | Note Off C5 (72) vel 0
8.704s | tick 9024 | track 1 | ch 1 | Note On G#4 (68) vel 36
8.796s | tick 9120 | track 1 | ch 1 | Note Off G#4 (68) vel 0
8.796s | tick 9120 | track 1 | ch 1 | Note On F4 (65) vel 36
8.889s | tick 9216 | track 1 | ch 1 | Note Off F4 (65) vel 0
8.889s | tick 9216 | track 1 | ch 1 | Note Off F4 (65) vel 0
8.889s | tick 9216 | track 1 | ch 1 | Note Off C4 (60) vel 0
8.889s | tick 9216 | track 1 | ch 1 | Note Off G#4 (68) vel 0
8.889s | tick 9216 | track 1 | ch 1 | Note Off F2 (41) vel 0
8.889s | tick 9216 | track 1 | ch 1 | Note Off F3 (53) vel 0
8.889s | tick 9216 | track 1 | ch 1 | Note On E4 (64) vel 31
8.889s | tick 9216 | track 1 | ch 1 | Note On A1 (33) vel 34
8.889s | tick 9216 | track 1 | ch 1 | Note On A2 (45) vel 28
8.889s | tick 9216 | track 1 | ch 1 | Note On A4 (69) vel 26
8.889s | tick 9216 | track 1 | ch 1 | Note On C4 (60) vel 26
8.889s | tick 9216 | track 1 | ch 1 | Note On E4 (64) vel 26
8.981s | tick 9312 | track 1 | ch 1 | Note Off E4 (64) vel 0
8.981s | tick 9312 | track 1 | ch 1 | Note On C4 (60) vel 32
9.074s | tick 9408 | track 1 | ch 1 | Note Off C4 (60) vel 0
9.074s | tick 9408 | track 1 | ch 1 | Note On E4 (64) vel 33
9.167s | tick 9504 | track 1 | ch 1 | Note Off E4 (64) vel 0
9.167s | tick 9504 | track 1 | ch 1 | Note On A4 (69) vel 33
9.259s | tick 9600 | track 1 | ch 1 | Note Off A4 (69) vel 0
9.259s | tick 9600 | track 1 | ch 1 | Note On E4 (64) vel 33
9.259s | tick 9600 | track 1 | ch 1 | Note On E5 (76) vel 33
9.352s | tick 9696 | track 1 | ch 1 | Note Off E5 (76) vel 0
9.352s | tick 9696 | track 1 | ch 1 | Note Off E4 (64) vel 0
9.352s | tick 9696 | track 1 | ch 1 | Note On C4 (60) vel 35
9.352s | tick 9696 | track 1 | ch 1 | Note On C5 (72) vel 35
9.444s | tick 9792 | track 1 | ch 1 | Note Off C5 (72) vel 0
9.444s | tick 9792 | track 1 | ch 1 | Note Off C4 (60) vel 0
9.444s | tick 9792 | track 1 | ch 1 | Note On A4 (69) vel 30
9.444s | tick 9792 | track 1 | ch 1 | Note On A5 (81) vel 36
9.537s | tick 9888 | track 1 | ch 1 | Note Off A5 (81) vel 0
9.537s | tick 9888 | track 1 | ch 1 | Note Off A4 (69) vel 0
9.537s | tick 9888 | track 1 | ch 1 | Note On C5 (72) vel 36
9.537s | tick 9888 | track 1 | ch 1 | Note On C4 (60) vel 30
9.630s | tick 9984 | track 1 | ch 1 | Note Off C4 (60) vel 0
9.630s | tick 9984 | track 1 | ch 1 | Note Off C5 (72) vel 0
9.630s | tick 9984 | track 1 | ch 1 | Note On E5 (76) vel 30
9.630s | tick 9984 | track 1 | ch 1 | Note On C6 (84) vel 36
9.722s | tick 10080 | track 1 | ch 1 | Note Off C6 (84) vel 0
9.722s | tick 10080 | track 1 | ch 1 | Note Off E5 (76) vel 0
9.722s | tick 10080 | track 1 | ch 1 | Note On C5 (72) vel 30
9.722s | tick 10080 | track 1 | ch 1 | Note On A5 (81) vel 36
9.815s | tick 10176 | track 1 | ch 1 | Note Off A5 (81) vel 0
9.815s | tick 10176 | track 1 | ch 1 | Note Off C5 (72) vel 0
9.815s | tick 10176 | track 1 | ch 1 | Note On E6 (88) vel 36
9.815s | tick 10176 | track 1 | ch 1 | Note On E5 (76) vel 30
9.907s | tick 10272 | track 1 | ch 1 | Note Off E5 (76) vel 0
9.907s | tick 10272 | track 1 | ch 1 | Note Off E6 (88) vel 0
9.907s | tick 10272 | track 1 | ch 1 | Note On A5 (81) vel 30
9.907s | tick 10272 | track 1 | ch 1 | Note On C6 (84) vel 36
10.000s | tick 10368 | track 1 | ch 1 | Note Off C6 (84) vel 0
10.000s | tick 10368 | track 1 | ch 1 | Note Off A5 (81) vel 0
10.000s | tick 10368 | track 1 | ch 1 | Note On A6 (93) vel 36
10.000s | tick 10368 | track 1 | ch 1 | Note On E5 (76) vel 30
10.093s | tick 10464 | track 1 | ch 1 | Note Off E5 (76) vel 0
10.093s | tick 10464 | track 1 | ch 1 | Note Off A6 (93) vel 0
10.093s | tick 10464 | track 1 | ch 1 | Note On E6 (88) vel 36
10.093s | tick 10464 | track 1 | ch 1 | Note On C5 (72) vel 30
10.185s | tick 10560 | track 1 | ch 1 | Note Off C5 (72) vel 0
10.185s | tick 10560 | track 1 | ch 1 | Note Off E6 (88) vel 0
10.185s | tick 10560 | track 1 | ch 1 | Note On C5 (72) vel 24
10.185s | tick 10560 | track 1 | ch 1 | Note On C6 (84) vel 36
10.278s | tick 10656 | track 1 | ch 1 | Note Off C6 (84) vel 0
10.278s | tick 10656 | track 1 | ch 1 | Note Off C5 (72) vel 0
10.278s | tick 10656 | track 1 | ch 1 | Note On A5 (81) vel 36
10.370s | tick 10752 | track 1 | ch 1 | Note Off A5 (81) vel 0
10.370s | tick 10752 | track 1 | ch 1 | Note Off E4 (64) vel 0
10.370s | tick 10752 | track 1 | ch 1 | Note Off C4 (60) vel 0
10.370s | tick 10752 | track 1 | ch 1 | Note Off A4 (69) vel 0
10.370s | tick 10752 | track 1 | ch 1 | Note Off A2 (45) vel 0
10.370s | tick 10752 | track 1 | ch 1 | Note Off A1 (33) vel 0
10.370s | tick 10752 | track 1 | ch 1 | Note On F5 (77) vel 31
10.370s | tick 10752 | track 1 | ch 1 | Note On F2 (41) vel 34
10.370s | tick 10752 | track 1 | ch 1 | Note On F3 (53) vel 28
10.370s | tick 10752 | track 1 | ch 1 | Note On C4 (60) vel 26
10.370s | tick 10752 | track 1 | ch 1 | Note On F4 (65) vel 26
10.370s | tick 10752 | track 1 | ch 1 | Note On G#4 (68) vel 26
10.370s | tick 10752 | track 1 | ch 1 | Note On C2 (36) vel 37
10.424s | tick 10808 | track 1 | ch 1 | Note On C#2 (37) vel 37
10.463s | tick 10848 | track 1 | ch 1 | Note Off C2 (36) vel 0
10.463s | tick 10848 | track 1 | ch 1 | Note Off F5 (77) vel 0
10.463s | tick 10848 | track 1 | ch 1 | Note On C5 (72) vel 32
10.475s | tick 10860 | track 1 | ch 1 | Note On D#2 (39) vel 37
10.516s | tick 10903 | track 1 | ch 1 | Note Off C#2 (37) vel 0
10.528s | tick 10915 | track 1 | ch 1 | Note On F2 (41) vel 37
10.555s | tick 10943 | track 1 | ch 1 | Note Off C5 (72) vel 0
10.555s | tick 10943 | track 1 | ch 1 | Note On F4 (65) vel 34
10.566s | tick 10955 | track 1 | ch 1 | Note Off D#2 (39) vel 0
10.581s | tick 10970 | track 1 | ch 1 | Note On G2 (43) vel 37
10.619s | tick 11010 | track 1 | ch 1 | Note Off F2 (41) vel 0
10.635s | tick 11026 | track 1 | ch 1 | Note On G#2 (44) vel 37
10.646s | tick 11038 | track 1 | ch 1 | Note Off F4 (65) vel 0
10.646s | tick 11038 | track 1 | ch 1 | Note On G#4 (68) vel 35
10.673s | tick 11066 | track 1 | ch 1 | Note Off G2 (43) vel 0
10.685s | tick 11078 | track 1 | ch 1 | Note On A#2 (46) vel 37
10.727s | tick 11122 | track 1 | ch 1 | Note Off G#2 (44) vel 0
10.739s | tick 11134 | track 1 | ch 1 | Note Off G#4 (68) vel 0
10.739s | tick 11134 | track 1 | ch 1 | Note On F4 (65) vel 35
10.739s | tick 11134 | track 1 | ch 1 | Note On C3 (48) vel 36
10.777s | tick 11174 | track 1 | ch 1 | Note Off A#2 (46) vel 0
10.792s | tick 11189 | track 1 | ch 1 | Note On C#3 (49) vel 35
10.830s | tick 11229 | track 1 | ch 1 | Note Off C3 (48) vel 0
10.830s | tick 11229 | track 1 | ch 1 | Note Off F4 (65) vel 0
10.830s | tick 11229 | track 1 | ch 1 | Note On G#4 (68) vel 38
10.846s | tick 11245 | track 1 | ch 1 | Note On D#3 (51) vel 34
10.883s | tick 11284 | track 1 | ch 1 | Note Off C#3 (49) vel 0
10.895s | tick 11296 | track 1 | ch 1 | Note On F3 (53) vel 33
10.922s | tick 11324 | track 1 | ch 1 | Note Off G#4 (68) vel 0
10.922s | tick 11324 | track 1 | ch 1 | Note On F5 (77) vel 38
10.937s | tick 11340 | track 1 | ch 1 | Note Off D#3 (51) vel 0
10.949s | tick 11352 | track 1 | ch 1 | Note On G3 (55) vel 33
10.988s | tick 11392 | track 1 | ch 1 | Note Off F3 (53) vel 0
11.003s | tick 11408 | track 1 | ch 1 | Note On G#3 (56) vel 33
11.015s | tick 11420 | track 1 | ch 1 | Note Off F5 (77) vel 0
11.015s | tick 11420 | track 1 | ch 1 | Note On C6 (84) vel 38
11.042s | tick 11448 | track 1 | ch 1 | Note Off G3 (55) vel 0
11.057s | tick 11464 | track 1 | ch 1 | Note On A#3 (58) vel 33
11.096s | tick 11504 | track 1 | ch 1 | Note Off G#3 (56) vel 0
11.107s | tick 11516 | track 1 | ch 1 | Note Off C6 (84) vel 0
11.107s | tick 11516 | track 1 | ch 1 | Note On G#5 (80) vel 38
11.107s | tick 11516 | track 1 | ch 1 | Note On C4 (60) vel 33
11.150s | tick 11560 | track 1 | ch 1 | Note Off A#3 (58) vel 0
11.161s | tick 11572 | track 1 | ch 1 | Note On C#4 (61) vel 33
11.200s | tick 11612 | track 1 | ch 1 | Note Off C4 (60) vel 0
11.200s | tick 11612 | track 1 | ch 1 | Note Off G#5 (80) vel 0
11.200s | tick 11612 | track 1 | ch 1 | Note On F5 (77) vel 38
11.215s | tick 11628 | track 1 | ch 1 | Note On D#4 (63) vel 33
11.253s | tick 11667 | track 1 | ch 1 | Note Off C#4 (61) vel 0
11.268s | tick 11683 | track 1 | ch 1 | Note On F4 (65) vel 34
11.291s | tick 11707 | track 1 | ch 1 | Note Off F5 (77) vel 0
11.291s | tick 11707 | track 1 | ch 1 | Note On C6 (84) vel 38
11.307s | tick 11723 | track 1 | ch 1 | Note Off D#4 (63) vel 0
11.318s | tick 11735 | track 1 | ch 1 | Note On G4 (67) vel 34
11.361s | tick 11779 | track 1 | ch 1 | Note Off F4 (65) vel 0
11.372s | tick 11791 | track 1 | ch 1 | Note On G#4 (68) vel 35
11.384s | tick 11803 | track 1 | ch 1 | Note Off C6 (84) vel 0
11.384s | tick 11803 | track 1 | ch 1 | Note On G#5 (80) vel 38
11.411s | tick 11831 | track 1 | ch 1 | Note Off G4 (67) vel 0
11.426s | tick 11847 | track 1 | ch 1 | Note On A#4 (70) vel 35
11.465s | tick 11887 | track 1 | ch 1 | Note Off G#4 (68) vel 0
11.477s | tick 11899 | track 1 | ch 1 | Note Off G#5 (80) vel 0
11.477s | tick 11899 | track 1 | ch 1 | Note On F6 (89) vel 38
11.481s | tick 11903 | track 1 | ch 1 | Note On C5 (72) vel 36
11.519s | tick 11943 | track 1 | ch 1 | Note Off A#4 (70) vel 0
11.531s | tick 11955 | track 1 | ch 1 | Note On C#5 (73) vel 36
11.569s | tick 11995 | track 1 | ch 1 | Note Off F6 (89) vel 0
11.569s | tick 11995 | track 1 | ch 1 | Note On C6 (84) vel 38
11.573s | tick 11999 | track 1 | ch 1 | Note Off C5 (72) vel 0
11.585s | tick 12011 | track 1 | ch 1 | Note On D#5 (75) vel 36
11.622s | tick 12050 | track 1 | ch 1 | Note Off C#5 (73) vel 0
11.638s | tick 12066 | track 1 | ch 1 | Note On F5 (77) vel 37
11.661s | tick 12090 | track 1 | ch 1 | Note Off C6 (84) vel 0
11.661s | tick 12090 | track 1 | ch 1 | Note On G#5 (80) vel 38
11.676s | tick 12106 | track 1 | ch 1 | Note Off D#5 (75) vel 0
11.691s | tick 12121 | track 1 | ch 1 | Note On G5 (79) vel 37
11.729s | tick 12161 | track 1 | ch 1 | Note Off F5 (77) vel 0
11.741s | tick 12173 | track 1 | ch 1 | Note On G#5 (80) vel 38
11.752s | tick 12185 | track 1 | ch 1 | Note Off G#5 (80) vel 0
11.752s | tick 12185 | track 1 | ch 1 | Note On F5 (77) vel 39
11.783s | tick 12217 | track 1 | ch 1 | Note Off G5 (79) vel 0
11.795s | tick 12229 | track 1 | ch 1 | Note On A#5 (82) vel 40
11.834s | tick 12269 | track 1 | ch 1 | Note Off G#5 (80) vel 0
11.845s | tick 12281 | track 1 | ch 1 | Note Off F5 (77) vel 0
11.845s | tick 12281 | track 1 | ch 1 | Note Off G#4 (68) vel 0
11.845s | tick 12281 | track 1 | ch 1 | Note Off F4 (65) vel 0
11.845s | tick 12281 | track 1 | ch 1 | Note Off C4 (60) vel 0
11.845s | tick 12281 | track 1 | ch 1 | Note Off F3 (53) vel 0
11.845s | tick 12281 | track 1 | ch 1 | Note Off F2 (41) vel 0
11.845s | tick 12281 | track 1 | ch 1 | Note On D#4 (63) vel 36
11.845s | tick 12281 | track 1 | ch 1 | Note On C3 (48) vel 33
11.845s | tick 12281 | track 1 | ch 1 | Note On C4 (60) vel 25
11.845s | tick 12281 | track 1 | ch 1 | Note On C5 (72) vel 35
11.849s | tick 12285 | track 1 | ch 1 | Note On C6 (84) vel 41
11.888s | tick 12325 | track 1 | ch 1 | Note Off A#5 (82) vel 0
11.938s | tick 12377 | track 1 | ch 1 | Note Off C3 (48) vel 0
11.938s | tick 12377 | track 1 | ch 1 | Note Off D#4 (63) vel 0
11.938s | tick 12377 | track 1 | ch 1 | Note On C4 (60) vel 36
11.938s | tick 12377 | track 1 | ch 1 | Note On C3 (48) vel 28
11.942s | tick 12381 | track 1 | ch 1 | Note Off C6 (84) vel 0
12.030s | tick 12473 | track 1 | ch 1 | Note Off C3 (48) vel 0
12.030s | tick 12473 | track 1 | ch 1 | Note Off C4 (60) vel 0
12.030s | tick 12473 | track 1 | ch 1 | Note Off C5 (72) vel 0
12.030s | tick 12473 | track 1 | ch 1 | Note Off C4 (60) vel 0
12.030s | tick 12473 | track 1 | ch 1 | Note On D#4 (63) vel 36
12.030s | tick 12473 | track 1 | ch 1 | Note On C3 (48) vel 28
12.030s | tick 12473 | track 1 | ch 1 | Note On C4 (60) vel 25
12.030s | tick 12473 | track 1 | ch 1 | Note On C5 (72) vel 35
12.123s | tick 12569 | track 1 | ch 1 | Note Off C5 (72) vel 0
12.123s | tick 12569 | track 1 | ch 1 | Note Off C4 (60) vel 0
12.123s | tick 12569 | track 1 | ch 1 | Note Off C3 (48) vel 0
12.123s | tick 12569 | track 1 | ch 1 | Note Off D#4 (63) vel 0
12.123s | tick 12569 | track 1 | ch 1 | Note On G4 (67) vel 36
12.123s | tick 12569 | track 1 | ch 1 | Note On C3 (48) vel 28
12.123s | tick 12569 | track 1 | ch 1 | Note On D#4 (63) vel 25
12.123s | tick 12569 | track 1 | ch 1 | Note On D#5 (75) vel 35
12.215s | tick 12665 | track 1 | ch 1 | Note Off D#5 (75) vel 0
12.215s | tick 12665 | track 1 | ch 1 | Note Off D#4 (63) vel 0
12.215s | tick 12665 | track 1 | ch 1 | Note Off C3 (48) vel 0
12.215s | tick 12665 | track 1 | ch 1 | Note Off G4 (67) vel 0
12.215s | tick 12665 | track 1 | ch 1 | Note On D3 (50) vel 33
12.215s | tick 12665 | track 1 | ch 1 | Note On D4 (62) vel 25
12.215s | tick 12665 | track 1 | ch 1 | Note On D5 (74) vel 35
12.308s | tick 12761 | track 1 | ch 1 | Note Off D3 (50) vel 0
12.308s | tick 12761 | track 1 | ch 1 | Note On C4 (60) vel 36
12.308s | tick 12761 | track 1 | ch 1 | Note On D3 (50) vel 28
12.401s | tick 12857 | track 1 | ch 1 | Note Off D3 (50) vel 0
12.401s | tick 12857 | track 1 | ch 1 | Note Off C4 (60) vel 0
12.401s | tick 12857 | track 1 | ch 1 | Note Off D5 (74) vel 0
12.401s | tick 12857 | track 1 | ch 1 | Note Off D4 (62) vel 0
12.401s | tick 12857 | track 1 | ch 1 | Note On F4 (65) vel 36
12.401s | tick 12857 | track 1 | ch 1 | Note On D3 (50) vel 28
12.401s | tick 12857 | track 1 | ch 1 | Note On D4 (62) vel 25
12.401s | tick 12857 | track 1 | ch 1 | Note On D5 (74) vel 35
12.493s | tick 12953 | track 1 | ch 1 | Note Off D5 (74) vel 0
12.493s | tick 12953 | track 1 | ch 1 | Note Off D4 (62) vel 0
12.493s | tick 12953 | track 1 | ch 1 | Note Off D3 (50) vel 0
12.493s | tick 12953 | track 1 | ch 1 | Note Off F4 (65) vel 0
12.493s | tick 12953 | track 1 | ch 1 | Note On G#4 (68) vel 36
12.493s | tick 12953 | track 1 | ch 1 | Note On D3 (50) vel 28
12.493s | tick 12953 | track 1 | ch 1 | Note On F4 (65) vel 25
12.493s | tick 12953 | track 1 | ch 1 | Note On F5 (77) vel 35
12.586s | tick 13049 | track 1 | ch 1 | Note Off F5 (77) vel 0
12.586s | tick 13049 | track 1 | ch 1 | Note Off F4 (65) vel 0
12.586s | tick 13049 | track 1 | ch 1 | Note Off D3 (50) vel 0
12.586s | tick 13049 | track 1 | ch 1 | Note Off G#4 (68) vel 0
12.586s | tick 13049 | track 1 | ch 1 | Note On G4 (67) vel 36
12.586s | tick 13049 | track 1 | ch 1 | Note On D#3 (51) vel 33
12.586s | tick 13049 | track 1 | ch 1 | Note On D#5 (75) vel 35
12.586s | tick 13049 | track 1 | ch 1 | Note On D#4 (63) vel 25
12.678s | tick 13145 | track 1 | ch 1 | Note Off D#3 (51) vel 0
12.678s | tick 13145 | track 1 | ch 1 | Note Off G4 (67) vel 0
12.678s | tick 13145 | track 1 | ch 1 | Note On D#4 (63) vel 36
12.678s | tick 13145 | track 1 | ch 1 | Note On D#3 (51) vel 28
12.771s | tick 13241 | track 1 | ch 1 | Note Off D#3 (51) vel 0
12.771s | tick 13241 | track 1 | ch 1 | Note Off D#4 (63) vel 0
12.771s | tick 13241 | track 1 | ch 1 | Note Off D#4 (63) vel 0
12.771s | tick 13241 | track 1 | ch 1 | Note Off D#5 (75) vel 0
12.771s | tick 13241 | track 1 | ch 1 | Note On G4 (67) vel 36
12.771s | tick 13241 | track 1 | ch 1 | Note On D#3 (51) vel 28
12.771s | tick 13241 | track 1 | ch 1 | Note On D#4 (63) vel 25
12.771s | tick 13241 | track 1 | ch 1 | Note On D#5 (75) vel 35
12.864s | tick 13337 | track 1 | ch 1 | Note Off D#5 (75) vel 0
12.864s | tick 13337 | track 1 | ch 1 | Note Off D#4 (63) vel 0
12.864s | tick 13337 | track 1 | ch 1 | Note Off D#3 (51) vel 0
12.864s | tick 13337 | track 1 | ch 1 | Note Off G4 (67) vel 0
12.864s | tick 13337 | track 1 | ch 1 | Note On A#4 (70) vel 36
12.864s | tick 13337 | track 1 | ch 1 | Note On D#3 (51) vel 28
12.864s | tick 13337 | track 1 | ch 1 | Note On G5 (79) vel 35
12.864s | tick 13337 | track 1 | ch 1 | Note On G4 (67) vel 25
12.956s | tick 13433 | track 1 | ch 1 | Note Off G4 (67) vel 0
12.956s | tick 13433 | track 1 | ch 1 | Note Off G5 (79) vel 0
12.956s | tick 13433 | track 1 | ch 1 | Note Off D#3 (51) vel 0
12.956s | tick 13433 | track 1 | ch 1 | Note Off A#4 (70) vel 0
12.956s | tick 13433 | track 1 | ch 1 | Note On G#4 (68) vel 36
12.956s | tick 13433 | track 1 | ch 1 | Note On F3 (53) vel 33
12.956s | tick 13433 | track 1 | ch 1 | Note On F5 (77) vel 33
13.049s | tick 13529 | track 1 | ch 1 | Note Off F5 (77) vel 0
13.049s | tick 13529 | track 1 | ch 1 | Note Off F3 (53) vel 0
13.049s | tick 13529 | track 1 | ch 1 | Note Off G#4 (68) vel 0
13.049s | tick 13529 | track 1 | ch 1 | Note On F4 (65) vel 36
13.049s | tick 13529 | track 1 | ch 1 | Note On F3 (53) vel 28
13.049s | tick 13529 | track 1 | ch 1 | Note On D5 (74) vel 32
13.141s | tick 13625 | track 1 | ch 1 | Note Off D5 (74) vel 0
13.141s | tick 13625 | track 1 | ch 1 | Note Off F3 (53) vel 0
13.141s | tick 13625 | track 1 | ch 1 | Note Off F4 (65) vel 0
13.141s | tick 13625 | track 1 | ch 1 | Note On G#4 (68) vel 36
13.141s | tick 13625 | track 1 | ch 1 | Note On F3 (53) vel 28
13.141s | tick 13625 | track 1 | ch 1 | Note On D#5 (75) vel 31
13.234s | tick 13721 | track 1 | ch 1 | Note Off D#5 (75) vel 0
13.234s | tick 13721 | track 1 | ch 1 | Note Off G#4 (68) vel 0
13.234s | tick 13721 | track 1 | ch 1 | Note On C5 (72) vel 36
13.234s | tick 13721 | track 1 | ch 1 | Note On F5 (77) vel 30
13.327s | tick 13817 | track 1 | ch 1 | Note Off F5 (77) vel 0
13.327s | tick 13817 | track 1 | ch 1 | Note Off C5 (72) vel 0
13.327s | tick 13817 | track 1 | ch 1 | Note Off F3 (53) vel 0
13.327s | tick 13817 | track 1 | ch 1 | Note On B4 (71) vel 36
13.327s | tick 13817 | track 1 | ch 1 | Note On G3 (55) vel 33
13.327s | tick 13817 | track 1 | ch 1 | Note On G5 (79) vel 29
13.419s | tick 13913 | track 1 | ch 1 | Note Off G5 (79) vel 0
13.419s | tick 13913 | track 1 | ch 1 | Note Off G3 (55) vel 0
13.419s | tick 13913 | track 1 | ch 1 | Note Off B4 (71) vel 0
13.419s | tick 13913 | track 1 | ch 1 | Note On G4 (67) vel 36
13.419s | tick 13913 | track 1 | ch 1 | Note On D5 (74) vel 29
13.512s | tick 14009 | track 1 | ch 1 | Note Off D5 (74) vel 0
13.512s | tick 14009 | track 1 | ch 1 | Note Off G4 (67) vel 0
13.512s | tick 14009 | track 1 | ch 1 | Note On B4 (71) vel 36
13.512s | tick 14009 | track 1 | ch 1 | Note On G5 (79) vel 27
13.604s | tick 14105 | track 1 | ch 1 | Note Off G5 (79) vel 0
13.604s | tick 14105 | track 1 | ch 1 | Note Off B4 (71) vel 0
13.604s | tick 14105 | track 1 | ch 1 | Note On D5 (74) vel 36
13.604s | tick 14105 | track 1 | ch 1 | Note On B5 (83) vel 25
13.697s | tick 14201 | track 1 | ch 1 | Note Off B5 (83) vel 0
13.697s | tick 14201 | track 1 | ch 1 | Note Off D5 (74) vel 0
13.697s | tick 14201 | track 1 | ch 1 | Note On F5 (77) vel 36
13.697s | tick 14201 | track 1 | ch 1 | Note On D6 (86) vel 24
13.790s | tick 14297 | track 1 | ch 1 | Note Off D6 (86) vel 0
13.790s | tick 14297 | track 1 | ch 1 | Note Off F5 (77) vel 0
13.790s | tick 14297 | track 1 | ch 1 | Note On D5 (74) vel 36
13.882s | tick 14393 | track 1 | ch 1 | Note Off D5 (74) vel 0
13.882s | tick 14393 | track 1 | ch 1 | Note On F5 (77) vel 36
13.975s | tick 14489 | track 1 | ch 1 | Note Off F5 (77) vel 0
13.975s | tick 14489 | track 1 | ch 1 | Note On G5 (79) vel 36
14.067s | tick 14585 | track 1 | ch 1 | Note Off G5 (79) vel 0
14.067s | tick 14585 | track 1 | ch 1 | Note On B5 (83) vel 39
14.252s | tick 14777 | track 1 | ch 1 | Note Off B5 (83) vel 0
14.438s | tick 14969 | track 1 | ch 1 | Note On G3 (55) vel 36
14.530s | tick 15065 | track 1 | ch 1 | Note Off G3 (55) vel 0
14.530s | tick 15065 | track 1 | ch 1 | Note On C4 (60) vel 36
14.623s | tick 15161 | track 1 | ch 1 | Note Off C4 (60) vel 0
14.623s | tick 15161 | track 1 | ch 1 | Note On D#4 (63) vel 36
14.715s | tick 15257 | track 1 | ch 1 | Note Off D#4 (63) vel 0
14.715s | tick 15257 | track 1 | ch 1 | Note On F4 (65) vel 36
14.808s | tick 15353 | track 1 | ch 1 | Note Off F4 (65) vel 0
14.808s | tick 15353 | track 1 | ch 1 | Note On G3 (55) vel 28
14.808s | tick 15353 | track 1 | ch 1 | Note On G4 (67) vel 39
14.808s | tick 15353 | track 1 | ch 1 | Note On C5 (72) vel 30
14.901s | tick 15449 | track 1 | ch 1 | Note Off C5 (72) vel 0
14.901s | tick 15449 | track 1 | ch 1 | Note On G4 (67) vel 30
14.993s | tick 15545 | track 1 | ch 1 | Note Off G4 (67) vel 0
14.993s | tick 15545 | track 1 | ch 1 | Note On C2 (36) vel 33
14.993s | tick 15545 | track 1 | ch 1 | Note On D#4 (63) vel 30
15.086s | tick 15641 | track 1 | ch 1 | Note Off D#4 (63) vel 0
15.086s | tick 15641 | track 1 | ch 1 | Note On C4 (60) vel 30
15.178s | tick 15737 | track 1 | ch 1 | Note Off C4 (60) vel 0
15.178s | tick 15737 | track 1 | ch 1 | Note Off C2 (36) vel 0
15.178s | tick 15737 | track 1 | ch 1 | Note On G4 (67) vel 30
15.271s | tick 15833 | track 1 | ch 1 | Note Off G4 (67) vel 0
15.271s | tick 15833 | track 1 | ch 1 | Note On D#4 (63) vel 30
15.364s | tick 15929 | track 1 | ch 1 | Note Off D#4 (63) vel 0
15.364s | tick 15929 | track 1 | ch 1 | Note On C2 (36) vel 33
15.364s | tick 15929 | track 1 | ch 1 | Note On C4 (60) vel 30
15.456s | tick 16025 | track 1 | ch 1 | Note Off C4 (60) vel 0
15.456s | tick 16025 | track 1 | ch 1 | Note On G3 (55) vel 30
15.549s | tick 16121 | track 1 | ch 1 | Note Off G3 (55) vel 0
15.549s | tick 16121 | track 1 | ch 1 | Note Off C2 (36) vel 0
15.549s | tick 16121 | track 1 | ch 1 | Note On D#4 (63) vel 30
15.641s | tick 16217 | track 1 | ch 1 | Note Off D#4 (63) vel 0
15.734s | tick 16313 | track 1 | ch 1 | Note On C2 (36) vel 33
15.734s | tick 16313 | track 1 | ch 1 | Note On C4 (60) vel 30
15.827s | tick 16409 | track 1 | ch 1 | Note Off C4 (60) vel 0
15.827s | tick 16409 | track 1 | ch 1 | Note On D#4 (63) vel 30
15.919s | tick 16505 | track 1 | ch 1 | Note Off D#4 (63) vel 0
15.919s | tick 16505 | track 1 | ch 1 | Note Off C2 (36) vel 0
15.919s | tick 16505 | track 1 | ch 1 | Note On G3 (55) vel 30
16.012s | tick 16601 | track 1 | ch 1 | Note Off G3 (55) vel 0
16.012s | tick 16601 | track 1 | ch 1 | Note On C4 (60) vel 30
16.104s | tick 16697 | track 1 | ch 1 | Note Off C4 (60) vel 0
16.104s | tick 16697 | track 1 | ch 1 | Note On C2 (36) vel 33
16.104s | tick 16697 | track 1 | ch 1 | Note On D#4 (63) vel 30
16.197s | tick 16793 | track 1 | ch 1 | Note Off D#4 (63) vel 0
16.290s | tick 16889 | track 1 | ch 1 | Note Off C2 (36) vel 0
16.290s | tick 16889 | track 1 | ch 1 | Note Off G4 (67) vel 0
16.290s | tick 16889 | track 1 | ch 1 | Note Off G3 (55) vel 0
16.290s | tick 16889 | track 1 | ch 1 | Note On F3 (53) vel 28
16.290s | tick 16889 | track 1 | ch 1 | Note On F4 (65) vel 39
16.290s | tick 16889 | track 1 | ch 1 | Note On A#4 (70) vel 30
16.382s | tick 16985 | track 1 | ch 1 | Note Off A#4 (70) vel 0
16.382s | tick 16985 | track 1 | ch 1 | Note On G4 (67) vel 30
16.475s | tick 17081 | track 1 | ch 1 | Note Off G4 (67) vel 0
16.475s | tick 17081 | track 1 | ch 1 | Note On F2 (41) vel 33
16.475s | tick 17081 | track 1 | ch 1 | Note On D#4 (63) vel 30
16.567s | tick 17177 | track 1 | ch 1 | Note Off D#4 (63) vel 0
16.567s | tick 17177 | track 1 | ch 1 | Note On A#3 (58) vel 30
16.660s | tick 17273 | track 1 | ch 1 | Note Off A#3 (58) vel 0
16.660s | tick 17273 | track 1 | ch 1 | Note Off F2 (41) vel 0
16.660s | tick 17273 | track 1 | ch 1 | Note On G4 (67) vel 30
16.752s | tick 17369 | track 1 | ch 1 | Note Off G4 (67) vel 0
16.752s | tick 17369 | track 1 | ch 1 | Note On D#4 (63) vel 30
16.845s | tick 17465 | track 1 | ch 1 | Note Off D#4 (63) vel 0
16.845s | tick 17465 | track 1 | ch 1 | Note On F2 (41) vel 33
16.845s | tick 17465 | track 1 | ch 1 | Note On A#3 (58) vel 30
16.938s | tick 17561 | track 1 | ch 1 | Note Off A#3 (58) vel 0
17.030s | tick 17657 | track 1 | ch 1 | Note Off F2 (41) vel 0
17.030s | tick 17657 | track 1 | ch 1 | Note Off F4 (65) vel 0
17.030s | tick 17657 | track 1 | ch 1 | Note Off F3 (53) vel 0
17.030s | tick 17657 | track 1 | ch 1 | Note On G#3 (56) vel 28
17.030s | tick 17657 | track 1 | ch 1 | Note On G#4 (68) vel 39
17.030s | tick 17657 | track 1 | ch 1 | Note On D#3 (51) vel 30
17.123s | tick 17753 | track 1 | ch 1 | Note Off D#3 (51) vel 0
17.123s | tick 17753 | track 1 | ch 1 | Note On F3 (53) vel 30
17.215s | tick 17849 | track 1 | ch 1 | Note Off F3 (53) vel 0
17.215s | tick 17849 | track 1 | ch 1 | Note On F2 (41) vel 33
17.215s | tick 17849 | track 1 | ch 1 | Note On G#3 (56) vel 30
17.308s | tick 17945 | track 1 | ch 1 | Note Off G#3 (56) vel 0
17.308s | tick 17945 | track 1 | ch 1 | Note On C4 (60) vel 30
17.401s | tick 18041 | track 1 | ch 1 | Note Off C4 (60) vel 0
17.401s | tick 18041 | track 1 | ch 1 | Note Off F2 (41) vel 0
17.401s | tick 18041 | track 1 | ch 1 | Note On F3 (53) vel 30
17.493s | tick 18137 | track 1 | ch 1 | Note Off F3 (53) vel 0
17.493s | tick 18137 | track 1 | ch 1 | Note On G#3 (56) vel 30
17.586s | tick 18233 | track 1 | ch 1 | Note Off G#3 (56) vel 0
17.586s | tick 18233 | track 1 | ch 1 | Note On F2 (41) vel 33
17.586s | tick 18233 | track 1 | ch 1 | Note On C4 (60) vel 30
17.678s | tick 18329 | track 1 | ch 1 | Note Off C4 (60) vel 0
17.678s | tick 18329 | track 1 | ch 1 | Note On F4 (65) vel 30
17.771s | tick 18425 | track 1 | ch 1 | Note Off F4 (65) vel 0
17.771s | tick 18425 | track 1 | ch 1 | Note Off F2 (41) vel 0
17.771s | tick 18425 | track 1 | ch 1 | Note Off G#4 (68) vel 0
17.771s | tick 18425 | track 1 | ch 1 | Note Off G#3 (56) vel 0
17.771s | tick 18425 | track 1 | ch 1 | Note On G4 (67) vel 41
17.771s | tick 18425 | track 1 | ch 1 | Note On G3 (55) vel 33
17.956s | tick 18617 | track 1 | ch 1 | Note Off G4 (67) vel 0
17.956s | tick 18617 | track 1 | ch 1 | Note On C2 (36) vel 33
17.956s | tick 18617 | track 1 | ch 1 | Note On C4 (60) vel 36
18.049s | tick 18713 | track 1 | ch 1 | Note Off C4 (60) vel 0
18.049s | tick 18713 | track 1 | ch 1 | Note On D#4 (63) vel 36
18.141s | tick 18809 | track 1 | ch 1 | Note Off D#4 (63) vel 0
18.141s | tick 18809 | track 1 | ch 1 | Note Off C2 (36) vel 0
18.141s | tick 18809 | track 1 | ch 1 | Note On G3 (55) vel 36
18.234s | tick 18905 | track 1 | ch 1 | Note Off G3 (55) vel 0
18.234s | tick 18905 | track 1 | ch 1 | Note On C4 (60) vel 36
18.327s | tick 19001 | track 1 | ch 1 | Note Off C4 (60) vel 0
18.327s | tick 19001 | track 1 | ch 1 | Note On C2 (36) vel 33
18.327s | tick 19001 | track 1 | ch 1 | Note On F4 (65) vel 36
18.419s | tick 19097 | track 1 | ch 1 | Note Off F4 (65) vel 0
18.419s | tick 19097 | track 1 | ch 1 | Note On G3 (55) vel 28
18.512s | tick 19193 | track 1 | ch 1 | Note Off G3 (55) vel 0
18.512s | tick 19193 | track 1 | ch 1 | Note Off C2 (36) vel 0
18.512s | tick 19193 | track 1 | ch 1 | Note On C4 (60) vel 36
18.604s | tick 19289 | track 1 | ch 1 | Note Off C4 (60) vel 0
18.604s | tick 19289 | track 1 | ch 1 | Note On D4 (62) vel 36
18.697s | tick 19385 | track 1 | ch 1 | Note Off D4 (62) vel 0
18.697s | tick 19385 | track 1 | ch 1 | Note On C2 (36) vel 33
18.697s | tick 19385 | track 1 | ch 1 | Note On G3 (55) vel 36
18.790s | tick 19481 | track 1 | ch 1 | Note Off G3 (55) vel 0
18.790s | tick 19481 | track 1 | ch 1 | Note On C4 (60) vel 36
18.882s | tick 19577 | track 1 | ch 1 | Note Off C4 (60) vel 0
18.882s | tick 19577 | track 1 | ch 1 | Note Off C2 (36) vel 0
18.882s | tick 19577 | track 1 | ch 1 | Note On D#4 (63) vel 36
18.975s | tick 19673 | track 1 | ch 1 | Note Off D#4 (63) vel 0
18.975s | tick 19673 | track 1 | ch 1 | Note On D4 (62) vel 36
19.067s | tick 19769 | track 1 | ch 1 | Note Off D4 (62) vel 0
19.067s | tick 19769 | track 1 | ch 1 | Note On C2 (36) vel 33
19.067s | tick 19769 | track 1 | ch 1 | Note On C4 (60) vel 36
19.160s | tick 19865 | track 1 | ch 1 | Note Off C4 (60) vel 0
19.160s | tick 19865 | track 1 | ch 1 | Note On G3 (55) vel 36
19.252s | tick 19961 | track 1 | ch 1 | Note Off G3 (55) vel 0
19.252s | tick 19961 | track 1 | ch 1 | Note Off C2 (36) vel 0
19.252s | tick 19961 | track 1 | ch 1 | Note On G4 (67) vel 36
19.345s | tick 20057 | track 1 | ch 1 | Note Off G4 (67) vel 0
19.438s | tick 20153 | track 1 | ch 1 | Note On C2 (36) vel 33
19.438s | tick 20153 | track 1 | ch 1 | Note On C4 (60) vel 36
19.530s | tick 20249 | track 1 | ch 1 | Note Off C4 (60) vel 0
19.530s | tick 20249 | track 1 | ch 1 | Note On D#4 (63) vel 36
19.623s | tick 20345 | track 1 | ch 1 | Note Off D#4 (63) vel 0
19.623s | tick 20345 | track 1 | ch 1 | Note Off C2 (36) vel 0
19.623s | tick 20345 | track 1 | ch 1 | Note On G3 (55) vel 36
19.715s | tick 20441 | track 1 | ch 1 | Note Off G3 (55) vel 0
19.715s | tick 20441 | track 1 | ch 1 | Note On C4 (60) vel 36
19.808s | tick 20537 | track 1 | ch 1 | Note Off C4 (60) vel 0
19.808s | tick 20537 | track 1 | ch 1 | Note On C2 (36) vel 33
19.808s | tick 20537 | track 1 | ch 1 | Note On F4 (65) vel 36
19.901s | tick 20633 | track 1 | ch 1 | Note Off F4 (65) vel 0
19.901s | tick 20633 | track 1 | ch 1 | Note On G3 (55) vel 36
19.993s | tick 20729 | track 1 | ch 1 | Note Off G3 (55) vel 0
19.993s | tick 20729 | track 1 | ch 1 | Note Off C2 (36) vel 0
19.993s | tick 20729 | track 1 | ch 1 | Note On C4 (60) vel 36
20.086s | tick 20825 | track 1 | ch 1 | Note Off C4 (60) vel 0
20.086s | tick 20825 | track 1 | ch 1 | Note On D4 (62) vel 36
20.178s | tick 20921 | track 1 | ch 1 | Note Off D4 (62) vel 0
20.178s | tick 20921 | track 1 | ch 1 | Note On C2 (36) vel 33
20.178s | tick 20921 | track 1 | ch 1 | Note On G3 (55) vel 36
20.271s | tick 21017 | track 1 | ch 1 | Note Off G3 (55) vel 0
20.271s | tick 21017 | track 1 | ch 1 | Note On D4 (62) vel 36
20.364s | tick 21113 | track 1 | ch 1 | Note Off D4 (62) vel 0
20.364s | tick 21113 | track 1 | ch 1 | Note Off C2 (36) vel 0
20.364s | tick 21113 | track 1 | ch 1 | Note On D#4 (63) vel 36
20.456s | tick 21209 | track 1 | ch 1 | Note Off D#4 (63) vel 0
20.456s | tick 21209 | track 1 | ch 1 | Note On D4 (62) vel 36
20.549s | tick 21305 | track 1 | ch 1 | Note Off D4 (62) vel 0
20.549s | tick 21305 | track 1 | ch 1 | Note On C2 (36) vel 33
20.549s | tick 21305 | track 1 | ch 1 | Note On D#4 (63) vel 36
20.641s | tick 21401 | track 1 | ch 1 | Note Off D#4 (63) vel 0
20.641s | tick 21401 | track 1 | ch 1 | Note On F4 (65) vel 36
20.734s | tick 21497 | track 1 | ch 1 | Note Off F4 (65) vel 0
20.734s | tick 21497 | track 1 | ch 1 | Note Off C2 (36) vel 0
20.734s | tick 21497 | track 1 | ch 1 | Note Off G3 (55) vel 0
20.734s | tick 21497 | track 1 | ch 1 | Note On G#3 (56) vel 25
20.734s | tick 21497 | track 1 | ch 1 | Note On G#4 (68) vel 39
20.734s | tick 21497 | track 1 | ch 1 | Note On D#5 (75) vel 30
20.827s | tick 21593 | track 1 | ch 1 | Note Off D#5 (75) vel 0
20.827s | tick 21593 | track 1 | ch 1 | Note On C5 (72) vel 30
20.919s | tick 21689 | track 1 | ch 1 | Note Off C5 (72) vel 0
20.919s | tick 21689 | track 1 | ch 1 | Note On G#2 (44) vel 33
20.919s | tick 21689 | track 1 | ch 1 | Note On G#4 (68) vel 30
21.012s | tick 21785 | track 1 | ch 1 | Note Off G#4 (68) vel 0
21.012s | tick 21785 | track 1 | ch 1 | Note On D#4 (63) vel 30
21.104s | tick 21881 | track 1 | ch 1 | Note Off D#4 (63) vel 0
21.104s | tick 21881 | track 1 | ch 1 | Note Off G#2 (44) vel 0
21.104s | tick 21881 | track 1 | ch 1 | Note On C5 (72) vel 30
21.197s | tick 21977 | track 1 | ch 1 | Note Off C5 (72) vel 0
21.197s | tick 21977 | track 1 | ch 1 | Note On G#4 (68) vel 30
21.290s | tick 22073 | track 1 | ch 1 | Note Off G#4 (68) vel 0
21.290s | tick 22073 | track 1 | ch 1 | Note On G#2 (44) vel 33
21.290s | tick 22073 | track 1 | ch 1 | Note On D#4 (63) vel 30
21.382s | tick 22169 | track 1 | ch 1 | Note Off D#4 (63) vel 0
21.382s | tick 22169 | track 1 | ch 1 | Note On C4 (60) vel 30
21.475s | tick 22265 | track 1 | ch 1 | Note Off C4 (60) vel 0
21.475s | tick 22265 | track 1 | ch 1 | Note Off G#2 (44) vel 0
21.475s | tick 22265 | track 1 | ch 1 | Note Off G#4 (68) vel 0
21.475s | tick 22265 | track 1 | ch 1 | Note Off G#3 (56) vel 0
21.475s | tick 22265 | track 1 | ch 1 | Note On D#4 (63) vel 27
21.475s | tick 22265 | track 1 | ch 1 | Note On D#5 (75) vel 39
21.475s | tick 22265 | track 1 | ch 1 | Note On G#3 (56) vel 30
21.567s | tick 22361 | track 1 | ch 1 | Note Off G#3 (56) vel 0
21.567s | tick 22361 | track 1 | ch 1 | Note On C4 (60) vel 30
21.660s | tick 22457 | track 1 | ch 1 | Note Off C4 (60) vel 0
21.660s | tick 22457 | track 1 | ch 1 | Note On G#2 (44) vel 33
21.660s | tick 22457 | track 1 | ch 1 | Note On D#4 (63) vel 30
21.752s | tick 22553 | track 1 | ch 1 | Note Off D#4 (63) vel 0
21.752s | tick 22553 | track 1 | ch 1 | Note On G#4 (68) vel 30
21.845s | tick 22649 | track 1 | ch 1 | Note Off G#4 (68) vel 0
21.845s | tick 22649 | track 1 | ch 1 | Note Off G#2 (44) vel 0
21.845s | tick 22649 | track 1 | ch 1 | Note On D#4 (63) vel 30
21.938s | tick 22745 | track 1 | ch 1 | Note Off D#4 (63) vel 0
21.938s | tick 22745 | track 1 | ch 1 | Note On G#4 (68) vel 30
22.030s | tick 22841 | track 1 | ch 1 | Note Off G#4 (68) vel 0
22.030s | tick 22841 | track 1 | ch 1 | Note On G#2 (44) vel 33
22.030s | tick 22841 | track 1 | ch 1 | Note On D#5 (75) vel 30
22.123s | tick 22937 | track 1 | ch 1 | Note Off D#5 (75) vel 0
22.123s | tick 22937 | track 1 | ch 1 | Note On F5 (77) vel 30
22.215s | tick 23033 | track 1 | ch 1 | Note Off F5 (77) vel 0
22.215s | tick 23033 | track 1 | ch 1 | Note Off G#2 (44) vel 0
22.215s | tick 23033 | track 1 | ch 1 | Note Off D#5 (75) vel 0
22.215s | tick 23033 | track 1 | ch 1 | Note Off D#4 (63) vel 0
22.215s | tick 23033 | track 1 | ch 1 | Note On D4 (62) vel 27
22.215s | tick 23033 | track 1 | ch 1 | Note On D5 (74) vel 39
22.215s | tick 23033 | track 1 | ch 1 | Note On G#5 (80) vel 30
22.308s | tick 23129 | track 1 | ch 1 | Note Off G#5 (80) vel 0
22.308s | tick 23129 | track 1 | ch 1 | Note On F5 (77) vel 30
22.401s | tick 23225 | track 1 | ch 1 | Note Off F5 (77) vel 0
22.401s | tick 23225 | track 1 | ch 1 | Note On F2 (41) vel 33
22.401s | tick 23225 | track 1 | ch 1 | Note On C5 (72) vel 30
22.493s | tick 23321 | track 1 | ch 1 | Note Off C5 (72) vel 0
22.493s | tick 23321 | track 1 | ch 1 | Note On G#4 (68) vel 30
22.586s | tick 23417 | track 1 | ch 1 | Note Off G#4 (68) vel 0
22.586s | tick 23417 | track 1 | ch 1 | Note Off F2 (41) vel 0
22.586s | tick 23417 | track 1 | ch 1 | Note On F5 (77) vel 30
22.678s | tick 23513 | track 1 | ch 1 | Note Off F5 (77) vel 0
22.678s | tick 23513 | track 1 | ch 1 | Note On C5 (72) vel 30
22.771s | tick 23609 | track 1 | ch 1 | Note Off C5 (72) vel 0
22.771s | tick 23609 | track 1 | ch 1 | Note On F2 (41) vel 33
22.771s | tick 23609 | track 1 | ch 1 | Note On G#4 (68) vel 30
22.864s | tick 23705 | track 1 | ch 1 | Note Off G#4 (68) vel 0
22.864s | tick 23705 | track 1 | ch 1 | Note On F4 (65) vel 30
22.956s | tick 23801 | track 1 | ch 1 | Note Off F4 (65) vel 0
22.956s | tick 23801 | track 1 | ch 1 | Note Off F2 (41) vel 0
22.956s | tick 23801 | track 1 | ch 1 | Note Off D5 (74) vel 0
22.956s | tick 23801 | track 1 | ch 1 | Note Off D4 (62) vel 0
22.956s | tick 23801 | track 1 | ch 1 | Note On G#3 (56) vel 27
22.956s | tick 23801 | track 1 | ch 1 | Note On G#4 (68) vel 39
22.956s | tick 23801 | track 1 | ch 1 | Note On C4 (60) vel 30
23.049s | tick 23897 | track 1 | ch 1 | Note Off C4 (60) vel 0
23.049s | tick 23897 | track 1 | ch 1 | Note On F4 (65) vel 30
23.141s | tick 23993 | track 1 | ch 1 | Note Off F4 (65) vel 0
23.141s | tick 23993 | track 1 | ch 1 | Note On F2 (41) vel 33
23.141s | tick 23993 | track 1 | ch 1 | Note On G#4 (68) vel 30
23.234s | tick 24089 | track 1 | ch 1 | Note Off G#4 (68) vel 0
23.234s | tick 24089 | track 1 | ch 1 | Note On C5 (72) vel 30
23.327s | tick 24185 | track 1 | ch 1 | Note Off C5 (72) vel 0
23.327s | tick 24185 | track 1 | ch 1 | Note Off F2 (41) vel 0
23.327s | tick 24185 | track 1 | ch 1 | Note Off G#4 (68) vel 0
23.327s | tick 24185 | track 1 | ch 1 | Note Off G#3 (56) vel 0
23.327s | tick 24185 | track 1 | ch 1 | Note On A#3 (58) vel 27
23.327s | tick 24185 | track 1 | ch 1 | Note On A#4 (70) vel 39
23.327s | tick 24185 | track 1 | ch 1 | Note On F4 (65) vel 30
23.419s | tick 24281 | track 1 | ch 1 | Note Off F4 (65) vel 0
23.419s | tick 24281 | track 1 | ch 1 | Note On G#4 (68) vel 30
23.512s | tick 24377 | track 1 | ch 1 | Note Off G#4 (68) vel 0
23.512s | tick 24377 | track 1 | ch 1 | Note On F2 (41) vel 33
23.512s | tick 24377 | track 1 | ch 1 | Note On C5 (72) vel 30
23.604s | tick 24473 | track 1 | ch 1 | Note Off C5 (72) vel 0
23.604s | tick 24473 | track 1 | ch 1 | Note On F5 (77) vel 30
23.697s | tick 24569 | track 1 | ch 1 | Note Off F5 (77) vel 0
23.697s | tick 24569 | track 1 | ch 1 | Note Off F2 (41) vel 0
23.697s | tick 24569 | track 1 | ch 1 | Note Off A#4 (70) vel 0
23.697s | tick 24569 | track 1 | ch 1 | Note Off A#3 (58) vel 0
23.697s | tick 24569 | track 1 | ch 1 | Note On C5 (72) vel 38
23.790s | tick 24665 | track 1 | ch 1 | Note Off C5 (72) vel 0
23.790s | tick 24665 | track 1 | ch 1 | Note On G3 (55) vel 38
23.882s | tick 24761 | track 1 | ch 1 | Note Off G3 (55) vel 0
23.882s | tick 24761 | track 1 | ch 1 | Note On G4 (67) vel 38
23.882s | tick 24761 | track 1 | ch 1 | Note On C2 (36) vel 33
23.975s | tick 24857 | track 1 | ch 1 | Note Off G4 (67) vel 0
23.975s | tick 24857 | track 1 | ch 1 | Note On D5 (74) vel 38
24.067s | tick 24953 | track 1 | ch 1 | Note Off D5 (74) vel 0
24.067s | tick 24953 | track 1 | ch 1 | Note Off C2 (36) vel 0
24.067s | tick 24953 | track 1 | ch 1 | Note On C4 (60) vel 38
24.160s | tick 25049 | track 1 | ch 1 | Note Off C4 (60) vel 0
24.160s | tick 25049 | track 1 | ch 1 | Note On G4 (67) vel 38
24.252s | tick 25145 | track 1 | ch 1 | Note Off G4 (67) vel 0
24.252s | tick 25145 | track 1 | ch 1 | Note On C5 (72) vel 38
24.252s | tick 25145 | track 1 | ch 1 | Note On C2 (36) vel 33
24.345s | tick 25241 | track 1 | ch 1 | Note Off C5 (72) vel 0
24.345s | tick 25241 | track 1 | ch 1 | Note On C4 (60) vel 38
24.438s | tick 25337 | track 1 | ch 1 | Note Off C4 (60) vel 0
24.438s | tick 25337 | track 1 | ch 1 | Note Off C2 (36) vel 0
24.438s | tick 25337 | track 1 | ch 1 | Note On G4 (67) vel 38
24.530s | tick 25433 | track 1 | ch 1 | Note Off G4 (67) vel 0
24.530s | tick 25433 | track 1 | ch 1 | Note On D#5 (75) vel 38
24.623s | tick 25529 | track 1 | ch 1 | Note Off D#5 (75) vel 0
24.623s | tick 25529 | track 1 | ch 1 | Note On C4 (60) vel 38
24.623s | tick 25529 | track 1 | ch 1 | Note On C2 (36) vel 33
24.715s | tick 25625 | track 1 | ch 1 | Note Off C4 (60) vel 0
24.715s | tick 25625 | track 1 | ch 1 | Note On G4 (67) vel 38
24.808s | tick 25721 | track 1 | ch 1 | Note Off G4 (67) vel 0
24.808s | tick 25721 | track 1 | ch 1 | Note Off C2 (36) vel 0
24.808s | tick 25721 | track 1 | ch 1 | Note On D5 (74) vel 38
24.901s | tick 25817 | track 1 | ch 1 | Note Off D5 (74) vel 0
24.901s | tick 25817 | track 1 | ch 1 | Note On D#5 (75) vel 38
24.993s | tick 25913 | track 1 | ch 1 | Note Off D#5 (75) vel 0
24.993s | tick 25913 | track 1 | ch 1 | Note On D5 (74) vel 38
24.993s | tick 25913 | track 1 | ch 1 | Note On C2 (36) vel 33
25.086s | tick 26009 | track 1 | ch 1 | Note Off D5 (74) vel 0
25.086s | tick 26009 | track 1 | ch 1 | Note On A#4 (70) vel 38
25.178s | tick 26105 | track 1 | ch 1 | Note Off A#4 (70) vel 0
25.178s | tick 26105 | track 1 | ch 1 | Note Off C2 (36) vel 0
25.178s | tick 26105 | track 1 | ch 1 | Note On C5 (72) vel 38
25.271s | tick 26201 | track 1 | ch 1 | Note Off C5 (72) vel 0
25.271s | tick 26201 | track 1 | ch 1 | Note On C4 (60) vel 38
25.364s | tick 26297 | track 1 | ch 1 | Note Off C4 (60) vel 0
25.364s | tick 26297 | track 1 | ch 1 | Note On A#4 (70) vel 38
25.364s | tick 26297 | track 1 | ch 1 | Note On C2 (36) vel 33
25.456s | tick 26393 | track 1 | ch 1 | Note Off A#4 (70) vel 0
25.456s | tick 26393 | track 1 | ch 1 | Note On C5 (72) vel 38
25.549s | tick 26489 | track 1 | ch 1 | Note Off C5 (72) vel 0
25.549s | tick 26489 | track 1 | ch 1 | Note Off C2 (36) vel 0
25.549s | tick 26489 | track 1 | ch 1 | Note On C4 (60) vel 38
25.641s | tick 26585 | track 1 | ch 1 | Note Off C4 (60) vel 0
25.641s | tick 26585 | track 1 | ch 1 | Note On D#4 (63) vel 38
25.734s | tick 26681 | track 1 | ch 1 | Note Off D#4 (63) vel 0
25.734s | tick 26681 | track 1 | ch 1 | Note On G4 (67) vel 38
25.734s | tick 26681 | track 1 | ch 1 | Note On C2 (36) vel 33
25.827s | tick 26777 | track 1 | ch 1 | Note Off G4 (67) vel 0
25.827s | tick 26777 | track 1 | ch 1 | Note On D#4 (63) vel 38
25.919s | tick 26873 | track 1 | ch 1 | Note Off D#4 (63) vel 0
25.919s | tick 26873 | track 1 | ch 1 | Note Off C2 (36) vel 0
25.919s | tick 26873 | track 1 | ch 1 | Note On F4 (65) vel 36
25.919s | tick 26873 | track 1 | ch 1 | Note On C4 (60) vel 28
26.012s | tick 26969 | track 1 | ch 1 | Note Off C4 (60) vel 0
26.012s | tick 26969 | track 1 | ch 1 | Note Off F4 (65) vel 0
26.012s | tick 26969 | track 1 | ch 1 | Note On A#3 (58) vel 28
26.012s | tick 26969 | track 1 | ch 1 | Note On D#4 (63) vel 36
26.104s | tick 27065 | track 1 | ch 1 | Note Off D#4 (63) vel 0
26.104s | tick 27065 | track 1 | ch 1 | Note Off A#3 (58) vel 0
26.104s | tick 27065 | track 1 | ch 1 | Note On F4 (65) vel 36
26.104s | tick 27065 | track 1 | ch 1 | Note On C4 (60) vel 28
26.104s | tick 27065 | track 1 | ch 1 | Note On C2 (36) vel 33
26.197s | tick 27161 | track 1 | ch 1 | Note Off C4 (60) vel 0
26.197s | tick 27161 | track 1 | ch 1 | Note Off F4 (65) vel 0
26.197s | tick 27161 | track 1 | ch 1 | Note On G4 (67) vel 36
26.197s | tick 27161 | track 1 | ch 1 | Note On D4 (62) vel 28
26.290s | tick 27257 | track 1 | ch 1 | Note Off D4 (62) vel 0
26.290s | tick 27257 | track 1 | ch 1 | Note Off G4 (67) vel 0
26.290s | tick 27257 | track 1 | ch 1 | Note Off C2 (36) vel 0
26.290s | tick 27257 | track 1 | ch 1 | Note On D#4 (63) vel 28
26.290s | tick 27257 | track 1 | ch 1 | Note On G#4 (68) vel 36
26.382s | tick 27353 | track 1 | ch 1 | Note Off G#4 (68) vel 0
26.382s | tick 27353 | track 1 | ch 1 | Note Off D#4 (63) vel 0
26.382s | tick 27353 | track 1 | ch 1 | Note On G4 (67) vel 36
26.382s | tick 27353 | track 1 | ch 1 | Note On D4 (62) vel 28
26.475s | tick 27449 | track 1 | ch 1 | Note Off D4 (62) vel 0
26.475s | tick 27449 | track 1 | ch 1 | Note Off G4 (67) vel 0
26.475s | tick 27449 | track 1 | ch 1 | Note On D#4 (63) vel 28
26.475s | tick 27449 | track 1 | ch 1 | Note On G#4 (68) vel 36
26.475s | tick 27449 | track 1 | ch 1 | Note On C2 (36) vel 33
26.567s | tick 27545 | track 1 | ch 1 | Note Off G#4 (68) vel 0
26.567s | tick 27545 | track 1 | ch 1 | Note Off D#4 (63) vel 0
26.567s | tick 27545 | track 1 | ch 1 | Note On F4 (65) vel 28
26.567s | tick 27545 | track 1 | ch 1 | Note On A#4 (70) vel 36
26.660s | tick 27641 | track 1 | ch 1 | Note Off A#4 (70) vel 0
26.660s | tick 27641 | track 1 | ch 1 | Note Off F4 (65) vel 0
26.660s | tick 27641 | track 1 | ch 1 | Note Off C2 (36) vel 0
26.660s | tick 27641 | track 1 | ch 1 | Note On G3 (55) vel 28
26.660s | tick 27641 | track 1 | ch 1 | Note On G4 (67) vel 39
26.660s | tick 27641 | track 1 | ch 1 | Note On C5 (72) vel 30
26.752s | tick 27737 | track 1 | ch 1 | Note Off C5 (72) vel 0
26.752s | tick 27737 | track 1 | ch 1 | Note On G4 (67) vel 30
26.845s | tick 27833 | track 1 | ch 1 | Note Off G4 (67) vel 0
26.845s | tick 27833 | track 1 | ch 1 | Note On C2 (36) vel 33
26.845s | tick 27833 | track 1 | ch 1 | Note On D#4 (63) vel 30
26.938s | tick 27929 | track 1 | ch 1 | Note Off D#4 (63) vel 0
26.938s | tick 27929 | track 1 | ch 1 | Note On C4 (60) vel 30
27.030s | tick 28025 | track 1 | ch 1 | Note Off C4 (60) vel 0
27.030s | tick 28025 | track 1 | ch 1 | Note Off C2 (36) vel 0
27.030s | tick 28025 | track 1 | ch 1 | Note On G4 (67) vel 30
27.123s | tick 28121 | track 1 | ch 1 | Note Off G4 (67) vel 0
27.123s | tick 28121 | track 1 | ch 1 | Note On D#4 (63) vel 30
27.215s | tick 28217 | track 1 | ch 1 | Note Off D#4 (63) vel 0
27.215s | tick 28217 | track 1 | ch 1 | Note On C2 (36) vel 33
27.215s | tick 28217 | track 1 | ch 1 | Note On C4 (60) vel 30
27.308s | tick 28313 | track 1 | ch 1 | Note Off C4 (60) vel 0
27.308s | tick 28313 | track 1 | ch 1 | Note On G3 (55) vel 30
27.401s | tick 28409 | track 1 | ch 1 | Note Off G3 (55) vel 0
27.401s | tick 28409 | track 1 | ch 1 | Note Off C2 (36) vel 0
27.401s | tick 28409 | track 1 | ch 1 | Note On D#4 (63) vel 30
27.493s | tick 28505 | track 1 | ch 1 | Note Off D#4 (63) vel 0
27.586s | tick 28601 | track 1 | ch 1 | Note On C2 (36) vel 33
27.586s | tick 28601 | track 1 | ch 1 | Note On C4 (60) vel 30
27.678s | tick 28697 | track 1 | ch 1 | Note Off C4 (60) vel 0
27.678s | tick 28697 | track 1 | ch 1 | Note On D#4 (63) vel 30
27.771s | tick 28793 | track 1 | ch 1 | Note Off D#4 (63) vel 0
27.771s | tick 28793 | track 1 | ch 1 | Note Off C2 (36) vel 0
27.771s | tick 28793 | track 1 | ch 1 | Note On G3 (55) vel 30
27.864s | tick 28889 | track 1 | ch 1 | Note Off G3 (55) vel 0
27.864s | tick 28889 | track 1 | ch 1 | Note On C4 (60) vel 30
27.956s | tick 28985 | track 1 | ch 1 | Note Off C4 (60) vel 0
27.956s | tick 28985 | track 1 | ch 1 | Note On C2 (36) vel 33
27.956s | tick 28985 | track 1 | ch 1 | Note On D#4 (63) vel 30
28.049s | tick 29081 | track 1 | ch 1 | Note Off D#4 (63) vel 0
28.141s | tick 29177 | track 1 | ch 1 | Note Off C2 (36) vel 0
28.141s | tick 29177 | track 1 | ch 1 | Note Off G4 (67) vel 0
28.141s | tick 29177 | track 1 | ch 1 | Note Off G3 (55) vel 0
28.141s | tick 29177 | track 1 | ch 1 | Note On F3 (53) vel 28
28.141s | tick 29177 | track 1 | ch 1 | Note On F4 (65) vel 39
28.141s | tick 29177 | track 1 | ch 1 | Note On A#4 (70) vel 30
28.234s | tick 29273 | track 1 | ch 1 | Note Off A#4 (70) vel 0
28.234s | tick 29273 | track 1 | ch 1 | Note On G4 (67) vel 30
28.327s | tick 29369 | track 1 | ch 1 | Note Off G4 (67) vel 0
28.327s | tick 29369 | track 1 | ch 1 | Note On F2 (41) vel 33
28.327s | tick 29369 | track 1 | ch 1 | Note On D#4 (63) vel 30
28.419s | tick 29465 | track 1 | ch 1 | Note Off D#4 (63) vel 0
28.419s | tick 29465 | track 1 | ch 1 | Note On A#3 (58) vel 30
28.512s | tick 29561 | track 1 | ch 1 | Note Off A#3 (58) vel 0
28.512s | tick 29561 | track 1 | ch 1 | Note Off F2 (41) vel 0
28.512s | tick 29561 | track 1 | ch 1 | Note On G4 (67) vel 30
28.604s | tick 29657 | track 1 | ch 1 | Note Off G4 (67) vel 0
28.604s | tick 29657 | track 1 | ch 1 | Note On D#4 (63) vel 30
28.697s | tick 29753 | track 1 | ch 1 | Note Off D#4 (63) vel 0
28.697s | tick 29753 | track 1 | ch 1 | Note On F2 (41) vel 33
28.697s | tick 29753 | track 1 | ch 1 | Note On A#3 (58) vel 30
28.790s | tick 29849 | track 1 | ch 1 | Note Off A#3 (58) vel 0
28.882s | tick 29945 | track 1 | ch 1 | Note Off F2 (41) vel 0
28.882s | tick 29945 | track 1 | ch 1 | Note Off F4 (65) vel 0
28.882s | tick 29945 | track 1 | ch 1 | Note Off F3 (53) vel 0
28.882s | tick 29945 | track 1 | ch 1 | Note On G#3 (56) vel 28
28.882s | tick 29945 | track 1 | ch 1 | Note On G#4 (68) vel 39
28.882s | tick 29945 | track 1 | ch 1 | Note On D#3 (51) vel 30
28.975s | tick 30041 | track 1 | ch 1 | Note Off D#3 (51) vel 0
28.975s | tick 30041 | track 1 | ch 1 | Note On F3 (53) vel 30
29.067s | tick 30137 | track 1 | ch 1 | Note Off F3 (53) vel 0
29.067s | tick 30137 | track 1 | ch 1 | Note On F2 (41) vel 33
29.067s | tick 30137 | track 1 | ch 1 | Note On G#3 (56) vel 30
29.160s | tick 30233 | track 1 | ch 1 | Note Off G#3 (56) vel 0
29.160s | tick 30233 | track 1 | ch 1 | Note On C4 (60) vel 30
29.252s | tick 30329 | track 1 | ch 1 | Note Off C4 (60) vel 0
29.252s | tick 30329 | track 1 | ch 1 | Note Off F2 (41) vel 0
29.252s | tick 30329 | track 1 | ch 1 | Note On F3 (53) vel 30
29.345s | tick 30425 | track 1 | ch 1 | Note Off F3 (53) vel 0
29.345s | tick 30425 | track 1 | ch 1 | Note On G#3 (56) vel 30
29.438s | tick 30521 | track 1 | ch 1 | Note Off G#3 (56) vel 0
29.438s | tick 30521 | track 1 | ch 1 | Note On F2 (41) vel 33
29.438s | tick 30521 | track 1 | ch 1 | Note On C4 (60) vel 30
29.530s | tick 30617 | track 1 | ch 1 | Note Off C4 (60) vel 0
29.530s | tick 30617 | track 1 | ch 1 | Note On F4 (65) vel 30
29.623s | tick 30713 | track 1 | ch 1 | Note Off F4 (65) vel 0
29.623s | tick 30713 | track 1 | ch 1 | Note Off F2 (41) vel 0
29.623s | tick 30713 | track 1 | ch 1 | Note Off G#4 (68) vel 0
29.623s | tick 30713 | track 1 | ch 1 | Note Off G#3 (56) vel 0
29.623s | tick 30713 | track 1 | ch 1 | Note On G4 (67) vel 36
29.623s | tick 30713 | track 1 | ch 1 | Note On G3 (55) vel 33
29.808s | tick 30905 | track 1 | ch 1 | Note Off G4 (67) vel 0
29.808s | tick 30905 | track 1 | ch 1 | Note On C2 (36) vel 33
29.808s | tick 30905 | track 1 | ch 1 | Note On C4 (60) vel 36
29.901s | tick 31001 | track 1 | ch 1 | Note Off C4 (60) vel 0
29.901s | tick 31001 | track 1 | ch 1 | Note On D#4 (63) vel 36
29.993s | tick 31097 | track 1 | ch 1 | Note Off D#4 (63) vel 0
29.993s | tick 31097 | track 1 | ch 1 | Note Off C2 (36) vel 0
29.993s | tick 31097 | track 1 | ch 1 | Note On G3 (55) vel 36
30.086s | tick 31193 | track 1 | ch 1 | Note Off G3 (55) vel 0
30.086s | tick 31193 | track 1 | ch 1 | Note On C4 (60) vel 36
30.178s | tick 31289 | track 1 | ch 1 | Note Off C4 (60) vel 0
30.178s | tick 31289 | track 1 | ch 1 | Note On C2 (36) vel 33
30.178s | tick 31289 | track 1 | ch 1 | Note On F4 (65) vel 36
30.271s | tick 31385 | track 1 | ch 1 | Note Off F4 (65) vel 0
30.271s | tick 31385 | track 1 | ch 1 | Note On G3 (55) vel 28
30.364s | tick 31481 | track 1 | ch 1 | Note Off G3 (55) vel 0
30.364s | tick 31481 | track 1 | ch 1 | Note Off C2 (36) vel 0
30.364s | tick 31481 | track 1 | ch 1 | Note On C4 (60) vel 36
30.456s | tick 31577 | track 1 | ch 1 | Note Off C4 (60) vel 0
30.456s | tick 31577 | track 1 | ch 1 | Note On D4 (62) vel 36
30.549s | tick 31673 | track 1 | ch 1 | Note Off D4 (62) vel 0
30.549s | tick 31673 | track 1 | ch 1 | Note On C2 (36) vel 33
30.549s | tick 31673 | track 1 | ch 1 | Note On G3 (55) vel 36
30.641s | tick 31769 | track 1 | ch 1 | Note Off G3 (55) vel 0
30.641s | tick 31769 | track 1 | ch 1 | Note On C4 (60) vel 36
30.734s | tick 31865 | track 1 | ch 1 | Note Off C4 (60) vel 0
30.734s | tick 31865 | track 1 | ch 1 | Note Off C2 (36) vel 0
30.734s | tick 31865 | track 1 | ch 1 | Note On D#4 (63) vel 36
30.827s | tick 31961 | track 1 | ch 1 | Note Off D#4 (63) vel 0
30.827s | tick 31961 | track 1 | ch 1 | Note On F4 (65) vel 36
30.919s | tick 32057 | track 1 | ch 1 | Note Off F4 (65) vel 0
30.919s | tick 32057 | track 1 | ch 1 | Note On C2 (36) vel 33
30.919s | tick 32057 | track 1 | ch 1 | Note On G4 (67) vel 36
31.012s | tick 32153 | track 1 | ch 1 | Note Off G4 (67) vel 0
31.012s | tick 32153 | track 1 | ch 1 | Note On G#4 (68) vel 36
31.104s | tick 32249 | track 1 | ch 1 | Note Off G#4 (68) vel 0
31.104s | tick 32249 | track 1 | ch 1 | Note Off C2 (36) vel 0
31.104s | tick 32249 | track 1 | ch 1 | Note On A#5 (82) vel 36
31.104s | tick 32249 | track 1 | ch 1 | Note On D#5 (75) vel 36
31.197s | tick 32345 | track 1 | ch 1 | Note Off D#5 (75) vel 0
31.197s | tick 32345 | track 1 | ch 1 | Note Off A#5 (82) vel 0
31.197s | tick 32345 | track 1 | ch 1 | Note On G4 (67) vel 36
31.290s | tick 32441 | track 1 | ch 1 | Note Off G4 (67) vel 0
31.290s | tick 32441 | track 1 | ch 1 | Note On C2 (36) vel 33
31.290s | tick 32441 | track 1 | ch 1 | Note On C4 (60) vel 36
31.382s | tick 32537 | track 1 | ch 1 | Note Off C4 (60) vel 0
31.382s | tick 32537 | track 1 | ch 1 | Note On G5 (79) vel 36
31.382s | tick 32537 | track 1 | ch 1 | Note On G4 (67) vel 36
31.475s | tick 32633 | track 1 | ch 1 | Note Off G4 (67) vel 0
31.475s | tick 32633 | track 1 | ch 1 | Note Off G5 (79) vel 0
31.475s | tick 32633 | track 1 | ch 1 | Note Off C2 (36) vel 0
31.475s | tick 32633 | track 1 | ch 1 | Note On G5 (79) vel 36
31.567s | tick 32729 | track 1 | ch 1 | Note Off G5 (79) vel 0
31.567s | tick 32729 | track 1 | ch 1 | Note On C5 (72) vel 36
31.660s | tick 32825 | track 1 | ch 1 | Note Off C5 (72) vel 0
31.660s | tick 32825 | track 1 | ch 1 | Note On C2 (36) vel 33
31.660s | tick 32825 | track 1 | ch 1 | Note On G#5 (80) vel 36
31.752s | tick 32921 | track 1 | ch 1 | Note Off G#5 (80) vel 0
31.752s | tick 32921 | track 1 | ch 1 | Note On G5 (79) vel 36
31.845s | tick 33017 | track 1 | ch 1 | Note Off G5 (79) vel 0
31.845s | tick 33017 | track 1 | ch 1 | Note Off C2 (36) vel 0
31.845s | tick 33017 | track 1 | ch 1 | Note On C5 (72) vel 36
31.938s | tick 33113 | track 1 | ch 1 | Note Off C5 (72) vel 0
31.938s | tick 33113 | track 1 | ch 1 | Note On F5 (77) vel 36
32.030s | tick 33209 | track 1 | ch 1 | Note Off F5 (77) vel 0
32.030s | tick 33209 | track 1 | ch 1 | Note On C2 (36) vel 33
32.030s | tick 33209 | track 1 | ch 1 | Note On G5 (79) vel 36
32.123s | tick 33305 | track 1 | ch 1 | Note Off G5 (79) vel 0
32.123s | tick 33305 | track 1 | ch 1 | Note On C5 (72) vel 36
32.215s | tick 33401 | track 1 | ch 1 | Note Off C5 (72) vel 0
32.215s | tick 33401 | track 1 | ch 1 | Note Off C2 (36) vel 0
32.215s | tick 33401 | track 1 | ch 1 | Note On G5 (79) vel 36
32.308s | tick 33497 | track 1 | ch 1 | Note Off G5 (79) vel 0
32.308s | tick 33497 | track 1 | ch 1 | Note On F5 (77) vel 36
32.401s | tick 33593 | track 1 | ch 1 | Note Off F5 (77) vel 0
32.401s | tick 33593 | track 1 | ch 1 | Note On C2 (36) vel 33
32.401s | tick 33593 | track 1 | ch 1 | Note On D#5 (75) vel 36
32.493s | tick 33689 | track 1 | ch 1 | Note Off D#5 (75) vel 0
32.493s | tick 33689 | track 1 | ch 1 | Note On D5 (74) vel 36
32.586s | tick 33785 | track 1 | ch 1 | Note Off D5 (74) vel 0
32.586s | tick 33785 | track 1 | ch 1 | Note Off C2 (36) vel 0
32.586s | tick 33785 | track 1 | ch 1 | Note Off G3 (55) vel 0
32.586s | tick 33785 | track 1 | ch 1 | Note On G#3 (56) vel 25
32.586s | tick 33785 | track 1 | ch 1 | Note On G#4 (68) vel 39
32.586s | tick 33785 | track 1 | ch 1 | Note On D#5 (75) vel 30
32.678s | tick 33881 | track 1 | ch 1 | Note Off D#5 (75) vel 0
32.678s | tick 33881 | track 1 | ch 1 | Note On C5 (72) vel 30
32.771s | tick 33977 | track 1 | ch 1 | Note Off C5 (72) vel 0
32.771s | tick 33977 | track 1 | ch 1 | Note On G#2 (44) vel 33
32.771s | tick 33977 | track 1 | ch 1 | Note On G#4 (68) vel 30
32.864s | tick 34073 | track 1 | ch 1 | Note Off G#4 (68) vel 0
32.864s | tick 34073 | track 1 | ch 1 | Note On D#4 (63) vel 30
32.956s | tick 34169 | track 1 | ch 1 | Note Off D#4 (63) vel 0
32.956s | tick 34169 | track 1 | ch 1 | Note Off G#2 (44) vel 0
32.956s | tick 34169 | track 1 | ch 1 | Note On C5 (72) vel 30
33.049s | tick 34265 | track 1 | ch 1 | Note Off C5 (72) vel 0
33.049s | tick 34265 | track 1 | ch 1 | Note On G#4 (68) vel 30
33.141s | tick 34361 | track 1 | ch 1 | Note Off G#4 (68) vel 0
33.141s | tick 34361 | track 1 | ch 1 | Note On G#2 (44) vel 33
33.141s | tick 34361 | track 1 | ch 1 | Note On D#4 (63) vel 30
33.234s | tick 34457 | track 1 | ch 1 | Note Off D#4 (63) vel 0
33.234s | tick 34457 | track 1 | ch 1 | Note On C4 (60) vel 30
33.327s | tick 34553 | track 1 | ch 1 | Note Off C4 (60) vel 0
33.327s | tick 34553 | track 1 | ch 1 | Note Off G#2 (44) vel 0
33.327s | tick 34553 | track 1 | ch 1 | Note Off G#4 (68) vel 0
33.327s | tick 34553 | track 1 | ch 1 | Note Off G#3 (56) vel 0
33.327s | tick 34553 | track 1 | ch 1 | Note On D#4 (63) vel 27
33.327s | tick 34553 | track 1 | ch 1 | Note On D#5 (75) vel 39
33.327s | tick 34553 | track 1 | ch 1 | Note On G#3 (56) vel 30
33.419s | tick 34649 | track 1 | ch 1 | Note Off G#3 (56) vel 0
33.419s | tick 34649 | track 1 | ch 1 | Note On C4 (60) vel 30
33.512s | tick 34745 | track 1 | ch 1 | Note Off C4 (60) vel 0
33.512s | tick 34745 | track 1 | ch 1 | Note On G#2 (44) vel 33
33.512s | tick 34745 | track 1 | ch 1 | Note On D#4 (63) vel 30
33.604s | tick 34841 | track 1 | ch 1 | Note Off D#4 (63) vel 0
33.604s | tick 34841 | track 1 | ch 1 | Note On G#4 (68) vel 30
33.697s | tick 34937 | track 1 | ch 1 | Note Off G#4 (68) vel 0
33.697s | tick 34937 | track 1 | ch 1 | Note Off G#2 (44) vel 0
33.697s | tick 34937 | track 1 | ch 1 | Note On D#4 (63) vel 30
33.790s | tick 35033 | track 1 | ch 1 | Note Off D#4 (63) vel 0
33.790s | tick 35033 | track 1 | ch 1 | Note On G#4 (68) vel 30
33.882s | tick 35129 | track 1 | ch 1 | Note Off G#4 (68) vel 0
33.882s | tick 35129 | track 1 | ch 1 | Note On G#2 (44) vel 33
33.882s | tick 35129 | track 1 | ch 1 | Note On D#5 (75) vel 30
33.975s | tick 35225 | track 1 | ch 1 | Note Off D#5 (75) vel 0
33.975s | tick 35225 | track 1 | ch 1 | Note On F5 (77) vel 30
34.067s | tick 35321 | track 1 | ch 1 | Note Off F5 (77) vel 0
34.067s | tick 35321 | track 1 | ch 1 | Note Off G#2 (44) vel 0
34.067s | tick 35321 | track 1 | ch 1 | Note Off D#5 (75) vel 0
34.067s | tick 35321 | track 1 | ch 1 | Note Off D#4 (63) vel 0
34.067s | tick 35321 | track 1 | ch 1 | Note On D5 (74) vel 39
34.067s | tick 35321 | track 1 | ch 1 | Note On D4 (62) vel 27
34.067s | tick 35321 | track 1 | ch 1 | Note On G#5 (80) vel 30
34.160s | tick 35417 | track 1 | ch 1 | Note Off G#5 (80) vel 0
34.160s | tick 35417 | track 1 | ch 1 | Note On F5 (77) vel 30
34.252s | tick 35513 | track 1 | ch 1 | Note Off F5 (77) vel 0
34.252s | tick 35513 | track 1 | ch 1 | Note On F2 (41) vel 33
34.252s | tick 35513 | track 1 | ch 1 | Note On C5 (72) vel 30
34.345s | tick 35609 | track 1 | ch 1 | Note Off C5 (72) vel 0
34.345s | tick 35609 | track 1 | ch 1 | Note On G#4 (68) vel 30
34.438s | tick 35705 | track 1 | ch 1 | Note Off G#4 (68) vel 0
34.438s | tick 35705 | track 1 | ch 1 | Note Off F2 (41) vel 0
34.438s | tick 35705 | track 1 | ch 1 | Note On F5 (77) vel 30
34.530s | tick 35801 | track 1 | ch 1 | Note Off F5 (77) vel 0
34.530s | tick 35801 | track 1 | ch 1 | Note On C5 (72) vel 30
34.623s | tick 35897 | track 1 | ch 1 | Note Off C5 (72) vel 0
34.623s | tick 35897 | track 1 | ch 1 | Note On F2 (41) vel 33
34.623s | tick 35897 | track 1 | ch 1 | Note On G#4 (68) vel 30
34.715s | tick 35993 | track 1 | ch 1 | Note Off G#4 (68) vel 0
34.715s | tick 35993 | track 1 | ch 1 | Note On F4 (65) vel 30
34.808s | tick 36089 | track 1 | ch 1 | Note Off F4 (65) vel 0
34.808s | tick 36089 | track 1 | ch 1 | Note Off F2 (41) vel 0
34.808s | tick 36089 | track 1 | ch 1 | Note Off D4 (62) vel 0
34.808s | tick 36089 | track 1 | ch 1 | Note Off D5 (74) vel 0
34.808s | tick 36089 | track 1 | ch 1 | Note On F4 (65) vel 27
34.808s | tick 36089 | track 1 | ch 1 | Note On F5 (77) vel 39
34.808s | tick 36089 | track 1 | ch 1 | Note On C4 (60) vel 30
34.901s | tick 36185 | track 1 | ch 1 | Note Off C4 (60) vel 0
34.901s | tick 36185 | track 1 | ch 1 | Note On F4 (65) vel 30
34.993s | tick 36281 | track 1 | ch 1 | Note Off F4 (65) vel 0
34.993s | tick 36281 | track 1 | ch 1 | Note On F2 (41) vel 33
34.993s | tick 36281 | track 1 | ch 1 | Note On G#4 (68) vel 30
35.086s | tick 36377 | track 1 | ch 1 | Note Off G#4 (68) vel 0
35.086s | tick 36377 | track 1 | ch 1 | Note On C5 (72) vel 30
35.178s | tick 36473 | track 1 | ch 1 | Note Off C5 (72) vel 0
35.178s | tick 36473 | track 1 | ch 1 | Note Off F2 (41) vel 0
35.178s | tick 36473 | track 1 | ch 1 | Note On F4 (65) vel 30
35.271s | tick 36569 | track 1 | ch 1 | Note Off F4 (65) vel 0
35.271s | tick 36569 | track 1 | ch 1 | Note On G#4 (68) vel 30
35.364s | tick 36665 | track 1 | ch 1 | Note Off G#4 (68) vel 0
35.364s | tick 36665 | track 1 | ch 1 | Note On F2 (41) vel 33
35.364s | tick 36665 | track 1 | ch 1 | Note On F2 (41) vel 33
35.364s | tick 36665 | track 1 | ch 1 | Note On C5 (72) vel 30
35.456s | tick 36761 | track 1 | ch 1 | Note Off C5 (72) vel 0
35.456s | tick 36761 | track 1 | ch 1 | Note On F5 (77) vel 30
35.549s | tick 36857 | track 1 | ch 1 | Note Off F5 (77) vel 0
35.549s | tick 36857 | track 1 | ch 1 | Note Off F2 (41) vel 0
35.549s | tick 36857 | track 1 | ch 1 | Note Off F2 (41) vel 0
35.549s | tick 36857 | track 1 | ch 1 | Note Off F5 (77) vel 0
35.549s | tick 36857 | track 1 | ch 1 | Note Off F4 (65) vel 0
35.549s | tick 36857 | track 1 | ch 1 | Note On G5 (79) vel 38
35.549s | tick 36857 | track 1 | ch 1 | Note On D#2 (39) vel 36
35.549s | tick 36857 | track 1 | ch 1 | Note On D#3 (51) vel 34
35.549s | tick 36857 | track 1 | ch 1 | Note On D#4 (63) vel 33
35.641s | tick 36953 | track 1 | ch 1 | Note Off G5 (79) vel 0
35.641s | tick 36953 | track 1 | ch 1 | Note On G#5 (80) vel 38
35.734s | tick 37049 | track 1 | ch 1 | Note Off G#5 (80) vel 0
35.734s | tick 37049 | track 1 | ch 1 | Note On G5 (79) vel 38
35.827s | tick 37145 | track 1 | ch 1 | Note Off G5 (79) vel 0
35.827s | tick 37145 | track 1 | ch 1 | Note On F5 (77) vel 38
35.919s | tick 37241 | track 1 | ch 1 | Note Off F5 (77) vel 0
35.919s | tick 37241 | track 1 | ch 1 | Note On D#5 (75) vel 38
36.012s | tick 37337 | track 1 | ch 1 | Note Off D#5 (75) vel 0
36.012s | tick 37337 | track 1 | ch 1 | Note On F5 (77) vel 38
36.104s | tick 37433 | track 1 | ch 1 | Note Off F5 (77) vel 0
36.104s | tick 37433 | track 1 | ch 1 | Note On D#5 (75) vel 38
36.197s | tick 37529 | track 1 | ch 1 | Note Off D#5 (75) vel 0
36.197s | tick 37529 | track 1 | ch 1 | Note On D5 (74) vel 38
36.290s | tick 37625 | track 1 | ch 1 | Note Off D5 (74) vel 0
36.290s | tick 37625 | track 1 | ch 1 | Note On A#4 (70) vel 38
36.382s | tick 37721 | track 1 | ch 1 | Note Off A#4 (70) vel 0
36.382s | tick 37721 | track 1 | ch 1 | Note On D#5 (75) vel 38
36.475s | tick 37817 | track 1 | ch 1 | Note Off D#5 (75) vel 0
36.475s | tick 37817 | track 1 | ch 1 | Note On G5 (79) vel 38
36.567s | tick 37913 | track 1 | ch 1 | Note Off G5 (79) vel 0
36.567s | tick 37913 | track 1 | ch 1 | Note On A#5 (82) vel 38
36.660s | tick 38009 | track 1 | ch 1 | Note Off A#5 (82) vel 0
36.660s | tick 38009 | track 1 | ch 1 | Note On G5 (79) vel 38
36.752s | tick 38105 | track 1 | ch 1 | Note Off G5 (79) vel 0
36.752s | tick 38105 | track 1 | ch 1 | Note On D#5 (75) vel 38
36.845s | tick 38201 | track 1 | ch 1 | Note Off D#5 (75) vel 0
36.845s | tick 38201 | track 1 | ch 1 | Note On D5 (74) vel 38
36.938s | tick 38297 | track 1 | ch 1 | Note Off D5 (74) vel 0
36.938s | tick 38297 | track 1 | ch 1 | Note On D#5 (75) vel 38
37.030s | tick 38393 | track 1 | ch 1 | Note Off D#5 (75) vel 0
37.030s | tick 38393 | track 1 | ch 1 | Note Off D#4 (63) vel 0
37.030s | tick 38393 | track 1 | ch 1 | Note Off D#3 (51) vel 0
37.030s | tick 38393 | track 1 | ch 1 | Note Off D#2 (39) vel 0
37.030s | tick 38393 | track 1 | ch 1 | Note On D5 (74) vel 38
37.030s | tick 38393 | track 1 | ch 1 | Note On G2 (43) vel 36
37.030s | tick 38393 | track 1 | ch 1 | Note On G3 (55) vel 34
37.030s | tick 38393 | track 1 | ch 1 | Note On F4 (65) vel 33
37.123s | tick 38489 | track 1 | ch 1 | Note Off D5 (74) vel 0
37.123s | tick 38489 | track 1 | ch 1 | Note On F5 (77) vel 38
37.215s | tick 38585 | track 1 | ch 1 | Note Off F5 (77) vel 0
37.215s | tick 38585 | track 1 | ch 1 | Note On D5 (74) vel 38
37.308s | tick 38681 | track 1 | ch 1 | Note Off D5 (74) vel 0
37.308s | tick 38681 | track 1 | ch 1 | Note On B4 (71) vel 38
37.401s | tick 38777 | track 1 | ch 1 | Note Off B4 (71) vel 0
37.401s | tick 38777 | track 1 | ch 1 | Note On G4 (67) vel 38
37.493s | tick 38873 | track 1 | ch 1 | Note Off G4 (67) vel 0
37.493s | tick 38873 | track 1 | ch 1 | Note On B4 (71) vel 38
37.586s | tick 38969 | track 1 | ch 1 | Note Off B4 (71) vel 0
37.586s | tick 38969 | track 1 | ch 1 | Note On G4 (67) vel 38
37.678s | tick 39065 | track 1 | ch 1 | Note Off G4 (67) vel 0
37.678s | tick 39065 | track 1 | ch 1 | Note On D4 (62) vel 38
37.771s | tick 39161 | track 1 | ch 1 | Note Off D4 (62) vel 0
37.771s | tick 39161 | track 1 | ch 1 | Note On B3 (59) vel 38
37.864s | tick 39257 | track 1 | ch 1 | Note Off B3 (59) vel 0
37.864s | tick 39257 | track 1 | ch 1 | Note On D4 (62) vel 38
37.956s | tick 39353 | track 1 | ch 1 | Note Off D4 (62) vel 0
37.956s | tick 39353 | track 1 | ch 1 | Note On G4 (67) vel 38
38.049s | tick 39449 | track 1 | ch 1 | Note Off G4 (67) vel 0
38.049s | tick 39449 | track 1 | ch 1 | Note On B4 (71) vel 38
38.141s | tick 39545 | track 1 | ch 1 | Note Off B4 (71) vel 0
38.141s | tick 39545 | track 1 | ch 1 | Note On G4 (67) vel 38
38.234s | tick 39641 | track 1 | ch 1 | Note Off G4 (67) vel 0
38.234s | tick 39641 | track 1 | ch 1 | Note On D5 (74) vel 38
38.327s | tick 39737 | track 1 | ch 1 | Note Off D5 (74) vel 0
38.327s | tick 39737 | track 1 | ch 1 | Note On G5 (79) vel 38
38.419s | tick 39833 | track 1 | ch 1 | Note Off G5 (79) vel 0
38.419s | tick 39833 | track 1 | ch 1 | Note On B5 (83) vel 38
38.512s | tick 39929 | track 1 | ch 1 | Note Off B5 (83) vel 0
38.512s | tick 39929 | track 1 | ch 1 | Note Off F4 (65) vel 0
38.512s | tick 39929 | track 1 | ch 1 | Note Off G3 (55) vel 0
38.512s | tick 39929 | track 1 | ch 1 | Note Off G2 (43) vel 0
38.512s | tick 39929 | track 1 | ch 1 | Note On C6 (84) vel 38
38.512s | tick 39929 | track 1 | ch 1 | Note On C5 (72) vel 34
38.512s | tick 39929 | track 1 | ch 1 | Note On G4 (67) vel 33
38.512s | tick 39929 | track 1 | ch 1 | Note On C4 (60) vel 33
38.512s | tick 39929 | track 1 | ch 1 | Note On D#4 (63) vel 33
39.067s | tick 40505 | track 1 | ch 1 | Note On D3 (50) vel 32
39.252s | tick 40697 | track 1 | ch 1 | Note On D#3 (51) vel 32
39.438s | tick 40889 | track 1 | ch 1 | Note On G3 (55) vel 32
39.623s | tick 41081 | track 1 | ch 1 | Note Off C6 (84) vel 0
39.623s | tick 41081 | track 1 | ch 1 | Note On D#5 (75) vel 31
39.623s | tick 41081 | track 1 | ch 1 | Note On C4 (60) vel 32
39.715s | tick 41177 | track 1 | ch 1 | Note Off D3 (50) vel 0
39.901s | tick 41369 | track 1 | ch 1 | Note Off D#3 (51) vel 0
40.086s | tick 41561 | track 1 | ch 1 | Note Off G3 (55) vel 0
40.178s | tick 41657 | track 1 | ch 1 | Note On G#3 (56) vel 32
40.178s | tick 41657 | track 1 | ch 1 | Note On D4 (62) vel 32
40.364s | tick 41849 | track 1 | ch 1 | Note Off C5 (72) vel 0
40.549s | tick 42041 | track 1 | ch 1 | Note Off D#5 (75) vel 0
40.641s | tick 42137 | track 1 | ch 1 | Note Off C4 (60) vel 0
40.734s | tick 42233 | track 1 | ch 1 | Note Off D#4 (63) vel 0
40.734s | tick 42233 | track 1 | ch 1 | Note Off C4 (60) vel 0
40.734s | tick 42233 | track 1 | ch 1 | Note Off G4 (67) vel 0
40.734s | tick 42233 | track 1 | ch 1 | Note On A#3 (58) vel 32
40.734s | tick 42233 | track 1 | ch 1 | Note On D#3 (51) vel 32
40.919s | tick 42425 | track 1 | ch 1 | Note On G5 (79) vel 31
40.919s | tick 42425 | track 1 | ch 1 | Note On G5 (79) vel 31
41.104s | tick 42617 | track 1 | ch 1 | Note Off G5 (79) vel 0
41.104s | tick 42617 | track 1 | ch 1 | Note On C6 (84) vel 32
41.104s | tick 42617 | track 1 | ch 1 | Note On C6 (84) vel 32
41.197s | tick 42713 | track 1 | ch 1 | Note Off D4 (62) vel 0
41.197s | tick 42713 | track 1 | ch 1 | Note Off G#3 (56) vel 0
41.290s | tick 42809 | track 1 | ch 1 | Note Off C6 (84) vel 0
41.475s | tick 43001 | track 1 | ch 1 | Note Off G5 (79) vel 0
41.475s | tick 43001 | track 1 | ch 1 | Note On D#6 (87) vel 32
41.475s | tick 43001 | track 1 | ch 1 | Note On G#1 (32) vel 32
41.660s | tick 43193 | track 1 | ch 1 | Note Off C6 (84) vel 0
41.660s | tick 43193 | track 1 | ch 1 | Note On D6 (86) vel 32
41.660s | tick 43193 | track 1 | ch 1 | Note On D6 (86) vel 32
41.660s | tick 43193 | track 1 | ch 1 | Note On D#2 (39) vel 32
41.845s | tick 43385 | track 1 | ch 1 | Note Off D6 (86) vel 0
41.845s | tick 43385 | track 1 | ch 1 | Note On A#5 (82) vel 33
41.845s | tick 43385 | track 1 | ch 1 | Note On G#2 (44) vel 32
41.938s | tick 43481 | track 1 | ch 1 | Note Off D#3 (51) vel 0
41.938s | tick 43481 | track 1 | ch 1 | Note Off A#3 (58) vel 0
42.030s | tick 43577 | track 1 | ch 1 | Note Off D#6 (87) vel 0
42.030s | tick 43577 | track 1 | ch 1 | Note On F5 (77) vel 35
42.030s | tick 43577 | track 1 | ch 1 | Note On C3 (48) vel 32
42.123s | tick 43673 | track 1 | ch 1 | Note Off G#1 (32) vel 0
42.215s | tick 43769 | track 1 | ch 1 | Note Off D6 (86) vel 0
42.215s | tick 43769 | track 1 | ch 1 | Note On D#5 (75) vel 34
42.215s | tick 43769 | track 1 | ch 1 | Note On D#3 (51) vel 32
42.308s | tick 43865 | track 1 | ch 1 | Note Off D#2 (39) vel 0
42.401s | tick 43961 | track 1 | ch 1 | Note Off A#5 (82) vel 0
42.401s | tick 43961 | track 1 | ch 1 | Note On D5 (74) vel 34
42.401s | tick 43961 | track 1 | ch 1 | Note On G3 (55) vel 32
42.493s | tick 44057 | track 1 | ch 1 | Note Off G#2 (44) vel 0
42.586s | tick 44153 | track 1 | ch 1 | Note Off F5 (77) vel 0
42.586s | tick 44153 | track 1 | ch 1 | Note On G#3 (56) vel 32
42.678s | tick 44249 | track 1 | ch 1 | Note Off C3 (48) vel 0
42.771s | tick 44345 | track 1 | ch 1 | Note Off D#5 (75) vel 0
42.771s | tick 44345 | track 1 | ch 1 | Note On F4 (65) vel 34
42.864s | tick 44441 | track 1 | ch 1 | Note Off D#3 (51) vel 0
42.956s | tick 44537 | track 1 | ch 1 | Note Off D5 (74) vel 0
43.049s | tick 44633 | track 1 | ch 1 | Note Off G3 (55) vel 0
43.141s | tick 44729 | track 1 | ch 1 | Note Off A#4 (70) vel 0
43.141s | tick 44729 | track 1 | ch 1 | Note On A#4 (70) vel 35
43.141s | tick 44729 | track 1 | ch 1 | Note On A#4 (70) vel 35
43.141s | tick 44729 | track 1 | ch 1 | Note On F2 (41) vel 29
43.327s | tick 44921 | track 1 | ch 1 | Note On G5 (79) vel 35
43.327s | tick 44921 | track 1 | ch 1 | Note On A#2 (46) vel 32
43.327s | tick 44921 | track 1 | ch 1 | Note On A#2 (46) vel 32
43.419s | tick 45017 | track 1 | ch 1 | Note Off G#3 (56) vel 0
43.512s | tick 45113 | track 1 | ch 1 | Note Off F4 (65) vel 0
43.604s | tick 45209 | track 1 | ch 1 | Note Off A#2 (46) vel 0
43.697s | tick 45305 | track 1 | ch 1 | Note Off A#4 (70) vel 0
43.697s | tick 45305 | track 1 | ch 1 | Note On D5 (74) vel 35
43.697s | tick 45305 | track 1 | ch 1 | Note On D3 (50) vel 30
43.790s | tick 45401 | track 1 | ch 1 | Note Off F2 (41) vel 0
43.882s | tick 45497 | track 1 | ch 1 | Note Off G5 (79) vel 0
43.882s | tick 45497 | track 1 | ch 1 | Note On D#5 (75) vel 35
44.067s | tick 45689 | track 1 | ch 1 | Note Off D#5 (75) vel 0
44.067s | tick 45689 | track 1 | ch 1 | Note On A#3 (58) vel 35
44.160s | tick 45785 | track 1 | ch 1 | Note Off A#2 (46) vel 0
44.160s | tick 45785 | track 1 | ch 1 | Note On C6 (84) vel 35
44.252s | tick 45881 | track 1 | ch 1 | Note Off D5 (74) vel 0
44.252s | tick 45881 | track 1 | ch 1 | Note On A#5 (82) vel 34
44.252s | tick 45881 | track 1 | ch 1 | Note On A#5 (82) vel 34
44.438s | tick 46073 | track 1 | ch 1 | Note Off D#5 (75) vel 0
44.438s | tick 46073 | track 1 | ch 1 | Note On D#5 (75) vel 33
44.438s | tick 46073 | track 1 | ch 1 | Note On D#5 (75) vel 33
44.438s | tick 46073 | track 1 | ch 1 | Note On D#3 (51) vel 32
44.438s | tick 46073 | track 1 | ch 1 | Note On D#6 (87) vel 30
44.438s | tick 46073 | track 1 | ch 1 | Note On D#5 (75) vel 36
44.530s | tick 46169 | track 1 | ch 1 | Note Off A#5 (82) vel 0
44.530s | tick 46169 | track 1 | ch 1 | Note Off D3 (50) vel 0
44.623s | tick 46265 | track 1 | ch 1 | Note Off C6 (84) vel 0
44.715s | tick 46361 | track 1 | ch 1 | Note Off A#5 (82) vel 0
44.901s | tick 46553 | track 1 | ch 1 | Note Off A#3 (58) vel 0
44.993s | tick 46649 | track 1 | ch 1 | Note Off D#5 (75) vel 0
44.993s | tick 46649 | track 1 | ch 1 | Note Off D#6 (87) vel 0
44.993s | tick 46649 | track 1 | ch 1 | Note Off D#5 (75) vel 0
44.993s | tick 46649 | track 1 | ch 1 | Note On D5 (74) vel 33
44.993s | tick 46649 | track 1 | ch 1 | Note On D3 (50) vel 32
44.993s | tick 46649 | track 1 | ch 1 | Note On D6 (86) vel 30
44.993s | tick 46649 | track 1 | ch 1 | Note On D5 (74) vel 36
45.178s | tick 46841 | track 1 | ch 1 | Note Off G4 (67) vel 0
45.178s | tick 46841 | track 1 | ch 1 | Note On G4 (67) vel 34
45.364s | tick 47033 | track 1 | ch 1 | Note Off C5 (72) vel 0
45.364s | tick 47033 | track 1 | ch 1 | Note On C5 (72) vel 32
45.456s | tick 47129 | track 1 | ch 1 | Note Off D#3 (51) vel 0
45.549s | tick 47225 | track 1 | ch 1 | Note Off D5 (74) vel 0
45.549s | tick 47225 | track 1 | ch 1 | Note Off D6 (86) vel 0
45.549s | tick 47225 | track 1 | ch 1 | Note Off D5 (74) vel 0
45.549s | tick 47225 | track 1 | ch 1 | Note On D#5 (75) vel 32
45.549s | tick 47225 | track 1 | ch 1 | Note On A#2 (46) vel 32
45.549s | tick 47225 | track 1 | ch 1 | Note On A#5 (82) vel 30
45.549s | tick 47225 | track 1 | ch 1 | Note On A#4 (70) vel 36
45.734s | tick 47417 | track 1 | ch 1 | Note Off G4 (67) vel 0
45.734s | tick 47417 | track 1 | ch 1 | Note On G4 (67) vel 33
45.734s | tick 47417 | track 1 | ch 1 | Note On G4 (67) vel 33
45.919s | tick 47609 | track 1 | ch 1 | Note Off C5 (72) vel 0
45.919s | tick 47609 | track 1 | ch 1 | Note On C5 (72) vel 30
46.012s | tick 47705 | track 1 | ch 1 | Note Off D3 (50) vel 0
46.104s | tick 47801 | track 1 | ch 1 | Note Off A#4 (70) vel 0
46.104s | tick 47801 | track 1 | ch 1 | Note Off A#5 (82) vel 0
46.104s | tick 47801 | track 1 | ch 1 | Note Off D#5 (75) vel 0
46.104s | tick 47801 | track 1 | ch 1 | Note On G5 (79) vel 30
46.104s | tick 47801 | track 1 | ch 1 | Note On D#3 (51) vel 32
46.104s | tick 47801 | track 1 | ch 1 | Note On D#6 (87) vel 30
46.104s | tick 47801 | track 1 | ch 1 | Note On D#5 (75) vel 36
46.289s | tick 47993 | track 1 | ch 1 | Note Off G4 (67) vel 0
46.289s | tick 47993 | track 1 | ch 1 | Note On C5 (72) vel 29
46.289s | tick 47993 | track 1 | ch 1 | Note On C5 (72) vel 29
46.475s | tick 48185 | track 1 | ch 1 | Note Off C5 (72) vel 0
46.567s | tick 48281 | track 1 | ch 1 | Note Off A#2 (46) vel 0
46.660s | tick 48377 | track 1 | ch 1 | Note Off D#5 (75) vel 0
46.660s | tick 48377 | track 1 | ch 1 | Note Off D#6 (87) vel 0
46.660s | tick 48377 | track 1 | ch 1 | Note Off G5 (79) vel 0
46.660s | tick 48377 | track 1 | ch 1 | Note On D3 (50) vel 32
46.660s | tick 48377 | track 1 | ch 1 | Note On D5 (74) vel 36
46.660s | tick 48377 | track 1 | ch 1 | Note On D6 (86) vel 30
46.845s | tick 48569 | track 1 | ch 1 | Note Off C5 (72) vel 0
46.845s | tick 48569 | track 1 | ch 1 | Note On D#5 (75) vel 33
46.845s | tick 48569 | track 1 | ch 1 | Note On D#5 (75) vel 33
47.030s | tick 48761 | track 1 | ch 1 | Note Off D#5 (75) vel 0
47.030s | tick 48761 | track 1 | ch 1 | Note Off D6 (86) vel 0
47.030s | tick 48761 | track 1 | ch 1 | Note Off D5 (74) vel 0
47.030s | tick 48761 | track 1 | ch 1 | Note On C6 (84) vel 33
47.030s | tick 48761 | track 1 | ch 1 | Note On C6 (84) vel 33
47.030s | tick 48761 | track 1 | ch 1 | Note On A#2 (46) vel 32
47.030s | tick 48761 | track 1 | ch 1 | Note On A#4 (70) vel 36
47.030s | tick 48761 | track 1 | ch 1 | Note On A#5 (82) vel 30
47.123s | tick 48857 | track 1 | ch 1 | Note Off D#3 (51) vel 0
47.215s | tick 48953 | track 1 | ch 1 | Note Off C6 (84) vel 0
47.215s | tick 48953 | track 1 | ch 1 | Note On D6 (86) vel 31
47.401s | tick 49145 | track 1 | ch 1 | Note Off D#5 (75) vel 0
47.401s | tick 49145 | track 1 | ch 1 | Note On D#6 (87) vel 35
47.401s | tick 49145 | track 1 | ch 1 | Note On G#1 (32) vel 19
47.493s | tick 49241 | track 1 | ch 1 | Note Off D3 (50) vel 0
47.586s | tick 49337 | track 1 | ch 1 | Note Off A#5 (82) vel 0
47.586s | tick 49337 | track 1 | ch 1 | Note Off A#4 (70) vel 0
47.586s | tick 49337 | track 1 | ch 1 | Note Off C6 (84) vel 0
47.586s | tick 49337 | track 1 | ch 1 | Note On D#5 (75) vel 37
47.586s | tick 49337 | track 1 | ch 1 | Note On A#1 (34) vel 22
47.586s | tick 49337 | track 1 | ch 1 | Note On D#5 (75) vel 28
47.586s | tick 49337 | track 1 | ch 1 | Note On D#4 (63) vel 35
47.771s | tick 49529 | track 1 | ch 1 | Note Off D6 (86) vel 0
47.771s | tick 49529 | track 1 | ch 1 | Note On C5 (72) vel 37
47.771s | tick 49529 | track 1 | ch 1 | Note On C6 (84) vel 37
47.771s | tick 49529 | track 1 | ch 1 | Note On D#2 (39) vel 27
47.864s | tick 49625 | track 1 | ch 1 | Note Off A#2 (46) vel 0
47.956s | tick 49721 | track 1 | ch 1 | Note Off D#6 (87) vel 0
47.956s | tick 49721 | track 1 | ch 1 | Note On G6 (91) vel 38
47.956s | tick 49721 | track 1 | ch 1 | Note On G5 (79) vel 38
47.956s | tick 49721 | track 1 | ch 1 | Note On G#2 (44) vel 30
48.049s | tick 49817 | track 1 | ch 1 | Note Off G#1 (32) vel 0
48.141s | tick 49913 | track 1 | ch 1 | Note Off D#5 (75) vel 0
48.141s | tick 49913 | track 1 | ch 1 | Note On A#2 (46) vel 31
48.234s | tick 50009 | track 1 | ch 1 | Note Off A#1 (34) vel 0
48.327s | tick 50105 | track 1 | ch 1 | Note Off C6 (84) vel 0
48.327s | tick 50105 | track 1 | ch 1 | Note Off C5 (72) vel 0
48.327s | tick 50105 | track 1 | ch 1 | Note On F6 (89) vel 37
48.327s | tick 50105 | track 1 | ch 1 | Note On C3 (48) vel 34
48.419s | tick 50201 | track 1 | ch 1 | Note Off D#2 (39) vel 0
48.604s | tick 50393 | track 1 | ch 1 | Note Off G#2 (44) vel 0
48.697s | tick 50489 | track 1 | ch 1 | Note Off G5 (79) vel 0
48.697s | tick 50489 | track 1 | ch 1 | Note Off G6 (91) vel 0
48.697s | tick 50489 | track 1 | ch 1 | Note On D5 (74) vel 36
48.789s | tick 50585 | track 1 | ch 1 | Note Off A#2 (46) vel 0
48.882s | tick 50681 | track 1 | ch 1 | Note Off D#4 (63) vel 0
48.882s | tick 50681 | track 1 | ch 1 | Note Off D#5 (75) vel 0
48.882s | tick 50681 | track 1 | ch 1 | Note On F4 (65) vel 35
48.975s | tick 50777 | track 1 | ch 1 | Note Off C3 (48) vel 0
49.067s | tick 50873 | track 1 | ch 1 | Note Off F5 (77) vel 0
49.067s | tick 50873 | track 1 | ch 1 | Note Off F6 (89) vel 0
49.067s | tick 50873 | track 1 | ch 1 | Note On F5 (77) vel 36
49.067s | tick 50873 | track 1 | ch 1 | Note On F5 (77) vel 36
49.067s | tick 50873 | track 1 | ch 1 | Note On G3 (55) vel 33
49.067s | tick 50873 | track 1 | ch 1 | Note On G3 (55) vel 33
49.160s | tick 50969 | track 1 | ch 1 | Note Off G3 (55) vel 0
49.252s | tick 51065 | track 1 | ch 1 | Note On C6 (84) vel 36
49.252s | tick 51065 | track 1 | ch 1 | Note On G#3 (56) vel 33
49.252s | tick 51065 | track 1 | ch 1 | Note On G#3 (56) vel 33
49.438s | tick 51257 | track 1 | ch 1 | Note Off D6 (86) vel 0
49.438s | tick 51257 | track 1 | ch 1 | Note On D6 (86) vel 35
49.438s | tick 51257 | track 1 | ch 1 | Note On A#3 (58) vel 33
49.530s | tick 51353 | track 1 | ch 1 | Note Off G#3 (56) vel 0
49.623s | tick 51449 | track 1 | ch 1 | Note Off F5 (77) vel 0
49.623s | tick 51449 | track 1 | ch 1 | Note Off F4 (65) vel 0
49.623s | tick 51449 | track 1 | ch 1 | Note Off D5 (74) vel 0
49.623s | tick 51449 | track 1 | ch 1 | Note On D#6 (87) vel 32
49.623s | tick 51449 | track 1 | ch 1 | Note On D#5 (75) vel 32
49.623s | tick 51449 | track 1 | ch 1 | Note On A#4 (70) vel 33
49.715s | tick 51545 | track 1 | ch 1 | Note Off G3 (55) vel 0
49.808s | tick 51641 | track 1 | ch 1 | Note Off C6 (84) vel 0
49.901s | tick 51737 | track 1 | ch 1 | Note Off G#3 (56) vel 0
49.993s | tick 51833 | track 1 | ch 1 | Note Off D6 (86) vel 0
49.993s | tick 51833 | track 1 | ch 1 | Note On D6 (86) vel 32
49.993s | tick 51833 | track 1 | ch 1 | Note On D5 (74) vel 32
49.993s | tick 51833 | track 1 | ch 1 | Note On D6 (86) vel 32
49.993s | tick 51833 | track 1 | ch 1 | Note On G#4 (68) vel 33
50.086s | tick 51929 | track 1 | ch 1 | Note Off A#3 (58) vel 0
50.178s | tick 52025 | track 1 | ch 1 | Note On G4 (67) vel 30
50.364s | tick 52217 | track 1 | ch 1 | Note Off D#5 (75) vel 0
50.364s | tick 52217 | track 1 | ch 1 | Note Off D#6 (87) vel 0
50.364s | tick 52217 | track 1 | ch 1 | Note On C3 (48) vel 24
50.364s | tick 52217 | track 1 | ch 1 | Note On C4 (60) vel 31
50.364s | tick 52217 | track 1 | ch 1 | Note On C2 (36) vel 30
50.364s | tick 52217 | track 1 | ch 1 | Note On G5 (79) vel 24
50.364s | tick 52217 | track 1 | ch 1 | Note On C5 (72) vel 24
50.364s | tick 52217 | track 1 | ch 1 | Note On D#5 (75) vel 24
50.456s | tick 52313 | track 1 | ch 1 | Note Off A#4 (70) vel 0
50.641s | tick 52505 | track 1 | ch 1 | Note Off D#5 (75) vel 0
50.641s | tick 52505 | track 1 | ch 1 | Note Off C5 (72) vel 0
50.641s | tick 52505 | track 1 | ch 1 | Note Off G5 (79) vel 0
50.641s | tick 52505 | track 1 | ch 1 | Note Off C4 (60) vel 0
50.641s | tick 52505 | track 1 | ch 1 | Note Off C3 (48) vel 0
50.641s | tick 52505 | track 1 | ch 1 | Note Off G#4 (68) vel 0
50.734s | tick 52601 | track 1 | ch 1 | Note Off D6 (86) vel 0
50.734s | tick 52601 | track 1 | ch 1 | Note Off D5 (74) vel 0
50.734s | tick 52601 | track 1 | ch 1 | Note On G5 (79) vel 30
50.734s | tick 52601 | track 1 | ch 1 | Note On C5 (72) vel 30
50.734s | tick 52601 | track 1 | ch 1 | Note On D#5 (75) vel 30
50.827s | tick 52697 | track 1 | ch 1 | Note Off C2 (36) vel 0
50.827s | tick 52697 | track 1 | ch 1 | Note Off G4 (67) vel 0
50.919s | tick 52793 | track 1 | ch 1 | Note On C3 (48) vel 28
50.919s | tick 52793 | track 1 | ch 1 | Note On C4 (60) vel 39
50.919s | tick 52793 | track 1 | ch 1 | Note On C2 (36) vel 30
51.382s | tick 53273 | track 1 | ch 1 | Note Off C2 (36) vel 0
51.475s | tick 53369 | track 1 | ch 1 | Note Off C4 (60) vel 0
51.475s | tick 53369 | track 1 | ch 1 | Note Off C3 (48) vel 0
51.475s | tick 53369 | track 1 | ch 1 | Note On D#4 (63) vel 39
51.475s | tick 53369 | track 1 | ch 1 | Note On D#3 (51) vel 28
51.475s | tick 53369 | track 1 | ch 1 | Note On C3 (48) vel 22
51.475s | tick 53369 | track 1 | ch 1 | Note On C2 (36) vel 30
51.938s | tick 53849 | track 1 | ch 1 | Note Off C2 (36) vel 0
51.938s | tick 53849 | track 1 | ch 1 | Note Off C3 (48) vel 0
52.030s | tick 53945 | track 1 | ch 1 | Note Off D#3 (51) vel 0
52.030s | tick 53945 | track 1 | ch 1 | Note Off D#4 (63) vel 0
52.030s | tick 53945 | track 1 | ch 1 | Note On G4 (67) vel 38
52.030s | tick 53945 | track 1 | ch 1 | Note On G3 (55) vel 27
52.030s | tick 53945 | track 1 | ch 1 | Note On C3 (48) vel 22
52.030s | tick 53945 | track 1 | ch 1 | Note On C2 (36) vel 30
52.493s | tick 54425 | track 1 | ch 1 | Note Off C2 (36) vel 0
52.493s | tick 54425 | track 1 | ch 1 | Note Off C3 (48) vel 0
52.586s | tick 54521 | track 1 | ch 1 | Note Off G3 (55) vel 0
52.586s | tick 54521 | track 1 | ch 1 | Note Off G4 (67) vel 0
52.586s | tick 54521 | track 1 | ch 1 | Note On C4 (60) vel 27
52.586s | tick 54521 | track 1 | ch 1 | Note On C5 (72) vel 38
52.956s | tick 54905 | track 1 | ch 1 | Note Off C2 (36) vel 0
52.956s | tick 54905 | track 1 | ch 1 | Note Off C3 (48) vel 0
52.956s | tick 54905 | track 1 | ch 1 | Note Off C5 (72) vel 0
52.956s | tick 54905 | track 1 | ch 1 | Note Off C4 (60) vel 0
52.956s | tick 54905 | track 1 | ch 1 | Note On D5 (74) vel 38
52.956s | tick 54905 | track 1 | ch 1 | Note On D4 (62) vel 27
52.956s | tick 54905 | track 1 | ch 1 | Note On C3 (48) vel 22
52.956s | tick 54905 | track 1 | ch 1 | Note On C2 (36) vel 30
52.956s | tick 54905 | track 1 | ch 1 | Note On C3 (48) vel 22
52.956s | tick 54905 | track 1 | ch 1 | Note On C2 (36) vel 30
53.327s | tick 55289 | track 1 | ch 1 | Note Off C2 (36) vel 0
53.327s | tick 55289 | track 1 | ch 1 | Note Off C3 (48) vel 0
53.327s | tick 55289 | track 1 | ch 1 | Note Off D4 (62) vel 0
53.327s | tick 55289 | track 1 | ch 1 | Note Off D5 (74) vel 0
53.327s | tick 55289 | track 1 | ch 1 | Note Off D#5 (75) vel 0
53.327s | tick 55289 | track 1 | ch 1 | Note Off C5 (72) vel 0
53.327s | tick 55289 | track 1 | ch 1 | Note Off G5 (79) vel 0
53.327s | tick 55289 | track 1 | ch 1 | Note On D#4 (63) vel 27
53.327s | tick 55289 | track 1 | ch 1 | Note On D#5 (75) vel 38
53.327s | tick 55289 | track 1 | ch 1 | Note On G#2 (44) vel 22
53.327s | tick 55289 | track 1 | ch 1 | Note On G#1 (32) vel 30
53.327s | tick 55289 | track 1 | ch 1 | Note On D#5 (75) vel 33
53.327s | tick 55289 | track 1 | ch 1 | Note On G#4 (68) vel 33
53.327s | tick 55289 | track 1 | ch 1 | Note On C5 (72) vel 33
53.789s | tick 55769 | track 1 | ch 1 | Note Off G#1 (32) vel 0
53.789s | tick 55769 | track 1 | ch 1 | Note Off G#2 (44) vel 0
53.882s | tick 55865 | track 1 | ch 1 | Note Off D#5 (75) vel 0
53.882s | tick 55865 | track 1 | ch 1 | Note Off D#4 (63) vel 0
53.882s | tick 55865 | track 1 | ch 1 | Note On D5 (74) vel 38
53.882s | tick 55865 | track 1 | ch 1 | Note On D4 (62) vel 27
53.882s | tick 55865 | track 1 | ch 1 | Note On G#2 (44) vel 22
53.882s | tick 55865 | track 1 | ch 1 | Note On G#1 (32) vel 30
54.345s | tick 56345 | track 1 | ch 1 | Note Off G#1 (32) vel 0
54.345s | tick 56345 | track 1 | ch 1 | Note Off G#2 (44) vel 0
54.438s | tick 56441 | track 1 | ch 1 | Note Off D4 (62) vel 0
54.438s | tick 56441 | track 1 | ch 1 | Note Off D5 (74) vel 0
54.438s | tick 56441 | track 1 | ch 1 | Note On A#4 (70) vel 38
54.438s | tick 56441 | track 1 | ch 1 | Note On A#3 (58) vel 27
54.438s | tick 56441 | track 1 | ch 1 | Note On A#2 (46) vel 22
54.438s | tick 56441 | track 1 | ch 1 | Note On A#1 (34) vel 30
54.808s | tick 56825 | track 1 | ch 1 | Note Off C5 (72) vel 0
54.808s | tick 56825 | track 1 | ch 1 | Note Off G#4 (68) vel 0
54.808s | tick 56825 | track 1 | ch 1 | Note Off D#5 (75) vel 0
54.808s | tick 56825 | track 1 | ch 1 | Note On F4 (65) vel 33
54.808s | tick 56825 | track 1 | ch 1 | Note On A#4 (70) vel 33
54.808s | tick 56825 | track 1 | ch 1 | Note On D5 (74) vel 33
54.901s | tick 56921 | track 1 | ch 1 | Note Off A#1 (34) vel 0
54.901s | tick 56921 | track 1 | ch 1 | Note Off A#2 (46) vel 0
54.993s | tick 57017 | track 1 | ch 1 | Note Off A#3 (58) vel 0
54.993s | tick 57017 | track 1 | ch 1 | Note Off A#4 (70) vel 0
54.993s | tick 57017 | track 1 | ch 1 | Note On F4 (65) vel 38
54.993s | tick 57017 | track 1 | ch 1 | Note On F3 (53) vel 27
54.993s | tick 57017 | track 1 | ch 1 | Note On A#2 (46) vel 22
54.993s | tick 57017 | track 1 | ch 1 | Note On A#1 (34) vel 30
55.456s | tick 57497 | track 1 | ch 1 | Note Off A#1 (34) vel 0
55.456s | tick 57497 | track 1 | ch 1 | Note Off A#2 (46) vel 0
55.549s | tick 57593 | track 1 | ch 1 | Note Off F3 (53) vel 0
55.549s | tick 57593 | track 1 | ch 1 | Note Off F4 (65) vel 0
55.549s | tick 57593 | track 1 | ch 1 | Note On D#3 (51) vel 27
55.549s | tick 57593 | track 1 | ch 1 | Note On D#4 (63) vel 38
55.919s | tick 57977 | track 1 | ch 1 | Note Off A#1 (34) vel 0
55.919s | tick 57977 | track 1 | ch 1 | Note Off A#2 (46) vel 0
55.919s | tick 57977 | track 1 | ch 1 | Note Off D#4 (63) vel 0
55.919s | tick 57977 | track 1 | ch 1 | Note Off D#3 (51) vel 0
55.919s | tick 57977 | track 1 | ch 1 | Note On D4 (62) vel 38
55.919s | tick 57977 | track 1 | ch 1 | Note On D3 (50) vel 27
55.919s | tick 57977 | track 1 | ch 1 | Note On A#2 (46) vel 22
55.919s | tick 57977 | track 1 | ch 1 | Note On A#1 (34) vel 30
55.919s | tick 57977 | track 1 | ch 1 | Note On A#2 (46) vel 22
55.919s | tick 57977 | track 1 | ch 1 | Note On A#1 (34) vel 30
56.289s | tick 58361 | track 1 | ch 1 | Note Off A#1 (34) vel 0
56.289s | tick 58361 | track 1 | ch 1 | Note Off A#2 (46) vel 0
56.289s | tick 58361 | track 1 | ch 1 | Note Off D3 (50) vel 0
56.289s | tick 58361 | track 1 | ch 1 | Note Off D4 (62) vel 0
56.289s | tick 58361 | track 1 | ch 1 | Note Off D5 (74) vel 0
56.289s | tick 58361 | track 1 | ch 1 | Note Off A#4 (70) vel 0
56.289s | tick 58361 | track 1 | ch 1 | Note Off F4 (65) vel 0
56.289s | tick 58361 | track 1 | ch 1 | Note On D#3 (51) vel 27
56.289s | tick 58361 | track 1 | ch 1 | Note On D#4 (63) vel 30
56.289s | tick 58361 | track 1 | ch 1 | Note On C3 (48) vel 22
56.289s | tick 58361 | track 1 | ch 1 | Note On C2 (36) vel 30
56.289s | tick 58361 | track 1 | ch 1 | Note On D#4 (63) vel 33
56.289s | tick 58361 | track 1 | ch 1 | Note On C5 (72) vel 33
56.289s | tick 58361 | track 1 | ch 1 | Note On G4 (67) vel 33
56.752s | tick 58841 | track 1 | ch 1 | Note Off C2 (36) vel 0
56.752s | tick 58841 | track 1 | ch 1 | Note Off C3 (48) vel 0
56.845s | tick 58937 | track 1 | ch 1 | Note Off D#4 (63) vel 0
56.845s | tick 58937 | track 1 | ch 1 | Note Off D#3 (51) vel 0
56.845s | tick 58937 | track 1 | ch 1 | Note On C4 (60) vel 38
56.845s | tick 58937 | track 1 | ch 1 | Note On C3 (48) vel 27
56.845s | tick 58937 | track 1 | ch 1 | Note On C3 (48) vel 22
56.845s | tick 58937 | track 1 | ch 1 | Note On C2 (36) vel 30
57.308s | tick 59417 | track 1 | ch 1 | Note Off C2 (36) vel 0
57.308s | tick 59417 | track 1 | ch 1 | Note Off C3 (48) vel 0
57.401s | tick 59513 | track 1 | ch 1 | Note Off C3 (48) vel 0
57.401s | tick 59513 | track 1 | ch 1 | Note Off C4 (60) vel 0
57.401s | tick 59513 | track 1 | ch 1 | Note On D#4 (63) vel 38
57.401s | tick 59513 | track 1 | ch 1 | Note On D#3 (51) vel 27
57.401s | tick 59513 | track 1 | ch 1 | Note On C3 (48) vel 22
57.401s | tick 59513 | track 1 | ch 1 | Note On C2 (36) vel 30
57.864s | tick 59993 | track 1 | ch 1 | Note Off C2 (36) vel 0
57.864s | tick 59993 | track 1 | ch 1 | Note Off C3 (48) vel 0
57.956s | tick 60089 | track 1 | ch 1 | Note Off D#3 (51) vel 0
57.956s | tick 60089 | track 1 | ch 1 | Note Off D#4 (63) vel 0
57.956s | tick 60089 | track 1 | ch 1 | Note On G4 (67) vel 38
57.956s | tick 60089 | track 1 | ch 1 | Note On G3 (55) vel 27
57.956s | tick 60089 | track 1 | ch 1 | Note On C3 (48) vel 22
57.956s | tick 60089 | track 1 | ch 1 | Note On C2 (36) vel 30
58.419s | tick 60569 | track 1 | ch 1 | Note Off C2 (36) vel 0
58.419s | tick 60569 | track 1 | ch 1 | Note Off C3 (48) vel 0
58.512s | tick 60665 | track 1 | ch 1 | Note Off G3 (55) vel 0
58.512s | tick 60665 | track 1 | ch 1 | Note Off G4 (67) vel 0
58.512s | tick 60665 | track 1 | ch 1 | Note On C4 (60) vel 27
58.512s | tick 60665 | track 1 | ch 1 | Note On C5 (72) vel 38
58.789s | tick 60953 | track 1 | ch 1 | Note On C3 (48) vel 27
58.882s | tick 61049 | track 1 | ch 1 | Note Off C3 (48) vel 0
58.882s | tick 61049 | track 1 | ch 1 | Note Off C5 (72) vel 0
58.882s | tick 61049 | track 1 | ch 1 | Note Off C4 (60) vel 0
58.882s | tick 61049 | track 1 | ch 1 | Note On D4 (62) vel 27
58.882s | tick 61049 | track 1 | ch 1 | Note On D5 (74) vel 38
58.882s | tick 61049 | track 1 | ch 1 | Note On C3 (48) vel 27
58.975s | tick 61145 | track 1 | ch 1 | Note Off C3 (48) vel 0
58.975s | tick 61145 | track 1 | ch 1 | Note On C3 (48) vel 27
59.067s | tick 61241 | track 1 | ch 1 | Note Off C3 (48) vel 0
59.067s | tick 61241 | track 1 | ch 1 | Note On C3 (48) vel 27
59.160s | tick 61337 | track 1 | ch 1 | Note Off C3 (48) vel 0
59.160s | tick 61337 | track 1 | ch 1 | Note On C3 (48) vel 27
59.160s | tick 61337 | track 1 | ch 1 | Note On C3 (48) vel 27
59.252s | tick 61433 | track 1 | ch 1 | Note Off C3 (48) vel 0
59.252s | tick 61433 | track 1 | ch 1 | Note Off D5 (74) vel 0
59.252s | tick 61433 | track 1 | ch 1 | Note Off D4 (62) vel 0
59.252s | tick 61433 | track 1 | ch 1 | Note Off G4 (67) vel 0
59.252s | tick 61433 | track 1 | ch 1 | Note Off C5 (72) vel 0
59.252s | tick 61433 | track 1 | ch 1 | Note Off D#4 (63) vel 0
59.252s | tick 61433 | track 1 | ch 1 | Note On D#5 (75) vel 38
59.252s | tick 61433 | track 1 | ch 1 | Note On D#4 (63) vel 20
59.252s | tick 61433 | track 1 | ch 1 | Note On G#2 (44) vel 22
59.252s | tick 61433 | track 1 | ch 1 | Note On G#1 (32) vel 30
59.252s | tick 61433 | track 1 | ch 1 | Note On C4 (60) vel 33
59.252s | tick 61433 | track 1 | ch 1 | Note On D#4 (63) vel 33
59.252s | tick 61433 | track 1 | ch 1 | Note On G#4 (68) vel 33
59.345s | tick 61529 | track 1 | ch 1 | Note Off C3 (48) vel 0
59.715s | tick 61913 | track 1 | ch 1 | Note Off G#1 (32) vel 0
59.715s | tick 61913 | track 1 | ch 1 | Note Off G#2 (44) vel 0
59.808s | tick 62009 | track 1 | ch 1 | Note Off D#4 (63) vel 0
59.808s | tick 62009 | track 1 | ch 1 | Note Off D#5 (75) vel 0
59.808s | tick 62009 | track 1 | ch 1 | Note On G5 (79) vel 38
59.808s | tick 62009 | track 1 | ch 1 | Note On G4 (67) vel 27
59.808s | tick 62009 | track 1 | ch 1 | Note On G#2 (44) vel 22
59.808s | tick 62009 | track 1 | ch 1 | Note On G#1 (32) vel 30
60.271s | tick 62489 | track 1 | ch 1 | Note Off G#1 (32) vel 0
60.271s | tick 62489 | track 1 | ch 1 | Note Off G#2 (44) vel 0
60.364s | tick 62585 | track 1 | ch 1 | Note Off G4 (67) vel 0
60.364s | tick 62585 | track 1 | ch 1 | Note Off G5 (79) vel 0
60.364s | tick 62585 | track 1 | ch 1 | Note On F5 (77) vel 38
60.364s | tick 62585 | track 1 | ch 1 | Note On F4 (65) vel 27
60.364s | tick 62585 | track 1 | ch 1 | Note On A#2 (46) vel 22
60.364s | tick 62585 | track 1 | ch 1 | Note On A#1 (34) vel 30
60.734s | tick 62969 | track 1 | ch 1 | Note Off G#4 (68) vel 0
60.734s | tick 62969 | track 1 | ch 1 | Note Off D#4 (63) vel 0
60.734s | tick 62969 | track 1 | ch 1 | Note Off C4 (60) vel 0
60.734s | tick 62969 | track 1 | ch 1 | Note On F4 (65) vel 33
60.734s | tick 62969 | track 1 | ch 1 | Note On D4 (62) vel 33
60.734s | tick 62969 | track 1 | ch 1 | Note On A#4 (70) vel 33
60.827s | tick 63065 | track 1 | ch 1 | Note Off A#1 (34) vel 0
60.827s | tick 63065 | track 1 | ch 1 | Note Off A#2 (46) vel 0
60.919s | tick 63161 | track 1 | ch 1 | Note Off F4 (65) vel 0
60.919s | tick 63161 | track 1 | ch 1 | Note Off F5 (77) vel 0
60.919s | tick 63161 | track 1 | ch 1 | Note On D5 (74) vel 38
60.919s | tick 63161 | track 1 | ch 1 | Note On D4 (62) vel 27
60.919s | tick 63161 | track 1 | ch 1 | Note On A#2 (46) vel 22
60.919s | tick 63161 | track 1 | ch 1 | Note On A#1 (34) vel 30
61.382s | tick 63641 | track 1 | ch 1 | Note Off A#1 (34) vel 0
61.382s | tick 63641 | track 1 | ch 1 | Note Off A#2 (46) vel 0
61.475s | tick 63737 | track 1 | ch 1 | Note Off D4 (62) vel 0
61.475s | tick 63737 | track 1 | ch 1 | Note Off D5 (74) vel 0
61.475s | tick 63737 | track 1 | ch 1 | Note On G#4 (68) vel 27
61.475s | tick 63737 | track 1 | ch 1 | Note On G#5 (80) vel 38
61.845s | tick 64121 | track 1 | ch 1 | Note Off A#1 (34) vel 0
61.845s | tick 64121 | track 1 | ch 1 | Note Off A#2 (46) vel 0
61.845s | tick 64121 | track 1 | ch 1 | Note Off G#5 (80) vel 0
61.845s | tick 64121 | track 1 | ch 1 | Note Off G#4 (68) vel 0
61.845s | tick 64121 | track 1 | ch 1 | Note On G5 (79) vel 38
61.845s | tick 64121 | track 1 | ch 1 | Note On G4 (67) vel 27
61.845s | tick 64121 | track 1 | ch 1 | Note On A#2 (46) vel 22
61.845s | tick 64121 | track 1 | ch 1 | Note On A#1 (34) vel 30
61.845s | tick 64121 | track 1 | ch 1 | Note On A#2 (46) vel 22
61.845s | tick 64121 | track 1 | ch 1 | Note On A#1 (34) vel 30
62.215s | tick 64505 | track 1 | ch 1 | Note Off A#1 (34) vel 0
62.215s | tick 64505 | track 1 | ch 1 | Note Off A#2 (46) vel 0
62.215s | tick 64505 | track 1 | ch 1 | Note Off G4 (67) vel 0
62.215s | tick 64505 | track 1 | ch 1 | Note Off G5 (79) vel 0
62.215s | tick 64505 | track 1 | ch 1 | Note On G#4 (68) vel 36
62.308s | tick 64601 | track 1 | ch 1 | Note Off G#4 (68) vel 0
62.308s | tick 64601 | track 1 | ch 1 | Note On G4 (67) vel 36
62.401s | tick 64697 | track 1 | ch 1 | Note Off G4 (67) vel 0
62.401s | tick 64697 | track 1 | ch 1 | Note On C4 (60) vel 36
62.401s | tick 64697 | track 1 | ch 1 | Note On C2 (36) vel 32
62.401s | tick 64697 | track 1 | ch 1 | Note On C3 (48) vel 29
62.493s | tick 64793 | track 1 | ch 1 | Note Off C4 (60) vel 0
62.493s | tick 64793 | track 1 | ch 1 | Note On A#4 (70) vel 36
62.586s | tick 64889 | track 1 | ch 1 | Note Off A#4 (70) vel 0
62.586s | tick 64889 | track 1 | ch 1 | Note Off C3 (48) vel 0
62.586s | tick 64889 | track 1 | ch 1 | Note Off C2 (36) vel 0
62.586s | tick 64889 | track 1 | ch 1 | Note Off A#4 (70) vel 0
62.586s | tick 64889 | track 1 | ch 1 | Note Off D4 (62) vel 0
62.586s | tick 64889 | track 1 | ch 1 | Note Off F4 (65) vel 0
62.586s | tick 64889 | track 1 | ch 1 | Note On G4 (67) vel 36
62.678s | tick 64985 | track 1 | ch 1 | Note Off G4 (67) vel 0
62.678s | tick 64985 | track 1 | ch 1 | Note On C4 (60) vel 36
62.771s | tick 65081 | track 1 | ch 1 | Note Off C4 (60) vel 0
62.771s | tick 65081 | track 1 | ch 1 | Note On G#4 (68) vel 36
62.771s | tick 65081 | track 1 | ch 1 | Note On C2 (36) vel 32
62.771s | tick 65081 | track 1 | ch 1 | Note On C3 (48) vel 29
62.864s | tick 65177 | track 1 | ch 1 | Note Off G#4 (68) vel 0
62.864s | tick 65177 | track 1 | ch 1 | Note On G4 (67) vel 36
62.956s | tick 65273 | track 1 | ch 1 | Note Off G4 (67) vel 0
62.956s | tick 65273 | track 1 | ch 1 | Note Off C3 (48) vel 0
62.956s | tick 65273 | track 1 | ch 1 | Note Off C2 (36) vel 0
62.956s | tick 65273 | track 1 | ch 1 | Note On C4 (60) vel 36
63.049s | tick 65369 | track 1 | ch 1 | Note Off C4 (60) vel 0
63.049s | tick 65369 | track 1 | ch 1 | Note On C5 (72) vel 36
63.141s | tick 65465 | track 1 | ch 1 | Note Off C5 (72) vel 0
63.141s | tick 65465 | track 1 | ch 1 | Note On G4 (67) vel 36
63.141s | tick 65465 | track 1 | ch 1 | Note On C2 (36) vel 32
63.141s | tick 65465 | track 1 | ch 1 | Note On C3 (48) vel 29
63.234s | tick 65561 | track 1 | ch 1 | Note Off G4 (67) vel 0
63.234s | tick 65561 | track 1 | ch 1 | Note On C4 (60) vel 36
63.327s | tick 65657 | track 1 | ch 1 | Note Off C4 (60) vel 0
63.327s | tick 65657 | track 1 | ch 1 | Note Off C3 (48) vel 0
63.327s | tick 65657 | track 1 | ch 1 | Note Off C2 (36) vel 0
63.327s | tick 65657 | track 1 | ch 1 | Note On C5 (72) vel 36
63.419s | tick 65753 | track 1 | ch 1 | Note Off C5 (72) vel 0
63.419s | tick 65753 | track 1 | ch 1 | Note On C4 (60) vel 36
63.512s | tick 65849 | track 1 | ch 1 | Note Off C4 (60) vel 0
63.512s | tick 65849 | track 1 | ch 1 | Note On D#5 (75) vel 36
63.512s | tick 65849 | track 1 | ch 1 | Note On C2 (36) vel 32
63.512s | tick 65849 | track 1 | ch 1 | Note On C3 (48) vel 29
63.604s | tick 65945 | track 1 | ch 1 | Note Off D#5 (75) vel 0
63.604s | tick 65945 | track 1 | ch 1 | Note On C4 (60) vel 36
63.697s | tick 66041 | track 1 | ch 1 | Note Off C4 (60) vel 0
63.697s | tick 66041 | track 1 | ch 1 | Note Off C3 (48) vel 0
63.697s | tick 66041 | track 1 | ch 1 | Note Off C2 (36) vel 0
63.697s | tick 66041 | track 1 | ch 1 | Note On D5 (74) vel 36
63.789s | tick 66137 | track 1 | ch 1 | Note Off D5 (74) vel 0
63.789s | tick 66137 | track 1 | ch 1 | Note On D#5 (75) vel 36
63.882s | tick 66233 | track 1 | ch 1 | Note Off D#5 (75) vel 0
63.882s | tick 66233 | track 1 | ch 1 | Note On D5 (74) vel 36
63.882s | tick 66233 | track 1 | ch 1 | Note On C2 (36) vel 32
63.882s | tick 66233 | track 1 | ch 1 | Note On C3 (48) vel 29
63.975s | tick 66329 | track 1 | ch 1 | Note Off D5 (74) vel 0
63.975s | tick 66329 | track 1 | ch 1 | Note On A#4 (70) vel 36
64.067s | tick 66425 | track 1 | ch 1 | Note Off A#4 (70) vel 0
64.067s | tick 66425 | track 1 | ch 1 | Note Off C3 (48) vel 0
64.067s | tick 66425 | track 1 | ch 1 | Note Off C2 (36) vel 0
64.067s | tick 66425 | track 1 | ch 1 | Note On F4 (65) vel 36
64.160s | tick 66521 | track 1 | ch 1 | Note Off F4 (65) vel 0
64.160s | tick 66521 | track 1 | ch 1 | Note On A#4 (70) vel 36
64.252s | tick 66617 | track 1 | ch 1 | Note Off A#4 (70) vel 0
64.252s | tick 66617 | track 1 | ch 1 | Note On G#4 (68) vel 36
64.252s | tick 66617 | track 1 | ch 1 | Note On C2 (36) vel 32
64.252s | tick 66617 | track 1 | ch 1 | Note On C3 (48) vel 29
64.345s | tick 66713 | track 1 | ch 1 | Note Off G#4 (68) vel 0
64.345s | tick 66713 | track 1 | ch 1 | Note On G4 (67) vel 36
64.438s | tick 66809 | track 1 | ch 1 | Note Off G4 (67) vel 0
64.438s | tick 66809 | track 1 | ch 1 | Note Off C3 (48) vel 0
64.438s | tick 66809 | track 1 | ch 1 | Note Off C2 (36) vel 0
64.438s | tick 66809 | track 1 | ch 1 | Note On F4 (65) vel 36
64.530s | tick 66905 | track 1 | ch 1 | Note Off F4 (65) vel 0
64.530s | tick 66905 | track 1 | ch 1 | Note On G4 (67) vel 36
64.623s | tick 67001 | track 1 | ch 1 | Note Off G4 (67) vel 0
64.623s | tick 67001 | track 1 | ch 1 | Note On F4 (65) vel 36
64.623s | tick 67001 | track 1 | ch 1 | Note On C2 (36) vel 32
64.623s | tick 67001 | track 1 | ch 1 | Note On C3 (48) vel 29
64.715s | tick 67097 | track 1 | ch 1 | Note Off F4 (65) vel 0
64.715s | tick 67097 | track 1 | ch 1 | Note On D#4 (63) vel 36
64.808s | tick 67193 | track 1 | ch 1 | Note Off D#4 (63) vel 0
64.808s | tick 67193 | track 1 | ch 1 | Note Off C3 (48) vel 0
64.808s | tick 67193 | track 1 | ch 1 | Note Off C2 (36) vel 0
64.808s | tick 67193 | track 1 | ch 1 | Note On D4 (62) vel 36
64.901s | tick 67289 | track 1 | ch 1 | Note Off D4 (62) vel 0
64.901s | tick 67289 | track 1 | ch 1 | Note On D#4 (63) vel 36
64.993s | tick 67385 | track 1 | ch 1 | Note Off D#4 (63) vel 0
64.993s | tick 67385 | track 1 | ch 1 | Note On D4 (62) vel 36
64.993s | tick 67385 | track 1 | ch 1 | Note On C2 (36) vel 32
64.993s | tick 67385 | track 1 | ch 1 | Note On C3 (48) vel 29
65.086s | tick 67481 | track 1 | ch 1 | Note Off D4 (62) vel 0
65.086s | tick 67481 | track 1 | ch 1 | Note On A#3 (58) vel 36
65.178s | tick 67577 | track 1 | ch 1 | Note Off A#3 (58) vel 0
65.178s | tick 67577 | track 1 | ch 1 | Note Off C3 (48) vel 0
65.178s | tick 67577 | track 1 | ch 1 | Note Off C2 (36) vel 0
65.178s | tick 67577 | track 1 | ch 1 | Note On D#4 (63) vel 36
65.271s | tick 67673 | track 1 | ch 1 | Note Off D#4 (63) vel 0
65.271s | tick 67673 | track 1 | ch 1 | Note On D4 (62) vel 36
65.364s | tick 67769 | track 1 | ch 1 | Note Off D4 (62) vel 0
65.364s | tick 67769 | track 1 | ch 1 | Note On A#3 (58) vel 36
65.364s | tick 67769 | track 1 | ch 1 | Note On G#1 (32) vel 32
65.364s | tick 67769 | track 1 | ch 1 | Note On G#2 (44) vel 29
65.456s | tick 67865 | track 1 | ch 1 | Note Off A#3 (58) vel 0
65.456s | tick 67865 | track 1 | ch 1 | Note On D#4 (63) vel 36
65.549s | tick 67961 | track 1 | ch 1 | Note Off D#4 (63) vel 0
65.549s | tick 67961 | track 1 | ch 1 | Note Off G#2 (44) vel 0
65.549s | tick 67961 | track 1 | ch 1 | Note Off G#1 (32) vel 0
65.549s | tick 67961 | track 1 | ch 1 | Note On G4 (67) vel 38
65.549s | tick 67961 | track 1 | ch 1 | Note On D#4 (63) vel 33
65.641s | tick 68057 | track 1 | ch 1 | Note Off D#4 (63) vel 0
65.641s | tick 68057 | track 1 | ch 1 | Note Off G4 (67) vel 0
65.641s | tick 68057 | track 1 | ch 1 | Note On D#4 (63) vel 38
65.641s | tick 68057 | track 1 | ch 1 | Note On A#3 (58) vel 33
65.734s | tick 68153 | track 1 | ch 1 | Note Off A#3 (58) vel 0
65.734s | tick 68153 | track 1 | ch 1 | Note Off D#4 (63) vel 0
65.734s | tick 68153 | track 1 | ch 1 | Note On D#5 (75) vel 38
65.734s | tick 68153 | track 1 | ch 1 | Note On G#1 (32) vel 32
65.734s | tick 68153 | track 1 | ch 1 | Note On G#2 (44) vel 29
65.734s | tick 68153 | track 1 | ch 1 | Note On G4 (67) vel 33
65.827s | tick 68249 | track 1 | ch 1 | Note Off G4 (67) vel 0
65.827s | tick 68249 | track 1 | ch 1 | Note Off D#5 (75) vel 0
65.827s | tick 68249 | track 1 | ch 1 | Note On G5 (79) vel 38
65.827s | tick 68249 | track 1 | ch 1 | Note On A#4 (70) vel 33
65.919s | tick 68345 | track 1 | ch 1 | Note Off A#4 (70) vel 0
65.919s | tick 68345 | track 1 | ch 1 | Note Off G5 (79) vel 0
65.919s | tick 68345 | track 1 | ch 1 | Note Off G#2 (44) vel 0
65.919s | tick 68345 | track 1 | ch 1 | Note Off G#1 (32) vel 0
65.919s | tick 68345 | track 1 | ch 1 | Note On D#4 (63) vel 38
65.919s | tick 68345 | track 1 | ch 1 | Note On G4 (67) vel 33
66.012s | tick 68441 | track 1 | ch 1 | Note Off G4 (67) vel 0
66.012s | tick 68441 | track 1 | ch 1 | Note Off D#4 (63) vel 0
66.012s | tick 68441 | track 1 | ch 1 | Note On A#4 (70) vel 38
66.012s | tick 68441 | track 1 | ch 1 | Note On D#4 (63) vel 33
66.104s | tick 68537 | track 1 | ch 1 | Note Off D#4 (63) vel 0
66.104s | tick 68537 | track 1 | ch 1 | Note Off A#4 (70) vel 0
66.104s | tick 68537 | track 1 | ch 1 | Note On D#5 (75) vel 38
66.104s | tick 68537 | track 1 | ch 1 | Note On G#1 (32) vel 32
66.104s | tick 68537 | track 1 | ch 1 | Note On G#2 (44) vel 29
66.104s | tick 68537 | track 1 | ch 1 | Note On G4 (67) vel 33
66.197s | tick 68633 | track 1 | ch 1 | Note Off G4 (67) vel 0
66.197s | tick 68633 | track 1 | ch 1 | Note Off D#5 (75) vel 0
66.197s | tick 68633 | track 1 | ch 1 | Note On G5 (79) vel 38
66.197s | tick 68633 | track 1 | ch 1 | Note On A#4 (70) vel 33
66.289s | tick 68729 | track 1 | ch 1 | Note Off A#4 (70) vel 0
66.289s | tick 68729 | track 1 | ch 1 | Note Off G5 (79) vel 0
66.289s | tick 68729 | track 1 | ch 1 | Note Off G#2 (44) vel 0
66.289s | tick 68729 | track 1 | ch 1 | Note Off G#1 (32) vel 0
66.289s | tick 68729 | track 1 | ch 1 | Note On A#1 (34) vel 35
66.289s | tick 68729 | track 1 | ch 1 | Note On C5 (72) vel 33
66.382s | tick 68825 | track 1 | ch 1 | Note Off C5 (72) vel 0
66.382s | tick 68825 | track 1 | ch 1 | Note On D5 (74) vel 33
66.475s | tick 68921 | track 1 | ch 1 | Note Off D5 (74) vel 0
66.475s | tick 68921 | track 1 | ch 1 | Note Off A#1 (34) vel 0
66.475s | tick 68921 | track 1 | ch 1 | Note On F5 (77) vel 38
66.475s | tick 68921 | track 1 | ch 1 | Note On A#4 (70) vel 33
66.567s | tick 69017 | track 1 | ch 1 | Note Off A#4 (70) vel 0
66.567s | tick 69017 | track 1 | ch 1 | Note Off F5 (77) vel 0
66.567s | tick 69017 | track 1 | ch 1 | Note On A#5 (82) vel 38
66.567s | tick 69017 | track 1 | ch 1 | Note On D5 (74) vel 33
66.660s | tick 69113 | track 1 | ch 1 | Note Off A#1 (34) vel 0
66.660s | tick 69113 | track 1 | ch 1 | Note Off D5 (74) vel 0
66.660s | tick 69113 | track 1 | ch 1 | Note Off A#5 (82) vel 0
66.660s | tick 69113 | track 1 | ch 1 | Note On D5 (74) vel 38
66.660s | tick 69113 | track 1 | ch 1 | Note On A#1 (34) vel 24
66.660s | tick 69113 | track 1 | ch 1 | Note On F4 (65) vel 33
66.702s | tick 69157 | track 1 | ch 1 | Note Off A#1 (34) vel 0
66.702s | tick 69157 | track 1 | ch 1 | Note On A#1 (34) vel 27
66.752s | tick 69209 | track 1 | ch 1 | Note Off A#1 (34) vel 0
66.752s | tick 69209 | track 1 | ch 1 | Note Off F4 (65) vel 0
66.752s | tick 69209 | track 1 | ch 1 | Note Off D5 (74) vel 0
66.752s | tick 69209 | track 1 | ch 1 | Note On F5 (77) vel 38
66.752s | tick 69209 | track 1 | ch 1 | Note On A#1 (34) vel 30
66.752s | tick 69209 | track 1 | ch 1 | Note On A#4 (70) vel 33
66.799s | tick 69257 | track 1 | ch 1 | Note Off A#1 (34) vel 0
66.799s | tick 69257 | track 1 | ch 1 | Note On A#1 (34) vel 42
66.845s | tick 69305 | track 1 | ch 1 | Note Off A#4 (70) vel 0
66.845s | tick 69305 | track 1 | ch 1 | Note Off F5 (77) vel 0
66.845s | tick 69305 | track 1 | ch 1 | Note On A#5 (82) vel 38
66.845s | tick 69305 | track 1 | ch 1 | Note On A#1 (34) vel 35
66.845s | tick 69305 | track 1 | ch 1 | Note On D5 (74) vel 33
66.938s | tick 69401 | track 1 | ch 1 | Note Off D5 (74) vel 0
66.938s | tick 69401 | track 1 | ch 1 | Note Off A#5 (82) vel 0
66.938s | tick 69401 | track 1 | ch 1 | Note On C6 (84) vel 38
67.030s | tick 69497 | track 1 | ch 1 | Note Off C6 (84) vel 0
67.030s | tick 69497 | track 1 | ch 1 | Note On C5 (72) vel 33
67.123s | tick 69593 | track 1 | ch 1 | Note Off C5 (72) vel 0
67.123s | tick 69593 | track 1 | ch 1 | Note On A#5 (82) vel 38
67.123s | tick 69593 | track 1 | ch 1 | Note On D5 (74) vel 33
67.215s | tick 69689 | track 1 | ch 1 | Note Off D5 (74) vel 0
67.215s | tick 69689 | track 1 | ch 1 | Note Off A#5 (82) vel 0
67.215s | tick 69689 | track 1 | ch 1 | Note On C6 (84) vel 38
67.215s | tick 69689 | track 1 | ch 1 | Note On F5 (77) vel 33
67.308s | tick 69785 | track 1 | ch 1 | Note Off F5 (77) vel 0
67.308s | tick 69785 | track 1 | ch 1 | Note Off C6 (84) vel 0
67.308s | tick 69785 | track 1 | ch 1 | Note On D6 (86) vel 38
67.308s | tick 69785 | track 1 | ch 1 | Note On A#5 (82) vel 33
67.401s | tick 69881 | track 1 | ch 1 | Note Off D3 (50) vel 0
67.401s | tick 69881 | track 1 | ch 1 | Note Off A#5 (82) vel 0
67.401s | tick 69881 | track 1 | ch 1 | Note Off D6 (86) vel 0
67.401s | tick 69881 | track 1 | ch 1 | Note Off A#1 (34) vel 0
67.401s | tick 69881 | track 1 | ch 1 | Note On F6 (89) vel 38
67.401s | tick 69881 | track 1 | ch 1 | Note On D3 (50) vel 35
67.401s | tick 69881 | track 1 | ch 1 | Note On D#5 (75) vel 33
67.493s | tick 69977 | track 1 | ch 1 | Note Off C3 (48) vel 0
67.493s | tick 69977 | track 1 | ch 1 | Note Off D#5 (75) vel 0
67.493s | tick 69977 | track 1 | ch 1 | Note Off F6 (89) vel 0
67.493s | tick 69977 | track 1 | ch 1 | Note On D#6 (87) vel 38
67.493s | tick 69977 | track 1 | ch 1 | Note On C3 (48) vel 35
67.493s | tick 69977 | track 1 | ch 1 | Note On D5 (74) vel 33
67.586s | tick 70073 | track 1 | ch 1 | Note Off A#2 (46) vel 0
67.586s | tick 70073 | track 1 | ch 1 | Note Off D5 (74) vel 0
67.586s | tick 70073 | track 1 | ch 1 | Note Off D#6 (87) vel 0
67.586s | tick 70073 | track 1 | ch 1 | Note On D6 (86) vel 38
67.586s | tick 70073 | track 1 | ch 1 | Note On A#2 (46) vel 35
67.586s | tick 70073 | track 1 | ch 1 | Note On C5 (72) vel 33
67.678s | tick 70169 | track 1 | ch 1 | Note Off G#2 (44) vel 0
67.678s | tick 70169 | track 1 | ch 1 | Note Off C5 (72) vel 0
67.678s | tick 70169 | track 1 | ch 1 | Note Off D6 (86) vel 0
67.678s | tick 70169 | track 1 | ch 1 | Note On C6 (84) vel 38
67.678s | tick 70169 | track 1 | ch 1 | Note On G#2 (44) vel 35
67.678s | tick 70169 | track 1 | ch 1 | Note On A#4 (70) vel 33
67.771s | tick 70265 | track 1 | ch 1 | Note Off G#2 (44) vel 0
67.771s | tick 70265 | track 1 | ch 1 | Note Off A#4 (70) vel 0
67.771s | tick 70265 | track 1 | ch 1 | Note Off C6 (84) vel 0
67.771s | tick 70265 | track 1 | ch 1 | Note On A#5 (82) vel 38
67.771s | tick 70265 | track 1 | ch 1 | Note On G#2 (44) vel 35
67.771s | tick 70265 | track 1 | ch 1 | Note On G5 (79) vel 33
67.864s | tick 70361 | track 1 | ch 1 | Note Off A#2 (46) vel 0
67.864s | tick 70361 | track 1 | ch 1 | Note Off G5 (79) vel 0
67.864s | tick 70361 | track 1 | ch 1 | Note Off A#5 (82) vel 0
67.864s | tick 70361 | track 1 | ch 1 | Note On C6 (84) vel 38
67.864s | tick 70361 | track 1 | ch 1 | Note On A#2 (46) vel 35
67.864s | tick 70361 | track 1 | ch 1 | Note On G#5 (80) vel 33
67.956s | tick 70457 | track 1 | ch 1 | Note Off C3 (48) vel 0
67.956s | tick 70457 | track 1 | ch 1 | Note Off G#5 (80) vel 0
67.956s | tick 70457 | track 1 | ch 1 | Note Off C6 (84) vel 0
67.956s | tick 70457 | track 1 | ch 1 | Note On D6 (86) vel 38
67.956s | tick 70457 | track 1 | ch 1 | Note On C3 (48) vel 35
67.956s | tick 70457 | track 1 | ch 1 | Note On A#5 (82) vel 33
68.049s | tick 70553 | track 1 | ch 1 | Note Off D3 (50) vel 0
68.049s | tick 70553 | track 1 | ch 1 | Note Off A#5 (82) vel 0
68.049s | tick 70553 | track 1 | ch 1 | Note Off D6 (86) vel 0
68.049s | tick 70553 | track 1 | ch 1 | Note On F6 (89) vel 38
68.049s | tick 70553 | track 1 | ch 1 | Note On D3 (50) vel 35
68.141s | tick 70649 | track 1 | ch 1 | Note Off F6 (89) vel 0
68.141s | tick 70649 | track 1 | ch 1 | Note On D#6 (87) vel 38
68.141s | tick 70649 | track 1 | ch 1 | Note On C3 (48) vel 32
68.141s | tick 70649 | track 1 | ch 1 | Note On C2 (36) vel 38
68.141s | tick 70649 | track 1 | ch 1 | Note On D#5 (75) vel 30
68.234s | tick 70745 | track 1 | ch 1 | Note Off D#5 (75) vel 0
68.234s | tick 70745 | track 1 | ch 1 | Note Off D#6 (87) vel 0
68.234s | tick 70745 | track 1 | ch 1 | Note On F6 (89) vel 38
68.234s | tick 70745 | track 1 | ch 1 | Note On F5 (77) vel 30
68.327s | tick 70841 | track 1 | ch 1 | Note Off F5 (77) vel 0
68.327s | tick 70841 | track 1 | ch 1 | Note Off F6 (89) vel 0
68.327s | tick 70841 | track 1 | ch 1 | Note On D#6 (87) vel 38
68.327s | tick 70841 | track 1 | ch 1 | Note On D#5 (75) vel 30
68.419s | tick 70937 | track 1 | ch 1 | Note Off D#5 (75) vel 0
68.419s | tick 70937 | track 1 | ch 1 | Note Off D#6 (87) vel 0
68.419s | tick 70937 | track 1 | ch 1 | Note On C6 (84) vel 38
68.419s | tick 70937 | track 1 | ch 1 | Note On C5 (72) vel 30
68.512s | tick 71033 | track 1 | ch 1 | Note Off C5 (72) vel 0
68.512s | tick 71033 | track 1 | ch 1 | Note Off C6 (84) vel 0
68.512s | tick 71033 | track 1 | ch 1 | Note On G5 (79) vel 38
68.512s | tick 71033 | track 1 | ch 1 | Note On G4 (67) vel 30
68.604s | tick 71129 | track 1 | ch 1 | Note Off G4 (67) vel 0
68.604s | tick 71129 | track 1 | ch 1 | Note Off G5 (79) vel 0
68.604s | tick 71129 | track 1 | ch 1 | Note Off C2 (36) vel 0
68.604s | tick 71129 | track 1 | ch 1 | Note Off C3 (48) vel 0
68.604s | tick 71129 | track 1 | ch 1 | Note On C6 (84) vel 38
68.604s | tick 71129 | track 1 | ch 1 | Note On C5 (72) vel 30
68.697s | tick 71225 | track 1 | ch 1 | Note Off C5 (72) vel 0
68.697s | tick 71225 | track 1 | ch 1 | Note Off C6 (84) vel 0
68.697s | tick 71225 | track 1 | ch 1 | Note On D6 (86) vel 38
68.697s | tick 71225 | track 1 | ch 1 | Note On C3 (48) vel 32
68.697s | tick 71225 | track 1 | ch 1 | Note On C2 (36) vel 38
68.697s | tick 71225 | track 1 | ch 1 | Note On D5 (74) vel 30
68.789s | tick 71321 | track 1 | ch 1 | Note Off D5 (74) vel 0
68.789s | tick 71321 | track 1 | ch 1 | Note Off D6 (86) vel 0
68.789s | tick 71321 | track 1 | ch 1 | Note On D#6 (87) vel 38
68.789s | tick 71321 | track 1 | ch 1 | Note On D#5 (75) vel 30
68.882s | tick 71417 | track 1 | ch 1 | Note Off D#5 (75) vel 0
68.882s | tick 71417 | track 1 | ch 1 | Note Off D#6 (87) vel 0
68.882s | tick 71417 | track 1 | ch 1 | Note On D6 (86) vel 38
68.882s | tick 71417 | track 1 | ch 1 | Note On D5 (74) vel 30
68.975s | tick 71513 | track 1 | ch 1 | Note Off D5 (74) vel 0
68.975s | tick 71513 | track 1 | ch 1 | Note Off D6 (86) vel 0
68.975s | tick 71513 | track 1 | ch 1 | Note On A#5 (82) vel 38
68.975s | tick 71513 | track 1 | ch 1 | Note On A#4 (70) vel 30
69.067s | tick 71609 | track 1 | ch 1 | Note Off A#4 (70) vel 0
69.067s | tick 71609 | track 1 | ch 1 | Note Off A#5 (82) vel 0
69.067s | tick 71609 | track 1 | ch 1 | Note On F5 (77) vel 38
69.067s | tick 71609 | track 1 | ch 1 | Note On F4 (65) vel 30
69.160s | tick 71705 | track 1 | ch 1 | Note Off F4 (65) vel 0
69.160s | tick 71705 | track 1 | ch 1 | Note Off F5 (77) vel 0
69.160s | tick 71705 | track 1 | ch 1 | Note Off C2 (36) vel 0
69.160s | tick 71705 | track 1 | ch 1 | Note Off C3 (48) vel 0
69.160s | tick 71705 | track 1 | ch 1 | Note On A#5 (82) vel 38
69.160s | tick 71705 | track 1 | ch 1 | Note On A#4 (70) vel 30
69.252s | tick 71801 | track 1 | ch 1 | Note Off A#4 (70) vel 0
69.252s | tick 71801 | track 1 | ch 1 | Note Off A#5 (82) vel 0
69.252s | tick 71801 | track 1 | ch 1 | Note On C6 (84) vel 38
69.252s | tick 71801 | track 1 | ch 1 | Note On C2 (36) vel 38
69.252s | tick 71801 | track 1 | ch 1 | Note On C3 (48) vel 32
69.252s | tick 71801 | track 1 | ch 1 | Note On C5 (72) vel 30
69.345s | tick 71897 | track 1 | ch 1 | Note Off C5 (72) vel 0
69.345s | tick 71897 | track 1 | ch 1 | Note Off C6 (84) vel 0
69.345s | tick 71897 | track 1 | ch 1 | Note On D6 (86) vel 38
69.345s | tick 71897 | track 1 | ch 1 | Note On D5 (74) vel 30
69.438s | tick 71993 | track 1 | ch 1 | Note Off D5 (74) vel 0
69.438s | tick 71993 | track 1 | ch 1 | Note Off D6 (86) vel 0
69.438s | tick 71993 | track 1 | ch 1 | Note On C6 (84) vel 38
69.438s | tick 71993 | track 1 | ch 1 | Note On C5 (72) vel 30
69.530s | tick 72089 | track 1 | ch 1 | Note Off C5 (72) vel 0
69.530s | tick 72089 | track 1 | ch 1 | Note Off C6 (84) vel 0
69.530s | tick 72089 | track 1 | ch 1 | Note On G#5 (80) vel 38
69.530s | tick 72089 | track 1 | ch 1 | Note On G#4 (68) vel 30
69.623s | tick 72185 | track 1 | ch 1 | Note Off G#4 (68) vel 0
69.623s | tick 72185 | track 1 | ch 1 | Note Off G#5 (80) vel 0
69.623s | tick 72185 | track 1 | ch 1 | Note On D#5 (75) vel 38
69.623s | tick 72185 | track 1 | ch 1 | Note On D#4 (63) vel 30
69.715s | tick 72281 | track 1 | ch 1 | Note Off D#4 (63) vel 0
69.715s | tick 72281 | track 1 | ch 1 | Note Off D#5 (75) vel 0
69.715s | tick 72281 | track 1 | ch 1 | Note Off C3 (48) vel 0
69.715s | tick 72281 | track 1 | ch 1 | Note Off C2 (36) vel 0
69.715s | tick 72281 | track 1 | ch 1 | Note On G#5 (80) vel 38
69.715s | tick 72281 | track 1 | ch 1 | Note On G#4 (68) vel 30
69.808s | tick 72377 | track 1 | ch 1 | Note Off G#4 (68) vel 0
69.808s | tick 72377 | track 1 | ch 1 | Note Off G#5 (80) vel 0
69.808s | tick 72377 | track 1 | ch 1 | Note On A#5 (82) vel 38
69.808s | tick 72377 | track 1 | ch 1 | Note On C3 (48) vel 32
69.808s | tick 72377 | track 1 | ch 1 | Note On C2 (36) vel 38
69.808s | tick 72377 | track 1 | ch 1 | Note On A#4 (70) vel 30
69.901s | tick 72473 | track 1 | ch 1 | Note Off A#4 (70) vel 0
69.901s | tick 72473 | track 1 | ch 1 | Note Off A#5 (82) vel 0
69.901s | tick 72473 | track 1 | ch 1 | Note On C6 (84) vel 38
69.901s | tick 72473 | track 1 | ch 1 | Note On C5 (72) vel 30
69.993s | tick 72569 | track 1 | ch 1 | Note Off C5 (72) vel 0
69.993s | tick 72569 | track 1 | ch 1 | Note Off C6 (84) vel 0
69.993s | tick 72569 | track 1 | ch 1 | Note On A#5 (82) vel 38
69.993s | tick 72569 | track 1 | ch 1 | Note On A#4 (70) vel 30
70.086s | tick 72665 | track 1 | ch 1 | Note Off A#4 (70) vel 0
70.086s | tick 72665 | track 1 | ch 1 | Note Off A#5 (82) vel 0
70.086s | tick 72665 | track 1 | ch 1 | Note On G5 (79) vel 38
70.086s | tick 72665 | track 1 | ch 1 | Note On G4 (67) vel 30
70.178s | tick 72761 | track 1 | ch 1 | Note Off G4 (67) vel 0
70.178s | tick 72761 | track 1 | ch 1 | Note Off G5 (79) vel 0
70.178s | tick 72761 | track 1 | ch 1 | Note On D5 (74) vel 38
70.178s | tick 72761 | track 1 | ch 1 | Note On D4 (62) vel 30
70.271s | tick 72857 | track 1 | ch 1 | Note Off D4 (62) vel 0
70.271s | tick 72857 | track 1 | ch 1 | Note Off D5 (74) vel 0
70.271s | tick 72857 | track 1 | ch 1 | Note Off C2 (36) vel 0
70.271s | tick 72857 | track 1 | ch 1 | Note Off C3 (48) vel 0
70.271s | tick 72857 | track 1 | ch 1 | Note On G5 (79) vel 38
70.271s | tick 72857 | track 1 | ch 1 | Note On G4 (67) vel 30
70.364s | tick 72953 | track 1 | ch 1 | Note Off C3 (48) vel 0
70.364s | tick 72953 | track 1 | ch 1 | Note Off G4 (67) vel 0
70.364s | tick 72953 | track 1 | ch 1 | Note Off G5 (79) vel 0
70.364s | tick 72953 | track 1 | ch 1 | Note On G#5 (80) vel 38
70.364s | tick 72953 | track 1 | ch 1 | Note On C3 (48) vel 33
70.364s | tick 72953 | track 1 | ch 1 | Note On G#4 (68) vel 30
70.456s | tick 73049 | track 1 | ch 1 | Note Off C3 (48) vel 0
70.456s | tick 73049 | track 1 | ch 1 | Note Off G#4 (68) vel 0
70.456s | tick 73049 | track 1 | ch 1 | Note Off G#5 (80) vel 0
70.456s | tick 73049 | track 1 | ch 1 | Note On G5 (79) vel 38
70.456s | tick 73049 | track 1 | ch 1 | Note On C3 (48) vel 33
70.456s | tick 73049 | track 1 | ch 1 | Note On G4 (67) vel 30
70.549s | tick 73145 | track 1 | ch 1 | Note Off C3 (48) vel 0
70.549s | tick 73145 | track 1 | ch 1 | Note Off G4 (67) vel 0
70.549s | tick 73145 | track 1 | ch 1 | Note Off G5 (79) vel 0
70.549s | tick 73145 | track 1 | ch 1 | Note On F5 (77) vel 38
70.549s | tick 73145 | track 1 | ch 1 | Note On C3 (48) vel 33
70.549s | tick 73145 | track 1 | ch 1 | Note On F4 (65) vel 30
70.641s | tick 73241 | track 1 | ch 1 | Note Off C3 (48) vel 0
70.641s | tick 73241 | track 1 | ch 1 | Note Off F4 (65) vel 0
70.641s | tick 73241 | track 1 | ch 1 | Note Off F5 (77) vel 0
70.641s | tick 73241 | track 1 | ch 1 | Note On D#5 (75) vel 38
70.641s | tick 73241 | track 1 | ch 1 | Note On C3 (48) vel 33
70.641s | tick 73241 | track 1 | ch 1 | Note On D#4 (63) vel 30
70.734s | tick 73337 | track 1 | ch 1 | Note Off C3 (48) vel 0
70.734s | tick 73337 | track 1 | ch 1 | Note Off D#4 (63) vel 0
70.734s | tick 73337 | track 1 | ch 1 | Note Off D#5 (75) vel 0
70.734s | tick 73337 | track 1 | ch 1 | Note On G5 (79) vel 38
70.734s | tick 73337 | track 1 | ch 1 | Note On C3 (48) vel 33
70.734s | tick 73337 | track 1 | ch 1 | Note On G4 (67) vel 30
70.827s | tick 73433 | track 1 | ch 1 | Note Off C3 (48) vel 0
70.827s | tick 73433 | track 1 | ch 1 | Note Off G4 (67) vel 0
70.827s | tick 73433 | track 1 | ch 1 | Note Off G5 (79) vel 0
70.827s | tick 73433 | track 1 | ch 1 | Note On F5 (77) vel 38
70.827s | tick 73433 | track 1 | ch 1 | Note On C3 (48) vel 33
70.827s | tick 73433 | track 1 | ch 1 | Note On F4 (65) vel 30
70.919s | tick 73529 | track 1 | ch 1 | Note Off C3 (48) vel 0
70.919s | tick 73529 | track 1 | ch 1 | Note Off F4 (65) vel 0
70.919s | tick 73529 | track 1 | ch 1 | Note Off F5 (77) vel 0
70.919s | tick 73529 | track 1 | ch 1 | Note On D#5 (75) vel 38
70.919s | tick 73529 | track 1 | ch 1 | Note On C3 (48) vel 33
70.919s | tick 73529 | track 1 | ch 1 | Note On D#4 (63) vel 30
71.012s | tick 73625 | track 1 | ch 1 | Note Off C3 (48) vel 0
71.012s | tick 73625 | track 1 | ch 1 | Note Off D#4 (63) vel 0
71.012s | tick 73625 | track 1 | ch 1 | Note Off D#5 (75) vel 0
71.012s | tick 73625 | track 1 | ch 1 | Note On D5 (74) vel 38
71.012s | tick 73625 | track 1 | ch 1 | Note On C3 (48) vel 33
71.012s | tick 73625 | track 1 | ch 1 | Note On D4 (62) vel 30
71.104s | tick 73721 | track 1 | ch 1 | Note Off D4 (62) vel 0
71.104s | tick 73721 | track 1 | ch 1 | Note Off D5 (74) vel 0
71.104s | tick 73721 | track 1 | ch 1 | Note On D5 (74) vel 38
71.104s | tick 73721 | track 1 | ch 1 | Note On G5 (79) vel 38
71.104s | tick 73721 | track 1 | ch 1 | Note On G#1 (32) vel 38
71.197s | tick 73817 | track 1 | ch 1 | Note Off G5 (79) vel 0
71.197s | tick 73817 | track 1 | ch 1 | Note Off D5 (74) vel 0
71.197s | tick 73817 | track 1 | ch 1 | Note On G#4 (68) vel 35
71.289s | tick 73913 | track 1 | ch 1 | Note Off G#4 (68) vel 0
71.289s | tick 73913 | track 1 | ch 1 | Note On D#4 (63) vel 35
71.382s | tick 74009 | track 1 | ch 1 | Note Off D#4 (63) vel 0
71.382s | tick 74009 | track 1 | ch 1 | Note On G#5 (80) vel 38
71.382s | tick 74009 | track 1 | ch 1 | Note On C6 (84) vel 38
71.475s | tick 74105 | track 1 | ch 1 | Note Off C6 (84) vel 0
71.475s | tick 74105 | track 1 | ch 1 | Note Off G#5 (80) vel 0
71.475s | tick 74105 | track 1 | ch 1 | Note Off G#1 (32) vel 0
71.475s | tick 74105 | track 1 | ch 1 | Note On G#1 (32) vel 38
71.475s | tick 74105 | track 1 | ch 1 | Note On G4 (67) vel 35
71.567s | tick 74201 | track 1 | ch 1 | Note Off G4 (67) vel 0
71.567s | tick 74201 | track 1 | ch 1 | Note Off G#1 (32) vel 0
71.567s | tick 74201 | track 1 | ch 1 | Note On D#4 (63) vel 35
71.660s | tick 74297 | track 1 | ch 1 | Note Off D#4 (63) vel 0
71.660s | tick 74297 | track 1 | ch 1 | Note On D#5 (75) vel 38
71.660s | tick 74297 | track 1 | ch 1 | Note On G5 (79) vel 38
71.660s | tick 74297 | track 1 | ch 1 | Note On G#1 (32) vel 38
71.752s | tick 74393 | track 1 | ch 1 | Note Off G5 (79) vel 0
71.752s | tick 74393 | track 1 | ch 1 | Note Off D#5 (75) vel 0
71.752s | tick 74393 | track 1 | ch 1 | Note On G#4 (68) vel 35
71.845s | tick 74489 | track 1 | ch 1 | Note Off G#4 (68) vel 0
71.845s | tick 74489 | track 1 | ch 1 | Note On D#4 (63) vel 35
71.938s | tick 74585 | track 1 | ch 1 | Note Off D#4 (63) vel 0
71.938s | tick 74585 | track 1 | ch 1 | Note On C6 (84) vel 38
71.938s | tick 74585 | track 1 | ch 1 | Note On G#5 (80) vel 38
72.030s | tick 74681 | track 1 | ch 1 | Note Off G#5 (80) vel 0
72.030s | tick 74681 | track 1 | ch 1 | Note Off C6 (84) vel 0
72.030s | tick 74681 | track 1 | ch 1 | Note On G#4 (68) vel 35
72.123s | tick 74777 | track 1 | ch 1 | Note Off G#4 (68) vel 0
72.123s | tick 74777 | track 1 | ch 1 | Note On G4 (67) vel 35
72.215s | tick 74873 | track 1 | ch 1 | Note Off G4 (67) vel 0
72.215s | tick 74873 | track 1 | ch 1 | Note Off G#1 (32) vel 0
72.215s | tick 74873 | track 1 | ch 1 | Note On D5 (74) vel 38
72.215s | tick 74873 | track 1 | ch 1 | Note On F5 (77) vel 38
72.215s | tick 74873 | track 1 | ch 1 | Note On A#1 (34) vel 38
72.308s | tick 74969 | track 1 | ch 1 | Note Off F5 (77) vel 0
72.308s | tick 74969 | track 1 | ch 1 | Note Off D5 (74) vel 0
72.308s | tick 74969 | track 1 | ch 1 | Note On D5 (74) vel 35
72.401s | tick 75065 | track 1 | ch 1 | Note Off D5 (74) vel 0
72.401s | tick 75065 | track 1 | ch 1 | Note On A#4 (70) vel 35
72.493s | tick 75161 | track 1 | ch 1 | Note Off A#4 (70) vel 0
72.493s | tick 75161 | track 1 | ch 1 | Note On D6 (86) vel 38
72.493s | tick 75161 | track 1 | ch 1 | Note On A#5 (82) vel 38
72.586s | tick 75257 | track 1 | ch 1 | Note Off A#5 (82) vel 0
72.586s | tick 75257 | track 1 | ch 1 | Note Off D6 (86) vel 0
72.586s | tick 75257 | track 1 | ch 1 | Note Off A#1 (34) vel 0
72.586s | tick 75257 | track 1 | ch 1 | Note On A#1 (34) vel 38
72.586s | tick 75257 | track 1 | ch 1 | Note On A#4 (70) vel 35
72.678s | tick 75353 | track 1 | ch 1 | Note Off A#4 (70) vel 0
72.678s | tick 75353 | track 1 | ch 1 | Note Off A#1 (34) vel 0
72.678s | tick 75353 | track 1 | ch 1 | Note On F4 (65) vel 35
72.771s | tick 75449 | track 1 | ch 1 | Note Off F4 (65) vel 0
72.771s | tick 75449 | track 1 | ch 1 | Note On C6 (84) vel 38
72.771s | tick 75449 | track 1 | ch 1 | Note On D#6 (87) vel 38
72.771s | tick 75449 | track 1 | ch 1 | Note On A#1 (34) vel 38
72.864s | tick 75545 | track 1 | ch 1 | Note Off D#6 (87) vel 0
72.864s | tick 75545 | track 1 | ch 1 | Note Off C6 (84) vel 0
72.864s | tick 75545 | track 1 | ch 1 | Note On A#4 (70) vel 35
72.956s | tick 75641 | track 1 | ch 1 | Note Off A#4 (70) vel 0
72.956s | tick 75641 | track 1 | ch 1 | Note On F4 (65) vel 35
73.049s | tick 75737 | track 1 | ch 1 | Note Off F4 (65) vel 0
73.049s | tick 75737 | track 1 | ch 1 | Note On F6 (89) vel 38
73.049s | tick 75737 | track 1 | ch 1 | Note On D6 (86) vel 38
73.141s | tick 75833 | track 1 | ch 1 | Note Off D6 (86) vel 0
73.141s | tick 75833 | track 1 | ch 1 | Note Off F6 (89) vel 0
73.141s | tick 75833 | track 1 | ch 1 | Note Off A#1 (34) vel 0
73.141s | tick 75833 | track 1 | ch 1 | Note On A#1 (34) vel 38
73.141s | tick 75833 | track 1 | ch 1 | Note On A#4 (70) vel 35
73.234s | tick 75929 | track 1 | ch 1 | Note Off A#4 (70) vel 0
73.234s | tick 75929 | track 1 | ch 1 | Note On G#4 (68) vel 35
73.327s | tick 76025 | track 1 | ch 1 | Note Off G#4 (68) vel 0
73.327s | tick 76025 | track 1 | ch 1 | Note On F4 (65) vel 35
73.419s | tick 76121 | track 1 | ch 1 | Note Off F4 (65) vel 0
73.419s | tick 76121 | track 1 | ch 1 | Note On A#4 (70) vel 35
73.512s | tick 76217 | track 1 | ch 1 | Note Off A#4 (70) vel 0
73.512s | tick 76217 | track 1 | ch 1 | Note On D5 (74) vel 35
73.604s | tick 76313 | track 1 | ch 1 | Note Off D5 (74) vel 0
73.604s | tick 76313 | track 1 | ch 1 | Note On F5 (77) vel 35
73.697s | tick 76409 | track 1 | ch 1 | Note Off F5 (77) vel 0
73.697s | tick 76409 | track 1 | ch 1 | Note On A#5 (82) vel 35
73.789s | tick 76505 | track 1 | ch 1 | Note Off A#5 (82) vel 0
73.789s | tick 76505 | track 1 | ch 1 | Note On D6 (86) vel 35
73.789s | tick 76505 | track 1 | ch 1 | Note On D6 (86) vel 22
73.882s | tick 76601 | track 1 | ch 1 | Note Off D6 (86) vel 0
73.882s | tick 76601 | track 1 | ch 1 | Note Off D6 (86) vel 0
73.882s | tick 76601 | track 1 | ch 1 | Note On F6 (89) vel 35
73.882s | tick 76601 | track 1 | ch 1 | Note On F6 (89) vel 22
73.975s | tick 76697 | track 1 | ch 1 | Note Off F6 (89) vel 0
73.975s | tick 76697 | track 1 | ch 1 | Note Off F6 (89) vel 0
73.975s | tick 76697 | track 1 | ch 1 | Note On A#6 (94) vel 22
73.975s | tick 76697 | track 1 | ch 1 | Note On A#6 (94) vel 35
74.067s | tick 76793 | track 1 | ch 1 | Note Off A#6 (94) vel 0
74.067s | tick 76793 | track 1 | ch 1 | Note Off A#6 (94) vel 0
74.067s | tick 76793 | track 1 | ch 1 | Note Off A#1 (34) vel 0
74.067s | tick 76793 | track 1 | ch 1 | Note On G5 (79) vel 35
74.067s | tick 76793 | track 1 | ch 1 | Note On C2 (36) vel 38
74.067s | tick 76793 | track 1 | ch 1 | Note On C4 (60) vel 27
74.067s | tick 76793 | track 1 | ch 1 | Note On D#4 (63) vel 27
74.067s | tick 76793 | track 1 | ch 1 | Note On G4 (67) vel 27
74.067s | tick 76793 | track 1 | ch 1 | Note On C5 (72) vel 27
74.160s | tick 76889 | track 1 | ch 1 | Note Off G5 (79) vel 0
74.160s | tick 76889 | track 1 | ch 1 | Note On D#5 (75) vel 35
74.252s | tick 76985 | track 1 | ch 1 | Note Off D#5 (75) vel 0
74.252s | tick 76985 | track 1 | ch 1 | Note On C5 (72) vel 35
74.252s | tick 76985 | track 1 | ch 1 | Note On C3 (48) vel 29
74.345s | tick 77081 | track 1 | ch 1 | Note Off C5 (72) vel 0
74.345s | tick 77081 | track 1 | ch 1 | Note On D#5 (75) vel 35
74.438s | tick 77177 | track 1 | ch 1 | Note Off D#5 (75) vel 0
74.438s | tick 77177 | track 1 | ch 1 | Note Off C3 (48) vel 0
74.438s | tick 77177 | track 1 | ch 1 | Note On G4 (67) vel 35
74.530s | tick 77273 | track 1 | ch 1 | Note Off G4 (67) vel 0
74.530s | tick 77273 | track 1 | ch 1 | Note On C5 (72) vel 35
74.623s | tick 77369 | track 1 | ch 1 | Note Off C5 (72) vel 0
74.623s | tick 77369 | track 1 | ch 1 | Note On D#4 (63) vel 35
74.623s | tick 77369 | track 1 | ch 1 | Note On C3 (48) vel 29
74.715s | tick 77465 | track 1 | ch 1 | Note Off D#4 (63) vel 0
74.715s | tick 77465 | track 1 | ch 1 | Note On G4 (67) vel 35
74.808s | tick 77561 | track 1 | ch 1 | Note Off G4 (67) vel 0
74.808s | tick 77561 | track 1 | ch 1 | Note Off C3 (48) vel 0
74.808s | tick 77561 | track 1 | ch 1 | Note On C4 (60) vel 35
74.901s | tick 77657 | track 1 | ch 1 | Note Off C4 (60) vel 0
74.901s | tick 77657 | track 1 | ch 1 | Note On G4 (67) vel 35
74.993s | tick 77753 | track 1 | ch 1 | Note Off G4 (67) vel 0
74.993s | tick 77753 | track 1 | ch 1 | Note On D#4 (63) vel 35
74.993s | tick 77753 | track 1 | ch 1 | Note On C3 (48) vel 29
75.086s | tick 77849 | track 1 | ch 1 | Note Off D#4 (63) vel 0
75.086s | tick 77849 | track 1 | ch 1 | Note On G4 (67) vel 35
75.178s | tick 77945 | track 1 | ch 1 | Note Off G4 (67) vel 0
75.178s | tick 77945 | track 1 | ch 1 | Note Off C3 (48) vel 0
75.178s | tick 77945 | track 1 | ch 1 | Note On C5 (72) vel 35
75.271s | tick 78041 | track 1 | ch 1 | Note Off C5 (72) vel 0
75.271s | tick 78041 | track 1 | ch 1 | Note On G5 (79) vel 35
75.364s | tick 78137 | track 1 | ch 1 | Note Off G5 (79) vel 0
75.364s | tick 78137 | track 1 | ch 1 | Note On F5 (77) vel 35
75.364s | tick 78137 | track 1 | ch 1 | Note On C3 (48) vel 29
75.456s | tick 78233 | track 1 | ch 1 | Note Off F5 (77) vel 0
75.456s | tick 78233 | track 1 | ch 1 | Note On D#5 (75) vel 35
75.549s | tick 78329 | track 1 | ch 1 | Note Off D#5 (75) vel 0
75.549s | tick 78329 | track 1 | ch 1 | Note Off C3 (48) vel 0
75.549s | tick 78329 | track 1 | ch 1 | Note Off C5 (72) vel 0
75.549s | tick 78329 | track 1 | ch 1 | Note Off G4 (67) vel 0
75.549s | tick 78329 | track 1 | ch 1 | Note Off D#4 (63) vel 0
75.549s | tick 78329 | track 1 | ch 1 | Note Off C4 (60) vel 0
75.549s | tick 78329 | track 1 | ch 1 | Note Off C2 (36) vel 0
75.549s | tick 78329 | track 1 | ch 1 | Note On G5 (79) vel 35
75.549s | tick 78329 | track 1 | ch 1 | Note On C2 (36) vel 38
75.549s | tick 78329 | track 1 | ch 1 | Note On C5 (72) vel 27
75.549s | tick 78329 | track 1 | ch 1 | Note On C4 (60) vel 27
75.549s | tick 78329 | track 1 | ch 1 | Note On D#4 (63) vel 27
75.549s | tick 78329 | track 1 | ch 1 | Note On G4 (67) vel 27
75.641s | tick 78425 | track 1 | ch 1 | Note Off G5 (79) vel 0
75.641s | tick 78425 | track 1 | ch 1 | Note On D#5 (75) vel 35
75.734s | tick 78521 | track 1 | ch 1 | Note Off D#5 (75) vel 0
75.734s | tick 78521 | track 1 | ch 1 | Note On C5 (72) vel 35
75.734s | tick 78521 | track 1 | ch 1 | Note On C3 (48) vel 29
75.827s | tick 78617 | track 1 | ch 1 | Note Off C5 (72) vel 0
75.827s | tick 78617 | track 1 | ch 1 | Note On D#5 (75) vel 35
75.919s | tick 78713 | track 1 | ch 1 | Note Off D#5 (75) vel 0
75.919s | tick 78713 | track 1 | ch 1 | Note Off C3 (48) vel 0
75.919s | tick 78713 | track 1 | ch 1 | Note On G4 (67) vel 35
76.012s | tick 78809 | track 1 | ch 1 | Note Off G4 (67) vel 0
76.012s | tick 78809 | track 1 | ch 1 | Note On C5 (72) vel 35
76.104s | tick 78905 | track 1 | ch 1 | Note Off C5 (72) vel 0
76.104s | tick 78905 | track 1 | ch 1 | Note On D#4 (63) vel 35
76.104s | tick 78905 | track 1 | ch 1 | Note On C3 (48) vel 29
76.197s | tick 79001 | track 1 | ch 1 | Note Off D#4 (63) vel 0
76.197s | tick 79001 | track 1 | ch 1 | Note On G4 (67) vel 35
76.289s | tick 79097 | track 1 | ch 1 | Note Off G4 (67) vel 0
76.289s | tick 79097 | track 1 | ch 1 | Note Off C3 (48) vel 0
76.289s | tick 79097 | track 1 | ch 1 | Note On C4 (60) vel 35
76.382s | tick 79193 | track 1 | ch 1 | Note Off C4 (60) vel 0
76.382s | tick 79193 | track 1 | ch 1 | Note On G4 (67) vel 35
76.475s | tick 79289 | track 1 | ch 1 | Note Off G4 (67) vel 0
76.475s | tick 79289 | track 1 | ch 1 | Note On D#4 (63) vel 35
76.475s | tick 79289 | track 1 | ch 1 | Note On C3 (48) vel 29
76.567s | tick 79385 | track 1 | ch 1 | Note Off D#4 (63) vel 0
76.567s | tick 79385 | track 1 | ch 1 | Note On G4 (67) vel 35
76.660s | tick 79481 | track 1 | ch 1 | Note Off G4 (67) vel 0
76.660s | tick 79481 | track 1 | ch 1 | Note Off C3 (48) vel 0
76.660s | tick 79481 | track 1 | ch 1 | Note Off C2 (36) vel 0
76.660s | tick 79481 | track 1 | ch 1 | Note On C5 (72) vel 35
76.660s | tick 79481 | track 1 | ch 1 | Note On G2 (43) vel 33
76.752s | tick 79577 | track 1 | ch 1 | Note Off C5 (72) vel 0
76.752s | tick 79577 | track 1 | ch 1 | Note On G5 (79) vel 35
76.845s | tick 79673 | track 1 | ch 1 | Note Off G5 (79) vel 0
76.845s | tick 79673 | track 1 | ch 1 | Note On F5 (77) vel 35
76.938s | tick 79769 | track 1 | ch 1 | Note Off F5 (77) vel 0
76.938s | tick 79769 | track 1 | ch 1 | Note On D#5 (75) vel 35
77.030s | tick 79865 | track 1 | ch 1 | Note Off D#5 (75) vel 0
77.030s | tick 79865 | track 1 | ch 1 | Note Off G2 (43) vel 0
77.030s | tick 79865 | track 1 | ch 1 | Note Off G4 (67) vel 0
77.030s | tick 79865 | track 1 | ch 1 | Note Off D#4 (63) vel 0
77.030s | tick 79865 | track 1 | ch 1 | Note Off C4 (60) vel 0
77.030s | tick 79865 | track 1 | ch 1 | Note Off C5 (72) vel 0
77.030s | tick 79865 | track 1 | ch 1 | Note On F#5 (78) vel 35
77.030s | tick 79865 | track 1 | ch 1 | Note On C#4 (61) vel 27
77.030s | tick 79865 | track 1 | ch 1 | Note On F#4 (66) vel 27
77.030s | tick 79865 | track 1 | ch 1 | Note On A#4 (70) vel 27
77.030s | tick 79865 | track 1 | ch 1 | Note On C#5 (73) vel 27
77.123s | tick 79961 | track 1 | ch 1 | Note Off F#5 (78) vel 0
77.123s | tick 79961 | track 1 | ch 1 | Note On C#5 (73) vel 35
77.215s | tick 80057 | track 1 | ch 1 | Note Off C#5 (73) vel 0
77.215s | tick 80057 | track 1 | ch 1 | Note On C5 (72) vel 35
77.215s | tick 80057 | track 1 | ch 1 | Note On F#2 (42) vel 29
77.308s | tick 80153 | track 1 | ch 1 | Note Off C5 (72) vel 0
77.308s | tick 80153 | track 1 | ch 1 | Note On C#5 (73) vel 35
77.401s | tick 80249 | track 1 | ch 1 | Note Off C#5 (73) vel 0
77.401s | tick 80249 | track 1 | ch 1 | Note Off F#2 (42) vel 0
77.401s | tick 80249 | track 1 | ch 1 | Note On A#4 (70) vel 35
77.493s | tick 80345 | track 1 | ch 1 | Note Off A#4 (70) vel 0
77.493s | tick 80345 | track 1 | ch 1 | Note On C#5 (73) vel 35
77.586s | tick 80441 | track 1 | ch 1 | Note Off C#5 (73) vel 0
77.586s | tick 80441 | track 1 | ch 1 | Note On F#4 (66) vel 35
77.586s | tick 80441 | track 1 | ch 1 | Note On F#2 (42) vel 29
77.678s | tick 80537 | track 1 | ch 1 | Note Off F#4 (66) vel 0
77.678s | tick 80537 | track 1 | ch 1 | Note On C#5 (73) vel 35
77.771s | tick 80633 | track 1 | ch 1 | Note Off C#5 (73) vel 0
77.771s | tick 80633 | track 1 | ch 1 | Note Off F#2 (42) vel 0
77.771s | tick 80633 | track 1 | ch 1 | Note On C#4 (61) vel 35
77.864s | tick 80729 | track 1 | ch 1 | Note Off C#4 (61) vel 0
77.864s | tick 80729 | track 1 | ch 1 | Note On C#5 (73) vel 35
77.956s | tick 80825 | track 1 | ch 1 | Note Off C#5 (73) vel 0
77.956s | tick 80825 | track 1 | ch 1 | Note On C5 (72) vel 35
77.956s | tick 80825 | track 1 | ch 1 | Note On F#2 (42) vel 29
78.049s | tick 80921 | track 1 | ch 1 | Note Off C5 (72) vel 0
78.049s | tick 80921 | track 1 | ch 1 | Note On A#4 (70) vel 35
78.141s | tick 81017 | track 1 | ch 1 | Note Off A#4 (70) vel 0
78.141s | tick 81017 | track 1 | ch 1 | Note Off F#2 (42) vel 0
78.141s | tick 81017 | track 1 | ch 1 | Note On F#4 (66) vel 35
78.234s | tick 81113 | track 1 | ch 1 | Note Off F#4 (66) vel 0
78.234s | tick 81113 | track 1 | ch 1 | Note On A#4 (70) vel 35
78.327s | tick 81209 | track 1 | ch 1 | Note Off A#4 (70) vel 0
78.327s | tick 81209 | track 1 | ch 1 | Note On C#5 (73) vel 35
78.327s | tick 81209 | track 1 | ch 1 | Note On F#2 (42) vel 29
78.419s | tick 81305 | track 1 | ch 1 | Note Off C#5 (73) vel 0
78.419s | tick 81305 | track 1 | ch 1 | Note On F5 (77) vel 35
78.512s | tick 81401 | track 1 | ch 1 | Note Off F5 (77) vel 0
78.512s | tick 81401 | track 1 | ch 1 | Note Off F#2 (42) vel 0
78.512s | tick 81401 | track 1 | ch 1 | Note Off C#5 (73) vel 0
78.512s | tick 81401 | track 1 | ch 1 | Note Off A#4 (70) vel 0
78.512s | tick 81401 | track 1 | ch 1 | Note Off F#4 (66) vel 0
78.512s | tick 81401 | track 1 | ch 1 | Note Off C#4 (61) vel 0
78.512s | tick 81401 | track 1 | ch 1 | Note On F#5 (78) vel 35
78.512s | tick 81401 | track 1 | ch 1 | Note On C#4 (61) vel 27
78.512s | tick 81401 | track 1 | ch 1 | Note On F#4 (66) vel 27
78.512s | tick 81401 | track 1 | ch 1 | Note On A#4 (70) vel 27
78.512s | tick 81401 | track 1 | ch 1 | Note On C#5 (73) vel 27
78.604s | tick 81497 | track 1 | ch 1 | Note Off F#5 (78) vel 0
78.604s | tick 81497 | track 1 | ch 1 | Note On C#5 (73) vel 35
78.697s | tick 81593 | track 1 | ch 1 | Note Off C#5 (73) vel 0
78.697s | tick 81593 | track 1 | ch 1 | Note On C5 (72) vel 35
78.697s | tick 81593 | track 1 | ch 1 | Note On F#2 (42) vel 29
78.789s | tick 81689 | track 1 | ch 1 | Note Off C5 (72) vel 0
78.789s | tick 81689 | track 1 | ch 1 | Note On C#5 (73) vel 35
78.882s | tick 81785 | track 1 | ch 1 | Note Off C#5 (73) vel 0
78.882s | tick 81785 | track 1 | ch 1 | Note Off F#2 (42) vel 0
78.882s | tick 81785 | track 1 | ch 1 | Note On A#4 (70) vel 35
78.975s | tick 81881 | track 1 | ch 1 | Note Off A#4 (70) vel 0
78.975s | tick 81881 | track 1 | ch 1 | Note On C#5 (73) vel 35
79.067s | tick 81977 | track 1 | ch 1 | Note Off C#5 (73) vel 0
79.067s | tick 81977 | track 1 | ch 1 | Note On F#4 (66) vel 35
79.067s | tick 81977 | track 1 | ch 1 | Note On F#2 (42) vel 29
79.160s | tick 82073 | track 1 | ch 1 | Note Off F#4 (66) vel 0
79.160s | tick 82073 | track 1 | ch 1 | Note On C#5 (73) vel 35
79.252s | tick 82169 | track 1 | ch 1 | Note Off C#5 (73) vel 0
79.252s | tick 82169 | track 1 | ch 1 | Note Off F#2 (42) vel 0
79.252s | tick 82169 | track 1 | ch 1 | Note On C#4 (61) vel 35
79.345s | tick 82265 | track 1 | ch 1 | Note Off C#4 (61) vel 0
79.345s | tick 82265 | track 1 | ch 1 | Note On C#5 (73) vel 35
79.438s | tick 82361 | track 1 | ch 1 | Note Off C#5 (73) vel 0
79.438s | tick 82361 | track 1 | ch 1 | Note On C5 (72) vel 35
79.438s | tick 82361 | track 1 | ch 1 | Note On F#2 (42) vel 29
79.530s | tick 82457 | track 1 | ch 1 | Note Off C5 (72) vel 0
79.530s | tick 82457 | track 1 | ch 1 | Note On C#5 (73) vel 35
79.623s | tick 82553 | track 1 | ch 1 | Note Off C#5 (73) vel 0
79.623s | tick 82553 | track 1 | ch 1 | Note Off F#2 (42) vel 0
79.623s | tick 82553 | track 1 | ch 1 | Note On F#5 (78) vel 35
79.715s | tick 82649 | track 1 | ch 1 | Note Off F#5 (78) vel 0
79.715s | tick 82649 | track 1 | ch 1 | Note On A#5 (82) vel 35
79.808s | tick 82745 | track 1 | ch 1 | Note Off A#5 (82) vel 0
79.808s | tick 82745 | track 1 | ch 1 | Note On C6 (84) vel 35
79.808s | tick 82745 | track 1 | ch 1 | Note On F#2 (42) vel 29
79.901s | tick 82841 | track 1 | ch 1 | Note Off C6 (84) vel 0
79.901s | tick 82841 | track 1 | ch 1 | Note On C#6 (85) vel 35
79.993s | tick 82937 | track 1 | ch 1 | Note Off C#6 (85) vel 0
79.993s | tick 82937 | track 1 | ch 1 | Note Off F#2 (42) vel 0
79.993s | tick 82937 | track 1 | ch 1 | Note Off C#5 (73) vel 0
79.993s | tick 82937 | track 1 | ch 1 | Note Off A#4 (70) vel 0
79.993s | tick 82937 | track 1 | ch 1 | Note Off F#4 (66) vel 0
79.993s | tick 82937 | track 1 | ch 1 | Note Off C#4 (61) vel 0
79.993s | tick 82937 | track 1 | ch 1 | Note On G5 (79) vel 35
79.993s | tick 82937 | track 1 | ch 1 | Note On C4 (60) vel 27
79.993s | tick 82937 | track 1 | ch 1 | Note On D#4 (63) vel 27
79.993s | tick 82937 | track 1 | ch 1 | Note On G4 (67) vel 27
79.993s | tick 82937 | track 1 | ch 1 | Note On C5 (72) vel 27
80.086s | tick 83033 | track 1 | ch 1 | Note Off G5 (79) vel 0
80.086s | tick 83033 | track 1 | ch 1 | Note On D#5 (75) vel 34
80.178s | tick 83129 | track 1 | ch 1 | Note Off D#5 (75) vel 0
80.178s | tick 83129 | track 1 | ch 1 | Note On C5 (72) vel 33
80.178s | tick 83129 | track 1 | ch 1 | Note On C2 (36) vel 29
80.271s | tick 83225 | track 1 | ch 1 | Note Off C5 (72) vel 0
80.271s | tick 83225 | track 1 | ch 1 | Note On D#5 (75) vel 32
80.364s | tick 83321 | track 1 | ch 1 | Note Off D#5 (75) vel 0
80.364s | tick 83321 | track 1 | ch 1 | Note Off C2 (36) vel 0
80.364s | tick 83321 | track 1 | ch 1 | Note On G4 (67) vel 31
80.456s | tick 83417 | track 1 | ch 1 | Note Off G4 (67) vel 0
80.456s | tick 83417 | track 1 | ch 1 | Note On C5 (72) vel 31
80.549s | tick 83513 | track 1 | ch 1 | Note Off C5 (72) vel 0
80.549s | tick 83513 | track 1 | ch 1 | Note On D#4 (63) vel 30
80.549s | tick 83513 | track 1 | ch 1 | Note On C2 (36) vel 29
80.641s | tick 83609 | track 1 | ch 1 | Note Off D#4 (63) vel 0
80.641s | tick 83609 | track 1 | ch 1 | Note On G4 (67) vel 30
80.734s | tick 83705 | track 1 | ch 1 | Note Off G4 (67) vel 0
80.734s | tick 83705 | track 1 | ch 1 | Note Off C2 (36) vel 0
80.734s | tick 83705 | track 1 | ch 1 | Note On C4 (60) vel 30
80.827s | tick 83801 | track 1 | ch 1 | Note Off C4 (60) vel 0
80.827s | tick 83801 | track 1 | ch 1 | Note On G4 (67) vel 29
80.919s | tick 83897 | track 1 | ch 1 | Note Off G4 (67) vel 0
80.919s | tick 83897 | track 1 | ch 1 | Note On D#4 (63) vel 29
80.919s | tick 83897 | track 1 | ch 1 | Note On C2 (36) vel 29
81.012s | tick 83993 | track 1 | ch 1 | Note Off D#4 (63) vel 0
81.012s | tick 83993 | track 1 | ch 1 | Note On G4 (67) vel 29
81.104s | tick 84089 | track 1 | ch 1 | Note Off G4 (67) vel 0
81.104s | tick 84089 | track 1 | ch 1 | Note Off C2 (36) vel 0
81.104s | tick 84089 | track 1 | ch 1 | Note On C5 (72) vel 29
81.197s | tick 84185 | track 1 | ch 1 | Note Off C5 (72) vel 0
81.197s | tick 84185 | track 1 | ch 1 | Note On G5 (79) vel 29
81.289s | tick 84281 | track 1 | ch 1 | Note Off G5 (79) vel 0
81.289s | tick 84281 | track 1 | ch 1 | Note On F5 (77) vel 29
81.289s | tick 84281 | track 1 | ch 1 | Note On C2 (36) vel 29
81.382s | tick 84377 | track 1 | ch 1 | Note Off F5 (77) vel 0
81.382s | tick 84377 | track 1 | ch 1 | Note On D#5 (75) vel 29
81.475s | tick 84473 | track 1 | ch 1 | Note Off D#5 (75) vel 0
81.475s | tick 84473 | track 1 | ch 1 | Note Off C2 (36) vel 0
81.475s | tick 84473 | track 1 | ch 1 | Note Off C5 (72) vel 0
81.475s | tick 84473 | track 1 | ch 1 | Note Off G4 (67) vel 0
81.475s | tick 84473 | track 1 | ch 1 | Note Off D#4 (63) vel 0
81.475s | tick 84473 | track 1 | ch 1 | Note Off C4 (60) vel 0
81.475s | tick 84473 | track 1 | ch 1 | Note On G5 (79) vel 28
81.475s | tick 84473 | track 1 | ch 1 | Note On C5 (72) vel 27
81.475s | tick 84473 | track 1 | ch 1 | Note On C4 (60) vel 27
81.475s | tick 84473 | track 1 | ch 1 | Note On D#4 (63) vel 27
81.475s | tick 84473 | track 1 | ch 1 | Note On G4 (67) vel 27
81.567s | tick 84569 | track 1 | ch 1 | Note Off G5 (79) vel 0
81.567s | tick 84569 | track 1 | ch 1 | Note On D#5 (75) vel 27
81.660s | tick 84665 | track 1 | ch 1 | Note Off D#5 (75) vel 0
81.660s | tick 84665 | track 1 | ch 1 | Note On C5 (72) vel 27
81.660s | tick 84665 | track 1 | ch 1 | Note On C2 (36) vel 29
81.752s | tick 84761 | track 1 | ch 1 | Note Off C5 (72) vel 0
81.752s | tick 84761 | track 1 | ch 1 | Note On D#5 (75) vel 26
81.845s | tick 84857 | track 1 | ch 1 | Note Off D#5 (75) vel 0
81.845s | tick 84857 | track 1 | ch 1 | Note Off C2 (36) vel 0
81.845s | tick 84857 | track 1 | ch 1 | Note On G4 (67) vel 25
81.938s | tick 84953 | track 1 | ch 1 | Note Off G4 (67) vel 0
81.938s | tick 84953 | track 1 | ch 1 | Note On C5 (72) vel 25
82.030s | tick 85049 | track 1 | ch 1 | Note Off C5 (72) vel 0
82.030s | tick 85049 | track 1 | ch 1 | Note On D#4 (63) vel 24
82.030s | tick 85049 | track 1 | ch 1 | Note On C2 (36) vel 29
82.123s | tick 85145 | track 1 | ch 1 | Note Off D#4 (63) vel 0
82.123s | tick 85145 | track 1 | ch 1 | Note On G4 (67) vel 24
82.215s | tick 85241 | track 1 | ch 1 | Note Off G2 (43) vel 0
82.215s | tick 85241 | track 1 | ch 1 | Note Off G4 (67) vel 0
82.215s | tick 85241 | track 1 | ch 1 | Note Off C2 (36) vel 0
82.215s | tick 85241 | track 1 | ch 1 | Note On C4 (60) vel 23
82.215s | tick 85241 | track 1 | ch 1 | Note On G2 (43) vel 32
82.308s | tick 85337 | track 1 | ch 1 | Note Off G2 (43) vel 0
82.308s | tick 85337 | track 1 | ch 1 | Note Off C4 (60) vel 0
82.308s | tick 85337 | track 1 | ch 1 | Note On G4 (67) vel 22
82.308s | tick 85337 | track 1 | ch 1 | Note On G2 (43) vel 32
82.401s | tick 85433 | track 1 | ch 1 | Note Off G2 (43) vel 0
82.401s | tick 85433 | track 1 | ch 1 | Note Off G4 (67) vel 0
82.401s | tick 85433 | track 1 | ch 1 | Note On D#4 (63) vel 22
82.401s | tick 85433 | track 1 | ch 1 | Note On G2 (43) vel 32
82.401s | tick 85433 | track 1 | ch 1 | Note On A4 (69) vel 35
82.493s | tick 85529 | track 1 | ch 1 | Note Off G2 (43) vel 0
82.493s | tick 85529 | track 1 | ch 1 | Note Off D#4 (63) vel 0
82.493s | tick 85529 | track 1 | ch 1 | Note On G4 (67) vel 20
82.493s | tick 85529 | track 1 | ch 1 | Note On G2 (43) vel 32
82.586s | tick 85625 | track 1 | ch 1 | Note Off G2 (43) vel 0
82.586s | tick 85625 | track 1 | ch 1 | Note Off G4 (67) vel 0
82.586s | tick 85625 | track 1 | ch 1 | Note On C5 (72) vel 20
82.586s | tick 85625 | track 1 | ch 1 | Note On G2 (43) vel 32
82.678s | tick 85721 | track 1 | ch 1 | Note Off G2 (43) vel 0
82.678s | tick 85721 | track 1 | ch 1 | Note Off C5 (72) vel 0
82.678s | tick 85721 | track 1 | ch 1 | Note On G5 (79) vel 19
82.678s | tick 85721 | track 1 | ch 1 | Note On G2 (43) vel 32
82.771s | tick 85817 | track 1 | ch 1 | Note Off G2 (43) vel 0
82.771s | tick 85817 | track 1 | ch 1 | Note Off G5 (79) vel 0
82.771s | tick 85817 | track 1 | ch 1 | Note Off A4 (69) vel 0
82.771s | tick 85817 | track 1 | ch 1 | Note On F5 (77) vel 18
82.771s | tick 85817 | track 1 | ch 1 | Note On G2 (43) vel 32
82.771s | tick 85817 | track 1 | ch 1 | Note On A#4 (70) vel 35
82.864s | tick 85913 | track 1 | ch 1 | Note Off G2 (43) vel 0
82.864s | tick 85913 | track 1 | ch 1 | Note Off F5 (77) vel 0
82.864s | tick 85913 | track 1 | ch 1 | Note On D#5 (75) vel 13
82.864s | tick 85913 | track 1 | ch 1 | Note On G2 (43) vel 32
82.956s | tick 86009 | track 1 | ch 1 | Note Off D#5 (75) vel 0
82.956s | tick 86009 | track 1 | ch 1 | Note Off A#4 (70) vel 0
82.956s | tick 86009 | track 1 | ch 1 | Note Off G4 (67) vel 0
82.956s | tick 86009 | track 1 | ch 1 | Note Off D#4 (63) vel 0
82.956s | tick 86009 | track 1 | ch 1 | Note Off C4 (60) vel 0
82.956s | tick 86009 | track 1 | ch 1 | Note Off C5 (72) vel 0
82.956s | tick 86009 | track 1 | ch 1 | Note On F#5 (78) vel 9
82.956s | tick 86009 | track 1 | ch 1 | Note On F#1 (30) vel 33
82.956s | tick 86009 | track 1 | ch 1 | Note On F#2 (42) vel 40
82.956s | tick 86009 | track 1 | ch 1 | Note On C5 (72) vel 36
82.956s | tick 86009 | track 1 | ch 1 | Note On G#4 (68) vel 36
82.956s | tick 86009 | track 1 | ch 1 | Note On C4 (60) vel 31
82.956s | tick 86009 | track 1 | ch 1 | Note On F#4 (66) vel 31
83.049s | tick 86105 | track 1 | ch 1 | Note Off F#5 (78) vel 0
83.419s | tick 86489 | track 1 | ch 1 | Note Off F#2 (42) vel 0
83.419s | tick 86489 | track 1 | ch 1 | Note Off F#1 (30) vel 0
83.512s | tick 86585 | track 1 | ch 1 | Note On F#1 (30) vel 33
83.512s | tick 86585 | track 1 | ch 1 | Note On F#2 (42) vel 40
83.975s | tick 87065 | track 1 | ch 1 | Note Off F#2 (42) vel 0
83.975s | tick 87065 | track 1 | ch 1 | Note Off F#1 (30) vel 0
84.067s | tick 87161 | track 1 | ch 1 | Note On F#1 (30) vel 32
84.067s | tick 87161 | track 1 | ch 1 | Note On F#2 (42) vel 40
84.345s | tick 87449 | track 1 | ch 1 | Note Off F#2 (42) vel 0
84.345s | tick 87449 | track 1 | ch 1 | Note Off F#1 (30) vel 0
84.438s | tick 87545 | track 1 | ch 1 | Note Off F#4 (66) vel 0
84.438s | tick 87545 | track 1 | ch 1 | Note Off C4 (60) vel 0
84.438s | tick 87545 | track 1 | ch 1 | Note Off G#4 (68) vel 0
84.438s | tick 87545 | track 1 | ch 1 | Note Off C5 (72) vel 0
84.438s | tick 87545 | track 1 | ch 1 | Note On F#1 (30) vel 33
84.438s | tick 87545 | track 1 | ch 1 | Note On F#2 (42) vel 40
84.438s | tick 87545 | track 1 | ch 1 | Note On A#4 (70) vel 38
84.438s | tick 87545 | track 1 | ch 1 | Note On C#4 (61) vel 38
84.438s | tick 87545 | track 1 | ch 1 | Note On F#4 (66) vel 38
84.901s | tick 88025 | track 1 | ch 1 | Note Off F#2 (42) vel 0
84.901s | tick 88025 | track 1 | ch 1 | Note Off F#1 (30) vel 0
84.993s | tick 88121 | track 1 | ch 1 | Note On F#1 (30) vel 33
84.993s | tick 88121 | track 1 | ch 1 | Note On F#2 (42) vel 40
85.456s | tick 88601 | track 1 | ch 1 | Note Off F#2 (42) vel 0
85.456s | tick 88601 | track 1 | ch 1 | Note Off F#1 (30) vel 0
85.549s | tick 88697 | track 1 | ch 1 | Note On F#2 (42) vel 40
85.549s | tick 88697 | track 1 | ch 1 | Note On F#1 (30) vel 32
85.826s | tick 88985 | track 1 | ch 1 | Note Off F#1 (30) vel 0
85.826s | tick 88985 | track 1 | ch 1 | Note Off F#2 (42) vel 0
85.919s | tick 89081 | track 1 | ch 1 | Note Off F#4 (66) vel 0
85.919s | tick 89081 | track 1 | ch 1 | Note Off C#4 (61) vel 0
85.919s | tick 89081 | track 1 | ch 1 | Note Off A#4 (70) vel 0
85.919s | tick 89081 | track 1 | ch 1 | Note On C6 (84) vel 25
85.919s | tick 89081 | track 1 | ch 1 | Note On C6 (84) vel 35
85.919s | tick 89081 | track 1 | ch 1 | Note On F1 (29) vel 29
86.012s | tick 89177 | track 1 | ch 1 | Note Off F1 (29) vel 0
86.012s | tick 89177 | track 1 | ch 1 | Note Off C6 (84) vel 0
86.012s | tick 89177 | track 1 | ch 1 | Note Off C6 (84) vel 0
86.012s | tick 89177 | track 1 | ch 1 | Note On G#5 (80) vel 35
86.104s | tick 89273 | track 1 | ch 1 | Note Off G#5 (80) vel 0
86.104s | tick 89273 | track 1 | ch 1 | Note On F5 (77) vel 35
86.104s | tick 89273 | track 1 | ch 1 | Note On F2 (41) vel 35
86.197s | tick 89369 | track 1 | ch 1 | Note Off F5 (77) vel 0
86.197s | tick 89369 | track 1 | ch 1 | Note On C5 (72) vel 35
86.289s | tick 89465 | track 1 | ch 1 | Note Off C5 (72) vel 0
86.289s | tick 89465 | track 1 | ch 1 | Note Off F2 (41) vel 0
86.289s | tick 89465 | track 1 | ch 1 | Note On F4 (65) vel 35
86.289s | tick 89465 | track 1 | ch 1 | Note On F1 (29) vel 29
86.382s | tick 89561 | track 1 | ch 1 | Note Off F1 (29) vel 0
86.382s | tick 89561 | track 1 | ch 1 | Note Off F4 (65) vel 0
86.382s | tick 89561 | track 1 | ch 1 | Note On G4 (67) vel 35
86.475s | tick 89657 | track 1 | ch 1 | Note Off G4 (67) vel 0
86.475s | tick 89657 | track 1 | ch 1 | Note On G#4 (68) vel 35
86.475s | tick 89657 | track 1 | ch 1 | Note On F2 (41) vel 35
86.567s | tick 89753 | track 1 | ch 1 | Note Off G#4 (68) vel 0
86.567s | tick 89753 | track 1 | ch 1 | Note On C5 (72) vel 35
86.660s | tick 89849 | track 1 | ch 1 | Note Off C5 (72) vel 0
86.660s | tick 89849 | track 1 | ch 1 | Note Off F2 (41) vel 0
86.660s | tick 89849 | track 1 | ch 1 | Note On C6 (84) vel 28
86.660s | tick 89849 | track 1 | ch 1 | Note On C6 (84) vel 28
86.660s | tick 89849 | track 1 | ch 1 | Note On C6 (84) vel 25
86.660s | tick 89849 | track 1 | ch 1 | Note On F1 (29) vel 29
86.752s | tick 89945 | track 1 | ch 1 | Note Off F1 (29) vel 0
86.752s | tick 89945 | track 1 | ch 1 | Note Off C6 (84) vel 0
86.752s | tick 89945 | track 1 | ch 1 | Note Off C6 (84) vel 0
86.752s | tick 89945 | track 1 | ch 1 | Note Off C6 (84) vel 0
86.752s | tick 89945 | track 1 | ch 1 | Note On G#5 (80) vel 35
86.845s | tick 90041 | track 1 | ch 1 | Note Off G#5 (80) vel 0
86.845s | tick 90041 | track 1 | ch 1 | Note On F5 (77) vel 35
86.845s | tick 90041 | track 1 | ch 1 | Note On F2 (41) vel 35
86.938s | tick 90137 | track 1 | ch 1 | Note Off F5 (77) vel 0
86.938s | tick 90137 | track 1 | ch 1 | Note On C5 (72) vel 35
87.030s | tick 90233 | track 1 | ch 1 | Note Off C5 (72) vel 0
87.030s | tick 90233 | track 1 | ch 1 | Note Off F2 (41) vel 0
87.030s | tick 90233 | track 1 | ch 1 | Note On F4 (65) vel 35
87.030s | tick 90233 | track 1 | ch 1 | Note On F1 (29) vel 29
87.123s | tick 90329 | track 1 | ch 1 | Note Off F1 (29) vel 0
87.123s | tick 90329 | track 1 | ch 1 | Note Off F4 (65) vel 0
87.123s | tick 90329 | track 1 | ch 1 | Note On G4 (67) vel 35
87.215s | tick 90425 | track 1 | ch 1 | Note Off G4 (67) vel 0
87.215s | tick 90425 | track 1 | ch 1 | Note On G#4 (68) vel 35
87.215s | tick 90425 | track 1 | ch 1 | Note On F2 (41) vel 35
87.308s | tick 90521 | track 1 | ch 1 | Note Off G#4 (68) vel 0
87.308s | tick 90521 | track 1 | ch 1 | Note On C5 (72) vel 35
87.401s | tick 90617 | track 1 | ch 1 | Note Off C5 (72) vel 0
87.401s | tick 90617 | track 1 | ch 1 | Note Off F2 (41) vel 0
87.401s | tick 90617 | track 1 | ch 1 | Note On F4 (65) vel 35
87.401s | tick 90617 | track 1 | ch 1 | Note On F1 (29) vel 29
87.493s | tick 90713 | track 1 | ch 1 | Note Off F1 (29) vel 0
87.493s | tick 90713 | track 1 | ch 1 | Note Off F4 (65) vel 0
87.493s | tick 90713 | track 1 | ch 1 | Note On G4 (67) vel 35
87.586s | tick 90809 | track 1 | ch 1 | Note Off G4 (67) vel 0
87.586s | tick 90809 | track 1 | ch 1 | Note On G#4 (68) vel 35
87.586s | tick 90809 | track 1 | ch 1 | Note On F2 (41) vel 35
87.678s | tick 90905 | track 1 | ch 1 | Note Off G#4 (68) vel 0
87.678s | tick 90905 | track 1 | ch 1 | Note On C5 (72) vel 35
87.771s | tick 91001 | track 1 | ch 1 | Note Off C5 (72) vel 0
87.771s | tick 91001 | track 1 | ch 1 | Note Off F2 (41) vel 0
87.771s | tick 91001 | track 1 | ch 1 | Note On G4 (67) vel 35
87.771s | tick 91001 | track 1 | ch 1 | Note On F1 (29) vel 29
87.864s | tick 91097 | track 1 | ch 1 | Note Off F1 (29) vel 0
87.864s | tick 91097 | track 1 | ch 1 | Note Off G4 (67) vel 0
87.864s | tick 91097 | track 1 | ch 1 | Note On G#4 (68) vel 35
87.956s | tick 91193 | track 1 | ch 1 | Note Off G#4 (68) vel 0
87.956s | tick 91193 | track 1 | ch 1 | Note On C5 (72) vel 35
87.956s | tick 91193 | track 1 | ch 1 | Note On F2 (41) vel 35
88.049s | tick 91289 | track 1 | ch 1 | Note Off C5 (72) vel 0
88.049s | tick 91289 | track 1 | ch 1 | Note On F5 (77) vel 35
88.141s | tick 91385 | track 1 | ch 1 | Note Off F2 (41) vel 0
88.141s | tick 91385 | track 1 | ch 1 | Note Off F5 (77) vel 0
88.141s | tick 91385 | track 1 | ch 1 | Note Off F2 (41) vel 0
88.141s | tick 91385 | track 1 | ch 1 | Note On G#4 (68) vel 35
88.141s | tick 91385 | track 1 | ch 1 | Note On F2 (41) vel 33
88.234s | tick 91481 | track 1 | ch 1 | Note Off F2 (41) vel 0
88.234s | tick 91481 | track 1 | ch 1 | Note Off G#4 (68) vel 0
88.234s | tick 91481 | track 1 | ch 1 | Note On C5 (72) vel 35
88.234s | tick 91481 | track 1 | ch 1 | Note On F2 (41) vel 33
88.326s | tick 91577 | track 1 | ch 1 | Note Off F2 (41) vel 0
88.326s | tick 91577 | track 1 | ch 1 | Note Off C5 (72) vel 0
88.326s | tick 91577 | track 1 | ch 1 | Note On F5 (77) vel 35
88.326s | tick 91577 | track 1 | ch 1 | Note On F2 (41) vel 33
88.419s | tick 91673 | track 1 | ch 1 | Note Off F2 (41) vel 0
88.419s | tick 91673 | track 1 | ch 1 | Note Off F5 (77) vel 0
88.419s | tick 91673 | track 1 | ch 1 | Note On G#5 (80) vel 35
88.419s | tick 91673 | track 1 | ch 1 | Note On F2 (41) vel 33
88.512s | tick 91769 | track 1 | ch 1 | Note Off F2 (41) vel 0
88.512s | tick 91769 | track 1 | ch 1 | Note Off G#5 (80) vel 0
88.512s | tick 91769 | track 1 | ch 1 | Note On C5 (72) vel 35
88.512s | tick 91769 | track 1 | ch 1 | Note On F2 (41) vel 33
88.604s | tick 91865 | track 1 | ch 1 | Note Off F2 (41) vel 0
88.604s | tick 91865 | track 1 | ch 1 | Note Off C5 (72) vel 0
88.604s | tick 91865 | track 1 | ch 1 | Note On F5 (77) vel 35
88.604s | tick 91865 | track 1 | ch 1 | Note On F2 (41) vel 33
88.697s | tick 91961 | track 1 | ch 1 | Note Off F2 (41) vel 0
88.697s | tick 91961 | track 1 | ch 1 | Note Off F5 (77) vel 0
88.697s | tick 91961 | track 1 | ch 1 | Note On G#5 (80) vel 35
88.697s | tick 91961 | track 1 | ch 1 | Note On F2 (41) vel 33
88.789s | tick 92057 | track 1 | ch 1 | Note Off F2 (41) vel 0
88.789s | tick 92057 | track 1 | ch 1 | Note Off G#5 (80) vel 0
88.789s | tick 92057 | track 1 | ch 1 | Note On A#5 (82) vel 35
88.789s | tick 92057 | track 1 | ch 1 | Note On F2 (41) vel 33
88.882s | tick 92153 | track 1 | ch 1 | Note Off A#5 (82) vel 0
88.882s | tick 92153 | track 1 | ch 1 | Note On C6 (84) vel 35
88.882s | tick 92153 | track 1 | ch 1 | Note On C#1 (25) vel 30
88.975s | tick 92249 | track 1 | ch 1 | Note Off C6 (84) vel 0
88.975s | tick 92249 | track 1 | ch 1 | Note On G#5 (80) vel 35
89.067s | tick 92345 | track 1 | ch 1 | Note Off G#5 (80) vel 0
89.067s | tick 92345 | track 1 | ch 1 | Note On F5 (77) vel 35
89.067s | tick 92345 | track 1 | ch 1 | Note On C#2 (37) vel 33
89.160s | tick 92441 | track 1 | ch 1 | Note Off F5 (77) vel 0
89.160s | tick 92441 | track 1 | ch 1 | Note On G#5 (80) vel 35
89.252s | tick 92537 | track 1 | ch 1 | Note Off G#5 (80) vel 0
89.252s | tick 92537 | track 1 | ch 1 | Note Off C#2 (37) vel 0
89.252s | tick 92537 | track 1 | ch 1 | Note On C#5 (73) vel 35
89.345s | tick 92633 | track 1 | ch 1 | Note Off C#5 (73) vel 0
89.345s | tick 92633 | track 1 | ch 1 | Note On F5 (77) vel 35
89.438s | tick 92729 | track 1 | ch 1 | Note Off F5 (77) vel 0
89.438s | tick 92729 | track 1 | ch 1 | Note On G#4 (68) vel 35
89.438s | tick 92729 | track 1 | ch 1 | Note On C#2 (37) vel 33
89.530s | tick 92825 | track 1 | ch 1 | Note Off G#4 (68) vel 0
89.530s | tick 92825 | track 1 | ch 1 | Note On C#5 (73) vel 35
89.623s | tick 92921 | track 1 | ch 1 | Note Off C#5 (73) vel 0
89.623s | tick 92921 | track 1 | ch 1 | Note Off C#2 (37) vel 0
89.623s | tick 92921 | track 1 | ch 1 | Note On F4 (65) vel 34
89.715s | tick 93017 | track 1 | ch 1 | Note Off F4 (65) vel 0
89.715s | tick 93017 | track 1 | ch 1 | Note On G#3 (56) vel 34
89.808s | tick 93113 | track 1 | ch 1 | Note Off G#3 (56) vel 0
89.808s | tick 93113 | track 1 | ch 1 | Note On C#4 (61) vel 35
89.808s | tick 93113 | track 1 | ch 1 | Note On C#2 (37) vel 33
89.901s | tick 93209 | track 1 | ch 1 | Note Off C#4 (61) vel 0
89.901s | tick 93209 | track 1 | ch 1 | Note On F4 (65) vel 35
89.993s | tick 93305 | track 1 | ch 1 | Note Off F4 (65) vel 0
89.993s | tick 93305 | track 1 | ch 1 | Note Off C#2 (37) vel 0
89.993s | tick 93305 | track 1 | ch 1 | Note On G#3 (56) vel 35
90.086s | tick 93401 | track 1 | ch 1 | Note Off G#3 (56) vel 0
90.086s | tick 93401 | track 1 | ch 1 | Note On C#4 (61) vel 35
90.178s | tick 93497 | track 1 | ch 1 | Note Off C#4 (61) vel 0
90.178s | tick 93497 | track 1 | ch 1 | Note On F4 (65) vel 35
90.178s | tick 93497 | track 1 | ch 1 | Note On C#2 (37) vel 33
90.271s | tick 93593 | track 1 | ch 1 | Note Off F4 (65) vel 0
90.271s | tick 93593 | track 1 | ch 1 | Note On G4 (67) vel 35
90.364s | tick 93689 | track 1 | ch 1 | Note Off G4 (67) vel 0
90.364s | tick 93689 | track 1 | ch 1 | Note Off C#2 (37) vel 0
90.364s | tick 93689 | track 1 | ch 1 | Note Off C#1 (25) vel 0
90.364s | tick 93689 | track 1 | ch 1 | Note On G#5 (80) vel 35
90.364s | tick 93689 | track 1 | ch 1 | Note On C#1 (25) vel 29
90.456s | tick 93785 | track 1 | ch 1 | Note Off C#1 (25) vel 0
90.456s | tick 93785 | track 1 | ch 1 | Note Off G#5 (80) vel 0
90.456s | tick 93785 | track 1 | ch 1 | Note On G5 (79) vel 35
90.549s | tick 93881 | track 1 | ch 1 | Note Off G5 (79) vel 0
90.549s | tick 93881 | track 1 | ch 1 | Note On F5 (77) vel 35
90.549s | tick 93881 | track 1 | ch 1 | Note On C#2 (37) vel 33
90.641s | tick 93977 | track 1 | ch 1 | Note Off F5 (77) vel 0
90.641s | tick 93977 | track 1 | ch 1 | Note On C#5 (73) vel 35
90.734s | tick 94073 | track 1 | ch 1 | Note Off C#5 (73) vel 0
90.734s | tick 94073 | track 1 | ch 1 | Note Off C#2 (37) vel 0
90.734s | tick 94073 | track 1 | ch 1 | Note On F5 (77) vel 35
90.734s | tick 94073 | track 1 | ch 1 | Note On C#1 (25) vel 29
90.826s | tick 94169 | track 1 | ch 1 | Note Off F5 (77) vel 0
90.826s | tick 94169 | track 1 | ch 1 | Note On G5 (79) vel 35
90.919s | tick 94265 | track 1 | ch 1 | Note Off G5 (79) vel 0
90.919s | tick 94265 | track 1 | ch 1 | Note On G#5 (80) vel 35
91.012s | tick 94361 | track 1 | ch 1 | Note Off G#5 (80) vel 0
91.012s | tick 94361 | track 1 | ch 1 | Note On C#6 (85) vel 35
91.104s | tick 94457 | track 1 | ch 1 | Note Off C#2 (37) vel 0
91.104s | tick 94457 | track 1 | ch 1 | Note Off C#6 (85) vel 0
91.104s | tick 94457 | track 1 | ch 1 | Note Off C#1 (25) vel 0
91.104s | tick 94457 | track 1 | ch 1 | Note On F6 (89) vel 35
91.104s | tick 94457 | track 1 | ch 1 | Note On C#2 (37) vel 35
91.197s | tick 94553 | track 1 | ch 1 | Note Off C#2 (37) vel 0
91.197s | tick 94553 | track 1 | ch 1 | Note Off F6 (89) vel 0
91.197s | tick 94553 | track 1 | ch 1 | Note On D#6 (87) vel 35
91.197s | tick 94553 | track 1 | ch 1 | Note On C#2 (37) vel 35
91.289s | tick 94649 | track 1 | ch 1 | Note Off C#2 (37) vel 0
91.289s | tick 94649 | track 1 | ch 1 | Note Off D#6 (87) vel 0
91.289s | tick 94649 | track 1 | ch 1 | Note On C#6 (85) vel 35
91.289s | tick 94649 | track 1 | ch 1 | Note On C#2 (37) vel 35
91.382s | tick 94745 | track 1 | ch 1 | Note Off C#2 (37) vel 0
91.382s | tick 94745 | track 1 | ch 1 | Note Off C#6 (85) vel 0
91.382s | tick 94745 | track 1 | ch 1 | Note On G#5 (80) vel 35
91.382s | tick 94745 | track 1 | ch 1 | Note On C#2 (37) vel 35
91.475s | tick 94841 | track 1 | ch 1 | Note Off C#2 (37) vel 0
91.475s | tick 94841 | track 1 | ch 1 | Note Off G#5 (80) vel 0
91.475s | tick 94841 | track 1 | ch 1 | Note On C#5 (73) vel 25
91.475s | tick 94841 | track 1 | ch 1 | Note On C#6 (85) vel 35
91.475s | tick 94841 | track 1 | ch 1 | Note On C#2 (37) vel 35
91.567s | tick 94937 | track 1 | ch 1 | Note Off C#2 (37) vel 0
91.567s | tick 94937 | track 1 | ch 1 | Note Off C#6 (85) vel 0
91.567s | tick 94937 | track 1 | ch 1 | Note Off C#5 (73) vel 0
91.567s | tick 94937 | track 1 | ch 1 | Note On D#5 (75) vel 25
91.567s | tick 94937 | track 1 | ch 1 | Note On D#6 (87) vel 35
91.567s | tick 94937 | track 1 | ch 1 | Note On C#2 (37) vel 35
91.660s | tick 95033 | track 1 | ch 1 | Note Off C#2 (37) vel 0
91.660s | tick 95033 | track 1 | ch 1 | Note Off D#6 (87) vel 0
91.660s | tick 95033 | track 1 | ch 1 | Note Off D#5 (75) vel 0
91.660s | tick 95033 | track 1 | ch 1 | Note On F5 (77) vel 25
91.660s | tick 95033 | track 1 | ch 1 | Note On F6 (89) vel 35
91.660s | tick 95033 | track 1 | ch 1 | Note On C#2 (37) vel 35
91.752s | tick 95129 | track 1 | ch 1 | Note Off C#2 (37) vel 0
91.752s | tick 95129 | track 1 | ch 1 | Note Off F6 (89) vel 0
91.752s | tick 95129 | track 1 | ch 1 | Note Off F5 (77) vel 0
91.752s | tick 95129 | track 1 | ch 1 | Note On G#5 (80) vel 25
91.752s | tick 95129 | track 1 | ch 1 | Note On G#6 (92) vel 35
91.752s | tick 95129 | track 1 | ch 1 | Note On C#2 (37) vel 35
91.845s | tick 95225 | track 1 | ch 1 | Note Off G#6 (92) vel 0
91.845s | tick 95225 | track 1 | ch 1 | Note Off G#5 (80) vel 0
91.845s | tick 95225 | track 1 | ch 1 | Note On C6 (84) vel 25
91.845s | tick 95225 | track 1 | ch 1 | Note On C6 (84) vel 35
91.845s | tick 95225 | track 1 | ch 1 | Note On F1 (29) vel 29
91.938s | tick 95321 | track 1 | ch 1 | Note Off F1 (29) vel 0
91.938s | tick 95321 | track 1 | ch 1 | Note Off C6 (84) vel 0
91.938s | tick 95321 | track 1 | ch 1 | Note Off C6 (84) vel 0
91.938s | tick 95321 | track 1 | ch 1 | Note On G#5 (80) vel 35
92.030s | tick 95417 | track 1 | ch 1 | Note Off G#5 (80) vel 0
92.030s | tick 95417 | track 1 | ch 1 | Note On F5 (77) vel 35
92.030s | tick 95417 | track 1 | ch 1 | Note On F2 (41) vel 35
92.123s | tick 95513 | track 1 | ch 1 | Note Off F5 (77) vel 0
92.123s | tick 95513 | track 1 | ch 1 | Note On C5 (72) vel 35
92.215s | tick 95609 | track 1 | ch 1 | Note Off C5 (72) vel 0
92.215s | tick 95609 | track 1 | ch 1 | Note Off F2 (41) vel 0
92.215s | tick 95609 | track 1 | ch 1 | Note On F4 (65) vel 35
92.215s | tick 95609 | track 1 | ch 1 | Note On F1 (29) vel 29
92.308s | tick 95705 | track 1 | ch 1 | Note Off F1 (29) vel 0
92.308s | tick 95705 | track 1 | ch 1 | Note Off F4 (65) vel 0
92.308s | tick 95705 | track 1 | ch 1 | Note On G4 (67) vel 35
92.401s | tick 95801 | track 1 | ch 1 | Note Off G4 (67) vel 0
92.401s | tick 95801 | track 1 | ch 1 | Note On G#4 (68) vel 35
92.401s | tick 95801 | track 1 | ch 1 | Note On F2 (41) vel 35
92.493s | tick 95897 | track 1 | ch 1 | Note Off G#4 (68) vel 0
92.493s | tick 95897 | track 1 | ch 1 | Note On C5 (72) vel 35
92.586s | tick 95993 | track 1 | ch 1 | Note Off C5 (72) vel 0
92.586s | tick 95993 | track 1 | ch 1 | Note Off F2 (41) vel 0
92.586s | tick 95993 | track 1 | ch 1 | Note On C6 (84) vel 28
92.586s | tick 95993 | track 1 | ch 1 | Note On C6 (84) vel 28
92.586s | tick 95993 | track 1 | ch 1 | Note On C6 (84) vel 25
92.586s | tick 95993 | track 1 | ch 1 | Note On F1 (29) vel 29
92.678s | tick 96089 | track 1 | ch 1 | Note Off F1 (29) vel 0
92.678s | tick 96089 | track 1 | ch 1 | Note Off C6 (84) vel 0
92.678s | tick 96089 | track 1 | ch 1 | Note Off C6 (84) vel 0
92.678s | tick 96089 | track 1 | ch 1 | Note Off C6 (84) vel 0
92.678s | tick 96089 | track 1 | ch 1 | Note On G#5 (80) vel 35
92.771s | tick 96185 | track 1 | ch 1 | Note Off G#5 (80) vel 0
92.771s | tick 96185 | track 1 | ch 1 | Note On F5 (77) vel 35
92.771s | tick 96185 | track 1 | ch 1 | Note On F2 (41) vel 35
92.864s | tick 96281 | track 1 | ch 1 | Note Off F5 (77) vel 0
92.864s | tick 96281 | track 1 | ch 1 | Note On C5 (72) vel 35
92.956s | tick 96377 | track 1 | ch 1 | Note Off C5 (72) vel 0
92.956s | tick 96377 | track 1 | ch 1 | Note Off F2 (41) vel 0
92.956s | tick 96377 | track 1 | ch 1 | Note On F4 (65) vel 35
92.956s | tick 96377 | track 1 | ch 1 | Note On F1 (29) vel 29
93.049s | tick 96473 | track 1 | ch 1 | Note Off F1 (29) vel 0
93.049s | tick 96473 | track 1 | ch 1 | Note Off F4 (65) vel 0
93.049s | tick 96473 | track 1 | ch 1 | Note On G4 (67) vel 35
93.141s | tick 96569 | track 1 | ch 1 | Note Off G4 (67) vel 0
93.141s | tick 96569 | track 1 | ch 1 | Note On G#4 (68) vel 35
93.141s | tick 96569 | track 1 | ch 1 | Note On F2 (41) vel 35
93.234s | tick 96665 | track 1 | ch 1 | Note Off G#4 (68) vel 0
93.234s | tick 96665 | track 1 | ch 1 | Note On C5 (72) vel 35
93.326s | tick 96761 | track 1 | ch 1 | Note Off C5 (72) vel 0
93.326s | tick 96761 | track 1 | ch 1 | Note Off F2 (41) vel 0
93.326s | tick 96761 | track 1 | ch 1 | Note On F4 (65) vel 35
93.326s | tick 96761 | track 1 | ch 1 | Note On F1 (29) vel 29
93.419s | tick 96857 | track 1 | ch 1 | Note Off F1 (29) vel 0
93.419s | tick 96857 | track 1 | ch 1 | Note Off F4 (65) vel 0
93.419s | tick 96857 | track 1 | ch 1 | Note On G4 (67) vel 35
93.512s | tick 96953 | track 1 | ch 1 | Note Off G4 (67) vel 0
93.512s | tick 96953 | track 1 | ch 1 | Note On G#4 (68) vel 35
93.512s | tick 96953 | track 1 | ch 1 | Note On F2 (41) vel 35
93.604s | tick 97049 | track 1 | ch 1 | Note Off G#4 (68) vel 0
93.604s | tick 97049 | track 1 | ch 1 | Note On C5 (72) vel 35
93.697s | tick 97145 | track 1 | ch 1 | Note Off C5 (72) vel 0
93.697s | tick 97145 | track 1 | ch 1 | Note Off F2 (41) vel 0
93.697s | tick 97145 | track 1 | ch 1 | Note On G4 (67) vel 35
93.697s | tick 97145 | track 1 | ch 1 | Note On F1 (29) vel 29
93.789s | tick 97241 | track 1 | ch 1 | Note Off F1 (29) vel 0
93.789s | tick 97241 | track 1 | ch 1 | Note Off G4 (67) vel 0
93.789s | tick 97241 | track 1 | ch 1 | Note On G#4 (68) vel 35
93.882s | tick 97337 | track 1 | ch 1 | Note Off G#4 (68) vel 0
93.882s | tick 97337 | track 1 | ch 1 | Note On C5 (72) vel 35
93.882s | tick 97337 | track 1 | ch 1 | Note On F2 (41) vel 35
93.975s | tick 97433 | track 1 | ch 1 | Note Off C5 (72) vel 0
93.975s | tick 97433 | track 1 | ch 1 | Note On F5 (77) vel 35
94.067s | tick 97529 | track 1 | ch 1 | Note Off F2 (41) vel 0
94.067s | tick 97529 | track 1 | ch 1 | Note Off F5 (77) vel 0
94.067s | tick 97529 | track 1 | ch 1 | Note Off F2 (41) vel 0
94.067s | tick 97529 | track 1 | ch 1 | Note On G#4 (68) vel 35
94.067s | tick 97529 | track 1 | ch 1 | Note On F2 (41) vel 33
94.160s | tick 97625 | track 1 | ch 1 | Note Off F2 (41) vel 0
94.160s | tick 97625 | track 1 | ch 1 | Note Off G#4 (68) vel 0
94.160s | tick 97625 | track 1 | ch 1 | Note On C5 (72) vel 35
94.160s | tick 97625 | track 1 | ch 1 | Note On F2 (41) vel 33
94.252s | tick 97721 | track 1 | ch 1 | Note Off F2 (41) vel 0
94.252s | tick 97721 | track 1 | ch 1 | Note Off C5 (72) vel 0
94.252s | tick 97721 | track 1 | ch 1 | Note On F5 (77) vel 35
94.252s | tick 97721 | track 1 | ch 1 | Note On F2 (41) vel 33
94.345s | tick 97817 | track 1 | ch 1 | Note Off F2 (41) vel 0
94.345s | tick 97817 | track 1 | ch 1 | Note Off F5 (77) vel 0
94.345s | tick 97817 | track 1 | ch 1 | Note On G#5 (80) vel 35
94.345s | tick 97817 | track 1 | ch 1 | Note On F2 (41) vel 33
94.438s | tick 97913 | track 1 | ch 1 | Note Off F2 (41) vel 0
94.438s | tick 97913 | track 1 | ch 1 | Note Off G#5 (80) vel 0
94.438s | tick 97913 | track 1 | ch 1 | Note On C5 (72) vel 35
94.438s | tick 97913 | track 1 | ch 1 | Note On F2 (41) vel 33
94.530s | tick 98009 | track 1 | ch 1 | Note Off F2 (41) vel 0
94.530s | tick 98009 | track 1 | ch 1 | Note Off C5 (72) vel 0
94.530s | tick 98009 | track 1 | ch 1 | Note On F5 (77) vel 35
94.530s | tick 98009 | track 1 | ch 1 | Note On F2 (41) vel 33
94.623s | tick 98105 | track 1 | ch 1 | Note Off F2 (41) vel 0
94.623s | tick 98105 | track 1 | ch 1 | Note Off F5 (77) vel 0
94.623s | tick 98105 | track 1 | ch 1 | Note On G#5 (80) vel 35
94.623s | tick 98105 | track 1 | ch 1 | Note On F2 (41) vel 33
94.715s | tick 98201 | track 1 | ch 1 | Note Off F2 (41) vel 0
94.715s | tick 98201 | track 1 | ch 1 | Note Off G#5 (80) vel 0
94.715s | tick 98201 | track 1 | ch 1 | Note On A#5 (82) vel 35
94.715s | tick 98201 | track 1 | ch 1 | Note On F2 (41) vel 33
94.808s | tick 98297 | track 1 | ch 1 | Note Off A#5 (82) vel 0
94.808s | tick 98297 | track 1 | ch 1 | Note On C6 (84) vel 35
94.808s | tick 98297 | track 1 | ch 1 | Note On C#1 (25) vel 30
94.901s | tick 98393 | track 1 | ch 1 | Note Off C6 (84) vel 0
94.901s | tick 98393 | track 1 | ch 1 | Note On G#5 (80) vel 35
94.993s | tick 98489 | track 1 | ch 1 | Note Off G#5 (80) vel 0
94.993s | tick 98489 | track 1 | ch 1 | Note On F5 (77) vel 35
94.993s | tick 98489 | track 1 | ch 1 | Note On C#2 (37) vel 33
95.086s | tick 98585 | track 1 | ch 1 | Note Off F5 (77) vel 0
95.086s | tick 98585 | track 1 | ch 1 | Note On G#5 (80) vel 35
95.178s | tick 98681 | track 1 | ch 1 | Note Off G#5 (80) vel 0
95.178s | tick 98681 | track 1 | ch 1 | Note Off C#2 (37) vel 0
95.178s | tick 98681 | track 1 | ch 1 | Note On C#5 (73) vel 35
95.271s | tick 98777 | track 1 | ch 1 | Note Off C#5 (73) vel 0
95.271s | tick 98777 | track 1 | ch 1 | Note On F5 (77) vel 35
95.364s | tick 98873 | track 1 | ch 1 | Note Off F5 (77) vel 0
95.364s | tick 98873 | track 1 | ch 1 | Note On G#4 (68) vel 35
95.364s | tick 98873 | track 1 | ch 1 | Note On C#2 (37) vel 33
95.456s | tick 98969 | track 1 | ch 1 | Note Off G#4 (68) vel 0
95.456s | tick 98969 | track 1 | ch 1 | Note On C#5 (73) vel 35
95.549s | tick 99065 | track 1 | ch 1 | Note Off C#5 (73) vel 0
95.549s | tick 99065 | track 1 | ch 1 | Note Off C#2 (37) vel 0
95.549s | tick 99065 | track 1 | ch 1 | Note On F4 (65) vel 35
95.641s | tick 99161 | track 1 | ch 1 | Note Off F4 (65) vel 0
95.641s | tick 99161 | track 1 | ch 1 | Note On G#3 (56) vel 33
95.734s | tick 99257 | track 1 | ch 1 | Note Off G#3 (56) vel 0
95.734s | tick 99257 | track 1 | ch 1 | Note On C#4 (61) vel 35
95.734s | tick 99257 | track 1 | ch 1 | Note On C#2 (37) vel 33
95.826s | tick 99353 | track 1 | ch 1 | Note Off C#4 (61) vel 0
95.826s | tick 99353 | track 1 | ch 1 | Note On F4 (65) vel 35
95.919s | tick 99449 | track 1 | ch 1 | Note Off F4 (65) vel 0
95.919s | tick 99449 | track 1 | ch 1 | Note Off C#2 (37) vel 0
95.919s | tick 99449 | track 1 | ch 1 | Note On G#3 (56) vel 35
96.012s | tick 99545 | track 1 | ch 1 | Note Off G#3 (56) vel 0
96.012s | tick 99545 | track 1 | ch 1 | Note On C#4 (61) vel 35
96.104s | tick 99641 | track 1 | ch 1 | Note Off C#4 (61) vel 0
96.104s | tick 99641 | track 1 | ch 1 | Note On F4 (65) vel 35
96.104s | tick 99641 | track 1 | ch 1 | Note On C#2 (37) vel 33
96.197s | tick 99737 | track 1 | ch 1 | Note Off F4 (65) vel 0
96.197s | tick 99737 | track 1 | ch 1 | Note On G4 (67) vel 35
96.289s | tick 99833 | track 1 | ch 1 | Note Off G4 (67) vel 0
96.289s | tick 99833 | track 1 | ch 1 | Note Off C#2 (37) vel 0
96.289s | tick 99833 | track 1 | ch 1 | Note Off C#1 (25) vel 0
96.289s | tick 99833 | track 1 | ch 1 | Note On G#5 (80) vel 35
96.289s | tick 99833 | track 1 | ch 1 | Note On C#1 (25) vel 29
96.382s | tick 99929 | track 1 | ch 1 | Note Off C#1 (25) vel 0
96.382s | tick 99929 | track 1 | ch 1 | Note Off G#5 (80) vel 0
96.382s | tick 99929 | track 1 | ch 1 | Note On G5 (79) vel 35
96.475s | tick 100025 | track 1 | ch 1 | Note Off G5 (79) vel 0
96.475s | tick 100025 | track 1 | ch 1 | Note On F5 (77) vel 35
96.475s | tick 100025 | track 1 | ch 1 | Note On C#2 (37) vel 33
96.567s | tick 100121 | track 1 | ch 1 | Note Off F5 (77) vel 0
96.567s | tick 100121 | track 1 | ch 1 | Note On C#5 (73) vel 35
96.660s | tick 100217 | track 1 | ch 1 | Note Off C#5 (73) vel 0
96.660s | tick 100217 | track 1 | ch 1 | Note Off C#2 (37) vel 0
96.660s | tick 100217 | track 1 | ch 1 | Note On F5 (77) vel 35
96.660s | tick 100217 | track 1 | ch 1 | Note On C#1 (25) vel 29
96.752s | tick 100313 | track 1 | ch 1 | Note Off F5 (77) vel 0
96.752s | tick 100313 | track 1 | ch 1 | Note On G5 (79) vel 35
96.845s | tick 100409 | track 1 | ch 1 | Note Off G5 (79) vel 0
96.845s | tick 100409 | track 1 | ch 1 | Note On G#5 (80) vel 35
96.938s | tick 100505 | track 1 | ch 1 | Note Off G#5 (80) vel 0
96.938s | tick 100505 | track 1 | ch 1 | Note On C#6 (85) vel 35
97.030s | tick 100601 | track 1 | ch 1 | Note Off C#2 (37) vel 0
97.030s | tick 100601 | track 1 | ch 1 | Note Off C#6 (85) vel 0
97.030s | tick 100601 | track 1 | ch 1 | Note Off C#1 (25) vel 0
97.030s | tick 100601 | track 1 | ch 1 | Note On F6 (89) vel 35
97.030s | tick 100601 | track 1 | ch 1 | Note On C#2 (37) vel 35
97.123s | tick 100697 | track 1 | ch 1 | Note Off C#2 (37) vel 0
97.123s | tick 100697 | track 1 | ch 1 | Note Off F6 (89) vel 0
97.123s | tick 100697 | track 1 | ch 1 | Note On D#6 (87) vel 35
97.123s | tick 100697 | track 1 | ch 1 | Note On C#2 (37) vel 35
97.215s | tick 100793 | track 1 | ch 1 | Note Off C#2 (37) vel 0
97.215s | tick 100793 | track 1 | ch 1 | Note Off D#6 (87) vel 0
97.215s | tick 100793 | track 1 | ch 1 | Note On C#6 (85) vel 35
97.215s | tick 100793 | track 1 | ch 1 | Note On C#2 (37) vel 35
97.308s | tick 100889 | track 1 | ch 1 | Note Off C#2 (37) vel 0
97.308s | tick 100889 | track 1 | ch 1 | Note Off C#6 (85) vel 0
97.308s | tick 100889 | track 1 | ch 1 | Note On G#5 (80) vel 35
97.308s | tick 100889 | track 1 | ch 1 | Note On C#2 (37) vel 35
97.401s | tick 100985 | track 1 | ch 1 | Note Off C#2 (37) vel 0
97.401s | tick 100985 | track 1 | ch 1 | Note Off G#5 (80) vel 0
97.401s | tick 100985 | track 1 | ch 1 | Note On C#5 (73) vel 25
97.401s | tick 100985 | track 1 | ch 1 | Note On C#6 (85) vel 35
97.401s | tick 100985 | track 1 | ch 1 | Note On C#2 (37) vel 35
97.493s | tick 101081 | track 1 | ch 1 | Note Off C#2 (37) vel 0
97.493s | tick 101081 | track 1 | ch 1 | Note Off C#6 (85) vel 0
97.493s | tick 101081 | track 1 | ch 1 | Note Off C#5 (73) vel 0
97.493s | tick 101081 | track 1 | ch 1 | Note On D#5 (75) vel 25
97.493s | tick 101081 | track 1 | ch 1 | Note On D#6 (87) vel 35
97.493s | tick 101081 | track 1 | ch 1 | Note On C#2 (37) vel 35
97.586s | tick 101177 | track 1 | ch 1 | Note Off C#2 (37) vel 0
97.586s | tick 101177 | track 1 | ch 1 | Note Off D#6 (87) vel 0
97.586s | tick 101177 | track 1 | ch 1 | Note Off D#5 (75) vel 0
97.586s | tick 101177 | track 1 | ch 1 | Note On F5 (77) vel 25
97.586s | tick 101177 | track 1 | ch 1 | Note On F6 (89) vel 35
97.586s | tick 101177 | track 1 | ch 1 | Note On C#2 (37) vel 35
97.678s | tick 101273 | track 1 | ch 1 | Note Off C#2 (37) vel 0
97.678s | tick 101273 | track 1 | ch 1 | Note Off F6 (89) vel 0
97.678s | tick 101273 | track 1 | ch 1 | Note Off F5 (77) vel 0
97.678s | tick 101273 | track 1 | ch 1 | Note On G#5 (80) vel 25
97.678s | tick 101273 | track 1 | ch 1 | Note On G#6 (92) vel 35
97.678s | tick 101273 | track 1 | ch 1 | Note On C#2 (37) vel 35
97.771s | tick 101369 | track 1 | ch 1 | Note Off G#6 (92) vel 0
97.771s | tick 101369 | track 1 | ch 1 | Note Off G#5 (80) vel 0
97.771s | tick 101369 | track 1 | ch 1 | Note On G5 (79) vel 39
97.771s | tick 101369 | track 1 | ch 1 | Note On C1 (24) vel 30
97.864s | tick 101465 | track 1 | ch 1 | Note Off G5 (79) vel 0
97.864s | tick 101465 | track 1 | ch 1 | Note On C5 (72) vel 36
97.956s | tick 101561 | track 1 | ch 1 | Note Off C5 (72) vel 0
97.956s | tick 101561 | track 1 | ch 1 | Note On C2 (36) vel 33
97.956s | tick 101561 | track 1 | ch 1 | Note On D5 (74) vel 36
98.049s | tick 101657 | track 1 | ch 1 | Note Off D5 (74) vel 0
98.049s | tick 101657 | track 1 | ch 1 | Note On D#5 (75) vel 36
98.141s | tick 101753 | track 1 | ch 1 | Note Off D#5 (75) vel 0
98.141s | tick 101753 | track 1 | ch 1 | Note Off C2 (36) vel 0
98.141s | tick 101753 | track 1 | ch 1 | Note On D5 (74) vel 36
98.234s | tick 101849 | track 1 | ch 1 | Note Off D5 (74) vel 0
98.234s | tick 101849 | track 1 | ch 1 | Note On C5 (72) vel 36
98.326s | tick 101945 | track 1 | ch 1 | Note Off C5 (72) vel 0
98.326s | tick 101945 | track 1 | ch 1 | Note On G#5 (80) vel 39
98.326s | tick 101945 | track 1 | ch 1 | Note On C2 (36) vel 33
98.419s | tick 102041 | track 1 | ch 1 | Note Off G#5 (80) vel 0
98.419s | tick 102041 | track 1 | ch 1 | Note On C5 (72) vel 36
98.512s | tick 102137 | track 1 | ch 1 | Note Off C5 (72) vel 0
98.512s | tick 102137 | track 1 | ch 1 | Note Off C2 (36) vel 0
98.512s | tick 102137 | track 1 | ch 1 | Note On D5 (74) vel 36
98.604s | tick 102233 | track 1 | ch 1 | Note Off D5 (74) vel 0
98.604s | tick 102233 | track 1 | ch 1 | Note On D#5 (75) vel 36
98.697s | tick 102329 | track 1 | ch 1 | Note Off D#5 (75) vel 0
98.697s | tick 102329 | track 1 | ch 1 | Note On C2 (36) vel 33
98.697s | tick 102329 | track 1 | ch 1 | Note On D5 (74) vel 36
98.789s | tick 102425 | track 1 | ch 1 | Note Off D5 (74) vel 0
98.789s | tick 102425 | track 1 | ch 1 | Note On C5 (72) vel 36
98.882s | tick 102521 | track 1 | ch 1 | Note Off C5 (72) vel 0
98.882s | tick 102521 | track 1 | ch 1 | Note Off C2 (36) vel 0
98.882s | tick 102521 | track 1 | ch 1 | Note On G5 (79) vel 39
98.975s | tick 102617 | track 1 | ch 1 | Note Off G5 (79) vel 0
98.975s | tick 102617 | track 1 | ch 1 | Note On C5 (72) vel 36
99.067s | tick 102713 | track 1 | ch 1 | Note Off C5 (72) vel 0
99.067s | tick 102713 | track 1 | ch 1 | Note On C2 (36) vel 33
99.067s | tick 102713 | track 1 | ch 1 | Note On D5 (74) vel 36
99.160s | tick 102809 | track 1 | ch 1 | Note Off D5 (74) vel 0
99.160s | tick 102809 | track 1 | ch 1 | Note On D#5 (75) vel 36
99.252s | tick 102905 | track 1 | ch 1 | Note Off D#5 (75) vel 0
99.252s | tick 102905 | track 1 | ch 1 | Note Off C2 (36) vel 0
99.252s | tick 102905 | track 1 | ch 1 | Note Off C1 (24) vel 0
99.252s | tick 102905 | track 1 | ch 1 | Note On C1 (24) vel 29
99.252s | tick 102905 | track 1 | ch 1 | Note On D5 (74) vel 36
99.345s | tick 103001 | track 1 | ch 1 | Note Off D5 (74) vel 0
99.345s | tick 103001 | track 1 | ch 1 | Note Off C1 (24) vel 0
99.345s | tick 103001 | track 1 | ch 1 | Note On C5 (72) vel 36
99.438s | tick 103097 | track 1 | ch 1 | Note Off C5 (72) vel 0
99.438s | tick 103097 | track 1 | ch 1 | Note On A#5 (82) vel 39
99.438s | tick 103097 | track 1 | ch 1 | Note On C2 (36) vel 33
99.530s | tick 103193 | track 1 | ch 1 | Note Off A#5 (82) vel 0
99.530s | tick 103193 | track 1 | ch 1 | Note On C5 (72) vel 36
99.623s | tick 103289 | track 1 | ch 1 | Note Off C5 (72) vel 0
99.623s | tick 103289 | track 1 | ch 1 | Note Off C2 (36) vel 0
99.623s | tick 103289 | track 1 | ch 1 | Note On C1 (24) vel 29
99.623s | tick 103289 | track 1 | ch 1 | Note On D5 (74) vel 36
99.715s | tick 103385 | track 1 | ch 1 | Note Off D5 (74) vel 0
99.715s | tick 103385 | track 1 | ch 1 | Note On D#5 (75) vel 36
99.808s | tick 103481 | track 1 | ch 1 | Note Off D#5 (75) vel 0
99.808s | tick 103481 | track 1 | ch 1 | Note On D5 (74) vel 36
99.901s | tick 103577 | track 1 | ch 1 | Note Off D5 (74) vel 0
99.901s | tick 103577 | track 1 | ch 1 | Note On C5 (72) vel 36
99.993s | tick 103673 | track 1 | ch 1 | Note Off C2 (36) vel 0
99.993s | tick 103673 | track 1 | ch 1 | Note Off C5 (72) vel 0
99.993s | tick 103673 | track 1 | ch 1 | Note Off C1 (24) vel 0
99.993s | tick 103673 | track 1 | ch 1 | Note On G#5 (80) vel 39
99.993s | tick 103673 | track 1 | ch 1 | Note On C2 (36) vel 35
100.086s | tick 103769 | track 1 | ch 1 | Note Off C2 (36) vel 0
100.086s | tick 103769 | track 1 | ch 1 | Note Off G#5 (80) vel 0
100.086s | tick 103769 | track 1 | ch 1 | Note On C2 (36) vel 35
100.086s | tick 103769 | track 1 | ch 1 | Note On C5 (72) vel 36
100.178s | tick 103865 | track 1 | ch 1 | Note Off C2 (36) vel 0
100.178s | tick 103865 | track 1 | ch 1 | Note Off C5 (72) vel 0
100.178s | tick 103865 | track 1 | ch 1 | Note On C2 (36) vel 35
100.178s | tick 103865 | track 1 | ch 1 | Note On D5 (74) vel 36
100.271s | tick 103961 | track 1 | ch 1 | Note Off C2 (36) vel 0
100.271s | tick 103961 | track 1 | ch 1 | Note Off D5 (74) vel 0
100.271s | tick 103961 | track 1 | ch 1 | Note On C2 (36) vel 35
100.271s | tick 103961 | track 1 | ch 1 | Note On D#5 (75) vel 36
100.364s | tick 104057 | track 1 | ch 1 | Note Off C2 (36) vel 0
100.364s | tick 104057 | track 1 | ch 1 | Note Off D#5 (75) vel 0
100.364s | tick 104057 | track 1 | ch 1 | Note On G5 (79) vel 39
100.364s | tick 104057 | track 1 | ch 1 | Note On C2 (36) vel 35
100.456s | tick 104153 | track 1 | ch 1 | Note Off C2 (36) vel 0
100.456s | tick 104153 | track 1 | ch 1 | Note Off G5 (79) vel 0
100.456s | tick 104153 | track 1 | ch 1 | Note On C2 (36) vel 35
100.456s | tick 104153 | track 1 | ch 1 | Note On D#5 (75) vel 36
100.549s | tick 104249 | track 1 | ch 1 | Note Off C2 (36) vel 0
100.549s | tick 104249 | track 1 | ch 1 | Note Off D#5 (75) vel 0
100.549s | tick 104249 | track 1 | ch 1 | Note On C2 (36) vel 35
100.549s | tick 104249 | track 1 | ch 1 | Note On D5 (74) vel 36
100.641s | tick 104345 | track 1 | ch 1 | Note Off C2 (36) vel 0
100.641s | tick 104345 | track 1 | ch 1 | Note Off D5 (74) vel 0
100.641s | tick 104345 | track 1 | ch 1 | Note On C2 (36) vel 35
100.641s | tick 104345 | track 1 | ch 1 | Note On C5 (72) vel 36
100.734s | tick 104441 | track 1 | ch 1 | Note Off C5 (72) vel 0
100.734s | tick 104441 | track 1 | ch 1 | Note On G#5 (80) vel 39
100.734s | tick 104441 | track 1 | ch 1 | Note On G#1 (32) vel 30
100.826s | tick 104537 | track 1 | ch 1 | Note Off G#5 (80) vel 0
100.826s | tick 104537 | track 1 | ch 1 | Note On G#4 (68) vel 36
100.919s | tick 104633 | track 1 | ch 1 | Note Off G#4 (68) vel 0
100.919s | tick 104633 | track 1 | ch 1 | Note On G#2 (44) vel 33
100.919s | tick 104633 | track 1 | ch 1 | Note On C5 (72) vel 36
101.012s | tick 104729 | track 1 | ch 1 | Note Off C5 (72) vel 0
101.012s | tick 104729 | track 1 | ch 1 | Note On D#5 (75) vel 36
101.104s | tick 104825 | track 1 | ch 1 | Note Off D#5 (75) vel 0
101.104s | tick 104825 | track 1 | ch 1 | Note Off G#2 (44) vel 0
101.104s | tick 104825 | track 1 | ch 1 | Note On C5 (72) vel 36
101.197s | tick 104921 | track 1 | ch 1 | Note Off C5 (72) vel 0
101.197s | tick 104921 | track 1 | ch 1 | Note On G#4 (68) vel 36
101.289s | tick 105017 | track 1 | ch 1 | Note Off G#4 (68) vel 0
101.289s | tick 105017 | track 1 | ch 1 | Note On D#6 (87) vel 39
101.289s | tick 105017 | track 1 | ch 1 | Note On G#2 (44) vel 33
101.382s | tick 105113 | track 1 | ch 1 | Note Off D#6 (87) vel 0
101.382s | tick 105113 | track 1 | ch 1 | Note On G#4 (68) vel 36
101.475s | tick 105209 | track 1 | ch 1 | Note Off G#4 (68) vel 0
101.475s | tick 105209 | track 1 | ch 1 | Note Off G#2 (44) vel 0
101.475s | tick 105209 | track 1 | ch 1 | Note On C5 (72) vel 36
101.567s | tick 105305 | track 1 | ch 1 | Note Off C5 (72) vel 0
101.567s | tick 105305 | track 1 | ch 1 | Note On D#5 (75) vel 36
101.660s | tick 105401 | track 1 | ch 1 | Note Off D#5 (75) vel 0
101.660s | tick 105401 | track 1 | ch 1 | Note On G#2 (44) vel 33
101.660s | tick 105401 | track 1 | ch 1 | Note On C5 (72) vel 36
101.752s | tick 105497 | track 1 | ch 1 | Note Off C5 (72) vel 0
101.752s | tick 105497 | track 1 | ch 1 | Note On G#4 (68) vel 36
101.845s | tick 105593 | track 1 | ch 1 | Note Off G#4 (68) vel 0
101.845s | tick 105593 | track 1 | ch 1 | Note Off G#2 (44) vel 0
101.845s | tick 105593 | track 1 | ch 1 | Note On D6 (86) vel 39
101.938s | tick 105689 | track 1 | ch 1 | Note Off D6 (86) vel 0
101.938s | tick 105689 | track 1 | ch 1 | Note On G#4 (68) vel 36
102.030s | tick 105785 | track 1 | ch 1 | Note Off G#4 (68) vel 0
102.030s | tick 105785 | track 1 | ch 1 | Note On G#2 (44) vel 33
102.030s | tick 105785 | track 1 | ch 1 | Note On C5 (72) vel 36
102.123s | tick 105881 | track 1 | ch 1 | Note Off C5 (72) vel 0
102.123s | tick 105881 | track 1 | ch 1 | Note On D#5 (75) vel 36
102.215s | tick 105977 | track 1 | ch 1 | Note Off D#5 (75) vel 0
102.215s | tick 105977 | track 1 | ch 1 | Note Off G#2 (44) vel 0
102.215s | tick 105977 | track 1 | ch 1 | Note Off G#1 (32) vel 0
102.215s | tick 105977 | track 1 | ch 1 | Note On G#1 (32) vel 29
102.215s | tick 105977 | track 1 | ch 1 | Note On C5 (72) vel 36
102.308s | tick 106073 | track 1 | ch 1 | Note Off C5 (72) vel 0
102.308s | tick 106073 | track 1 | ch 1 | Note Off G#1 (32) vel 0
102.308s | tick 106073 | track 1 | ch 1 | Note On G#4 (68) vel 36
102.401s | tick 106169 | track 1 | ch 1 | Note Off G#4 (68) vel 0
102.401s | tick 106169 | track 1 | ch 1 | Note On A#5 (82) vel 39
102.401s | tick 106169 | track 1 | ch 1 | Note On G#2 (44) vel 33
102.493s | tick 106265 | track 1 | ch 1 | Note Off A#5 (82) vel 0
102.493s | tick 106265 | track 1 | ch 1 | Note On G#4 (68) vel 36
102.586s | tick 106361 | track 1 | ch 1 | Note Off G#4 (68) vel 0
102.586s | tick 106361 | track 1 | ch 1 | Note Off G#2 (44) vel 0
102.586s | tick 106361 | track 1 | ch 1 | Note On G#1 (32) vel 29
102.586s | tick 106361 | track 1 | ch 1 | Note On C5 (72) vel 36
102.678s | tick 106457 | track 1 | ch 1 | Note Off C5 (72) vel 0
102.678s | tick 106457 | track 1 | ch 1 | Note On D#5 (75) vel 36
102.771s | tick 106553 | track 1 | ch 1 | Note Off D#5 (75) vel 0
102.771s | tick 106553 | track 1 | ch 1 | Note On C5 (72) vel 36
102.864s | tick 106649 | track 1 | ch 1 | Note Off C5 (72) vel 0
102.864s | tick 106649 | track 1 | ch 1 | Note On G#4 (68) vel 36
102.956s | tick 106745 | track 1 | ch 1 | Note Off G#2 (44) vel 0
102.956s | tick 106745 | track 1 | ch 1 | Note Off G#4 (68) vel 0
102.956s | tick 106745 | track 1 | ch 1 | Note Off G#1 (32) vel 0
102.956s | tick 106745 | track 1 | ch 1 | Note On D6 (86) vel 39
102.956s | tick 106745 | track 1 | ch 1 | Note On G#2 (44) vel 35
103.049s | tick 106841 | track 1 | ch 1 | Note Off G#2 (44) vel 0
103.049s | tick 106841 | track 1 | ch 1 | Note Off D6 (86) vel 0
103.049s | tick 106841 | track 1 | ch 1 | Note On G#2 (44) vel 35
103.049s | tick 106841 | track 1 | ch 1 | Note On G#4 (68) vel 36
103.141s | tick 106937 | track 1 | ch 1 | Note Off G#2 (44) vel 0
103.141s | tick 106937 | track 1 | ch 1 | Note Off G#4 (68) vel 0
103.141s | tick 106937 | track 1 | ch 1 | Note On G#2 (44) vel 35
103.141s | tick 106937 | track 1 | ch 1 | Note On C5 (72) vel 36
103.234s | tick 107033 | track 1 | ch 1 | Note Off G#2 (44) vel 0
103.234s | tick 107033 | track 1 | ch 1 | Note Off C5 (72) vel 0
103.234s | tick 107033 | track 1 | ch 1 | Note On G#2 (44) vel 35
103.234s | tick 107033 | track 1 | ch 1 | Note On D#5 (75) vel 36
103.326s | tick 107129 | track 1 | ch 1 | Note Off G#2 (44) vel 0
103.326s | tick 107129 | track 1 | ch 1 | Note Off D#5 (75) vel 0
103.326s | tick 107129 | track 1 | ch 1 | Note On D#6 (87) vel 39
103.326s | tick 107129 | track 1 | ch 1 | Note On G#2 (44) vel 35
103.419s | tick 107225 | track 1 | ch 1 | Note Off G#2 (44) vel 0
103.419s | tick 107225 | track 1 | ch 1 | Note Off D#6 (87) vel 0
103.419s | tick 107225 | track 1 | ch 1 | Note On G#2 (44) vel 35
103.419s | tick 107225 | track 1 | ch 1 | Note On D#5 (75) vel 36
103.512s | tick 107321 | track 1 | ch 1 | Note Off G#2 (44) vel 0
103.512s | tick 107321 | track 1 | ch 1 | Note Off D#5 (75) vel 0
103.512s | tick 107321 | track 1 | ch 1 | Note On G#2 (44) vel 35
103.512s | tick 107321 | track 1 | ch 1 | Note On C5 (72) vel 36
103.604s | tick 107417 | track 1 | ch 1 | Note Off G#2 (44) vel 0
103.604s | tick 107417 | track 1 | ch 1 | Note Off C5 (72) vel 0
103.604s | tick 107417 | track 1 | ch 1 | Note On G#2 (44) vel 35
103.604s | tick 107417 | track 1 | ch 1 | Note On G#4 (68) vel 36
103.697s | tick 107513 | track 1 | ch 1 | Note Off G#4 (68) vel 0
103.697s | tick 107513 | track 1 | ch 1 | Note On A#5 (82) vel 39
103.697s | tick 107513 | track 1 | ch 1 | Note On D#1 (27) vel 30
103.789s | tick 107609 | track 1 | ch 1 | Note Off A#5 (82) vel 0
103.789s | tick 107609 | track 1 | ch 1 | Note On G4 (67) vel 38
103.882s | tick 107705 | track 1 | ch 1 | Note Off G4 (67) vel 0
103.882s | tick 107705 | track 1 | ch 1 | Note On D#2 (39) vel 33
103.882s | tick 107705 | track 1 | ch 1 | Note On A#4 (70) vel 38
103.975s | tick 107801 | track 1 | ch 1 | Note Off A#4 (70) vel 0
103.975s | tick 107801 | track 1 | ch 1 | Note On D#5 (75) vel 38
104.067s | tick 107897 | track 1 | ch 1 | Note Off D#5 (75) vel 0
104.067s | tick 107897 | track 1 | ch 1 | Note Off D#2 (39) vel 0
104.067s | tick 107897 | track 1 | ch 1 | Note On A#4 (70) vel 37
104.160s | tick 107993 | track 1 | ch 1 | Note Off A#4 (70) vel 0
104.160s | tick 107993 | track 1 | ch 1 | Note On G4 (67) vel 37
104.252s | tick 108089 | track 1 | ch 1 | Note Off G4 (67) vel 0
104.252s | tick 108089 | track 1 | ch 1 | Note On G#5 (80) vel 39
104.252s | tick 108089 | track 1 | ch 1 | Note On D#2 (39) vel 33
104.345s | tick 108185 | track 1 | ch 1 | Note Off G#5 (80) vel 0
104.345s | tick 108185 | track 1 | ch 1 | Note On G4 (67) vel 38
104.438s | tick 108281 | track 1 | ch 1 | Note Off G4 (67) vel 0
104.438s | tick 108281 | track 1 | ch 1 | Note Off D#2 (39) vel 0
104.438s | tick 108281 | track 1 | ch 1 | Note On A#4 (70) vel 38
104.530s | tick 108377 | track 1 | ch 1 | Note Off A#4 (70) vel 0
104.530s | tick 108377 | track 1 | ch 1 | Note On D#5 (75) vel 38
104.623s | tick 108473 | track 1 | ch 1 | Note Off D#5 (75) vel 0
104.623s | tick 108473 | track 1 | ch 1 | Note On D#2 (39) vel 33
104.623s | tick 108473 | track 1 | ch 1 | Note On A#4 (70) vel 36
104.715s | tick 108569 | track 1 | ch 1 | Note Off A#4 (70) vel 0
104.715s | tick 108569 | track 1 | ch 1 | Note On G4 (67) vel 37
104.808s | tick 108665 | track 1 | ch 1 | Note Off G4 (67) vel 0
104.808s | tick 108665 | track 1 | ch 1 | Note Off D#2 (39) vel 0
104.808s | tick 108665 | track 1 | ch 1 | Note On G5 (79) vel 39
104.901s | tick 108761 | track 1 | ch 1 | Note Off G5 (79) vel 0
104.901s | tick 108761 | track 1 | ch 1 | Note On G4 (67) vel 38
104.993s | tick 108857 | track 1 | ch 1 | Note Off G4 (67) vel 0
104.993s | tick 108857 | track 1 | ch 1 | Note On D#2 (39) vel 33
104.993s | tick 108857 | track 1 | ch 1 | Note On A#4 (70) vel 38
105.086s | tick 108953 | track 1 | ch 1 | Note Off A#4 (70) vel 0
105.086s | tick 108953 | track 1 | ch 1 | Note On D#5 (75) vel 38
105.178s | tick 109049 | track 1 | ch 1 | Note Off D#5 (75) vel 0
105.178s | tick 109049 | track 1 | ch 1 | Note Off D#2 (39) vel 0
105.178s | tick 109049 | track 1 | ch 1 | Note Off D#1 (27) vel 0
105.178s | tick 109049 | track 1 | ch 1 | Note On D#1 (27) vel 29
105.178s | tick 109049 | track 1 | ch 1 | Note On A#4 (70) vel 36
105.271s | tick 109145 | track 1 | ch 1 | Note Off A#4 (70) vel 0
105.271s | tick 109145 | track 1 | ch 1 | Note Off D#1 (27) vel 0
105.271s | tick 109145 | track 1 | ch 1 | Note On G4 (67) vel 35
105.364s | tick 109241 | track 1 | ch 1 | Note Off G4 (67) vel 0
105.364s | tick 109241 | track 1 | ch 1 | Note On G#5 (80) vel 39
105.364s | tick 109241 | track 1 | ch 1 | Note On D#2 (39) vel 33
105.456s | tick 109337 | track 1 | ch 1 | Note Off G#5 (80) vel 0
105.456s | tick 109337 | track 1 | ch 1 | Note On G4 (67) vel 38
105.549s | tick 109433 | track 1 | ch 1 | Note Off G4 (67) vel 0
105.549s | tick 109433 | track 1 | ch 1 | Note Off D#2 (39) vel 0
105.549s | tick 109433 | track 1 | ch 1 | Note On D#1 (27) vel 29
105.549s | tick 109433 | track 1 | ch 1 | Note On A#4 (70) vel 38
105.641s | tick 109529 | track 1 | ch 1 | Note Off A#4 (70) vel 0
105.641s | tick 109529 | track 1 | ch 1 | Note On D#5 (75) vel 38
105.734s | tick 109625 | track 1 | ch 1 | Note Off D#5 (75) vel 0
105.734s | tick 109625 | track 1 | ch 1 | Note On A#4 (70) vel 33
105.826s | tick 109721 | track 1 | ch 1 | Note Off A#4 (70) vel 0
105.826s | tick 109721 | track 1 | ch 1 | Note On G4 (67) vel 35
105.919s | tick 109817 | track 1 | ch 1 | Note Off D#2 (39) vel 0
105.919s | tick 109817 | track 1 | ch 1 | Note Off G4 (67) vel 0
105.919s | tick 109817 | track 1 | ch 1 | Note Off D#1 (27) vel 0
105.919s | tick 109817 | track 1 | ch 1 | Note On G5 (79) vel 39
105.919s | tick 109817 | track 1 | ch 1 | Note On D#2 (39) vel 35
105.919s | tick 109817 | track 1 | ch 1 | Note On D#5 (75) vel 38
106.012s | tick 109913 | track 1 | ch 1 | Note Off D#2 (39) vel 0
106.012s | tick 109913 | track 1 | ch 1 | Note Off D#5 (75) vel 0
106.012s | tick 109913 | track 1 | ch 1 | Note Off G5 (79) vel 0
106.012s | tick 109913 | track 1 | ch 1 | Note On D#2 (39) vel 35
106.012s | tick 109913 | track 1 | ch 1 | Note On G4 (67) vel 38
106.104s | tick 110009 | track 1 | ch 1 | Note Off D#2 (39) vel 0
106.104s | tick 110009 | track 1 | ch 1 | Note Off G4 (67) vel 0
106.104s | tick 110009 | track 1 | ch 1 | Note On D#2 (39) vel 35
106.104s | tick 110009 | track 1 | ch 1 | Note On A#4 (70) vel 38
106.197s | tick 110105 | track 1 | ch 1 | Note Off D#2 (39) vel 0
106.197s | tick 110105 | track 1 | ch 1 | Note Off A#4 (70) vel 0
106.197s | tick 110105 | track 1 | ch 1 | Note On D#2 (39) vel 35
106.197s | tick 110105 | track 1 | ch 1 | Note On G4 (67) vel 38
106.289s | tick 110201 | track 1 | ch 1 | Note Off D#2 (39) vel 0
106.289s | tick 110201 | track 1 | ch 1 | Note Off G4 (67) vel 0
106.289s | tick 110201 | track 1 | ch 1 | Note On D#5 (75) vel 39
106.289s | tick 110201 | track 1 | ch 1 | Note On D#2 (39) vel 35
106.382s | tick 110297 | track 1 | ch 1 | Note Off D#2 (39) vel 0
106.382s | tick 110297 | track 1 | ch 1 | Note Off D#5 (75) vel 0
106.382s | tick 110297 | track 1 | ch 1 | Note On D#2 (39) vel 35
106.382s | tick 110297 | track 1 | ch 1 | Note On G4 (67) vel 38
106.475s | tick 110393 | track 1 | ch 1 | Note Off D#2 (39) vel 0
106.475s | tick 110393 | track 1 | ch 1 | Note Off G4 (67) vel 0
106.475s | tick 110393 | track 1 | ch 1 | Note On D#2 (39) vel 35
106.475s | tick 110393 | track 1 | ch 1 | Note On A#4 (70) vel 38
106.567s | tick 110489 | track 1 | ch 1 | Note Off D#2 (39) vel 0
106.567s | tick 110489 | track 1 | ch 1 | Note Off A#4 (70) vel 0
106.567s | tick 110489 | track 1 | ch 1 | Note On D#2 (39) vel 35
106.567s | tick 110489 | track 1 | ch 1 | Note On G4 (67) vel 38
106.660s | tick 110585 | track 1 | ch 1 | Note Off G4 (67) vel 0
106.660s | tick 110585 | track 1 | ch 1 | Note On B4 (71) vel 36
106.660s | tick 110585 | track 1 | ch 1 | Note On G4 (67) vel 24
106.752s | tick 110681 | track 1 | ch 1 | Note Off G4 (67) vel 0
106.752s | tick 110681 | track 1 | ch 1 | Note Off B4 (71) vel 0
106.752s | tick 110681 | track 1 | ch 1 | Note On D#4 (63) vel 36
106.752s | tick 110681 | track 1 | ch 1 | Note On B3 (59) vel 27
106.845s | tick 110777 | track 1 | ch 1 | Note Off B3 (59) vel 0
106.845s | tick 110777 | track 1 | ch 1 | Note Off D#4 (63) vel 0
106.845s | tick 110777 | track 1 | ch 1 | Note On G4 (67) vel 36
106.845s | tick 110777 | track 1 | ch 1 | Note On G2 (43) vel 35
106.845s | tick 110777 | track 1 | ch 1 | Note On D#4 (63) vel 25
106.938s | tick 110873 | track 1 | ch 1 | Note Off D#4 (63) vel 0
106.938s | tick 110873 | track 1 | ch 1 | Note Off G4 (67) vel 0
106.938s | tick 110873 | track 1 | ch 1 | Note On B4 (71) vel 35
106.938s | tick 110873 | track 1 | ch 1 | Note On B3 (59) vel 25
107.030s | tick 110969 | track 1 | ch 1 | Note Off B3 (59) vel 0
107.030s | tick 110969 | track 1 | ch 1 | Note Off B4 (71) vel 0
107.030s | tick 110969 | track 1 | ch 1 | Note Off G2 (43) vel 0
107.030s | tick 110969 | track 1 | ch 1 | Note On D5 (74) vel 36
107.030s | tick 110969 | track 1 | ch 1 | Note On B4 (71) vel 31
107.123s | tick 111065 | track 1 | ch 1 | Note Off B4 (71) vel 0
107.123s | tick 111065 | track 1 | ch 1 | Note Off D5 (74) vel 0
107.123s | tick 111065 | track 1 | ch 1 | Note On G4 (67) vel 36
107.123s | tick 111065 | track 1 | ch 1 | Note On B4 (71) vel 31
107.215s | tick 111161 | track 1 | ch 1 | Note Off B4 (71) vel 0
107.215s | tick 111161 | track 1 | ch 1 | Note Off G4 (67) vel 0
107.215s | tick 111161 | track 1 | ch 1 | Note On F5 (77) vel 36
107.215s | tick 111161 | track 1 | ch 1 | Note On G2 (43) vel 35
107.215s | tick 111161 | track 1 | ch 1 | Note On D5 (74) vel 31
107.308s | tick 111257 | track 1 | ch 1 | Note Off D5 (74) vel 0
107.308s | tick 111257 | track 1 | ch 1 | Note Off F5 (77) vel 0
107.308s | tick 111257 | track 1 | ch 1 | Note On D5 (74) vel 36
107.308s | tick 111257 | track 1 | ch 1 | Note On B4 (71) vel 31
107.401s | tick 111353 | track 1 | ch 1 | Note Off B4 (71) vel 0
107.401s | tick 111353 | track 1 | ch 1 | Note Off D5 (74) vel 0
107.401s | tick 111353 | track 1 | ch 1 | Note Off G2 (43) vel 0
107.401s | tick 111353 | track 1 | ch 1 | Note On F5 (77) vel 36
107.401s | tick 111353 | track 1 | ch 1 | Note On D5 (74) vel 31
107.493s | tick 111449 | track 1 | ch 1 | Note Off D5 (74) vel 0
107.493s | tick 111449 | track 1 | ch 1 | Note Off F5 (77) vel 0
107.493s | tick 111449 | track 1 | ch 1 | Note On D5 (74) vel 36
107.493s | tick 111449 | track 1 | ch 1 | Note On B4 (71) vel 31
107.586s | tick 111545 | track 1 | ch 1 | Note Off B4 (71) vel 0
107.586s | tick 111545 | track 1 | ch 1 | Note Off D5 (74) vel 0
107.586s | tick 111545 | track 1 | ch 1 | Note On G5 (79) vel 36
107.586s | tick 111545 | track 1 | ch 1 | Note On G2 (43) vel 35
107.586s | tick 111545 | track 1 | ch 1 | Note On F5 (77) vel 31
107.678s | tick 111641 | track 1 | ch 1 | Note Off F5 (77) vel 0
107.678s | tick 111641 | track 1 | ch 1 | Note Off G5 (79) vel 0
107.678s | tick 111641 | track 1 | ch 1 | Note On F5 (77) vel 36
107.771s | tick 111737 | track 1 | ch 1 | Note Off F5 (77) vel 0
107.771s | tick 111737 | track 1 | ch 1 | Note Off G2 (43) vel 0
107.771s | tick 111737 | track 1 | ch 1 | Note On F5 (77) vel 36
107.771s | tick 111737 | track 1 | ch 1 | Note On G5 (79) vel 33
107.864s | tick 111833 | track 1 | ch 1 | Note Off G5 (79) vel 0
107.864s | tick 111833 | track 1 | ch 1 | Note Off F5 (77) vel 0
107.864s | tick 111833 | track 1 | ch 1 | Note On D5 (74) vel 38
107.864s | tick 111833 | track 1 | ch 1 | Note On F5 (77) vel 33
107.956s | tick 111929 | track 1 | ch 1 | Note Off F5 (77) vel 0
107.956s | tick 111929 | track 1 | ch 1 | Note Off D5 (74) vel 0
107.956s | tick 111929 | track 1 | ch 1 | Note On B5 (83) vel 38
107.956s | tick 111929 | track 1 | ch 1 | Note On G2 (43) vel 35
107.956s | tick 111929 | track 1 | ch 1 | Note On G6 (91) vel 25
108.049s | tick 112025 | track 1 | ch 1 | Note Off G6 (91) vel 0
108.049s | tick 112025 | track 1 | ch 1 | Note Off B5 (83) vel 0
108.049s | tick 112025 | track 1 | ch 1 | Note On G5 (79) vel 38
108.049s | tick 112025 | track 1 | ch 1 | Note On B5 (83) vel 33
108.141s | tick 112121 | track 1 | ch 1 | Note Off B5 (83) vel 0
108.141s | tick 112121 | track 1 | ch 1 | Note Off G5 (79) vel 0
108.141s | tick 112121 | track 1 | ch 1 | Note Off G2 (43) vel 0
108.141s | tick 112121 | track 1 | ch 1 | Note On B5 (83) vel 36
108.141s | tick 112121 | track 1 | ch 1 | Note On B6 (95) vel 25
108.234s | tick 112217 | track 1 | ch 1 | Note Off B6 (95) vel 0
108.234s | tick 112217 | track 1 | ch 1 | Note Off B5 (83) vel 0
108.234s | tick 112217 | track 1 | ch 1 | Note On G6 (91) vel 36
108.234s | tick 112217 | track 1 | ch 1 | Note On B5 (83) vel 33
108.326s | tick 112313 | track 1 | ch 1 | Note Off B5 (83) vel 0
108.326s | tick 112313 | track 1 | ch 1 | Note Off G6 (91) vel 0
108.326s | tick 112313 | track 1 | ch 1 | Note On D6 (86) vel 36
108.326s | tick 112313 | track 1 | ch 1 | Note On G2 (43) vel 35
108.326s | tick 112313 | track 1 | ch 1 | Note On G6 (91) vel 20
108.419s | tick 112409 | track 1 | ch 1 | Note Off G6 (91) vel 0
108.419s | tick 112409 | track 1 | ch 1 | Note Off D6 (86) vel 0
108.419s | tick 112409 | track 1 | ch 1 | Note On B6 (95) vel 36
108.419s | tick 112409 | track 1 | ch 1 | Note On B5 (83) vel 28
108.512s | tick 112505 | track 1 | ch 1 | Note Off B5 (83) vel 0
108.512s | tick 112505 | track 1 | ch 1 | Note Off B6 (95) vel 0
108.512s | tick 112505 | track 1 | ch 1 | Note Off G2 (43) vel 0
108.512s | tick 112505 | track 1 | ch 1 | Note On B5 (83) vel 36
108.512s | tick 112505 | track 1 | ch 1 | Note On D3 (50) vel 36
108.512s | tick 112505 | track 1 | ch 1 | Note On D6 (86) vel 28
108.604s | tick 112601 | track 1 | ch 1 | Note Off D6 (86) vel 0
108.604s | tick 112601 | track 1 | ch 1 | Note Off D3 (50) vel 0
108.604s | tick 112601 | track 1 | ch 1 | Note Off B5 (83) vel 0
108.604s | tick 112601 | track 1 | ch 1 | Note On G5 (79) vel 36
108.604s | tick 112601 | track 1 | ch 1 | Note On B2 (47) vel 36
108.604s | tick 112601 | track 1 | ch 1 | Note On B5 (83) vel 28
108.697s | tick 112697 | track 1 | ch 1 | Note Off B5 (83) vel 0
108.697s | tick 112697 | track 1 | ch 1 | Note Off B2 (47) vel 0
108.697s | tick 112697 | track 1 | ch 1 | Note Off G5 (79) vel 0
108.697s | tick 112697 | track 1 | ch 1 | Note On D6 (86) vel 36
108.697s | tick 112697 | track 1 | ch 1 | Note On F3 (53) vel 36
108.697s | tick 112697 | track 1 | ch 1 | Note On G6 (91) vel 25
108.789s | tick 112793 | track 1 | ch 1 | Note Off G6 (91) vel 0
108.789s | tick 112793 | track 1 | ch 1 | Note Off F3 (53) vel 0
108.789s | tick 112793 | track 1 | ch 1 | Note Off D6 (86) vel 0
108.789s | tick 112793 | track 1 | ch 1 | Note On B5 (83) vel 36
108.789s | tick 112793 | track 1 | ch 1 | Note On D3 (50) vel 36
108.789s | tick 112793 | track 1 | ch 1 | Note On D6 (86) vel 28
108.882s | tick 112889 | track 1 | ch 1 | Note Off D6 (86) vel 0
108.882s | tick 112889 | track 1 | ch 1 | Note Off D3 (50) vel 0
108.882s | tick 112889 | track 1 | ch 1 | Note Off B5 (83) vel 0
108.882s | tick 112889 | track 1 | ch 1 | Note On G6 (91) vel 36
108.882s | tick 112889 | track 1 | ch 1 | Note On G3 (55) vel 36
108.975s | tick 112985 | track 1 | ch 1 | Note Off G3 (55) vel 0
108.975s | tick 112985 | track 1 | ch 1 | Note Off G6 (91) vel 0
108.975s | tick 112985 | track 1 | ch 1 | Note On F6 (89) vel 36
108.975s | tick 112985 | track 1 | ch 1 | Note On F3 (53) vel 36
109.067s | tick 113081 | track 1 | ch 1 | Note Off F3 (53) vel 0
109.067s | tick 113081 | track 1 | ch 1 | Note Off F6 (89) vel 0
109.067s | tick 113081 | track 1 | ch 1 | Note On D#6 (87) vel 36
109.067s | tick 113081 | track 1 | ch 1 | Note On D#3 (51) vel 36
109.160s | tick 113177 | track 1 | ch 1 | Note Off D#3 (51) vel 0
109.160s | tick 113177 | track 1 | ch 1 | Note Off D#6 (87) vel 0
109.160s | tick 113177 | track 1 | ch 1 | Note On D6 (86) vel 36
109.160s | tick 113177 | track 1 | ch 1 | Note On D3 (50) vel 36
109.252s | tick 113273 | track 1 | ch 1 | Note Off D3 (50) vel 0
109.252s | tick 113273 | track 1 | ch 1 | Note Off D6 (86) vel 0
109.252s | tick 113273 | track 1 | ch 1 | Note On F6 (89) vel 36
109.252s | tick 113273 | track 1 | ch 1 | Note On F3 (53) vel 36
109.345s | tick 113369 | track 1 | ch 1 | Note Off F3 (53) vel 0
109.345s | tick 113369 | track 1 | ch 1 | Note Off F6 (89) vel 0
109.345s | tick 113369 | track 1 | ch 1 | Note On D#6 (87) vel 36
109.345s | tick 113369 | track 1 | ch 1 | Note On D#3 (51) vel 36
109.438s | tick 113465 | track 1 | ch 1 | Note Off D#3 (51) vel 0
109.438s | tick 113465 | track 1 | ch 1 | Note Off D#6 (87) vel 0
109.438s | tick 113465 | track 1 | ch 1 | Note On D6 (86) vel 36
109.438s | tick 113465 | track 1 | ch 1 | Note On D3 (50) vel 36
109.530s | tick 113561 | track 1 | ch 1 | Note Off D3 (50) vel 0
109.530s | tick 113561 | track 1 | ch 1 | Note Off D6 (86) vel 0
109.530s | tick 113561 | track 1 | ch 1 | Note On D#6 (87) vel 38
109.530s | tick 113561 | track 1 | ch 1 | Note On D#3 (51) vel 36
109.623s | tick 113657 | track 1 | ch 1 | Note Off D#3 (51) vel 0
109.623s | tick 113657 | track 1 | ch 1 | Note Off D#6 (87) vel 0
109.623s | tick 113657 | track 1 | ch 1 | Note On D#5 (75) vel 35
109.623s | tick 113657 | track 1 | ch 1 | Note On C6 (84) vel 36
109.623s | tick 113657 | track 1 | ch 1 | Note On C3 (48) vel 31
109.808s | tick 113849 | track 1 | ch 1 | Note Off D#5 (75) vel 0
109.808s | tick 113849 | track 1 | ch 1 | Note On G4 (67) vel 36
109.993s | tick 114041 | track 1 | ch 1 | Note Off G4 (67) vel 0
109.993s | tick 114041 | track 1 | ch 1 | Note On C5 (72) vel 36
109.993s | tick 114041 | track 1 | ch 1 | Note On G3 (55) vel 31
110.178s | tick 114233 | track 1 | ch 1 | Note Off C5 (72) vel 0
110.178s | tick 114233 | track 1 | ch 1 | Note Off C3 (48) vel 0
110.178s | tick 114233 | track 1 | ch 1 | Note On D5 (74) vel 36
110.178s | tick 114233 | track 1 | ch 1 | Note On C4 (60) vel 31
110.364s | tick 114425 | track 1 | ch 1 | Note Off D5 (74) vel 0
110.364s | tick 114425 | track 1 | ch 1 | Note Off G3 (55) vel 0
110.364s | tick 114425 | track 1 | ch 1 | Note On D#5 (75) vel 36
110.549s | tick 114617 | track 1 | ch 1 | Note On G4 (67) vel 36
110.734s | tick 114809 | track 1 | ch 1 | Note Off G4 (67) vel 0
110.734s | tick 114809 | track 1 | ch 1 | Note Off D#5 (75) vel 0
110.734s | tick 114809 | track 1 | ch 1 | Note On C5 (72) vel 36
110.734s | tick 114809 | track 1 | ch 1 | Note On D#4 (63) vel 31
110.919s | tick 115001 | track 1 | ch 1 | Note Off C5 (72) vel 0
110.919s | tick 115001 | track 1 | ch 1 | Note Off C4 (60) vel 0
110.919s | tick 115001 | track 1 | ch 1 | Note On D#5 (75) vel 36
111.104s | tick 115193 | track 1 | ch 1 | Note Off D#5 (75) vel 0
111.104s | tick 115193 | track 1 | ch 1 | Note Off C6 (84) vel 0
111.104s | tick 115193 | track 1 | ch 1 | Note On D5 (74) vel 36
111.104s | tick 115193 | track 1 | ch 1 | Note On D4 (62) vel 31
111.289s | tick 115385 | track 1 | ch 1 | Note Off D#4 (63) vel 0
111.289s | tick 115385 | track 1 | ch 1 | Note On F4 (65) vel 36
111.475s | tick 115577 | track 1 | ch 1 | Note Off F4 (65) vel 0
111.475s | tick 115577 | track 1 | ch 1 | Note Off D5 (74) vel 0
111.475s | tick 115577 | track 1 | ch 1 | Note On A#4 (70) vel 36
111.660s | tick 115769 | track 1 | ch 1 | Note Off A#4 (70) vel 0
111.660s | tick 115769 | track 1 | ch 1 | Note On C5 (72) vel 36
111.660s | tick 115769 | track 1 | ch 1 | Note On C4 (60) vel 31
111.845s | tick 115961 | track 1 | ch 1 | Note Off D4 (62) vel 0
112.030s | tick 116153 | track 1 | ch 1 | Note Off C5 (72) vel 0
112.030s | tick 116153 | track 1 | ch 1 | Note On D#4 (63) vel 36
112.215s | tick 116345 | track 1 | ch 1 | Note Off D#4 (63) vel 0
112.215s | tick 116345 | track 1 | ch 1 | Note On A#4 (70) vel 36
112.215s | tick 116345 | track 1 | ch 1 | Note On A#3 (58) vel 31
112.401s | tick 116537 | track 1 | ch 1 | Note Off A#4 (70) vel 0
112.401s | tick 116537 | track 1 | ch 1 | Note Off C4 (60) vel 0
112.401s | tick 116537 | track 1 | ch 1 | Note On G#4 (68) vel 36
112.401s | tick 116537 | track 1 | ch 1 | Note On G#3 (56) vel 31
112.586s | tick 116729 | track 1 | ch 1 | Note Off G#4 (68) vel 0
112.586s | tick 116729 | track 1 | ch 1 | Note Off A#3 (58) vel 0
112.586s | tick 116729 | track 1 | ch 1 | Note On A#4 (70) vel 36
112.771s | tick 116921 | track 1 | ch 1 | Note Off G#3 (56) vel 0
112.771s | tick 116921 | track 1 | ch 1 | Note On A#3 (58) vel 36
112.956s | tick 117113 | track 1 | ch 1 | Note Off A#3 (58) vel 0
112.956s | tick 117113 | track 1 | ch 1 | Note Off A#4 (70) vel 0
112.956s | tick 117113 | track 1 | ch 1 | Note On D#4 (63) vel 36
113.141s | tick 117305 | track 1 | ch 1 | Note On A#3 (58) vel 36
113.326s | tick 117497 | track 1 | ch 1 | Note Off A#3 (58) vel 0
113.326s | tick 117497 | track 1 | ch 1 | Note Off D#4 (63) vel 0
113.326s | tick 117497 | track 1 | ch 1 | Note On D#4 (63) vel 36
113.326s | tick 117497 | track 1 | ch 1 | Note On D#3 (51) vel 31
113.326s | tick 117497 | track 1 | ch 1 | Note On D#3 (51) vel 31
113.512s | tick 117689 | track 1 | ch 1 | Note Off D#3 (51) vel 0
113.512s | tick 117689 | track 1 | ch 1 | Note Off D#4 (63) vel 0
113.512s | tick 117689 | track 1 | ch 1 | Note On F4 (65) vel 36
113.512s | tick 117689 | track 1 | ch 1 | Note On F3 (53) vel 31
113.697s | tick 117881 | track 1 | ch 1 | Note Off F4 (65) vel 0
113.697s | tick 117881 | track 1 | ch 1 | Note Off D#3 (51) vel 0
113.697s | tick 117881 | track 1 | ch 1 | Note On G4 (67) vel 36
113.697s | tick 117881 | track 1 | ch 1 | Note On G3 (55) vel 31
113.882s | tick 118073 | track 1 | ch 1 | Note Off F3 (53) vel 0
113.882s | tick 118073 | track 1 | ch 1 | Note On A#3 (58) vel 36
114.067s | tick 118265 | track 1 | ch 1 | Note Off A#3 (58) vel 0
114.067s | tick 118265 | track 1 | ch 1 | Note Off G4 (67) vel 0
114.067s | tick 118265 | track 1 | ch 1 | Note On G#4 (68) vel 36
114.252s | tick 118457 | track 1 | ch 1 | Note Off G3 (55) vel 0
114.252s | tick 118457 | track 1 | ch 1 | Note On C4 (60) vel 36
114.438s | tick 118649 | track 1 | ch 1 | Note Off C4 (60) vel 0
114.438s | tick 118649 | track 1 | ch 1 | Note Off G#4 (68) vel 0
114.438s | tick 118649 | track 1 | ch 1 | Note On F4 (65) vel 36
114.623s | tick 118841 | track 1 | ch 1 | Note Off F4 (65) vel 0
114.623s | tick 118841 | track 1 | ch 1 | Note On G4 (67) vel 36
114.993s | tick 119225 | track 1 | ch 1 | Note On C4 (60) vel 36
115.178s | tick 119417 | track 1 | ch 1 | Note Off C4 (60) vel 0
115.178s | tick 119417 | track 1 | ch 1 | Note Off G4 (67) vel 0
115.178s | tick 119417 | track 1 | ch 1 | Note On D4 (62) vel 36
115.178s | tick 119417 | track 1 | ch 1 | Note On F3 (53) vel 31
115.364s | tick 119609 | track 1 | ch 1 | Note Off D4 (62) vel 0
115.364s | tick 119609 | track 1 | ch 1 | Note On D#4 (63) vel 36
115.364s | tick 119609 | track 1 | ch 1 | Note On D#3 (51) vel 31
115.549s | tick 119801 | track 1 | ch 1 | Note Off D#4 (63) vel 0
115.549s | tick 119801 | track 1 | ch 1 | Note Off F3 (53) vel 0
115.549s | tick 119801 | track 1 | ch 1 | Note On D#5 (75) vel 36
115.549s | tick 119801 | track 1 | ch 1 | Note On C3 (48) vel 31
115.549s | tick 119801 | track 1 | ch 1 | Note On C6 (84) vel 28
115.734s | tick 119993 | track 1 | ch 1 | Note Off C6 (84) vel 0
115.734s | tick 119993 | track 1 | ch 1 | Note Off D#5 (75) vel 0
115.734s | tick 119993 | track 1 | ch 1 | Note Off D#3 (51) vel 0
115.734s | tick 119993 | track 1 | ch 1 | Note On G4 (67) vel 36
115.734s | tick 119993 | track 1 | ch 1 | Note On C6 (84) vel 28
115.826s | tick 120089 | track 1 | ch 1 | Note Off C6 (84) vel 0
115.919s | tick 120185 | track 1 | ch 1 | Note Off G4 (67) vel 0
115.919s | tick 120185 | track 1 | ch 1 | Note On C5 (72) vel 36
115.919s | tick 120185 | track 1 | ch 1 | Note On C6 (84) vel 28
116.104s | tick 120377 | track 1 | ch 1 | Note Off C6 (84) vel 0
116.104s | tick 120377 | track 1 | ch 1 | Note Off C5 (72) vel 0
116.104s | tick 120377 | track 1 | ch 1 | Note On D5 (74) vel 36
116.104s | tick 120377 | track 1 | ch 1 | Note On G3 (55) vel 31
116.104s | tick 120377 | track 1 | ch 1 | Note On C6 (84) vel 28
116.289s | tick 120569 | track 1 | ch 1 | Note Off C6 (84) vel 0
116.289s | tick 120569 | track 1 | ch 1 | Note Off D5 (74) vel 0
116.289s | tick 120569 | track 1 | ch 1 | Note Off C3 (48) vel 0
116.289s | tick 120569 | track 1 | ch 1 | Note On D#5 (75) vel 36
116.289s | tick 120569 | track 1 | ch 1 | Note On C3 (48) vel 31
116.289s | tick 120569 | track 1 | ch 1 | Note On C6 (84) vel 28
116.475s | tick 120761 | track 1 | ch 1 | Note Off C6 (84) vel 0
116.475s | tick 120761 | track 1 | ch 1 | Note Off G3 (55) vel 0
116.475s | tick 120761 | track 1 | ch 1 | Note On G4 (67) vel 36
116.475s | tick 120761 | track 1 | ch 1 | Note On C6 (84) vel 28
116.567s | tick 120857 | track 1 | ch 1 | Note Off C6 (84) vel 0
116.660s | tick 120953 | track 1 | ch 1 | Note Off G4 (67) vel 0
116.660s | tick 120953 | track 1 | ch 1 | Note Off D#5 (75) vel 0
116.660s | tick 120953 | track 1 | ch 1 | Note On C5 (72) vel 36
116.660s | tick 120953 | track 1 | ch 1 | Note On C6 (84) vel 28
116.845s | tick 121145 | track 1 | ch 1 | Note Off C6 (84) vel 0
116.845s | tick 121145 | track 1 | ch 1 | Note Off C5 (72) vel 0
116.845s | tick 121145 | track 1 | ch 1 | Note On D#5 (75) vel 36
116.845s | tick 121145 | track 1 | ch 1 | Note On C6 (84) vel 28
117.030s | tick 121337 | track 1 | ch 1 | Note Off C6 (84) vel 0
117.030s | tick 121337 | track 1 | ch 1 | Note Off D#5 (75) vel 0
117.030s | tick 121337 | track 1 | ch 1 | Note Off C3 (48) vel 0
117.030s | tick 121337 | track 1 | ch 1 | Note On D5 (74) vel 36
117.030s | tick 121337 | track 1 | ch 1 | Note On G2 (43) vel 31
117.030s | tick 121337 | track 1 | ch 1 | Note On D6 (86) vel 28
117.215s | tick 121529 | track 1 | ch 1 | Note Off D6 (86) vel 0
117.215s | tick 121529 | track 1 | ch 1 | Note Off D5 (74) vel 0
117.215s | tick 121529 | track 1 | ch 1 | Note On G4 (67) vel 36
117.215s | tick 121529 | track 1 | ch 1 | Note On D6 (86) vel 28
117.308s | tick 121625 | track 1 | ch 1 | Note Off D6 (86) vel 0
117.401s | tick 121721 | track 1 | ch 1 | Note Off G4 (67) vel 0
117.401s | tick 121721 | track 1 | ch 1 | Note On G5 (79) vel 36
117.401s | tick 121721 | track 1 | ch 1 | Note On D6 (86) vel 28
117.586s | tick 121913 | track 1 | ch 1 | Note Off D6 (86) vel 0
117.586s | tick 121913 | track 1 | ch 1 | Note Off G5 (79) vel 0
117.586s | tick 121913 | track 1 | ch 1 | Note Off G2 (43) vel 0
117.586s | tick 121913 | track 1 | ch 1 | Note On C5 (72) vel 36
117.586s | tick 121913 | track 1 | ch 1 | Note On G#2 (44) vel 31
117.586s | tick 121913 | track 1 | ch 1 | Note On D#6 (87) vel 28
117.956s | tick 122297 | track 1 | ch 1 | Note Off D#6 (87) vel 0
117.956s | tick 122297 | track 1 | ch 1 | Note Off C5 (72) vel 0
117.956s | tick 122297 | track 1 | ch 1 | Note On D#4 (63) vel 36
117.956s | tick 122297 | track 1 | ch 1 | Note On D#6 (87) vel 28
118.049s | tick 122393 | track 1 | ch 1 | Note Off D#6 (87) vel 0
118.141s | tick 122489 | track 1 | ch 1 | Note Off D#4 (63) vel 0
118.141s | tick 122489 | track 1 | ch 1 | Note On A#4 (70) vel 36
118.141s | tick 122489 | track 1 | ch 1 | Note On D#6 (87) vel 28
118.326s | tick 122681 | track 1 | ch 1 | Note Off D#6 (87) vel 0
118.326s | tick 122681 | track 1 | ch 1 | Note Off A#4 (70) vel 0
118.326s | tick 122681 | track 1 | ch 1 | Note On G#4 (68) vel 36
118.326s | tick 122681 | track 1 | ch 1 | Note On D#6 (87) vel 28
118.419s | tick 122777 | track 1 | ch 1 | Note Off D#6 (87) vel 0
118.512s | tick 122873 | track 1 | ch 1 | Note Off G#4 (68) vel 0
118.512s | tick 122873 | track 1 | ch 1 | Note Off G#2 (44) vel 0
118.512s | tick 122873 | track 1 | ch 1 | Note On A#4 (70) vel 36
118.512s | tick 122873 | track 1 | ch 1 | Note On D#2 (39) vel 31
118.697s | tick 123065 | track 1 | ch 1 | Note On A#3 (58) vel 36
118.697s | tick 123065 | track 1 | ch 1 | Note On G5 (79) vel 28
118.789s | tick 123161 | track 1 | ch 1 | Note Off G5 (79) vel 0
118.789s | tick 123161 | track 1 | ch 1 | Note On G5 (79) vel 28
118.882s | tick 123257 | track 1 | ch 1 | Note Off G5 (79) vel 0
118.882s | tick 123257 | track 1 | ch 1 | Note Off A#3 (58) vel 0
118.882s | tick 123257 | track 1 | ch 1 | Note Off A#4 (70) vel 0
118.882s | tick 123257 | track 1 | ch 1 | Note On D#4 (63) vel 36
119.067s | tick 123449 | track 1 | ch 1 | Note On A#3 (58) vel 36
119.067s | tick 123449 | track 1 | ch 1 | Note On G5 (79) vel 28
119.160s | tick 123545 | track 1 | ch 1 | Note Off G5 (79) vel 0
119.252s | tick 123641 | track 1 | ch 1 | Note Off A#3 (58) vel 0
119.252s | tick 123641 | track 1 | ch 1 | Note Off D#4 (63) vel 0
119.252s | tick 123641 | track 1 | ch 1 | Note On D#4 (63) vel 36
119.438s | tick 123833 | track 1 | ch 1 | Note Off D#4 (63) vel 0
119.438s | tick 123833 | track 1 | ch 1 | Note On F4 (65) vel 36
119.438s | tick 123833 | track 1 | ch 1 | Note On G5 (79) vel 28
119.530s | tick 123929 | track 1 | ch 1 | Note Off G5 (79) vel 0
119.623s | tick 124025 | track 1 | ch 1 | Note Off F4 (65) vel 0
119.623s | tick 124025 | track 1 | ch 1 | Note On G4 (67) vel 36
119.808s | tick 124217 | track 1 | ch 1 | Note On A#3 (58) vel 36
119.993s | tick 124409 | track 1 | ch 1 | Note Off A#3 (58) vel 0
119.993s | tick 124409 | track 1 | ch 1 | Note Off G4 (67) vel 0
119.993s | tick 124409 | track 1 | ch 1 | Note Off D#2 (39) vel 0
119.993s | tick 124409 | track 1 | ch 1 | Note On G#4 (68) vel 36
119.993s | tick 124409 | track 1 | ch 1 | Note On G#3 (56) vel 31
119.993s | tick 124409 | track 1 | ch 1 | Note On G#5 (80) vel 28
120.086s | tick 124505 | track 1 | ch 1 | Note Off G#5 (80) vel 0
120.178s | tick 124601 | track 1 | ch 1 | Note On C4 (60) vel 36
120.363s | tick 124793 | track 1 | ch 1 | Note Off C4 (60) vel 0
120.363s | tick 124793 | track 1 | ch 1 | Note Off G#3 (56) vel 0
120.363s | tick 124793 | track 1 | ch 1 | Note Off G#4 (68) vel 0
120.363s | tick 124793 | track 1 | ch 1 | Note On F4 (65) vel 36
120.363s | tick 124793 | track 1 | ch 1 | Note On F3 (53) vel 31
120.363s | tick 124793 | track 1 | ch 1 | Note On F5 (77) vel 28
120.456s | tick 124889 | track 1 | ch 1 | Note Off F5 (77) vel 0
120.549s | tick 124985 | track 1 | ch 1 | Note Off F3 (53) vel 0
120.549s | tick 124985 | track 1 | ch 1 | Note Off F4 (65) vel 0
120.549s | tick 124985 | track 1 | ch 1 | Note On C5 (72) vel 36
120.549s | tick 124985 | track 1 | ch 1 | Note On D#3 (51) vel 31
120.549s | tick 124985 | track 1 | ch 1 | Note On D#5 (75) vel 28
120.919s | tick 125369 | track 1 | ch 1 | Note Off D#5 (75) vel 0
120.919s | tick 125369 | track 1 | ch 1 | Note Off D#3 (51) vel 0
120.919s | tick 125369 | track 1 | ch 1 | Note Off C5 (72) vel 0
120.919s | tick 125369 | track 1 | ch 1 | Note On D#5 (75) vel 36
120.919s | tick 125369 | track 1 | ch 1 | Note On G3 (55) vel 31
120.919s | tick 125369 | track 1 | ch 1 | Note On D#5 (75) vel 28
121.012s | tick 125465 | track 1 | ch 1 | Note Off D#5 (75) vel 0
121.104s | tick 125561 | track 1 | ch 1 | Note Off G3 (55) vel 0
121.104s | tick 125561 | track 1 | ch 1 | Note Off D#5 (75) vel 0
121.104s | tick 125561 | track 1 | ch 1 | Note On D5 (74) vel 36
121.104s | tick 125561 | track 1 | ch 1 | Note On F3 (53) vel 31
121.104s | tick 125561 | track 1 | ch 1 | Note On D#5 (75) vel 28
121.197s | tick 125657 | track 1 | ch 1 | Note Off D#5 (75) vel 0
121.289s | tick 125753 | track 1 | ch 1 | Note Off F3 (53) vel 0
121.289s | tick 125753 | track 1 | ch 1 | Note Off D5 (74) vel 0
121.289s | tick 125753 | track 1 | ch 1 | Note On C5 (72) vel 36
121.289s | tick 125753 | track 1 | ch 1 | Note On D#3 (51) vel 31
121.289s | tick 125753 | track 1 | ch 1 | Note On D#5 (75) vel 28
121.382s | tick 125849 | track 1 | ch 1 | Note Off D#5 (75) vel 0
121.475s | tick 125945 | track 1 | ch 1 | Note Off D#3 (51) vel 0
121.475s | tick 125945 | track 1 | ch 1 | Note Off C5 (72) vel 0
121.475s | tick 125945 | track 1 | ch 1 | Note On D#5 (75) vel 36
121.475s | tick 125945 | track 1 | ch 1 | Note On C2 (36) vel 28
121.475s | tick 125945 | track 1 | ch 1 | Note On C6 (84) vel 28
121.567s | tick 126041 | track 1 | ch 1 | Note Off C2 (36) vel 0
121.660s | tick 126137 | track 1 | ch 1 | Note Off C6 (84) vel 0
121.660s | tick 126137 | track 1 | ch 1 | Note Off D#5 (75) vel 0
121.660s | tick 126137 | track 1 | ch 1 | Note On G4 (67) vel 36
121.660s | tick 126137 | track 1 | ch 1 | Note On C3 (48) vel 33
121.660s | tick 126137 | track 1 | ch 1 | Note On C6 (84) vel 28
121.752s | tick 126233 | track 1 | ch 1 | Note Off C6 (84) vel 0
121.845s | tick 126329 | track 1 | ch 1 | Note Off C3 (48) vel 0
121.845s | tick 126329 | track 1 | ch 1 | Note Off G4 (67) vel 0
121.845s | tick 126329 | track 1 | ch 1 | Note On C5 (72) vel 36
121.845s | tick 126329 | track 1 | ch 1 | Note On C2 (36) vel 28
121.845s | tick 126329 | track 1 | ch 1 | Note On C6 (84) vel 28
121.938s | tick 126425 | track 1 | ch 1 | Note Off C2 (36) vel 0
122.030s | tick 126521 | track 1 | ch 1 | Note Off C6 (84) vel 0
122.030s | tick 126521 | track 1 | ch 1 | Note Off C5 (72) vel 0
122.030s | tick 126521 | track 1 | ch 1 | Note On D5 (74) vel 36
122.030s | tick 126521 | track 1 | ch 1 | Note On C3 (48) vel 33
122.030s | tick 126521 | track 1 | ch 1 | Note On C6 (84) vel 28
122.123s | tick 126617 | track 1 | ch 1 | Note Off C6 (84) vel 0
122.215s | tick 126713 | track 1 | ch 1 | Note Off C3 (48) vel 0
122.215s | tick 126713 | track 1 | ch 1 | Note Off D5 (74) vel 0
122.215s | tick 126713 | track 1 | ch 1 | Note On D#5 (75) vel 36
122.215s | tick 126713 | track 1 | ch 1 | Note On C2 (36) vel 28
122.215s | tick 126713 | track 1 | ch 1 | Note On C6 (84) vel 28
122.308s | tick 126809 | track 1 | ch 1 | Note Off C2 (36) vel 0
122.401s | tick 126905 | track 1 | ch 1 | Note Off C6 (84) vel 0
122.401s | tick 126905 | track 1 | ch 1 | Note On G4 (67) vel 36
122.401s | tick 126905 | track 1 | ch 1 | Note On C3 (48) vel 33
122.401s | tick 126905 | track 1 | ch 1 | Note On C6 (84) vel 28
122.493s | tick 127001 | track 1 | ch 1 | Note Off C6 (84) vel 0
122.586s | tick 127097 | track 1 | ch 1 | Note Off C3 (48) vel 0
122.586s | tick 127097 | track 1 | ch 1 | Note Off G4 (67) vel 0
122.586s | tick 127097 | track 1 | ch 1 | Note Off D#5 (75) vel 0
122.586s | tick 127097 | track 1 | ch 1 | Note On C5 (72) vel 36
122.586s | tick 127097 | track 1 | ch 1 | Note On C2 (36) vel 28
122.586s | tick 127097 | track 1 | ch 1 | Note On C6 (84) vel 28
122.678s | tick 127193 | track 1 | ch 1 | Note Off C2 (36) vel 0
122.771s | tick 127289 | track 1 | ch 1 | Note Off C6 (84) vel 0
122.771s | tick 127289 | track 1 | ch 1 | Note Off C5 (72) vel 0
122.771s | tick 127289 | track 1 | ch 1 | Note On D#5 (75) vel 36
122.771s | tick 127289 | track 1 | ch 1 | Note On C3 (48) vel 33
122.771s | tick 127289 | track 1 | ch 1 | Note On C6 (84) vel 28
122.863s | tick 127385 | track 1 | ch 1 | Note Off C6 (84) vel 0
122.956s | tick 127481 | track 1 | ch 1 | Note Off C3 (48) vel 0
122.956s | tick 127481 | track 1 | ch 1 | Note Off D#5 (75) vel 0
122.956s | tick 127481 | track 1 | ch 1 | Note On D5 (74) vel 36
122.956s | tick 127481 | track 1 | ch 1 | Note On A#1 (34) vel 28
122.956s | tick 127481 | track 1 | ch 1 | Note On D6 (86) vel 28
123.049s | tick 127577 | track 1 | ch 1 | Note Off A#1 (34) vel 0
123.141s | tick 127673 | track 1 | ch 1 | Note Off D6 (86) vel 0
123.141s | tick 127673 | track 1 | ch 1 | Note On F4 (65) vel 36
123.141s | tick 127673 | track 1 | ch 1 | Note On A#2 (46) vel 33
123.141s | tick 127673 | track 1 | ch 1 | Note On D6 (86) vel 28
123.234s | tick 127769 | track 1 | ch 1 | Note Off D6 (86) vel 0
123.326s | tick 127865 | track 1 | ch 1 | Note Off A#2 (46) vel 0
123.326s | tick 127865 | track 1 | ch 1 | Note Off F4 (65) vel 0
123.326s | tick 127865 | track 1 | ch 1 | Note Off D5 (74) vel 0
123.326s | tick 127865 | track 1 | ch 1 | Note On A#4 (70) vel 36
123.326s | tick 127865 | track 1 | ch 1 | Note On A#1 (34) vel 28
123.326s | tick 127865 | track 1 | ch 1 | Note On D6 (86) vel 28
123.419s | tick 127961 | track 1 | ch 1 | Note Off A#1 (34) vel 0
123.512s | tick 128057 | track 1 | ch 1 | Note Off D6 (86) vel 0
123.512s | tick 128057 | track 1 | ch 1 | Note Off A#4 (70) vel 0
123.512s | tick 128057 | track 1 | ch 1 | Note On C5 (72) vel 36
123.512s | tick 128057 | track 1 | ch 1 | Note On A#2 (46) vel 33
123.512s | tick 128057 | track 1 | ch 1 | Note On D#6 (87) vel 28
123.697s | tick 128249 | track 1 | ch 1 | Note Off A#2 (46) vel 0
123.697s | tick 128249 | track 1 | ch 1 | Note On G#1 (32) vel 28
123.789s | tick 128345 | track 1 | ch 1 | Note Off G#1 (32) vel 0
123.882s | tick 128441 | track 1 | ch 1 | Note Off D#6 (87) vel 0
123.882s | tick 128441 | track 1 | ch 1 | Note Off C5 (72) vel 0
123.882s | tick 128441 | track 1 | ch 1 | Note On D#4 (63) vel 36
123.882s | tick 128441 | track 1 | ch 1 | Note On G#2 (44) vel 33
123.882s | tick 128441 | track 1 | ch 1 | Note On D#6 (87) vel 28
123.975s | tick 128537 | track 1 | ch 1 | Note Off D#6 (87) vel 0
124.067s | tick 128633 | track 1 | ch 1 | Note Off G#2 (44) vel 0
124.067s | tick 128633 | track 1 | ch 1 | Note Off D#4 (63) vel 0
124.067s | tick 128633 | track 1 | ch 1 | Note On A#4 (70) vel 36
124.067s | tick 128633 | track 1 | ch 1 | Note On G#1 (32) vel 28
124.067s | tick 128633 | track 1 | ch 1 | Note On D#6 (87) vel 28
124.160s | tick 128729 | track 1 | ch 1 | Note Off G#1 (32) vel 0
124.252s | tick 128825 | track 1 | ch 1 | Note Off D#6 (87) vel 0
124.252s | tick 128825 | track 1 | ch 1 | Note Off A#4 (70) vel 0
124.252s | tick 128825 | track 1 | ch 1 | Note On G#4 (68) vel 36
124.252s | tick 128825 | track 1 | ch 1 | Note On G#2 (44) vel 33
124.252s | tick 128825 | track 1 | ch 1 | Note On D#6 (87) vel 28
124.345s | tick 128921 | track 1 | ch 1 | Note Off D#6 (87) vel 0
124.438s | tick 129017 | track 1 | ch 1 | Note Off G#2 (44) vel 0
124.438s | tick 129017 | track 1 | ch 1 | Note Off G#4 (68) vel 0
124.438s | tick 129017 | track 1 | ch 1 | Note On A#4 (70) vel 36
124.438s | tick 129017 | track 1 | ch 1 | Note On D#2 (39) vel 28
124.438s | tick 129017 | track 1 | ch 1 | Note On A#5 (82) vel 28
124.530s | tick 129113 | track 1 | ch 1 | Note Off D#2 (39) vel 0
124.623s | tick 129209 | track 1 | ch 1 | Note On A#3 (58) vel 36
124.623s | tick 129209 | track 1 | ch 1 | Note On D#3 (51) vel 33
124.808s | tick 129401 | track 1 | ch 1 | Note Off D#3 (51) vel 0
124.808s | tick 129401 | track 1 | ch 1 | Note Off A#3 (58) vel 0
124.808s | tick 129401 | track 1 | ch 1 | Note Off A#4 (70) vel 0
124.808s | tick 129401 | track 1 | ch 1 | Note On D#4 (63) vel 36
124.808s | tick 129401 | track 1 | ch 1 | Note On D#2 (39) vel 28
124.901s | tick 129497 | track 1 | ch 1 | Note Off D#2 (39) vel 0
124.993s | tick 129593 | track 1 | ch 1 | Note On A#3 (58) vel 36
124.993s | tick 129593 | track 1 | ch 1 | Note On D#3 (51) vel 33
125.178s | tick 129785 | track 1 | ch 1 | Note Off D#3 (51) vel 0
125.178s | tick 129785 | track 1 | ch 1 | Note Off A#3 (58) vel 0
125.178s | tick 129785 | track 1 | ch 1 | Note Off D#4 (63) vel 0
125.178s | tick 129785 | track 1 | ch 1 | Note Off A#5 (82) vel 0
125.178s | tick 129785 | track 1 | ch 1 | Note On D#4 (63) vel 36
125.178s | tick 129785 | track 1 | ch 1 | Note On D#2 (39) vel 28
125.178s | tick 129785 | track 1 | ch 1 | Note On A#5 (82) vel 28
125.271s | tick 129881 | track 1 | ch 1 | Note Off D#2 (39) vel 0
125.363s | tick 129977 | track 1 | ch 1 | Note Off A#5 (82) vel 0
125.363s | tick 129977 | track 1 | ch 1 | Note Off D#4 (63) vel 0
125.363s | tick 129977 | track 1 | ch 1 | Note On F4 (65) vel 36
125.363s | tick 129977 | track 1 | ch 1 | Note On D#3 (51) vel 33
125.363s | tick 129977 | track 1 | ch 1 | Note On A#5 (82) vel 28
125.456s | tick 130073 | track 1 | ch 1 | Note Off A#5 (82) vel 0
125.549s | tick 130169 | track 1 | ch 1 | Note Off D#3 (51) vel 0
125.549s | tick 130169 | track 1 | ch 1 | Note Off F4 (65) vel 0
125.549s | tick 130169 | track 1 | ch 1 | Note On G4 (67) vel 36
125.549s | tick 130169 | track 1 | ch 1 | Note On D#2 (39) vel 28
125.549s | tick 130169 | track 1 | ch 1 | Note On A#5 (82) vel 28
125.641s | tick 130265 | track 1 | ch 1 | Note Off A#5 (82) vel 0
125.641s | tick 130265 | track 1 | ch 1 | Note Off D#2 (39) vel 0
125.734s | tick 130361 | track 1 | ch 1 | Note On A#3 (58) vel 36
125.734s | tick 130361 | track 1 | ch 1 | Note On D#3 (51) vel 33
125.734s | tick 130361 | track 1 | ch 1 | Note On A#5 (82) vel 28
125.826s | tick 130457 | track 1 | ch 1 | Note Off A#5 (82) vel 0
125.919s | tick 130553 | track 1 | ch 1 | Note Off D#3 (51) vel 0
125.919s | tick 130553 | track 1 | ch 1 | Note Off A#3 (58) vel 0
125.919s | tick 130553 | track 1 | ch 1 | Note Off G4 (67) vel 0
125.919s | tick 130553 | track 1 | ch 1 | Note On G#4 (68) vel 36
125.919s | tick 130553 | track 1 | ch 1 | Note On F2 (41) vel 28
125.919s | tick 130553 | track 1 | ch 1 | Note On G#5 (80) vel 28
126.012s | tick 130649 | track 1 | ch 1 | Note Off F2 (41) vel 0
126.104s | tick 130745 | track 1 | ch 1 | Note Off G#5 (80) vel 0
126.104s | tick 130745 | track 1 | ch 1 | Note On C4 (60) vel 36
126.104s | tick 130745 | track 1 | ch 1 | Note On F3 (53) vel 33
126.104s | tick 130745 | track 1 | ch 1 | Note On G#5 (80) vel 28
126.197s | tick 130841 | track 1 | ch 1 | Note Off G#5 (80) vel 0
126.289s | tick 130937 | track 1 | ch 1 | Note Off F3 (53) vel 0
126.289s | tick 130937 | track 1 | ch 1 | Note Off C4 (60) vel 0
126.289s | tick 130937 | track 1 | ch 1 | Note Off G#4 (68) vel 0
126.289s | tick 130937 | track 1 | ch 1 | Note On F4 (65) vel 36
126.289s | tick 130937 | track 1 | ch 1 | Note On F2 (41) vel 28
126.289s | tick 130937 | track 1 | ch 1 | Note On G#5 (80) vel 28
126.382s | tick 131033 | track 1 | ch 1 | Note Off F2 (41) vel 0
126.475s | tick 131129 | track 1 | ch 1 | Note Off G#5 (80) vel 0
126.475s | tick 131129 | track 1 | ch 1 | Note Off F4 (65) vel 0
126.475s | tick 131129 | track 1 | ch 1 | Note On G4 (67) vel 36
126.475s | tick 131129 | track 1 | ch 1 | Note On F3 (53) vel 33
126.475s | tick 131129 | track 1 | ch 1 | Note On G5 (79) vel 28
126.660s | tick 131321 | track 1 | ch 1 | Note Off F3 (53) vel 0
126.660s | tick 131321 | track 1 | ch 1 | Note On C2 (36) vel 28
126.752s | tick 131417 | track 1 | ch 1 | Note Off C2 (36) vel 0
126.845s | tick 131513 | track 1 | ch 1 | Note Off G5 (79) vel 0
126.845s | tick 131513 | track 1 | ch 1 | Note On C4 (60) vel 36
126.845s | tick 131513 | track 1 | ch 1 | Note On C3 (48) vel 33
126.845s | tick 131513 | track 1 | ch 1 | Note On G5 (79) vel 28
126.938s | tick 131609 | track 1 | ch 1 | Note Off G5 (79) vel 0
127.030s | tick 131705 | track 1 | ch 1 | Note Off C3 (48) vel 0
127.030s | tick 131705 | track 1 | ch 1 | Note Off C4 (60) vel 0
127.030s | tick 131705 | track 1 | ch 1 | Note Off G4 (67) vel 0
127.030s | tick 131705 | track 1 | ch 1 | Note On D4 (62) vel 36
127.030s | tick 131705 | track 1 | ch 1 | Note On C2 (36) vel 28
127.030s | tick 131705 | track 1 | ch 1 | Note On G5 (79) vel 28
127.123s | tick 131801 | track 1 | ch 1 | Note Off G5 (79) vel 0
127.123s | tick 131801 | track 1 | ch 1 | Note Off C2 (36) vel 0
127.215s | tick 131897 | track 1 | ch 1 | Note Off D4 (62) vel 0
127.215s | tick 131897 | track 1 | ch 1 | Note On D#4 (63) vel 36
127.215s | tick 131897 | track 1 | ch 1 | Note On C3 (48) vel 33
127.215s | tick 131897 | track 1 | ch 1 | Note On G5 (79) vel 28
127.308s | tick 131993 | track 1 | ch 1 | Note Off G5 (79) vel 0
127.401s | tick 132089 | track 1 | ch 1 | Note Off C3 (48) vel 0
127.401s | tick 132089 | track 1 | ch 1 | Note Off D#4 (63) vel 0
127.401s | tick 132089 | track 1 | ch 1 | Note On D#5 (75) vel 36
127.401s | tick 132089 | track 1 | ch 1 | Note On C2 (36) vel 28
127.401s | tick 132089 | track 1 | ch 1 | Note On C5 (72) vel 35
127.401s | tick 132089 | track 1 | ch 1 | Note On C4 (60) vel 35
127.493s | tick 132185 | track 1 | ch 1 | Note Off C2 (36) vel 0
127.586s | tick 132281 | track 1 | ch 1 | Note Off D#5 (75) vel 0
127.586s | tick 132281 | track 1 | ch 1 | Note On G4 (67) vel 36
127.586s | tick 132281 | track 1 | ch 1 | Note On C3 (48) vel 33
127.771s | tick 132473 | track 1 | ch 1 | Note Off C3 (48) vel 0
127.771s | tick 132473 | track 1 | ch 1 | Note Off G4 (67) vel 0
127.771s | tick 132473 | track 1 | ch 1 | Note On C5 (72) vel 36
127.771s | tick 132473 | track 1 | ch 1 | Note On C2 (36) vel 28
127.863s | tick 132569 | track 1 | ch 1 | Note Off C2 (36) vel 0
127.956s | tick 132665 | track 1 | ch 1 | Note Off C5 (72) vel 0
127.956s | tick 132665 | track 1 | ch 1 | Note On D5 (74) vel 36
127.956s | tick 132665 | track 1 | ch 1 | Note On C3 (48) vel 33
128.141s | tick 132857 | track 1 | ch 1 | Note Off C3 (48) vel 0
128.141s | tick 132857 | track 1 | ch 1 | Note Off D5 (74) vel 0
128.141s | tick 132857 | track 1 | ch 1 | Note On D#5 (75) vel 36
128.141s | tick 132857 | track 1 | ch 1 | Note On C2 (36) vel 28
128.234s | tick 132953 | track 1 | ch 1 | Note Off C2 (36) vel 0
128.326s | tick 133049 | track 1 | ch 1 | Note On G4 (67) vel 36
128.326s | tick 133049 | track 1 | ch 1 | Note On C3 (48) vel 33
128.512s | tick 133241 | track 1 | ch 1 | Note Off C3 (48) vel 0
128.512s | tick 133241 | track 1 | ch 1 | Note Off G4 (67) vel 0
128.512s | tick 133241 | track 1 | ch 1 | Note Off D#5 (75) vel 0
128.512s | tick 133241 | track 1 | ch 1 | Note On C5 (72) vel 36
128.512s | tick 133241 | track 1 | ch 1 | Note On C2 (36) vel 28
128.604s | tick 133337 | track 1 | ch 1 | Note Off C2 (36) vel 0
128.697s | tick 133433 | track 1 | ch 1 | Note Off C5 (72) vel 0
128.697s | tick 133433 | track 1 | ch 1 | Note On D#5 (75) vel 36
128.697s | tick 133433 | track 1 | ch 1 | Note On C3 (48) vel 33
128.882s | tick 133625 | track 1 | ch 1 | Note Off C3 (48) vel 0
128.882s | tick 133625 | track 1 | ch 1 | Note Off D#5 (75) vel 0
128.882s | tick 133625 | track 1 | ch 1 | Note Off C4 (60) vel 0
128.882s | tick 133625 | track 1 | ch 1 | Note Off C5 (72) vel 0
128.882s | tick 133625 | track 1 | ch 1 | Note On D5 (74) vel 36
128.882s | tick 133625 | track 1 | ch 1 | Note On A#1 (34) vel 28
128.882s | tick 133625 | track 1 | ch 1 | Note On D5 (74) vel 35
128.882s | tick 133625 | track 1 | ch 1 | Note On D4 (62) vel 35
128.975s | tick 133721 | track 1 | ch 1 | Note Off A#1 (34) vel 0
129.067s | tick 133817 | track 1 | ch 1 | Note Off D5 (74) vel 0
129.067s | tick 133817 | track 1 | ch 1 | Note On G4 (67) vel 36
129.067s | tick 133817 | track 1 | ch 1 | Note On A#2 (46) vel 33
129.252s | tick 134009 | track 1 | ch 1 | Note Off A#2 (46) vel 0
129.252s | tick 134009 | track 1 | ch 1 | Note Off G4 (67) vel 0
129.252s | tick 134009 | track 1 | ch 1 | Note On G5 (79) vel 36
129.252s | tick 134009 | track 1 | ch 1 | Note On A#1 (34) vel 28
129.345s | tick 134105 | track 1 | ch 1 | Note Off A#1 (34) vel 0
129.438s | tick 134201 | track 1 | ch 1 | Note Off G5 (79) vel 0
129.438s | tick 134201 | track 1 | ch 1 | Note Off D4 (62) vel 0
129.438s | tick 134201 | track 1 | ch 1 | Note Off D5 (74) vel 0
129.438s | tick 134201 | track 1 | ch 1 | Note On C5 (72) vel 36
129.438s | tick 134201 | track 1 | ch 1 | Note On A#2 (46) vel 33
129.438s | tick 134201 | track 1 | ch 1 | Note On D#4 (63) vel 35
129.438s | tick 134201 | track 1 | ch 1 | Note On D#5 (75) vel 35
129.623s | tick 134393 | track 1 | ch 1 | Note Off A#2 (46) vel 0
129.623s | tick 134393 | track 1 | ch 1 | Note On G#1 (32) vel 28
129.715s | tick 134489 | track 1 | ch 1 | Note Off G#1 (32) vel 0
129.808s | tick 134585 | track 1 | ch 1 | Note Off C5 (72) vel 0
129.808s | tick 134585 | track 1 | ch 1 | Note On D#4 (63) vel 36
129.808s | tick 134585 | track 1 | ch 1 | Note On G#2 (44) vel 33
129.993s | tick 134777 | track 1 | ch 1 | Note Off G#2 (44) vel 0
129.993s | tick 134777 | track 1 | ch 1 | Note Off D#4 (63) vel 0
129.993s | tick 134777 | track 1 | ch 1 | Note On A#4 (70) vel 36
129.993s | tick 134777 | track 1 | ch 1 | Note On G#1 (32) vel 28
130.086s | tick 134873 | track 1 | ch 1 | Note Off G#1 (32) vel 0
130.178s | tick 134969 | track 1 | ch 1 | Note Off A#4 (70) vel 0
130.178s | tick 134969 | track 1 | ch 1 | Note On G#4 (68) vel 36
130.178s | tick 134969 | track 1 | ch 1 | Note On G#2 (44) vel 33
130.363s | tick 135161 | track 1 | ch 1 | Note Off G#2 (44) vel 0
130.363s | tick 135161 | track 1 | ch 1 | Note Off G#4 (68) vel 0
130.363s | tick 135161 | track 1 | ch 1 | Note Off D#5 (75) vel 0
130.363s | tick 135161 | track 1 | ch 1 | Note Off D#4 (63) vel 0
130.363s | tick 135161 | track 1 | ch 1 | Note On A#4 (70) vel 36
130.363s | tick 135161 | track 1 | ch 1 | Note On D#2 (39) vel 28
130.363s | tick 135161 | track 1 | ch 1 | Note On G3 (55) vel 33
130.363s | tick 135161 | track 1 | ch 1 | Note On G4 (67) vel 33
130.363s | tick 135161 | track 1 | ch 1 | Note On A#3 (58) vel 33
130.456s | tick 135257 | track 1 | ch 1 | Note Off D#2 (39) vel 0
130.549s | tick 135353 | track 1 | ch 1 | Note On A#3 (58) vel 36
130.549s | tick 135353 | track 1 | ch 1 | Note On D#3 (51) vel 33
130.734s | tick 135545 | track 1 | ch 1 | Note Off D#3 (51) vel 0
130.734s | tick 135545 | track 1 | ch 1 | Note Off A#3 (58) vel 0
130.734s | tick 135545 | track 1 | ch 1 | Note Off A#4 (70) vel 0
130.734s | tick 135545 | track 1 | ch 1 | Note On D#4 (63) vel 36
130.734s | tick 135545 | track 1 | ch 1 | Note On D#2 (39) vel 28
130.826s | tick 135641 | track 1 | ch 1 | Note Off D#2 (39) vel 0
130.919s | tick 135737 | track 1 | ch 1 | Note On A#3 (58) vel 36
130.919s | tick 135737 | track 1 | ch 1 | Note On D#3 (51) vel 33
131.104s | tick 135929 | track 1 | ch 1 | Note Off D#3 (51) vel 0
131.104s | tick 135929 | track 1 | ch 1 | Note Off A#3 (58) vel 0
131.104s | tick 135929 | track 1 | ch 1 | Note Off D#4 (63) vel 0
131.104s | tick 135929 | track 1 | ch 1 | Note On D#4 (63) vel 36
131.104s | tick 135929 | track 1 | ch 1 | Note On D#2 (39) vel 28
131.197s | tick 136025 | track 1 | ch 1 | Note Off D#2 (39) vel 0
131.289s | tick 136121 | track 1 | ch 1 | Note Off D#4 (63) vel 0
131.289s | tick 136121 | track 1 | ch 1 | Note On F4 (65) vel 36
131.289s | tick 136121 | track 1 | ch 1 | Note On D#3 (51) vel 33
131.475s | tick 136313 | track 1 | ch 1 | Note Off D#3 (51) vel 0
131.475s | tick 136313 | track 1 | ch 1 | Note Off F4 (65) vel 0
131.475s | tick 136313 | track 1 | ch 1 | Note On G4 (67) vel 36
131.475s | tick 136313 | track 1 | ch 1 | Note On D#2 (39) vel 28
131.567s | tick 136409 | track 1 | ch 1 | Note Off D#2 (39) vel 0
131.660s | tick 136505 | track 1 | ch 1 | Note On A#3 (58) vel 36
131.660s | tick 136505 | track 1 | ch 1 | Note On D#3 (51) vel 33
131.845s | tick 136697 | track 1 | ch 1 | Note Off D#3 (51) vel 0
131.845s | tick 136697 | track 1 | ch 1 | Note Off A#3 (58) vel 0
131.845s | tick 136697 | track 1 | ch 1 | Note Off G4 (67) vel 0
131.845s | tick 136697 | track 1 | ch 1 | Note Off A#3 (58) vel 0
131.845s | tick 136697 | track 1 | ch 1 | Note Off G4 (67) vel 0
131.845s | tick 136697 | track 1 | ch 1 | Note Off G3 (55) vel 0
131.845s | tick 136697 | track 1 | ch 1 | Note On G#4 (68) vel 36
131.845s | tick 136697 | track 1 | ch 1 | Note On F2 (41) vel 28
131.845s | tick 136697 | track 1 | ch 1 | Note On G#3 (56) vel 36
131.938s | tick 136793 | track 1 | ch 1 | Note Off F2 (41) vel 0
132.030s | tick 136889 | track 1 | ch 1 | Note On C4 (60) vel 36
132.030s | tick 136889 | track 1 | ch 1 | Note On F3 (53) vel 33
132.215s | tick 137081 | track 1 | ch 1 | Note Off F3 (53) vel 0
132.215s | tick 137081 | track 1 | ch 1 | Note Off C4 (60) vel 0
132.215s | tick 137081 | track 1 | ch 1 | Note Off G#4 (68) vel 0
132.215s | tick 137081 | track 1 | ch 1 | Note On F4 (65) vel 36
132.215s | tick 137081 | track 1 | ch 1 | Note On F2 (41) vel 28
132.308s | tick 137177 | track 1 | ch 1 | Note Off F2 (41) vel 0
132.401s | tick 137273 | track 1 | ch 1 | Note Off F4 (65) vel 0
132.401s | tick 137273 | track 1 | ch 1 | Note Off G#3 (56) vel 0
132.401s | tick 137273 | track 1 | ch 1 | Note On C5 (72) vel 36
132.401s | tick 137273 | track 1 | ch 1 | Note On F3 (53) vel 33
132.401s | tick 137273 | track 1 | ch 1 | Note On C4 (60) vel 36
132.586s | tick 137465 | track 1 | ch 1 | Note Off F3 (53) vel 0
132.586s | tick 137465 | track 1 | ch 1 | Note On C2 (36) vel 28
132.678s | tick 137561 | track 1 | ch 1 | Note Off C2 (36) vel 0
132.771s | tick 137657 | track 1 | ch 1 | Note Off C5 (72) vel 0
132.771s | tick 137657 | track 1 | ch 1 | Note On D#5 (75) vel 36
132.771s | tick 137657 | track 1 | ch 1 | Note On C3 (48) vel 33
132.956s | tick 137849 | track 1 | ch 1 | Note Off C3 (48) vel 0
132.956s | tick 137849 | track 1 | ch 1 | Note Off D#5 (75) vel 0
132.956s | tick 137849 | track 1 | ch 1 | Note On D5 (74) vel 36
132.956s | tick 137849 | track 1 | ch 1 | Note On C2 (36) vel 28
133.049s | tick 137945 | track 1 | ch 1 | Note Off C2 (36) vel 0
133.141s | tick 138041 | track 1 | ch 1 | Note Off D5 (74) vel 0
133.141s | tick 138041 | track 1 | ch 1 | Note On C5 (72) vel 36
133.141s | tick 138041 | track 1 | ch 1 | Note On C3 (48) vel 33
133.326s | tick 138233 | track 1 | ch 1 | Note Off C3 (48) vel 0
133.326s | tick 138233 | track 1 | ch 1 | Note Off C5 (72) vel 0
133.326s | tick 138233 | track 1 | ch 1 | Note Off C4 (60) vel 0
133.326s | tick 138233 | track 1 | ch 1 | Note On F5 (77) vel 36
133.326s | tick 138233 | track 1 | ch 1 | Note On D2 (38) vel 30
133.326s | tick 138233 | track 1 | ch 1 | Note On D6 (86) vel 28
133.419s | tick 138329 | track 1 | ch 1 | Note Off D2 (38) vel 0
133.512s | tick 138425 | track 1 | ch 1 | Note Off D6 (86) vel 0
133.512s | tick 138425 | track 1 | ch 1 | Note Off F5 (77) vel 0
133.512s | tick 138425 | track 1 | ch 1 | Note On A4 (69) vel 36
133.512s | tick 138425 | track 1 | ch 1 | Note On D3 (50) vel 35
133.512s | tick 138425 | track 1 | ch 1 | Note On D6 (86) vel 28
133.604s | tick 138521 | track 1 | ch 1 | Note Off D6 (86) vel 0
133.697s | tick 138617 | track 1 | ch 1 | Note Off D3 (50) vel 0
133.697s | tick 138617 | track 1 | ch 1 | Note Off A4 (69) vel 0
133.697s | tick 138617 | track 1 | ch 1 | Note On D5 (74) vel 36
133.697s | tick 138617 | track 1 | ch 1 | Note On D2 (38) vel 30
133.697s | tick 138617 | track 1 | ch 1 | Note On D6 (86) vel 28
133.789s | tick 138713 | track 1 | ch 1 | Note Off D2 (38) vel 0
133.882s | tick 138809 | track 1 | ch 1 | Note Off D6 (86) vel 0
133.882s | tick 138809 | track 1 | ch 1 | Note Off D5 (74) vel 0
133.882s | tick 138809 | track 1 | ch 1 | Note On E5 (76) vel 36
133.882s | tick 138809 | track 1 | ch 1 | Note On D3 (50) vel 35
133.882s | tick 138809 | track 1 | ch 1 | Note On D6 (86) vel 28
134.067s | tick 139001 | track 1 | ch 1 | Note Off D6 (86) vel 0
134.067s | tick 139001 | track 1 | ch 1 | Note Off D3 (50) vel 0
134.067s | tick 139001 | track 1 | ch 1 | Note Off E5 (76) vel 0
134.067s | tick 139001 | track 1 | ch 1 | Note On F5 (77) vel 36
134.067s | tick 139001 | track 1 | ch 1 | Note On D2 (38) vel 30
134.067s | tick 139001 | track 1 | ch 1 | Note On D6 (86) vel 28
134.160s | tick 139097 | track 1 | ch 1 | Note Off D2 (38) vel 0
134.252s | tick 139193 | track 1 | ch 1 | Note Off D6 (86) vel 0
134.252s | tick 139193 | track 1 | ch 1 | Note On A4 (69) vel 36
134.252s | tick 139193 | track 1 | ch 1 | Note On D3 (50) vel 35
134.252s | tick 139193 | track 1 | ch 1 | Note On D6 (86) vel 28
134.345s | tick 139289 | track 1 | ch 1 | Note Off D6 (86) vel 0
134.438s | tick 139385 | track 1 | ch 1 | Note Off D3 (50) vel 0
134.438s | tick 139385 | track 1 | ch 1 | Note Off A4 (69) vel 0
134.438s | tick 139385 | track 1 | ch 1 | Note Off F5 (77) vel 0
134.438s | tick 139385 | track 1 | ch 1 | Note On D5 (74) vel 36
134.438s | tick 139385 | track 1 | ch 1 | Note On D2 (38) vel 30
134.438s | tick 139385 | track 1 | ch 1 | Note On D6 (86) vel 28
134.530s | tick 139481 | track 1 | ch 1 | Note Off D2 (38) vel 0
134.623s | tick 139577 | track 1 | ch 1 | Note Off D6 (86) vel 0
134.623s | tick 139577 | track 1 | ch 1 | Note Off D5 (74) vel 0
134.623s | tick 139577 | track 1 | ch 1 | Note On F5 (77) vel 36
134.623s | tick 139577 | track 1 | ch 1 | Note On D3 (50) vel 35
134.623s | tick 139577 | track 1 | ch 1 | Note On D6 (86) vel 28
134.808s | tick 139769 | track 1 | ch 1 | Note Off D6 (86) vel 0
134.808s | tick 139769 | track 1 | ch 1 | Note Off D3 (50) vel 0
134.808s | tick 139769 | track 1 | ch 1 | Note Off F5 (77) vel 0
134.808s | tick 139769 | track 1 | ch 1 | Note On E5 (76) vel 36
134.808s | tick 139769 | track 1 | ch 1 | Note On C2 (36) vel 30
134.808s | tick 139769 | track 1 | ch 1 | Note On E6 (88) vel 28
134.901s | tick 139865 | track 1 | ch 1 | Note Off C2 (36) vel 0
134.993s | tick 139961 | track 1 | ch 1 | Note Off E6 (88) vel 0
134.993s | tick 139961 | track 1 | ch 1 | Note On G4 (67) vel 36
134.993s | tick 139961 | track 1 | ch 1 | Note On C3 (48) vel 35
134.993s | tick 139961 | track 1 | ch 1 | Note On E6 (88) vel 28
135.086s | tick 140057 | track 1 | ch 1 | Note Off E6 (88) vel 0
135.178s | tick 140153 | track 1 | ch 1 | Note Off C3 (48) vel 0
135.178s | tick 140153 | track 1 | ch 1 | Note Off G4 (67) vel 0
135.178s | tick 140153 | track 1 | ch 1 | Note Off E5 (76) vel 0
135.178s | tick 140153 | track 1 | ch 1 | Note On C5 (72) vel 36
135.178s | tick 140153 | track 1 | ch 1 | Note On C2 (36) vel 30
135.178s | tick 140153 | track 1 | ch 1 | Note On E6 (88) vel 28
135.271s | tick 140249 | track 1 | ch 1 | Note Off C2 (36) vel 0
135.363s | tick 140345 | track 1 | ch 1 | Note Off E6 (88) vel 0
135.363s | tick 140345 | track 1 | ch 1 | Note Off C5 (72) vel 0
135.363s | tick 140345 | track 1 | ch 1 | Note On D5 (74) vel 36
135.363s | tick 140345 | track 1 | ch 1 | Note On C3 (48) vel 35
135.363s | tick 140345 | track 1 | ch 1 | Note On F6 (89) vel 28
135.549s | tick 140537 | track 1 | ch 1 | Note Off C3 (48) vel 0
135.549s | tick 140537 | track 1 | ch 1 | Note On A#1 (34) vel 30
135.641s | tick 140633 | track 1 | ch 1 | Note Off A#1 (34) vel 0
135.734s | tick 140729 | track 1 | ch 1 | Note Off F6 (89) vel 0
135.734s | tick 140729 | track 1 | ch 1 | Note Off D5 (74) vel 0
135.734s | tick 140729 | track 1 | ch 1 | Note On F4 (65) vel 36
135.734s | tick 140729 | track 1 | ch 1 | Note On A#2 (46) vel 35
135.734s | tick 140729 | track 1 | ch 1 | Note On F6 (89) vel 28
135.826s | tick 140825 | track 1 | ch 1 | Note Off F6 (89) vel 0
135.919s | tick 140921 | track 1 | ch 1 | Note Off A#2 (46) vel 0
135.919s | tick 140921 | track 1 | ch 1 | Note Off F4 (65) vel 0
135.919s | tick 140921 | track 1 | ch 1 | Note On C5 (72) vel 36
135.919s | tick 140921 | track 1 | ch 1 | Note On A#1 (34) vel 30
135.919s | tick 140921 | track 1 | ch 1 | Note On F6 (89) vel 28
136.012s | tick 141017 | track 1 | ch 1 | Note Off A#1 (34) vel 0
136.104s | tick 141113 | track 1 | ch 1 | Note Off F6 (89) vel 0
136.104s | tick 141113 | track 1 | ch 1 | Note Off C5 (72) vel 0
136.104s | tick 141113 | track 1 | ch 1 | Note On A#4 (70) vel 36
136.104s | tick 141113 | track 1 | ch 1 | Note On A#2 (46) vel 35
136.104s | tick 141113 | track 1 | ch 1 | Note On F6 (89) vel 28
136.197s | tick 141209 | track 1 | ch 1 | Note Off F6 (89) vel 0
136.289s | tick 141305 | track 1 | ch 1 | Note Off A#2 (46) vel 0
136.289s | tick 141305 | track 1 | ch 1 | Note Off A#4 (70) vel 0
136.289s | tick 141305 | track 1 | ch 1 | Note On C5 (72) vel 36
136.289s | tick 141305 | track 1 | ch 1 | Note On F2 (41) vel 30
136.289s | tick 141305 | track 1 | ch 1 | Note On C6 (84) vel 28
136.382s | tick 141401 | track 1 | ch 1 | Note Off C6 (84) vel 0
136.382s | tick 141401 | track 1 | ch 1 | Note Off F2 (41) vel 0
136.382s | tick 141401 | track 1 | ch 1 | Note On C6 (84) vel 28
136.475s | tick 141497 | track 1 | ch 1 | Note Off C6 (84) vel 0
136.475s | tick 141497 | track 1 | ch 1 | Note On C4 (60) vel 36
136.475s | tick 141497 | track 1 | ch 1 | Note On F3 (53) vel 35
136.475s | tick 141497 | track 1 | ch 1 | Note On C6 (84) vel 28
136.567s | tick 141593 | track 1 | ch 1 | Note Off C6 (84) vel 0
136.567s | tick 141593 | track 1 | ch 1 | Note On C6 (84) vel 28
136.660s | tick 141689 | track 1 | ch 1 | Note Off C6 (84) vel 0
136.660s | tick 141689 | track 1 | ch 1 | Note Off F3 (53) vel 0
136.660s | tick 141689 | track 1 | ch 1 | Note Off C4 (60) vel 0
136.660s | tick 141689 | track 1 | ch 1 | Note Off C5 (72) vel 0
136.660s | tick 141689 | track 1 | ch 1 | Note On F4 (65) vel 36
136.660s | tick 141689 | track 1 | ch 1 | Note On F2 (41) vel 30
136.660s | tick 141689 | track 1 | ch 1 | Note On C6 (84) vel 25
136.752s | tick 141785 | track 1 | ch 1 | Note Off F2 (41) vel 0
136.845s | tick 141881 | track 1 | ch 1 | Note Off C6 (84) vel 0
136.845s | tick 141881 | track 1 | ch 1 | Note On C4 (60) vel 36
136.845s | tick 141881 | track 1 | ch 1 | Note On F3 (53) vel 35
136.845s | tick 141881 | track 1 | ch 1 | Note On C6 (84) vel 25
136.938s | tick 141977 | track 1 | ch 1 | Note Off C6 (84) vel 0
137.030s | tick 142073 | track 1 | ch 1 | Note Off F3 (53) vel 0
137.030s | tick 142073 | track 1 | ch 1 | Note Off C4 (60) vel 0
137.030s | tick 142073 | track 1 | ch 1 | Note Off F4 (65) vel 0
137.030s | tick 142073 | track 1 | ch 1 | Note On F4 (65) vel 36
137.030s | tick 142073 | track 1 | ch 1 | Note On F2 (41) vel 30
137.030s | tick 142073 | track 1 | ch 1 | Note On C6 (84) vel 27
137.123s | tick 142169 | track 1 | ch 1 | Note Off F2 (41) vel 0
137.215s | tick 142265 | track 1 | ch 1 | Note Off C6 (84) vel 0
137.215s | tick 142265 | track 1 | ch 1 | Note Off F4 (65) vel 0
137.215s | tick 142265 | track 1 | ch 1 | Note On G4 (67) vel 36
137.215s | tick 142265 | track 1 | ch 1 | Note On F3 (53) vel 35
137.215s | tick 142265 | track 1 | ch 1 | Note On C6 (84) vel 27
137.308s | tick 142361 | track 1 | ch 1 | Note Off C6 (84) vel 0
137.401s | tick 142457 | track 1 | ch 1 | Note Off F3 (53) vel 0
137.401s | tick 142457 | track 1 | ch 1 | Note Off G4 (67) vel 0
137.401s | tick 142457 | track 1 | ch 1 | Note On A4 (69) vel 36
137.401s | tick 142457 | track 1 | ch 1 | Note On F2 (41) vel 30
137.401s | tick 142457 | track 1 | ch 1 | Note On C6 (84) vel 27
137.493s | tick 142553 | track 1 | ch 1 | Note Off F2 (41) vel 0
137.586s | tick 142649 | track 1 | ch 1 | Note Off C6 (84) vel 0
137.586s | tick 142649 | track 1 | ch 1 | Note On C4 (60) vel 36
137.586s | tick 142649 | track 1 | ch 1 | Note On F3 (53) vel 35
137.586s | tick 142649 | track 1 | ch 1 | Note On C6 (84) vel 27
137.678s | tick 142745 | track 1 | ch 1 | Note Off C6 (84) vel 0
137.771s | tick 142841 | track 1 | ch 1 | Note Off F3 (53) vel 0
137.771s | tick 142841 | track 1 | ch 1 | Note Off C4 (60) vel 0
137.771s | tick 142841 | track 1 | ch 1 | Note Off A4 (69) vel 0
137.771s | tick 142841 | track 1 | ch 1 | Note On A#4 (70) vel 36
137.771s | tick 142841 | track 1 | ch 1 | Note On G2 (43) vel 30
137.771s | tick 142841 | track 1 | ch 1 | Note On A#5 (82) vel 27
137.863s | tick 142937 | track 1 | ch 1 | Note Off G2 (43) vel 0
137.956s | tick 143033 | track 1 | ch 1 | Note Off A#5 (82) vel 0
137.956s | tick 143033 | track 1 | ch 1 | Note On D4 (62) vel 36
137.956s | tick 143033 | track 1 | ch 1 | Note On G3 (55) vel 35
137.956s | tick 143033 | track 1 | ch 1 | Note On A#5 (82) vel 27
138.049s | tick 143129 | track 1 | ch 1 | Note Off A#5 (82) vel 0
138.141s | tick 143225 | track 1 | ch 1 | Note Off G3 (55) vel 0
138.141s | tick 143225 | track 1 | ch 1 | Note Off D4 (62) vel 0
138.141s | tick 143225 | track 1 | ch 1 | Note Off A#4 (70) vel 0
138.141s | tick 143225 | track 1 | ch 1 | Note On G4 (67) vel 36
138.141s | tick 143225 | track 1 | ch 1 | Note On G2 (43) vel 30
138.141s | tick 143225 | track 1 | ch 1 | Note On A#5 (82) vel 27
138.234s | tick 143321 | track 1 | ch 1 | Note Off G2 (43) vel 0
138.326s | tick 143417 | track 1 | ch 1 | Note Off A#5 (82) vel 0
138.326s | tick 143417 | track 1 | ch 1 | Note Off G4 (67) vel 0
138.326s | tick 143417 | track 1 | ch 1 | Note On A4 (69) vel 36
138.326s | tick 143417 | track 1 | ch 1 | Note On G3 (55) vel 35
138.326s | tick 143417 | track 1 | ch 1 | Note On A5 (81) vel 27
138.512s | tick 143609 | track 1 | ch 1 | Note Off A5 (81) vel 0
138.512s | tick 143609 | track 1 | ch 1 | Note Off G3 (55) vel 0
138.512s | tick 143609 | track 1 | ch 1 | Note On D2 (38) vel 30
138.604s | tick 143705 | track 1 | ch 1 | Note Off D2 (38) vel 0
138.697s | tick 143801 | track 1 | ch 1 | Note On D4 (62) vel 36
138.697s | tick 143801 | track 1 | ch 1 | Note On D3 (50) vel 35
138.697s | tick 143801 | track 1 | ch 1 | Note On A5 (81) vel 28
138.789s | tick 143897 | track 1 | ch 1 | Note Off A5 (81) vel 0
138.882s | tick 143993 | track 1 | ch 1 | Note Off D3 (50) vel 0
138.882s | tick 143993 | track 1 | ch 1 | Note Off D4 (62) vel 0
138.882s | tick 143993 | track 1 | ch 1 | Note Off A4 (69) vel 0
138.882s | tick 143993 | track 1 | ch 1 | Note On E4 (64) vel 36
138.882s | tick 143993 | track 1 | ch 1 | Note On D2 (38) vel 30
138.882s | tick 143993 | track 1 | ch 1 | Note On A5 (81) vel 28
138.975s | tick 144089 | track 1 | ch 1 | Note Off A5 (81) vel 0
138.975s | tick 144089 | track 1 | ch 1 | Note Off D2 (38) vel 0
139.067s | tick 144185 | track 1 | ch 1 | Note Off E4 (64) vel 0
139.067s | tick 144185 | track 1 | ch 1 | Note On F4 (65) vel 36
139.067s | tick 144185 | track 1 | ch 1 | Note On D3 (50) vel 35
139.067s | tick 144185 | track 1 | ch 1 | Note On A5 (81) vel 28
139.160s | tick 144281 | track 1 | ch 1 | Note Off A5 (81) vel 0
139.252s | tick 144377 | track 1 | ch 1 | Note Off D3 (50) vel 0
139.252s | tick 144377 | track 1 | ch 1 | Note Off F4 (65) vel 0
139.252s | tick 144377 | track 1 | ch 1 | Note On F5 (77) vel 36
139.252s | tick 144377 | track 1 | ch 1 | Note On D2 (38) vel 30
139.252s | tick 144377 | track 1 | ch 1 | Note On D6 (86) vel 28
139.345s | tick 144473 | track 1 | ch 1 | Note Off D2 (38) vel 0
139.438s | tick 144569 | track 1 | ch 1 | Note Off D6 (86) vel 0
139.438s | tick 144569 | track 1 | ch 1 | Note Off F5 (77) vel 0
139.438s | tick 144569 | track 1 | ch 1 | Note On A4 (69) vel 36
139.438s | tick 144569 | track 1 | ch 1 | Note On D3 (50) vel 35
139.438s | tick 144569 | track 1 | ch 1 | Note On D6 (86) vel 28
139.530s | tick 144665 | track 1 | ch 1 | Note Off D6 (86) vel 0
139.623s | tick 144761 | track 1 | ch 1 | Note Off D3 (50) vel 0
139.623s | tick 144761 | track 1 | ch 1 | Note Off A4 (69) vel 0
139.623s | tick 144761 | track 1 | ch 1 | Note On D5 (74) vel 36
139.623s | tick 144761 | track 1 | ch 1 | Note On D2 (38) vel 30
139.623s | tick 144761 | track 1 | ch 1 | Note On D6 (86) vel 28
139.715s | tick 144857 | track 1 | ch 1 | Note Off D2 (38) vel 0
139.808s | tick 144953 | track 1 | ch 1 | Note Off D6 (86) vel 0
139.808s | tick 144953 | track 1 | ch 1 | Note Off D5 (74) vel 0
139.808s | tick 144953 | track 1 | ch 1 | Note On E5 (76) vel 36
139.808s | tick 144953 | track 1 | ch 1 | Note On D3 (50) vel 35
139.808s | tick 144953 | track 1 | ch 1 | Note On D6 (86) vel 28
139.901s | tick 145049 | track 1 | ch 1 | Note Off D6 (86) vel 0
139.993s | tick 145145 | track 1 | ch 1 | Note Off D3 (50) vel 0
139.993s | tick 145145 | track 1 | ch 1 | Note Off E5 (76) vel 0
139.993s | tick 145145 | track 1 | ch 1 | Note On F5 (77) vel 36
139.993s | tick 145145 | track 1 | ch 1 | Note On D2 (38) vel 30
139.993s | tick 145145 | track 1 | ch 1 | Note On D6 (86) vel 28
140.086s | tick 145241 | track 1 | ch 1 | Note Off D2 (38) vel 0
140.178s | tick 145337 | track 1 | ch 1 | Note Off D6 (86) vel 0
140.178s | tick 145337 | track 1 | ch 1 | Note On A4 (69) vel 36
140.178s | tick 145337 | track 1 | ch 1 | Note On D3 (50) vel 35
140.178s | tick 145337 | track 1 | ch 1 | Note On D6 (86) vel 28
140.271s | tick 145433 | track 1 | ch 1 | Note Off D6 (86) vel 0
140.363s | tick 145529 | track 1 | ch 1 | Note Off D3 (50) vel 0
140.363s | tick 145529 | track 1 | ch 1 | Note Off A4 (69) vel 0
140.363s | tick 145529 | track 1 | ch 1 | Note Off F5 (77) vel 0
140.363s | tick 145529 | track 1 | ch 1 | Note On D5 (74) vel 36
140.363s | tick 145529 | track 1 | ch 1 | Note On D2 (38) vel 30
140.363s | tick 145529 | track 1 | ch 1 | Note On D6 (86) vel 28
140.456s | tick 145625 | track 1 | ch 1 | Note Off D2 (38) vel 0
140.549s | tick 145721 | track 1 | ch 1 | Note Off D6 (86) vel 0
140.549s | tick 145721 | track 1 | ch 1 | Note Off D5 (74) vel 0
140.549s | tick 145721 | track 1 | ch 1 | Note On F5 (77) vel 36
140.549s | tick 145721 | track 1 | ch 1 | Note On D3 (50) vel 35
140.549s | tick 145721 | track 1 | ch 1 | Note On D6 (86) vel 28
140.734s | tick 145913 | track 1 | ch 1 | Note Off D6 (86) vel 0
140.734s | tick 145913 | track 1 | ch 1 | Note Off D3 (50) vel 0
140.734s | tick 145913 | track 1 | ch 1 | Note Off F5 (77) vel 0
140.734s | tick 145913 | track 1 | ch 1 | Note On E5 (76) vel 36
140.734s | tick 145913 | track 1 | ch 1 | Note On A1 (33) vel 30
140.734s | tick 145913 | track 1 | ch 1 | Note On E6 (88) vel 28
140.826s | tick 146009 | track 1 | ch 1 | Note Off A1 (33) vel 0
140.919s | tick 146105 | track 1 | ch 1 | Note Off E6 (88) vel 0
140.919s | tick 146105 | track 1 | ch 1 | Note Off E5 (76) vel 0
140.919s | tick 146105 | track 1 | ch 1 | Note On A4 (69) vel 36
140.919s | tick 146105 | track 1 | ch 1 | Note On A2 (45) vel 35
140.919s | tick 146105 | track 1 | ch 1 | Note On E6 (88) vel 28
141.012s | tick 146201 | track 1 | ch 1 | Note Off E6 (88) vel 0
141.104s | tick 146297 | track 1 | ch 1 | Note Off A2 (45) vel 0
141.104s | tick 146297 | track 1 | ch 1 | Note Off A4 (69) vel 0
141.104s | tick 146297 | track 1 | ch 1 | Note On A5 (81) vel 36
141.104s | tick 146297 | track 1 | ch 1 | Note On A1 (33) vel 30
141.104s | tick 146297 | track 1 | ch 1 | Note On E6 (88) vel 28
141.197s | tick 146393 | track 1 | ch 1 | Note Off A1 (33) vel 0
141.289s | tick 146489 | track 1 | ch 1 | Note Off E6 (88) vel 0
141.289s | tick 146489 | track 1 | ch 1 | Note Off A5 (81) vel 0
141.289s | tick 146489 | track 1 | ch 1 | Note On D5 (74) vel 36
141.289s | tick 146489 | track 1 | ch 1 | Note On A2 (45) vel 35
141.289s | tick 146489 | track 1 | ch 1 | Note On F6 (89) vel 28
141.475s | tick 146681 | track 1 | ch 1 | Note Off A2 (45) vel 0
141.475s | tick 146681 | track 1 | ch 1 | Note On A#1 (34) vel 30
141.567s | tick 146777 | track 1 | ch 1 | Note Off A#1 (34) vel 0
141.660s | tick 146873 | track 1 | ch 1 | Note Off F6 (89) vel 0
141.660s | tick 146873 | track 1 | ch 1 | Note Off D5 (74) vel 0
141.660s | tick 146873 | track 1 | ch 1 | Note On F4 (65) vel 36
141.660s | tick 146873 | track 1 | ch 1 | Note On A#2 (46) vel 35
141.660s | tick 146873 | track 1 | ch 1 | Note On F6 (89) vel 28
141.752s | tick 146969 | track 1 | ch 1 | Note Off F6 (89) vel 0
141.845s | tick 147065 | track 1 | ch 1 | Note Off A#2 (46) vel 0
141.845s | tick 147065 | track 1 | ch 1 | Note Off F4 (65) vel 0
141.845s | tick 147065 | track 1 | ch 1 | Note On C5 (72) vel 36
141.845s | tick 147065 | track 1 | ch 1 | Note On A#1 (34) vel 30
141.845s | tick 147065 | track 1 | ch 1 | Note On F6 (89) vel 28
141.938s | tick 147161 | track 1 | ch 1 | Note Off A#1 (34) vel 0
142.030s | tick 147257 | track 1 | ch 1 | Note Off F6 (89) vel 0
142.030s | tick 147257 | track 1 | ch 1 | Note Off C5 (72) vel 0
142.030s | tick 147257 | track 1 | ch 1 | Note On A#4 (70) vel 36
142.030s | tick 147257 | track 1 | ch 1 | Note On A#2 (46) vel 35
142.030s | tick 147257 | track 1 | ch 1 | Note On F6 (89) vel 28
142.123s | tick 147353 | track 1 | ch 1 | Note Off F6 (89) vel 0
142.215s | tick 147449 | track 1 | ch 1 | Note Off A#2 (46) vel 0
142.215s | tick 147449 | track 1 | ch 1 | Note Off A#4 (70) vel 0
142.215s | tick 147449 | track 1 | ch 1 | Note On C5 (72) vel 36
142.215s | tick 147449 | track 1 | ch 1 | Note On F2 (41) vel 30
142.215s | tick 147449 | track 1 | ch 1 | Note On A5 (81) vel 28
142.308s | tick 147545 | track 1 | ch 1 | Note Off A5 (81) vel 0
142.308s | tick 147545 | track 1 | ch 1 | Note Off F2 (41) vel 0
142.401s | tick 147641 | track 1 | ch 1 | Note On C4 (60) vel 36
142.401s | tick 147641 | track 1 | ch 1 | Note On F3 (53) vel 35
142.586s | tick 147833 | track 1 | ch 1 | Note Off F3 (53) vel 0
142.586s | tick 147833 | track 1 | ch 1 | Note Off C4 (60) vel 0
142.586s | tick 147833 | track 1 | ch 1 | Note Off C5 (72) vel 0
142.586s | tick 147833 | track 1 | ch 1 | Note On F4 (65) vel 36
142.586s | tick 147833 | track 1 | ch 1 | Note On F2 (41) vel 30
142.586s | tick 147833 | track 1 | ch 1 | Note On A5 (81) vel 27
142.678s | tick 147929 | track 1 | ch 1 | Note Off F2 (41) vel 0
142.771s | tick 148025 | track 1 | ch 1 | Note Off A5 (81) vel 0
142.771s | tick 148025 | track 1 | ch 1 | Note On C4 (60) vel 36
142.771s | tick 148025 | track 1 | ch 1 | Note On F3 (53) vel 35
142.771s | tick 148025 | track 1 | ch 1 | Note On A5 (81) vel 27
142.863s | tick 148121 | track 1 | ch 1 | Note Off A5 (81) vel 0
142.956s | tick 148217 | track 1 | ch 1 | Note Off F3 (53) vel 0
142.956s | tick 148217 | track 1 | ch 1 | Note Off C4 (60) vel 0
142.956s | tick 148217 | track 1 | ch 1 | Note Off F4 (65) vel 0
142.956s | tick 148217 | track 1 | ch 1 | Note On F4 (65) vel 36
142.956s | tick 148217 | track 1 | ch 1 | Note On F2 (41) vel 30
142.956s | tick 148217 | track 1 | ch 1 | Note On A5 (81) vel 28
143.049s | tick 148313 | track 1 | ch 1 | Note Off F2 (41) vel 0
143.141s | tick 148409 | track 1 | ch 1 | Note Off A5 (81) vel 0
143.141s | tick 148409 | track 1 | ch 1 | Note Off F4 (65) vel 0
143.141s | tick 148409 | track 1 | ch 1 | Note On G4 (67) vel 36
143.141s | tick 148409 | track 1 | ch 1 | Note On F3 (53) vel 35
143.141s | tick 148409 | track 1 | ch 1 | Note On A5 (81) vel 28
143.234s | tick 148505 | track 1 | ch 1 | Note Off A5 (81) vel 0
143.326s | tick 148601 | track 1 | ch 1 | Note Off F3 (53) vel 0
143.326s | tick 148601 | track 1 | ch 1 | Note Off G4 (67) vel 0
143.326s | tick 148601 | track 1 | ch 1 | Note On A4 (69) vel 36
143.326s | tick 148601 | track 1 | ch 1 | Note On F2 (41) vel 30
143.326s | tick 148601 | track 1 | ch 1 | Note On A5 (81) vel 28
143.419s | tick 148697 | track 1 | ch 1 | Note Off F2 (41) vel 0
143.512s | tick 148793 | track 1 | ch 1 | Note Off A5 (81) vel 0
143.512s | tick 148793 | track 1 | ch 1 | Note On C4 (60) vel 36
143.512s | tick 148793 | track 1 | ch 1 | Note On F3 (53) vel 35
143.512s | tick 148793 | track 1 | ch 1 | Note On A5 (81) vel 28
143.604s | tick 148889 | track 1 | ch 1 | Note Off A5 (81) vel 0
143.697s | tick 148985 | track 1 | ch 1 | Note Off F3 (53) vel 0
143.697s | tick 148985 | track 1 | ch 1 | Note Off C4 (60) vel 0
143.697s | tick 148985 | track 1 | ch 1 | Note Off A4 (69) vel 0
143.697s | tick 148985 | track 1 | ch 1 | Note On A#4 (70) vel 36
143.697s | tick 148985 | track 1 | ch 1 | Note On G2 (43) vel 30
143.697s | tick 148985 | track 1 | ch 1 | Note On A#5 (82) vel 28
143.789s | tick 149081 | track 1 | ch 1 | Note Off G2 (43) vel 0
143.882s | tick 149177 | track 1 | ch 1 | Note Off A#5 (82) vel 0
143.882s | tick 149177 | track 1 | ch 1 | Note On D4 (62) vel 36
143.882s | tick 149177 | track 1 | ch 1 | Note On G3 (55) vel 35
143.882s | tick 149177 | track 1 | ch 1 | Note On G5 (79) vel 28
143.975s | tick 149273 | track 1 | ch 1 | Note Off G5 (79) vel 0
144.067s | tick 149369 | track 1 | ch 1 | Note Off G3 (55) vel 0
144.067s | tick 149369 | track 1 | ch 1 | Note Off D4 (62) vel 0
144.067s | tick 149369 | track 1 | ch 1 | Note Off A#4 (70) vel 0
144.067s | tick 149369 | track 1 | ch 1 | Note On G4 (67) vel 36
144.067s | tick 149369 | track 1 | ch 1 | Note On G2 (43) vel 30
144.067s | tick 149369 | track 1 | ch 1 | Note On G5 (79) vel 28
144.160s | tick 149465 | track 1 | ch 1 | Note Off G2 (43) vel 0
144.252s | tick 149561 | track 1 | ch 1 | Note Off G5 (79) vel 0
144.252s | tick 149561 | track 1 | ch 1 | Note Off G4 (67) vel 0
144.252s | tick 149561 | track 1 | ch 1 | Note On D5 (74) vel 36
144.252s | tick 149561 | track 1 | ch 1 | Note On G3 (55) vel 35
144.252s | tick 149561 | track 1 | ch 1 | Note On D6 (86) vel 28
144.438s | tick 149753 | track 1 | ch 1 | Note Off D6 (86) vel 0
144.438s | tick 149753 | track 1 | ch 1 | Note Off G3 (55) vel 0
144.438s | tick 149753 | track 1 | ch 1 | Note On D2 (38) vel 30
144.530s | tick 149849 | track 1 | ch 1 | Note Off D2 (38) vel 0
144.623s | tick 149945 | track 1 | ch 1 | Note Off D5 (74) vel 0
144.623s | tick 149945 | track 1 | ch 1 | Note On F5 (77) vel 36
144.623s | tick 149945 | track 1 | ch 1 | Note On D3 (50) vel 35
144.623s | tick 149945 | track 1 | ch 1 | Note On D6 (86) vel 30
144.715s | tick 150041 | track 1 | ch 1 | Note Off D6 (86) vel 0
144.808s | tick 150137 | track 1 | ch 1 | Note Off D3 (50) vel 0
144.808s | tick 150137 | track 1 | ch 1 | Note Off F5 (77) vel 0
144.808s | tick 150137 | track 1 | ch 1 | Note On E5 (76) vel 36
144.808s | tick 150137 | track 1 | ch 1 | Note On D2 (38) vel 30
144.808s | tick 150137 | track 1 | ch 1 | Note On D6 (86) vel 30
144.901s | tick 150233 | track 1 | ch 1 | Note Off D6 (86) vel 0
144.901s | tick 150233 | track 1 | ch 1 | Note Off D2 (38) vel 0
144.993s | tick 150329 | track 1 | ch 1 | Note Off E5 (76) vel 0
144.993s | tick 150329 | track 1 | ch 1 | Note On D5 (74) vel 36
144.993s | tick 150329 | track 1 | ch 1 | Note On D3 (50) vel 35
144.993s | tick 150329 | track 1 | ch 1 | Note On D6 (86) vel 30
145.086s | tick 150425 | track 1 | ch 1 | Note Off D6 (86) vel 0
145.178s | tick 150521 | track 1 | ch 1 | Note Off D3 (50) vel 0
145.178s | tick 150521 | track 1 | ch 1 | Note Off D5 (74) vel 0
145.178s | tick 150521 | track 1 | ch 1 | Note On F5 (77) vel 36
145.178s | tick 150521 | track 1 | ch 1 | Note On D2 (38) vel 28
145.178s | tick 150521 | track 1 | ch 1 | Note On D6 (86) vel 31
145.271s | tick 150617 | track 1 | ch 1 | Note Off D2 (38) vel 0
145.363s | tick 150713 | track 1 | ch 1 | Note Off D6 (86) vel 0
145.363s | tick 150713 | track 1 | ch 1 | Note Off F5 (77) vel 0
145.363s | tick 150713 | track 1 | ch 1 | Note On A4 (69) vel 36
145.363s | tick 150713 | track 1 | ch 1 | Note On D3 (50) vel 33
145.363s | tick 150713 | track 1 | ch 1 | Note On D6 (86) vel 31
145.456s | tick 150809 | track 1 | ch 1 | Note Off D6 (86) vel 0
145.549s | tick 150905 | track 1 | ch 1 | Note Off D3 (50) vel 0
145.549s | tick 150905 | track 1 | ch 1 | Note Off A4 (69) vel 0
145.549s | tick 150905 | track 1 | ch 1 | Note On D5 (74) vel 36
145.549s | tick 150905 | track 1 | ch 1 | Note On D2 (38) vel 28
145.549s | tick 150905 | track 1 | ch 1 | Note On D6 (86) vel 31
145.641s | tick 151001 | track 1 | ch 1 | Note Off D2 (38) vel 0
145.734s | tick 151097 | track 1 | ch 1 | Note Off D6 (86) vel 0
145.734s | tick 151097 | track 1 | ch 1 | Note Off D5 (74) vel 0
145.734s | tick 151097 | track 1 | ch 1 | Note On E5 (76) vel 36
145.734s | tick 151097 | track 1 | ch 1 | Note On D3 (50) vel 33
145.734s | tick 151097 | track 1 | ch 1 | Note On D6 (86) vel 31
145.919s | tick 151289 | track 1 | ch 1 | Note Off D6 (86) vel 0
145.919s | tick 151289 | track 1 | ch 1 | Note Off D3 (50) vel 0
145.919s | tick 151289 | track 1 | ch 1 | Note Off E5 (76) vel 0
145.919s | tick 151289 | track 1 | ch 1 | Note On F5 (77) vel 36
145.919s | tick 151289 | track 1 | ch 1 | Note On D2 (38) vel 28
145.919s | tick 151289 | track 1 | ch 1 | Note On D6 (86) vel 31
146.012s | tick 151385 | track 1 | ch 1 | Note Off D2 (38) vel 0
146.104s | tick 151481 | track 1 | ch 1 | Note Off D6 (86) vel 0
146.104s | tick 151481 | track 1 | ch 1 | Note On A4 (69) vel 36
146.104s | tick 151481 | track 1 | ch 1 | Note On D3 (50) vel 33
146.104s | tick 151481 | track 1 | ch 1 | Note On D6 (86) vel 31
146.197s | tick 151577 | track 1 | ch 1 | Note Off D6 (86) vel 0
146.289s | tick 151673 | track 1 | ch 1 | Note Off D3 (50) vel 0
146.289s | tick 151673 | track 1 | ch 1 | Note Off A4 (69) vel 0
146.289s | tick 151673 | track 1 | ch 1 | Note Off F5 (77) vel 0
146.289s | tick 151673 | track 1 | ch 1 | Note On D5 (74) vel 36
146.289s | tick 151673 | track 1 | ch 1 | Note On D2 (38) vel 28
146.289s | tick 151673 | track 1 | ch 1 | Note On D6 (86) vel 31
146.382s | tick 151769 | track 1 | ch 1 | Note Off D2 (38) vel 0
146.475s | tick 151865 | track 1 | ch 1 | Note Off D6 (86) vel 0
146.475s | tick 151865 | track 1 | ch 1 | Note Off D5 (74) vel 0
146.475s | tick 151865 | track 1 | ch 1 | Note On F5 (77) vel 36
146.475s | tick 151865 | track 1 | ch 1 | Note On D3 (50) vel 33
146.475s | tick 151865 | track 1 | ch 1 | Note On D6 (86) vel 31
146.660s | tick 152057 | track 1 | ch 1 | Note Off D6 (86) vel 0
146.660s | tick 152057 | track 1 | ch 1 | Note Off D3 (50) vel 0
146.660s | tick 152057 | track 1 | ch 1 | Note Off F5 (77) vel 0
146.660s | tick 152057 | track 1 | ch 1 | Note On E5 (76) vel 36
146.660s | tick 152057 | track 1 | ch 1 | Note On C2 (36) vel 28
146.660s | tick 152057 | track 1 | ch 1 | Note On E6 (88) vel 31
146.752s | tick 152153 | track 1 | ch 1 | Note Off C2 (36) vel 0
146.845s | tick 152249 | track 1 | ch 1 | Note Off E6 (88) vel 0
146.845s | tick 152249 | track 1 | ch 1 | Note On G4 (67) vel 36
146.845s | tick 152249 | track 1 | ch 1 | Note On C3 (48) vel 33
146.845s | tick 152249 | track 1 | ch 1 | Note On E6 (88) vel 31
146.938s | tick 152345 | track 1 | ch 1 | Note Off E6 (88) vel 0
147.030s | tick 152441 | track 1 | ch 1 | Note Off C3 (48) vel 0
147.030s | tick 152441 | track 1 | ch 1 | Note Off G4 (67) vel 0
147.030s | tick 152441 | track 1 | ch 1 | Note Off E5 (76) vel 0
147.030s | tick 152441 | track 1 | ch 1 | Note On C5 (72) vel 36
147.030s | tick 152441 | track 1 | ch 1 | Note On C2 (36) vel 28
147.030s | tick 152441 | track 1 | ch 1 | Note On E6 (88) vel 31
147.123s | tick 152537 | track 1 | ch 1 | Note Off C2 (36) vel 0
147.215s | tick 152633 | track 1 | ch 1 | Note Off E6 (88) vel 0
147.215s | tick 152633 | track 1 | ch 1 | Note Off C5 (72) vel 0
147.215s | tick 152633 | track 1 | ch 1 | Note On D5 (74) vel 36
147.215s | tick 152633 | track 1 | ch 1 | Note On C3 (48) vel 33
147.215s | tick 152633 | track 1 | ch 1 | Note On F6 (89) vel 31
147.401s | tick 152825 | track 1 | ch 1 | Note Off C3 (48) vel 0
147.401s | tick 152825 | track 1 | ch 1 | Note On A#1 (34) vel 28
147.493s | tick 152921 | track 1 | ch 1 | Note Off A#1 (34) vel 0
147.586s | tick 153017 | track 1 | ch 1 | Note Off F6 (89) vel 0
147.586s | tick 153017 | track 1 | ch 1 | Note Off D5 (74) vel 0
147.586s | tick 153017 | track 1 | ch 1 | Note On F4 (65) vel 36
147.586s | tick 153017 | track 1 | ch 1 | Note On A#2 (46) vel 33
147.586s | tick 153017 | track 1 | ch 1 | Note On F6 (89) vel 31
147.678s | tick 153113 | track 1 | ch 1 | Note Off F6 (89) vel 0
147.771s | tick 153209 | track 1 | ch 1 | Note Off A#2 (46) vel 0
147.771s | tick 153209 | track 1 | ch 1 | Note Off F4 (65) vel 0
147.771s | tick 153209 | track 1 | ch 1 | Note On C5 (72) vel 36
147.771s | tick 153209 | track 1 | ch 1 | Note On A#1 (34) vel 28
147.771s | tick 153209 | track 1 | ch 1 | Note On F6 (89) vel 31
147.863s | tick 153305 | track 1 | ch 1 | Note Off A#1 (34) vel 0
147.956s | tick 153401 | track 1 | ch 1 | Note Off F6 (89) vel 0
147.956s | tick 153401 | track 1 | ch 1 | Note Off C5 (72) vel 0
147.956s | tick 153401 | track 1 | ch 1 | Note On A#4 (70) vel 36
147.956s | tick 153401 | track 1 | ch 1 | Note On A#2 (46) vel 33
147.956s | tick 153401 | track 1 | ch 1 | Note On F6 (89) vel 31
148.049s | tick 153497 | track 1 | ch 1 | Note Off F6 (89) vel 0
148.141s | tick 153593 | track 1 | ch 1 | Note Off A#2 (46) vel 0
148.141s | tick 153593 | track 1 | ch 1 | Note Off A#4 (70) vel 0
148.141s | tick 153593 | track 1 | ch 1 | Note On C5 (72) vel 36
148.141s | tick 153593 | track 1 | ch 1 | Note On F2 (41) vel 28
148.141s | tick 153593 | track 1 | ch 1 | Note On C6 (84) vel 31
148.234s | tick 153689 | track 1 | ch 1 | Note Off C6 (84) vel 0
148.234s | tick 153689 | track 1 | ch 1 | Note Off F2 (41) vel 0
148.234s | tick 153689 | track 1 | ch 1 | Note On C6 (84) vel 31
148.326s | tick 153785 | track 1 | ch 1 | Note Off C6 (84) vel 0
148.326s | tick 153785 | track 1 | ch 1 | Note On C4 (60) vel 36
148.326s | tick 153785 | track 1 | ch 1 | Note On F3 (53) vel 33
148.326s | tick 153785 | track 1 | ch 1 | Note On C6 (84) vel 31
148.419s | tick 153881 | track 1 | ch 1 | Note Off C6 (84) vel 0
148.419s | tick 153881 | track 1 | ch 1 | Note On C6 (84) vel 31
148.512s | tick 153977 | track 1 | ch 1 | Note Off C6 (84) vel 0
148.512s | tick 153977 | track 1 | ch 1 | Note Off F3 (53) vel 0
148.512s | tick 153977 | track 1 | ch 1 | Note Off C4 (60) vel 0
148.512s | tick 153977 | track 1 | ch 1 | Note Off C5 (72) vel 0
148.512s | tick 153977 | track 1 | ch 1 | Note On F4 (65) vel 36
148.512s | tick 153977 | track 1 | ch 1 | Note On F2 (41) vel 28
148.512s | tick 153977 | track 1 | ch 1 | Note On C6 (84) vel 28
148.604s | tick 154073 | track 1 | ch 1 | Note Off F2 (41) vel 0
148.697s | tick 154169 | track 1 | ch 1 | Note Off C6 (84) vel 0
148.697s | tick 154169 | track 1 | ch 1 | Note On C4 (60) vel 36
148.697s | tick 154169 | track 1 | ch 1 | Note On F3 (53) vel 33
148.697s | tick 154169 | track 1 | ch 1 | Note On C6 (84) vel 28
148.789s | tick 154265 | track 1 | ch 1 | Note Off C6 (84) vel 0
148.882s | tick 154361 | track 1 | ch 1 | Note Off F3 (53) vel 0
148.882s | tick 154361 | track 1 | ch 1 | Note Off C4 (60) vel 0
148.882s | tick 154361 | track 1 | ch 1 | Note Off F4 (65) vel 0
148.882s | tick 154361 | track 1 | ch 1 | Note On F4 (65) vel 36
148.882s | tick 154361 | track 1 | ch 1 | Note On F2 (41) vel 28
148.882s | tick 154361 | track 1 | ch 1 | Note On C6 (84) vel 30
148.975s | tick 154457 | track 1 | ch 1 | Note Off F2 (41) vel 0
149.067s | tick 154553 | track 1 | ch 1 | Note Off C6 (84) vel 0
149.067s | tick 154553 | track 1 | ch 1 | Note Off F4 (65) vel 0
149.067s | tick 154553 | track 1 | ch 1 | Note On G4 (67) vel 36
149.067s | tick 154553 | track 1 | ch 1 | Note On F3 (53) vel 33
149.067s | tick 154553 | track 1 | ch 1 | Note On C6 (84) vel 30
149.160s | tick 154649 | track 1 | ch 1 | Note Off C6 (84) vel 0
149.252s | tick 154745 | track 1 | ch 1 | Note Off F3 (53) vel 0
149.252s | tick 154745 | track 1 | ch 1 | Note Off G4 (67) vel 0
149.252s | tick 154745 | track 1 | ch 1 | Note On A4 (69) vel 36
149.252s | tick 154745 | track 1 | ch 1 | Note On F2 (41) vel 28
149.252s | tick 154745 | track 1 | ch 1 | Note On C6 (84) vel 30
149.345s | tick 154841 | track 1 | ch 1 | Note Off F2 (41) vel 0
149.438s | tick 154937 | track 1 | ch 1 | Note Off C6 (84) vel 0
149.438s | tick 154937 | track 1 | ch 1 | Note On C4 (60) vel 36
149.438s | tick 154937 | track 1 | ch 1 | Note On F3 (53) vel 33
149.438s | tick 154937 | track 1 | ch 1 | Note On C6 (84) vel 30
149.530s | tick 155033 | track 1 | ch 1 | Note Off C6 (84) vel 0
149.623s | tick 155129 | track 1 | ch 1 | Note Off F3 (53) vel 0
149.623s | tick 155129 | track 1 | ch 1 | Note Off C4 (60) vel 0
149.623s | tick 155129 | track 1 | ch 1 | Note Off A4 (69) vel 0
149.623s | tick 155129 | track 1 | ch 1 | Note On A#4 (70) vel 36
149.623s | tick 155129 | track 1 | ch 1 | Note On G2 (43) vel 28
149.623s | tick 155129 | track 1 | ch 1 | Note On A#5 (82) vel 30
149.715s | tick 155225 | track 1 | ch 1 | Note Off G2 (43) vel 0
149.808s | tick 155321 | track 1 | ch 1 | Note Off A#5 (82) vel 0
149.808s | tick 155321 | track 1 | ch 1 | Note On D4 (62) vel 36
149.808s | tick 155321 | track 1 | ch 1 | Note On G3 (55) vel 33
149.808s | tick 155321 | track 1 | ch 1 | Note On A#5 (82) vel 30
149.901s | tick 155417 | track 1 | ch 1 | Note Off A#5 (82) vel 0
149.993s | tick 155513 | track 1 | ch 1 | Note Off G3 (55) vel 0
149.993s | tick 155513 | track 1 | ch 1 | Note Off D4 (62) vel 0
149.993s | tick 155513 | track 1 | ch 1 | Note Off A#4 (70) vel 0
149.993s | tick 155513 | track 1 | ch 1 | Note On G4 (67) vel 36
149.993s | tick 155513 | track 1 | ch 1 | Note On G2 (43) vel 28
149.993s | tick 155513 | track 1 | ch 1 | Note On A#5 (82) vel 30
150.086s | tick 155609 | track 1 | ch 1 | Note Off G2 (43) vel 0
150.178s | tick 155705 | track 1 | ch 1 | Note Off A#5 (82) vel 0
150.178s | tick 155705 | track 1 | ch 1 | Note Off G4 (67) vel 0
150.178s | tick 155705 | track 1 | ch 1 | Note On A4 (69) vel 36
150.178s | tick 155705 | track 1 | ch 1 | Note On G3 (55) vel 33
150.178s | tick 155705 | track 1 | ch 1 | Note On A5 (81) vel 30
150.363s | tick 155897 | track 1 | ch 1 | Note Off A5 (81) vel 0
150.363s | tick 155897 | track 1 | ch 1 | Note Off G3 (55) vel 0
150.363s | tick 155897 | track 1 | ch 1 | Note On D2 (38) vel 28
150.456s | tick 155993 | track 1 | ch 1 | Note Off D2 (38) vel 0
150.549s | tick 156089 | track 1 | ch 1 | Note On D4 (62) vel 36
150.549s | tick 156089 | track 1 | ch 1 | Note On D3 (50) vel 33
150.549s | tick 156089 | track 1 | ch 1 | Note On A5 (81) vel 31
150.641s | tick 156185 | track 1 | ch 1 | Note Off A5 (81) vel 0
150.734s | tick 156281 | track 1 | ch 1 | Note Off D3 (50) vel 0
150.734s | tick 156281 | track 1 | ch 1 | Note Off D4 (62) vel 0
150.734s | tick 156281 | track 1 | ch 1 | Note Off A4 (69) vel 0
150.734s | tick 156281 | track 1 | ch 1 | Note On E4 (64) vel 36
150.734s | tick 156281 | track 1 | ch 1 | Note On D2 (38) vel 28
150.734s | tick 156281 | track 1 | ch 1 | Note On A5 (81) vel 31
150.826s | tick 156377 | track 1 | ch 1 | Note Off A5 (81) vel 0
150.826s | tick 156377 | track 1 | ch 1 | Note Off D2 (38) vel 0
150.919s | tick 156473 | track 1 | ch 1 | Note Off E4 (64) vel 0
150.919s | tick 156473 | track 1 | ch 1 | Note On F4 (65) vel 36
150.919s | tick 156473 | track 1 | ch 1 | Note On D3 (50) vel 33
150.919s | tick 156473 | track 1 | ch 1 | Note On A5 (81) vel 31
151.012s | tick 156569 | track 1 | ch 1 | Note Off A5 (81) vel 0
151.104s | tick 156665 | track 1 | ch 1 | Note Off D3 (50) vel 0
151.104s | tick 156665 | track 1 | ch 1 | Note Off F4 (65) vel 0
151.104s | tick 156665 | track 1 | ch 1 | Note On F5 (77) vel 36
151.104s | tick 156665 | track 1 | ch 1 | Note On D2 (38) vel 28
151.104s | tick 156665 | track 1 | ch 1 | Note On D6 (86) vel 31
151.197s | tick 156761 | track 1 | ch 1 | Note Off D2 (38) vel 0
151.289s | tick 156857 | track 1 | ch 1 | Note Off D6 (86) vel 0
151.289s | tick 156857 | track 1 | ch 1 | Note Off F5 (77) vel 0
151.289s | tick 156857 | track 1 | ch 1 | Note On A4 (69) vel 36
151.289s | tick 156857 | track 1 | ch 1 | Note On D3 (50) vel 33
151.289s | tick 156857 | track 1 | ch 1 | Note On D6 (86) vel 31
151.382s | tick 156953 | track 1 | ch 1 | Note Off D6 (86) vel 0
151.475s | tick 157049 | track 1 | ch 1 | Note Off D3 (50) vel 0
151.475s | tick 157049 | track 1 | ch 1 | Note Off A4 (69) vel 0
151.475s | tick 157049 | track 1 | ch 1 | Note On D5 (74) vel 36
151.475s | tick 157049 | track 1 | ch 1 | Note On D2 (38) vel 28
151.475s | tick 157049 | track 1 | ch 1 | Note On D6 (86) vel 31
151.567s | tick 157145 | track 1 | ch 1 | Note Off D2 (38) vel 0
151.660s | tick 157241 | track 1 | ch 1 | Note Off D6 (86) vel 0
151.660s | tick 157241 | track 1 | ch 1 | Note Off D5 (74) vel 0
151.660s | tick 157241 | track 1 | ch 1 | Note On E5 (76) vel 36
151.660s | tick 157241 | track 1 | ch 1 | Note On D3 (50) vel 33
151.660s | tick 157241 | track 1 | ch 1 | Note On D6 (86) vel 31
151.752s | tick 157337 | track 1 | ch 1 | Note Off D6 (86) vel 0
151.845s | tick 157433 | track 1 | ch 1 | Note Off D3 (50) vel 0
151.845s | tick 157433 | track 1 | ch 1 | Note Off E5 (76) vel 0
151.845s | tick 157433 | track 1 | ch 1 | Note On F5 (77) vel 36
151.845s | tick 157433 | track 1 | ch 1 | Note On D2 (38) vel 28
151.845s | tick 157433 | track 1 | ch 1 | Note On D6 (86) vel 31
151.938s | tick 157529 | track 1 | ch 1 | Note Off D2 (38) vel 0
152.030s | tick 157625 | track 1 | ch 1 | Note Off D6 (86) vel 0
152.030s | tick 157625 | track 1 | ch 1 | Note On A4 (69) vel 36
152.030s | tick 157625 | track 1 | ch 1 | Note On D3 (50) vel 33
152.030s | tick 157625 | track 1 | ch 1 | Note On D6 (86) vel 31
152.123s | tick 157721 | track 1 | ch 1 | Note Off D6 (86) vel 0
152.215s | tick 157817 | track 1 | ch 1 | Note Off D3 (50) vel 0
152.215s | tick 157817 | track 1 | ch 1 | Note Off A4 (69) vel 0
152.215s | tick 157817 | track 1 | ch 1 | Note Off F5 (77) vel 0
152.215s | tick 157817 | track 1 | ch 1 | Note On D5 (74) vel 36
152.215s | tick 157817 | track 1 | ch 1 | Note On D2 (38) vel 28
152.215s | tick 157817 | track 1 | ch 1 | Note On D6 (86) vel 31
152.308s | tick 157913 | track 1 | ch 1 | Note Off D2 (38) vel 0
152.401s | tick 158009 | track 1 | ch 1 | Note Off D6 (86) vel 0
152.401s | tick 158009 | track 1 | ch 1 | Note Off D5 (74) vel 0
152.401s | tick 158009 | track 1 | ch 1 | Note On F5 (77) vel 36
152.401s | tick 158009 | track 1 | ch 1 | Note On D3 (50) vel 33
152.401s | tick 158009 | track 1 | ch 1 | Note On D6 (86) vel 31
152.586s | tick 158201 | track 1 | ch 1 | Note Off D6 (86) vel 0
152.586s | tick 158201 | track 1 | ch 1 | Note Off D3 (50) vel 0
152.586s | tick 158201 | track 1 | ch 1 | Note Off F5 (77) vel 0
152.586s | tick 158201 | track 1 | ch 1 | Note On E5 (76) vel 36
152.586s | tick 158201 | track 1 | ch 1 | Note On A1 (33) vel 28
152.586s | tick 158201 | track 1 | ch 1 | Note On E6 (88) vel 31
152.678s | tick 158297 | track 1 | ch 1 | Note Off A1 (33) vel 0
152.771s | tick 158393 | track 1 | ch 1 | Note Off E6 (88) vel 0
152.771s | tick 158393 | track 1 | ch 1 | Note Off E5 (76) vel 0
152.771s | tick 158393 | track 1 | ch 1 | Note On A4 (69) vel 36
152.771s | tick 158393 | track 1 | ch 1 | Note On A2 (45) vel 33
152.771s | tick 158393 | track 1 | ch 1 | Note On E6 (88) vel 31
152.863s | tick 158489 | track 1 | ch 1 | Note Off E6 (88) vel 0
152.956s | tick 158585 | track 1 | ch 1 | Note Off A2 (45) vel 0
152.956s | tick 158585 | track 1 | ch 1 | Note Off A4 (69) vel 0
152.956s | tick 158585 | track 1 | ch 1 | Note On A5 (81) vel 36
152.956s | tick 158585 | track 1 | ch 1 | Note On A1 (33) vel 28
152.956s | tick 158585 | track 1 | ch 1 | Note On E6 (88) vel 31
153.049s | tick 158681 | track 1 | ch 1 | Note Off A1 (33) vel 0
153.141s | tick 158777 | track 1 | ch 1 | Note Off E6 (88) vel 0
153.141s | tick 158777 | track 1 | ch 1 | Note Off A5 (81) vel 0
153.141s | tick 158777 | track 1 | ch 1 | Note On D5 (74) vel 36
153.141s | tick 158777 | track 1 | ch 1 | Note On A2 (45) vel 33
153.141s | tick 158777 | track 1 | ch 1 | Note On F6 (89) vel 31
153.326s | tick 158969 | track 1 | ch 1 | Note Off A2 (45) vel 0
153.326s | tick 158969 | track 1 | ch 1 | Note On A#1 (34) vel 28
153.419s | tick 159065 | track 1 | ch 1 | Note Off A#1 (34) vel 0
153.512s | tick 159161 | track 1 | ch 1 | Note Off F6 (89) vel 0
153.512s | tick 159161 | track 1 | ch 1 | Note Off D5 (74) vel 0
153.512s | tick 159161 | track 1 | ch 1 | Note On F4 (65) vel 36
153.512s | tick 159161 | track 1 | ch 1 | Note On A#2 (46) vel 33
153.512s | tick 159161 | track 1 | ch 1 | Note On F6 (89) vel 31
153.604s | tick 159257 | track 1 | ch 1 | Note Off F6 (89) vel 0
153.697s | tick 159353 | track 1 | ch 1 | Note Off A#2 (46) vel 0
153.697s | tick 159353 | track 1 | ch 1 | Note Off F4 (65) vel 0
153.697s | tick 159353 | track 1 | ch 1 | Note On C5 (72) vel 36
153.697s | tick 159353 | track 1 | ch 1 | Note On A#1 (34) vel 28
153.697s | tick 159353 | track 1 | ch 1 | Note On F6 (89) vel 31
153.789s | tick 159449 | track 1 | ch 1 | Note Off A#1 (34) vel 0
153.882s | tick 159545 | track 1 | ch 1 | Note Off F6 (89) vel 0
153.882s | tick 159545 | track 1 | ch 1 | Note Off C5 (72) vel 0
153.882s | tick 159545 | track 1 | ch 1 | Note On A#4 (70) vel 36
153.882s | tick 159545 | track 1 | ch 1 | Note On A#2 (46) vel 33
153.882s | tick 159545 | track 1 | ch 1 | Note On F6 (89) vel 31
153.975s | tick 159641 | track 1 | ch 1 | Note Off F6 (89) vel 0
154.067s | tick 159737 | track 1 | ch 1 | Note Off A#2 (46) vel 0
154.067s | tick 159737 | track 1 | ch 1 | Note Off A#4 (70) vel 0
154.067s | tick 159737 | track 1 | ch 1 | Note On C5 (72) vel 36
154.067s | tick 159737 | track 1 | ch 1 | Note On F2 (41) vel 28
154.067s | tick 159737 | track 1 | ch 1 | Note On A5 (81) vel 31
154.160s | tick 159833 | track 1 | ch 1 | Note Off A5 (81) vel 0
154.160s | tick 159833 | track 1 | ch 1 | Note Off F2 (41) vel 0
154.252s | tick 159929 | track 1 | ch 1 | Note On C4 (60) vel 36
154.252s | tick 159929 | track 1 | ch 1 | Note On F3 (53) vel 33
154.438s | tick 160121 | track 1 | ch 1 | Note Off F3 (53) vel 0
154.438s | tick 160121 | track 1 | ch 1 | Note Off C4 (60) vel 0
154.438s | tick 160121 | track 1 | ch 1 | Note Off C5 (72) vel 0
154.438s | tick 160121 | track 1 | ch 1 | Note On F4 (65) vel 36
154.438s | tick 160121 | track 1 | ch 1 | Note On F2 (41) vel 28
154.438s | tick 160121 | track 1 | ch 1 | Note On A5 (81) vel 30
154.530s | tick 160217 | track 1 | ch 1 | Note Off F2 (41) vel 0
154.623s | tick 160313 | track 1 | ch 1 | Note Off A5 (81) vel 0
154.623s | tick 160313 | track 1 | ch 1 | Note On C4 (60) vel 36
154.623s | tick 160313 | track 1 | ch 1 | Note On F3 (53) vel 33
154.623s | tick 160313 | track 1 | ch 1 | Note On A5 (81) vel 30
154.715s | tick 160409 | track 1 | ch 1 | Note Off A5 (81) vel 0
154.808s | tick 160505 | track 1 | ch 1 | Note Off F3 (53) vel 0
154.808s | tick 160505 | track 1 | ch 1 | Note Off C4 (60) vel 0
154.808s | tick 160505 | track 1 | ch 1 | Note Off F4 (65) vel 0
154.808s | tick 160505 | track 1 | ch 1 | Note On F4 (65) vel 36
154.808s | tick 160505 | track 1 | ch 1 | Note On F2 (41) vel 28
154.808s | tick 160505 | track 1 | ch 1 | Note On A5 (81) vel 31
154.901s | tick 160601 | track 1 | ch 1 | Note Off F2 (41) vel 0
154.993s | tick 160697 | track 1 | ch 1 | Note Off A5 (81) vel 0
154.993s | tick 160697 | track 1 | ch 1 | Note Off F4 (65) vel 0
154.993s | tick 160697 | track 1 | ch 1 | Note On G4 (67) vel 36
154.993s | tick 160697 | track 1 | ch 1 | Note On F3 (53) vel 33
154.993s | tick 160697 | track 1 | ch 1 | Note On A5 (81) vel 31
155.086s | tick 160793 | track 1 | ch 1 | Note Off A5 (81) vel 0
155.178s | tick 160889 | track 1 | ch 1 | Note Off F3 (53) vel 0
155.178s | tick 160889 | track 1 | ch 1 | Note Off G4 (67) vel 0
155.178s | tick 160889 | track 1 | ch 1 | Note On A4 (69) vel 27
155.178s | tick 160889 | track 1 | ch 1 | Note On F2 (41) vel 28
155.178s | tick 160889 | track 1 | ch 1 | Note On A5 (81) vel 31
155.271s | tick 160985 | track 1 | ch 1 | Note Off F2 (41) vel 0
155.363s | tick 161081 | track 1 | ch 1 | Note Off A5 (81) vel 0
155.363s | tick 161081 | track 1 | ch 1 | Note On C4 (60) vel 36
155.363s | tick 161081 | track 1 | ch 1 | Note On F3 (53) vel 33
155.363s | tick 161081 | track 1 | ch 1 | Note On A5 (81) vel 31
155.456s | tick 161177 | track 1 | ch 1 | Note Off A5 (81) vel 0
155.549s | tick 161273 | track 1 | ch 1 | Note Off F3 (53) vel 0
155.549s | tick 161273 | track 1 | ch 1 | Note Off C4 (60) vel 0
155.549s | tick 161273 | track 1 | ch 1 | Note Off A4 (69) vel 0
155.549s | tick 161273 | track 1 | ch 1 | Note On A#4 (70) vel 33
155.549s | tick 161273 | track 1 | ch 1 | Note On G2 (43) vel 28
155.549s | tick 161273 | track 1 | ch 1 | Note On A#4 (70) vel 38
155.641s | tick 161369 | track 1 | ch 1 | Note Off G2 (43) vel 0
155.734s | tick 161465 | track 1 | ch 1 | Note Off A#4 (70) vel 0
155.734s | tick 161465 | track 1 | ch 1 | Note On G3 (55) vel 33
155.734s | tick 161465 | track 1 | ch 1 | Note On G4 (67) vel 38
155.826s | tick 161561 | track 1 | ch 1 | Note Off G4 (67) vel 0
155.919s | tick 161657 | track 1 | ch 1 | Note Off G3 (55) vel 0
155.919s | tick 161657 | track 1 | ch 1 | Note Off A#4 (70) vel 0
155.919s | tick 161657 | track 1 | ch 1 | Note On G4 (67) vel 35
155.919s | tick 161657 | track 1 | ch 1 | Note On G2 (43) vel 28
156.012s | tick 161753 | track 1 | ch 1 | Note Off G2 (43) vel 0
156.104s | tick 161849 | track 1 | ch 1 | Note Off G4 (67) vel 0
156.104s | tick 161849 | track 1 | ch 1 | Note On D5 (74) vel 38
156.104s | tick 161849 | track 1 | ch 1 | Note On G3 (55) vel 33
156.289s | tick 162041 | track 1 | ch 1 | Note Off G3 (55) vel 0
156.289s | tick 162041 | track 1 | ch 1 | Note Off D5 (74) vel 0
156.289s | tick 162041 | track 1 | ch 1 | Note On C5 (72) vel 36
156.289s | tick 162041 | track 1 | ch 1 | Note On D2 (38) vel 28
156.382s | tick 162137 | track 1 | ch 1 | Note Off D2 (38) vel 0
156.382s | tick 162137 | track 1 | ch 1 | Note Off C5 (72) vel 0
156.382s | tick 162137 | track 1 | ch 1 | Note On A#4 (70) vel 36
156.475s | tick 162233 | track 1 | ch 1 | Note Off A#4 (70) vel 0
156.475s | tick 162233 | track 1 | ch 1 | Note On C5 (72) vel 36
156.475s | tick 162233 | track 1 | ch 1 | Note On D3 (50) vel 33
156.567s | tick 162329 | track 1 | ch 1 | Note Off C5 (72) vel 0
156.567s | tick 162329 | track 1 | ch 1 | Note On D5 (74) vel 36
156.660s | tick 162425 | track 1 | ch 1 | Note Off D5 (74) vel 0
156.660s | tick 162425 | track 1 | ch 1 | Note Off D3 (50) vel 0
156.660s | tick 162425 | track 1 | ch 1 | Note On D#5 (75) vel 36
156.660s | tick 162425 | track 1 | ch 1 | Note On D2 (38) vel 28
156.752s | tick 162521 | track 1 | ch 1 | Note Off D2 (38) vel 0
156.752s | tick 162521 | track 1 | ch 1 | Note Off D#5 (75) vel 0
156.752s | tick 162521 | track 1 | ch 1 | Note On D5 (74) vel 36
156.845s | tick 162617 | track 1 | ch 1 | Note Off D5 (74) vel 0
156.845s | tick 162617 | track 1 | ch 1 | Note On C5 (72) vel 36
156.845s | tick 162617 | track 1 | ch 1 | Note On D3 (50) vel 33
156.938s | tick 162713 | track 1 | ch 1 | Note Off C5 (72) vel 0
156.938s | tick 162713 | track 1 | ch 1 | Note On D5 (74) vel 36
157.030s | tick 162809 | track 1 | ch 1 | Note Off D5 (74) vel 0
157.030s | tick 162809 | track 1 | ch 1 | Note Off D3 (50) vel 0
157.030s | tick 162809 | track 1 | ch 1 | Note On F5 (77) vel 36
157.030s | tick 162809 | track 1 | ch 1 | Note On D3 (50) vel 35
157.123s | tick 162905 | track 1 | ch 1 | Note Off F5 (77) vel 0
157.123s | tick 162905 | track 1 | ch 1 | Note On D5 (74) vel 36
157.215s | tick 163001 | track 1 | ch 1 | Note Off D5 (74) vel 0
157.215s | tick 163001 | track 1 | ch 1 | Note Off D3 (50) vel 0
157.215s | tick 163001 | track 1 | ch 1 | Note On B4 (71) vel 36
157.308s | tick 163097 | track 1 | ch 1 | Note Off B4 (71) vel 0
157.308s | tick 163097 | track 1 | ch 1 | Note On G#4 (68) vel 36
157.308s | tick 163097 | track 1 | ch 1 | Note On B2 (47) vel 35
157.400s | tick 163193 | track 1 | ch 1 | Note Off G#4 (68) vel 0
157.400s | tick 163193 | track 1 | ch 1 | Note On F4 (65) vel 36
157.400s | tick 163193 | track 1 | ch 1 | Note On B4 (71) vel 23
157.493s | tick 163289 | track 1 | ch 1 | Note Off B4 (71) vel 0
157.493s | tick 163289 | track 1 | ch 1 | Note Off F4 (65) vel 0
157.493s | tick 163289 | track 1 | ch 1 | Note Off B2 (47) vel 0
157.493s | tick 163289 | track 1 | ch 1 | Note On D4 (62) vel 36
157.493s | tick 163289 | track 1 | ch 1 | Note On G#4 (68) vel 24
157.586s | tick 163385 | track 1 | ch 1 | Note Off G#4 (68) vel 0
157.586s | tick 163385 | track 1 | ch 1 | Note Off D4 (62) vel 0
157.586s | tick 163385 | track 1 | ch 1 | Note On F4 (65) vel 36
157.586s | tick 163385 | track 1 | ch 1 | Note On G#2 (44) vel 31
157.586s | tick 163385 | track 1 | ch 1 | Note On B4 (71) vel 26
157.678s | tick 163481 | track 1 | ch 1 | Note Off B4 (71) vel 0
157.678s | tick 163481 | track 1 | ch 1 | Note Off F4 (65) vel 0
157.678s | tick 163481 | track 1 | ch 1 | Note On D4 (62) vel 36
157.678s | tick 163481 | track 1 | ch 1 | Note On G#4 (68) vel 27
157.771s | tick 163577 | track 1 | ch 1 | Note Off G#4 (68) vel 0
157.771s | tick 163577 | track 1 | ch 1 | Note Off D4 (62) vel 0
157.771s | tick 163577 | track 1 | ch 1 | Note Off G#2 (44) vel 0
157.771s | tick 163577 | track 1 | ch 1 | Note On B3 (59) vel 36
157.771s | tick 163577 | track 1 | ch 1 | Note On F4 (65) vel 30
157.863s | tick 163673 | track 1 | ch 1 | Note Off F4 (65) vel 0
157.863s | tick 163673 | track 1 | ch 1 | Note Off B3 (59) vel 0
157.863s | tick 163673 | track 1 | ch 1 | Note On D4 (62) vel 36
157.863s | tick 163673 | track 1 | ch 1 | Note On F2 (41) vel 28
157.863s | tick 163673 | track 1 | ch 1 | Note On G#4 (68) vel 32
157.956s | tick 163769 | track 1 | ch 1 | Note Off G#4 (68) vel 0
157.956s | tick 163769 | track 1 | ch 1 | Note Off D4 (62) vel 0
157.956s | tick 163769 | track 1 | ch 1 | Note On B3 (59) vel 36
157.956s | tick 163769 | track 1 | ch 1 | Note On F4 (65) vel 33
158.049s | tick 163865 | track 1 | ch 1 | Note Off F4 (65) vel 0
158.049s | tick 163865 | track 1 | ch 1 | Note Off B3 (59) vel 0
158.049s | tick 163865 | track 1 | ch 1 | Note Off F2 (41) vel 0
158.049s | tick 163865 | track 1 | ch 1 | Note On G#3 (56) vel 36
158.049s | tick 163865 | track 1 | ch 1 | Note On D4 (62) vel 35
158.141s | tick 163961 | track 1 | ch 1 | Note Off D4 (62) vel 0
158.141s | tick 163961 | track 1 | ch 1 | Note Off G#3 (56) vel 0
158.141s | tick 163961 | track 1 | ch 1 | Note On F4 (65) vel 36
158.141s | tick 163961 | track 1 | ch 1 | Note On B3 (59) vel 35
158.234s | tick 164057 | track 1 | ch 1 | Note Off B3 (59) vel 0
158.234s | tick 164057 | track 1 | ch 1 | Note Off F4 (65) vel 0
158.234s | tick 164057 | track 1 | ch 1 | Note On D4 (62) vel 36
158.234s | tick 164057 | track 1 | ch 1 | Note On G#3 (56) vel 35
158.326s | tick 164153 | track 1 | ch 1 | Note Off G#3 (56) vel 0
158.326s | tick 164153 | track 1 | ch 1 | Note Off D4 (62) vel 0
158.326s | tick 164153 | track 1 | ch 1 | Note On B3 (59) vel 36
158.326s | tick 164153 | track 1 | ch 1 | Note On F3 (53) vel 35
158.419s | tick 164249 | track 1 | ch 1 | Note Off F3 (53) vel 0
158.419s | tick 164249 | track 1 | ch 1 | Note Off B3 (59) vel 0
158.419s | tick 164249 | track 1 | ch 1 | Note On G#4 (68) vel 36
158.419s | tick 164249 | track 1 | ch 1 | Note On G#3 (56) vel 35
158.512s | tick 164345 | track 1 | ch 1 | Note Off G#3 (56) vel 0
158.512s | tick 164345 | track 1 | ch 1 | Note Off G#4 (68) vel 0
158.512s | tick 164345 | track 1 | ch 1 | Note On G4 (67) vel 36
158.512s | tick 164345 | track 1 | ch 1 | Note On G3 (55) vel 35
158.604s | tick 164441 | track 1 | ch 1 | Note Off G3 (55) vel 0
158.604s | tick 164441 | track 1 | ch 1 | Note Off G4 (67) vel 0
158.604s | tick 164441 | track 1 | ch 1 | Note On A4 (69) vel 36
158.604s | tick 164441 | track 1 | ch 1 | Note On A3 (57) vel 35
158.697s | tick 164537 | track 1 | ch 1 | Note Off A3 (57) vel 0
158.697s | tick 164537 | track 1 | ch 1 | Note Off A4 (69) vel 0
158.697s | tick 164537 | track 1 | ch 1 | Note On B4 (71) vel 36
158.697s | tick 164537 | track 1 | ch 1 | Note On B3 (59) vel 35
158.789s | tick 164633 | track 1 | ch 1 | Note Off B3 (59) vel 0
158.789s | tick 164633 | track 1 | ch 1 | Note Off B4 (71) vel 0
158.789s | tick 164633 | track 1 | ch 1 | Note On D5 (74) vel 36
158.789s | tick 164633 | track 1 | ch 1 | Note On D4 (62) vel 35
158.882s | tick 164729 | track 1 | ch 1 | Note Off D4 (62) vel 0
158.882s | tick 164729 | track 1 | ch 1 | Note Off D5 (74) vel 0
158.882s | tick 164729 | track 1 | ch 1 | Note On B4 (71) vel 36
158.882s | tick 164729 | track 1 | ch 1 | Note On B3 (59) vel 35
158.975s | tick 164825 | track 1 | ch 1 | Note Off B3 (59) vel 0
158.975s | tick 164825 | track 1 | ch 1 | Note Off B4 (71) vel 0
158.975s | tick 164825 | track 1 | ch 1 | Note On D5 (74) vel 36
158.975s | tick 164825 | track 1 | ch 1 | Note On D4 (62) vel 35
159.067s | tick 164921 | track 1 | ch 1 | Note Off D4 (62) vel 0
159.067s | tick 164921 | track 1 | ch 1 | Note Off D5 (74) vel 0
159.067s | tick 164921 | track 1 | ch 1 | Note On F5 (77) vel 36
159.067s | tick 164921 | track 1 | ch 1 | Note On F4 (65) vel 35
159.160s | tick 165017 | track 1 | ch 1 | Note Off F4 (65) vel 0
159.160s | tick 165017 | track 1 | ch 1 | Note Off F5 (77) vel 0
159.160s | tick 165017 | track 1 | ch 1 | Note On G#5 (80) vel 36
159.160s | tick 165017 | track 1 | ch 1 | Note On G#4 (68) vel 35
159.252s | tick 165113 | track 1 | ch 1 | Note Off G#4 (68) vel 0
159.252s | tick 165113 | track 1 | ch 1 | Note Off G#5 (80) vel 0
159.252s | tick 165113 | track 1 | ch 1 | Note On G5 (79) vel 38
159.252s | tick 165113 | track 1 | ch 1 | Note On G4 (67) vel 35
159.438s | tick 165305 | track 1 | ch 1 | Note Off F4 (65) vel 0
159.438s | tick 165305 | track 1 | ch 1 | Note Off G4 (67) vel 0
159.438s | tick 165305 | track 1 | ch 1 | Note On F4 (65) vel 34
159.468s | tick 165337 | track 1 | ch 1 | Note Off D#4 (63) vel 0
159.468s | tick 165337 | track 1 | ch 1 | Note On D#4 (63) vel 33
159.500s | tick 165370 | track 1 | ch 1 | Note Off D4 (62) vel 0
159.500s | tick 165370 | track 1 | ch 1 | Note On D4 (62) vel 32
159.531s | tick 165402 | track 1 | ch 1 | Note Off C4 (60) vel 0
159.531s | tick 165402 | track 1 | ch 1 | Note On C4 (60) vel 31
159.562s | tick 165434 | track 1 | ch 1 | Note Off A#3 (58) vel 0
159.562s | tick 165434 | track 1 | ch 1 | Note On A#3 (58) vel 30
159.594s | tick 165467 | track 1 | ch 1 | Note Off G#3 (56) vel 0
159.594s | tick 165467 | track 1 | ch 1 | Note On G#3 (56) vel 29
159.625s | tick 165499 | track 1 | ch 1 | Note Off G3 (55) vel 0
159.625s | tick 165499 | track 1 | ch 1 | Note Off G5 (79) vel 0
159.625s | tick 165499 | track 1 | ch 1 | Note On G3 (55) vel 28
159.644s | tick 165519 | track 1 | ch 1 | Note Off F3 (53) vel 0
159.644s | tick 165519 | track 1 | ch 1 | Note On F3 (53) vel 27
159.663s | tick 165539 | track 1 | ch 1 | Note Off D#3 (51) vel 0
159.663s | tick 165539 | track 1 | ch 1 | Note On D#3 (51) vel 25
159.683s | tick 165559 | track 1 | ch 1 | Note Off D3 (50) vel 0
159.683s | tick 165559 | track 1 | ch 1 | Note On D3 (50) vel 24
159.701s | tick 165578 | track 1 | ch 1 | Note Off C3 (48) vel 0
159.701s | tick 165578 | track 1 | ch 1 | Note On C3 (48) vel 24
159.994s | tick 165882 | track 1 | ch 1 | Note On G3 (55) vel 28
159.994s | tick 165882 | track 1 | ch 1 | Note On G4 (67) vel 39
159.994s | tick 165882 | track 1 | ch 1 | Note On C5 (72) vel 30
160.087s | tick 165978 | track 1 | ch 1 | Note Off C5 (72) vel 0
160.087s | tick 165978 | track 1 | ch 1 | Note On G4 (67) vel 30
160.179s | tick 166074 | track 1 | ch 1 | Note Off G4 (67) vel 0
160.179s | tick 166074 | track 1 | ch 1 | Note On C2 (36) vel 33
160.179s | tick 166074 | track 1 | ch 1 | Note On D#4 (63) vel 30
160.272s | tick 166170 | track 1 | ch 1 | Note Off D#4 (63) vel 0
160.272s | tick 166170 | track 1 | ch 1 | Note On C4 (60) vel 30
160.364s | tick 166266 | track 1 | ch 1 | Note Off C4 (60) vel 0
160.364s | tick 166266 | track 1 | ch 1 | Note Off C2 (36) vel 0
160.364s | tick 166266 | track 1 | ch 1 | Note On G4 (67) vel 30
160.457s | tick 166362 | track 1 | ch 1 | Note Off G4 (67) vel 0
160.457s | tick 166362 | track 1 | ch 1 | Note On D#4 (63) vel 30
160.550s | tick 166458 | track 1 | ch 1 | Note Off D#4 (63) vel 0
160.550s | tick 166458 | track 1 | ch 1 | Note On C2 (36) vel 33
160.550s | tick 166458 | track 1 | ch 1 | Note On C4 (60) vel 30
160.642s | tick 166554 | track 1 | ch 1 | Note Off C4 (60) vel 0
160.642s | tick 166554 | track 1 | ch 1 | Note On G3 (55) vel 30
160.735s | tick 166650 | track 1 | ch 1 | Note Off G3 (55) vel 0
160.735s | tick 166650 | track 1 | ch 1 | Note Off C2 (36) vel 0
160.735s | tick 166650 | track 1 | ch 1 | Note On D#4 (63) vel 30
160.827s | tick 166746 | track 1 | ch 1 | Note Off D#4 (63) vel 0
160.920s | tick 166842 | track 1 | ch 1 | Note On C2 (36) vel 33
160.920s | tick 166842 | track 1 | ch 1 | Note On C4 (60) vel 30
161.013s | tick 166938 | track 1 | ch 1 | Note Off C4 (60) vel 0
161.013s | tick 166938 | track 1 | ch 1 | Note On D#4 (63) vel 30
161.105s | tick 167034 | track 1 | ch 1 | Note Off D#4 (63) vel 0
161.105s | tick 167034 | track 1 | ch 1 | Note Off C2 (36) vel 0
161.105s | tick 167034 | track 1 | ch 1 | Note On G3 (55) vel 30
161.198s | tick 167130 | track 1 | ch 1 | Note Off G3 (55) vel 0
161.198s | tick 167130 | track 1 | ch 1 | Note On C4 (60) vel 30
161.290s | tick 167226 | track 1 | ch 1 | Note Off C4 (60) vel 0
161.290s | tick 167226 | track 1 | ch 1 | Note On C2 (36) vel 33
161.290s | tick 167226 | track 1 | ch 1 | Note On D#4 (63) vel 30
161.383s | tick 167322 | track 1 | ch 1 | Note Off D#4 (63) vel 0
161.476s | tick 167418 | track 1 | ch 1 | Note Off C2 (36) vel 0
161.476s | tick 167418 | track 1 | ch 1 | Note Off G4 (67) vel 0
161.476s | tick 167418 | track 1 | ch 1 | Note Off G3 (55) vel 0
161.476s | tick 167418 | track 1 | ch 1 | Note On F4 (65) vel 39
161.476s | tick 167418 | track 1 | ch 1 | Note On F3 (53) vel 28
161.476s | tick 167418 | track 1 | ch 1 | Note On A#4 (70) vel 30
161.568s | tick 167514 | track 1 | ch 1 | Note Off A#4 (70) vel 0
161.568s | tick 167514 | track 1 | ch 1 | Note On G4 (67) vel 30
161.661s | tick 167610 | track 1 | ch 1 | Note Off G4 (67) vel 0
161.661s | tick 167610 | track 1 | ch 1 | Note On F2 (41) vel 33
161.661s | tick 167610 | track 1 | ch 1 | Note On D#4 (63) vel 30
161.753s | tick 167706 | track 1 | ch 1 | Note Off D#4 (63) vel 0
161.753s | tick 167706 | track 1 | ch 1 | Note On A#3 (58) vel 30
161.846s | tick 167802 | track 1 | ch 1 | Note Off A#3 (58) vel 0
161.846s | tick 167802 | track 1 | ch 1 | Note Off F2 (41) vel 0
161.846s | tick 167802 | track 1 | ch 1 | Note On G4 (67) vel 30
161.938s | tick 167898 | track 1 | ch 1 | Note Off G4 (67) vel 0
161.938s | tick 167898 | track 1 | ch 1 | Note On D#4 (63) vel 30
162.031s | tick 167994 | track 1 | ch 1 | Note Off D#4 (63) vel 0
162.031s | tick 167994 | track 1 | ch 1 | Note On F2 (41) vel 33
162.031s | tick 167994 | track 1 | ch 1 | Note On A#3 (58) vel 30
162.124s | tick 168090 | track 1 | ch 1 | Note Off A#3 (58) vel 0
162.216s | tick 168186 | track 1 | ch 1 | Note Off F2 (41) vel 0
162.216s | tick 168186 | track 1 | ch 1 | Note Off F3 (53) vel 0
162.216s | tick 168186 | track 1 | ch 1 | Note Off F4 (65) vel 0
162.216s | tick 168186 | track 1 | ch 1 | Note On G#4 (68) vel 39
162.216s | tick 168186 | track 1 | ch 1 | Note On G#3 (56) vel 28
162.216s | tick 168186 | track 1 | ch 1 | Note On D#3 (51) vel 30
162.309s | tick 168282 | track 1 | ch 1 | Note Off D#3 (51) vel 0
162.309s | tick 168282 | track 1 | ch 1 | Note On F3 (53) vel 30
162.401s | tick 168378 | track 1 | ch 1 | Note Off F3 (53) vel 0
162.401s | tick 168378 | track 1 | ch 1 | Note On F2 (41) vel 33
162.401s | tick 168378 | track 1 | ch 1 | Note On G#3 (56) vel 30
162.494s | tick 168474 | track 1 | ch 1 | Note Off G#3 (56) vel 0
162.494s | tick 168474 | track 1 | ch 1 | Note On C4 (60) vel 30
162.587s | tick 168570 | track 1 | ch 1 | Note Off C4 (60) vel 0
162.587s | tick 168570 | track 1 | ch 1 | Note Off F2 (41) vel 0
162.587s | tick 168570 | track 1 | ch 1 | Note On F3 (53) vel 30
162.679s | tick 168666 | track 1 | ch 1 | Note Off F3 (53) vel 0
162.679s | tick 168666 | track 1 | ch 1 | Note On G#3 (56) vel 30
162.772s | tick 168762 | track 1 | ch 1 | Note Off G#3 (56) vel 0
162.772s | tick 168762 | track 1 | ch 1 | Note On F2 (41) vel 33
162.772s | tick 168762 | track 1 | ch 1 | Note On C4 (60) vel 30
162.864s | tick 168858 | track 1 | ch 1 | Note Off C4 (60) vel 0
162.864s | tick 168858 | track 1 | ch 1 | Note On F4 (65) vel 30
162.957s | tick 168954 | track 1 | ch 1 | Note Off F4 (65) vel 0
162.957s | tick 168954 | track 1 | ch 1 | Note Off F2 (41) vel 0
162.957s | tick 168954 | track 1 | ch 1 | Note Off G#3 (56) vel 0
162.957s | tick 168954 | track 1 | ch 1 | Note Off G#4 (68) vel 0
162.957s | tick 168954 | track 1 | ch 1 | Note On G4 (67) vel 41
162.957s | tick 168954 | track 1 | ch 1 | Note On G3 (55) vel 33
163.142s | tick 169146 | track 1 | ch 1 | Note Off G4 (67) vel 0
163.142s | tick 169146 | track 1 | ch 1 | Note On C2 (36) vel 33
163.142s | tick 169146 | track 1 | ch 1 | Note On C4 (60) vel 36
163.235s | tick 169242 | track 1 | ch 1 | Note Off C4 (60) vel 0
163.235s | tick 169242 | track 1 | ch 1 | Note On D#4 (63) vel 36
163.327s | tick 169338 | track 1 | ch 1 | Note Off D#4 (63) vel 0
163.327s | tick 169338 | track 1 | ch 1 | Note Off C2 (36) vel 0
163.327s | tick 169338 | track 1 | ch 1 | Note On G3 (55) vel 36
163.420s | tick 169434 | track 1 | ch 1 | Note Off G3 (55) vel 0
163.420s | tick 169434 | track 1 | ch 1 | Note On C4 (60) vel 36
163.513s | tick 169530 | track 1 | ch 1 | Note Off C4 (60) vel 0
163.513s | tick 169530 | track 1 | ch 1 | Note On C2 (36) vel 33
163.513s | tick 169530 | track 1 | ch 1 | Note On F4 (65) vel 36
163.605s | tick 169626 | track 1 | ch 1 | Note Off F4 (65) vel 0
163.605s | tick 169626 | track 1 | ch 1 | Note On G3 (55) vel 28
163.698s | tick 169722 | track 1 | ch 1 | Note Off G3 (55) vel 0
163.698s | tick 169722 | track 1 | ch 1 | Note Off C2 (36) vel 0
163.698s | tick 169722 | track 1 | ch 1 | Note On C4 (60) vel 36
163.790s | tick 169818 | track 1 | ch 1 | Note Off C4 (60) vel 0
163.790s | tick 169818 | track 1 | ch 1 | Note On D4 (62) vel 36
163.883s | tick 169914 | track 1 | ch 1 | Note Off D4 (62) vel 0
163.883s | tick 169914 | track 1 | ch 1 | Note On C2 (36) vel 33
163.883s | tick 169914 | track 1 | ch 1 | Note On G3 (55) vel 36
163.976s | tick 170010 | track 1 | ch 1 | Note Off G3 (55) vel 0
163.976s | tick 170010 | track 1 | ch 1 | Note On C4 (60) vel 36
164.068s | tick 170106 | track 1 | ch 1 | Note Off C4 (60) vel 0
164.068s | tick 170106 | track 1 | ch 1 | Note Off C2 (36) vel 0
164.068s | tick 170106 | track 1 | ch 1 | Note On D#4 (63) vel 36
164.161s | tick 170202 | track 1 | ch 1 | Note Off D#4 (63) vel 0
164.161s | tick 170202 | track 1 | ch 1 | Note On D4 (62) vel 36
164.253s | tick 170298 | track 1 | ch 1 | Note Off D4 (62) vel 0
164.253s | tick 170298 | track 1 | ch 1 | Note On C2 (36) vel 33
164.253s | tick 170298 | track 1 | ch 1 | Note On C4 (60) vel 36
164.346s | tick 170394 | track 1 | ch 1 | Note Off C4 (60) vel 0
164.346s | tick 170394 | track 1 | ch 1 | Note On G3 (55) vel 36
164.438s | tick 170490 | track 1 | ch 1 | Note Off G3 (55) vel 0
164.438s | tick 170490 | track 1 | ch 1 | Note Off C2 (36) vel 0
164.438s | tick 170490 | track 1 | ch 1 | Note On G4 (67) vel 36
164.531s | tick 170586 | track 1 | ch 1 | Note Off G4 (67) vel 0
164.624s | tick 170682 | track 1 | ch 1 | Note On C2 (36) vel 33
164.624s | tick 170682 | track 1 | ch 1 | Note On C4 (60) vel 36
164.716s | tick 170778 | track 1 | ch 1 | Note Off C4 (60) vel 0
164.716s | tick 170778 | track 1 | ch 1 | Note On D#4 (63) vel 36
164.809s | tick 170874 | track 1 | ch 1 | Note Off D#4 (63) vel 0
164.809s | tick 170874 | track 1 | ch 1 | Note Off C2 (36) vel 0
164.809s | tick 170874 | track 1 | ch 1 | Note On G3 (55) vel 36
164.901s | tick 170970 | track 1 | ch 1 | Note Off G3 (55) vel 0
164.901s | tick 170970 | track 1 | ch 1 | Note On C4 (60) vel 36
164.994s | tick 171066 | track 1 | ch 1 | Note Off C4 (60) vel 0
164.994s | tick 171066 | track 1 | ch 1 | Note On C2 (36) vel 33
164.994s | tick 171066 | track 1 | ch 1 | Note On F4 (65) vel 36
165.087s | tick 171162 | track 1 | ch 1 | Note Off F4 (65) vel 0
165.087s | tick 171162 | track 1 | ch 1 | Note On G3 (55) vel 36
165.179s | tick 171258 | track 1 | ch 1 | Note Off G3 (55) vel 0
165.179s | tick 171258 | track 1 | ch 1 | Note Off C2 (36) vel 0
165.179s | tick 171258 | track 1 | ch 1 | Note On C4 (60) vel 36
165.272s | tick 171354 | track 1 | ch 1 | Note Off C4 (60) vel 0
165.272s | tick 171354 | track 1 | ch 1 | Note On D4 (62) vel 36
165.364s | tick 171450 | track 1 | ch 1 | Note Off D4 (62) vel 0
165.364s | tick 171450 | track 1 | ch 1 | Note On C2 (36) vel 33
165.364s | tick 171450 | track 1 | ch 1 | Note On G3 (55) vel 36
165.457s | tick 171546 | track 1 | ch 1 | Note Off G3 (55) vel 0
165.457s | tick 171546 | track 1 | ch 1 | Note On D4 (62) vel 36
165.550s | tick 171642 | track 1 | ch 1 | Note Off D4 (62) vel 0
165.550s | tick 171642 | track 1 | ch 1 | Note Off C2 (36) vel 0
165.550s | tick 171642 | track 1 | ch 1 | Note On D#4 (63) vel 36
165.642s | tick 171738 | track 1 | ch 1 | Note Off D#4 (63) vel 0
165.642s | tick 171738 | track 1 | ch 1 | Note On D4 (62) vel 36
165.735s | tick 171834 | track 1 | ch 1 | Note Off D4 (62) vel 0
165.735s | tick 171834 | track 1 | ch 1 | Note On C2 (36) vel 33
165.735s | tick 171834 | track 1 | ch 1 | Note On D#4 (63) vel 36
165.827s | tick 171930 | track 1 | ch 1 | Note Off D#4 (63) vel 0
165.827s | tick 171930 | track 1 | ch 1 | Note On F4 (65) vel 36
165.920s | tick 172026 | track 1 | ch 1 | Note Off F4 (65) vel 0
165.920s | tick 172026 | track 1 | ch 1 | Note Off C2 (36) vel 0
165.920s | tick 172026 | track 1 | ch 1 | Note Off G3 (55) vel 0
165.920s | tick 172026 | track 1 | ch 1 | Note On G#4 (68) vel 39
165.920s | tick 172026 | track 1 | ch 1 | Note On G#3 (56) vel 25
165.920s | tick 172026 | track 1 | ch 1 | Note On D#5 (75) vel 30
166.013s | tick 172122 | track 1 | ch 1 | Note Off D#5 (75) vel 0
166.013s | tick 172122 | track 1 | ch 1 | Note On C5 (72) vel 30
166.105s | tick 172218 | track 1 | ch 1 | Note Off C5 (72) vel 0
166.105s | tick 172218 | track 1 | ch 1 | Note On G#2 (44) vel 33
166.105s | tick 172218 | track 1 | ch 1 | Note On G#4 (68) vel 30
166.198s | tick 172314 | track 1 | ch 1 | Note Off G#4 (68) vel 0
166.198s | tick 172314 | track 1 | ch 1 | Note On D#4 (63) vel 30
166.290s | tick 172410 | track 1 | ch 1 | Note Off D#4 (63) vel 0
166.290s | tick 172410 | track 1 | ch 1 | Note Off G#2 (44) vel 0
166.290s | tick 172410 | track 1 | ch 1 | Note On C5 (72) vel 30
166.383s | tick 172506 | track 1 | ch 1 | Note Off C5 (72) vel 0
166.383s | tick 172506 | track 1 | ch 1 | Note On G#4 (68) vel 30
166.476s | tick 172602 | track 1 | ch 1 | Note Off G#4 (68) vel 0
166.476s | tick 172602 | track 1 | ch 1 | Note On G#2 (44) vel 33
166.476s | tick 172602 | track 1 | ch 1 | Note On D#4 (63) vel 30
166.568s | tick 172698 | track 1 | ch 1 | Note Off D#4 (63) vel 0
166.568s | tick 172698 | track 1 | ch 1 | Note On C4 (60) vel 30
166.661s | tick 172794 | track 1 | ch 1 | Note Off C4 (60) vel 0
166.661s | tick 172794 | track 1 | ch 1 | Note Off G#2 (44) vel 0
166.661s | tick 172794 | track 1 | ch 1 | Note Off G#3 (56) vel 0
166.661s | tick 172794 | track 1 | ch 1 | Note Off G#4 (68) vel 0
166.661s | tick 172794 | track 1 | ch 1 | Note On D#5 (75) vel 39
166.661s | tick 172794 | track 1 | ch 1 | Note On D#4 (63) vel 27
166.661s | tick 172794 | track 1 | ch 1 | Note On G#3 (56) vel 30
166.753s | tick 172890 | track 1 | ch 1 | Note Off G#3 (56) vel 0
166.753s | tick 172890 | track 1 | ch 1 | Note On C4 (60) vel 30
166.846s | tick 172986 | track 1 | ch 1 | Note Off C4 (60) vel 0
166.846s | tick 172986 | track 1 | ch 1 | Note On G#2 (44) vel 33
166.846s | tick 172986 | track 1 | ch 1 | Note On D#4 (63) vel 30
166.938s | tick 173082 | track 1 | ch 1 | Note Off D#4 (63) vel 0
166.938s | tick 173082 | track 1 | ch 1 | Note On G#4 (68) vel 30
167.031s | tick 173178 | track 1 | ch 1 | Note Off G#4 (68) vel 0
167.031s | tick 173178 | track 1 | ch 1 | Note Off G#2 (44) vel 0
167.031s | tick 173178 | track 1 | ch 1 | Note On D#4 (63) vel 30
167.124s | tick 173274 | track 1 | ch 1 | Note Off D#4 (63) vel 0
167.124s | tick 173274 | track 1 | ch 1 | Note On G#4 (68) vel 30
167.216s | tick 173370 | track 1 | ch 1 | Note Off G#4 (68) vel 0
167.216s | tick 173370 | track 1 | ch 1 | Note On G#2 (44) vel 33
167.216s | tick 173370 | track 1 | ch 1 | Note On D#5 (75) vel 30
167.309s | tick 173466 | track 1 | ch 1 | Note Off D#5 (75) vel 0
167.309s | tick 173466 | track 1 | ch 1 | Note On F5 (77) vel 30
167.401s | tick 173562 | track 1 | ch 1 | Note Off F5 (77) vel 0
167.401s | tick 173562 | track 1 | ch 1 | Note Off G#2 (44) vel 0
167.401s | tick 173562 | track 1 | ch 1 | Note Off D#4 (63) vel 0
167.401s | tick 173562 | track 1 | ch 1 | Note Off D#5 (75) vel 0
167.401s | tick 173562 | track 1 | ch 1 | Note On D5 (74) vel 39
167.401s | tick 173562 | track 1 | ch 1 | Note On D4 (62) vel 27
167.401s | tick 173562 | track 1 | ch 1 | Note On G#5 (80) vel 30
167.494s | tick 173658 | track 1 | ch 1 | Note Off G#5 (80) vel 0
167.494s | tick 173658 | track 1 | ch 1 | Note On F5 (77) vel 30
167.587s | tick 173754 | track 1 | ch 1 | Note Off F5 (77) vel 0
167.587s | tick 173754 | track 1 | ch 1 | Note On F2 (41) vel 33
167.587s | tick 173754 | track 1 | ch 1 | Note On C5 (72) vel 30
167.679s | tick 173850 | track 1 | ch 1 | Note Off C5 (72) vel 0
167.679s | tick 173850 | track 1 | ch 1 | Note On G#4 (68) vel 30
167.772s | tick 173946 | track 1 | ch 1 | Note Off G#4 (68) vel 0
167.772s | tick 173946 | track 1 | ch 1 | Note Off F2 (41) vel 0
167.772s | tick 173946 | track 1 | ch 1 | Note On F5 (77) vel 30
167.864s | tick 174042 | track 1 | ch 1 | Note Off F5 (77) vel 0
167.864s | tick 174042 | track 1 | ch 1 | Note On C5 (72) vel 30
167.957s | tick 174138 | track 1 | ch 1 | Note Off C5 (72) vel 0
167.957s | tick 174138 | track 1 | ch 1 | Note On F2 (41) vel 33
167.957s | tick 174138 | track 1 | ch 1 | Note On G#4 (68) vel 30
168.050s | tick 174234 | track 1 | ch 1 | Note Off G#4 (68) vel 0
168.050s | tick 174234 | track 1 | ch 1 | Note On F4 (65) vel 30
168.142s | tick 174330 | track 1 | ch 1 | Note Off F4 (65) vel 0
168.142s | tick 174330 | track 1 | ch 1 | Note Off F2 (41) vel 0
168.142s | tick 174330 | track 1 | ch 1 | Note Off D4 (62) vel 0
168.142s | tick 174330 | track 1 | ch 1 | Note Off D5 (74) vel 0
168.142s | tick 174330 | track 1 | ch 1 | Note On G#4 (68) vel 39
168.142s | tick 174330 | track 1 | ch 1 | Note On G#3 (56) vel 27
168.142s | tick 174330 | track 1 | ch 1 | Note On C4 (60) vel 30
168.235s | tick 174426 | track 1 | ch 1 | Note Off C4 (60) vel 0
168.235s | tick 174426 | track 1 | ch 1 | Note On F4 (65) vel 30
168.327s | tick 174522 | track 1 | ch 1 | Note Off F4 (65) vel 0
168.327s | tick 174522 | track 1 | ch 1 | Note On F2 (41) vel 33
168.327s | tick 174522 | track 1 | ch 1 | Note On G#4 (68) vel 30
168.420s | tick 174618 | track 1 | ch 1 | Note Off G#4 (68) vel 0
168.420s | tick 174618 | track 1 | ch 1 | Note On C5 (72) vel 30
168.513s | tick 174714 | track 1 | ch 1 | Note Off C5 (72) vel 0
168.513s | tick 174714 | track 1 | ch 1 | Note Off F2 (41) vel 0
168.513s | tick 174714 | track 1 | ch 1 | Note Off G#3 (56) vel 0
168.513s | tick 174714 | track 1 | ch 1 | Note Off G#4 (68) vel 0
168.513s | tick 174714 | track 1 | ch 1 | Note On A#4 (70) vel 39
168.513s | tick 174714 | track 1 | ch 1 | Note On A#3 (58) vel 27
168.513s | tick 174714 | track 1 | ch 1 | Note On F4 (65) vel 30
168.605s | tick 174810 | track 1 | ch 1 | Note Off F4 (65) vel 0
168.605s | tick 174810 | track 1 | ch 1 | Note On G#4 (68) vel 30
168.698s | tick 174906 | track 1 | ch 1 | Note Off G#4 (68) vel 0
168.698s | tick 174906 | track 1 | ch 1 | Note On F2 (41) vel 33
168.698s | tick 174906 | track 1 | ch 1 | Note On C5 (72) vel 30
168.790s | tick 175002 | track 1 | ch 1 | Note Off C5 (72) vel 0
168.790s | tick 175002 | track 1 | ch 1 | Note On F5 (77) vel 30
168.883s | tick 175098 | track 1 | ch 1 | Note Off F5 (77) vel 0
168.883s | tick 175098 | track 1 | ch 1 | Note Off F2 (41) vel 0
168.883s | tick 175098 | track 1 | ch 1 | Note Off A#3 (58) vel 0
168.883s | tick 175098 | track 1 | ch 1 | Note Off A#4 (70) vel 0
168.883s | tick 175098 | track 1 | ch 1 | Note On C5 (72) vel 38
168.976s | tick 175194 | track 1 | ch 1 | Note Off C5 (72) vel 0
168.976s | tick 175194 | track 1 | ch 1 | Note On G3 (55) vel 38
169.068s | tick 175290 | track 1 | ch 1 | Note Off G3 (55) vel 0
169.068s | tick 175290 | track 1 | ch 1 | Note On G4 (67) vel 38
169.068s | tick 175290 | track 1 | ch 1 | Note On C2 (36) vel 33
169.161s | tick 175386 | track 1 | ch 1 | Note Off G4 (67) vel 0
169.161s | tick 175386 | track 1 | ch 1 | Note On D5 (74) vel 38
169.253s | tick 175482 | track 1 | ch 1 | Note Off D5 (74) vel 0
169.253s | tick 175482 | track 1 | ch 1 | Note Off C2 (36) vel 0
169.253s | tick 175482 | track 1 | ch 1 | Note On C4 (60) vel 38
169.346s | tick 175578 | track 1 | ch 1 | Note Off C4 (60) vel 0
169.346s | tick 175578 | track 1 | ch 1 | Note On G4 (67) vel 38
169.438s | tick 175674 | track 1 | ch 1 | Note Off G4 (67) vel 0
169.438s | tick 175674 | track 1 | ch 1 | Note On C5 (72) vel 38
169.438s | tick 175674 | track 1 | ch 1 | Note On C2 (36) vel 33
169.531s | tick 175770 | track 1 | ch 1 | Note Off C5 (72) vel 0
169.531s | tick 175770 | track 1 | ch 1 | Note On C4 (60) vel 38
169.624s | tick 175866 | track 1 | ch 1 | Note Off C4 (60) vel 0
169.624s | tick 175866 | track 1 | ch 1 | Note Off C2 (36) vel 0
169.624s | tick 175866 | track 1 | ch 1 | Note On G4 (67) vel 38
169.716s | tick 175962 | track 1 | ch 1 | Note Off G4 (67) vel 0
169.716s | tick 175962 | track 1 | ch 1 | Note On D#5 (75) vel 38
169.809s | tick 176058 | track 1 | ch 1 | Note Off D#5 (75) vel 0
169.809s | tick 176058 | track 1 | ch 1 | Note On C4 (60) vel 38
169.809s | tick 176058 | track 1 | ch 1 | Note On C2 (36) vel 33
169.901s | tick 176154 | track 1 | ch 1 | Note Off C4 (60) vel 0
169.901s | tick 176154 | track 1 | ch 1 | Note On G4 (67) vel 38
169.994s | tick 176250 | track 1 | ch 1 | Note Off G4 (67) vel 0
169.994s | tick 176250 | track 1 | ch 1 | Note Off C2 (36) vel 0
169.994s | tick 176250 | track 1 | ch 1 | Note On D5 (74) vel 38
170.087s | tick 176346 | track 1 | ch 1 | Note Off D5 (74) vel 0
170.087s | tick 176346 | track 1 | ch 1 | Note On D#5 (75) vel 38
170.179s | tick 176442 | track 1 | ch 1 | Note Off D#5 (75) vel 0
170.179s | tick 176442 | track 1 | ch 1 | Note On D5 (74) vel 38
170.179s | tick 176442 | track 1 | ch 1 | Note On C2 (36) vel 33
170.272s | tick 176538 | track 1 | ch 1 | Note Off D5 (74) vel 0
170.272s | tick 176538 | track 1 | ch 1 | Note On A#4 (70) vel 38
170.364s | tick 176634 | track 1 | ch 1 | Note Off A#4 (70) vel 0
170.364s | tick 176634 | track 1 | ch 1 | Note Off C2 (36) vel 0
170.364s | tick 176634 | track 1 | ch 1 | Note On C5 (72) vel 38
170.457s | tick 176730 | track 1 | ch 1 | Note Off C5 (72) vel 0
170.457s | tick 176730 | track 1 | ch 1 | Note On C4 (60) vel 38
170.550s | tick 176826 | track 1 | ch 1 | Note Off C4 (60) vel 0
170.550s | tick 176826 | track 1 | ch 1 | Note On A#4 (70) vel 38
170.550s | tick 176826 | track 1 | ch 1 | Note On C2 (36) vel 33
170.642s | tick 176922 | track 1 | ch 1 | Note Off A#4 (70) vel 0
170.642s | tick 176922 | track 1 | ch 1 | Note On C5 (72) vel 38
170.735s | tick 177018 | track 1 | ch 1 | Note Off C5 (72) vel 0
170.735s | tick 177018 | track 1 | ch 1 | Note Off C2 (36) vel 0
170.735s | tick 177018 | track 1 | ch 1 | Note On C4 (60) vel 38
170.827s | tick 177114 | track 1 | ch 1 | Note Off C4 (60) vel 0
170.827s | tick 177114 | track 1 | ch 1 | Note On D#4 (63) vel 38
170.920s | tick 177210 | track 1 | ch 1 | Note Off D#4 (63) vel 0
170.920s | tick 177210 | track 1 | ch 1 | Note On G4 (67) vel 38
170.920s | tick 177210 | track 1 | ch 1 | Note On C2 (36) vel 33
171.013s | tick 177306 | track 1 | ch 1 | Note Off G4 (67) vel 0
171.013s | tick 177306 | track 1 | ch 1 | Note On D#4 (63) vel 38
171.105s | tick 177402 | track 1 | ch 1 | Note Off D#4 (63) vel 0
171.105s | tick 177402 | track 1 | ch 1 | Note Off C2 (36) vel 0
171.105s | tick 177402 | track 1 | ch 1 | Note On F4 (65) vel 36
171.105s | tick 177402 | track 1 | ch 1 | Note On C4 (60) vel 28
171.198s | tick 177498 | track 1 | ch 1 | Note Off C4 (60) vel 0
171.198s | tick 177498 | track 1 | ch 1 | Note Off F4 (65) vel 0
171.198s | tick 177498 | track 1 | ch 1 | Note On A#3 (58) vel 28
171.198s | tick 177498 | track 1 | ch 1 | Note On D#4 (63) vel 36
171.290s | tick 177594 | track 1 | ch 1 | Note Off D#4 (63) vel 0
171.290s | tick 177594 | track 1 | ch 1 | Note Off A#3 (58) vel 0
171.290s | tick 177594 | track 1 | ch 1 | Note On F4 (65) vel 36
171.290s | tick 177594 | track 1 | ch 1 | Note On C4 (60) vel 28
171.290s | tick 177594 | track 1 | ch 1 | Note On C2 (36) vel 33
171.383s | tick 177690 | track 1 | ch 1 | Note Off C4 (60) vel 0
171.383s | tick 177690 | track 1 | ch 1 | Note Off F4 (65) vel 0
171.383s | tick 177690 | track 1 | ch 1 | Note On G4 (67) vel 36
171.383s | tick 177690 | track 1 | ch 1 | Note On D4 (62) vel 28
171.476s | tick 177786 | track 1 | ch 1 | Note Off D4 (62) vel 0
171.476s | tick 177786 | track 1 | ch 1 | Note Off G4 (67) vel 0
171.476s | tick 177786 | track 1 | ch 1 | Note Off C2 (36) vel 0
171.476s | tick 177786 | track 1 | ch 1 | Note On D#4 (63) vel 28
171.476s | tick 177786 | track 1 | ch 1 | Note On G#4 (68) vel 36
171.568s | tick 177882 | track 1 | ch 1 | Note Off G#4 (68) vel 0
171.568s | tick 177882 | track 1 | ch 1 | Note Off D#4 (63) vel 0
171.568s | tick 177882 | track 1 | ch 1 | Note On G4 (67) vel 36
171.568s | tick 177882 | track 1 | ch 1 | Note On D4 (62) vel 28
171.661s | tick 177978 | track 1 | ch 1 | Note Off D4 (62) vel 0
171.661s | tick 177978 | track 1 | ch 1 | Note Off G4 (67) vel 0
171.661s | tick 177978 | track 1 | ch 1 | Note On D#4 (63) vel 28
171.661s | tick 177978 | track 1 | ch 1 | Note On G#4 (68) vel 36
171.661s | tick 177978 | track 1 | ch 1 | Note On C2 (36) vel 33
171.753s | tick 178074 | track 1 | ch 1 | Note Off G#4 (68) vel 0
171.753s | tick 178074 | track 1 | ch 1 | Note Off D#4 (63) vel 0
171.753s | tick 178074 | track 1 | ch 1 | Note On F4 (65) vel 28
171.753s | tick 178074 | track 1 | ch 1 | Note On A#4 (70) vel 36
171.846s | tick 178170 | track 1 | ch 1 | Note Off A#4 (70) vel 0
171.846s | tick 178170 | track 1 | ch 1 | Note Off F4 (65) vel 0
171.846s | tick 178170 | track 1 | ch 1 | Note Off C2 (36) vel 0
171.846s | tick 178170 | track 1 | ch 1 | Note On G3 (55) vel 28
171.846s | tick 178170 | track 1 | ch 1 | Note On G4 (67) vel 39
171.846s | tick 178170 | track 1 | ch 1 | Note On C5 (72) vel 30
171.938s | tick 178266 | track 1 | ch 1 | Note Off C5 (72) vel 0
171.938s | tick 178266 | track 1 | ch 1 | Note On G4 (67) vel 30
172.031s | tick 178362 | track 1 | ch 1 | Note Off G4 (67) vel 0
172.031s | tick 178362 | track 1 | ch 1 | Note On C2 (36) vel 33
172.031s | tick 178362 | track 1 | ch 1 | Note On D#4 (63) vel 30
172.124s | tick 178458 | track 1 | ch 1 | Note Off D#4 (63) vel 0
172.124s | tick 178458 | track 1 | ch 1 | Note On C4 (60) vel 30
172.216s | tick 178554 | track 1 | ch 1 | Note Off C4 (60) vel 0
172.216s | tick 178554 | track 1 | ch 1 | Note Off C2 (36) vel 0
172.216s | tick 178554 | track 1 | ch 1 | Note On G4 (67) vel 30
172.309s | tick 178650 | track 1 | ch 1 | Note Off G4 (67) vel 0
172.309s | tick 178650 | track 1 | ch 1 | Note On D#4 (63) vel 30
172.401s | tick 178746 | track 1 | ch 1 | Note Off D#4 (63) vel 0
172.401s | tick 178746 | track 1 | ch 1 | Note On C2 (36) vel 33
172.401s | tick 178746 | track 1 | ch 1 | Note On C4 (60) vel 30
172.494s | tick 178842 | track 1 | ch 1 | Note Off C4 (60) vel 0
172.494s | tick 178842 | track 1 | ch 1 | Note On G3 (55) vel 30
172.587s | tick 178938 | track 1 | ch 1 | Note Off G3 (55) vel 0
172.587s | tick 178938 | track 1 | ch 1 | Note Off C2 (36) vel 0
172.587s | tick 178938 | track 1 | ch 1 | Note On D#4 (63) vel 30
172.679s | tick 179034 | track 1 | ch 1 | Note Off D#4 (63) vel 0
172.772s | tick 179130 | track 1 | ch 1 | Note On C2 (36) vel 33
172.772s | tick 179130 | track 1 | ch 1 | Note On C4 (60) vel 30
172.864s | tick 179226 | track 1 | ch 1 | Note Off C4 (60) vel 0
172.864s | tick 179226 | track 1 | ch 1 | Note On D#4 (63) vel 30
172.957s | tick 179322 | track 1 | ch 1 | Note Off D#4 (63) vel 0
172.957s | tick 179322 | track 1 | ch 1 | Note Off C2 (36) vel 0
172.957s | tick 179322 | track 1 | ch 1 | Note On G3 (55) vel 30
173.050s | tick 179418 | track 1 | ch 1 | Note Off G3 (55) vel 0
173.050s | tick 179418 | track 1 | ch 1 | Note On C4 (60) vel 30
173.142s | tick 179514 | track 1 | ch 1 | Note Off C4 (60) vel 0
173.142s | tick 179514 | track 1 | ch 1 | Note On C2 (36) vel 33
173.142s | tick 179514 | track 1 | ch 1 | Note On D#4 (63) vel 30
173.235s | tick 179610 | track 1 | ch 1 | Note Off D#4 (63) vel 0
173.327s | tick 179706 | track 1 | ch 1 | Note Off C2 (36) vel 0
173.327s | tick 179706 | track 1 | ch 1 | Note Off G4 (67) vel 0
173.327s | tick 179706 | track 1 | ch 1 | Note Off G3 (55) vel 0
173.327s | tick 179706 | track 1 | ch 1 | Note On F4 (65) vel 39
173.327s | tick 179706 | track 1 | ch 1 | Note On F3 (53) vel 28
173.327s | tick 179706 | track 1 | ch 1 | Note On A#4 (70) vel 30
173.420s | tick 179802 | track 1 | ch 1 | Note Off A#4 (70) vel 0
173.420s | tick 179802 | track 1 | ch 1 | Note On G4 (67) vel 30
173.513s | tick 179898 | track 1 | ch 1 | Note Off G4 (67) vel 0
173.513s | tick 179898 | track 1 | ch 1 | Note On F2 (41) vel 33
173.513s | tick 179898 | track 1 | ch 1 | Note On D#4 (63) vel 30
173.605s | tick 179994 | track 1 | ch 1 | Note Off D#4 (63) vel 0
173.605s | tick 179994 | track 1 | ch 1 | Note On A#3 (58) vel 30
173.698s | tick 180090 | track 1 | ch 1 | Note Off A#3 (58) vel 0
173.698s | tick 180090 | track 1 | ch 1 | Note Off F2 (41) vel 0
173.698s | tick 180090 | track 1 | ch 1 | Note On G4 (67) vel 30
173.790s | tick 180186 | track 1 | ch 1 | Note Off G4 (67) vel 0
173.790s | tick 180186 | track 1 | ch 1 | Note On D#4 (63) vel 30
173.883s | tick 180282 | track 1 | ch 1 | Note Off D#4 (63) vel 0
173.883s | tick 180282 | track 1 | ch 1 | Note On F2 (41) vel 33
173.883s | tick 180282 | track 1 | ch 1 | Note On A#3 (58) vel 30
173.976s | tick 180378 | track 1 | ch 1 | Note Off A#3 (58) vel 0
174.068s | tick 180474 | track 1 | ch 1 | Note Off F2 (41) vel 0
174.068s | tick 180474 | track 1 | ch 1 | Note Off F3 (53) vel 0
174.068s | tick 180474 | track 1 | ch 1 | Note Off F4 (65) vel 0
174.068s | tick 180474 | track 1 | ch 1 | Note On G#4 (68) vel 39
174.068s | tick 180474 | track 1 | ch 1 | Note On G#3 (56) vel 28
174.068s | tick 180474 | track 1 | ch 1 | Note On D#3 (51) vel 30
174.161s | tick 180570 | track 1 | ch 1 | Note Off D#3 (51) vel 0
174.161s | tick 180570 | track 1 | ch 1 | Note On F3 (53) vel 30
174.253s | tick 180666 | track 1 | ch 1 | Note Off F3 (53) vel 0
174.253s | tick 180666 | track 1 | ch 1 | Note On F2 (41) vel 33
174.253s | tick 180666 | track 1 | ch 1 | Note On G#3 (56) vel 30
174.346s | tick 180762 | track 1 | ch 1 | Note Off G#3 (56) vel 0
174.346s | tick 180762 | track 1 | ch 1 | Note On C4 (60) vel 30
174.438s | tick 180858 | track 1 | ch 1 | Note Off C4 (60) vel 0
174.438s | tick 180858 | track 1 | ch 1 | Note Off F2 (41) vel 0
174.438s | tick 180858 | track 1 | ch 1 | Note On F3 (53) vel 30
174.531s | tick 180954 | track 1 | ch 1 | Note Off F3 (53) vel 0
174.531s | tick 180954 | track 1 | ch 1 | Note On G#3 (56) vel 30
174.624s | tick 181050 | track 1 | ch 1 | Note Off G#3 (56) vel 0
174.624s | tick 181050 | track 1 | ch 1 | Note On F2 (41) vel 33
174.624s | tick 181050 | track 1 | ch 1 | Note On C4 (60) vel 30
174.716s | tick 181146 | track 1 | ch 1 | Note Off C4 (60) vel 0
174.716s | tick 181146 | track 1 | ch 1 | Note On F4 (65) vel 30
174.809s | tick 181242 | track 1 | ch 1 | Note Off F4 (65) vel 0
174.809s | tick 181242 | track 1 | ch 1 | Note Off F2 (41) vel 0
174.809s | tick 181242 | track 1 | ch 1 | Note Off G#3 (56) vel 0
174.809s | tick 181242 | track 1 | ch 1 | Note Off G#4 (68) vel 0
174.809s | tick 181242 | track 1 | ch 1 | Note On G4 (67) vel 36
174.809s | tick 181242 | track 1 | ch 1 | Note On G3 (55) vel 33
174.994s | tick 181434 | track 1 | ch 1 | Note Off G4 (67) vel 0
174.994s | tick 181434 | track 1 | ch 1 | Note On C2 (36) vel 33
174.994s | tick 181434 | track 1 | ch 1 | Note On C4 (60) vel 36
175.087s | tick 181530 | track 1 | ch 1 | Note Off C4 (60) vel 0
175.087s | tick 181530 | track 1 | ch 1 | Note On D#4 (63) vel 36
175.179s | tick 181626 | track 1 | ch 1 | Note Off D#4 (63) vel 0
175.179s | tick 181626 | track 1 | ch 1 | Note Off C2 (36) vel 0
175.179s | tick 181626 | track 1 | ch 1 | Note On G3 (55) vel 36
175.272s | tick 181722 | track 1 | ch 1 | Note Off G3 (55) vel 0
175.272s | tick 181722 | track 1 | ch 1 | Note On C4 (60) vel 36
175.364s | tick 181818 | track 1 | ch 1 | Note Off C4 (60) vel 0
175.364s | tick 181818 | track 1 | ch 1 | Note On C2 (36) vel 33
175.364s | tick 181818 | track 1 | ch 1 | Note On F4 (65) vel 36
175.457s | tick 181914 | track 1 | ch 1 | Note Off F4 (65) vel 0
175.457s | tick 181914 | track 1 | ch 1 | Note On G3 (55) vel 28
175.550s | tick 182010 | track 1 | ch 1 | Note Off G3 (55) vel 0
175.550s | tick 182010 | track 1 | ch 1 | Note Off C2 (36) vel 0
175.550s | tick 182010 | track 1 | ch 1 | Note On C4 (60) vel 36
175.642s | tick 182106 | track 1 | ch 1 | Note Off C4 (60) vel 0
175.642s | tick 182106 | track 1 | ch 1 | Note On D4 (62) vel 36
175.735s | tick 182202 | track 1 | ch 1 | Note Off D4 (62) vel 0
175.735s | tick 182202 | track 1 | ch 1 | Note On C2 (36) vel 33
175.735s | tick 182202 | track 1 | ch 1 | Note On G3 (55) vel 36
175.827s | tick 182298 | track 1 | ch 1 | Note Off G3 (55) vel 0
175.827s | tick 182298 | track 1 | ch 1 | Note On C4 (60) vel 36
175.920s | tick 182394 | track 1 | ch 1 | Note Off C4 (60) vel 0
175.920s | tick 182394 | track 1 | ch 1 | Note Off C2 (36) vel 0
175.920s | tick 182394 | track 1 | ch 1 | Note On D#4 (63) vel 36
176.013s | tick 182490 | track 1 | ch 1 | Note Off D#4 (63) vel 0
176.013s | tick 182490 | track 1 | ch 1 | Note On F4 (65) vel 36
176.105s | tick 182586 | track 1 | ch 1 | Note Off F4 (65) vel 0
176.105s | tick 182586 | track 1 | ch 1 | Note On C2 (36) vel 33
176.105s | tick 182586 | track 1 | ch 1 | Note On G4 (67) vel 36
176.198s | tick 182682 | track 1 | ch 1 | Note Off G4 (67) vel 0
176.198s | tick 182682 | track 1 | ch 1 | Note On G#4 (68) vel 36
176.290s | tick 182778 | track 1 | ch 1 | Note Off G#4 (68) vel 0
176.290s | tick 182778 | track 1 | ch 1 | Note Off C2 (36) vel 0
176.290s | tick 182778 | track 1 | ch 1 | Note On A#5 (82) vel 36
176.290s | tick 182778 | track 1 | ch 1 | Note On D#5 (75) vel 36
176.383s | tick 182874 | track 1 | ch 1 | Note Off D#5 (75) vel 0
176.383s | tick 182874 | track 1 | ch 1 | Note Off A#5 (82) vel 0
176.383s | tick 182874 | track 1 | ch 1 | Note On G4 (67) vel 36
176.476s | tick 182970 | track 1 | ch 1 | Note Off G4 (67) vel 0
176.476s | tick 182970 | track 1 | ch 1 | Note On C2 (36) vel 33
176.476s | tick 182970 | track 1 | ch 1 | Note On C4 (60) vel 36
176.568s | tick 183066 | track 1 | ch 1 | Note Off C4 (60) vel 0
176.568s | tick 183066 | track 1 | ch 1 | Note On G5 (79) vel 36
176.568s | tick 183066 | track 1 | ch 1 | Note On G4 (67) vel 36
176.661s | tick 183162 | track 1 | ch 1 | Note Off G4 (67) vel 0
176.661s | tick 183162 | track 1 | ch 1 | Note Off G5 (79) vel 0
176.661s | tick 183162 | track 1 | ch 1 | Note Off C2 (36) vel 0
176.661s | tick 183162 | track 1 | ch 1 | Note On G5 (79) vel 36
176.753s | tick 183258 | track 1 | ch 1 | Note Off G5 (79) vel 0
176.753s | tick 183258 | track 1 | ch 1 | Note On C5 (72) vel 36
176.846s | tick 183354 | track 1 | ch 1 | Note Off C5 (72) vel 0
176.846s | tick 183354 | track 1 | ch 1 | Note On C2 (36) vel 33
176.846s | tick 183354 | track 1 | ch 1 | Note On G#5 (80) vel 36
176.938s | tick 183450 | track 1 | ch 1 | Note Off G#5 (80) vel 0
176.938s | tick 183450 | track 1 | ch 1 | Note On G5 (79) vel 36
177.031s | tick 183546 | track 1 | ch 1 | Note Off G5 (79) vel 0
177.031s | tick 183546 | track 1 | ch 1 | Note Off C2 (36) vel 0
177.031s | tick 183546 | track 1 | ch 1 | Note On C5 (72) vel 36
177.124s | tick 183642 | track 1 | ch 1 | Note Off C5 (72) vel 0
177.124s | tick 183642 | track 1 | ch 1 | Note On F5 (77) vel 36
177.216s | tick 183738 | track 1 | ch 1 | Note Off F5 (77) vel 0
177.216s | tick 183738 | track 1 | ch 1 | Note On C2 (36) vel 33
177.216s | tick 183738 | track 1 | ch 1 | Note On G5 (79) vel 36
177.309s | tick 183834 | track 1 | ch 1 | Note Off G5 (79) vel 0
177.309s | tick 183834 | track 1 | ch 1 | Note On C5 (72) vel 36
177.401s | tick 183930 | track 1 | ch 1 | Note Off C5 (72) vel 0
177.401s | tick 183930 | track 1 | ch 1 | Note Off C2 (36) vel 0
177.401s | tick 183930 | track 1 | ch 1 | Note On G5 (79) vel 36
177.494s | tick 184026 | track 1 | ch 1 | Note Off G5 (79) vel 0
177.494s | tick 184026 | track 1 | ch 1 | Note On F5 (77) vel 36
177.587s | tick 184122 | track 1 | ch 1 | Note Off F5 (77) vel 0
177.587s | tick 184122 | track 1 | ch 1 | Note On C2 (36) vel 33
177.587s | tick 184122 | track 1 | ch 1 | Note On D#5 (75) vel 36
177.679s | tick 184218 | track 1 | ch 1 | Note Off D#5 (75) vel 0
177.679s | tick 184218 | track 1 | ch 1 | Note On D5 (74) vel 36
177.772s | tick 184314 | track 1 | ch 1 | Note Off D5 (74) vel 0
177.772s | tick 184314 | track 1 | ch 1 | Note Off C2 (36) vel 0
177.772s | tick 184314 | track 1 | ch 1 | Note Off G3 (55) vel 0
177.772s | tick 184314 | track 1 | ch 1 | Note On G#4 (68) vel 39
177.772s | tick 184314 | track 1 | ch 1 | Note On G#3 (56) vel 25
177.772s | tick 184314 | track 1 | ch 1 | Note On D#5 (75) vel 30
177.864s | tick 184410 | track 1 | ch 1 | Note Off D#5 (75) vel 0
177.864s | tick 184410 | track 1 | ch 1 | Note On C5 (72) vel 30
177.957s | tick 184506 | track 1 | ch 1 | Note Off C5 (72) vel 0
177.957s | tick 184506 | track 1 | ch 1 | Note On G#2 (44) vel 33
177.957s | tick 184506 | track 1 | ch 1 | Note On G#4 (68) vel 30
178.050s | tick 184602 | track 1 | ch 1 | Note Off G#4 (68) vel 0
178.050s | tick 184602 | track 1 | ch 1 | Note On D#4 (63) vel 30
178.142s | tick 184698 | track 1 | ch 1 | Note Off D#4 (63) vel 0
178.142s | tick 184698 | track 1 | ch 1 | Note Off G#2 (44) vel 0
178.142s | tick 184698 | track 1 | ch 1 | Note On C5 (72) vel 30
178.235s | tick 184794 | track 1 | ch 1 | Note Off C5 (72) vel 0
178.235s | tick 184794 | track 1 | ch 1 | Note On G#4 (68) vel 30
178.327s | tick 184890 | track 1 | ch 1 | Note Off G#4 (68) vel 0
178.327s | tick 184890 | track 1 | ch 1 | Note On G#2 (44) vel 33
178.327s | tick 184890 | track 1 | ch 1 | Note On D#4 (63) vel 30
178.420s | tick 184986 | track 1 | ch 1 | Note Off D#4 (63) vel 0
178.420s | tick 184986 | track 1 | ch 1 | Note On C4 (60) vel 30
178.513s | tick 185082 | track 1 | ch 1 | Note Off C4 (60) vel 0
178.513s | tick 185082 | track 1 | ch 1 | Note Off G#2 (44) vel 0
178.513s | tick 185082 | track 1 | ch 1 | Note Off G#3 (56) vel 0
178.513s | tick 185082 | track 1 | ch 1 | Note Off G#4 (68) vel 0
178.513s | tick 185082 | track 1 | ch 1 | Note On D#5 (75) vel 39
178.513s | tick 185082 | track 1 | ch 1 | Note On D#4 (63) vel 27
178.513s | tick 185082 | track 1 | ch 1 | Note On G#3 (56) vel 30
178.605s | tick 185178 | track 1 | ch 1 | Note Off G#3 (56) vel 0
178.605s | tick 185178 | track 1 | ch 1 | Note On C4 (60) vel 30
178.698s | tick 185274 | track 1 | ch 1 | Note Off C4 (60) vel 0
178.698s | tick 185274 | track 1 | ch 1 | Note On G#2 (44) vel 33
178.698s | tick 185274 | track 1 | ch 1 | Note On D#4 (63) vel 30
178.790s | tick 185370 | track 1 | ch 1 | Note Off D#4 (63) vel 0
178.790s | tick 185370 | track 1 | ch 1 | Note On G#4 (68) vel 30
178.883s | tick 185466 | track 1 | ch 1 | Note Off G#4 (68) vel 0
178.883s | tick 185466 | track 1 | ch 1 | Note Off G#2 (44) vel 0
178.883s | tick 185466 | track 1 | ch 1 | Note On D#4 (63) vel 30
178.976s | tick 185562 | track 1 | ch 1 | Note Off D#4 (63) vel 0
178.976s | tick 185562 | track 1 | ch 1 | Note On G#4 (68) vel 30
179.068s | tick 185658 | track 1 | ch 1 | Note Off G#4 (68) vel 0
179.068s | tick 185658 | track 1 | ch 1 | Note On G#2 (44) vel 33
179.068s | tick 185658 | track 1 | ch 1 | Note On D#5 (75) vel 30
179.161s | tick 185754 | track 1 | ch 1 | Note Off D#5 (75) vel 0
179.161s | tick 185754 | track 1 | ch 1 | Note On F5 (77) vel 30
179.253s | tick 185850 | track 1 | ch 1 | Note Off F5 (77) vel 0
179.253s | tick 185850 | track 1 | ch 1 | Note Off G#2 (44) vel 0
179.253s | tick 185850 | track 1 | ch 1 | Note Off D#4 (63) vel 0
179.253s | tick 185850 | track 1 | ch 1 | Note Off D#5 (75) vel 0
179.253s | tick 185850 | track 1 | ch 1 | Note On D4 (62) vel 27
179.253s | tick 185850 | track 1 | ch 1 | Note On D5 (74) vel 39
179.253s | tick 185850 | track 1 | ch 1 | Note On G#5 (80) vel 30
179.346s | tick 185946 | track 1 | ch 1 | Note Off G#5 (80) vel 0
179.346s | tick 185946 | track 1 | ch 1 | Note On F5 (77) vel 30
179.438s | tick 186042 | track 1 | ch 1 | Note Off F5 (77) vel 0
179.438s | tick 186042 | track 1 | ch 1 | Note On F2 (41) vel 33
179.438s | tick 186042 | track 1 | ch 1 | Note On C5 (72) vel 30
179.531s | tick 186138 | track 1 | ch 1 | Note Off C5 (72) vel 0
179.531s | tick 186138 | track 1 | ch 1 | Note On G#4 (68) vel 30
179.624s | tick 186234 | track 1 | ch 1 | Note Off G#4 (68) vel 0
179.624s | tick 186234 | track 1 | ch 1 | Note Off F2 (41) vel 0
179.624s | tick 186234 | track 1 | ch 1 | Note On F5 (77) vel 30
179.716s | tick 186330 | track 1 | ch 1 | Note Off F5 (77) vel 0
179.716s | tick 186330 | track 1 | ch 1 | Note On C5 (72) vel 30
179.809s | tick 186426 | track 1 | ch 1 | Note Off C5 (72) vel 0
179.809s | tick 186426 | track 1 | ch 1 | Note On F2 (41) vel 33
179.809s | tick 186426 | track 1 | ch 1 | Note On G#4 (68) vel 30
179.901s | tick 186522 | track 1 | ch 1 | Note Off G#4 (68) vel 0
179.901s | tick 186522 | track 1 | ch 1 | Note On F4 (65) vel 30
179.994s | tick 186618 | track 1 | ch 1 | Note Off F4 (65) vel 0
179.994s | tick 186618 | track 1 | ch 1 | Note Off F2 (41) vel 0
179.994s | tick 186618 | track 1 | ch 1 | Note Off D5 (74) vel 0
179.994s | tick 186618 | track 1 | ch 1 | Note Off D4 (62) vel 0
179.994s | tick 186618 | track 1 | ch 1 | Note On F5 (77) vel 39
179.994s | tick 186618 | track 1 | ch 1 | Note On F4 (65) vel 27
179.994s | tick 186618 | track 1 | ch 1 | Note On C4 (60) vel 30
180.087s | tick 186714 | track 1 | ch 1 | Note Off C4 (60) vel 0
180.087s | tick 186714 | track 1 | ch 1 | Note On F4 (65) vel 30
180.179s | tick 186810 | track 1 | ch 1 | Note Off F4 (65) vel 0
180.179s | tick 186810 | track 1 | ch 1 | Note On F2 (41) vel 33
180.179s | tick 186810 | track 1 | ch 1 | Note On G#4 (68) vel 30
180.272s | tick 186906 | track 1 | ch 1 | Note Off G#4 (68) vel 0
180.272s | tick 186906 | track 1 | ch 1 | Note On C5 (72) vel 30
180.364s | tick 187002 | track 1 | ch 1 | Note Off C5 (72) vel 0
180.364s | tick 187002 | track 1 | ch 1 | Note Off F2 (41) vel 0
180.364s | tick 187002 | track 1 | ch 1 | Note On F4 (65) vel 30
180.457s | tick 187098 | track 1 | ch 1 | Note Off F4 (65) vel 0
180.457s | tick 187098 | track 1 | ch 1 | Note On G#4 (68) vel 30
180.550s | tick 187194 | track 1 | ch 1 | Note Off G#4 (68) vel 0
180.550s | tick 187194 | track 1 | ch 1 | Note On F2 (41) vel 33
180.550s | tick 187194 | track 1 | ch 1 | Note On F2 (41) vel 33
180.550s | tick 187194 | track 1 | ch 1 | Note On C5 (72) vel 30
180.642s | tick 187290 | track 1 | ch 1 | Note Off C5 (72) vel 0
180.642s | tick 187290 | track 1 | ch 1 | Note On F5 (77) vel 30
180.735s | tick 187386 | track 1 | ch 1 | Note Off F5 (77) vel 0
180.735s | tick 187386 | track 1 | ch 1 | Note Off F2 (41) vel 0
180.735s | tick 187386 | track 1 | ch 1 | Note Off F2 (41) vel 0
180.735s | tick 187386 | track 1 | ch 1 | Note Off F4 (65) vel 0
180.735s | tick 187386 | track 1 | ch 1 | Note Off F5 (77) vel 0
180.735s | tick 187386 | track 1 | ch 1 | Note On G5 (79) vel 38
180.735s | tick 187386 | track 1 | ch 1 | Note On D#2 (39) vel 36
180.735s | tick 187386 | track 1 | ch 1 | Note On D#3 (51) vel 34
180.735s | tick 187386 | track 1 | ch 1 | Note On D#4 (63) vel 33
180.827s | tick 187482 | track 1 | ch 1 | Note Off G5 (79) vel 0
180.827s | tick 187482 | track 1 | ch 1 | Note On G#5 (80) vel 38
180.920s | tick 187578 | track 1 | ch 1 | Note Off G#5 (80) vel 0
180.920s | tick 187578 | track 1 | ch 1 | Note On G5 (79) vel 38
181.013s | tick 187674 | track 1 | ch 1 | Note Off G5 (79) vel 0
181.013s | tick 187674 | track 1 | ch 1 | Note On F5 (77) vel 38
181.105s | tick 187770 | track 1 | ch 1 | Note Off F5 (77) vel 0
181.105s | tick 187770 | track 1 | ch 1 | Note On D#5 (75) vel 38
181.198s | tick 187866 | track 1 | ch 1 | Note Off D#5 (75) vel 0
181.198s | tick 187866 | track 1 | ch 1 | Note On F5 (77) vel 38
181.290s | tick 187962 | track 1 | ch 1 | Note Off F5 (77) vel 0
181.290s | tick 187962 | track 1 | ch 1 | Note On D#5 (75) vel 38
181.383s | tick 188058 | track 1 | ch 1 | Note Off D#5 (75) vel 0
181.383s | tick 188058 | track 1 | ch 1 | Note On D5 (74) vel 38
181.476s | tick 188154 | track 1 | ch 1 | Note Off D5 (74) vel 0
181.476s | tick 188154 | track 1 | ch 1 | Note On A#4 (70) vel 38
181.568s | tick 188250 | track 1 | ch 1 | Note Off A#4 (70) vel 0
181.568s | tick 188250 | track 1 | ch 1 | Note On D#5 (75) vel 38
181.661s | tick 188346 | track 1 | ch 1 | Note Off D#5 (75) vel 0
181.661s | tick 188346 | track 1 | ch 1 | Note On G5 (79) vel 38
181.753s | tick 188442 | track 1 | ch 1 | Note Off G5 (79) vel 0
181.753s | tick 188442 | track 1 | ch 1 | Note On A#5 (82) vel 38
181.846s | tick 188538 | track 1 | ch 1 | Note Off A#5 (82) vel 0
181.846s | tick 188538 | track 1 | ch 1 | Note On G5 (79) vel 38
181.938s | tick 188634 | track 1 | ch 1 | Note Off G5 (79) vel 0
181.938s | tick 188634 | track 1 | ch 1 | Note On D#5 (75) vel 38
182.031s | tick 188730 | track 1 | ch 1 | Note Off D#5 (75) vel 0
182.031s | tick 188730 | track 1 | ch 1 | Note On D5 (74) vel 38
182.124s | tick 188826 | track 1 | ch 1 | Note Off D5 (74) vel 0
182.124s | tick 188826 | track 1 | ch 1 | Note On D#5 (75) vel 38
182.216s | tick 188922 | track 1 | ch 1 | Note Off D#5 (75) vel 0
182.216s | tick 188922 | track 1 | ch 1 | Note Off D#4 (63) vel 0
182.216s | tick 188922 | track 1 | ch 1 | Note Off D#3 (51) vel 0
182.216s | tick 188922 | track 1 | ch 1 | Note Off D#2 (39) vel 0
182.216s | tick 188922 | track 1 | ch 1 | Note On D5 (74) vel 38
182.216s | tick 188922 | track 1 | ch 1 | Note On G3 (55) vel 34
182.216s | tick 188922 | track 1 | ch 1 | Note On G2 (43) vel 36
182.216s | tick 188922 | track 1 | ch 1 | Note On F4 (65) vel 33
182.309s | tick 189018 | track 1 | ch 1 | Note Off D5 (74) vel 0
182.309s | tick 189018 | track 1 | ch 1 | Note On F5 (77) vel 38
182.401s | tick 189114 | track 1 | ch 1 | Note Off F5 (77) vel 0
182.401s | tick 189114 | track 1 | ch 1 | Note On D5 (74) vel 38
182.494s | tick 189210 | track 1 | ch 1 | Note Off D5 (74) vel 0
182.494s | tick 189210 | track 1 | ch 1 | Note On B4 (71) vel 38
182.587s | tick 189306 | track 1 | ch 1 | Note Off B4 (71) vel 0
182.587s | tick 189306 | track 1 | ch 1 | Note On G4 (67) vel 38
182.679s | tick 189402 | track 1 | ch 1 | Note Off G4 (67) vel 0
182.679s | tick 189402 | track 1 | ch 1 | Note On B4 (71) vel 38
182.772s | tick 189498 | track 1 | ch 1 | Note Off B4 (71) vel 0
182.772s | tick 189498 | track 1 | ch 1 | Note On G4 (67) vel 38
182.864s | tick 189594 | track 1 | ch 1 | Note Off G4 (67) vel 0
182.864s | tick 189594 | track 1 | ch 1 | Note On D4 (62) vel 38
182.957s | tick 189690 | track 1 | ch 1 | Note Off D4 (62) vel 0
182.957s | tick 189690 | track 1 | ch 1 | Note On B3 (59) vel 38
183.050s | tick 189786 | track 1 | ch 1 | Note Off B3 (59) vel 0
183.050s | tick 189786 | track 1 | ch 1 | Note On D4 (62) vel 38
183.142s | tick 189882 | track 1 | ch 1 | Note Off D4 (62) vel 0
183.142s | tick 189882 | track 1 | ch 1 | Note On G4 (67) vel 38
183.235s | tick 189978 | track 1 | ch 1 | Note Off G4 (67) vel 0
183.235s | tick 189978 | track 1 | ch 1 | Note On B4 (71) vel 38
183.327s | tick 190074 | track 1 | ch 1 | Note Off B4 (71) vel 0
183.327s | tick 190074 | track 1 | ch 1 | Note On G4 (67) vel 38
183.420s | tick 190170 | track 1 | ch 1 | Note Off G4 (67) vel 0
183.420s | tick 190170 | track 1 | ch 1 | Note On D5 (74) vel 38
183.513s | tick 190266 | track 1 | ch 1 | Note Off D5 (74) vel 0
183.513s | tick 190266 | track 1 | ch 1 | Note On G5 (79) vel 38
183.605s | tick 190362 | track 1 | ch 1 | Note Off G5 (79) vel 0
183.605s | tick 190362 | track 1 | ch 1 | Note On B5 (83) vel 38
183.698s | tick 190458 | track 1 | ch 1 | Note Off B5 (83) vel 0
183.698s | tick 190458 | track 1 | ch 1 | Note Off F4 (65) vel 0
183.698s | tick 190458 | track 1 | ch 1 | Note Off G2 (43) vel 0
183.698s | tick 190458 | track 1 | ch 1 | Note Off G3 (55) vel 0
183.698s | tick 190458 | track 1 | ch 1 | Note On C6 (84) vel 41
183.698s | tick 190458 | track 1 | ch 1 | Note On C5 (72) vel 37
183.698s | tick 190458 | track 1 | ch 1 | Note On D#4 (63) vel 33
183.698s | tick 190458 | track 1 | ch 1 | Note On C4 (60) vel 33
183.698s | tick 190458 | track 1 | ch 1 | Note On G4 (67) vel 33
184.253s | tick 191034 | track 1 | ch 1 | Note On D3 (50) vel 32
184.438s | tick 191226 | track 1 | ch 1 | Note On D#3 (51) vel 32
184.624s | tick 191418 | track 1 | ch 1 | Note On G3 (55) vel 32
184.809s | tick 191610 | track 1 | ch 1 | Note Off C6 (84) vel 0
184.809s | tick 191610 | track 1 | ch 1 | Note On D#5 (75) vel 34
184.809s | tick 191610 | track 1 | ch 1 | Note On C4 (60) vel 32
184.901s | tick 191706 | track 1 | ch 1 | Note Off D3 (50) vel 0
185.087s | tick 191898 | track 1 | ch 1 | Note Off D#3 (51) vel 0
185.272s | tick 192090 | track 1 | ch 1 | Note Off G3 (55) vel 0
185.364s | tick 192186 | track 1 | ch 1 | Note On D4 (62) vel 32
185.364s | tick 192186 | track 1 | ch 1 | Note On G#3 (56) vel 32
185.550s | tick 192378 | track 1 | ch 1 | Note Off C5 (72) vel 0
185.735s | tick 192570 | track 1 | ch 1 | Note Off D#5 (75) vel 0
185.827s | tick 192666 | track 1 | ch 1 | Note Off C4 (60) vel 0
185.920s | tick 192762 | track 1 | ch 1 | Note Off G4 (67) vel 0
185.920s | tick 192762 | track 1 | ch 1 | Note Off C4 (60) vel 0
185.920s | tick 192762 | track 1 | ch 1 | Note Off D#4 (63) vel 0
185.920s | tick 192762 | track 1 | ch 1 | Note On A#3 (58) vel 32
185.920s | tick 192762 | track 1 | ch 1 | Note On D#3 (51) vel 32
186.105s | tick 192954 | track 1 | ch 1 | Note On G5 (79) vel 34
186.105s | tick 192954 | track 1 | ch 1 | Note On G5 (79) vel 34
186.290s | tick 193146 | track 1 | ch 1 | Note Off G5 (79) vel 0
186.290s | tick 193146 | track 1 | ch 1 | Note On C6 (84) vel 35
186.290s | tick 193146 | track 1 | ch 1 | Note On C6 (84) vel 35
186.383s | tick 193242 | track 1 | ch 1 | Note Off G#3 (56) vel 0
186.383s | tick 193242 | track 1 | ch 1 | Note Off D4 (62) vel 0
186.476s | tick 193338 | track 1 | ch 1 | Note Off C6 (84) vel 0
186.661s | tick 193530 | track 1 | ch 1 | Note Off G5 (79) vel 0
186.661s | tick 193530 | track 1 | ch 1 | Note On D#6 (87) vel 35
186.661s | tick 193530 | track 1 | ch 1 | Note On G#1 (32) vel 32
186.846s | tick 193722 | track 1 | ch 1 | Note Off C6 (84) vel 0
186.846s | tick 193722 | track 1 | ch 1 | Note On D6 (86) vel 35
186.846s | tick 193722 | track 1 | ch 1 | Note On D6 (86) vel 35
186.846s | tick 193722 | track 1 | ch 1 | Note On D#2 (39) vel 32
187.031s | tick 193914 | track 1 | ch 1 | Note Off D6 (86) vel 0
187.031s | tick 193914 | track 1 | ch 1 | Note On A#5 (82) vel 37
187.031s | tick 193914 | track 1 | ch 1 | Note On G#2 (44) vel 32
187.124s | tick 194010 | track 1 | ch 1 | Note Off D#3 (51) vel 0
187.124s | tick 194010 | track 1 | ch 1 | Note Off A#3 (58) vel 0
187.216s | tick 194106 | track 1 | ch 1 | Note Off D#6 (87) vel 0
187.216s | tick 194106 | track 1 | ch 1 | Note On F5 (77) vel 38
187.216s | tick 194106 | track 1 | ch 1 | Note On C3 (48) vel 32
187.309s | tick 194202 | track 1 | ch 1 | Note Off G#1 (32) vel 0
187.401s | tick 194298 | track 1 | ch 1 | Note Off D6 (86) vel 0
187.401s | tick 194298 | track 1 | ch 1 | Note On D#5 (75) vel 37
187.401s | tick 194298 | track 1 | ch 1 | Note On D#3 (51) vel 32
187.494s | tick 194394 | track 1 | ch 1 | Note Off D#2 (39) vel 0
187.587s | tick 194490 | track 1 | ch 1 | Note Off A#5 (82) vel 0
187.587s | tick 194490 | track 1 | ch 1 | Note On D5 (74) vel 37
187.587s | tick 194490 | track 1 | ch 1 | Note On G3 (55) vel 32
187.679s | tick 194586 | track 1 | ch 1 | Note Off G#2 (44) vel 0
187.772s | tick 194682 | track 1 | ch 1 | Note Off F5 (77) vel 0
187.772s | tick 194682 | track 1 | ch 1 | Note On G#3 (56) vel 32
187.864s | tick 194778 | track 1 | ch 1 | Note Off C3 (48) vel 0
187.957s | tick 194874 | track 1 | ch 1 | Note Off D#5 (75) vel 0
187.957s | tick 194874 | track 1 | ch 1 | Note On F4 (65) vel 36
188.050s | tick 194970 | track 1 | ch 1 | Note Off D#3 (51) vel 0
188.142s | tick 195066 | track 1 | ch 1 | Note Off D5 (74) vel 0
188.235s | tick 195162 | track 1 | ch 1 | Note Off G3 (55) vel 0
188.327s | tick 195258 | track 1 | ch 1 | Note Off A#4 (70) vel 0
188.327s | tick 195258 | track 1 | ch 1 | Note On A#4 (70) vel 38
188.327s | tick 195258 | track 1 | ch 1 | Note On A#4 (70) vel 38
188.327s | tick 195258 | track 1 | ch 1 | Note On F2 (41) vel 29
188.513s | tick 195450 | track 1 | ch 1 | Note On G5 (79) vel 38
188.513s | tick 195450 | track 1 | ch 1 | Note On A#2 (46) vel 32
188.513s | tick 195450 | track 1 | ch 1 | Note On A#2 (46) vel 32
188.605s | tick 195546 | track 1 | ch 1 | Note Off G#3 (56) vel 0
188.698s | tick 195642 | track 1 | ch 1 | Note Off F4 (65) vel 0
188.790s | tick 195738 | track 1 | ch 1 | Note Off A#2 (46) vel 0
188.883s | tick 195834 | track 1 | ch 1 | Note Off A#4 (70) vel 0
188.883s | tick 195834 | track 1 | ch 1 | Note On D5 (74) vel 38
188.883s | tick 195834 | track 1 | ch 1 | Note On D3 (50) vel 30
188.976s | tick 195930 | track 1 | ch 1 | Note Off F2 (41) vel 0
189.068s | tick 196026 | track 1 | ch 1 | Note Off G5 (79) vel 0
189.068s | tick 196026 | track 1 | ch 1 | Note On D#5 (75) vel 38
189.253s | tick 196218 | track 1 | ch 1 | Note Off D#5 (75) vel 0
189.253s | tick 196218 | track 1 | ch 1 | Note On A#3 (58) vel 35
189.346s | tick 196314 | track 1 | ch 1 | Note Off A#2 (46) vel 0
189.346s | tick 196314 | track 1 | ch 1 | Note On C6 (84) vel 38
189.438s | tick 196410 | track 1 | ch 1 | Note Off D5 (74) vel 0
189.438s | tick 196410 | track 1 | ch 1 | Note On A#5 (82) vel 37
189.438s | tick 196410 | track 1 | ch 1 | Note On A#5 (82) vel 37
189.624s | tick 196602 | track 1 | ch 1 | Note Off D#5 (75) vel 0
189.624s | tick 196602 | track 1 | ch 1 | Note On D#5 (75) vel 37
189.624s | tick 196602 | track 1 | ch 1 | Note On D#5 (75) vel 37
189.624s | tick 196602 | track 1 | ch 1 | Note On D#3 (51) vel 32
189.624s | tick 196602 | track 1 | ch 1 | Note On D#5 (75) vel 36
189.624s | tick 196602 | track 1 | ch 1 | Note On D#6 (87) vel 30
189.716s | tick 196698 | track 1 | ch 1 | Note Off A#5 (82) vel 0
189.716s | tick 196698 | track 1 | ch 1 | Note Off D3 (50) vel 0
189.809s | tick 196794 | track 1 | ch 1 | Note Off C6 (84) vel 0
189.901s | tick 196890 | track 1 | ch 1 | Note Off A#5 (82) vel 0
190.087s | tick 197082 | track 1 | ch 1 | Note Off A#3 (58) vel 0
190.179s | tick 197178 | track 1 | ch 1 | Note Off D#6 (87) vel 0
190.179s | tick 197178 | track 1 | ch 1 | Note Off D#5 (75) vel 0
190.179s | tick 197178 | track 1 | ch 1 | Note Off D#5 (75) vel 0
190.179s | tick 197178 | track 1 | ch 1 | Note On D5 (74) vel 36
190.179s | tick 197178 | track 1 | ch 1 | Note On D3 (50) vel 32
190.179s | tick 197178 | track 1 | ch 1 | Note On D6 (86) vel 30
190.179s | tick 197178 | track 1 | ch 1 | Note On D5 (74) vel 36
190.364s | tick 197370 | track 1 | ch 1 | Note Off G4 (67) vel 0
190.364s | tick 197370 | track 1 | ch 1 | Note On G4 (67) vel 36
190.550s | tick 197562 | track 1 | ch 1 | Note Off C5 (72) vel 0
190.550s | tick 197562 | track 1 | ch 1 | Note On C5 (72) vel 35
190.642s | tick 197658 | track 1 | ch 1 | Note Off D#3 (51) vel 0
190.735s | tick 197754 | track 1 | ch 1 | Note Off D5 (74) vel 0
190.735s | tick 197754 | track 1 | ch 1 | Note Off D6 (86) vel 0
190.735s | tick 197754 | track 1 | ch 1 | Note Off D5 (74) vel 0
190.735s | tick 197754 | track 1 | ch 1 | Note On D#5 (75) vel 35
190.735s | tick 197754 | track 1 | ch 1 | Note On A#2 (46) vel 32
190.735s | tick 197754 | track 1 | ch 1 | Note On A#5 (82) vel 30
190.735s | tick 197754 | track 1 | ch 1 | Note On A#4 (70) vel 36
190.920s | tick 197946 | track 1 | ch 1 | Note Off G4 (67) vel 0
190.920s | tick 197946 | track 1 | ch 1 | Note On G4 (67) vel 35
190.920s | tick 197946 | track 1 | ch 1 | Note On G4 (67) vel 35
191.105s | tick 198138 | track 1 | ch 1 | Note Off C5 (72) vel 0
191.105s | tick 198138 | track 1 | ch 1 | Note On C5 (72) vel 33
191.198s | tick 198234 | track 1 | ch 1 | Note Off D3 (50) vel 0
191.290s | tick 198330 | track 1 | ch 1 | Note Off A#4 (70) vel 0
191.290s | tick 198330 | track 1 | ch 1 | Note Off A#5 (82) vel 0
191.290s | tick 198330 | track 1 | ch 1 | Note Off D#5 (75) vel 0
191.290s | tick 198330 | track 1 | ch 1 | Note On G5 (79) vel 33
191.290s | tick 198330 | track 1 | ch 1 | Note On D#3 (51) vel 32
191.290s | tick 198330 | track 1 | ch 1 | Note On D#6 (87) vel 30
191.290s | tick 198330 | track 1 | ch 1 | Note On D#5 (75) vel 36
191.476s | tick 198522 | track 1 | ch 1 | Note Off G4 (67) vel 0
191.476s | tick 198522 | track 1 | ch 1 | Note On C5 (72) vel 32
191.476s | tick 198522 | track 1 | ch 1 | Note On C5 (72) vel 32
191.661s | tick 198714 | track 1 | ch 1 | Note Off C5 (72) vel 0
191.753s | tick 198810 | track 1 | ch 1 | Note Off A#2 (46) vel 0
191.846s | tick 198906 | track 1 | ch 1 | Note Off D#5 (75) vel 0
191.846s | tick 198906 | track 1 | ch 1 | Note Off D#6 (87) vel 0
191.846s | tick 198906 | track 1 | ch 1 | Note Off G5 (79) vel 0
191.846s | tick 198906 | track 1 | ch 1 | Note On D3 (50) vel 32
191.846s | tick 198906 | track 1 | ch 1 | Note On D5 (74) vel 36
191.846s | tick 198906 | track 1 | ch 1 | Note On D6 (86) vel 30
192.031s | tick 199098 | track 1 | ch 1 | Note Off C5 (72) vel 0
192.031s | tick 199098 | track 1 | ch 1 | Note On D#5 (75) vel 35
192.031s | tick 199098 | track 1 | ch 1 | Note On D#5 (75) vel 35
192.216s | tick 199290 | track 1 | ch 1 | Note Off D#5 (75) vel 0
192.216s | tick 199290 | track 1 | ch 1 | Note Off D6 (86) vel 0
192.216s | tick 199290 | track 1 | ch 1 | Note Off D5 (74) vel 0
192.216s | tick 199290 | track 1 | ch 1 | Note On C6 (84) vel 35
192.216s | tick 199290 | track 1 | ch 1 | Note On C6 (84) vel 35
192.216s | tick 199290 | track 1 | ch 1 | Note On A#2 (46) vel 32
192.216s | tick 199290 | track 1 | ch 1 | Note On A#4 (70) vel 36
192.216s | tick 199290 | track 1 | ch 1 | Note On A#5 (82) vel 30
192.309s | tick 199386 | track 1 | ch 1 | Note Off D#3 (51) vel 0
192.401s | tick 199482 | track 1 | ch 1 | Note Off C6 (84) vel 0
192.401s | tick 199482 | track 1 | ch 1 | Note On D6 (86) vel 33
192.587s | tick 199674 | track 1 | ch 1 | Note Off D#5 (75) vel 0
192.587s | tick 199674 | track 1 | ch 1 | Note On D#6 (87) vel 37
192.587s | tick 199674 | track 1 | ch 1 | Note On G#1 (32) vel 19
192.679s | tick 199770 | track 1 | ch 1 | Note Off D3 (50) vel 0
192.772s | tick 199866 | track 1 | ch 1 | Note Off A#5 (82) vel 0
192.772s | tick 199866 | track 1 | ch 1 | Note Off A#4 (70) vel 0
192.772s | tick 199866 | track 1 | ch 1 | Note Off C6 (84) vel 0
192.772s | tick 199866 | track 1 | ch 1 | Note On D#5 (75) vel 38
192.772s | tick 199866 | track 1 | ch 1 | Note On A#1 (34) vel 22
192.772s | tick 199866 | track 1 | ch 1 | Note On D#5 (75) vel 28
192.772s | tick 199866 | track 1 | ch 1 | Note On D#4 (63) vel 35
192.957s | tick 200058 | track 1 | ch 1 | Note Off D6 (86) vel 0
192.957s | tick 200058 | track 1 | ch 1 | Note On C5 (72) vel 38
192.957s | tick 200058 | track 1 | ch 1 | Note On C6 (84) vel 38
192.957s | tick 200058 | track 1 | ch 1 | Note On D#2 (39) vel 27
193.050s | tick 200154 | track 1 | ch 1 | Note Off A#2 (46) vel 0
193.142s | tick 200250 | track 1 | ch 1 | Note Off D#6 (87) vel 0
193.142s | tick 200250 | track 1 | ch 1 | Note On G5 (79) vel 38
193.142s | tick 200250 | track 1 | ch 1 | Note On G6 (91) vel 38
193.142s | tick 200250 | track 1 | ch 1 | Note On G#2 (44) vel 30
193.235s | tick 200346 | track 1 | ch 1 | Note Off G#1 (32) vel 0
193.327s | tick 200442 | track 1 | ch 1 | Note Off D#5 (75) vel 0
193.327s | tick 200442 | track 1 | ch 1 | Note On A#2 (46) vel 31
193.420s | tick 200538 | track 1 | ch 1 | Note Off A#1 (34) vel 0
193.513s | tick 200634 | track 1 | ch 1 | Note Off C6 (84) vel 0
193.513s | tick 200634 | track 1 | ch 1 | Note Off C5 (72) vel 0
193.513s | tick 200634 | track 1 | ch 1 | Note On F6 (89) vel 37
193.513s | tick 200634 | track 1 | ch 1 | Note On F5 (77) vel 37
193.513s | tick 200634 | track 1 | ch 1 | Note On C3 (48) vel 34
193.605s | tick 200730 | track 1 | ch 1 | Note Off D#2 (39) vel 0
193.698s | tick 200826 | track 1 | ch 1 | Note On G3 (55) vel 34
193.790s | tick 200922 | track 1 | ch 1 | Note Off G#2 (44) vel 0
193.883s | tick 201018 | track 1 | ch 1 | Note Off G6 (91) vel 0
193.883s | tick 201018 | track 1 | ch 1 | Note Off G5 (79) vel 0
193.883s | tick 201018 | track 1 | ch 1 | Note On D6 (86) vel 37
193.883s | tick 201018 | track 1 | ch 1 | Note On D5 (74) vel 37
193.883s | tick 201018 | track 1 | ch 1 | Note On G#3 (56) vel 34
193.976s | tick 201114 | track 1 | ch 1 | Note Off A#2 (46) vel 0
194.068s | tick 201210 | track 1 | ch 1 | Note Off C3 (48) vel 0
194.068s | tick 201210 | track 1 | ch 1 | Note Off D#4 (63) vel 0
194.068s | tick 201210 | track 1 | ch 1 | Note Off D#5 (75) vel 0
194.068s | tick 201210 | track 1 | ch 1 | Note On D5 (74) vel 35
194.068s | tick 201210 | track 1 | ch 1 | Note On D4 (62) vel 35
194.253s | tick 201402 | track 1 | ch 1 | Note Off G3 (55) vel 0
194.253s | tick 201402 | track 1 | ch 1 | Note Off F5 (77) vel 0
194.253s | tick 201402 | track 1 | ch 1 | Note Off F6 (89) vel 0
194.624s | tick 201786 | track 1 | ch 1 | Note Off D6 (86) vel 0
194.809s | tick 201978 | track 1 | ch 1 | Note Off D5 (74) vel 0
195.179s | tick 202362 | track 1 | ch 1 | Note Off D4 (62) vel 0
195.179s | tick 202362 | track 1 | ch 1 | Note Off D5 (74) vel 0
195.179s | tick 202362 | track 1 | ch 1 | Note Off G#3 (56) vel 0
195.550s | tick 202746 | track 1 | ch 1 | Note Off A5 (81) vel 0
195.550s | tick 202746 | track 1 | ch 1 | Note On D5 (74) vel 36
195.550s | tick 202746 | track 1 | ch 1 | Note On D4 (62) vel 28
195.550s | tick 202746 | track 1 | ch 1 | Note On D3 (50) vel 37
195.550s | tick 202746 | track 1 | ch 1 | Note On D5 (74) vel 22
195.550s | tick 202746 | track 1 | ch 1 | Note On F5 (77) vel 31
195.550s | tick 202746 | track 1 | ch 1 | Note On A4 (69) vel 31
195.550s | tick 202746 | track 1 | ch 1 | Note On A5 (81) vel 39
195.735s | tick 202938 | track 1 | ch 1 | Note Off F5 (77) vel 0
195.735s | tick 202938 | track 1 | ch 1 | Note On D2 (38) vel 35
195.735s | tick 202938 | track 1 | ch 1 | Note On F5 (77) vel 39
195.920s | tick 203130 | track 1 | ch 1 | Note Off D5 (74) vel 0
195.920s | tick 203130 | track 1 | ch 1 | Note Off D2 (38) vel 0
195.920s | tick 203130 | track 1 | ch 1 | Note On D5 (74) vel 39
196.013s | tick 203226 | track 1 | ch 1 | Note Off D3 (50) vel 0
196.105s | tick 203322 | track 1 | ch 1 | Note Off A5 (81) vel 0
196.105s | tick 203322 | track 1 | ch 1 | Note Off D4 (62) vel 0
196.105s | tick 203322 | track 1 | ch 1 | Note Off D5 (74) vel 0
196.105s | tick 203322 | track 1 | ch 1 | Note On D3 (50) vel 28
196.105s | tick 203322 | track 1 | ch 1 | Note On D4 (62) vel 39
196.105s | tick 203322 | track 1 | ch 1 | Note On D2 (38) vel 37
196.105s | tick 203322 | track 1 | ch 1 | Note On D3 (50) vel 24
196.105s | tick 203322 | track 1 | ch 1 | Note On A5 (81) vel 39
196.290s | tick 203514 | track 1 | ch 1 | Note Off F5 (77) vel 0
196.290s | tick 203514 | track 1 | ch 1 | Note Off D2 (38) vel 0
196.290s | tick 203514 | track 1 | ch 1 | Note On F5 (77) vel 39
196.475s | tick 203706 | track 1 | ch 1 | Note Off D5 (74) vel 0
196.475s | tick 203706 | track 1 | ch 1 | Note On D2 (38) vel 37
196.475s | tick 203706 | track 1 | ch 1 | Note On D5 (74) vel 39
196.568s | tick 203802 | track 1 | ch 1 | Note Off D3 (50) vel 0
196.661s | tick 203898 | track 1 | ch 1 | Note Off A5 (81) vel 0
196.661s | tick 203898 | track 1 | ch 1 | Note Off D2 (38) vel 0
196.661s | tick 203898 | track 1 | ch 1 | Note Off D4 (62) vel 0
196.661s | tick 203898 | track 1 | ch 1 | Note Off D3 (50) vel 0
196.661s | tick 203898 | track 1 | ch 1 | Note On F3 (53) vel 28
196.661s | tick 203898 | track 1 | ch 1 | Note On F4 (65) vel 39
196.661s | tick 203898 | track 1 | ch 1 | Note On D3 (50) vel 29
196.661s | tick 203898 | track 1 | ch 1 | Note On A5 (81) vel 39
196.846s | tick 204090 | track 1 | ch 1 | Note Off F5 (77) vel 0
196.846s | tick 204090 | track 1 | ch 1 | Note On D2 (38) vel 37
196.846s | tick 204090 | track 1 | ch 1 | Note On F5 (77) vel 39
197.031s | tick 204282 | track 1 | ch 1 | Note Off D5 (74) vel 0
197.031s | tick 204282 | track 1 | ch 1 | Note Off D2 (38) vel 0
197.031s | tick 204282 | track 1 | ch 1 | Note On D5 (74) vel 39
197.124s | tick 204378 | track 1 | ch 1 | Note Off D3 (50) vel 0
197.216s | tick 204474 | track 1 | ch 1 | Note Off A5 (81) vel 0
197.216s | tick 204474 | track 1 | ch 1 | Note Off F4 (65) vel 0
197.216s | tick 204474 | track 1 | ch 1 | Note Off F3 (53) vel 0
197.216s | tick 204474 | track 1 | ch 1 | Note On A3 (57) vel 27
197.216s | tick 204474 | track 1 | ch 1 | Note On A4 (69) vel 38
197.216s | tick 204474 | track 1 | ch 1 | Note On D2 (38) vel 37
197.216s | tick 204474 | track 1 | ch 1 | Note On D3 (50) vel 29
197.216s | tick 204474 | track 1 | ch 1 | Note On A5 (81) vel 39
197.401s | tick 204666 | track 1 | ch 1 | Note Off D2 (38) vel 0
197.587s | tick 204858 | track 1 | ch 1 | Note On D2 (38) vel 37
197.679s | tick 204954 | track 1 | ch 1 | Note Off D3 (50) vel 0
197.772s | tick 205050 | track 1 | ch 1 | Note Off D2 (38) vel 0
197.772s | tick 205050 | track 1 | ch 1 | Note Off A4 (69) vel 0
197.772s | tick 205050 | track 1 | ch 1 | Note Off A3 (57) vel 0
197.772s | tick 205050 | track 1 | ch 1 | Note On D4 (62) vel 27
197.772s | tick 205050 | track 1 | ch 1 | Note On D5 (74) vel 38
197.772s | tick 205050 | track 1 | ch 1 | Note On D3 (50) vel 29
197.957s | tick 205242 | track 1 | ch 1 | Note On D2 (38) vel 37
198.142s | tick 205434 | track 1 | ch 1 | Note Off D2 (38) vel 0
198.142s | tick 205434 | track 1 | ch 1 | Note Off D3 (50) vel 0
198.142s | tick 205434 | track 1 | ch 1 | Note Off D5 (74) vel 0
198.142s | tick 205434 | track 1 | ch 1 | Note Off D4 (62) vel 0
198.142s | tick 205434 | track 1 | ch 1 | Note On E4 (64) vel 27
198.142s | tick 205434 | track 1 | ch 1 | Note On E5 (76) vel 38
198.142s | tick 205434 | track 1 | ch 1 | Note On D3 (50) vel 29
198.327s | tick 205626 | track 1 | ch 1 | Note On D2 (38) vel 37
198.513s | tick 205818 | track 1 | ch 1 | Note Off F5 (77) vel 0
198.513s | tick 205818 | track 1 | ch 1 | Note Off D2 (38) vel 0
198.513s | tick 205818 | track 1 | ch 1 | Note Off D3 (50) vel 0
198.513s | tick 205818 | track 1 | ch 1 | Note Off E5 (76) vel 0
198.513s | tick 205818 | track 1 | ch 1 | Note Off E4 (64) vel 0
198.513s | tick 205818 | track 1 | ch 1 | Note Off A4 (69) vel 0
198.513s | tick 205818 | track 1 | ch 1 | Note Off F5 (77) vel 0
198.513s | tick 205818 | track 1 | ch 1 | Note Off D5 (74) vel 0
198.513s | tick 205818 | track 1 | ch 1 | Note On F4 (65) vel 27
198.513s | tick 205818 | track 1 | ch 1 | Note On F5 (77) vel 38
198.513s | tick 205818 | track 1 | ch 1 | Note On A#2 (46) vel 29
198.513s | tick 205818 | track 1 | ch 1 | Note On F5 (77) vel 22
198.513s | tick 205818 | track 1 | ch 1 | Note On D5 (74) vel 31
198.513s | tick 205818 | track 1 | ch 1 | Note On A#4 (70) vel 31
198.513s | tick 205818 | track 1 | ch 1 | Note On F5 (77) vel 39
198.698s | tick 206010 | track 1 | ch 1 | Note Off D5 (74) vel 0
198.698s | tick 206010 | track 1 | ch 1 | Note On A#1 (34) vel 37
198.698s | tick 206010 | track 1 | ch 1 | Note On D5 (74) vel 39
198.883s | tick 206202 | track 1 | ch 1 | Note Off A#4 (70) vel 0
198.883s | tick 206202 | track 1 | ch 1 | Note Off A#1 (34) vel 0
198.883s | tick 206202 | track 1 | ch 1 | Note On A#4 (70) vel 39
198.975s | tick 206298 | track 1 | ch 1 | Note Off A#2 (46) vel 0
199.068s | tick 206394 | track 1 | ch 1 | Note Off F5 (77) vel 0
199.068s | tick 206394 | track 1 | ch 1 | Note Off F5 (77) vel 0
199.068s | tick 206394 | track 1 | ch 1 | Note Off F4 (65) vel 0
199.068s | tick 206394 | track 1 | ch 1 | Note On E4 (64) vel 27
199.068s | tick 206394 | track 1 | ch 1 | Note On E5 (76) vel 38
199.068s | tick 206394 | track 1 | ch 1 | Note On A#1 (34) vel 37
199.068s | tick 206394 | track 1 | ch 1 | Note On A#2 (46) vel 29
199.068s | tick 206394 | track 1 | ch 1 | Note On A#5 (82) vel 22
199.068s | tick 206394 | track 1 | ch 1 | Note On F5 (77) vel 39
199.253s | tick 206586 | track 1 | ch 1 | Note Off D5 (74) vel 0
199.253s | tick 206586 | track 1 | ch 1 | Note Off A#1 (34) vel 0
199.253s | tick 206586 | track 1 | ch 1 | Note On D5 (74) vel 39
199.438s | tick 206778 | track 1 | ch 1 | Note Off A#4 (70) vel 0
199.438s | tick 206778 | track 1 | ch 1 | Note On A#1 (34) vel 37
199.438s | tick 206778 | track 1 | ch 1 | Note On A#4 (70) vel 39
199.531s | tick 206874 | track 1 | ch 1 | Note Off A#2 (46) vel 0
199.624s | tick 206970 | track 1 | ch 1 | Note Off G5 (79) vel 0
199.624s | tick 206970 | track 1 | ch 1 | Note Off A#1 (34) vel 0
199.624s | tick 206970 | track 1 | ch 1 | Note Off A#5 (82) vel 0
199.624s | tick 206970 | track 1 | ch 1 | Note Off E5 (76) vel 0
199.624s | tick 206970 | track 1 | ch 1 | Note Off E4 (64) vel 0
199.624s | tick 206970 | track 1 | ch 1 | Note Off A#4 (70) vel 0
199.624s | tick 206970 | track 1 | ch 1 | Note Off D5 (74) vel 0
199.624s | tick 206970 | track 1 | ch 1 | Note Off F5 (77) vel 0
199.624s | tick 206970 | track 1 | ch 1 | Note On C4 (60) vel 27
199.624s | tick 206970 | track 1 | ch 1 | Note On C5 (72) vel 38
199.624s | tick 206970 | track 1 | ch 1 | Note On C3 (48) vel 29
199.624s | tick 206970 | track 1 | ch 1 | Note On G5 (79) vel 31
199.624s | tick 206970 | track 1 | ch 1 | Note On C6 (84) vel 22
199.624s | tick 206970 | track 1 | ch 1 | Note On C5 (72) vel 22
199.624s | tick 206970 | track 1 | ch 1 | Note On E5 (76) vel 31
199.624s | tick 206970 | track 1 | ch 1 | Note On G5 (79) vel 39
199.809s | tick 207162 | track 1 | ch 1 | Note Off E5 (76) vel 0
199.809s | tick 207162 | track 1 | ch 1 | Note On C2 (36) vel 37
199.809s | tick 207162 | track 1 | ch 1 | Note On E5 (76) vel 39
199.994s | tick 207354 | track 1 | ch 1 | Note Off C5 (72) vel 0
199.994s | tick 207354 | track 1 | ch 1 | Note Off C2 (36) vel 0
199.994s | tick 207354 | track 1 | ch 1 | Note On C5 (72) vel 39
200.087s | tick 207450 | track 1 | ch 1 | Note Off C3 (48) vel 0
200.179s | tick 207546 | track 1 | ch 1 | Note Off G5 (79) vel 0
200.179s | tick 207546 | track 1 | ch 1 | Note Off C5 (72) vel 0
200.179s | tick 207546 | track 1 | ch 1 | Note Off C4 (60) vel 0
200.179s | tick 207546 | track 1 | ch 1 | Note On G3 (55) vel 27
200.179s | tick 207546 | track 1 | ch 1 | Note On G4 (67) vel 38
200.179s | tick 207546 | track 1 | ch 1 | Note On C2 (36) vel 37
200.179s | tick 207546 | track 1 | ch 1 | Note On C3 (48) vel 29
200.179s | tick 207546 | track 1 | ch 1 | Note On G5 (79) vel 39
200.364s | tick 207738 | track 1 | ch 1 | Note Off E5 (76) vel 0
200.364s | tick 207738 | track 1 | ch 1 | Note Off C2 (36) vel 0
200.364s | tick 207738 | track 1 | ch 1 | Note On E5 (76) vel 39
200.550s | tick 207930 | track 1 | ch 1 | Note Off G5 (79) vel 0
200.550s | tick 207930 | track 1 | ch 1 | Note On C2 (36) vel 37
200.550s | tick 207930 | track 1 | ch 1 | Note On G5 (79) vel 39
200.642s | tick 208026 | track 1 | ch 1 | Note Off C3 (48) vel 0
200.735s | tick 208122 | track 1 | ch 1 | Note Off A#5 (82) vel 0
200.735s | tick 208122 | track 1 | ch 1 | Note Off C3 (48) vel 0
200.735s | tick 208122 | track 1 | ch 1 | Note Off C2 (36) vel 0
200.735s | tick 208122 | track 1 | ch 1 | Note Off G4 (67) vel 0
200.735s | tick 208122 | track 1 | ch 1 | Note Off G3 (55) vel 0
200.735s | tick 208122 | track 1 | ch 1 | Note On F4 (65) vel 38
200.735s | tick 208122 | track 1 | ch 1 | Note On F3 (53) vel 27
200.735s | tick 208122 | track 1 | ch 1 | Note On C3 (48) vel 33
200.735s | tick 208122 | track 1 | ch 1 | Note On A#5 (82) vel 39
200.827s | tick 208218 | track 1 | ch 1 | Note Off C3 (48) vel 0
200.827s | tick 208218 | track 1 | ch 1 | Note On C3 (48) vel 33
200.920s | tick 208314 | track 1 | ch 1 | Note Off C3 (48) vel 0
200.920s | tick 208314 | track 1 | ch 1 | Note On C3 (48) vel 33
200.920s | tick 208314 | track 1 | ch 1 | Note On C2 (36) vel 37
201.013s | tick 208410 | track 1 | ch 1 | Note Off C3 (48) vel 0
201.013s | tick 208410 | track 1 | ch 1 | Note On C3 (48) vel 33
201.105s | tick 208506 | track 1 | ch 1 | Note Off A5 (81) vel 0
201.105s | tick 208506 | track 1 | ch 1 | Note Off C3 (48) vel 0
201.105s | tick 208506 | track 1 | ch 1 | Note Off C2 (36) vel 0
201.105s | tick 208506 | track 1 | ch 1 | Note Off F3 (53) vel 0
201.105s | tick 208506 | track 1 | ch 1 | Note Off F4 (65) vel 0
201.105s | tick 208506 | track 1 | ch 1 | Note On G4 (67) vel 38
201.105s | tick 208506 | track 1 | ch 1 | Note On G3 (55) vel 27
201.105s | tick 208506 | track 1 | ch 1 | Note On C3 (48) vel 33
201.105s | tick 208506 | track 1 | ch 1 | Note On A5 (81) vel 39
201.198s | tick 208602 | track 1 | ch 1 | Note Off C3 (48) vel 0
201.198s | tick 208602 | track 1 | ch 1 | Note On C3 (48) vel 33
201.290s | tick 208698 | track 1 | ch 1 | Note Off G5 (79) vel 0
201.290s | tick 208698 | track 1 | ch 1 | Note Off C3 (48) vel 0
201.290s | tick 208698 | track 1 | ch 1 | Note On C3 (48) vel 33
201.290s | tick 208698 | track 1 | ch 1 | Note On C2 (36) vel 37
201.290s | tick 208698 | track 1 | ch 1 | Note On G5 (79) vel 39
201.383s | tick 208794 | track 1 | ch 1 | Note Off C3 (48) vel 0
201.383s | tick 208794 | track 1 | ch 1 | Note On C3 (48) vel 33
201.475s | tick 208890 | track 1 | ch 1 | Note Off A5 (81) vel 0
201.475s | tick 208890 | track 1 | ch 1 | Note Off C2 (36) vel 0
201.475s | tick 208890 | track 1 | ch 1 | Note Off G3 (55) vel 0
201.475s | tick 208890 | track 1 | ch 1 | Note Off G4 (67) vel 0
201.475s | tick 208890 | track 1 | ch 1 | Note Off E5 (76) vel 0
201.475s | tick 208890 | track 1 | ch 1 | Note Off C5 (72) vel 0
201.475s | tick 208890 | track 1 | ch 1 | Note Off C6 (84) vel 0
201.475s | tick 208890 | track 1 | ch 1 | Note Off G5 (79) vel 0
201.475s | tick 208890 | track 1 | ch 1 | Note On A3 (57) vel 27
201.475s | tick 208890 | track 1 | ch 1 | Note On A4 (69) vel 38
201.475s | tick 208890 | track 1 | ch 1 | Note On D3 (50) vel 29
201.475s | tick 208890 | track 1 | ch 1 | Note On F5 (77) vel 31
201.475s | tick 208890 | track 1 | ch 1 | Note On D5 (74) vel 22
201.475s | tick 208890 | track 1 | ch 1 | Note On A4 (69) vel 31
201.475s | tick 208890 | track 1 | ch 1 | Note On A5 (81) vel 39
201.661s | tick 209082 | track 1 | ch 1 | Note Off F5 (77) vel 0
201.661s | tick 209082 | track 1 | ch 1 | Note On D2 (38) vel 37
201.661s | tick 209082 | track 1 | ch 1 | Note On F5 (77) vel 39
201.846s | tick 209274 | track 1 | ch 1 | Note Off D5 (74) vel 0
201.846s | tick 209274 | track 1 | ch 1 | Note Off D2 (38) vel 0
201.846s | tick 209274 | track 1 | ch 1 | Note On D5 (74) vel 39
201.938s | tick 209370 | track 1 | ch 1 | Note Off D3 (50) vel 0
202.031s | tick 209466 | track 1 | ch 1 | Note Off A5 (81) vel 0
202.031s | tick 209466 | track 1 | ch 1 | Note Off A4 (69) vel 0
202.031s | tick 209466 | track 1 | ch 1 | Note Off A3 (57) vel 0
202.031s | tick 209466 | track 1 | ch 1 | Note On D3 (50) vel 27
202.031s | tick 209466 | track 1 | ch 1 | Note On D4 (62) vel 38
202.031s | tick 209466 | track 1 | ch 1 | Note On D2 (38) vel 37
202.031s | tick 209466 | track 1 | ch 1 | Note On D3 (50) vel 29
202.031s | tick 209466 | track 1 | ch 1 | Note On A5 (81) vel 39
202.216s | tick 209658 | track 1 | ch 1 | Note Off F5 (77) vel 0
202.216s | tick 209658 | track 1 | ch 1 | Note Off D2 (38) vel 0
202.216s | tick 209658 | track 1 | ch 1 | Note On F5 (77) vel 39
202.401s | tick 209850 | track 1 | ch 1 | Note Off D5 (74) vel 0
202.401s | tick 209850 | track 1 | ch 1 | Note On D2 (38) vel 37
202.401s | tick 209850 | track 1 | ch 1 | Note On D5 (74) vel 39
202.494s | tick 209946 | track 1 | ch 1 | Note Off D3 (50) vel 0
202.587s | tick 210042 | track 1 | ch 1 | Note Off A5 (81) vel 0
202.587s | tick 210042 | track 1 | ch 1 | Note Off D2 (38) vel 0
202.587s | tick 210042 | track 1 | ch 1 | Note Off D4 (62) vel 0
202.587s | tick 210042 | track 1 | ch 1 | Note Off D3 (50) vel 0
202.587s | tick 210042 | track 1 | ch 1 | Note On F3 (53) vel 27
202.587s | tick 210042 | track 1 | ch 1 | Note On F4 (65) vel 38
202.587s | tick 210042 | track 1 | ch 1 | Note On D3 (50) vel 29
202.587s | tick 210042 | track 1 | ch 1 | Note On A5 (81) vel 39
202.772s | tick 210234 | track 1 | ch 1 | Note Off F5 (77) vel 0
202.772s | tick 210234 | track 1 | ch 1 | Note On D2 (38) vel 37
202.772s | tick 210234 | track 1 | ch 1 | Note On F5 (77) vel 39
202.957s | tick 210426 | track 1 | ch 1 | Note Off D5 (74) vel 0
202.957s | tick 210426 | track 1 | ch 1 | Note Off D2 (38) vel 0
202.957s | tick 210426 | track 1 | ch 1 | Note On D5 (74) vel 39
203.050s | tick 210522 | track 1 | ch 1 | Note Off D3 (50) vel 0
203.142s | tick 210618 | track 1 | ch 1 | Note Off A5 (81) vel 0
203.142s | tick 210618 | track 1 | ch 1 | Note Off F4 (65) vel 0
203.142s | tick 210618 | track 1 | ch 1 | Note Off F3 (53) vel 0
203.142s | tick 210618 | track 1 | ch 1 | Note On A3 (57) vel 27
203.142s | tick 210618 | track 1 | ch 1 | Note On A4 (69) vel 38
203.142s | tick 210618 | track 1 | ch 1 | Note On D2 (38) vel 37
203.142s | tick 210618 | track 1 | ch 1 | Note On D3 (50) vel 29
203.142s | tick 210618 | track 1 | ch 1 | Note On A5 (81) vel 39
203.327s | tick 210810 | track 1 | ch 1 | Note Off F5 (77) vel 0
203.327s | tick 210810 | track 1 | ch 1 | Note Off D2 (38) vel 0
203.327s | tick 210810 | track 1 | ch 1 | Note On F5 (77) vel 39
203.513s | tick 211002 | track 1 | ch 1 | Note Off A5 (81) vel 0
203.513s | tick 211002 | track 1 | ch 1 | Note On D2 (38) vel 37
203.513s | tick 211002 | track 1 | ch 1 | Note On A5 (81) vel 39
203.698s | tick 211194 | track 1 | ch 1 | Note Off A#5 (82) vel 0
203.698s | tick 211194 | track 1 | ch 1 | Note Off D2 (38) vel 0
203.698s | tick 211194 | track 1 | ch 1 | Note Off A4 (69) vel 0
203.698s | tick 211194 | track 1 | ch 1 | Note Off A3 (57) vel 0
203.698s | tick 211194 | track 1 | ch 1 | Note On D4 (62) vel 27
203.698s | tick 211194 | track 1 | ch 1 | Note On D5 (74) vel 38
203.698s | tick 211194 | track 1 | ch 1 | Note On A#5 (82) vel 39
203.790s | tick 211290 | track 1 | ch 1 | Note Off D3 (50) vel 0
203.883s | tick 211386 | track 1 | ch 1 | Note Off D3 (50) vel 0
203.883s | tick 211386 | track 1 | ch 1 | Note On D3 (50) vel 33
203.883s | tick 211386 | track 1 | ch 1 | Note On D2 (38) vel 37
203.975s | tick 211482 | track 1 | ch 1 | Note Off D3 (50) vel 0
203.975s | tick 211482 | track 1 | ch 1 | Note On D3 (50) vel 33
204.068s | tick 211578 | track 1 | ch 1 | Note Off A5 (81) vel 0
204.068s | tick 211578 | track 1 | ch 1 | Note Off D3 (50) vel 0
204.068s | tick 211578 | track 1 | ch 1 | Note Off D2 (38) vel 0
204.068s | tick 211578 | track 1 | ch 1 | Note Off D5 (74) vel 0
204.068s | tick 211578 | track 1 | ch 1 | Note Off D4 (62) vel 0
204.068s | tick 211578 | track 1 | ch 1 | Note On E4 (64) vel 27
204.068s | tick 211578 | track 1 | ch 1 | Note On E5 (76) vel 38
204.068s | tick 211578 | track 1 | ch 1 | Note On D3 (50) vel 33
204.068s | tick 211578 | track 1 | ch 1 | Note On A5 (81) vel 39
204.161s | tick 211674 | track 1 | ch 1 | Note Off D3 (50) vel 0
204.161s | tick 211674 | track 1 | ch 1 | Note On D3 (50) vel 33
204.253s | tick 211770 | track 1 | ch 1 | Note Off D3 (50) vel 0
204.253s | tick 211770 | track 1 | ch 1 | Note On D3 (50) vel 33
204.253s | tick 211770 | track 1 | ch 1 | Note On D2 (38) vel 37
204.346s | tick 211866 | track 1 | ch 1 | Note Off D3 (50) vel 0
204.346s | tick 211866 | track 1 | ch 1 | Note On D3 (50) vel 33
204.438s | tick 211962 | track 1 | ch 1 | Note Off F5 (77) vel 0
204.438s | tick 211962 | track 1 | ch 1 | Note Off D2 (38) vel 0
204.438s | tick 211962 | track 1 | ch 1 | Note Off E5 (76) vel 0
204.438s | tick 211962 | track 1 | ch 1 | Note Off E4 (64) vel 0
204.438s | tick 211962 | track 1 | ch 1 | Note Off A4 (69) vel 0
204.438s | tick 211962 | track 1 | ch 1 | Note Off D5 (74) vel 0
204.438s | tick 211962 | track 1 | ch 1 | Note Off F5 (77) vel 0
204.438s | tick 211962 | track 1 | ch 1 | Note On F4 (65) vel 27
204.438s | tick 211962 | track 1 | ch 1 | Note On F5 (77) vel 38
204.438s | tick 211962 | track 1 | ch 1 | Note On A#2 (46) vel 29
204.438s | tick 211962 | track 1 | ch 1 | Note On F5 (77) vel 22
204.438s | tick 211962 | track 1 | ch 1 | Note On D5 (74) vel 31
204.438s | tick 211962 | track 1 | ch 1 | Note On A#4 (70) vel 31
204.438s | tick 211962 | track 1 | ch 1 | Note On F5 (77) vel 39
204.624s | tick 212154 | track 1 | ch 1 | Note Off D5 (74) vel 0
204.624s | tick 212154 | track 1 | ch 1 | Note On A#1 (34) vel 37
204.624s | tick 212154 | track 1 | ch 1 | Note On D5 (74) vel 39
204.809s | tick 212346 | track 1 | ch 1 | Note Off A#4 (70) vel 0
204.809s | tick 212346 | track 1 | ch 1 | Note Off A#1 (34) vel 0
204.809s | tick 212346 | track 1 | ch 1 | Note On A#4 (70) vel 39
204.901s | tick 212442 | track 1 | ch 1 | Note Off A#2 (46) vel 0
204.994s | tick 212538 | track 1 | ch 1 | Note Off F5 (77) vel 0
204.994s | tick 212538 | track 1 | ch 1 | Note Off F5 (77) vel 0
204.994s | tick 212538 | track 1 | ch 1 | Note Off F4 (65) vel 0
204.994s | tick 212538 | track 1 | ch 1 | Note On A4 (69) vel 27
204.994s | tick 212538 | track 1 | ch 1 | Note On A5 (81) vel 38
204.994s | tick 212538 | track 1 | ch 1 | Note On A#1 (34) vel 37
204.994s | tick 212538 | track 1 | ch 1 | Note On A#2 (46) vel 29
204.994s | tick 212538 | track 1 | ch 1 | Note On F5 (77) vel 39
205.179s | tick 212730 | track 1 | ch 1 | Note Off D5 (74) vel 0
205.179s | tick 212730 | track 1 | ch 1 | Note Off A#1 (34) vel 0
205.179s | tick 212730 | track 1 | ch 1 | Note On D5 (74) vel 39
205.364s | tick 212922 | track 1 | ch 1 | Note Off A#4 (70) vel 0
205.364s | tick 212922 | track 1 | ch 1 | Note On A#1 (34) vel 37
205.364s | tick 212922 | track 1 | ch 1 | Note On A#4 (70) vel 39
205.457s | tick 213018 | track 1 | ch 1 | Note Off A#2 (46) vel 0
205.550s | tick 213114 | track 1 | ch 1 | Note Off E5 (76) vel 0
205.550s | tick 213114 | track 1 | ch 1 | Note Off A#1 (34) vel 0
205.550s | tick 213114 | track 1 | ch 1 | Note Off A5 (81) vel 0
205.550s | tick 213114 | track 1 | ch 1 | Note Off A4 (69) vel 0
205.550s | tick 213114 | track 1 | ch 1 | Note Off A#4 (70) vel 0
205.550s | tick 213114 | track 1 | ch 1 | Note Off D5 (74) vel 0
205.550s | tick 213114 | track 1 | ch 1 | Note Off F5 (77) vel 0
205.550s | tick 213114 | track 1 | ch 1 | Note On G4 (67) vel 27
205.550s | tick 213114 | track 1 | ch 1 | Note On G5 (79) vel 38
205.550s | tick 213114 | track 1 | ch 1 | Note On C3 (48) vel 29
205.550s | tick 213114 | track 1 | ch 1 | Note On G4 (67) vel 22
205.550s | tick 213114 | track 1 | ch 1 | Note On E5 (76) vel 31
205.550s | tick 213114 | track 1 | ch 1 | Note On C5 (72) vel 31
205.550s | tick 213114 | track 1 | ch 1 | Note On E5 (76) vel 39
205.735s | tick 213306 | track 1 | ch 1 | Note Off C5 (72) vel 0
205.735s | tick 213306 | track 1 | ch 1 | Note On C2 (36) vel 37
205.735s | tick 213306 | track 1 | ch 1 | Note On C5 (72) vel 39
205.920s | tick 213498 | track 1 | ch 1 | Note Off G4 (67) vel 0
205.920s | tick 213498 | track 1 | ch 1 | Note Off C2 (36) vel 0
205.920s | tick 213498 | track 1 | ch 1 | Note On G4 (67) vel 39
206.013s | tick 213594 | track 1 | ch 1 | Note Off C3 (48) vel 0
206.105s | tick 213690 | track 1 | ch 1 | Note Off G5 (79) vel 0
206.105s | tick 213690 | track 1 | ch 1 | Note Off G4 (67) vel 0
206.105s | tick 213690 | track 1 | ch 1 | Note On F4 (65) vel 27
206.105s | tick 213690 | track 1 | ch 1 | Note On F5 (77) vel 38
206.105s | tick 213690 | track 1 | ch 1 | Note On C2 (36) vel 37
206.105s | tick 213690 | track 1 | ch 1 | Note On C3 (48) vel 29
206.290s | tick 213882 | track 1 | ch 1 | Note Off C2 (36) vel 0
206.475s | tick 214074 | track 1 | ch 1 | Note Off C5 (72) vel 0
206.475s | tick 214074 | track 1 | ch 1 | Note On C2 (36) vel 37
206.475s | tick 214074 | track 1 | ch 1 | Note On C5 (72) vel 36
206.568s | tick 214170 | track 1 | ch 1 | Note Off C3 (48) vel 0
206.661s | tick 214266 | track 1 | ch 1 | Note Off E5 (76) vel 0
206.661s | tick 214266 | track 1 | ch 1 | Note Off C3 (48) vel 0
206.661s | tick 214266 | track 1 | ch 1 | Note Off C2 (36) vel 0
206.661s | tick 214266 | track 1 | ch 1 | Note Off F5 (77) vel 0
206.661s | tick 214266 | track 1 | ch 1 | Note Off F4 (65) vel 0
206.661s | tick 214266 | track 1 | ch 1 | Note On A#4 (70) vel 27
206.661s | tick 214266 | track 1 | ch 1 | Note On A#5 (82) vel 38
206.661s | tick 214266 | track 1 | ch 1 | Note On C3 (48) vel 32
206.661s | tick 214266 | track 1 | ch 1 | Note On C2 (36) vel 37
206.661s | tick 214266 | track 1 | ch 1 | Note On E5 (76) vel 35
206.753s | tick 214362 | track 1 | ch 1 | Note Off C3 (48) vel 0
206.753s | tick 214362 | track 1 | ch 1 | Note On C3 (48) vel 32
206.846s | tick 214458 | track 1 | ch 1 | Note Off G4 (67) vel 0
206.846s | tick 214458 | track 1 | ch 1 | Note Off C3 (48) vel 0
206.846s | tick 214458 | track 1 | ch 1 | Note On C3 (48) vel 32
206.846s | tick 214458 | track 1 | ch 1 | Note On G4 (67) vel 38
206.938s | tick 214554 | track 1 | ch 1 | Note Off C3 (48) vel 0
206.938s | tick 214554 | track 1 | ch 1 | Note On C3 (48) vel 32
207.031s | tick 214650 | track 1 | ch 1 | Note Off C5 (72) vel 0
207.031s | tick 214650 | track 1 | ch 1 | Note Off C3 (48) vel 0
207.031s | tick 214650 | track 1 | ch 1 | Note Off C2 (36) vel 0
207.031s | tick 214650 | track 1 | ch 1 | Note Off A#5 (82) vel 0
207.031s | tick 214650 | track 1 | ch 1 | Note Off A#4 (70) vel 0
207.031s | tick 214650 | track 1 | ch 1 | Note On A4 (69) vel 27
207.031s | tick 214650 | track 1 | ch 1 | Note On A5 (81) vel 38
207.031s | tick 214650 | track 1 | ch 1 | Note On C3 (48) vel 32
207.031s | tick 214650 | track 1 | ch 1 | Note On C2 (36) vel 37
207.031s | tick 214650 | track 1 | ch 1 | Note On C5 (72) vel 33
207.124s | tick 214746 | track 1 | ch 1 | Note Off C3 (48) vel 0
207.124s | tick 214746 | track 1 | ch 1 | Note On C3 (48) vel 32
207.216s | tick 214842 | track 1 | ch 1 | Note Off G4 (67) vel 0
207.216s | tick 214842 | track 1 | ch 1 | Note Off C3 (48) vel 0
207.216s | tick 214842 | track 1 | ch 1 | Note On C3 (48) vel 32
207.216s | tick 214842 | track 1 | ch 1 | Note On G4 (67) vel 35
207.309s | tick 214938 | track 1 | ch 1 | Note Off C3 (48) vel 0
207.309s | tick 214938 | track 1 | ch 1 | Note On C3 (48) vel 32
207.401s | tick 215034 | track 1 | ch 1 | Note Off B4 (71) vel 0
207.401s | tick 215034 | track 1 | ch 1 | Note Off B5 (83) vel 0
207.401s | tick 215034 | track 1 | ch 1 | Note Off F1 (29) vel 0
207.401s | tick 215034 | track 1 | ch 1 | Note Off C2 (36) vel 0
207.401s | tick 215034 | track 1 | ch 1 | Note Off A5 (81) vel 0
207.401s | tick 215034 | track 1 | ch 1 | Note Off A4 (69) vel 0
207.401s | tick 215034 | track 1 | ch 1 | Note Off C5 (72) vel 0
207.401s | tick 215034 | track 1 | ch 1 | Note Off E5 (76) vel 0
207.401s | tick 215034 | track 1 | ch 1 | Note Off G4 (67) vel 0
207.401s | tick 215034 | track 1 | ch 1 | Note On E5 (76) vel 35
207.401s | tick 215034 | track 1 | ch 1 | Note On E4 (64) vel 27
207.401s | tick 215034 | track 1 | ch 1 | Note On F1 (29) vel 29
207.401s | tick 215034 | track 1 | ch 1 | Note On B4 (71) vel 30
207.401s | tick 215034 | track 1 | ch 1 | Note On E5 (76) vel 22
207.401s | tick 215034 | track 1 | ch 1 | Note On G5 (79) vel 30
207.401s | tick 215034 | track 1 | ch 1 | Note On B5 (83) vel 30
207.401s | tick 215034 | track 1 | ch 1 | Note On B4 (71) vel 39
207.587s | tick 215226 | track 1 | ch 1 | Note Off G5 (79) vel 0
207.587s | tick 215226 | track 1 | ch 1 | Note Off G4 (67) vel 0
207.587s | tick 215226 | track 1 | ch 1 | Note On E2 (40) vel 35
207.587s | tick 215226 | track 1 | ch 1 | Note On G4 (67) vel 39
207.587s | tick 215226 | track 1 | ch 1 | Note On G5 (79) vel 30
207.772s | tick 215418 | track 1 | ch 1 | Note Off E5 (76) vel 0
207.772s | tick 215418 | track 1 | ch 1 | Note Off E4 (64) vel 0
207.772s | tick 215418 | track 1 | ch 1 | Note Off F1 (29) vel 0
207.772s | tick 215418 | track 1 | ch 1 | Note Off E2 (40) vel 0
207.772s | tick 215418 | track 1 | ch 1 | Note On F1 (29) vel 29
207.772s | tick 215418 | track 1 | ch 1 | Note On E4 (64) vel 39
207.772s | tick 215418 | track 1 | ch 1 | Note On E5 (76) vel 30
207.957s | tick 215610 | track 1 | ch 1 | Note Off B5 (83) vel 0
207.957s | tick 215610 | track 1 | ch 1 | Note Off B4 (71) vel 0
207.957s | tick 215610 | track 1 | ch 1 | Note Off E4 (64) vel 0
207.957s | tick 215610 | track 1 | ch 1 | Note Off E5 (76) vel 0
207.957s | tick 215610 | track 1 | ch 1 | Note On E3 (52) vel 27
207.957s | tick 215610 | track 1 | ch 1 | Note On E4 (64) vel 38
207.957s | tick 215610 | track 1 | ch 1 | Note On E2 (40) vel 35
207.957s | tick 215610 | track 1 | ch 1 | Note On B4 (71) vel 39
207.957s | tick 215610 | track 1 | ch 1 | Note On B5 (83) vel 30
208.142s | tick 215802 | track 1 | ch 1 | Note Off G5 (79) vel 0
208.142s | tick 215802 | track 1 | ch 1 | Note Off G4 (67) vel 0
208.142s | tick 215802 | track 1 | ch 1 | Note Off F1 (29) vel 0
208.142s | tick 215802 | track 1 | ch 1 | Note Off E2 (40) vel 0
208.142s | tick 215802 | track 1 | ch 1 | Note On F1 (29) vel 29
208.142s | tick 215802 | track 1 | ch 1 | Note On G4 (67) vel 39
208.142s | tick 215802 | track 1 | ch 1 | Note On G5 (79) vel 30
208.327s | tick 215994 | track 1 | ch 1 | Note Off E5 (76) vel 0
208.327s | tick 215994 | track 1 | ch 1 | Note Off E4 (64) vel 0
208.327s | tick 215994 | track 1 | ch 1 | Note On E2 (40) vel 35
208.327s | tick 215994 | track 1 | ch 1 | Note On E4 (64) vel 39
208.327s | tick 215994 | track 1 | ch 1 | Note On E5 (76) vel 30
208.513s | tick 216186 | track 1 | ch 1 | Note Off B4 (71) vel 0
208.513s | tick 216186 | track 1 | ch 1 | Note Off B5 (83) vel 0
208.513s | tick 216186 | track 1 | ch 1 | Note Off F1 (29) vel 0
208.513s | tick 216186 | track 1 | ch 1 | Note Off E2 (40) vel 0
208.513s | tick 216186 | track 1 | ch 1 | Note Off E4 (64) vel 0
208.513s | tick 216186 | track 1 | ch 1 | Note Off E3 (52) vel 0
208.513s | tick 216186 | track 1 | ch 1 | Note On G4 (67) vel 38
208.513s | tick 216186 | track 1 | ch 1 | Note On G3 (55) vel 27
208.513s | tick 216186 | track 1 | ch 1 | Note On F1 (29) vel 29
208.513s | tick 216186 | track 1 | ch 1 | Note On B5 (83) vel 30
208.513s | tick 216186 | track 1 | ch 1 | Note On B4 (71) vel 39
208.698s | tick 216378 | track 1 | ch 1 | Note Off G5 (79) vel 0
208.698s | tick 216378 | track 1 | ch 1 | Note Off G4 (67) vel 0
208.698s | tick 216378 | track 1 | ch 1 | Note On E2 (40) vel 35
208.698s | tick 216378 | track 1 | ch 1 | Note On G4 (67) vel 39
208.698s | tick 216378 | track 1 | ch 1 | Note On G5 (79) vel 30
208.883s | tick 216570 | track 1 | ch 1 | Note Off E5 (76) vel 0
208.883s | tick 216570 | track 1 | ch 1 | Note Off E4 (64) vel 0
208.883s | tick 216570 | track 1 | ch 1 | Note Off F1 (29) vel 0
208.883s | tick 216570 | track 1 | ch 1 | Note Off E2 (40) vel 0
208.883s | tick 216570 | track 1 | ch 1 | Note On F1 (29) vel 29
208.883s | tick 216570 | track 1 | ch 1 | Note On E4 (64) vel 39
208.883s | tick 216570 | track 1 | ch 1 | Note On E5 (76) vel 30
209.068s | tick 216762 | track 1 | ch 1 | Note Off B4 (71) vel 0
209.068s | tick 216762 | track 1 | ch 1 | Note Off B5 (83) vel 0
209.068s | tick 216762 | track 1 | ch 1 | Note Off G3 (55) vel 0
209.068s | tick 216762 | track 1 | ch 1 | Note Off G4 (67) vel 0
209.068s | tick 216762 | track 1 | ch 1 | Note On B4 (71) vel 35
209.068s | tick 216762 | track 1 | ch 1 | Note On B3 (59) vel 25
209.068s | tick 216762 | track 1 | ch 1 | Note On E2 (40) vel 35
209.068s | tick 216762 | track 1 | ch 1 | Note On B5 (83) vel 30
209.068s | tick 216762 | track 1 | ch 1 | Note On B4 (71) vel 39
209.253s | tick 216954 | track 1 | ch 1 | Note Off G5 (79) vel 0
209.253s | tick 216954 | track 1 | ch 1 | Note Off G4 (67) vel 0
209.253s | tick 216954 | track 1 | ch 1 | Note Off F1 (29) vel 0
209.253s | tick 216954 | track 1 | ch 1 | Note Off E2 (40) vel 0
209.253s | tick 216954 | track 1 | ch 1 | Note On F1 (29) vel 29
209.253s | tick 216954 | track 1 | ch 1 | Note On G4 (67) vel 39
209.253s | tick 216954 | track 1 | ch 1 | Note On G5 (79) vel 30
209.438s | tick 217146 | track 1 | ch 1 | Note Off B5 (83) vel 0
209.438s | tick 217146 | track 1 | ch 1 | Note Off B4 (71) vel 0
209.438s | tick 217146 | track 1 | ch 1 | Note On E2 (40) vel 35
209.438s | tick 217146 | track 1 | ch 1 | Note On B4 (71) vel 39
209.438s | tick 217146 | track 1 | ch 1 | Note On B5 (83) vel 30
209.624s | tick 217338 | track 1 | ch 1 | Note Off C5 (72) vel 0
209.624s | tick 217338 | track 1 | ch 1 | Note Off C6 (84) vel 0
209.624s | tick 217338 | track 1 | ch 1 | Note Off F1 (29) vel 0
209.624s | tick 217338 | track 1 | ch 1 | Note Off E2 (40) vel 0
209.624s | tick 217338 | track 1 | ch 1 | Note Off B3 (59) vel 0
209.624s | tick 217338 | track 1 | ch 1 | Note Off B4 (71) vel 0
209.624s | tick 217338 | track 1 | ch 1 | Note On E5 (76) vel 36
209.624s | tick 217338 | track 1 | ch 1 | Note On E4 (64) vel 25
209.624s | tick 217338 | track 1 | ch 1 | Note On F1 (29) vel 29
209.624s | tick 217338 | track 1 | ch 1 | Note On C6 (84) vel 30
209.624s | tick 217338 | track 1 | ch 1 | Note On C5 (72) vel 39
209.809s | tick 217530 | track 1 | ch 1 | Note On E2 (40) vel 35
209.994s | tick 217722 | track 1 | ch 1 | Note Off B4 (71) vel 0
209.994s | tick 217722 | track 1 | ch 1 | Note Off B5 (83) vel 0
209.994s | tick 217722 | track 1 | ch 1 | Note Off F1 (29) vel 0
209.994s | tick 217722 | track 1 | ch 1 | Note Off E2 (40) vel 0
209.994s | tick 217722 | track 1 | ch 1 | Note Off E4 (64) vel 0
209.994s | tick 217722 | track 1 | ch 1 | Note Off E5 (76) vel 0
209.994s | tick 217722 | track 1 | ch 1 | Note On F#5 (78) vel 36
209.994s | tick 217722 | track 1 | ch 1 | Note On F#4 (66) vel 25
209.994s | tick 217722 | track 1 | ch 1 | Note On F1 (29) vel 29
209.994s | tick 217722 | track 1 | ch 1 | Note On B5 (83) vel 30
209.994s | tick 217722 | track 1 | ch 1 | Note On B4 (71) vel 39
210.179s | tick 217914 | track 1 | ch 1 | Note Off E5 (76) vel 0
210.179s | tick 217914 | track 1 | ch 1 | Note Off E4 (64) vel 0
210.179s | tick 217914 | track 1 | ch 1 | Note On E2 (40) vel 35
210.179s | tick 217914 | track 1 | ch 1 | Note On E4 (64) vel 39
210.179s | tick 217914 | track 1 | ch 1 | Note On E5 (76) vel 30
210.364s | tick 218106 | track 1 | ch 1 | Note Off G4 (67) vel 0
210.364s | tick 218106 | track 1 | ch 1 | Note Off G5 (79) vel 0
210.364s | tick 218106 | track 1 | ch 1 | Note Off C#1 (25) vel 0
210.364s | tick 218106 | track 1 | ch 1 | Note Off E2 (40) vel 0
210.364s | tick 218106 | track 1 | ch 1 | Note Off F#4 (66) vel 0
210.364s | tick 218106 | track 1 | ch 1 | Note Off F#5 (78) vel 0
210.364s | tick 218106 | track 1 | ch 1 | Note Off G5 (79) vel 0
210.364s | tick 218106 | track 1 | ch 1 | Note Off E5 (76) vel 0
210.364s | tick 218106 | track 1 | ch 1 | Note Off B4 (71) vel 0
210.364s | tick 218106 | track 1 | ch 1 | Note On G4 (67) vel 25
210.364s | tick 218106 | track 1 | ch 1 | Note On G5 (79) vel 36
210.364s | tick 218106 | track 1 | ch 1 | Note On C#1 (25) vel 29
210.364s | tick 218106 | track 1 | ch 1 | Note On C5 (72) vel 30
210.364s | tick 218106 | track 1 | ch 1 | Note On G5 (79) vel 22
210.364s | tick 218106 | track 1 | ch 1 | Note On E5 (76) vel 30
210.364s | tick 218106 | track 1 | ch 1 | Note On G5 (79) vel 30
210.364s | tick 218106 | track 1 | ch 1 | Note On G4 (67) vel 39
210.550s | tick 218298 | track 1 | ch 1 | Note Off E5 (76) vel 0
210.550s | tick 218298 | track 1 | ch 1 | Note Off E4 (64) vel 0
210.550s | tick 218298 | track 1 | ch 1 | Note On C2 (36) vel 35
210.550s | tick 218298 | track 1 | ch 1 | Note On E4 (64) vel 39
210.550s | tick 218298 | track 1 | ch 1 | Note On E5 (76) vel 30
210.735s | tick 218490 | track 1 | ch 1 | Note Off C5 (72) vel 0
210.735s | tick 218490 | track 1 | ch 1 | Note Off C4 (60) vel 0
210.735s | tick 218490 | track 1 | ch 1 | Note Off C#1 (25) vel 0
210.735s | tick 218490 | track 1 | ch 1 | Note Off C2 (36) vel 0
210.735s | tick 218490 | track 1 | ch 1 | Note On C#1 (25) vel 29
210.735s | tick 218490 | track 1 | ch 1 | Note On C4 (60) vel 39
210.735s | tick 218490 | track 1 | ch 1 | Note On C5 (72) vel 30
210.920s | tick 218682 | track 1 | ch 1 | Note Off G4 (67) vel 0
210.920s | tick 218682 | track 1 | ch 1 | Note Off G5 (79) vel 0
210.920s | tick 218682 | track 1 | ch 1 | Note Off G5 (79) vel 0
210.920s | tick 218682 | track 1 | ch 1 | Note Off G4 (67) vel 0
210.920s | tick 218682 | track 1 | ch 1 | Note On F#5 (78) vel 36
210.920s | tick 218682 | track 1 | ch 1 | Note On F#4 (66) vel 25
210.920s | tick 218682 | track 1 | ch 1 | Note On C2 (36) vel 35
210.920s | tick 218682 | track 1 | ch 1 | Note On C6 (84) vel 22
210.920s | tick 218682 | track 1 | ch 1 | Note On G5 (79) vel 30
210.920s | tick 218682 | track 1 | ch 1 | Note On G4 (67) vel 39
211.105s | tick 218874 | track 1 | ch 1 | Note Off E5 (76) vel 0
211.105s | tick 218874 | track 1 | ch 1 | Note Off E4 (64) vel 0
211.105s | tick 218874 | track 1 | ch 1 | Note Off C#1 (25) vel 0
211.105s | tick 218874 | track 1 | ch 1 | Note Off C2 (36) vel 0
211.105s | tick 218874 | track 1 | ch 1 | Note On C#1 (25) vel 29
211.105s | tick 218874 | track 1 | ch 1 | Note On E4 (64) vel 39
211.105s | tick 218874 | track 1 | ch 1 | Note On E5 (76) vel 30
211.290s | tick 219066 | track 1 | ch 1 | Note Off C5 (72) vel 0
211.290s | tick 219066 | track 1 | ch 1 | Note Off C4 (60) vel 0
211.290s | tick 219066 | track 1 | ch 1 | Note On C2 (36) vel 35
211.290s | tick 219066 | track 1 | ch 1 | Note On C4 (60) vel 39
211.290s | tick 219066 | track 1 | ch 1 | Note On C5 (72) vel 30
211.475s | tick 219258 | track 1 | ch 1 | Note Off A4 (69) vel 0
211.475s | tick 219258 | track 1 | ch 1 | Note Off A5 (81) vel 0
211.475s | tick 219258 | track 1 | ch 1 | Note Off D#1 (27) vel 0
211.475s | tick 219258 | track 1 | ch 1 | Note Off C2 (36) vel 0
211.475s | tick 219258 | track 1 | ch 1 | Note Off C6 (84) vel 0
211.475s | tick 219258 | track 1 | ch 1 | Note Off F#4 (66) vel 0
211.475s | tick 219258 | track 1 | ch 1 | Note Off F#5 (78) vel 0
211.475s | tick 219258 | track 1 | ch 1 | Note Off E5 (76) vel 0
211.475s | tick 219258 | track 1 | ch 1 | Note Off G5 (79) vel 0
211.475s | tick 219258 | track 1 | ch 1 | Note Off C5 (72) vel 0
211.475s | tick 219258 | track 1 | ch 1 | Note On D4 (62) vel 25
211.475s | tick 219258 | track 1 | ch 1 | Note On D5 (74) vel 36
211.475s | tick 219258 | track 1 | ch 1 | Note On D#1 (27) vel 29
211.475s | tick 219258 | track 1 | ch 1 | Note On F#5 (78) vel 30
211.475s | tick 219258 | track 1 | ch 1 | Note On A5 (81) vel 30
211.475s | tick 219258 | track 1 | ch 1 | Note On D6 (86) vel 22
211.475s | tick 219258 | track 1 | ch 1 | Note On D5 (74) vel 22
211.475s | tick 219258 | track 1 | ch 1 | Note On A5 (81) vel 30
211.475s | tick 219258 | track 1 | ch 1 | Note On A4 (69) vel 39
211.661s | tick 219450 | track 1 | ch 1 | Note Off F#5 (78) vel 0
211.661s | tick 219450 | track 1 | ch 1 | Note Off F#4 (66) vel 0
211.661s | tick 219450 | track 1 | ch 1 | Note On D2 (38) vel 35
211.661s | tick 219450 | track 1 | ch 1 | Note On F#4 (66) vel 39
211.661s | tick 219450 | track 1 | ch 1 | Note On F#5 (78) vel 30
211.846s | tick 219642 | track 1 | ch 1 | Note Off D5 (74) vel 0
211.846s | tick 219642 | track 1 | ch 1 | Note Off D4 (62) vel 0
211.846s | tick 219642 | track 1 | ch 1 | Note Off D#1 (27) vel 0
211.846s | tick 219642 | track 1 | ch 1 | Note Off D2 (38) vel 0
211.846s | tick 219642 | track 1 | ch 1 | Note On D#1 (27) vel 29
211.846s | tick 219642 | track 1 | ch 1 | Note On D4 (62) vel 39
211.846s | tick 219642 | track 1 | ch 1 | Note On D5 (74) vel 30
212.031s | tick 219834 | track 1 | ch 1 | Note Off A4 (69) vel 0
212.031s | tick 219834 | track 1 | ch 1 | Note Off A5 (81) vel 0
212.031s | tick 219834 | track 1 | ch 1 | Note Off D5 (74) vel 0
212.031s | tick 219834 | track 1 | ch 1 | Note Off D4 (62) vel 0
212.031s | tick 219834 | track 1 | ch 1 | Note On A4 (69) vel 35
212.031s | tick 219834 | track 1 | ch 1 | Note On A3 (57) vel 25
212.031s | tick 219834 | track 1 | ch 1 | Note On D2 (38) vel 35
212.031s | tick 219834 | track 1 | ch 1 | Note On A5 (81) vel 30
212.031s | tick 219834 | track 1 | ch 1 | Note On A4 (69) vel 39
212.216s | tick 220026 | track 1 | ch 1 | Note Off D5 (74) vel 0
212.216s | tick 220026 | track 1 | ch 1 | Note Off D4 (62) vel 0
212.216s | tick 220026 | track 1 | ch 1 | Note Off D#1 (27) vel 0
212.216s | tick 220026 | track 1 | ch 1 | Note Off D2 (38) vel 0
212.216s | tick 220026 | track 1 | ch 1 | Note On D#1 (27) vel 29
212.216s | tick 220026 | track 1 | ch 1 | Note On D4 (62) vel 39
212.216s | tick 220026 | track 1 | ch 1 | Note On D5 (74) vel 30
212.401s | tick 220218 | track 1 | ch 1 | Note Off A5 (81) vel 0
212.401s | tick 220218 | track 1 | ch 1 | Note Off A4 (69) vel 0
212.401s | tick 220218 | track 1 | ch 1 | Note On D2 (38) vel 35
212.401s | tick 220218 | track 1 | ch 1 | Note On A4 (69) vel 39
212.401s | tick 220218 | track 1 | ch 1 | Note On A5 (81) vel 30
212.587s | tick 220410 | track 1 | ch 1 | Note Off D#1 (27) vel 0
212.587s | tick 220410 | track 1 | ch 1 | Note Off D2 (38) vel 0
212.587s | tick 220410 | track 1 | ch 1 | Note Off A3 (57) vel 0
212.587s | tick 220410 | track 1 | ch 1 | Note Off A4 (69) vel 0
212.587s | tick 220410 | track 1 | ch 1 | Note On G4 (67) vel 36
212.587s | tick 220410 | track 1 | ch 1 | Note On G3 (55) vel 25
212.587s | tick 220410 | track 1 | ch 1 | Note On D#1 (27) vel 29
212.587s | tick 220410 | track 1 | ch 1 | Note On C6 (84) vel 28
212.587s | tick 220410 | track 1 | ch 1 | Note On C5 (72) vel 44
212.679s | tick 220506 | track 1 | ch 1 | Note Off C5 (72) vel 0
212.679s | tick 220506 | track 1 | ch 1 | Note Off C6 (84) vel 0
212.772s | tick 220602 | track 1 | ch 1 | Note On D2 (38) vel 35
212.957s | tick 220794 | track 1 | ch 1 | Note Off D#1 (27) vel 0
212.957s | tick 220794 | track 1 | ch 1 | Note Off D2 (38) vel 0
212.957s | tick 220794 | track 1 | ch 1 | Note Off G3 (55) vel 0
212.957s | tick 220794 | track 1 | ch 1 | Note Off G4 (67) vel 0
212.957s | tick 220794 | track 1 | ch 1 | Note On A4 (69) vel 36
212.957s | tick 220794 | track 1 | ch 1 | Note On A3 (57) vel 25
212.957s | tick 220794 | track 1 | ch 1 | Note On D#1 (27) vel 29
212.957s | tick 220794 | track 1 | ch 1 | Note On B5 (83) vel 28
212.957s | tick 220794 | track 1 | ch 1 | Note On B4 (71) vel 44
212.957s | tick 220794 | track 1 | ch 1 | Note On B4 (71) vel 44
213.050s | tick 220890 | track 1 | ch 1 | Note Off B4 (71) vel 0
213.050s | tick 220890 | track 1 | ch 1 | Note Off B4 (71) vel 0
213.050s | tick 220890 | track 1 | ch 1 | Note Off B5 (83) vel 0
213.142s | tick 220986 | track 1 | ch 1 | Note On D2 (38) vel 35
213.327s | tick 221178 | track 1 | ch 1 | Note Off B5 (83) vel 0
213.327s | tick 221178 | track 1 | ch 1 | Note Off B4 (71) vel 0
213.327s | tick 221178 | track 1 | ch 1 | Note Off F1 (29) vel 0
213.327s | tick 221178 | track 1 | ch 1 | Note Off D2 (38) vel 0
213.327s | tick 221178 | track 1 | ch 1 | Note Off A3 (57) vel 0
213.327s | tick 221178 | track 1 | ch 1 | Note Off A4 (69) vel 0
213.327s | tick 221178 | track 1 | ch 1 | Note Off D5 (74) vel 0
213.327s | tick 221178 | track 1 | ch 1 | Note Off D6 (86) vel 0
213.327s | tick 221178 | track 1 | ch 1 | Note Off A5 (81) vel 0
213.327s | tick 221178 | track 1 | ch 1 | Note Off F#5 (78) vel 0
213.327s | tick 221178 | track 1 | ch 1 | Note On B3 (59) vel 25
213.327s | tick 221178 | track 1 | ch 1 | Note On B4 (71) vel 36
213.327s | tick 221178 | track 1 | ch 1 | Note On F1 (29) vel 29
213.327s | tick 221178 | track 1 | ch 1 | Note On G5 (79) vel 30
213.327s | tick 221178 | track 1 | ch 1 | Note On E5 (76) vel 22
213.327s | tick 221178 | track 1 | ch 1 | Note On B4 (71) vel 30
213.327s | tick 221178 | track 1 | ch 1 | Note On B4 (71) vel 39
213.327s | tick 221178 | track 1 | ch 1 | Note On B5 (83) vel 30
213.513s | tick 221370 | track 1 | ch 1 | Note Off G5 (79) vel 0
213.513s | tick 221370 | track 1 | ch 1 | Note Off G4 (67) vel 0
213.513s | tick 221370 | track 1 | ch 1 | Note On E2 (40) vel 35
213.513s | tick 221370 | track 1 | ch 1 | Note On G4 (67) vel 39
213.513s | tick 221370 | track 1 | ch 1 | Note On G5 (79) vel 30
213.698s | tick 221562 | track 1 | ch 1 | Note Off E5 (76) vel 0
213.698s | tick 221562 | track 1 | ch 1 | Note Off E4 (64) vel 0
213.698s | tick 221562 | track 1 | ch 1 | Note Off F1 (29) vel 0
213.698s | tick 221562 | track 1 | ch 1 | Note Off E2 (40) vel 0
213.698s | tick 221562 | track 1 | ch 1 | Note On F1 (29) vel 29
213.698s | tick 221562 | track 1 | ch 1 | Note On E4 (64) vel 39
213.698s | tick 221562 | track 1 | ch 1 | Note On E5 (76) vel 30
213.883s | tick 221754 | track 1 | ch 1 | Note Off B5 (83) vel 0
213.883s | tick 221754 | track 1 | ch 1 | Note Off B4 (71) vel 0
213.883s | tick 221754 | track 1 | ch 1 | Note Off B4 (71) vel 0
213.883s | tick 221754 | track 1 | ch 1 | Note Off B3 (59) vel 0
213.883s | tick 221754 | track 1 | ch 1 | Note On E3 (52) vel 25
213.883s | tick 221754 | track 1 | ch 1 | Note On E4 (64) vel 36
213.883s | tick 221754 | track 1 | ch 1 | Note On E2 (40) vel 35
213.883s | tick 221754 | track 1 | ch 1 | Note On B4 (71) vel 39
213.883s | tick 221754 | track 1 | ch 1 | Note On B5 (83) vel 30
214.068s | tick 221946 | track 1 | ch 1 | Note Off G5 (79) vel 0
214.068s | tick 221946 | track 1 | ch 1 | Note Off G4 (67) vel 0
214.068s | tick 221946 | track 1 | ch 1 | Note Off F1 (29) vel 0
214.068s | tick 221946 | track 1 | ch 1 | Note Off E2 (40) vel 0
214.068s | tick 221946 | track 1 | ch 1 | Note On F1 (29) vel 29
214.068s | tick 221946 | track 1 | ch 1 | Note On G4 (67) vel 39
214.068s | tick 221946 | track 1 | ch 1 | Note On G5 (79) vel 30
214.253s | tick 222138 | track 1 | ch 1 | Note Off E5 (76) vel 0
214.253s | tick 222138 | track 1 | ch 1 | Note Off E4 (64) vel 0
214.253s | tick 222138 | track 1 | ch 1 | Note On E2 (40) vel 35
214.253s | tick 222138 | track 1 | ch 1 | Note On E4 (64) vel 39
214.253s | tick 222138 | track 1 | ch 1 | Note On E5 (76) vel 30
214.438s | tick 222330 | track 1 | ch 1 | Note Off B5 (83) vel 0
214.438s | tick 222330 | track 1 | ch 1 | Note Off B4 (71) vel 0
214.438s | tick 222330 | track 1 | ch 1 | Note Off F1 (29) vel 0
214.438s | tick 222330 | track 1 | ch 1 | Note Off E2 (40) vel 0
214.438s | tick 222330 | track 1 | ch 1 | Note Off E4 (64) vel 0
214.438s | tick 222330 | track 1 | ch 1 | Note Off E3 (52) vel 0
214.438s | tick 222330 | track 1 | ch 1 | Note On G3 (55) vel 25
214.438s | tick 222330 | track 1 | ch 1 | Note On G4 (67) vel 36
214.438s | tick 222330 | track 1 | ch 1 | Note On F1 (29) vel 29
214.438s | tick 222330 | track 1 | ch 1 | Note On B4 (71) vel 39
214.438s | tick 222330 | track 1 | ch 1 | Note On B5 (83) vel 30
214.624s | tick 222522 | track 1 | ch 1 | Note Off G5 (79) vel 0
214.624s | tick 222522 | track 1 | ch 1 | Note Off G4 (67) vel 0
214.624s | tick 222522 | track 1 | ch 1 | Note On E2 (40) vel 35
214.624s | tick 222522 | track 1 | ch 1 | Note On G4 (67) vel 39
214.624s | tick 222522 | track 1 | ch 1 | Note On G5 (79) vel 30
214.809s | tick 222714 | track 1 | ch 1 | Note Off E5 (76) vel 0
214.809s | tick 222714 | track 1 | ch 1 | Note Off E4 (64) vel 0
214.809s | tick 222714 | track 1 | ch 1 | Note Off F1 (29) vel 0
214.809s | tick 222714 | track 1 | ch 1 | Note Off E2 (40) vel 0
214.809s | tick 222714 | track 1 | ch 1 | Note On F1 (29) vel 29
214.809s | tick 222714 | track 1 | ch 1 | Note On E4 (64) vel 39
214.809s | tick 222714 | track 1 | ch 1 | Note On E5 (76) vel 30
214.994s | tick 222906 | track 1 | ch 1 | Note Off B5 (83) vel 0
214.994s | tick 222906 | track 1 | ch 1 | Note Off B4 (71) vel 0
214.994s | tick 222906 | track 1 | ch 1 | Note Off G4 (67) vel 0
214.994s | tick 222906 | track 1 | ch 1 | Note Off G3 (55) vel 0
214.994s | tick 222906 | track 1 | ch 1 | Note On B3 (59) vel 25
214.994s | tick 222906 | track 1 | ch 1 | Note On B4 (71) vel 36
214.994s | tick 222906 | track 1 | ch 1 | Note On E2 (40) vel 35
214.994s | tick 222906 | track 1 | ch 1 | Note On B4 (71) vel 39
214.994s | tick 222906 | track 1 | ch 1 | Note On B5 (83) vel 30
215.179s | tick 223098 | track 1 | ch 1 | Note Off G5 (79) vel 0
215.179s | tick 223098 | track 1 | ch 1 | Note Off G4 (67) vel 0
215.179s | tick 223098 | track 1 | ch 1 | Note Off F1 (29) vel 0
215.179s | tick 223098 | track 1 | ch 1 | Note Off E2 (40) vel 0
215.179s | tick 223098 | track 1 | ch 1 | Note On F1 (29) vel 29
215.179s | tick 223098 | track 1 | ch 1 | Note On G4 (67) vel 39
215.179s | tick 223098 | track 1 | ch 1 | Note On G5 (79) vel 30
215.364s | tick 223290 | track 1 | ch 1 | Note Off B5 (83) vel 0
215.364s | tick 223290 | track 1 | ch 1 | Note Off B4 (71) vel 0
215.364s | tick 223290 | track 1 | ch 1 | Note On E2 (40) vel 35
215.364s | tick 223290 | track 1 | ch 1 | Note On B4 (71) vel 39
215.364s | tick 223290 | track 1 | ch 1 | Note On B5 (83) vel 30
215.550s | tick 223482 | track 1 | ch 1 | Note Off C6 (84) vel 0
215.550s | tick 223482 | track 1 | ch 1 | Note Off C5 (72) vel 0
215.550s | tick 223482 | track 1 | ch 1 | Note Off F1 (29) vel 0
215.550s | tick 223482 | track 1 | ch 1 | Note Off E2 (40) vel 0
215.550s | tick 223482 | track 1 | ch 1 | Note Off B4 (71) vel 0
215.550s | tick 223482 | track 1 | ch 1 | Note Off B3 (59) vel 0
215.550s | tick 223482 | track 1 | ch 1 | Note On E4 (64) vel 25
215.550s | tick 223482 | track 1 | ch 1 | Note On E5 (76) vel 36
215.550s | tick 223482 | track 1 | ch 1 | Note On F1 (29) vel 29
215.550s | tick 223482 | track 1 | ch 1 | Note On C5 (72) vel 39
215.550s | tick 223482 | track 1 | ch 1 | Note On C6 (84) vel 30
215.735s | tick 223674 | track 1 | ch 1 | Note Off E4 (64) vel 0
215.735s | tick 223674 | track 1 | ch 1 | Note On E2 (40) vel 35
215.735s | tick 223674 | track 1 | ch 1 | Note On E4 (64) vel 39
215.920s | tick 223866 | track 1 | ch 1 | Note Off B5 (83) vel 0
215.920s | tick 223866 | track 1 | ch 1 | Note Off B4 (71) vel 0
215.920s | tick 223866 | track 1 | ch 1 | Note Off F1 (29) vel 0
215.920s | tick 223866 | track 1 | ch 1 | Note Off E2 (40) vel 0
215.920s | tick 223866 | track 1 | ch 1 | Note Off E5 (76) vel 0
215.920s | tick 223866 | track 1 | ch 1 | Note Off E4 (64) vel 0
215.920s | tick 223866 | track 1 | ch 1 | Note On F#4 (66) vel 25
215.920s | tick 223866 | track 1 | ch 1 | Note On F#5 (78) vel 36
215.920s | tick 223866 | track 1 | ch 1 | Note On F1 (29) vel 29
215.920s | tick 223866 | track 1 | ch 1 | Note On B4 (71) vel 39
215.920s | tick 223866 | track 1 | ch 1 | Note On B5 (83) vel 30
216.105s | tick 224058 | track 1 | ch 1 | Note Off E5 (76) vel 0
216.105s | tick 224058 | track 1 | ch 1 | Note Off E4 (64) vel 0
216.105s | tick 224058 | track 1 | ch 1 | Note On E2 (40) vel 35
216.105s | tick 224058 | track 1 | ch 1 | Note On E4 (64) vel 39
216.105s | tick 224058 | track 1 | ch 1 | Note On E5 (76) vel 30
216.290s | tick 224250 | track 1 | ch 1 | Note Off G5 (79) vel 0
216.290s | tick 224250 | track 1 | ch 1 | Note Off G4 (67) vel 0
216.290s | tick 224250 | track 1 | ch 1 | Note Off C#1 (25) vel 0
216.290s | tick 224250 | track 1 | ch 1 | Note Off E2 (40) vel 0
216.290s | tick 224250 | track 1 | ch 1 | Note Off F#5 (78) vel 0
216.290s | tick 224250 | track 1 | ch 1 | Note Off F#4 (66) vel 0
216.290s | tick 224250 | track 1 | ch 1 | Note Off B4 (71) vel 0
216.290s | tick 224250 | track 1 | ch 1 | Note Off E5 (76) vel 0
216.290s | tick 224250 | track 1 | ch 1 | Note Off G5 (79) vel 0
216.290s | tick 224250 | track 1 | ch 1 | Note On G4 (67) vel 25
216.290s | tick 224250 | track 1 | ch 1 | Note On G5 (79) vel 36
216.290s | tick 224250 | track 1 | ch 1 | Note On C#1 (25) vel 29
216.290s | tick 224250 | track 1 | ch 1 | Note On G5 (79) vel 22
216.290s | tick 224250 | track 1 | ch 1 | Note On E5 (76) vel 30
216.290s | tick 224250 | track 1 | ch 1 | Note On C5 (72) vel 30
216.290s | tick 224250 | track 1 | ch 1 | Note On G4 (67) vel 39
216.290s | tick 224250 | track 1 | ch 1 | Note On G5 (79) vel 30
216.475s | tick 224442 | track 1 | ch 1 | Note Off E5 (76) vel 0
216.475s | tick 224442 | track 1 | ch 1 | Note Off E4 (64) vel 0
216.475s | tick 224442 | track 1 | ch 1 | Note On C2 (36) vel 35
216.475s | tick 224442 | track 1 | ch 1 | Note On E4 (64) vel 39
216.475s | tick 224442 | track 1 | ch 1 | Note On E5 (76) vel 30
216.661s | tick 224634 | track 1 | ch 1 | Note Off C5 (72) vel 0
216.661s | tick 224634 | track 1 | ch 1 | Note Off C4 (60) vel 0
216.661s | tick 224634 | track 1 | ch 1 | Note Off C#1 (25) vel 0
216.661s | tick 224634 | track 1 | ch 1 | Note Off C2 (36) vel 0
216.661s | tick 224634 | track 1 | ch 1 | Note On C#1 (25) vel 29
216.661s | tick 224634 | track 1 | ch 1 | Note On C4 (60) vel 39
216.661s | tick 224634 | track 1 | ch 1 | Note On C5 (72) vel 30
216.846s | tick 224826 | track 1 | ch 1 | Note Off G5 (79) vel 0
216.846s | tick 224826 | track 1 | ch 1 | Note Off G4 (67) vel 0
216.846s | tick 224826 | track 1 | ch 1 | Note Off G5 (79) vel 0
216.846s | tick 224826 | track 1 | ch 1 | Note Off G4 (67) vel 0
216.846s | tick 224826 | track 1 | ch 1 | Note On B4 (71) vel 25
216.846s | tick 224826 | track 1 | ch 1 | Note On B5 (83) vel 36
216.846s | tick 224826 | track 1 | ch 1 | Note On C2 (36) vel 35
216.846s | tick 224826 | track 1 | ch 1 | Note On G4 (67) vel 39
216.846s | tick 224826 | track 1 | ch 1 | Note On G5 (79) vel 30
217.031s | tick 225018 | track 1 | ch 1 | Note Off E5 (76) vel 0
217.031s | tick 225018 | track 1 | ch 1 | Note Off E4 (64) vel 0
217.031s | tick 225018 | track 1 | ch 1 | Note Off C#1 (25) vel 0
217.031s | tick 225018 | track 1 | ch 1 | Note Off C2 (36) vel 0
217.031s | tick 225018 | track 1 | ch 1 | Note On C#1 (25) vel 29
217.031s | tick 225018 | track 1 | ch 1 | Note On E4 (64) vel 39
217.031s | tick 225018 | track 1 | ch 1 | Note On E5 (76) vel 30
217.216s | tick 225210 | track 1 | ch 1 | Note Off C5 (72) vel 0
217.216s | tick 225210 | track 1 | ch 1 | Note Off C4 (60) vel 0
217.216s | tick 225210 | track 1 | ch 1 | Note On C2 (36) vel 35
217.216s | tick 225210 | track 1 | ch 1 | Note On C4 (60) vel 39
217.216s | tick 225210 | track 1 | ch 1 | Note On C5 (72) vel 30
217.401s | tick 225402 | track 1 | ch 1 | Note Off A5 (81) vel 0
217.401s | tick 225402 | track 1 | ch 1 | Note Off A4 (69) vel 0
217.401s | tick 225402 | track 1 | ch 1 | Note Off D#1 (27) vel 0
217.401s | tick 225402 | track 1 | ch 1 | Note Off C2 (36) vel 0
217.401s | tick 225402 | track 1 | ch 1 | Note Off B5 (83) vel 0
217.401s | tick 225402 | track 1 | ch 1 | Note Off B4 (71) vel 0
217.401s | tick 225402 | track 1 | ch 1 | Note Off C5 (72) vel 0
217.401s | tick 225402 | track 1 | ch 1 | Note Off E5 (76) vel 0
217.401s | tick 225402 | track 1 | ch 1 | Note Off G5 (79) vel 0
217.401s | tick 225402 | track 1 | ch 1 | Note On A4 (69) vel 25
217.401s | tick 225402 | track 1 | ch 1 | Note On A5 (81) vel 36
217.401s | tick 225402 | track 1 | ch 1 | Note On D#1 (27) vel 29
217.401s | tick 225402 | track 1 | ch 1 | Note On A4 (69) vel 22
217.401s | tick 225402 | track 1 | ch 1 | Note On F#5 (78) vel 30
217.401s | tick 225402 | track 1 | ch 1 | Note On D5 (74) vel 30
217.401s | tick 225402 | track 1 | ch 1 | Note On A4 (69) vel 39
217.401s | tick 225402 | track 1 | ch 1 | Note On A5 (81) vel 30
217.587s | tick 225594 | track 1 | ch 1 | Note Off F#5 (78) vel 0
217.587s | tick 225594 | track 1 | ch 1 | Note Off F#4 (66) vel 0
217.587s | tick 225594 | track 1 | ch 1 | Note On D2 (38) vel 35
217.587s | tick 225594 | track 1 | ch 1 | Note On F#4 (66) vel 39
217.587s | tick 225594 | track 1 | ch 1 | Note On F#5 (78) vel 30
217.772s | tick 225786 | track 1 | ch 1 | Note Off D5 (74) vel 0
217.772s | tick 225786 | track 1 | ch 1 | Note Off D4 (62) vel 0
217.772s | tick 225786 | track 1 | ch 1 | Note Off D#1 (27) vel 0
217.772s | tick 225786 | track 1 | ch 1 | Note Off D2 (38) vel 0
217.772s | tick 225786 | track 1 | ch 1 | Note On D#1 (27) vel 29
217.772s | tick 225786 | track 1 | ch 1 | Note On D4 (62) vel 39
217.772s | tick 225786 | track 1 | ch 1 | Note On D5 (74) vel 30
217.957s | tick 225978 | track 1 | ch 1 | Note Off A5 (81) vel 0
217.957s | tick 225978 | track 1 | ch 1 | Note Off A4 (69) vel 0
217.957s | tick 225978 | track 1 | ch 1 | Note Off A5 (81) vel 0
217.957s | tick 225978 | track 1 | ch 1 | Note Off A4 (69) vel 0
217.957s | tick 225978 | track 1 | ch 1 | Note On G4 (67) vel 25
217.957s | tick 225978 | track 1 | ch 1 | Note On G5 (79) vel 36
217.957s | tick 225978 | track 1 | ch 1 | Note On D2 (38) vel 35
217.957s | tick 225978 | track 1 | ch 1 | Note On A4 (69) vel 39
217.957s | tick 225978 | track 1 | ch 1 | Note On A5 (81) vel 30
218.142s | tick 226170 | track 1 | ch 1 | Note Off D5 (74) vel 0
218.142s | tick 226170 | track 1 | ch 1 | Note Off D4 (62) vel 0
218.142s | tick 226170 | track 1 | ch 1 | Note Off D#1 (27) vel 0
218.142s | tick 226170 | track 1 | ch 1 | Note Off D2 (38) vel 0
218.142s | tick 226170 | track 1 | ch 1 | Note On D#1 (27) vel 29
218.142s | tick 226170 | track 1 | ch 1 | Note On D4 (62) vel 39
218.142s | tick 226170 | track 1 | ch 1 | Note On D5 (74) vel 30
218.327s | tick 226362 | track 1 | ch 1 | Note Off A5 (81) vel 0
218.327s | tick 226362 | track 1 | ch 1 | Note Off A4 (69) vel 0
218.327s | tick 226362 | track 1 | ch 1 | Note On D2 (38) vel 35
218.327s | tick 226362 | track 1 | ch 1 | Note On A4 (69) vel 39
218.327s | tick 226362 | track 1 | ch 1 | Note On A5 (81) vel 30
218.513s | tick 226554 | track 1 | ch 1 | Note Off D#1 (27) vel 0
218.513s | tick 226554 | track 1 | ch 1 | Note Off D2 (38) vel 0
218.513s | tick 226554 | track 1 | ch 1 | Note Off G5 (79) vel 0
218.513s | tick 226554 | track 1 | ch 1 | Note Off G4 (67) vel 0
218.513s | tick 226554 | track 1 | ch 1 | Note On F#4 (66) vel 25
218.513s | tick 226554 | track 1 | ch 1 | Note On F#5 (78) vel 36
218.513s | tick 226554 | track 1 | ch 1 | Note On D#1 (27) vel 29
218.513s | tick 226554 | track 1 | ch 1 | Note On C5 (72) vel 44
218.513s | tick 226554 | track 1 | ch 1 | Note On C6 (84) vel 28
218.605s | tick 226650 | track 1 | ch 1 | Note Off C6 (84) vel 0
218.605s | tick 226650 | track 1 | ch 1 | Note Off C5 (72) vel 0
218.698s | tick 226746 | track 1 | ch 1 | Note On D2 (38) vel 35
218.883s | tick 226938 | track 1 | ch 1 | Note Off D#1 (27) vel 0
218.883s | tick 226938 | track 1 | ch 1 | Note Off D2 (38) vel 0
218.883s | tick 226938 | track 1 | ch 1 | Note Off F#5 (78) vel 0
218.883s | tick 226938 | track 1 | ch 1 | Note Off F#4 (66) vel 0
218.883s | tick 226938 | track 1 | ch 1 | Note On G5 (79) vel 36
218.883s | tick 226938 | track 1 | ch 1 | Note On G4 (67) vel 25
218.883s | tick 226938 | track 1 | ch 1 | Note On D#1 (27) vel 29
218.883s | tick 226938 | track 1 | ch 1 | Note On B4 (71) vel 44
218.883s | tick 226938 | track 1 | ch 1 | Note On B4 (71) vel 44
218.883s | tick 226938 | track 1 | ch 1 | Note On B5 (83) vel 28
218.975s | tick 227034 | track 1 | ch 1 | Note Off B5 (83) vel 0
218.975s | tick 227034 | track 1 | ch 1 | Note Off B4 (71) vel 0
218.975s | tick 227034 | track 1 | ch 1 | Note Off B4 (71) vel 0
219.068s | tick 227130 | track 1 | ch 1 | Note On D2 (38) vel 35
219.253s | tick 227322 | track 1 | ch 1 | Note Off B5 (83) vel 0
219.253s | tick 227322 | track 1 | ch 1 | Note Off B4 (71) vel 0
219.253s | tick 227322 | track 1 | ch 1 | Note Off F1 (29) vel 0
219.253s | tick 227322 | track 1 | ch 1 | Note Off D2 (38) vel 0
219.253s | tick 227322 | track 1 | ch 1 | Note Off G4 (67) vel 0
219.253s | tick 227322 | track 1 | ch 1 | Note Off G5 (79) vel 0
219.253s | tick 227322 | track 1 | ch 1 | Note Off D5 (74) vel 0
219.253s | tick 227322 | track 1 | ch 1 | Note Off F#5 (78) vel 0
219.253s | tick 227322 | track 1 | ch 1 | Note Off A4 (69) vel 0
219.253s | tick 227322 | track 1 | ch 1 | Note On E5 (76) vel 35
219.253s | tick 227322 | track 1 | ch 1 | Note On E4 (64) vel 27
219.253s | tick 227322 | track 1 | ch 1 | Note On F1 (29) vel 29
219.253s | tick 227322 | track 1 | ch 1 | Note On B4 (71) vel 30
219.253s | tick 227322 | track 1 | ch 1 | Note On E5 (76) vel 22
219.253s | tick 227322 | track 1 | ch 1 | Note On G5 (79) vel 30
219.253s | tick 227322 | track 1 | ch 1 | Note On B4 (71) vel 39
219.253s | tick 227322 | track 1 | ch 1 | Note On B5 (83) vel 30
219.438s | tick 227514 | track 1 | ch 1 | Note Off G5 (79) vel 0
219.438s | tick 227514 | track 1 | ch 1 | Note Off G4 (67) vel 0
219.438s | tick 227514 | track 1 | ch 1 | Note On E2 (40) vel 35
219.438s | tick 227514 | track 1 | ch 1 | Note On G4 (67) vel 39
219.438s | tick 227514 | track 1 | ch 1 | Note On G5 (79) vel 30
219.624s | tick 227706 | track 1 | ch 1 | Note Off E5 (76) vel 0
219.624s | tick 227706 | track 1 | ch 1 | Note Off E4 (64) vel 0
219.624s | tick 227706 | track 1 | ch 1 | Note Off F1 (29) vel 0
219.624s | tick 227706 | track 1 | ch 1 | Note Off E2 (40) vel 0
219.624s | tick 227706 | track 1 | ch 1 | Note On F1 (29) vel 29
219.624s | tick 227706 | track 1 | ch 1 | Note On E4 (64) vel 39
219.624s | tick 227706 | track 1 | ch 1 | Note On E5 (76) vel 30
219.809s | tick 227898 | track 1 | ch 1 | Note Off B5 (83) vel 0
219.809s | tick 227898 | track 1 | ch 1 | Note Off B4 (71) vel 0
219.809s | tick 227898 | track 1 | ch 1 | Note Off E4 (64) vel 0
219.809s | tick 227898 | track 1 | ch 1 | Note Off E5 (76) vel 0
219.809s | tick 227898 | track 1 | ch 1 | Note On E3 (52) vel 20
219.809s | tick 227898 | track 1 | ch 1 | Note On E4 (64) vel 35
219.809s | tick 227898 | track 1 | ch 1 | Note On E2 (40) vel 35
219.809s | tick 227898 | track 1 | ch 1 | Note On B4 (71) vel 39
219.809s | tick 227898 | track 1 | ch 1 | Note On B5 (83) vel 30
219.994s | tick 228090 | track 1 | ch 1 | Note Off G5 (79) vel 0
219.994s | tick 228090 | track 1 | ch 1 | Note Off G4 (67) vel 0
219.994s | tick 228090 | track 1 | ch 1 | Note Off F1 (29) vel 0
219.994s | tick 228090 | track 1 | ch 1 | Note Off E2 (40) vel 0
219.994s | tick 228090 | track 1 | ch 1 | Note On F1 (29) vel 29
219.994s | tick 228090 | track 1 | ch 1 | Note On G4 (67) vel 39
219.994s | tick 228090 | track 1 | ch 1 | Note On G5 (79) vel 30
220.179s | tick 228282 | track 1 | ch 1 | Note Off E5 (76) vel 0
220.179s | tick 228282 | track 1 | ch 1 | Note Off E4 (64) vel 0
220.179s | tick 228282 | track 1 | ch 1 | Note On E2 (40) vel 35
220.179s | tick 228282 | track 1 | ch 1 | Note On E4 (64) vel 39
220.179s | tick 228282 | track 1 | ch 1 | Note On E5 (76) vel 30
220.364s | tick 228474 | track 1 | ch 1 | Note Off B5 (83) vel 0
220.364s | tick 228474 | track 1 | ch 1 | Note Off B4 (71) vel 0
220.364s | tick 228474 | track 1 | ch 1 | Note Off F1 (29) vel 0
220.364s | tick 228474 | track 1 | ch 1 | Note Off E2 (40) vel 0
220.364s | tick 228474 | track 1 | ch 1 | Note Off E4 (64) vel 0
220.364s | tick 228474 | track 1 | ch 1 | Note Off E3 (52) vel 0
220.364s | tick 228474 | track 1 | ch 1 | Note On G3 (55) vel 27
220.364s | tick 228474 | track 1 | ch 1 | Note On G4 (67) vel 38
220.364s | tick 228474 | track 1 | ch 1 | Note On F1 (29) vel 29
220.364s | tick 228474 | track 1 | ch 1 | Note On B4 (71) vel 39
220.364s | tick 228474 | track 1 | ch 1 | Note On B5 (83) vel 30
220.550s | tick 228666 | track 1 | ch 1 | Note Off G5 (79) vel 0
220.550s | tick 228666 | track 1 | ch 1 | Note Off G4 (67) vel 0
220.550s | tick 228666 | track 1 | ch 1 | Note On E2 (40) vel 35
220.550s | tick 228666 | track 1 | ch 1 | Note On G4 (67) vel 39
220.550s | tick 228666 | track 1 | ch 1 | Note On G5 (79) vel 30
220.735s | tick 228858 | track 1 | ch 1 | Note Off E5 (76) vel 0
220.735s | tick 228858 | track 1 | ch 1 | Note Off E4 (64) vel 0
220.735s | tick 228858 | track 1 | ch 1 | Note Off F1 (29) vel 0
220.735s | tick 228858 | track 1 | ch 1 | Note Off E2 (40) vel 0
220.735s | tick 228858 | track 1 | ch 1 | Note On F1 (29) vel 29
220.735s | tick 228858 | track 1 | ch 1 | Note On E4 (64) vel 39
220.735s | tick 228858 | track 1 | ch 1 | Note On E5 (76) vel 30
220.920s | tick 229050 | track 1 | ch 1 | Note Off B5 (83) vel 0
220.920s | tick 229050 | track 1 | ch 1 | Note Off B4 (71) vel 0
220.920s | tick 229050 | track 1 | ch 1 | Note Off G4 (67) vel 0
220.920s | tick 229050 | track 1 | ch 1 | Note Off G3 (55) vel 0
220.920s | tick 229050 | track 1 | ch 1 | Note On B3 (59) vel 25
220.920s | tick 229050 | track 1 | ch 1 | Note On B4 (71) vel 33
220.920s | tick 229050 | track 1 | ch 1 | Note On E2 (40) vel 35
220.920s | tick 229050 | track 1 | ch 1 | Note On B4 (71) vel 39
220.920s | tick 229050 | track 1 | ch 1 | Note On B5 (83) vel 30
221.105s | tick 229242 | track 1 | ch 1 | Note Off G5 (79) vel 0
221.105s | tick 229242 | track 1 | ch 1 | Note Off G4 (67) vel 0
221.105s | tick 229242 | track 1 | ch 1 | Note Off F1 (29) vel 0
221.105s | tick 229242 | track 1 | ch 1 | Note Off E2 (40) vel 0
221.105s | tick 229242 | track 1 | ch 1 | Note On F1 (29) vel 29
221.105s | tick 229242 | track 1 | ch 1 | Note On G4 (67) vel 39
221.105s | tick 229242 | track 1 | ch 1 | Note On G5 (79) vel 30
221.290s | tick 229434 | track 1 | ch 1 | Note Off B5 (83) vel 0
221.290s | tick 229434 | track 1 | ch 1 | Note Off B4 (71) vel 0
221.290s | tick 229434 | track 1 | ch 1 | Note On E2 (40) vel 35
221.290s | tick 229434 | track 1 | ch 1 | Note On B4 (71) vel 39
221.290s | tick 229434 | track 1 | ch 1 | Note On B5 (83) vel 30
221.475s | tick 229626 | track 1 | ch 1 | Note Off C6 (84) vel 0
221.475s | tick 229626 | track 1 | ch 1 | Note Off C5 (72) vel 0
221.475s | tick 229626 | track 1 | ch 1 | Note Off F1 (29) vel 0
221.475s | tick 229626 | track 1 | ch 1 | Note Off E2 (40) vel 0
221.475s | tick 229626 | track 1 | ch 1 | Note Off B4 (71) vel 0
221.475s | tick 229626 | track 1 | ch 1 | Note Off B3 (59) vel 0
221.475s | tick 229626 | track 1 | ch 1 | Note On E4 (64) vel 25
221.475s | tick 229626 | track 1 | ch 1 | Note On E5 (76) vel 36
221.475s | tick 229626 | track 1 | ch 1 | Note On F1 (29) vel 29
221.475s | tick 229626 | track 1 | ch 1 | Note On C5 (72) vel 39
221.475s | tick 229626 | track 1 | ch 1 | Note On C6 (84) vel 30
221.661s | tick 229818 | track 1 | ch 1 | Note On E2 (40) vel 35
221.661s | tick 229818 | track 1 | ch 1 | Note On E4 (64) vel 39
221.753s | tick 229914 | track 1 | ch 1 | Note Off E4 (64) vel 0
221.846s | tick 230010 | track 1 | ch 1 | Note Off B5 (83) vel 0
221.846s | tick 230010 | track 1 | ch 1 | Note Off B4 (71) vel 0
221.846s | tick 230010 | track 1 | ch 1 | Note Off F1 (29) vel 0
221.846s | tick 230010 | track 1 | ch 1 | Note Off E2 (40) vel 0
221.846s | tick 230010 | track 1 | ch 1 | Note Off E5 (76) vel 0
221.846s | tick 230010 | track 1 | ch 1 | Note Off E4 (64) vel 0
221.846s | tick 230010 | track 1 | ch 1 | Note On F#4 (66) vel 25
221.846s | tick 230010 | track 1 | ch 1 | Note On F#5 (78) vel 36
221.846s | tick 230010 | track 1 | ch 1 | Note On F1 (29) vel 29
221.846s | tick 230010 | track 1 | ch 1 | Note On B4 (71) vel 39
221.846s | tick 230010 | track 1 | ch 1 | Note On B5 (83) vel 30
222.031s | tick 230202 | track 1 | ch 1 | Note Off E5 (76) vel 0
222.031s | tick 230202 | track 1 | ch 1 | Note Off E4 (64) vel 0
222.031s | tick 230202 | track 1 | ch 1 | Note On E2 (40) vel 35
222.031s | tick 230202 | track 1 | ch 1 | Note On E4 (64) vel 39
222.031s | tick 230202 | track 1 | ch 1 | Note On E5 (76) vel 30
222.216s | tick 230394 | track 1 | ch 1 | Note Off G5 (79) vel 0
222.216s | tick 230394 | track 1 | ch 1 | Note Off G4 (67) vel 0
222.216s | tick 230394 | track 1 | ch 1 | Note Off C#1 (25) vel 0
222.216s | tick 230394 | track 1 | ch 1 | Note Off E2 (40) vel 0
222.216s | tick 230394 | track 1 | ch 1 | Note Off F#5 (78) vel 0
222.216s | tick 230394 | track 1 | ch 1 | Note Off F#4 (66) vel 0
222.216s | tick 230394 | track 1 | ch 1 | Note Off G5 (79) vel 0
222.216s | tick 230394 | track 1 | ch 1 | Note Off E5 (76) vel 0
222.216s | tick 230394 | track 1 | ch 1 | Note Off B4 (71) vel 0
222.216s | tick 230394 | track 1 | ch 1 | Note On G4 (67) vel 25
222.216s | tick 230394 | track 1 | ch 1 | Note On G5 (79) vel 36
222.216s | tick 230394 | track 1 | ch 1 | Note On C#1 (25) vel 29
222.216s | tick 230394 | track 1 | ch 1 | Note On G5 (79) vel 22
222.216s | tick 230394 | track 1 | ch 1 | Note On E5 (76) vel 30
222.216s | tick 230394 | track 1 | ch 1 | Note On C5 (72) vel 30
222.216s | tick 230394 | track 1 | ch 1 | Note On G4 (67) vel 39
222.216s | tick 230394 | track 1 | ch 1 | Note On G5 (79) vel 30
222.401s | tick 230586 | track 1 | ch 1 | Note Off E5 (76) vel 0
222.401s | tick 230586 | track 1 | ch 1 | Note Off E4 (64) vel 0
222.401s | tick 230586 | track 1 | ch 1 | Note On C2 (36) vel 35
222.401s | tick 230586 | track 1 | ch 1 | Note On E4 (64) vel 39
222.401s | tick 230586 | track 1 | ch 1 | Note On E5 (76) vel 30
222.587s | tick 230778 | track 1 | ch 1 | Note Off C5 (72) vel 0
222.587s | tick 230778 | track 1 | ch 1 | Note Off C4 (60) vel 0
222.587s | tick 230778 | track 1 | ch 1 | Note Off C#1 (25) vel 0
222.587s | tick 230778 | track 1 | ch 1 | Note Off C2 (36) vel 0
222.587s | tick 230778 | track 1 | ch 1 | Note On C#1 (25) vel 29
222.587s | tick 230778 | track 1 | ch 1 | Note On C4 (60) vel 39
222.587s | tick 230778 | track 1 | ch 1 | Note On C5 (72) vel 30
222.772s | tick 230970 | track 1 | ch 1 | Note Off G5 (79) vel 0
222.772s | tick 230970 | track 1 | ch 1 | Note Off G4 (67) vel 0
222.772s | tick 230970 | track 1 | ch 1 | Note Off G5 (79) vel 0
222.772s | tick 230970 | track 1 | ch 1 | Note Off G4 (67) vel 0
222.772s | tick 230970 | track 1 | ch 1 | Note On F#4 (66) vel 25
222.772s | tick 230970 | track 1 | ch 1 | Note On F#5 (78) vel 36
222.772s | tick 230970 | track 1 | ch 1 | Note On C2 (36) vel 35
222.772s | tick 230970 | track 1 | ch 1 | Note On C6 (84) vel 22
222.772s | tick 230970 | track 1 | ch 1 | Note On G4 (67) vel 39
222.772s | tick 230970 | track 1 | ch 1 | Note On G5 (79) vel 30
222.957s | tick 231162 | track 1 | ch 1 | Note Off E5 (76) vel 0
222.957s | tick 231162 | track 1 | ch 1 | Note Off E4 (64) vel 0
222.957s | tick 231162 | track 1 | ch 1 | Note Off C#1 (25) vel 0
222.957s | tick 231162 | track 1 | ch 1 | Note Off C2 (36) vel 0
222.957s | tick 231162 | track 1 | ch 1 | Note On C#1 (25) vel 29
222.957s | tick 231162 | track 1 | ch 1 | Note On E4 (64) vel 39
222.957s | tick 231162 | track 1 | ch 1 | Note On E5 (76) vel 30
223.142s | tick 231354 | track 1 | ch 1 | Note Off C5 (72) vel 0
223.142s | tick 231354 | track 1 | ch 1 | Note Off C4 (60) vel 0
223.142s | tick 231354 | track 1 | ch 1 | Note On C2 (36) vel 35
223.142s | tick 231354 | track 1 | ch 1 | Note On C4 (60) vel 39
223.142s | tick 231354 | track 1 | ch 1 | Note On C5 (72) vel 30
223.327s | tick 231546 | track 1 | ch 1 | Note Off A5 (81) vel 0
223.327s | tick 231546 | track 1 | ch 1 | Note Off A4 (69) vel 0
223.327s | tick 231546 | track 1 | ch 1 | Note Off D#1 (27) vel 0
223.327s | tick 231546 | track 1 | ch 1 | Note Off C2 (36) vel 0
223.327s | tick 231546 | track 1 | ch 1 | Note Off C6 (84) vel 0
223.327s | tick 231546 | track 1 | ch 1 | Note Off F#5 (78) vel 0
223.327s | tick 231546 | track 1 | ch 1 | Note Off F#4 (66) vel 0
223.327s | tick 231546 | track 1 | ch 1 | Note Off C5 (72) vel 0
223.327s | tick 231546 | track 1 | ch 1 | Note Off E5 (76) vel 0
223.327s | tick 231546 | track 1 | ch 1 | Note Off G5 (79) vel 0
223.327s | tick 231546 | track 1 | ch 1 | Note On D4 (62) vel 25
223.327s | tick 231546 | track 1 | ch 1 | Note On D5 (74) vel 36
223.327s | tick 231546 | track 1 | ch 1 | Note On D#1 (27) vel 29
223.327s | tick 231546 | track 1 | ch 1 | Note On A5 (81) vel 30
223.327s | tick 231546 | track 1 | ch 1 | Note On D6 (86) vel 22
223.327s | tick 231546 | track 1 | ch 1 | Note On D5 (74) vel 22
223.327s | tick 231546 | track 1 | ch 1 | Note On F#5 (78) vel 30
223.327s | tick 231546 | track 1 | ch 1 | Note On A4 (69) vel 39
223.327s | tick 231546 | track 1 | ch 1 | Note On A5 (81) vel 30
223.513s | tick 231738 | track 1 | ch 1 | Note Off F#5 (78) vel 0
223.513s | tick 231738 | track 1 | ch 1 | Note Off F#4 (66) vel 0
223.513s | tick 231738 | track 1 | ch 1 | Note On D2 (38) vel 35
223.513s | tick 231738 | track 1 | ch 1 | Note On F#4 (66) vel 39
223.513s | tick 231738 | track 1 | ch 1 | Note On F#5 (78) vel 30
223.698s | tick 231930 | track 1 | ch 1 | Note Off D5 (74) vel 0
223.698s | tick 231930 | track 1 | ch 1 | Note Off D4 (62) vel 0
223.698s | tick 231930 | track 1 | ch 1 | Note Off D#1 (27) vel 0
223.698s | tick 231930 | track 1 | ch 1 | Note Off D2 (38) vel 0
223.698s | tick 231930 | track 1 | ch 1 | Note On D#1 (27) vel 29
223.698s | tick 231930 | track 1 | ch 1 | Note On D4 (62) vel 39
223.698s | tick 231930 | track 1 | ch 1 | Note On D5 (74) vel 30
223.883s | tick 232122 | track 1 | ch 1 | Note Off A5 (81) vel 0
223.883s | tick 232122 | track 1 | ch 1 | Note Off A4 (69) vel 0
223.883s | tick 232122 | track 1 | ch 1 | Note Off D5 (74) vel 0
223.883s | tick 232122 | track 1 | ch 1 | Note Off D4 (62) vel 0
223.883s | tick 232122 | track 1 | ch 1 | Note On A3 (57) vel 25
223.883s | tick 232122 | track 1 | ch 1 | Note On A4 (69) vel 31
223.883s | tick 232122 | track 1 | ch 1 | Note On D2 (38) vel 35
223.883s | tick 232122 | track 1 | ch 1 | Note On A4 (69) vel 39
223.883s | tick 232122 | track 1 | ch 1 | Note On A5 (81) vel 30
224.068s | tick 232314 | track 1 | ch 1 | Note Off D5 (74) vel 0
224.068s | tick 232314 | track 1 | ch 1 | Note Off D4 (62) vel 0
224.068s | tick 232314 | track 1 | ch 1 | Note Off D#1 (27) vel 0
224.068s | tick 232314 | track 1 | ch 1 | Note Off D2 (38) vel 0
224.068s | tick 232314 | track 1 | ch 1 | Note On D#1 (27) vel 29
224.068s | tick 232314 | track 1 | ch 1 | Note On D4 (62) vel 39
224.068s | tick 232314 | track 1 | ch 1 | Note On D5 (74) vel 30
224.253s | tick 232506 | track 1 | ch 1 | Note Off A5 (81) vel 0
224.253s | tick 232506 | track 1 | ch 1 | Note Off A4 (69) vel 0
224.253s | tick 232506 | track 1 | ch 1 | Note On D2 (38) vel 35
224.253s | tick 232506 | track 1 | ch 1 | Note On A4 (69) vel 39
224.253s | tick 232506 | track 1 | ch 1 | Note On A5 (81) vel 30
224.438s | tick 232698 | track 1 | ch 1 | Note Off D#1 (27) vel 0
224.438s | tick 232698 | track 1 | ch 1 | Note Off D2 (38) vel 0
224.438s | tick 232698 | track 1 | ch 1 | Note Off A4 (69) vel 0
224.438s | tick 232698 | track 1 | ch 1 | Note Off A3 (57) vel 0
224.438s | tick 232698 | track 1 | ch 1 | Note On G3 (55) vel 25
224.438s | tick 232698 | track 1 | ch 1 | Note On G4 (67) vel 36
224.438s | tick 232698 | track 1 | ch 1 | Note On D#1 (27) vel 29
224.438s | tick 232698 | track 1 | ch 1 | Note On C5 (72) vel 44
224.438s | tick 232698 | track 1 | ch 1 | Note On C6 (84) vel 28
224.531s | tick 232794 | track 1 | ch 1 | Note Off C6 (84) vel 0
224.531s | tick 232794 | track 1 | ch 1 | Note Off C5 (72) vel 0
224.624s | tick 232890 | track 1 | ch 1 | Note On D2 (38) vel 35
224.809s | tick 233082 | track 1 | ch 1 | Note Off D#1 (27) vel 0
224.809s | tick 233082 | track 1 | ch 1 | Note Off D2 (38) vel 0
224.809s | tick 233082 | track 1 | ch 1 | Note Off G4 (67) vel 0
224.809s | tick 233082 | track 1 | ch 1 | Note Off G3 (55) vel 0
224.809s | tick 233082 | track 1 | ch 1 | Note On A3 (57) vel 25
224.809s | tick 233082 | track 1 | ch 1 | Note On A4 (69) vel 36
224.809s | tick 233082 | track 1 | ch 1 | Note On D#1 (27) vel 29
224.809s | tick 233082 | track 1 | ch 1 | Note On B4 (71) vel 44
224.809s | tick 233082 | track 1 | ch 1 | Note On B4 (71) vel 44
224.809s | tick 233082 | track 1 | ch 1 | Note On B5 (83) vel 28
224.901s | tick 233178 | track 1 | ch 1 | Note Off B5 (83) vel 0
224.901s | tick 233178 | track 1 | ch 1 | Note Off B4 (71) vel 0
224.901s | tick 233178 | track 1 | ch 1 | Note Off B4 (71) vel 0
224.994s | tick 233274 | track 1 | ch 1 | Note On D2 (38) vel 35
225.179s | tick 233466 | track 1 | ch 1 | Note Off B5 (83) vel 0
225.179s | tick 233466 | track 1 | ch 1 | Note Off B4 (71) vel 0
225.179s | tick 233466 | track 1 | ch 1 | Note Off F1 (29) vel 0
225.179s | tick 233466 | track 1 | ch 1 | Note Off D2 (38) vel 0
225.179s | tick 233466 | track 1 | ch 1 | Note Off A4 (69) vel 0
225.179s | tick 233466 | track 1 | ch 1 | Note Off A3 (57) vel 0
225.179s | tick 233466 | track 1 | ch 1 | Note Off F#5 (78) vel 0
225.179s | tick 233466 | track 1 | ch 1 | Note Off D5 (74) vel 0
225.179s | tick 233466 | track 1 | ch 1 | Note Off D6 (86) vel 0
225.179s | tick 233466 | track 1 | ch 1 | Note Off A5 (81) vel 0
225.179s | tick 233466 | track 1 | ch 1 | Note On B3 (59) vel 22
225.179s | tick 233466 | track 1 | ch 1 | Note On B4 (71) vel 36
225.179s | tick 233466 | track 1 | ch 1 | Note On F1 (29) vel 29
225.179s | tick 233466 | track 1 | ch 1 | Note On G5 (79) vel 30
225.179s | tick 233466 | track 1 | ch 1 | Note On E5 (76) vel 22
225.179s | tick 233466 | track 1 | ch 1 | Note On B4 (71) vel 30
225.179s | tick 233466 | track 1 | ch 1 | Note On B4 (71) vel 39
225.179s | tick 233466 | track 1 | ch 1 | Note On B5 (83) vel 30
225.364s | tick 233658 | track 1 | ch 1 | Note Off G5 (79) vel 0
225.364s | tick 233658 | track 1 | ch 1 | Note Off G4 (67) vel 0
225.364s | tick 233658 | track 1 | ch 1 | Note On E2 (40) vel 35
225.364s | tick 233658 | track 1 | ch 1 | Note On G4 (67) vel 39
225.364s | tick 233658 | track 1 | ch 1 | Note On G5 (79) vel 30
225.550s | tick 233850 | track 1 | ch 1 | Note Off E5 (76) vel 0
225.550s | tick 233850 | track 1 | ch 1 | Note Off E4 (64) vel 0
225.550s | tick 233850 | track 1 | ch 1 | Note Off F1 (29) vel 0
225.550s | tick 233850 | track 1 | ch 1 | Note Off E2 (40) vel 0
225.550s | tick 233850 | track 1 | ch 1 | Note On F1 (29) vel 29
225.550s | tick 233850 | track 1 | ch 1 | Note On E4 (64) vel 39
225.550s | tick 233850 | track 1 | ch 1 | Note On E5 (76) vel 30
225.735s | tick 234042 | track 1 | ch 1 | Note Off B5 (83) vel 0
225.735s | tick 234042 | track 1 | ch 1 | Note Off B4 (71) vel 0
225.735s | tick 234042 | track 1 | ch 1 | Note Off B4 (71) vel 0
225.735s | tick 234042 | track 1 | ch 1 | Note Off B3 (59) vel 0
225.735s | tick 234042 | track 1 | ch 1 | Note On E3 (52) vel 24
225.735s | tick 234042 | track 1 | ch 1 | Note On E4 (64) vel 36
225.735s | tick 234042 | track 1 | ch 1 | Note On E2 (40) vel 35
225.735s | tick 234042 | track 1 | ch 1 | Note On B4 (71) vel 39
225.735s | tick 234042 | track 1 | ch 1 | Note On B5 (83) vel 30
225.920s | tick 234234 | track 1 | ch 1 | Note Off G5 (79) vel 0
225.920s | tick 234234 | track 1 | ch 1 | Note Off G4 (67) vel 0
225.920s | tick 234234 | track 1 | ch 1 | Note Off F1 (29) vel 0
225.920s | tick 234234 | track 1 | ch 1 | Note Off E2 (40) vel 0
225.920s | tick 234234 | track 1 | ch 1 | Note On F1 (29) vel 29
225.920s | tick 234234 | track 1 | ch 1 | Note On G4 (67) vel 39
225.920s | tick 234234 | track 1 | ch 1 | Note On G5 (79) vel 30
226.105s | tick 234426 | track 1 | ch 1 | Note Off E5 (76) vel 0
226.105s | tick 234426 | track 1 | ch 1 | Note Off E4 (64) vel 0
226.105s | tick 234426 | track 1 | ch 1 | Note On E2 (40) vel 35
226.105s | tick 234426 | track 1 | ch 1 | Note On E4 (64) vel 39
226.105s | tick 234426 | track 1 | ch 1 | Note On E5 (76) vel 30
226.290s | tick 234618 | track 1 | ch 1 | Note Off B5 (83) vel 0
226.290s | tick 234618 | track 1 | ch 1 | Note Off B4 (71) vel 0
226.290s | tick 234618 | track 1 | ch 1 | Note Off F1 (29) vel 0
226.290s | tick 234618 | track 1 | ch 1 | Note Off E2 (40) vel 0
226.290s | tick 234618 | track 1 | ch 1 | Note Off E4 (64) vel 0
226.290s | tick 234618 | track 1 | ch 1 | Note Off E3 (52) vel 0
226.290s | tick 234618 | track 1 | ch 1 | Note On G3 (55) vel 25
226.290s | tick 234618 | track 1 | ch 1 | Note On G4 (67) vel 36
226.290s | tick 234618 | track 1 | ch 1 | Note On F1 (29) vel 29
226.290s | tick 234618 | track 1 | ch 1 | Note On B4 (71) vel 39
226.290s | tick 234618 | track 1 | ch 1 | Note On B5 (83) vel 30
226.475s | tick 234810 | track 1 | ch 1 | Note Off G5 (79) vel 0
226.475s | tick 234810 | track 1 | ch 1 | Note Off G4 (67) vel 0
226.475s | tick 234810 | track 1 | ch 1 | Note On E2 (40) vel 35
226.475s | tick 234810 | track 1 | ch 1 | Note On G4 (67) vel 39
226.475s | tick 234810 | track 1 | ch 1 | Note On G5 (79) vel 30
226.661s | tick 235002 | track 1 | ch 1 | Note Off E5 (76) vel 0
226.661s | tick 235002 | track 1 | ch 1 | Note Off E4 (64) vel 0
226.661s | tick 235002 | track 1 | ch 1 | Note Off F1 (29) vel 0
226.661s | tick 235002 | track 1 | ch 1 | Note Off E2 (40) vel 0
226.661s | tick 235002 | track 1 | ch 1 | Note On F1 (29) vel 29
226.661s | tick 235002 | track 1 | ch 1 | Note On E4 (64) vel 39
226.661s | tick 235002 | track 1 | ch 1 | Note On E5 (76) vel 30
226.846s | tick 235194 | track 1 | ch 1 | Note Off B5 (83) vel 0
226.846s | tick 235194 | track 1 | ch 1 | Note Off B4 (71) vel 0
226.846s | tick 235194 | track 1 | ch 1 | Note Off G4 (67) vel 0
226.846s | tick 235194 | track 1 | ch 1 | Note Off G3 (55) vel 0
226.846s | tick 235194 | track 1 | ch 1 | Note On B3 (59) vel 25
226.846s | tick 235194 | track 1 | ch 1 | Note On B4 (71) vel 31
226.846s | tick 235194 | track 1 | ch 1 | Note On E2 (40) vel 35
226.846s | tick 235194 | track 1 | ch 1 | Note On B4 (71) vel 39
226.846s | tick 235194 | track 1 | ch 1 | Note On B5 (83) vel 30
227.031s | tick 235386 | track 1 | ch 1 | Note Off G5 (79) vel 0
227.031s | tick 235386 | track 1 | ch 1 | Note Off G4 (67) vel 0
227.031s | tick 235386 | track 1 | ch 1 | Note Off F1 (29) vel 0
227.031s | tick 235386 | track 1 | ch 1 | Note Off E2 (40) vel 0
227.031s | tick 235386 | track 1 | ch 1 | Note On F1 (29) vel 29
227.031s | tick 235386 | track 1 | ch 1 | Note On G4 (67) vel 39
227.031s | tick 235386 | track 1 | ch 1 | Note On G5 (79) vel 30
227.216s | tick 235578 | track 1 | ch 1 | Note Off B5 (83) vel 0
227.216s | tick 235578 | track 1 | ch 1 | Note Off B4 (71) vel 0
227.216s | tick 235578 | track 1 | ch 1 | Note On E2 (40) vel 35
227.216s | tick 235578 | track 1 | ch 1 | Note On B4 (71) vel 39
227.216s | tick 235578 | track 1 | ch 1 | Note On B5 (83) vel 30
227.401s | tick 235770 | track 1 | ch 1 | Note Off C6 (84) vel 0
227.401s | tick 235770 | track 1 | ch 1 | Note Off C5 (72) vel 0
227.401s | tick 235770 | track 1 | ch 1 | Note Off F1 (29) vel 0
227.401s | tick 235770 | track 1 | ch 1 | Note Off E2 (40) vel 0
227.401s | tick 235770 | track 1 | ch 1 | Note Off B4 (71) vel 0
227.401s | tick 235770 | track 1 | ch 1 | Note Off B3 (59) vel 0
227.401s | tick 235770 | track 1 | ch 1 | Note On E4 (64) vel 25
227.401s | tick 235770 | track 1 | ch 1 | Note On E5 (76) vel 36
227.401s | tick 235770 | track 1 | ch 1 | Note On F1 (29) vel 29
227.401s | tick 235770 | track 1 | ch 1 | Note On C5 (72) vel 39
227.401s | tick 235770 | track 1 | ch 1 | Note On C6 (84) vel 30
227.587s | tick 235962 | track 1 | ch 1 | Note On E2 (40) vel 35
227.772s | tick 236154 | track 1 | ch 1 | Note Off B5 (83) vel 0
227.772s | tick 236154 | track 1 | ch 1 | Note Off B4 (71) vel 0
227.772s | tick 236154 | track 1 | ch 1 | Note Off F1 (29) vel 0
227.772s | tick 236154 | track 1 | ch 1 | Note Off E2 (40) vel 0
227.772s | tick 236154 | track 1 | ch 1 | Note Off E5 (76) vel 0
227.772s | tick 236154 | track 1 | ch 1 | Note Off E4 (64) vel 0
227.772s | tick 236154 | track 1 | ch 1 | Note On F#4 (66) vel 25
227.772s | tick 236154 | track 1 | ch 1 | Note On F#5 (78) vel 36
227.772s | tick 236154 | track 1 | ch 1 | Note On F1 (29) vel 29
227.772s | tick 236154 | track 1 | ch 1 | Note On B4 (71) vel 39
227.772s | tick 236154 | track 1 | ch 1 | Note On B5 (83) vel 30
227.957s | tick 236346 | track 1 | ch 1 | Note Off E5 (76) vel 0
227.957s | tick 236346 | track 1 | ch 1 | Note Off E4 (64) vel 0
227.957s | tick 236346 | track 1 | ch 1 | Note On E2 (40) vel 35
227.957s | tick 236346 | track 1 | ch 1 | Note On E4 (64) vel 39
227.957s | tick 236346 | track 1 | ch 1 | Note On E5 (76) vel 30
228.142s | tick 236538 | track 1 | ch 1 | Note Off G5 (79) vel 0
228.142s | tick 236538 | track 1 | ch 1 | Note Off G4 (67) vel 0
228.142s | tick 236538 | track 1 | ch 1 | Note Off C#1 (25) vel 0
228.142s | tick 236538 | track 1 | ch 1 | Note Off E2 (40) vel 0
228.142s | tick 236538 | track 1 | ch 1 | Note Off F#5 (78) vel 0
228.142s | tick 236538 | track 1 | ch 1 | Note Off F#4 (66) vel 0
228.142s | tick 236538 | track 1 | ch 1 | Note Off B4 (71) vel 0
228.142s | tick 236538 | track 1 | ch 1 | Note Off E5 (76) vel 0
228.142s | tick 236538 | track 1 | ch 1 | Note Off G5 (79) vel 0
228.142s | tick 236538 | track 1 | ch 1 | Note On G4 (67) vel 25
228.142s | tick 236538 | track 1 | ch 1 | Note On G5 (79) vel 36
228.142s | tick 236538 | track 1 | ch 1 | Note On C#1 (25) vel 29
228.142s | tick 236538 | track 1 | ch 1 | Note On G5 (79) vel 22
228.142s | tick 236538 | track 1 | ch 1 | Note On E5 (76) vel 30
228.142s | tick 236538 | track 1 | ch 1 | Note On C5 (72) vel 30
228.142s | tick 236538 | track 1 | ch 1 | Note On G4 (67) vel 39
228.142s | tick 236538 | track 1 | ch 1 | Note On G5 (79) vel 30
228.327s | tick 236730 | track 1 | ch 1 | Note Off E5 (76) vel 0
228.327s | tick 236730 | track 1 | ch 1 | Note Off E4 (64) vel 0
228.327s | tick 236730 | track 1 | ch 1 | Note On C2 (36) vel 35
228.327s | tick 236730 | track 1 | ch 1 | Note On E4 (64) vel 39
228.327s | tick 236730 | track 1 | ch 1 | Note On E5 (76) vel 30
228.513s | tick 236922 | track 1 | ch 1 | Note Off C5 (72) vel 0
228.513s | tick 236922 | track 1 | ch 1 | Note Off C4 (60) vel 0
228.513s | tick 236922 | track 1 | ch 1 | Note Off C#1 (25) vel 0
228.513s | tick 236922 | track 1 | ch 1 | Note Off C2 (36) vel 0
228.513s | tick 236922 | track 1 | ch 1 | Note On C#1 (25) vel 29
228.513s | tick 236922 | track 1 | ch 1 | Note On C4 (60) vel 39
228.513s | tick 236922 | track 1 | ch 1 | Note On C5 (72) vel 30
228.698s | tick 237114 | track 1 | ch 1 | Note Off G5 (79) vel 0
228.698s | tick 237114 | track 1 | ch 1 | Note Off G4 (67) vel 0
228.698s | tick 237114 | track 1 | ch 1 | Note Off G5 (79) vel 0
228.698s | tick 237114 | track 1 | ch 1 | Note Off G4 (67) vel 0
228.698s | tick 237114 | track 1 | ch 1 | Note On B4 (71) vel 25
228.698s | tick 237114 | track 1 | ch 1 | Note On B5 (83) vel 36
228.698s | tick 237114 | track 1 | ch 1 | Note On C2 (36) vel 35
228.698s | tick 237114 | track 1 | ch 1 | Note On G4 (67) vel 39
228.698s | tick 237114 | track 1 | ch 1 | Note On G5 (79) vel 30
228.883s | tick 237306 | track 1 | ch 1 | Note Off E5 (76) vel 0
228.883s | tick 237306 | track 1 | ch 1 | Note Off E4 (64) vel 0
228.883s | tick 237306 | track 1 | ch 1 | Note Off C#1 (25) vel 0
228.883s | tick 237306 | track 1 | ch 1 | Note Off C2 (36) vel 0
228.883s | tick 237306 | track 1 | ch 1 | Note On C#1 (25) vel 29
228.883s | tick 237306 | track 1 | ch 1 | Note On E4 (64) vel 39
228.883s | tick 237306 | track 1 | ch 1 | Note On E5 (76) vel 30
229.068s | tick 237498 | track 1 | ch 1 | Note Off C5 (72) vel 0
229.068s | tick 237498 | track 1 | ch 1 | Note Off C4 (60) vel 0
229.068s | tick 237498 | track 1 | ch 1 | Note On D2 (38) vel 35
229.068s | tick 237498 | track 1 | ch 1 | Note On C4 (60) vel 39
229.068s | tick 237498 | track 1 | ch 1 | Note On C5 (72) vel 30
229.253s | tick 237690 | track 1 | ch 1 | Note Off A5 (81) vel 0
229.253s | tick 237690 | track 1 | ch 1 | Note Off A4 (69) vel 0
229.253s | tick 237690 | track 1 | ch 1 | Note Off D#1 (27) vel 0
229.253s | tick 237690 | track 1 | ch 1 | Note Off D2 (38) vel 0
229.253s | tick 237690 | track 1 | ch 1 | Note Off B5 (83) vel 0
229.253s | tick 237690 | track 1 | ch 1 | Note Off B4 (71) vel 0
229.253s | tick 237690 | track 1 | ch 1 | Note Off C5 (72) vel 0
229.253s | tick 237690 | track 1 | ch 1 | Note Off E5 (76) vel 0
229.253s | tick 237690 | track 1 | ch 1 | Note Off G5 (79) vel 0
229.253s | tick 237690 | track 1 | ch 1 | Note On A4 (69) vel 25
229.253s | tick 237690 | track 1 | ch 1 | Note On A5 (81) vel 36
229.253s | tick 237690 | track 1 | ch 1 | Note On D#1 (27) vel 29
229.253s | tick 237690 | track 1 | ch 1 | Note On A4 (69) vel 22
229.253s | tick 237690 | track 1 | ch 1 | Note On F#5 (78) vel 30
229.253s | tick 237690 | track 1 | ch 1 | Note On D5 (74) vel 30
229.253s | tick 237690 | track 1 | ch 1 | Note On A4 (69) vel 39
229.253s | tick 237690 | track 1 | ch 1 | Note On A5 (81) vel 30
229.438s | tick 237882 | track 1 | ch 1 | Note Off F#5 (78) vel 0
229.438s | tick 237882 | track 1 | ch 1 | Note Off F#4 (66) vel 0
229.438s | tick 237882 | track 1 | ch 1 | Note On D2 (38) vel 35
229.438s | tick 237882 | track 1 | ch 1 | Note On F#4 (66) vel 39
229.438s | tick 237882 | track 1 | ch 1 | Note On F#5 (78) vel 30
229.624s | tick 238074 | track 1 | ch 1 | Note Off D5 (74) vel 0
229.624s | tick 238074 | track 1 | ch 1 | Note Off D4 (62) vel 0
229.624s | tick 238074 | track 1 | ch 1 | Note Off D#1 (27) vel 0
229.624s | tick 238074 | track 1 | ch 1 | Note Off D2 (38) vel 0
229.624s | tick 238074 | track 1 | ch 1 | Note On D#1 (27) vel 29
229.624s | tick 238074 | track 1 | ch 1 | Note On D4 (62) vel 39
229.624s | tick 238074 | track 1 | ch 1 | Note On D5 (74) vel 30
229.809s | tick 238266 | track 1 | ch 1 | Note Off A5 (81) vel 0
229.809s | tick 238266 | track 1 | ch 1 | Note Off A4 (69) vel 0
229.809s | tick 238266 | track 1 | ch 1 | Note Off A5 (81) vel 0
229.809s | tick 238266 | track 1 | ch 1 | Note Off A4 (69) vel 0
229.809s | tick 238266 | track 1 | ch 1 | Note On G4 (67) vel 25
229.809s | tick 238266 | track 1 | ch 1 | Note On G5 (79) vel 36
229.809s | tick 238266 | track 1 | ch 1 | Note On D2 (38) vel 35
229.809s | tick 238266 | track 1 | ch 1 | Note On A4 (69) vel 39
229.809s | tick 238266 | track 1 | ch 1 | Note On A5 (81) vel 30
229.994s | tick 238458 | track 1 | ch 1 | Note Off D5 (74) vel 0
229.994s | tick 238458 | track 1 | ch 1 | Note Off D4 (62) vel 0
229.994s | tick 238458 | track 1 | ch 1 | Note Off D#1 (27) vel 0
229.994s | tick 238458 | track 1 | ch 1 | Note Off D2 (38) vel 0
229.994s | tick 238458 | track 1 | ch 1 | Note On D#1 (27) vel 29
229.994s | tick 238458 | track 1 | ch 1 | Note On D4 (62) vel 39
229.994s | tick 238458 | track 1 | ch 1 | Note On D5 (74) vel 30
230.179s | tick 238650 | track 1 | ch 1 | Note Off A5 (81) vel 0
230.179s | tick 238650 | track 1 | ch 1 | Note Off A4 (69) vel 0
230.179s | tick 238650 | track 1 | ch 1 | Note On D2 (38) vel 35
230.179s | tick 238650 | track 1 | ch 1 | Note On A4 (69) vel 39
230.179s | tick 238650 | track 1 | ch 1 | Note On A5 (81) vel 30
230.364s | tick 238842 | track 1 | ch 1 | Note Off D#1 (27) vel 0
230.364s | tick 238842 | track 1 | ch 1 | Note Off D2 (38) vel 0
230.364s | tick 238842 | track 1 | ch 1 | Note Off G5 (79) vel 0
230.364s | tick 238842 | track 1 | ch 1 | Note Off G4 (67) vel 0
230.364s | tick 238842 | track 1 | ch 1 | Note On F#4 (66) vel 25
230.364s | tick 238842 | track 1 | ch 1 | Note On F#5 (78) vel 36
230.364s | tick 238842 | track 1 | ch 1 | Note On D#1 (27) vel 29
230.364s | tick 238842 | track 1 | ch 1 | Note On C5 (72) vel 44
230.364s | tick 238842 | track 1 | ch 1 | Note On C6 (84) vel 28
230.457s | tick 238938 | track 1 | ch 1 | Note Off C6 (84) vel 0
230.457s | tick 238938 | track 1 | ch 1 | Note Off C5 (72) vel 0
230.550s | tick 239034 | track 1 | ch 1 | Note On D2 (38) vel 35
230.550s | tick 239034 | track 1 | ch 1 | Note On D4 (62) vel 39
230.642s | tick 239130 | track 1 | ch 1 | Note Off D4 (62) vel 0
230.735s | tick 239226 | track 1 | ch 1 | Note Off D#1 (27) vel 0
230.735s | tick 239226 | track 1 | ch 1 | Note Off D2 (38) vel 0
230.735s | tick 239226 | track 1 | ch 1 | Note Off F#5 (78) vel 0
230.735s | tick 239226 | track 1 | ch 1 | Note Off F#4 (66) vel 0
230.735s | tick 239226 | track 1 | ch 1 | Note On G5 (79) vel 36
230.735s | tick 239226 | track 1 | ch 1 | Note On G4 (67) vel 25
230.735s | tick 239226 | track 1 | ch 1 | Note On D#1 (27) vel 29
230.735s | tick 239226 | track 1 | ch 1 | Note On B4 (71) vel 41
230.735s | tick 239226 | track 1 | ch 1 | Note On B4 (71) vel 41
230.735s | tick 239226 | track 1 | ch 1 | Note On B5 (83) vel 25
230.827s | tick 239322 | track 1 | ch 1 | Note Off B5 (83) vel 0
230.827s | tick 239322 | track 1 | ch 1 | Note Off B4 (71) vel 0
230.827s | tick 239322 | track 1 | ch 1 | Note Off B4 (71) vel 0
230.920s | tick 239418 | track 1 | ch 1 | Note On D2 (38) vel 35
231.105s | tick 239610 | track 1 | ch 1 | Note Off D2 (38) vel 0
231.105s | tick 239610 | track 1 | ch 1 | Note Off G4 (67) vel 0
231.105s | tick 239610 | track 1 | ch 1 | Note Off G5 (79) vel 0
231.105s | tick 239610 | track 1 | ch 1 | Note Off D5 (74) vel 0
231.105s | tick 239610 | track 1 | ch 1 | Note Off F#5 (78) vel 0
231.105s | tick 239610 | track 1 | ch 1 | Note Off A4 (69) vel 0
231.105s | tick 239610 | track 1 | ch 1 | Note On E5 (76) vel 31
231.290s | tick 239802 | track 1 | ch 1 | Note On E2 (40) vel 27
231.475s | tick 239994 | track 1 | ch 1 | Note Off E2 (40) vel 0
231.661s | tick 240186 | track 1 | ch 1 | Note On E4 (64) vel 32
231.661s | tick 240186 | track 1 | ch 1 | Note On E2 (40) vel 27
231.661s | tick 240186 | track 1 | ch 1 | Note On E3 (52) vel 34
231.753s | tick 240282 | track 1 | ch 1 | Note Off E5 (76) vel 0
231.846s | tick 240378 | track 1 | ch 1 | Note Off E2 (40) vel 0
231.846s | tick 240378 | track 1 | ch 1 | Note On G3 (55) vel 34
232.031s | tick 240570 | track 1 | ch 1 | Note On E2 (40) vel 27
232.031s | tick 240570 | track 1 | ch 1 | Note On B3 (59) vel 34
232.216s | tick 240762 | track 1 | ch 1 | Note Off E2 (40) vel 0
232.216s | tick 240762 | track 1 | ch 1 | Note Off E3 (52) vel 0
232.216s | tick 240762 | track 1 | ch 1 | Note On G4 (67) vel 32
232.216s | tick 240762 | track 1 | ch 1 | Note On C4 (60) vel 34
232.309s | tick 240858 | track 1 | ch 1 | Note Off E4 (64) vel 0
232.401s | tick 240954 | track 1 | ch 1 | Note Off G3 (55) vel 0
232.401s | tick 240954 | track 1 | ch 1 | Note On E2 (40) vel 27
232.587s | tick 241146 | track 1 | ch 1 | Note Off E2 (40) vel 0
232.587s | tick 241146 | track 1 | ch 1 | Note Off B3 (59) vel 0
232.772s | tick 241338 | track 1 | ch 1 | Note Off C4 (60) vel 0
232.772s | tick 241338 | track 1 | ch 1 | Note On B4 (71) vel 32
232.772s | tick 241338 | track 1 | ch 1 | Note On E2 (40) vel 27
232.772s | tick 241338 | track 1 | ch 1 | Note On B3 (59) vel 34
232.864s | tick 241434 | track 1 | ch 1 | Note Off G4 (67) vel 0
232.957s | tick 241530 | track 1 | ch 1 | Note Off E2 (40) vel 0
233.142s | tick 241722 | track 1 | ch 1 | Note On E2 (40) vel 27
233.327s | tick 241914 | track 1 | ch 1 | Note Off E2 (40) vel 0
233.327s | tick 241914 | track 1 | ch 1 | Note On E5 (76) vel 32
233.327s | tick 241914 | track 1 | ch 1 | Note On G3 (55) vel 34
233.420s | tick 242010 | track 1 | ch 1 | Note Off B4 (71) vel 0
233.512s | tick 242106 | track 1 | ch 1 | Note Off B3 (59) vel 0
233.512s | tick 242106 | track 1 | ch 1 | Note On E2 (40) vel 27
233.698s | tick 242298 | track 1 | ch 1 | Note Off E2 (40) vel 0
233.883s | tick 242490 | track 1 | ch 1 | Note On E2 (40) vel 27
233.975s | tick 242586 | track 1 | ch 1 | Note Off E5 (76) vel 0
234.068s | tick 242682 | track 1 | ch 1 | Note Off E2 (40) vel 0
234.068s | tick 242682 | track 1 | ch 1 | Note Off G3 (55) vel 0
234.068s | tick 242682 | track 1 | ch 1 | Note On G5 (79) vel 33
234.068s | tick 242682 | track 1 | ch 1 | Note On G5 (79) vel 33
234.068s | tick 242682 | track 1 | ch 1 | Note On C2 (36) vel 34
234.253s | tick 242874 | track 1 | ch 1 | Note On F#5 (78) vel 33
234.253s | tick 242874 | track 1 | ch 1 | Note On F#5 (78) vel 33
234.253s | tick 242874 | track 1 | ch 1 | Note On C2 (36) vel 27
234.253s | tick 242874 | track 1 | ch 1 | Note On G2 (43) vel 34
234.346s | tick 242970 | track 1 | ch 1 | Note Off F#5 (78) vel 0
234.346s | tick 242970 | track 1 | ch 1 | Note Off G5 (79) vel 0
234.438s | tick 243066 | track 1 | ch 1 | Note Off C2 (36) vel 0
234.438s | tick 243066 | track 1 | ch 1 | Note On D5 (74) vel 33
234.438s | tick 243066 | track 1 | ch 1 | Note On C3 (48) vel 34
234.531s | tick 243162 | track 1 | ch 1 | Note Off G5 (79) vel 0
234.624s | tick 243258 | track 1 | ch 1 | Note Off C2 (36) vel 0
234.624s | tick 243258 | track 1 | ch 1 | Note On A4 (69) vel 33
234.624s | tick 243258 | track 1 | ch 1 | Note On C2 (36) vel 27
234.624s | tick 243258 | track 1 | ch 1 | Note On D3 (50) vel 34
234.716s | tick 243354 | track 1 | ch 1 | Note Off F#5 (78) vel 0
234.809s | tick 243450 | track 1 | ch 1 | Note Off C2 (36) vel 0
234.809s | tick 243450 | track 1 | ch 1 | Note Off G2 (43) vel 0
234.809s | tick 243450 | track 1 | ch 1 | Note On G4 (67) vel 33
234.901s | tick 243546 | track 1 | ch 1 | Note Off D5 (74) vel 0
234.994s | tick 243642 | track 1 | ch 1 | Note Off C3 (48) vel 0
234.994s | tick 243642 | track 1 | ch 1 | Note On F#4 (66) vel 33
234.994s | tick 243642 | track 1 | ch 1 | Note On C2 (36) vel 27
234.994s | tick 243642 | track 1 | ch 1 | Note On G3 (55) vel 34
235.087s | tick 243738 | track 1 | ch 1 | Note Off A4 (69) vel 0
235.179s | tick 243834 | track 1 | ch 1 | Note Off C2 (36) vel 0
235.179s | tick 243834 | track 1 | ch 1 | Note Off D3 (50) vel 0
235.179s | tick 243834 | track 1 | ch 1 | Note On D4 (62) vel 33
235.272s | tick 243930 | track 1 | ch 1 | Note Off G4 (67) vel 0
235.364s | tick 244026 | track 1 | ch 1 | Note On A3 (57) vel 33
235.364s | tick 244026 | track 1 | ch 1 | Note On C2 (36) vel 27
235.364s | tick 244026 | track 1 | ch 1 | Note On A3 (57) vel 34
235.457s | tick 244122 | track 1 | ch 1 | Note Off F#4 (66) vel 0
235.550s | tick 244218 | track 1 | ch 1 | Note Off C2 (36) vel 0
235.550s | tick 244218 | track 1 | ch 1 | Note Off G3 (55) vel 0
235.642s | tick 244314 | track 1 | ch 1 | Note Off D4 (62) vel 0
235.735s | tick 244410 | track 1 | ch 1 | Note On D4 (62) vel 33
235.735s | tick 244410 | track 1 | ch 1 | Note On D2 (38) vel 27
235.827s | tick 244506 | track 1 | ch 1 | Note Off A3 (57) vel 0
235.920s | tick 244602 | track 1 | ch 1 | Note Off D2 (38) vel 0
235.920s | tick 244602 | track 1 | ch 1 | Note On B4 (71) vel 33
236.105s | tick 244794 | track 1 | ch 1 | Note On G4 (67) vel 33
236.105s | tick 244794 | track 1 | ch 1 | Note On D2 (38) vel 27
236.198s | tick 244890 | track 1 | ch 1 | Note Off D4 (62) vel 0
236.290s | tick 244986 | track 1 | ch 1 | Note Off D2 (38) vel 0
236.290s | tick 244986 | track 1 | ch 1 | Note Off A3 (57) vel 0
236.290s | tick 244986 | track 1 | ch 1 | Note On E4 (64) vel 33
236.290s | tick 244986 | track 1 | ch 1 | Note On G3 (55) vel 34
236.383s | tick 245082 | track 1 | ch 1 | Note Off B4 (71) vel 0
236.475s | tick 245178 | track 1 | ch 1 | Note On D2 (38) vel 27
236.475s | tick 245178 | track 1 | ch 1 | Note On A3 (57) vel 34
236.568s | tick 245274 | track 1 | ch 1 | Note Off G4 (67) vel 0
236.661s | tick 245370 | track 1 | ch 1 | Note Off D2 (38) vel 0
236.661s | tick 245370 | track 1 | ch 1 | Note On D4 (62) vel 33
236.846s | tick 245562 | track 1 | ch 1 | Note Off G3 (55) vel 0
236.846s | tick 245562 | track 1 | ch 1 | Note On D2 (38) vel 27
236.938s | tick 245658 | track 1 | ch 1 | Note Off E4 (64) vel 0
237.031s | tick 245754 | track 1 | ch 1 | Note Off D2 (38) vel 0
237.031s | tick 245754 | track 1 | ch 1 | Note On D5 (74) vel 33
237.031s | tick 245754 | track 1 | ch 1 | Note On G3 (55) vel 35
237.216s | tick 245946 | track 1 | ch 1 | Note On G4 (67) vel 33
237.216s | tick 245946 | track 1 | ch 1 | Note On E2 (40) vel 25
237.309s | tick 246042 | track 1 | ch 1 | Note Off D4 (62) vel 0
237.401s | tick 246138 | track 1 | ch 1 | Note Off E2 (40) vel 0
237.401s | tick 246138 | track 1 | ch 1 | Note Off A3 (57) vel 0
237.401s | tick 246138 | track 1 | ch 1 | Note On E4 (64) vel 33
237.494s | tick 246234 | track 1 | ch 1 | Note Off D5 (74) vel 0
237.587s | tick 246330 | track 1 | ch 1 | Note On F#4 (66) vel 33
237.587s | tick 246330 | track 1 | ch 1 | Note On E2 (40) vel 22
237.587s | tick 246330 | track 1 | ch 1 | Note On F#3 (54) vel 35
237.679s | tick 246426 | track 1 | ch 1 | Note Off G4 (67) vel 0
237.772s | tick 246522 | track 1 | ch 1 | Note Off E2 (40) vel 0
237.772s | tick 246522 | track 1 | ch 1 | Note Off G3 (55) vel 0
237.772s | tick 246522 | track 1 | ch 1 | Note On B3 (59) vel 33
237.864s | tick 246618 | track 1 | ch 1 | Note Off E4 (64) vel 0
237.957s | tick 246714 | track 1 | ch 1 | Note On E4 (64) vel 33
237.957s | tick 246714 | track 1 | ch 1 | Note On E2 (40) vel 22
238.050s | tick 246810 | track 1 | ch 1 | Note Off F#4 (66) vel 0
238.142s | tick 246906 | track 1 | ch 1 | Note Off E2 (40) vel 0
238.142s | tick 246906 | track 1 | ch 1 | Note On G4 (67) vel 33
238.142s | tick 246906 | track 1 | ch 1 | Note On D3 (50) vel 35
238.235s | tick 247002 | track 1 | ch 1 | Note Off B3 (59) vel 0
238.327s | tick 247098 | track 1 | ch 1 | Note Off F#3 (54) vel 0
238.327s | tick 247098 | track 1 | ch 1 | Note On E2 (40) vel 22
238.420s | tick 247194 | track 1 | ch 1 | Note Off E4 (64) vel 0
238.512s | tick 247290 | track 1 | ch 1 | Note Off E2 (40) vel 0
238.698s | tick 247482 | track 1 | ch 1 | Note On B4 (71) vel 33
238.698s | tick 247482 | track 1 | ch 1 | Note On E2 (40) vel 20
238.698s | tick 247482 | track 1 | ch 1 | Note On G3 (55) vel 35
238.790s | tick 247578 | track 1 | ch 1 | Note Off G4 (67) vel 0
238.883s | tick 247674 | track 1 | ch 1 | Note Off E2 (40) vel 0
238.883s | tick 247674 | track 1 | ch 1 | Note Off D3 (50) vel 0
238.883s | tick 247674 | track 1 | ch 1 | Note On E4 (64) vel 33
238.883s | tick 247674 | track 1 | ch 1 | Note On E4 (64) vel 33
238.975s | tick 247770 | track 1 | ch 1 | Note Off E4 (64) vel 0
239.068s | tick 247866 | track 1 | ch 1 | Note On G4 (67) vel 33
239.068s | tick 247866 | track 1 | ch 1 | Note On E2 (40) vel 19
239.161s | tick 247962 | track 1 | ch 1 | Note Off B4 (71) vel 0
239.253s | tick 248058 | track 1 | ch 1 | Note Off E2 (40) vel 0
239.253s | tick 248058 | track 1 | ch 1 | Note On F#3 (54) vel 35
239.346s | tick 248154 | track 1 | ch 1 | Note Off E4 (64) vel 0
239.438s | tick 248250 | track 1 | ch 1 | Note Off G3 (55) vel 0
239.438s | tick 248250 | track 1 | ch 1 | Note On B4 (71) vel 33
239.438s | tick 248250 | track 1 | ch 1 | Note On E2 (40) vel 17
239.531s | tick 248346 | track 1 | ch 1 | Note Off G4 (67) vel 0
239.624s | tick 248442 | track 1 | ch 1 | Note Off E2 (40) vel 0
239.624s | tick 248442 | track 1 | ch 1 | Note On E5 (76) vel 33
239.624s | tick 248442 | track 1 | ch 1 | Note On E5 (76) vel 33
239.624s | tick 248442 | track 1 | ch 1 | Note On D3 (50) vel 35
239.716s | tick 248538 | track 1 | ch 1 | Note Off E5 (76) vel 0
239.809s | tick 248634 | track 1 | ch 1 | Note On F#5 (78) vel 33
239.809s | tick 248634 | track 1 | ch 1 | Note On E2 (40) vel 16
239.901s | tick 248730 | track 1 | ch 1 | Note Off B4 (71) vel 0
239.994s | tick 248826 | track 1 | ch 1 | Note Off E2 (40) vel 0
239.994s | tick 248826 | track 1 | ch 1 | Note Off F#3 (54) vel 0
239.994s | tick 248826 | track 1 | ch 1 | Note On G5 (79) vel 33
240.087s | tick 248922 | track 1 | ch 1 | Note Off E5 (76) vel 0
240.179s | tick 249018 | track 1 | ch 1 | Note On E5 (76) vel 33
240.179s | tick 249018 | track 1 | ch 1 | Note On G2 (43) vel 35
240.272s | tick 249114 | track 1 | ch 1 | Note Off F#5 (78) vel 0
240.364s | tick 249210 | track 1 | ch 1 | Note Off D3 (50) vel 0
240.364s | tick 249210 | track 1 | ch 1 | Note On C3 (48) vel 35
240.457s | tick 249306 | track 1 | ch 1 | Note Off G5 (79) vel 0
240.550s | tick 249402 | track 1 | ch 1 | Note On B4 (71) vel 33
240.550s | tick 249402 | track 1 | ch 1 | Note On B5 (83) vel 32
240.550s | tick 249402 | track 1 | ch 1 | Note On B4 (71) vel 33
240.550s | tick 249402 | track 1 | ch 1 | Note On D3 (50) vel 35
240.642s | tick 249498 | track 1 | ch 1 | Note Off E5 (76) vel 0
240.735s | tick 249594 | track 1 | ch 1 | Note Off G2 (43) vel 0
240.735s | tick 249594 | track 1 | ch 1 | Note On E3 (52) vel 35
240.827s | tick 249690 | track 1 | ch 1 | Note Off B4 (71) vel 0
240.920s | tick 249786 | track 1 | ch 1 | Note Off C3 (48) vel 0
240.920s | tick 249786 | track 1 | ch 1 | Note On A5 (81) vel 33
240.920s | tick 249786 | track 1 | ch 1 | Note On A4 (69) vel 33
240.920s | tick 249786 | track 1 | ch 1 | Note On G3 (55) vel 35
241.012s | tick 249882 | track 1 | ch 1 | Note Off B4 (71) vel 0
241.012s | tick 249882 | track 1 | ch 1 | Note Off B5 (83) vel 0
241.105s | tick 249978 | track 1 | ch 1 | Note Off D3 (50) vel 0
241.105s | tick 249978 | track 1 | ch 1 | Note On B3 (59) vel 35
241.290s | tick 250170 | track 1 | ch 1 | Note Off E3 (52) vel 0
241.290s | tick 250170 | track 1 | ch 1 | Note On F#5 (78) vel 33
241.290s | tick 250170 | track 1 | ch 1 | Note On F#4 (66) vel 33
241.383s | tick 250266 | track 1 | ch 1 | Note Off A4 (69) vel 0
241.383s | tick 250266 | track 1 | ch 1 | Note Off A5 (81) vel 0
241.475s | tick 250362 | track 1 | ch 1 | Note Off G3 (55) vel 0
241.475s | tick 250362 | track 1 | ch 1 | Note On D2 (38) vel 35
241.661s | tick 250554 | track 1 | ch 1 | Note Off B3 (59) vel 0
241.661s | tick 250554 | track 1 | ch 1 | Note On A4 (69) vel 33
241.661s | tick 250554 | track 1 | ch 1 | Note On B3 (59) vel 32
241.753s | tick 250650 | track 1 | ch 1 | Note Off F#4 (66) vel 0
241.753s | tick 250650 | track 1 | ch 1 | Note Off F#5 (78) vel 0
241.846s | tick 250746 | track 1 | ch 1 | Note On E5 (76) vel 33
241.846s | tick 250746 | track 1 | ch 1 | Note On C4 (60) vel 32
242.031s | tick 250938 | track 1 | ch 1 | Note On F#5 (78) vel 33
242.124s | tick 251034 | track 1 | ch 1 | Note Off A4 (69) vel 0
242.216s | tick 251130 | track 1 | ch 1 | Note Off B3 (59) vel 0
242.216s | tick 251130 | track 1 | ch 1 | Note Off D2 (38) vel 0
242.216s | tick 251130 | track 1 | ch 1 | Note On G4 (67) vel 30
242.216s | tick 251130 | track 1 | ch 1 | Note On G5 (79) vel 33
242.216s | tick 251130 | track 1 | ch 1 | Note On D4 (62) vel 32
242.216s | tick 251130 | track 1 | ch 1 | Note On D4 (62) vel 32
242.309s | tick 251226 | track 1 | ch 1 | Note Off E5 (76) vel 0
242.401s | tick 251322 | track 1 | ch 1 | Note Off C4 (60) vel 0
242.494s | tick 251418 | track 1 | ch 1 | Note Off F#5 (78) vel 0
242.587s | tick 251514 | track 1 | ch 1 | Note Off D4 (62) vel 0
242.671s | tick 251602 | track 1 | ch 1 | Note On F#5 (78) vel 33
242.679s | tick 251610 | track 1 | ch 1 | Note Off G5 (79) vel 0
242.679s | tick 251610 | track 1 | ch 1 | Note Off G4 (67) vel 0
242.683s | tick 251614 | track 1 | ch 1 | Note On F#4 (66) vel 30
242.772s | tick 251706 | track 1 | ch 1 | Note Off D4 (62) vel 0
243.134s | tick 252082 | track 1 | ch 1 | Note Off F#5 (78) vel 0
243.146s | tick 252094 | track 1 | ch 1 | Note Off F#4 (66) vel 0
243.235s | tick 252186 | track 1 | ch 1 | Note On E4 (64) vel 19
243.277s | tick 252230 | track 1 | ch 1 | Note On G4 (67) vel 20
243.323s | tick 252278 | track 1 | ch 1 | Note On B4 (71) vel 22
243.354s | tick 252310 | track 1 | ch 1 | Note On E5 (76) vel 34
249.157s | tick 258326 | track 1 | ch 1 | Note Off B4 (71) vel 0
249.161s | tick 258330 | track 1 | ch 1 | Note Off E4 (64) vel 0
249.188s | tick 258358 | track 1 | ch 1 | Note Off E5 (76) vel 0
249.203s | tick 258374 | track 1 | ch 1 | Note Off G4 (67) vel 0
249.203s | tick 258374 | track 1 | End of Track